G04 EAGLE Gerber RS-274X export*
G75*
%MOMM*%
%FSLAX34Y34*%
%LPD*%
%INBottom Copper*%
%IPPOS*%
%AMOC8*
5,1,8,0,0,1.08239X$1,22.5*%
G01*
%ADD10C,0.152400*%
%ADD11C,0.099059*%
%ADD12C,0.101600*%
%ADD13C,0.654000*%
%ADD14C,1.016000*%
%ADD15C,1.000000*%
%ADD16C,0.101500*%
%ADD17C,0.609600*%
%ADD18C,0.203200*%
%ADD19C,1.879600*%
%ADD20C,0.558800*%
%ADD21C,0.304800*%
%ADD22C,0.254000*%

G36*
X467044Y373921D02*
X467044Y373921D01*
X467052Y373947D01*
X467746Y377958D01*
X467741Y377996D01*
X467747Y378033D01*
X467734Y378064D01*
X467730Y378096D01*
X467706Y378126D01*
X467690Y378161D01*
X467663Y378179D01*
X467642Y378205D01*
X467605Y378217D01*
X467574Y378238D01*
X467516Y378247D01*
X467509Y378249D01*
X467506Y378248D01*
X467500Y378249D01*
X460000Y378249D01*
X459935Y378230D01*
X459868Y378211D01*
X459867Y378210D01*
X459866Y378210D01*
X459820Y378157D01*
X459775Y378107D01*
X459774Y378106D01*
X459774Y378105D01*
X459773Y378102D01*
X459753Y378036D01*
X459330Y375138D01*
X458464Y372360D01*
X457174Y369752D01*
X455492Y367378D01*
X453460Y365296D01*
X451127Y363558D01*
X448550Y362206D01*
X445794Y361274D01*
X442926Y360784D01*
X440000Y360749D01*
X437074Y360784D01*
X434206Y361274D01*
X431450Y362206D01*
X428873Y363558D01*
X426540Y365296D01*
X424508Y367378D01*
X422826Y369752D01*
X421536Y372360D01*
X420670Y375138D01*
X420622Y375466D01*
X420549Y375964D01*
X420549Y375965D01*
X420367Y377211D01*
X420294Y377709D01*
X420247Y378036D01*
X420219Y378096D01*
X420190Y378161D01*
X420189Y378162D01*
X420188Y378163D01*
X420131Y378200D01*
X420074Y378238D01*
X420072Y378238D01*
X420071Y378239D01*
X420068Y378239D01*
X420000Y378249D01*
X412500Y378249D01*
X412462Y378238D01*
X412423Y378237D01*
X412397Y378219D01*
X412366Y378210D01*
X412340Y378181D01*
X412308Y378159D01*
X412295Y378129D01*
X412274Y378105D01*
X412268Y378066D01*
X412253Y378030D01*
X412254Y377974D01*
X412253Y377967D01*
X412254Y377963D01*
X412255Y377956D01*
X412975Y373958D01*
X412979Y373949D01*
X412984Y373923D01*
X413706Y371769D01*
X410952Y371769D01*
X410557Y372989D01*
X410541Y373068D01*
X409893Y376117D01*
X409819Y376815D01*
X409807Y376867D01*
X409804Y376919D01*
X409771Y377021D01*
X409746Y377125D01*
X409722Y377172D01*
X409706Y377221D01*
X409648Y377312D01*
X409599Y377407D01*
X409564Y377446D01*
X409536Y377490D01*
X409458Y377563D01*
X409386Y377643D01*
X409342Y377672D01*
X409304Y377708D01*
X409210Y377760D01*
X409121Y377819D01*
X409071Y377836D01*
X409025Y377862D01*
X408922Y377888D01*
X408821Y377924D01*
X408768Y377928D01*
X408717Y377941D01*
X408557Y377951D01*
X44318Y377951D01*
X44200Y377936D01*
X44081Y377929D01*
X44043Y377916D01*
X44002Y377911D01*
X43892Y377868D01*
X43779Y377831D01*
X43744Y377809D01*
X43707Y377794D01*
X43611Y377725D01*
X43510Y377661D01*
X43482Y377631D01*
X43449Y377608D01*
X43373Y377516D01*
X43292Y377429D01*
X43272Y377394D01*
X43247Y377363D01*
X43196Y377255D01*
X43138Y377151D01*
X43128Y377111D01*
X43111Y377075D01*
X43089Y376958D01*
X43059Y376843D01*
X43055Y376783D01*
X43051Y376763D01*
X43053Y376742D01*
X43049Y376682D01*
X43049Y296090D01*
X43055Y296042D01*
X43052Y295993D01*
X43075Y295885D01*
X43089Y295775D01*
X43107Y295730D01*
X43116Y295682D01*
X43148Y295618D01*
X43053Y294429D01*
X43054Y294407D01*
X43049Y294328D01*
X43049Y293146D01*
X43039Y293132D01*
X43003Y293028D01*
X42959Y292926D01*
X42951Y292878D01*
X42936Y292832D01*
X42913Y292672D01*
X42877Y292221D01*
X42155Y291088D01*
X42154Y291088D01*
X40682Y288776D01*
X40204Y288505D01*
X40084Y288415D01*
X39962Y288327D01*
X39956Y288320D01*
X39949Y288315D01*
X39855Y288198D01*
X39759Y288082D01*
X39755Y288074D01*
X39750Y288067D01*
X39687Y287929D01*
X39624Y287794D01*
X39622Y287785D01*
X39618Y287778D01*
X39592Y287629D01*
X39564Y287481D01*
X39564Y287473D01*
X39563Y287464D01*
X39574Y287315D01*
X39584Y287164D01*
X39586Y287156D01*
X39587Y287147D01*
X39635Y287005D01*
X39682Y286862D01*
X39686Y286854D01*
X39689Y286846D01*
X39771Y286720D01*
X39852Y286593D01*
X39858Y286587D01*
X39863Y286580D01*
X39973Y286479D01*
X40083Y286375D01*
X40091Y286371D01*
X40097Y286365D01*
X40230Y286294D01*
X40362Y286221D01*
X40370Y286219D01*
X40378Y286215D01*
X40524Y286179D01*
X40670Y286142D01*
X40681Y286141D01*
X40687Y286140D01*
X40700Y286140D01*
X40830Y286132D01*
X49786Y286132D01*
X51944Y283974D01*
X51944Y273048D01*
X49786Y270890D01*
X28302Y270890D01*
X28184Y270875D01*
X28065Y270868D01*
X28027Y270855D01*
X27986Y270850D01*
X27876Y270807D01*
X27763Y270770D01*
X27728Y270748D01*
X27691Y270733D01*
X27595Y270664D01*
X27494Y270600D01*
X27466Y270570D01*
X27433Y270547D01*
X27357Y270455D01*
X27276Y270368D01*
X27256Y270333D01*
X27231Y270302D01*
X27180Y270194D01*
X27122Y270090D01*
X27112Y270050D01*
X27095Y270014D01*
X27073Y269897D01*
X27043Y269782D01*
X27039Y269722D01*
X27035Y269702D01*
X27037Y269681D01*
X27033Y269621D01*
X27033Y189818D01*
X27048Y189700D01*
X27055Y189581D01*
X27068Y189543D01*
X27073Y189502D01*
X27116Y189392D01*
X27153Y189279D01*
X27175Y189244D01*
X27190Y189207D01*
X27260Y189110D01*
X27323Y189010D01*
X27353Y188982D01*
X27376Y188949D01*
X27468Y188873D01*
X27555Y188792D01*
X27590Y188772D01*
X27621Y188747D01*
X27729Y188696D01*
X27833Y188638D01*
X27873Y188628D01*
X27909Y188611D01*
X28026Y188589D01*
X28141Y188559D01*
X28201Y188555D01*
X28221Y188551D01*
X28242Y188553D01*
X28302Y188549D01*
X29025Y188549D01*
X29124Y188561D01*
X29223Y188564D01*
X29281Y188581D01*
X29341Y188589D01*
X29433Y188625D01*
X29528Y188653D01*
X29580Y188683D01*
X29637Y188706D01*
X29717Y188764D01*
X29802Y188814D01*
X29878Y188880D01*
X29894Y188892D01*
X29902Y188902D01*
X29923Y188920D01*
X56903Y215901D01*
X64023Y215901D01*
X64121Y215913D01*
X64220Y215916D01*
X64278Y215933D01*
X64338Y215941D01*
X64431Y215977D01*
X64526Y216005D01*
X64578Y216035D01*
X64634Y216058D01*
X64714Y216116D01*
X64800Y216166D01*
X64875Y216232D01*
X64892Y216244D01*
X64899Y216254D01*
X64920Y216272D01*
X65592Y216944D01*
X67366Y217679D01*
X69286Y217679D01*
X71060Y216944D01*
X72418Y215586D01*
X73153Y213812D01*
X73153Y211892D01*
X72418Y210118D01*
X71060Y208760D01*
X69486Y208108D01*
X69366Y208039D01*
X69243Y207974D01*
X69228Y207961D01*
X69210Y207951D01*
X69110Y207854D01*
X69007Y207760D01*
X68996Y207743D01*
X68982Y207729D01*
X68909Y207611D01*
X68833Y207495D01*
X68826Y207476D01*
X68815Y207458D01*
X68775Y207326D01*
X68729Y207194D01*
X68728Y207174D01*
X68722Y207154D01*
X68715Y207016D01*
X68704Y206877D01*
X68708Y206857D01*
X68707Y206837D01*
X68735Y206701D01*
X68759Y206564D01*
X68767Y206545D01*
X68771Y206525D01*
X68832Y206400D01*
X68889Y206274D01*
X68902Y206258D01*
X68911Y206240D01*
X69001Y206133D01*
X69088Y206025D01*
X69104Y206013D01*
X69117Y205998D01*
X69231Y205917D01*
X69342Y205834D01*
X69367Y205822D01*
X69377Y205814D01*
X69396Y205807D01*
X69486Y205763D01*
X71314Y205006D01*
X72672Y203648D01*
X73407Y201874D01*
X73407Y199954D01*
X72672Y198180D01*
X71314Y196822D01*
X69540Y196087D01*
X67620Y196087D01*
X65846Y196822D01*
X65174Y197494D01*
X65096Y197554D01*
X65024Y197622D01*
X64971Y197651D01*
X64923Y197688D01*
X64832Y197728D01*
X64746Y197776D01*
X64687Y197791D01*
X64631Y197815D01*
X64533Y197830D01*
X64438Y197855D01*
X64338Y197861D01*
X64317Y197865D01*
X64305Y197863D01*
X64277Y197865D01*
X55637Y197865D01*
X55538Y197853D01*
X55439Y197850D01*
X55381Y197833D01*
X55321Y197825D01*
X55229Y197789D01*
X55134Y197761D01*
X55082Y197731D01*
X55025Y197708D01*
X54945Y197650D01*
X54860Y197600D01*
X54785Y197534D01*
X54768Y197522D01*
X54760Y197512D01*
X54739Y197494D01*
X50421Y193175D01*
X50336Y193066D01*
X50247Y192959D01*
X50239Y192940D01*
X50226Y192924D01*
X50171Y192796D01*
X50112Y192671D01*
X50108Y192651D01*
X50100Y192632D01*
X50078Y192494D01*
X50052Y192358D01*
X50053Y192338D01*
X50050Y192318D01*
X50063Y192179D01*
X50072Y192041D01*
X50078Y192022D01*
X50080Y192002D01*
X50127Y191870D01*
X50170Y191739D01*
X50180Y191721D01*
X50187Y191702D01*
X50265Y191587D01*
X50340Y191470D01*
X50355Y191456D01*
X50366Y191439D01*
X50470Y191347D01*
X50571Y191252D01*
X50589Y191242D01*
X50604Y191229D01*
X50728Y191165D01*
X50850Y191098D01*
X50869Y191093D01*
X50888Y191084D01*
X51023Y191054D01*
X51158Y191019D01*
X51186Y191017D01*
X51198Y191014D01*
X51218Y191015D01*
X51319Y191009D01*
X64277Y191009D01*
X64375Y191021D01*
X64474Y191024D01*
X64532Y191041D01*
X64592Y191049D01*
X64685Y191085D01*
X64780Y191113D01*
X64832Y191143D01*
X64888Y191166D01*
X64968Y191224D01*
X65054Y191274D01*
X65129Y191340D01*
X65146Y191352D01*
X65153Y191362D01*
X65174Y191380D01*
X65846Y192052D01*
X67620Y192787D01*
X69540Y192787D01*
X71314Y192052D01*
X72672Y190694D01*
X73407Y188920D01*
X73407Y187000D01*
X72672Y185226D01*
X71314Y183868D01*
X69540Y183133D01*
X67620Y183133D01*
X65846Y183868D01*
X65174Y184540D01*
X65096Y184600D01*
X65024Y184668D01*
X64971Y184697D01*
X64923Y184734D01*
X64832Y184774D01*
X64746Y184822D01*
X64687Y184837D01*
X64631Y184861D01*
X64533Y184876D01*
X64438Y184901D01*
X64338Y184907D01*
X64317Y184911D01*
X64305Y184909D01*
X64277Y184911D01*
X50303Y184911D01*
X50204Y184899D01*
X50105Y184896D01*
X50047Y184879D01*
X49987Y184871D01*
X49895Y184835D01*
X49800Y184807D01*
X49748Y184777D01*
X49691Y184754D01*
X49611Y184696D01*
X49526Y184646D01*
X49451Y184580D01*
X49434Y184568D01*
X49426Y184558D01*
X49405Y184540D01*
X37317Y172451D01*
X36912Y172451D01*
X36781Y172435D01*
X36649Y172424D01*
X36623Y172415D01*
X36596Y172411D01*
X36474Y172363D01*
X36348Y172319D01*
X36326Y172304D01*
X36301Y172294D01*
X36194Y172217D01*
X36083Y172143D01*
X36065Y172123D01*
X36043Y172108D01*
X35959Y172005D01*
X35870Y171907D01*
X35858Y171883D01*
X35841Y171863D01*
X35784Y171743D01*
X35723Y171626D01*
X35717Y171599D01*
X35705Y171575D01*
X35680Y171445D01*
X35650Y171316D01*
X35650Y171289D01*
X35645Y171263D01*
X35653Y171131D01*
X35656Y170998D01*
X35663Y170972D01*
X35665Y170945D01*
X35706Y170819D01*
X35741Y170692D01*
X35758Y170657D01*
X35763Y170643D01*
X35775Y170624D01*
X35813Y170547D01*
X38049Y166675D01*
X38049Y164006D01*
X38057Y163937D01*
X38056Y163867D01*
X38077Y163780D01*
X38089Y163691D01*
X38114Y163626D01*
X38131Y163558D01*
X38173Y163478D01*
X38206Y163395D01*
X38247Y163339D01*
X38279Y163277D01*
X38340Y163210D01*
X38392Y163138D01*
X38446Y163093D01*
X38493Y163041D01*
X38568Y162992D01*
X38637Y162935D01*
X38701Y162905D01*
X38759Y162867D01*
X38844Y162837D01*
X38925Y162799D01*
X38994Y162786D01*
X39060Y162763D01*
X39149Y162756D01*
X39237Y162739D01*
X39307Y162744D01*
X39377Y162738D01*
X39465Y162754D01*
X39555Y162759D01*
X39621Y162781D01*
X39690Y162793D01*
X39772Y162830D01*
X39857Y162857D01*
X39916Y162895D01*
X39980Y162923D01*
X40050Y162979D01*
X40126Y163027D01*
X40174Y163078D01*
X40228Y163122D01*
X40283Y163194D01*
X40344Y163259D01*
X40378Y163320D01*
X40420Y163376D01*
X40491Y163520D01*
X41120Y165040D01*
X42478Y166398D01*
X44252Y167133D01*
X46172Y167133D01*
X47946Y166398D01*
X49304Y165040D01*
X49453Y164679D01*
X49478Y164636D01*
X49495Y164589D01*
X49557Y164498D01*
X49611Y164403D01*
X49645Y164367D01*
X49673Y164326D01*
X49756Y164253D01*
X49832Y164175D01*
X49875Y164149D01*
X49912Y164116D01*
X50010Y164066D01*
X50103Y164008D01*
X50151Y163994D01*
X50195Y163971D01*
X50302Y163947D01*
X50407Y163915D01*
X50457Y163912D01*
X50505Y163902D01*
X50615Y163905D01*
X50725Y163900D01*
X50774Y163910D01*
X50823Y163911D01*
X50929Y163942D01*
X51036Y163964D01*
X51081Y163986D01*
X51129Y164000D01*
X51223Y164055D01*
X51322Y164104D01*
X51360Y164136D01*
X51403Y164161D01*
X51523Y164268D01*
X52892Y165636D01*
X54666Y166371D01*
X56586Y166371D01*
X58360Y165636D01*
X59718Y164278D01*
X60453Y162504D01*
X60453Y160584D01*
X60420Y160506D01*
X60407Y160458D01*
X60386Y160413D01*
X60365Y160305D01*
X60336Y160199D01*
X60336Y160149D01*
X60326Y160100D01*
X60333Y159991D01*
X60331Y159881D01*
X60343Y159833D01*
X60346Y159783D01*
X60380Y159679D01*
X60405Y159572D01*
X60429Y159528D01*
X60444Y159481D01*
X60503Y159388D01*
X60554Y159291D01*
X60588Y159254D01*
X60614Y159212D01*
X60694Y159137D01*
X60768Y159055D01*
X60810Y159028D01*
X60846Y158994D01*
X60942Y158941D01*
X61034Y158881D01*
X61081Y158864D01*
X61124Y158840D01*
X61231Y158813D01*
X61335Y158777D01*
X61384Y158773D01*
X61432Y158761D01*
X61593Y158751D01*
X61920Y158751D01*
X63694Y158016D01*
X65052Y156658D01*
X65787Y154884D01*
X65787Y152964D01*
X65052Y151190D01*
X64380Y150518D01*
X64320Y150440D01*
X64252Y150368D01*
X64223Y150315D01*
X64186Y150267D01*
X64146Y150176D01*
X64098Y150090D01*
X64083Y150031D01*
X64059Y149975D01*
X64044Y149877D01*
X64019Y149782D01*
X64013Y149682D01*
X64009Y149661D01*
X64011Y149649D01*
X64009Y149621D01*
X64009Y131303D01*
X64021Y131205D01*
X64024Y131106D01*
X64041Y131048D01*
X64049Y130988D01*
X64085Y130895D01*
X64113Y130800D01*
X64143Y130748D01*
X64166Y130692D01*
X64224Y130612D01*
X64274Y130526D01*
X64340Y130451D01*
X64352Y130434D01*
X64362Y130427D01*
X64380Y130406D01*
X65052Y129734D01*
X65787Y127960D01*
X65787Y126040D01*
X65052Y124266D01*
X63694Y122908D01*
X61920Y122173D01*
X61722Y122173D01*
X61604Y122158D01*
X61485Y122151D01*
X61447Y122138D01*
X61406Y122133D01*
X61296Y122090D01*
X61183Y122053D01*
X61148Y122031D01*
X61111Y122016D01*
X61015Y121947D01*
X60914Y121883D01*
X60886Y121853D01*
X60853Y121830D01*
X60777Y121738D01*
X60696Y121651D01*
X60676Y121616D01*
X60651Y121585D01*
X60600Y121477D01*
X60542Y121373D01*
X60532Y121333D01*
X60515Y121297D01*
X60493Y121180D01*
X60463Y121065D01*
X60459Y121005D01*
X60455Y120985D01*
X60456Y120968D01*
X59718Y119186D01*
X58360Y117828D01*
X56586Y117093D01*
X54666Y117093D01*
X52892Y117828D01*
X51534Y119186D01*
X50799Y120960D01*
X50799Y122951D01*
X50782Y123089D01*
X50769Y123227D01*
X50762Y123246D01*
X50759Y123267D01*
X50708Y123396D01*
X50661Y123527D01*
X50650Y123543D01*
X50642Y123562D01*
X50561Y123675D01*
X50483Y123790D01*
X50467Y123803D01*
X50456Y123820D01*
X50348Y123908D01*
X50244Y124000D01*
X50226Y124009D01*
X50211Y124022D01*
X50085Y124081D01*
X49961Y124145D01*
X49941Y124149D01*
X49923Y124158D01*
X49787Y124184D01*
X49651Y124215D01*
X49630Y124214D01*
X49611Y124218D01*
X49472Y124209D01*
X49333Y124205D01*
X49313Y124199D01*
X49293Y124198D01*
X49161Y124155D01*
X49027Y124116D01*
X49010Y124106D01*
X48991Y124100D01*
X48873Y124025D01*
X48753Y123955D01*
X48732Y123936D01*
X48722Y123930D01*
X48708Y123915D01*
X48632Y123848D01*
X48454Y123670D01*
X46680Y122935D01*
X44760Y122935D01*
X42986Y123670D01*
X41628Y125028D01*
X40998Y126549D01*
X40929Y126670D01*
X40864Y126793D01*
X40851Y126808D01*
X40840Y126825D01*
X40743Y126925D01*
X40650Y127028D01*
X40633Y127039D01*
X40619Y127054D01*
X40501Y127126D01*
X40385Y127203D01*
X40365Y127209D01*
X40348Y127220D01*
X40215Y127261D01*
X40084Y127306D01*
X40063Y127308D01*
X40044Y127314D01*
X39906Y127320D01*
X39767Y127331D01*
X39747Y127328D01*
X39726Y127329D01*
X39591Y127301D01*
X39453Y127277D01*
X39435Y127268D01*
X39415Y127264D01*
X39290Y127203D01*
X39163Y127146D01*
X39148Y127134D01*
X39129Y127125D01*
X39023Y127034D01*
X38915Y126948D01*
X38903Y126931D01*
X38887Y126918D01*
X38807Y126805D01*
X38724Y126694D01*
X38711Y126668D01*
X38704Y126658D01*
X38697Y126639D01*
X38653Y126549D01*
X38128Y125282D01*
X36770Y123924D01*
X34996Y123189D01*
X33076Y123189D01*
X31302Y123924D01*
X29944Y125282D01*
X29475Y126415D01*
X29440Y126476D01*
X29414Y126541D01*
X29362Y126613D01*
X29317Y126692D01*
X29269Y126742D01*
X29228Y126798D01*
X29158Y126856D01*
X29096Y126920D01*
X29036Y126956D01*
X28983Y127001D01*
X28901Y127039D01*
X28825Y127086D01*
X28758Y127107D01*
X28695Y127137D01*
X28607Y127153D01*
X28521Y127180D01*
X28451Y127183D01*
X28382Y127196D01*
X28293Y127191D01*
X28203Y127195D01*
X28135Y127181D01*
X28065Y127177D01*
X27980Y127149D01*
X27892Y127131D01*
X27829Y127100D01*
X27763Y127079D01*
X27687Y127030D01*
X27606Y126991D01*
X27553Y126946D01*
X27494Y126908D01*
X27432Y126843D01*
X27364Y126785D01*
X27324Y126728D01*
X27276Y126677D01*
X27233Y126598D01*
X27181Y126525D01*
X27156Y126459D01*
X27122Y126398D01*
X27100Y126311D01*
X27068Y126227D01*
X27060Y126158D01*
X27043Y126090D01*
X27033Y125930D01*
X27033Y98205D01*
X25293Y96465D01*
X25208Y96356D01*
X25119Y96249D01*
X25110Y96230D01*
X25098Y96214D01*
X25043Y96086D01*
X24983Y95961D01*
X24980Y95941D01*
X24972Y95922D01*
X24950Y95784D01*
X24924Y95648D01*
X24925Y95628D01*
X24922Y95608D01*
X24935Y95469D01*
X24943Y95331D01*
X24950Y95312D01*
X24952Y95292D01*
X24999Y95160D01*
X25041Y95029D01*
X25052Y95011D01*
X25059Y94992D01*
X25137Y94877D01*
X25212Y94760D01*
X25226Y94746D01*
X25238Y94729D01*
X25342Y94637D01*
X25443Y94542D01*
X25461Y94532D01*
X25476Y94519D01*
X25600Y94455D01*
X25722Y94388D01*
X25741Y94383D01*
X25759Y94374D01*
X25895Y94344D01*
X26030Y94309D01*
X26058Y94307D01*
X26070Y94304D01*
X26090Y94305D01*
X26190Y94299D01*
X33258Y94299D01*
X33345Y94310D01*
X33432Y94311D01*
X33493Y94327D01*
X35017Y94299D01*
X35025Y94300D01*
X35041Y94299D01*
X36567Y94299D01*
X36638Y94279D01*
X36768Y94269D01*
X36781Y94267D01*
X36787Y94267D01*
X36798Y94266D01*
X37113Y94260D01*
X40699Y92242D01*
X42898Y88765D01*
X42929Y88316D01*
X42940Y88264D01*
X42941Y88211D01*
X42970Y88108D01*
X42991Y88004D01*
X43014Y87956D01*
X43029Y87905D01*
X43053Y87864D01*
X43049Y86648D01*
X43052Y86626D01*
X43052Y86556D01*
X43136Y85354D01*
X43135Y85352D01*
X43108Y85249D01*
X43073Y85149D01*
X43068Y85096D01*
X43055Y85044D01*
X43044Y84884D01*
X42807Y4830D01*
X42822Y4710D01*
X42830Y4589D01*
X42842Y4552D01*
X42846Y4514D01*
X42891Y4401D01*
X42928Y4287D01*
X42948Y4254D01*
X42963Y4218D01*
X43033Y4120D01*
X43098Y4018D01*
X43126Y3991D01*
X43149Y3960D01*
X43242Y3883D01*
X43330Y3800D01*
X43363Y3781D01*
X43393Y3757D01*
X43502Y3705D01*
X43608Y3646D01*
X43645Y3637D01*
X43680Y3620D01*
X43799Y3597D01*
X43916Y3567D01*
X43973Y3563D01*
X43992Y3560D01*
X44013Y3561D01*
X44077Y3557D01*
X408599Y3557D01*
X408656Y3564D01*
X408714Y3562D01*
X408814Y3584D01*
X408915Y3597D01*
X408968Y3618D01*
X409024Y3630D01*
X409116Y3676D01*
X409211Y3714D01*
X409257Y3747D01*
X409308Y3773D01*
X409385Y3840D01*
X409468Y3900D01*
X409505Y3945D01*
X409548Y3982D01*
X409606Y4067D01*
X409671Y4145D01*
X409695Y4197D01*
X409728Y4245D01*
X409763Y4341D01*
X409806Y4433D01*
X409817Y4489D01*
X409837Y4543D01*
X409863Y4702D01*
X409879Y4867D01*
X410442Y7608D01*
X410524Y8008D01*
X410913Y9231D01*
X413662Y9231D01*
X412957Y7089D01*
X412956Y7079D01*
X412948Y7053D01*
X412254Y3042D01*
X412259Y3004D01*
X412253Y2967D01*
X412266Y2936D01*
X412270Y2904D01*
X412294Y2874D01*
X412310Y2839D01*
X412337Y2821D01*
X412358Y2795D01*
X412395Y2783D01*
X412427Y2762D01*
X412484Y2753D01*
X412491Y2751D01*
X412494Y2752D01*
X412500Y2751D01*
X420000Y2751D01*
X420065Y2770D01*
X420132Y2789D01*
X420133Y2790D01*
X420134Y2790D01*
X420180Y2843D01*
X420225Y2893D01*
X420226Y2895D01*
X420227Y2898D01*
X420247Y2964D01*
X420670Y5862D01*
X421536Y8640D01*
X422826Y11248D01*
X424508Y13622D01*
X426540Y15704D01*
X428873Y17442D01*
X431450Y18794D01*
X434206Y19726D01*
X437074Y20216D01*
X440000Y20251D01*
X442926Y20216D01*
X445794Y19726D01*
X448550Y18794D01*
X451127Y17442D01*
X453460Y15704D01*
X455492Y13622D01*
X457174Y11248D01*
X458464Y8640D01*
X459330Y5862D01*
X459462Y4961D01*
X459534Y4462D01*
X459607Y3964D01*
X459680Y3465D01*
X459753Y2964D01*
X459781Y2903D01*
X459810Y2839D01*
X459811Y2838D01*
X459812Y2837D01*
X459869Y2800D01*
X459927Y2762D01*
X459928Y2762D01*
X459929Y2761D01*
X459932Y2761D01*
X460000Y2751D01*
X467500Y2751D01*
X467538Y2762D01*
X467577Y2763D01*
X467603Y2781D01*
X467634Y2790D01*
X467660Y2819D01*
X467692Y2841D01*
X467705Y2871D01*
X467726Y2895D01*
X467732Y2934D01*
X467747Y2970D01*
X467746Y3026D01*
X467747Y3033D01*
X467746Y3037D01*
X467745Y3044D01*
X467025Y7042D01*
X467021Y7051D01*
X467016Y7077D01*
X466294Y9231D01*
X469047Y9231D01*
X469443Y8010D01*
X470107Y4884D01*
X470127Y4692D01*
X470139Y4641D01*
X470143Y4589D01*
X470176Y4487D01*
X470200Y4383D01*
X470224Y4336D01*
X470241Y4287D01*
X470298Y4196D01*
X470348Y4101D01*
X470383Y4062D01*
X470411Y4018D01*
X470489Y3944D01*
X470560Y3865D01*
X470604Y3836D01*
X470642Y3800D01*
X470736Y3748D01*
X470825Y3689D01*
X470875Y3672D01*
X470921Y3646D01*
X471025Y3620D01*
X471126Y3584D01*
X471178Y3580D01*
X471229Y3567D01*
X471389Y3557D01*
X644877Y3557D01*
X645000Y3572D01*
X645123Y3581D01*
X645157Y3592D01*
X645193Y3597D01*
X645308Y3642D01*
X645424Y3681D01*
X645455Y3700D01*
X645489Y3714D01*
X645588Y3786D01*
X645692Y3853D01*
X645717Y3879D01*
X645746Y3900D01*
X645825Y3995D01*
X645908Y4086D01*
X645926Y4117D01*
X645949Y4145D01*
X646001Y4257D01*
X646060Y4365D01*
X646069Y4400D01*
X646084Y4433D01*
X646107Y4554D01*
X646137Y4674D01*
X646141Y4727D01*
X646144Y4745D01*
X646143Y4767D01*
X646147Y4834D01*
X645677Y76018D01*
X645657Y76169D01*
X645639Y76319D01*
X645636Y76326D01*
X645635Y76334D01*
X645578Y76474D01*
X645523Y76616D01*
X645519Y76622D01*
X645516Y76629D01*
X645426Y76750D01*
X645337Y76874D01*
X645332Y76879D01*
X645327Y76885D01*
X645209Y76981D01*
X645093Y77078D01*
X645087Y77081D01*
X645081Y77086D01*
X644943Y77150D01*
X644806Y77215D01*
X644799Y77216D01*
X644792Y77219D01*
X644643Y77247D01*
X644494Y77276D01*
X644487Y77276D01*
X644480Y77277D01*
X644329Y77267D01*
X644177Y77258D01*
X644170Y77256D01*
X644162Y77255D01*
X644019Y77208D01*
X643874Y77162D01*
X643865Y77157D01*
X643861Y77155D01*
X643851Y77149D01*
X643732Y77085D01*
X643587Y76993D01*
X642919Y76918D01*
X642859Y76903D01*
X642797Y76898D01*
X642642Y76855D01*
X642202Y76701D01*
X642170Y76685D01*
X642152Y76680D01*
X642055Y76713D01*
X642010Y76716D01*
X641967Y76727D01*
X641806Y76737D01*
X641386Y76737D01*
X641373Y76736D01*
X641244Y76729D01*
X640498Y76645D01*
X640494Y76648D01*
X640367Y76680D01*
X640241Y76719D01*
X640213Y76720D01*
X640186Y76727D01*
X640025Y76737D01*
X636371Y76737D01*
X636343Y76734D01*
X636315Y76736D01*
X636186Y76714D01*
X636055Y76697D01*
X636029Y76687D01*
X636002Y76682D01*
X635914Y76643D01*
X635152Y76729D01*
X635138Y76729D01*
X635010Y76737D01*
X634590Y76737D01*
X634546Y76732D01*
X634501Y76734D01*
X634388Y76712D01*
X634275Y76697D01*
X634237Y76683D01*
X634194Y76701D01*
X633754Y76855D01*
X633693Y76868D01*
X633635Y76890D01*
X633477Y76918D01*
X632809Y76993D01*
X632240Y77351D01*
X632184Y77377D01*
X632133Y77411D01*
X631984Y77474D01*
X631350Y77696D01*
X630875Y78171D01*
X630826Y78209D01*
X630783Y78254D01*
X630653Y78348D01*
X630084Y78706D01*
X629726Y79275D01*
X629687Y79323D01*
X629656Y79376D01*
X629549Y79497D01*
X629061Y79985D01*
X629043Y80041D01*
X628992Y80121D01*
X628950Y80206D01*
X628907Y80255D01*
X628872Y80310D01*
X628804Y80375D01*
X628742Y80446D01*
X628688Y80483D01*
X628641Y80528D01*
X628558Y80574D01*
X628480Y80628D01*
X628419Y80650D01*
X628362Y80682D01*
X628271Y80705D01*
X628182Y80738D01*
X628117Y80745D01*
X628054Y80761D01*
X627894Y80771D01*
X609202Y80771D01*
X609138Y80763D01*
X609073Y80765D01*
X608980Y80743D01*
X608887Y80731D01*
X608826Y80707D01*
X608763Y80693D01*
X608679Y80649D01*
X608591Y80614D01*
X608538Y80576D01*
X608481Y80546D01*
X608410Y80483D01*
X608334Y80428D01*
X608292Y80377D01*
X608244Y80334D01*
X608191Y80255D01*
X608131Y80183D01*
X608103Y80124D01*
X608067Y80070D01*
X608028Y79978D01*
X607547Y79497D01*
X607509Y79448D01*
X607464Y79405D01*
X607370Y79275D01*
X607012Y78706D01*
X606443Y78348D01*
X606395Y78309D01*
X606342Y78278D01*
X606221Y78171D01*
X605746Y77696D01*
X605112Y77474D01*
X605056Y77446D01*
X604997Y77428D01*
X604856Y77351D01*
X604287Y76993D01*
X603619Y76918D01*
X603559Y76903D01*
X603497Y76898D01*
X603342Y76855D01*
X602902Y76701D01*
X602870Y76685D01*
X602852Y76680D01*
X602755Y76713D01*
X602710Y76716D01*
X602667Y76727D01*
X602506Y76737D01*
X602086Y76737D01*
X602073Y76736D01*
X601944Y76729D01*
X601198Y76645D01*
X601194Y76648D01*
X601067Y76680D01*
X600941Y76719D01*
X600913Y76720D01*
X600886Y76727D01*
X600725Y76737D01*
X592071Y76737D01*
X592043Y76734D01*
X592015Y76736D01*
X591886Y76714D01*
X591755Y76697D01*
X591729Y76687D01*
X591702Y76682D01*
X591614Y76643D01*
X590852Y76729D01*
X590838Y76729D01*
X590710Y76737D01*
X590290Y76737D01*
X590246Y76732D01*
X590200Y76734D01*
X590088Y76712D01*
X589975Y76697D01*
X589937Y76683D01*
X589894Y76701D01*
X589454Y76855D01*
X589393Y76868D01*
X589335Y76890D01*
X589177Y76918D01*
X588509Y76993D01*
X587940Y77351D01*
X587884Y77377D01*
X587832Y77411D01*
X587684Y77474D01*
X587050Y77696D01*
X586575Y78171D01*
X586526Y78209D01*
X586483Y78254D01*
X586353Y78348D01*
X585784Y78706D01*
X585426Y79275D01*
X585387Y79323D01*
X585356Y79376D01*
X585249Y79497D01*
X584774Y79972D01*
X584552Y80606D01*
X584524Y80662D01*
X584506Y80721D01*
X584429Y80862D01*
X584071Y81431D01*
X583996Y82099D01*
X583981Y82159D01*
X583976Y82221D01*
X583933Y82376D01*
X583711Y83010D01*
X583786Y83678D01*
X583785Y83740D01*
X583794Y83801D01*
X583786Y83962D01*
X583711Y84630D01*
X583933Y85264D01*
X583946Y85325D01*
X583968Y85383D01*
X583996Y85541D01*
X584071Y86209D01*
X584346Y86647D01*
X584429Y86778D01*
X584455Y86834D01*
X584489Y86886D01*
X584552Y87034D01*
X584774Y87668D01*
X585249Y88143D01*
X585287Y88192D01*
X585332Y88235D01*
X585426Y88365D01*
X585784Y88934D01*
X586145Y89161D01*
X586209Y89213D01*
X586278Y89257D01*
X586331Y89314D01*
X586391Y89363D01*
X586440Y89429D01*
X586496Y89489D01*
X586534Y89557D01*
X586579Y89619D01*
X586610Y89696D01*
X586650Y89767D01*
X586669Y89843D01*
X586698Y89915D01*
X586709Y89996D01*
X586729Y90075D01*
X586739Y90224D01*
X586739Y90230D01*
X586739Y90232D01*
X586739Y90236D01*
X586739Y163764D01*
X586729Y163845D01*
X586729Y163927D01*
X586709Y164003D01*
X586699Y164079D01*
X586669Y164156D01*
X586649Y164235D01*
X586611Y164303D01*
X586582Y164375D01*
X586534Y164441D01*
X586494Y164513D01*
X586441Y164570D01*
X586396Y164632D01*
X586332Y164685D01*
X586276Y164744D01*
X586155Y164832D01*
X586151Y164835D01*
X586149Y164836D01*
X586145Y164839D01*
X585784Y165066D01*
X585426Y165635D01*
X585387Y165683D01*
X585356Y165736D01*
X585249Y165857D01*
X584774Y166332D01*
X584552Y166966D01*
X584524Y167022D01*
X584506Y167081D01*
X584429Y167222D01*
X584071Y167791D01*
X583996Y168459D01*
X583981Y168519D01*
X583976Y168581D01*
X583933Y168736D01*
X583711Y169370D01*
X583786Y170038D01*
X583785Y170100D01*
X583794Y170161D01*
X583786Y170322D01*
X583711Y170990D01*
X583933Y171624D01*
X583946Y171685D01*
X583968Y171743D01*
X583996Y171901D01*
X584071Y172569D01*
X584314Y172955D01*
X584314Y172956D01*
X584315Y172956D01*
X584429Y173138D01*
X584455Y173194D01*
X584489Y173246D01*
X584552Y173394D01*
X584774Y174028D01*
X585249Y174503D01*
X585287Y174552D01*
X585332Y174595D01*
X585426Y174725D01*
X585784Y175294D01*
X586353Y175652D01*
X586401Y175691D01*
X586454Y175722D01*
X586575Y175829D01*
X587050Y176304D01*
X587684Y176526D01*
X587740Y176554D01*
X587799Y176572D01*
X587940Y176649D01*
X588509Y177007D01*
X589177Y177082D01*
X589237Y177097D01*
X589299Y177102D01*
X589454Y177145D01*
X589894Y177299D01*
X589926Y177315D01*
X589944Y177320D01*
X590041Y177287D01*
X590086Y177284D01*
X590129Y177273D01*
X590290Y177263D01*
X590710Y177263D01*
X590723Y177264D01*
X590852Y177271D01*
X591598Y177355D01*
X591602Y177352D01*
X591729Y177320D01*
X591855Y177281D01*
X591883Y177280D01*
X591910Y177273D01*
X592071Y177263D01*
X600725Y177263D01*
X600753Y177266D01*
X600781Y177264D01*
X600910Y177286D01*
X601041Y177303D01*
X601067Y177313D01*
X601094Y177318D01*
X601182Y177357D01*
X601944Y177271D01*
X601958Y177271D01*
X602086Y177263D01*
X602506Y177263D01*
X602550Y177268D01*
X602596Y177266D01*
X602708Y177288D01*
X602821Y177303D01*
X602859Y177317D01*
X602902Y177299D01*
X603342Y177145D01*
X603403Y177132D01*
X603461Y177110D01*
X603619Y177082D01*
X604287Y177007D01*
X604856Y176649D01*
X604912Y176623D01*
X604964Y176589D01*
X605112Y176526D01*
X605746Y176304D01*
X606221Y175829D01*
X606270Y175791D01*
X606313Y175746D01*
X606443Y175652D01*
X607012Y175294D01*
X607370Y174725D01*
X607409Y174677D01*
X607440Y174624D01*
X607547Y174503D01*
X608153Y173897D01*
X608258Y173816D01*
X608258Y173815D01*
X608264Y173809D01*
X608275Y173801D01*
X608359Y173730D01*
X608366Y173727D01*
X608366Y173726D01*
X608392Y173712D01*
X608404Y173703D01*
X608424Y173694D01*
X608452Y173678D01*
X608525Y173628D01*
X608587Y173604D01*
X608645Y173572D01*
X608735Y173549D01*
X608823Y173516D01*
X608889Y173510D01*
X608953Y173493D01*
X609113Y173483D01*
X627983Y173483D01*
X628047Y173491D01*
X628112Y173489D01*
X628204Y173511D01*
X628298Y173523D01*
X628359Y173547D01*
X628422Y173561D01*
X628506Y173605D01*
X628594Y173640D01*
X628646Y173678D01*
X628704Y173708D01*
X628748Y173747D01*
X628823Y173791D01*
X628851Y173816D01*
X628863Y173824D01*
X628878Y173840D01*
X628943Y173897D01*
X629549Y174503D01*
X629587Y174552D01*
X629632Y174595D01*
X629726Y174725D01*
X630084Y175294D01*
X630653Y175652D01*
X630701Y175691D01*
X630754Y175722D01*
X630875Y175829D01*
X631350Y176304D01*
X631984Y176526D01*
X632040Y176554D01*
X632099Y176572D01*
X632240Y176649D01*
X632809Y177007D01*
X633477Y177082D01*
X633537Y177097D01*
X633599Y177102D01*
X633754Y177145D01*
X634194Y177299D01*
X634226Y177315D01*
X634244Y177320D01*
X634341Y177287D01*
X634386Y177284D01*
X634429Y177273D01*
X634590Y177263D01*
X635010Y177263D01*
X635023Y177264D01*
X635152Y177271D01*
X635898Y177355D01*
X635902Y177352D01*
X636029Y177320D01*
X636155Y177281D01*
X636183Y177280D01*
X636210Y177273D01*
X636371Y177263D01*
X640025Y177263D01*
X640053Y177266D01*
X640081Y177264D01*
X640210Y177286D01*
X640341Y177303D01*
X640367Y177313D01*
X640394Y177318D01*
X640482Y177357D01*
X641244Y177271D01*
X641258Y177271D01*
X641386Y177263D01*
X641806Y177263D01*
X641850Y177268D01*
X641896Y177266D01*
X642008Y177288D01*
X642121Y177303D01*
X642159Y177317D01*
X642202Y177299D01*
X642642Y177145D01*
X642703Y177132D01*
X642761Y177110D01*
X642919Y177082D01*
X643590Y177006D01*
X643626Y177007D01*
X643660Y177000D01*
X643784Y177009D01*
X643908Y177011D01*
X643943Y177020D01*
X643978Y177022D01*
X644095Y177061D01*
X644215Y177094D01*
X644246Y177111D01*
X644280Y177122D01*
X644384Y177189D01*
X644492Y177251D01*
X644518Y177275D01*
X644547Y177294D01*
X644631Y177385D01*
X644721Y177471D01*
X644740Y177501D01*
X644764Y177527D01*
X644823Y177636D01*
X644888Y177742D01*
X644898Y177776D01*
X644915Y177807D01*
X644945Y177927D01*
X644982Y178046D01*
X644984Y178081D01*
X644993Y178115D01*
X645002Y178276D01*
X644680Y227084D01*
X644664Y227198D01*
X644657Y227313D01*
X644644Y227355D01*
X644638Y227400D01*
X644595Y227506D01*
X644559Y227615D01*
X644535Y227653D01*
X644519Y227695D01*
X644451Y227787D01*
X644389Y227884D01*
X644357Y227915D01*
X644330Y227951D01*
X644241Y228023D01*
X644158Y228102D01*
X644118Y228124D01*
X644084Y228152D01*
X643980Y228200D01*
X643879Y228256D01*
X643836Y228267D01*
X643795Y228286D01*
X643682Y228306D01*
X643571Y228335D01*
X643503Y228339D01*
X643483Y228343D01*
X643463Y228342D01*
X643410Y228345D01*
X575825Y228345D01*
X574039Y230131D01*
X574039Y303523D01*
X575825Y305309D01*
X645160Y305309D01*
X645278Y305324D01*
X645397Y305331D01*
X645435Y305344D01*
X645476Y305349D01*
X645586Y305392D01*
X645699Y305429D01*
X645734Y305451D01*
X645771Y305466D01*
X645867Y305535D01*
X645968Y305599D01*
X645996Y305629D01*
X646029Y305652D01*
X646105Y305744D01*
X646186Y305831D01*
X646206Y305866D01*
X646231Y305897D01*
X646282Y306005D01*
X646340Y306109D01*
X646350Y306149D01*
X646367Y306185D01*
X646389Y306302D01*
X646419Y306417D01*
X646423Y306477D01*
X646427Y306497D01*
X646425Y306518D01*
X646429Y306578D01*
X646429Y376682D01*
X646414Y376800D01*
X646407Y376919D01*
X646394Y376957D01*
X646389Y376998D01*
X646346Y377108D01*
X646309Y377221D01*
X646287Y377256D01*
X646272Y377293D01*
X646203Y377389D01*
X646139Y377490D01*
X646109Y377518D01*
X646086Y377551D01*
X645994Y377627D01*
X645907Y377708D01*
X645872Y377728D01*
X645841Y377753D01*
X645733Y377804D01*
X645629Y377862D01*
X645589Y377872D01*
X645553Y377889D01*
X645436Y377911D01*
X645321Y377941D01*
X645261Y377945D01*
X645241Y377949D01*
X645220Y377947D01*
X645160Y377951D01*
X471450Y377951D01*
X471393Y377944D01*
X471336Y377946D01*
X471236Y377924D01*
X471135Y377911D01*
X471081Y377890D01*
X471025Y377878D01*
X470934Y377832D01*
X470839Y377794D01*
X470793Y377761D01*
X470741Y377735D01*
X470664Y377668D01*
X470582Y377608D01*
X470545Y377563D01*
X470502Y377526D01*
X470444Y377441D01*
X470379Y377363D01*
X470354Y377311D01*
X470322Y377263D01*
X470287Y377167D01*
X470243Y377075D01*
X470233Y377019D01*
X470213Y376965D01*
X470187Y376806D01*
X470121Y376133D01*
X469511Y373163D01*
X469476Y372992D01*
X469087Y371769D01*
X466338Y371769D01*
X467044Y373911D01*
X467044Y373921D01*
G37*
%LPC*%
G36*
X501479Y7873D02*
X501479Y7873D01*
X499998Y9354D01*
X499998Y23158D01*
X501405Y24564D01*
X501465Y24642D01*
X501533Y24714D01*
X501562Y24767D01*
X501599Y24815D01*
X501639Y24906D01*
X501687Y24993D01*
X501702Y25052D01*
X501726Y25107D01*
X501741Y25205D01*
X501766Y25301D01*
X501772Y25401D01*
X501776Y25421D01*
X501774Y25434D01*
X501776Y25462D01*
X501776Y47912D01*
X501764Y48010D01*
X501761Y48109D01*
X501744Y48167D01*
X501736Y48228D01*
X501700Y48320D01*
X501672Y48415D01*
X501642Y48467D01*
X501619Y48523D01*
X501561Y48603D01*
X501511Y48689D01*
X501445Y48764D01*
X501433Y48781D01*
X501423Y48788D01*
X501405Y48810D01*
X464819Y85395D01*
X464819Y88900D01*
X464804Y89018D01*
X464797Y89137D01*
X464784Y89175D01*
X464779Y89216D01*
X464736Y89326D01*
X464699Y89439D01*
X464677Y89474D01*
X464662Y89511D01*
X464593Y89607D01*
X464529Y89708D01*
X464499Y89736D01*
X464476Y89769D01*
X464384Y89845D01*
X464297Y89926D01*
X464262Y89946D01*
X464231Y89971D01*
X464123Y90022D01*
X464019Y90080D01*
X463979Y90090D01*
X463943Y90107D01*
X463826Y90129D01*
X463711Y90159D01*
X463651Y90163D01*
X463631Y90167D01*
X463610Y90165D01*
X463550Y90169D01*
X267746Y90169D01*
X267734Y90180D01*
X267681Y90209D01*
X267633Y90246D01*
X267542Y90286D01*
X267456Y90334D01*
X267397Y90349D01*
X267341Y90373D01*
X267243Y90388D01*
X267148Y90413D01*
X267048Y90419D01*
X267027Y90423D01*
X267015Y90421D01*
X266987Y90423D01*
X190297Y90423D01*
X164083Y116637D01*
X164083Y170880D01*
X164071Y170979D01*
X164068Y171078D01*
X164051Y171136D01*
X164043Y171196D01*
X164007Y171288D01*
X163979Y171383D01*
X163949Y171435D01*
X163926Y171492D01*
X163868Y171572D01*
X163818Y171657D01*
X163752Y171732D01*
X163740Y171749D01*
X163730Y171757D01*
X163712Y171778D01*
X163331Y172159D01*
X163236Y172232D01*
X163147Y172311D01*
X163111Y172329D01*
X163079Y172354D01*
X162970Y172401D01*
X162864Y172455D01*
X162824Y172464D01*
X162787Y172480D01*
X162670Y172499D01*
X162554Y172525D01*
X162513Y172524D01*
X162473Y172530D01*
X162355Y172519D01*
X162236Y172515D01*
X162197Y172504D01*
X162157Y172500D01*
X162044Y172460D01*
X161930Y172427D01*
X161896Y172406D01*
X161857Y172393D01*
X161759Y172326D01*
X161656Y172265D01*
X161611Y172226D01*
X161594Y172214D01*
X161581Y172199D01*
X161536Y172159D01*
X161080Y171703D01*
X153372Y171703D01*
X151891Y173184D01*
X151891Y186988D01*
X153555Y188652D01*
X153615Y188695D01*
X153716Y188759D01*
X153744Y188789D01*
X153777Y188812D01*
X153853Y188904D01*
X153934Y188991D01*
X153954Y189026D01*
X153979Y189057D01*
X154030Y189165D01*
X154088Y189269D01*
X154098Y189309D01*
X154115Y189345D01*
X154137Y189462D01*
X154167Y189577D01*
X154171Y189637D01*
X154175Y189657D01*
X154173Y189678D01*
X154177Y189738D01*
X154177Y192416D01*
X154165Y192515D01*
X154162Y192614D01*
X154145Y192672D01*
X154137Y192732D01*
X154101Y192824D01*
X154073Y192919D01*
X154043Y192971D01*
X154020Y193027D01*
X153962Y193108D01*
X153923Y193174D01*
X153923Y195932D01*
X156854Y198862D01*
X156914Y198941D01*
X156982Y199013D01*
X157011Y199066D01*
X157048Y199114D01*
X157088Y199205D01*
X157136Y199291D01*
X157151Y199350D01*
X157175Y199405D01*
X157190Y199503D01*
X157215Y199599D01*
X157221Y199699D01*
X157225Y199719D01*
X157223Y199732D01*
X157225Y199760D01*
X157225Y200350D01*
X157960Y202124D01*
X159318Y203482D01*
X161092Y204217D01*
X162814Y204217D01*
X162932Y204232D01*
X163051Y204239D01*
X163089Y204252D01*
X163130Y204257D01*
X163240Y204300D01*
X163353Y204337D01*
X163388Y204359D01*
X163425Y204374D01*
X163521Y204443D01*
X163622Y204507D01*
X163650Y204537D01*
X163683Y204560D01*
X163759Y204652D01*
X163840Y204739D01*
X163860Y204774D01*
X163885Y204805D01*
X163936Y204913D01*
X163994Y205017D01*
X164004Y205057D01*
X164021Y205093D01*
X164043Y205210D01*
X164073Y205325D01*
X164077Y205385D01*
X164081Y205405D01*
X164079Y205426D01*
X164083Y205486D01*
X164083Y222265D01*
X164071Y222363D01*
X164068Y222462D01*
X164051Y222520D01*
X164043Y222580D01*
X164007Y222673D01*
X163979Y222768D01*
X163949Y222820D01*
X163926Y222876D01*
X163868Y222956D01*
X163818Y223042D01*
X163752Y223117D01*
X163740Y223134D01*
X163730Y223141D01*
X163712Y223162D01*
X163548Y223326D01*
X162813Y225100D01*
X162813Y227020D01*
X163548Y228794D01*
X163712Y228958D01*
X163772Y229036D01*
X163840Y229108D01*
X163869Y229161D01*
X163906Y229209D01*
X163946Y229300D01*
X163994Y229386D01*
X164009Y229445D01*
X164033Y229501D01*
X164048Y229599D01*
X164073Y229694D01*
X164079Y229794D01*
X164083Y229815D01*
X164081Y229827D01*
X164083Y229855D01*
X164083Y237693D01*
X199187Y272797D01*
X217185Y272797D01*
X217283Y272809D01*
X217382Y272812D01*
X217440Y272829D01*
X217501Y272837D01*
X217593Y272873D01*
X217688Y272901D01*
X217740Y272931D01*
X217796Y272954D01*
X217876Y273012D01*
X217962Y273062D01*
X218037Y273128D01*
X218054Y273140D01*
X218061Y273150D01*
X218083Y273169D01*
X218246Y273332D01*
X220020Y274067D01*
X221940Y274067D01*
X223714Y273332D01*
X225072Y271974D01*
X225807Y270200D01*
X225807Y268280D01*
X225072Y266506D01*
X223714Y265148D01*
X221940Y264413D01*
X220020Y264413D01*
X218246Y265148D01*
X218083Y265311D01*
X218004Y265372D01*
X217932Y265440D01*
X217879Y265469D01*
X217831Y265506D01*
X217740Y265546D01*
X217654Y265594D01*
X217595Y265609D01*
X217539Y265633D01*
X217442Y265648D01*
X217346Y265673D01*
X217245Y265679D01*
X217225Y265683D01*
X217213Y265681D01*
X217185Y265683D01*
X202659Y265683D01*
X202561Y265671D01*
X202462Y265668D01*
X202404Y265651D01*
X202343Y265643D01*
X202251Y265607D01*
X202156Y265579D01*
X202104Y265549D01*
X202048Y265526D01*
X201968Y265468D01*
X201882Y265418D01*
X201807Y265352D01*
X201790Y265340D01*
X201783Y265330D01*
X201761Y265312D01*
X171568Y235119D01*
X171508Y235040D01*
X171440Y234968D01*
X171411Y234915D01*
X171374Y234867D01*
X171334Y234776D01*
X171286Y234690D01*
X171271Y234631D01*
X171247Y234575D01*
X171232Y234477D01*
X171207Y234382D01*
X171201Y234282D01*
X171197Y234261D01*
X171199Y234249D01*
X171197Y234221D01*
X171197Y229855D01*
X171209Y229757D01*
X171212Y229658D01*
X171229Y229600D01*
X171237Y229540D01*
X171273Y229447D01*
X171301Y229352D01*
X171331Y229300D01*
X171354Y229244D01*
X171412Y229164D01*
X171462Y229078D01*
X171528Y229003D01*
X171540Y228986D01*
X171550Y228979D01*
X171568Y228958D01*
X171732Y228794D01*
X172467Y227020D01*
X172467Y225100D01*
X171732Y223326D01*
X171568Y223162D01*
X171508Y223084D01*
X171440Y223012D01*
X171411Y222959D01*
X171374Y222911D01*
X171334Y222820D01*
X171286Y222734D01*
X171271Y222675D01*
X171247Y222619D01*
X171232Y222521D01*
X171207Y222426D01*
X171201Y222326D01*
X171197Y222305D01*
X171199Y222293D01*
X171197Y222265D01*
X171197Y205486D01*
X171212Y205368D01*
X171219Y205249D01*
X171232Y205211D01*
X171237Y205170D01*
X171280Y205060D01*
X171317Y204947D01*
X171339Y204912D01*
X171354Y204875D01*
X171423Y204779D01*
X171487Y204678D01*
X171517Y204650D01*
X171540Y204617D01*
X171632Y204541D01*
X171719Y204460D01*
X171754Y204440D01*
X171785Y204415D01*
X171893Y204364D01*
X171997Y204306D01*
X172037Y204296D01*
X172073Y204279D01*
X172190Y204257D01*
X172305Y204227D01*
X172365Y204223D01*
X172385Y204219D01*
X172406Y204221D01*
X172466Y204217D01*
X174442Y204217D01*
X176216Y203482D01*
X177574Y202124D01*
X178309Y200350D01*
X178309Y199760D01*
X178321Y199662D01*
X178324Y199563D01*
X178341Y199504D01*
X178349Y199444D01*
X178385Y199352D01*
X178413Y199257D01*
X178443Y199205D01*
X178466Y199149D01*
X178524Y199069D01*
X178574Y198983D01*
X178640Y198908D01*
X178652Y198891D01*
X178662Y198883D01*
X178680Y198862D01*
X181357Y196186D01*
X181357Y193429D01*
X181346Y193417D01*
X181325Y193379D01*
X181305Y193356D01*
X181298Y193341D01*
X181280Y193316D01*
X181240Y193225D01*
X181192Y193139D01*
X181179Y193088D01*
X181170Y193068D01*
X181168Y193059D01*
X181153Y193025D01*
X181138Y192927D01*
X181113Y192831D01*
X181107Y192731D01*
X181103Y192710D01*
X181105Y192698D01*
X181103Y192670D01*
X181103Y189738D01*
X181118Y189620D01*
X181125Y189501D01*
X181138Y189463D01*
X181143Y189422D01*
X181186Y189312D01*
X181223Y189199D01*
X181245Y189164D01*
X181260Y189127D01*
X181329Y189031D01*
X181393Y188930D01*
X181423Y188902D01*
X181446Y188869D01*
X181538Y188793D01*
X181625Y188712D01*
X181660Y188692D01*
X181691Y188667D01*
X181727Y188650D01*
X183389Y186988D01*
X183389Y173784D01*
X183397Y173714D01*
X183396Y173645D01*
X183417Y173557D01*
X183429Y173468D01*
X183454Y173403D01*
X183471Y173335D01*
X183495Y173290D01*
X181908Y171703D01*
X174200Y171703D01*
X173745Y172159D01*
X173651Y172232D01*
X173561Y172311D01*
X173525Y172329D01*
X173493Y172354D01*
X173384Y172401D01*
X173278Y172455D01*
X173239Y172464D01*
X173201Y172480D01*
X173084Y172499D01*
X172968Y172525D01*
X172927Y172524D01*
X172887Y172530D01*
X172769Y172519D01*
X172650Y172515D01*
X172611Y172504D01*
X172571Y172500D01*
X172459Y172460D01*
X172344Y172427D01*
X172309Y172406D01*
X172271Y172393D01*
X172173Y172326D01*
X172070Y172265D01*
X172025Y172225D01*
X172008Y172214D01*
X171995Y172199D01*
X171950Y172159D01*
X171568Y171778D01*
X171508Y171700D01*
X171440Y171628D01*
X171411Y171575D01*
X171374Y171527D01*
X171334Y171436D01*
X171286Y171349D01*
X171271Y171290D01*
X171247Y171235D01*
X171232Y171137D01*
X171207Y171041D01*
X171201Y170941D01*
X171197Y170921D01*
X171199Y170908D01*
X171197Y170880D01*
X171197Y120109D01*
X171209Y120011D01*
X171212Y119912D01*
X171229Y119854D01*
X171237Y119793D01*
X171273Y119701D01*
X171301Y119606D01*
X171331Y119554D01*
X171354Y119498D01*
X171412Y119418D01*
X171462Y119332D01*
X171528Y119257D01*
X171540Y119240D01*
X171550Y119233D01*
X171568Y119211D01*
X192871Y97908D01*
X192950Y97848D01*
X193022Y97780D01*
X193075Y97751D01*
X193123Y97714D01*
X193214Y97674D01*
X193300Y97626D01*
X193359Y97611D01*
X193415Y97587D01*
X193513Y97572D01*
X193608Y97547D01*
X193708Y97541D01*
X193729Y97537D01*
X193741Y97539D01*
X193769Y97537D01*
X263799Y97537D01*
X263848Y97543D01*
X263898Y97541D01*
X264005Y97563D01*
X264115Y97577D01*
X264161Y97595D01*
X264209Y97605D01*
X264308Y97653D01*
X264410Y97694D01*
X264450Y97723D01*
X264495Y97745D01*
X264579Y97816D01*
X264668Y97880D01*
X264699Y97919D01*
X264737Y97951D01*
X264800Y98041D01*
X264870Y98125D01*
X264892Y98170D01*
X264920Y98211D01*
X264959Y98314D01*
X265006Y98413D01*
X265015Y98462D01*
X265033Y98508D01*
X265045Y98618D01*
X265066Y98725D01*
X265063Y98775D01*
X265068Y98824D01*
X265053Y98933D01*
X265046Y99043D01*
X265031Y99090D01*
X265024Y99139D01*
X264972Y99292D01*
X264413Y100640D01*
X264413Y102560D01*
X265148Y104334D01*
X266506Y105692D01*
X268280Y106427D01*
X270200Y106427D01*
X271974Y105692D01*
X273332Y104334D01*
X274067Y102560D01*
X274067Y100640D01*
X273403Y99038D01*
X273390Y98990D01*
X273369Y98945D01*
X273348Y98837D01*
X273319Y98731D01*
X273318Y98681D01*
X273309Y98632D01*
X273316Y98523D01*
X273314Y98413D01*
X273326Y98365D01*
X273329Y98315D01*
X273363Y98211D01*
X273388Y98104D01*
X273411Y98060D01*
X273427Y98013D01*
X273486Y97920D01*
X273537Y97823D01*
X273570Y97786D01*
X273597Y97744D01*
X273677Y97669D01*
X273751Y97587D01*
X273792Y97560D01*
X273829Y97526D01*
X273925Y97473D01*
X274017Y97413D01*
X274064Y97396D01*
X274107Y97372D01*
X274213Y97345D01*
X274317Y97309D01*
X274367Y97305D01*
X274415Y97293D01*
X274576Y97283D01*
X463550Y97283D01*
X463668Y97298D01*
X463787Y97305D01*
X463825Y97318D01*
X463866Y97323D01*
X463976Y97366D01*
X464089Y97403D01*
X464124Y97425D01*
X464161Y97440D01*
X464257Y97509D01*
X464358Y97573D01*
X464386Y97603D01*
X464419Y97626D01*
X464494Y97718D01*
X464576Y97805D01*
X464596Y97840D01*
X464621Y97871D01*
X464672Y97979D01*
X464730Y98083D01*
X464740Y98123D01*
X464757Y98159D01*
X464779Y98276D01*
X464809Y98391D01*
X464813Y98451D01*
X464817Y98471D01*
X464815Y98492D01*
X464819Y98552D01*
X464819Y116347D01*
X464807Y116445D01*
X464804Y116544D01*
X464787Y116602D01*
X464779Y116662D01*
X464743Y116755D01*
X464715Y116850D01*
X464685Y116902D01*
X464662Y116958D01*
X464604Y117038D01*
X464554Y117124D01*
X464488Y117199D01*
X464476Y117216D01*
X464466Y117223D01*
X464448Y117244D01*
X463522Y118170D01*
X462787Y119944D01*
X462787Y121864D01*
X463241Y122958D01*
X463254Y123006D01*
X463275Y123051D01*
X463295Y123159D01*
X463324Y123265D01*
X463325Y123315D01*
X463335Y123364D01*
X463328Y123473D01*
X463330Y123583D01*
X463318Y123631D01*
X463315Y123681D01*
X463281Y123785D01*
X463255Y123892D01*
X463232Y123936D01*
X463217Y123983D01*
X463158Y124076D01*
X463107Y124173D01*
X463073Y124210D01*
X463047Y124252D01*
X462967Y124327D01*
X462893Y124409D01*
X462851Y124436D01*
X462815Y124470D01*
X462719Y124523D01*
X462627Y124583D01*
X462580Y124600D01*
X462537Y124624D01*
X462430Y124651D01*
X462326Y124687D01*
X462277Y124691D01*
X462229Y124703D01*
X462068Y124713D01*
X461230Y124713D01*
X461189Y124724D01*
X461139Y124725D01*
X461090Y124735D01*
X460981Y124728D01*
X460871Y124729D01*
X460823Y124718D01*
X460773Y124715D01*
X460669Y124681D01*
X460562Y124655D01*
X460518Y124632D01*
X460471Y124617D01*
X460378Y124558D01*
X460281Y124507D01*
X460244Y124473D01*
X460202Y124447D01*
X460127Y124367D01*
X460046Y124293D01*
X460018Y124251D01*
X459984Y124215D01*
X459931Y124119D01*
X459871Y124027D01*
X459855Y123980D01*
X459830Y123936D01*
X459803Y123830D01*
X459767Y123727D01*
X459763Y123677D01*
X459751Y123629D01*
X459741Y123468D01*
X459741Y123253D01*
X451168Y123253D01*
X451049Y123238D01*
X450931Y123230D01*
X450892Y123218D01*
X450852Y123213D01*
X450838Y123207D01*
X450808Y123213D01*
X450693Y123243D01*
X450633Y123246D01*
X450613Y123250D01*
X450592Y123249D01*
X450532Y123253D01*
X441959Y123253D01*
X441959Y124734D01*
X442167Y125510D01*
X442297Y125735D01*
X442333Y125820D01*
X442378Y125901D01*
X442394Y125966D01*
X442420Y126028D01*
X442434Y126120D01*
X442457Y126209D01*
X442464Y126326D01*
X442467Y126343D01*
X442466Y126352D01*
X442467Y126370D01*
X442467Y133513D01*
X443956Y135002D01*
X457744Y135002D01*
X458641Y134105D01*
X458664Y134087D01*
X458683Y134065D01*
X458789Y133990D01*
X458892Y133910D01*
X458919Y133898D01*
X458944Y133882D01*
X459065Y133836D01*
X459184Y133784D01*
X459213Y133779D01*
X459241Y133769D01*
X459370Y133754D01*
X459498Y133734D01*
X459528Y133737D01*
X459557Y133734D01*
X459685Y133752D01*
X459815Y133764D01*
X459843Y133774D01*
X459872Y133778D01*
X460024Y133830D01*
X461320Y134367D01*
X463296Y134367D01*
X463414Y134382D01*
X463533Y134389D01*
X463571Y134402D01*
X463612Y134407D01*
X463722Y134450D01*
X463835Y134487D01*
X463870Y134509D01*
X463907Y134524D01*
X464003Y134593D01*
X464104Y134657D01*
X464132Y134687D01*
X464165Y134710D01*
X464241Y134802D01*
X464322Y134889D01*
X464342Y134924D01*
X464367Y134955D01*
X464418Y135063D01*
X464476Y135167D01*
X464486Y135207D01*
X464503Y135243D01*
X464525Y135360D01*
X464555Y135475D01*
X464559Y135535D01*
X464563Y135555D01*
X464561Y135576D01*
X464565Y135636D01*
X464565Y147099D01*
X464553Y147197D01*
X464550Y147296D01*
X464533Y147354D01*
X464525Y147415D01*
X464489Y147507D01*
X464461Y147602D01*
X464431Y147654D01*
X464408Y147710D01*
X464350Y147790D01*
X464300Y147876D01*
X464234Y147951D01*
X464222Y147968D01*
X464212Y147975D01*
X464194Y147997D01*
X459401Y152790D01*
X459322Y152850D01*
X459250Y152918D01*
X459197Y152947D01*
X459149Y152984D01*
X459058Y153024D01*
X458972Y153072D01*
X458913Y153087D01*
X458857Y153111D01*
X458759Y153126D01*
X458664Y153151D01*
X458564Y153157D01*
X458543Y153161D01*
X458531Y153159D01*
X458503Y153161D01*
X445567Y153161D01*
X443483Y155245D01*
X443483Y179339D01*
X443471Y179437D01*
X443468Y179536D01*
X443451Y179594D01*
X443443Y179654D01*
X443407Y179747D01*
X443379Y179842D01*
X443349Y179894D01*
X443326Y179950D01*
X443268Y180030D01*
X443218Y180116D01*
X443152Y180191D01*
X443140Y180208D01*
X443130Y180215D01*
X443112Y180236D01*
X442948Y180400D01*
X442213Y182174D01*
X442213Y184094D01*
X442948Y185868D01*
X444306Y187226D01*
X446080Y187961D01*
X448000Y187961D01*
X449774Y187226D01*
X451132Y185868D01*
X451867Y184094D01*
X451867Y182174D01*
X451132Y180400D01*
X450968Y180236D01*
X450908Y180158D01*
X450840Y180086D01*
X450811Y180033D01*
X450774Y179985D01*
X450734Y179894D01*
X450686Y179808D01*
X450671Y179749D01*
X450647Y179693D01*
X450632Y179595D01*
X450607Y179500D01*
X450601Y179399D01*
X450597Y179379D01*
X450599Y179367D01*
X450597Y179339D01*
X450597Y161544D01*
X450612Y161426D01*
X450619Y161307D01*
X450632Y161269D01*
X450637Y161228D01*
X450680Y161118D01*
X450717Y161005D01*
X450739Y160970D01*
X450754Y160933D01*
X450823Y160837D01*
X450887Y160736D01*
X450917Y160708D01*
X450940Y160675D01*
X451032Y160599D01*
X451119Y160518D01*
X451154Y160498D01*
X451185Y160473D01*
X451293Y160422D01*
X451397Y160364D01*
X451437Y160354D01*
X451473Y160337D01*
X451590Y160315D01*
X451705Y160285D01*
X451765Y160281D01*
X451785Y160277D01*
X451806Y160279D01*
X451866Y160275D01*
X461975Y160275D01*
X471679Y150571D01*
X471679Y134981D01*
X471685Y134932D01*
X471683Y134882D01*
X471705Y134775D01*
X471719Y134665D01*
X471737Y134619D01*
X471747Y134571D01*
X471795Y134472D01*
X471836Y134370D01*
X471865Y134330D01*
X471887Y134285D01*
X471958Y134201D01*
X472022Y134112D01*
X472061Y134081D01*
X472093Y134043D01*
X472183Y133980D01*
X472267Y133910D01*
X472312Y133888D01*
X472353Y133860D01*
X472456Y133821D01*
X472555Y133774D01*
X472604Y133765D01*
X472650Y133747D01*
X472760Y133735D01*
X472867Y133714D01*
X472917Y133717D01*
X472966Y133712D01*
X473075Y133727D01*
X473185Y133734D01*
X473232Y133749D01*
X473281Y133756D01*
X473434Y133808D01*
X474782Y134367D01*
X476493Y134367D01*
X476592Y134379D01*
X476691Y134382D01*
X476749Y134399D01*
X476809Y134407D01*
X476901Y134443D01*
X476996Y134471D01*
X477048Y134501D01*
X477105Y134524D01*
X477185Y134582D01*
X477270Y134632D01*
X477345Y134698D01*
X477362Y134710D01*
X477370Y134720D01*
X477391Y134738D01*
X488578Y145925D01*
X488638Y146003D01*
X488706Y146075D01*
X488735Y146128D01*
X488772Y146176D01*
X488812Y146267D01*
X488860Y146354D01*
X488875Y146413D01*
X488899Y146468D01*
X488914Y146566D01*
X488939Y146662D01*
X488945Y146762D01*
X488949Y146782D01*
X488947Y146795D01*
X488949Y146823D01*
X488949Y147772D01*
X489684Y149546D01*
X491042Y150904D01*
X492816Y151639D01*
X494736Y151639D01*
X496510Y150904D01*
X497868Y149546D01*
X498603Y147772D01*
X498603Y145852D01*
X497868Y144078D01*
X496510Y142720D01*
X494736Y141985D01*
X493787Y141985D01*
X493688Y141973D01*
X493589Y141970D01*
X493531Y141953D01*
X493471Y141945D01*
X493379Y141909D01*
X493284Y141881D01*
X493232Y141851D01*
X493175Y141828D01*
X493095Y141770D01*
X493010Y141720D01*
X492935Y141654D01*
X492918Y141642D01*
X492910Y141632D01*
X492889Y141614D01*
X480940Y129665D01*
X480880Y129587D01*
X480812Y129515D01*
X480783Y129462D01*
X480746Y129414D01*
X480706Y129323D01*
X480658Y129236D01*
X480643Y129177D01*
X480619Y129122D01*
X480604Y129024D01*
X480579Y128928D01*
X480573Y128828D01*
X480569Y128808D01*
X480571Y128795D01*
X480569Y128767D01*
X480569Y128580D01*
X479834Y126806D01*
X478476Y125448D01*
X476702Y124713D01*
X474782Y124713D01*
X473434Y125272D01*
X473386Y125285D01*
X473341Y125306D01*
X473233Y125327D01*
X473127Y125356D01*
X473077Y125356D01*
X473028Y125366D01*
X472919Y125359D01*
X472809Y125361D01*
X472761Y125349D01*
X472711Y125346D01*
X472607Y125312D01*
X472500Y125287D01*
X472456Y125263D01*
X472409Y125248D01*
X472316Y125189D01*
X472219Y125138D01*
X472182Y125104D01*
X472140Y125078D01*
X472065Y124998D01*
X471983Y124924D01*
X471956Y124882D01*
X471922Y124846D01*
X471869Y124750D01*
X471809Y124658D01*
X471792Y124611D01*
X471768Y124568D01*
X471741Y124461D01*
X471705Y124357D01*
X471701Y124308D01*
X471689Y124260D01*
X471679Y124099D01*
X471679Y123956D01*
X471680Y123947D01*
X471679Y123938D01*
X471700Y123789D01*
X471719Y123641D01*
X471722Y123632D01*
X471723Y123623D01*
X471775Y123470D01*
X472441Y121864D01*
X472441Y119944D01*
X472029Y118951D01*
X472027Y118942D01*
X472022Y118934D01*
X471985Y118788D01*
X471945Y118644D01*
X471945Y118635D01*
X471943Y118626D01*
X471933Y118465D01*
X471933Y88867D01*
X471945Y88769D01*
X471948Y88670D01*
X471965Y88612D01*
X471973Y88551D01*
X472009Y88459D01*
X472037Y88364D01*
X472067Y88312D01*
X472090Y88256D01*
X472148Y88176D01*
X472198Y88090D01*
X472264Y88015D01*
X472276Y87998D01*
X472286Y87991D01*
X472304Y87969D01*
X508890Y51384D01*
X508890Y35765D01*
X508898Y35696D01*
X508897Y35626D01*
X508918Y35539D01*
X508930Y35450D01*
X508955Y35385D01*
X508972Y35317D01*
X509014Y35238D01*
X509047Y35154D01*
X509088Y35098D01*
X509120Y35036D01*
X509181Y34970D01*
X509233Y34897D01*
X509287Y34852D01*
X509334Y34801D01*
X509409Y34751D01*
X509478Y34694D01*
X509541Y34664D01*
X509600Y34626D01*
X509685Y34597D01*
X509766Y34559D01*
X509835Y34545D01*
X509901Y34523D01*
X509990Y34516D01*
X510078Y34499D01*
X510148Y34503D01*
X510218Y34498D01*
X510306Y34513D01*
X510396Y34519D01*
X510462Y34540D01*
X510531Y34552D01*
X510613Y34589D01*
X510698Y34617D01*
X510757Y34654D01*
X510821Y34683D01*
X510891Y34739D01*
X510967Y34787D01*
X511015Y34838D01*
X511069Y34881D01*
X511123Y34953D01*
X511185Y35018D01*
X511219Y35080D01*
X511261Y35135D01*
X511332Y35280D01*
X511528Y35754D01*
X512886Y37112D01*
X514660Y37847D01*
X516580Y37847D01*
X518354Y37112D01*
X519712Y35754D01*
X520447Y33980D01*
X520447Y32060D01*
X519712Y30286D01*
X519294Y29868D01*
X519234Y29790D01*
X519166Y29718D01*
X519137Y29665D01*
X519100Y29617D01*
X519060Y29526D01*
X519012Y29440D01*
X518997Y29381D01*
X518973Y29325D01*
X518958Y29227D01*
X518933Y29132D01*
X518927Y29031D01*
X518923Y29011D01*
X518925Y28999D01*
X518923Y28971D01*
X518923Y25843D01*
X518935Y25744D01*
X518938Y25645D01*
X518955Y25587D01*
X518963Y25527D01*
X518999Y25435D01*
X519027Y25340D01*
X519057Y25288D01*
X519080Y25231D01*
X519138Y25151D01*
X519188Y25066D01*
X519254Y24991D01*
X519266Y24974D01*
X519276Y24966D01*
X519294Y24945D01*
X521082Y23158D01*
X521082Y9354D01*
X519601Y7873D01*
X511893Y7873D01*
X511438Y8329D01*
X511344Y8402D01*
X511254Y8481D01*
X511218Y8499D01*
X511186Y8524D01*
X511077Y8571D01*
X510971Y8625D01*
X510932Y8634D01*
X510894Y8650D01*
X510777Y8669D01*
X510661Y8695D01*
X510620Y8694D01*
X510580Y8700D01*
X510462Y8689D01*
X510343Y8685D01*
X510304Y8674D01*
X510264Y8670D01*
X510152Y8630D01*
X510037Y8597D01*
X510002Y8576D01*
X509964Y8563D01*
X509866Y8496D01*
X509763Y8435D01*
X509718Y8395D01*
X509701Y8384D01*
X509688Y8369D01*
X509643Y8329D01*
X509187Y7873D01*
X501479Y7873D01*
G37*
%LPD*%
G36*
X601901Y78773D02*
X601901Y78773D01*
X601904Y78771D01*
X603016Y78896D01*
X603022Y78902D01*
X603027Y78899D01*
X604084Y79269D01*
X604088Y79276D01*
X604094Y79273D01*
X605042Y79869D01*
X605045Y79877D01*
X605050Y79876D01*
X605842Y80668D01*
X605843Y80676D01*
X605849Y80676D01*
X606445Y81624D01*
X606444Y81633D01*
X606449Y81634D01*
X606819Y82691D01*
X606818Y82695D01*
X606820Y82697D01*
X606818Y82700D01*
X606822Y82702D01*
X606833Y82805D01*
X630263Y82805D01*
X630274Y82702D01*
X630280Y82696D01*
X630277Y82691D01*
X630647Y81634D01*
X630654Y81630D01*
X630651Y81624D01*
X631247Y80676D01*
X631255Y80673D01*
X631254Y80668D01*
X632046Y79876D01*
X632054Y79875D01*
X632054Y79869D01*
X633002Y79273D01*
X633011Y79274D01*
X633012Y79269D01*
X634069Y78899D01*
X634077Y78901D01*
X634080Y78896D01*
X635193Y78771D01*
X635196Y78773D01*
X635198Y78771D01*
X641198Y78771D01*
X641201Y78773D01*
X641204Y78771D01*
X642316Y78896D01*
X642322Y78902D01*
X642327Y78899D01*
X643384Y79269D01*
X643388Y79276D01*
X643394Y79273D01*
X644342Y79869D01*
X644345Y79877D01*
X644350Y79876D01*
X645142Y80668D01*
X645143Y80676D01*
X645149Y80676D01*
X645745Y81624D01*
X645744Y81633D01*
X645749Y81634D01*
X646119Y82691D01*
X646118Y82695D01*
X646120Y82697D01*
X646118Y82700D01*
X646122Y82702D01*
X646247Y83815D01*
X646243Y83822D01*
X646247Y83826D01*
X646122Y84938D01*
X646116Y84944D01*
X646119Y84949D01*
X645749Y86006D01*
X645743Y86010D01*
X645745Y86016D01*
X645149Y86964D01*
X645141Y86967D01*
X645142Y86972D01*
X644350Y87764D01*
X644342Y87765D01*
X644342Y87771D01*
X643394Y88367D01*
X643385Y88366D01*
X643384Y88371D01*
X642327Y88741D01*
X642319Y88739D01*
X642316Y88744D01*
X641204Y88869D01*
X641200Y88867D01*
X641198Y88869D01*
X639213Y88869D01*
X639213Y91411D01*
X641946Y91411D01*
X643412Y91119D01*
X644424Y90700D01*
X644538Y90671D01*
X644651Y90636D01*
X644676Y90635D01*
X644699Y90629D01*
X644817Y90632D01*
X644935Y90630D01*
X644959Y90636D01*
X644983Y90637D01*
X645096Y90673D01*
X645210Y90704D01*
X645231Y90716D01*
X645254Y90724D01*
X645352Y90789D01*
X645453Y90851D01*
X645470Y90868D01*
X645490Y90882D01*
X645566Y90972D01*
X645647Y91059D01*
X645658Y91081D01*
X645673Y91100D01*
X645721Y91208D01*
X645774Y91313D01*
X645778Y91335D01*
X645789Y91359D01*
X645828Y91641D01*
X645827Y91643D01*
X645828Y91645D01*
X645362Y162176D01*
X645346Y162286D01*
X645336Y162397D01*
X645325Y162426D01*
X645320Y162457D01*
X645274Y162559D01*
X645234Y162663D01*
X645215Y162688D01*
X645202Y162716D01*
X645130Y162800D01*
X645063Y162889D01*
X645038Y162908D01*
X645017Y162932D01*
X644924Y162993D01*
X644835Y163060D01*
X644806Y163071D01*
X644780Y163088D01*
X644673Y163121D01*
X644569Y163160D01*
X644538Y163162D01*
X644508Y163172D01*
X644396Y163174D01*
X644285Y163183D01*
X644258Y163176D01*
X644224Y163177D01*
X643995Y163116D01*
X643958Y163107D01*
X643412Y162881D01*
X641945Y162589D01*
X639213Y162589D01*
X639213Y165131D01*
X641198Y165131D01*
X641201Y165133D01*
X641204Y165131D01*
X642316Y165256D01*
X642322Y165262D01*
X642327Y165259D01*
X643384Y165629D01*
X643388Y165636D01*
X643394Y165633D01*
X644342Y166229D01*
X644345Y166237D01*
X644350Y166236D01*
X645142Y167028D01*
X645143Y167036D01*
X645149Y167036D01*
X645745Y167984D01*
X645744Y167993D01*
X645749Y167994D01*
X646119Y169051D01*
X646118Y169055D01*
X646120Y169057D01*
X646118Y169060D01*
X646122Y169062D01*
X646247Y170175D01*
X646243Y170182D01*
X646247Y170186D01*
X646122Y171298D01*
X646116Y171304D01*
X646119Y171309D01*
X645749Y172366D01*
X645743Y172370D01*
X645745Y172376D01*
X645149Y173324D01*
X645141Y173327D01*
X645142Y173332D01*
X644350Y174124D01*
X644342Y174125D01*
X644342Y174131D01*
X643394Y174727D01*
X643385Y174726D01*
X643384Y174731D01*
X642327Y175101D01*
X642319Y175099D01*
X642316Y175104D01*
X641204Y175229D01*
X641200Y175227D01*
X641198Y175229D01*
X635198Y175229D01*
X635195Y175227D01*
X635194Y175227D01*
X635193Y175229D01*
X634080Y175104D01*
X634074Y175098D01*
X634069Y175101D01*
X633012Y174731D01*
X633008Y174725D01*
X633002Y174727D01*
X632054Y174131D01*
X632051Y174123D01*
X632046Y174124D01*
X631254Y173332D01*
X631253Y173324D01*
X631247Y173324D01*
X630651Y172376D01*
X630652Y172367D01*
X630647Y172366D01*
X630277Y171309D01*
X630279Y171303D01*
X630275Y171300D01*
X630276Y171299D01*
X630274Y171298D01*
X630263Y171195D01*
X627262Y171195D01*
X627219Y171224D01*
X627176Y171264D01*
X627101Y171303D01*
X627031Y171349D01*
X626975Y171367D01*
X626923Y171394D01*
X626855Y171405D01*
X626760Y171435D01*
X626660Y171438D01*
X626592Y171449D01*
X610504Y171449D01*
X610446Y171441D01*
X610388Y171443D01*
X610306Y171421D01*
X610222Y171409D01*
X610169Y171386D01*
X610113Y171371D01*
X610040Y171328D01*
X609963Y171293D01*
X609918Y171255D01*
X609868Y171226D01*
X609840Y171195D01*
X606833Y171195D01*
X606822Y171298D01*
X606816Y171304D01*
X606819Y171309D01*
X606449Y172366D01*
X606443Y172370D01*
X606445Y172376D01*
X605849Y173324D01*
X605841Y173327D01*
X605842Y173332D01*
X605050Y174124D01*
X605042Y174125D01*
X605042Y174131D01*
X604094Y174727D01*
X604085Y174726D01*
X604084Y174731D01*
X603027Y175101D01*
X603019Y175099D01*
X603016Y175104D01*
X601904Y175229D01*
X601900Y175227D01*
X601898Y175229D01*
X590898Y175229D01*
X590895Y175227D01*
X590894Y175227D01*
X590893Y175229D01*
X589780Y175104D01*
X589774Y175098D01*
X589769Y175101D01*
X588712Y174731D01*
X588708Y174725D01*
X588702Y174727D01*
X587754Y174131D01*
X587751Y174123D01*
X587746Y174124D01*
X586954Y173332D01*
X586953Y173324D01*
X586947Y173324D01*
X586351Y172376D01*
X586352Y172367D01*
X586347Y172366D01*
X585977Y171309D01*
X585979Y171303D01*
X585975Y171300D01*
X585976Y171299D01*
X585974Y171298D01*
X585849Y170186D01*
X585853Y170178D01*
X585849Y170175D01*
X585974Y169062D01*
X585980Y169056D01*
X585977Y169051D01*
X586347Y167994D01*
X586354Y167990D01*
X586351Y167984D01*
X586947Y167036D01*
X586955Y167033D01*
X586954Y167028D01*
X587746Y166236D01*
X587754Y166235D01*
X587754Y166229D01*
X588702Y165633D01*
X588711Y165634D01*
X588712Y165629D01*
X589769Y165259D01*
X589777Y165261D01*
X589780Y165256D01*
X590893Y165131D01*
X590896Y165133D01*
X590898Y165131D01*
X595383Y165131D01*
X595383Y162589D01*
X590150Y162589D01*
X589986Y162622D01*
X589971Y162623D01*
X589956Y162627D01*
X589829Y162631D01*
X589702Y162638D01*
X589687Y162634D01*
X589672Y162635D01*
X589549Y162603D01*
X589425Y162574D01*
X589412Y162567D01*
X589397Y162563D01*
X589288Y162498D01*
X589176Y162437D01*
X589166Y162426D01*
X589152Y162418D01*
X589065Y162325D01*
X588976Y162235D01*
X588968Y162222D01*
X588958Y162210D01*
X588900Y162097D01*
X588839Y161986D01*
X588835Y161971D01*
X588828Y161957D01*
X588817Y161889D01*
X588776Y161709D01*
X588779Y161663D01*
X588773Y161626D01*
X588773Y92374D01*
X588775Y92358D01*
X588773Y92343D01*
X588795Y92218D01*
X588813Y92092D01*
X588819Y92078D01*
X588822Y92063D01*
X588877Y91949D01*
X588929Y91833D01*
X588939Y91821D01*
X588946Y91807D01*
X589031Y91713D01*
X589113Y91616D01*
X589125Y91607D01*
X589136Y91596D01*
X589244Y91529D01*
X589349Y91458D01*
X589364Y91454D01*
X589377Y91445D01*
X589499Y91411D01*
X589620Y91373D01*
X589636Y91372D01*
X589651Y91368D01*
X589719Y91370D01*
X589904Y91365D01*
X589949Y91377D01*
X589986Y91378D01*
X590150Y91411D01*
X595383Y91411D01*
X595383Y88869D01*
X590898Y88869D01*
X590895Y88867D01*
X590894Y88867D01*
X590893Y88869D01*
X589780Y88744D01*
X589774Y88738D01*
X589769Y88741D01*
X588712Y88371D01*
X588708Y88365D01*
X588702Y88367D01*
X587754Y87771D01*
X587751Y87763D01*
X587746Y87764D01*
X586954Y86972D01*
X586953Y86964D01*
X586947Y86964D01*
X586351Y86016D01*
X586352Y86007D01*
X586347Y86006D01*
X585977Y84949D01*
X585979Y84943D01*
X585975Y84940D01*
X585976Y84939D01*
X585974Y84938D01*
X585849Y83826D01*
X585853Y83818D01*
X585849Y83815D01*
X585974Y82702D01*
X585980Y82696D01*
X585977Y82691D01*
X586347Y81634D01*
X586354Y81630D01*
X586351Y81624D01*
X586947Y80676D01*
X586955Y80673D01*
X586954Y80668D01*
X587746Y79876D01*
X587754Y79875D01*
X587754Y79869D01*
X588702Y79273D01*
X588711Y79274D01*
X588712Y79269D01*
X589769Y78899D01*
X589777Y78901D01*
X589780Y78896D01*
X590893Y78771D01*
X590896Y78773D01*
X590898Y78771D01*
X601898Y78771D01*
X601901Y78773D01*
G37*
%LPC*%
G36*
X138486Y111759D02*
X138486Y111759D01*
X136712Y112494D01*
X135354Y113852D01*
X134619Y115626D01*
X134619Y117546D01*
X135354Y119320D01*
X136026Y119992D01*
X136086Y120070D01*
X136154Y120142D01*
X136183Y120195D01*
X136220Y120243D01*
X136260Y120334D01*
X136308Y120420D01*
X136323Y120479D01*
X136347Y120535D01*
X136362Y120633D01*
X136387Y120728D01*
X136393Y120828D01*
X136397Y120849D01*
X136395Y120861D01*
X136397Y120889D01*
X136397Y203193D01*
X139328Y206123D01*
X139388Y206201D01*
X139456Y206273D01*
X139485Y206326D01*
X139522Y206374D01*
X139562Y206465D01*
X139610Y206552D01*
X139625Y206611D01*
X139649Y206666D01*
X139664Y206764D01*
X139689Y206860D01*
X139695Y206960D01*
X139699Y206980D01*
X139697Y206993D01*
X139699Y207021D01*
X139699Y207970D01*
X140434Y209744D01*
X141792Y211102D01*
X143566Y211837D01*
X145486Y211837D01*
X147260Y211102D01*
X148618Y209744D01*
X149353Y207970D01*
X149353Y206050D01*
X148618Y204276D01*
X147260Y202918D01*
X145486Y202183D01*
X144537Y202183D01*
X144438Y202171D01*
X144339Y202168D01*
X144281Y202151D01*
X144221Y202143D01*
X144129Y202107D01*
X144034Y202079D01*
X143982Y202049D01*
X143925Y202026D01*
X143845Y201968D01*
X143760Y201918D01*
X143685Y201852D01*
X143668Y201840D01*
X143660Y201830D01*
X143639Y201812D01*
X142866Y201039D01*
X142806Y200961D01*
X142738Y200889D01*
X142709Y200836D01*
X142672Y200788D01*
X142632Y200697D01*
X142584Y200610D01*
X142569Y200551D01*
X142545Y200496D01*
X142530Y200398D01*
X142505Y200302D01*
X142499Y200202D01*
X142495Y200182D01*
X142497Y200169D01*
X142495Y200141D01*
X142495Y120889D01*
X142507Y120791D01*
X142510Y120692D01*
X142527Y120634D01*
X142535Y120574D01*
X142571Y120481D01*
X142599Y120386D01*
X142629Y120334D01*
X142652Y120278D01*
X142710Y120198D01*
X142760Y120112D01*
X142826Y120037D01*
X142838Y120020D01*
X142848Y120013D01*
X142866Y119992D01*
X143538Y119320D01*
X144273Y117546D01*
X144273Y115626D01*
X143538Y113852D01*
X142180Y112494D01*
X140406Y111759D01*
X138486Y111759D01*
G37*
%LPD*%
%LPC*%
G36*
X219709Y234950D02*
X219709Y234950D01*
X219694Y235068D01*
X219687Y235187D01*
X219674Y235225D01*
X219669Y235265D01*
X219626Y235376D01*
X219589Y235489D01*
X219567Y235523D01*
X219552Y235561D01*
X219482Y235657D01*
X219419Y235758D01*
X219389Y235786D01*
X219365Y235818D01*
X219274Y235894D01*
X219187Y235976D01*
X219152Y235995D01*
X219121Y236021D01*
X219013Y236072D01*
X218909Y236129D01*
X218869Y236140D01*
X218833Y236157D01*
X218716Y236179D01*
X218601Y236209D01*
X218540Y236213D01*
X218520Y236217D01*
X218500Y236215D01*
X218440Y236219D01*
X217169Y236219D01*
X217169Y236221D01*
X218440Y236221D01*
X218558Y236236D01*
X218677Y236243D01*
X218715Y236256D01*
X218755Y236261D01*
X218866Y236305D01*
X218979Y236341D01*
X219014Y236363D01*
X219051Y236378D01*
X219147Y236448D01*
X219248Y236511D01*
X219276Y236541D01*
X219309Y236565D01*
X219384Y236656D01*
X219466Y236743D01*
X219486Y236778D01*
X219511Y236810D01*
X219562Y236917D01*
X219620Y237022D01*
X219630Y237061D01*
X219647Y237097D01*
X219669Y237214D01*
X219699Y237329D01*
X219703Y237390D01*
X219707Y237410D01*
X219705Y237430D01*
X219709Y237490D01*
X219709Y247905D01*
X219966Y247865D01*
X221753Y247284D01*
X223427Y246431D01*
X224948Y245326D01*
X226276Y243998D01*
X227381Y242477D01*
X228234Y240803D01*
X228824Y238986D01*
X228849Y238900D01*
X228880Y238774D01*
X228894Y238747D01*
X228902Y238718D01*
X228968Y238607D01*
X229028Y238493D01*
X229049Y238470D01*
X229064Y238444D01*
X229155Y238353D01*
X229242Y238257D01*
X229267Y238241D01*
X229289Y238220D01*
X229400Y238154D01*
X229508Y238083D01*
X229537Y238073D01*
X229562Y238057D01*
X229686Y238021D01*
X229809Y237979D01*
X229839Y237977D01*
X229868Y237969D01*
X229997Y237964D01*
X230126Y237954D01*
X230156Y237959D01*
X230186Y237958D01*
X230312Y237986D01*
X230439Y238009D01*
X230467Y238021D01*
X230496Y238027D01*
X230611Y238086D01*
X230729Y238139D01*
X230753Y238158D01*
X230780Y238172D01*
X230876Y238257D01*
X230978Y238338D01*
X230996Y238362D01*
X231018Y238382D01*
X231091Y238488D01*
X231169Y238592D01*
X231188Y238630D01*
X231197Y238644D01*
X231205Y238665D01*
X231240Y238736D01*
X232879Y242695D01*
X236095Y245911D01*
X240296Y247651D01*
X244844Y247651D01*
X249045Y245911D01*
X252261Y242695D01*
X254001Y238494D01*
X254001Y233946D01*
X252261Y229745D01*
X249045Y226529D01*
X244844Y224789D01*
X240296Y224789D01*
X236095Y226529D01*
X232879Y229745D01*
X231240Y233704D01*
X231176Y233816D01*
X231117Y233931D01*
X231097Y233954D01*
X231082Y233980D01*
X230992Y234073D01*
X230907Y234170D01*
X230882Y234187D01*
X230861Y234208D01*
X230750Y234276D01*
X230644Y234349D01*
X230615Y234359D01*
X230590Y234375D01*
X230466Y234413D01*
X230345Y234456D01*
X230315Y234459D01*
X230286Y234468D01*
X230157Y234474D01*
X230028Y234487D01*
X229998Y234482D01*
X229968Y234483D01*
X229842Y234457D01*
X229714Y234437D01*
X229686Y234425D01*
X229657Y234419D01*
X229540Y234362D01*
X229422Y234311D01*
X229398Y234293D01*
X229371Y234279D01*
X229273Y234195D01*
X229170Y234116D01*
X229152Y234093D01*
X229129Y234073D01*
X229055Y233967D01*
X228975Y233865D01*
X228963Y233838D01*
X228946Y233813D01*
X228900Y233692D01*
X228849Y233573D01*
X228839Y233532D01*
X228833Y233516D01*
X228831Y233494D01*
X228816Y233429D01*
X228234Y231637D01*
X227381Y229963D01*
X226276Y228442D01*
X224948Y227114D01*
X223427Y226009D01*
X221753Y225156D01*
X219966Y224575D01*
X219709Y224535D01*
X219709Y234950D01*
G37*
%LPD*%
%LPC*%
G36*
X546183Y7873D02*
X546183Y7873D01*
X544702Y9354D01*
X544702Y23158D01*
X546363Y24818D01*
X546423Y24896D01*
X546491Y24968D01*
X546520Y25021D01*
X546557Y25069D01*
X546597Y25160D01*
X546645Y25247D01*
X546660Y25306D01*
X546684Y25361D01*
X546699Y25459D01*
X546724Y25555D01*
X546730Y25655D01*
X546734Y25675D01*
X546732Y25688D01*
X546734Y25716D01*
X546734Y29352D01*
X546722Y29450D01*
X546719Y29549D01*
X546702Y29607D01*
X546694Y29667D01*
X546658Y29760D01*
X546630Y29855D01*
X546600Y29907D01*
X546577Y29963D01*
X546519Y30043D01*
X546469Y30129D01*
X546403Y30204D01*
X546391Y30221D01*
X546381Y30228D01*
X546363Y30249D01*
X545818Y30794D01*
X545083Y32568D01*
X545083Y34488D01*
X545818Y36262D01*
X547176Y37620D01*
X548950Y38355D01*
X550870Y38355D01*
X552644Y37620D01*
X554002Y36262D01*
X554558Y34921D01*
X554626Y34800D01*
X554691Y34677D01*
X554705Y34662D01*
X554715Y34644D01*
X554812Y34544D01*
X554905Y34442D01*
X554922Y34430D01*
X554936Y34416D01*
X555055Y34343D01*
X555171Y34267D01*
X555190Y34260D01*
X555208Y34250D01*
X555340Y34209D01*
X555472Y34164D01*
X555492Y34162D01*
X555511Y34156D01*
X555650Y34149D01*
X555789Y34138D01*
X555809Y34142D01*
X555829Y34141D01*
X555965Y34169D01*
X556102Y34193D01*
X556121Y34201D01*
X556141Y34205D01*
X556266Y34267D01*
X556392Y34323D01*
X556408Y34336D01*
X556426Y34345D01*
X556532Y34435D01*
X556641Y34522D01*
X556653Y34538D01*
X556668Y34551D01*
X556748Y34665D01*
X556832Y34776D01*
X556844Y34801D01*
X556851Y34811D01*
X556859Y34831D01*
X556903Y34921D01*
X557248Y35754D01*
X558606Y37112D01*
X560380Y37847D01*
X562300Y37847D01*
X564074Y37112D01*
X565432Y35754D01*
X566167Y33980D01*
X566167Y32060D01*
X565432Y30286D01*
X565141Y29995D01*
X565081Y29917D01*
X565013Y29845D01*
X564984Y29792D01*
X564947Y29744D01*
X564907Y29653D01*
X564859Y29567D01*
X564844Y29508D01*
X564820Y29452D01*
X564805Y29354D01*
X564780Y29259D01*
X564774Y29159D01*
X564770Y29138D01*
X564772Y29126D01*
X564770Y29098D01*
X564770Y24700D01*
X564782Y24601D01*
X564785Y24502D01*
X564802Y24444D01*
X564810Y24384D01*
X564846Y24292D01*
X564874Y24197D01*
X564904Y24145D01*
X564927Y24088D01*
X564985Y24008D01*
X565035Y23923D01*
X565101Y23848D01*
X565113Y23831D01*
X565123Y23823D01*
X565141Y23802D01*
X565786Y23158D01*
X565786Y9354D01*
X564305Y7873D01*
X556597Y7873D01*
X556142Y8329D01*
X556048Y8402D01*
X555958Y8481D01*
X555922Y8499D01*
X555890Y8524D01*
X555781Y8571D01*
X555675Y8625D01*
X555636Y8634D01*
X555598Y8650D01*
X555481Y8669D01*
X555365Y8695D01*
X555324Y8694D01*
X555284Y8700D01*
X555166Y8689D01*
X555047Y8685D01*
X555008Y8674D01*
X554968Y8670D01*
X554856Y8630D01*
X554741Y8597D01*
X554706Y8576D01*
X554668Y8563D01*
X554570Y8496D01*
X554467Y8435D01*
X554422Y8395D01*
X554405Y8384D01*
X554392Y8369D01*
X554347Y8329D01*
X553891Y7873D01*
X546183Y7873D01*
G37*
%LPD*%
%LPC*%
G36*
X51820Y97992D02*
X51820Y97992D01*
X50046Y98727D01*
X48689Y100084D01*
X47954Y101858D01*
X47954Y103779D01*
X48689Y105553D01*
X50046Y106910D01*
X51820Y107645D01*
X52770Y107645D01*
X52868Y107658D01*
X52967Y107661D01*
X53025Y107677D01*
X53085Y107685D01*
X53178Y107721D01*
X53273Y107749D01*
X53325Y107780D01*
X53381Y107802D01*
X53461Y107860D01*
X53547Y107911D01*
X53622Y107977D01*
X53638Y107989D01*
X53646Y107998D01*
X53667Y108017D01*
X72780Y127129D01*
X72840Y127207D01*
X72908Y127279D01*
X72937Y127332D01*
X72974Y127380D01*
X73014Y127471D01*
X73062Y127558D01*
X73077Y127616D01*
X73101Y127672D01*
X73116Y127770D01*
X73141Y127866D01*
X73147Y127966D01*
X73151Y127986D01*
X73149Y127999D01*
X73151Y128027D01*
X73151Y143777D01*
X73139Y143875D01*
X73136Y143974D01*
X73119Y144032D01*
X73111Y144092D01*
X73075Y144185D01*
X73047Y144280D01*
X73017Y144332D01*
X72994Y144388D01*
X72936Y144468D01*
X72886Y144554D01*
X72820Y144629D01*
X72808Y144646D01*
X72798Y144653D01*
X72780Y144674D01*
X72108Y145346D01*
X71373Y147120D01*
X71373Y149040D01*
X72108Y150814D01*
X73466Y152172D01*
X75240Y152907D01*
X77160Y152907D01*
X78934Y152172D01*
X80292Y150814D01*
X81027Y149040D01*
X81027Y147120D01*
X80292Y145346D01*
X79620Y144674D01*
X79560Y144596D01*
X79492Y144524D01*
X79463Y144471D01*
X79426Y144423D01*
X79386Y144332D01*
X79338Y144246D01*
X79323Y144187D01*
X79299Y144131D01*
X79284Y144033D01*
X79259Y143938D01*
X79253Y143838D01*
X79249Y143817D01*
X79251Y143805D01*
X79249Y143777D01*
X79249Y124975D01*
X77091Y122818D01*
X57979Y103705D01*
X57918Y103627D01*
X57850Y103555D01*
X57821Y103502D01*
X57784Y103454D01*
X57745Y103363D01*
X57697Y103277D01*
X57682Y103218D01*
X57658Y103162D01*
X57642Y103064D01*
X57617Y102969D01*
X57611Y102869D01*
X57608Y102848D01*
X57609Y102836D01*
X57607Y102808D01*
X57607Y101858D01*
X56872Y100084D01*
X55515Y98727D01*
X53741Y97992D01*
X51820Y97992D01*
G37*
%LPD*%
G36*
X48325Y273951D02*
X48325Y273951D01*
X48391Y273953D01*
X48434Y273971D01*
X48481Y273979D01*
X48538Y274013D01*
X48598Y274038D01*
X48633Y274069D01*
X48674Y274094D01*
X48716Y274145D01*
X48764Y274189D01*
X48786Y274231D01*
X48815Y274268D01*
X48836Y274330D01*
X48867Y274389D01*
X48875Y274443D01*
X48887Y274480D01*
X48886Y274520D01*
X48894Y274574D01*
X48894Y282448D01*
X48883Y282513D01*
X48881Y282579D01*
X48863Y282622D01*
X48855Y282669D01*
X48821Y282726D01*
X48796Y282786D01*
X48765Y282821D01*
X48740Y282862D01*
X48689Y282904D01*
X48645Y282952D01*
X48603Y282974D01*
X48566Y283003D01*
X48504Y283024D01*
X48445Y283055D01*
X48391Y283063D01*
X48354Y283075D01*
X48314Y283074D01*
X48260Y283082D01*
X5080Y283082D01*
X5015Y283071D01*
X4949Y283069D01*
X4906Y283051D01*
X4859Y283043D01*
X4802Y283009D01*
X4742Y282984D01*
X4707Y282953D01*
X4666Y282928D01*
X4625Y282877D01*
X4576Y282833D01*
X4554Y282791D01*
X4525Y282754D01*
X4504Y282692D01*
X4473Y282633D01*
X4465Y282579D01*
X4453Y282542D01*
X4454Y282502D01*
X4446Y282448D01*
X4446Y275933D01*
X4457Y275868D01*
X4459Y275802D01*
X4477Y275759D01*
X4485Y275712D01*
X4519Y275655D01*
X4544Y275595D01*
X4575Y275560D01*
X4600Y275519D01*
X4651Y275477D01*
X4695Y275429D01*
X4737Y275407D01*
X4774Y275378D01*
X4836Y275357D01*
X4895Y275326D01*
X4949Y275318D01*
X4986Y275306D01*
X5026Y275307D01*
X5080Y275299D01*
X25966Y275299D01*
X27139Y274126D01*
X27174Y274101D01*
X27202Y274070D01*
X27265Y274038D01*
X27323Y273997D01*
X27364Y273987D01*
X27402Y273967D01*
X27491Y273954D01*
X27540Y273942D01*
X27561Y273944D01*
X27587Y273940D01*
X48260Y273940D01*
X48325Y273951D01*
G37*
%LPC*%
G36*
X432110Y106933D02*
X432110Y106933D01*
X430336Y107668D01*
X428978Y109026D01*
X428243Y110800D01*
X428243Y112720D01*
X428978Y114494D01*
X429650Y115166D01*
X429710Y115244D01*
X429778Y115316D01*
X429807Y115369D01*
X429844Y115417D01*
X429884Y115508D01*
X429932Y115594D01*
X429947Y115653D01*
X429971Y115709D01*
X429986Y115807D01*
X430011Y115902D01*
X430017Y116002D01*
X430021Y116023D01*
X430019Y116035D01*
X430021Y116063D01*
X430021Y146959D01*
X430018Y146988D01*
X430020Y147018D01*
X429998Y147146D01*
X429981Y147275D01*
X429971Y147302D01*
X429966Y147331D01*
X429912Y147450D01*
X429864Y147570D01*
X429847Y147594D01*
X429835Y147621D01*
X429754Y147722D01*
X429678Y147828D01*
X429655Y147847D01*
X429636Y147870D01*
X429533Y147947D01*
X429433Y148030D01*
X429406Y148043D01*
X429382Y148061D01*
X429238Y148132D01*
X428812Y148308D01*
X427454Y149666D01*
X426719Y151440D01*
X426719Y153360D01*
X427454Y155134D01*
X428812Y156492D01*
X430586Y157227D01*
X432506Y157227D01*
X434280Y156492D01*
X435638Y155134D01*
X436373Y153360D01*
X436373Y151440D01*
X436215Y151060D01*
X436213Y151051D01*
X436208Y151043D01*
X436171Y150898D01*
X436131Y150753D01*
X436131Y150744D01*
X436129Y150735D01*
X436119Y150574D01*
X436119Y116063D01*
X436131Y115965D01*
X436134Y115866D01*
X436151Y115808D01*
X436159Y115748D01*
X436195Y115655D01*
X436223Y115560D01*
X436253Y115508D01*
X436276Y115452D01*
X436334Y115372D01*
X436384Y115286D01*
X436451Y115211D01*
X436462Y115194D01*
X436472Y115187D01*
X436490Y115166D01*
X437162Y114494D01*
X437897Y112720D01*
X437897Y110800D01*
X437162Y109026D01*
X435804Y107668D01*
X434030Y106933D01*
X432110Y106933D01*
G37*
%LPD*%
%LPC*%
G36*
X638476Y112433D02*
X638476Y112433D01*
X637285Y113623D01*
X637285Y114299D01*
X637278Y114353D01*
X637279Y114394D01*
X637278Y114396D01*
X637279Y114415D01*
X637257Y114496D01*
X637245Y114580D01*
X637222Y114633D01*
X637207Y114690D01*
X637164Y114762D01*
X637129Y114839D01*
X637091Y114884D01*
X637062Y114934D01*
X637000Y114992D01*
X636946Y115056D01*
X636897Y115089D01*
X636854Y115129D01*
X636779Y115167D01*
X636709Y115214D01*
X636653Y115232D01*
X636601Y115258D01*
X636533Y115270D01*
X636438Y115300D01*
X636338Y115302D01*
X636270Y115314D01*
X629833Y115314D01*
X628642Y116504D01*
X628642Y118189D01*
X631039Y120586D01*
X631074Y120633D01*
X631117Y120673D01*
X631160Y120746D01*
X631210Y120813D01*
X631231Y120868D01*
X631261Y120918D01*
X631281Y121000D01*
X631311Y121079D01*
X631316Y121137D01*
X631331Y121194D01*
X631328Y121278D01*
X631335Y121362D01*
X631324Y121419D01*
X631322Y121478D01*
X631296Y121558D01*
X631279Y121641D01*
X631252Y121693D01*
X631234Y121748D01*
X631194Y121805D01*
X631148Y121893D01*
X631079Y121965D01*
X631039Y122022D01*
X629785Y123276D01*
X628642Y124419D01*
X628642Y128984D01*
X630130Y130472D01*
X631282Y131625D01*
X631305Y131655D01*
X631334Y131680D01*
X631390Y131768D01*
X631453Y131852D01*
X631467Y131887D01*
X631487Y131919D01*
X631517Y132019D01*
X631555Y132118D01*
X631558Y132155D01*
X631568Y132191D01*
X631569Y132297D01*
X631578Y132401D01*
X631571Y132438D01*
X631571Y132476D01*
X631548Y132551D01*
X631522Y132680D01*
X631489Y132744D01*
X631473Y132797D01*
X631361Y133020D01*
X631894Y134617D01*
X632957Y135149D01*
X633039Y135205D01*
X633125Y135255D01*
X633155Y135286D01*
X633191Y135310D01*
X633254Y135388D01*
X633323Y135459D01*
X633343Y135497D01*
X633371Y135530D01*
X633410Y135622D01*
X633457Y135710D01*
X633466Y135752D01*
X633483Y135792D01*
X633495Y135891D01*
X633515Y135988D01*
X633512Y136031D01*
X633518Y136074D01*
X633502Y136172D01*
X633495Y136272D01*
X633480Y136312D01*
X633473Y136354D01*
X633431Y136445D01*
X633396Y136538D01*
X633371Y136573D01*
X633353Y136612D01*
X633287Y136687D01*
X633228Y136767D01*
X633197Y136790D01*
X633165Y136826D01*
X633014Y136923D01*
X632957Y136965D01*
X631894Y137496D01*
X631361Y139094D01*
X632114Y140600D01*
X633712Y141133D01*
X640033Y137972D01*
X640112Y137945D01*
X640166Y137917D01*
X640798Y137706D01*
X640843Y137641D01*
X640855Y137631D01*
X640864Y137618D01*
X640920Y137578D01*
X640966Y137540D01*
X641178Y136905D01*
X641215Y136830D01*
X641233Y136772D01*
X641531Y136177D01*
X641516Y136098D01*
X641518Y136083D01*
X641516Y136067D01*
X641526Y136000D01*
X641532Y135940D01*
X641233Y135341D01*
X641206Y135262D01*
X641178Y135208D01*
X640967Y134577D01*
X640902Y134532D01*
X640892Y134520D01*
X640879Y134510D01*
X640839Y134454D01*
X640801Y134409D01*
X640166Y134197D01*
X640091Y134160D01*
X640033Y134142D01*
X638733Y133492D01*
X638668Y133447D01*
X638598Y133410D01*
X638552Y133366D01*
X638499Y133330D01*
X638449Y133269D01*
X638392Y133215D01*
X638359Y133160D01*
X638319Y133110D01*
X638288Y133037D01*
X638248Y132969D01*
X638232Y132908D01*
X638207Y132849D01*
X638197Y132770D01*
X638178Y132694D01*
X638180Y132630D01*
X638172Y132567D01*
X638184Y132489D01*
X638187Y132410D01*
X638206Y132349D01*
X638216Y132286D01*
X638250Y132214D01*
X638274Y132139D01*
X638306Y132094D01*
X638337Y132029D01*
X638410Y131945D01*
X638427Y131916D01*
X638445Y131899D01*
X638469Y131866D01*
X640208Y130127D01*
X641351Y128984D01*
X641351Y124419D01*
X640394Y123462D01*
X640359Y123416D01*
X640316Y123375D01*
X640274Y123302D01*
X640223Y123235D01*
X640202Y123180D01*
X640173Y123130D01*
X640152Y123048D01*
X640122Y122969D01*
X640117Y122911D01*
X640102Y122854D01*
X640105Y122770D01*
X640098Y122686D01*
X640110Y122629D01*
X640112Y122570D01*
X640137Y122490D01*
X640154Y122407D01*
X640181Y122355D01*
X640199Y122300D01*
X640239Y122244D01*
X640285Y122155D01*
X640354Y122083D01*
X640394Y122027D01*
X641351Y121070D01*
X641351Y113623D01*
X640160Y112433D01*
X638476Y112433D01*
G37*
%LPD*%
%LPC*%
G36*
X190101Y125475D02*
X190101Y125475D01*
X187487Y126558D01*
X185486Y128559D01*
X184403Y131173D01*
X184403Y134003D01*
X185486Y136617D01*
X187487Y138618D01*
X190101Y139701D01*
X192931Y139701D01*
X195545Y138618D01*
X197061Y137102D01*
X197156Y137028D01*
X197246Y136949D01*
X197281Y136931D01*
X197312Y136907D01*
X197422Y136859D01*
X197529Y136805D01*
X197568Y136796D01*
X197604Y136781D01*
X197723Y136762D01*
X197840Y136736D01*
X197879Y136737D01*
X197918Y136731D01*
X198038Y136742D01*
X198158Y136746D01*
X198195Y136757D01*
X198235Y136761D01*
X198321Y136792D01*
X198357Y136804D01*
X198463Y136835D01*
X198497Y136855D01*
X198498Y136855D01*
X198534Y136868D01*
X198542Y136873D01*
X200462Y137669D01*
X202382Y137669D01*
X204156Y136934D01*
X205514Y135576D01*
X206249Y133802D01*
X206249Y131882D01*
X205514Y130108D01*
X204156Y128750D01*
X202382Y128015D01*
X200462Y128015D01*
X198799Y128704D01*
X198771Y128712D01*
X198744Y128725D01*
X198617Y128754D01*
X198492Y128788D01*
X198463Y128788D01*
X198434Y128795D01*
X198304Y128791D01*
X198174Y128793D01*
X198146Y128786D01*
X198116Y128785D01*
X197991Y128749D01*
X197865Y128719D01*
X197839Y128705D01*
X197811Y128697D01*
X197699Y128631D01*
X197584Y128570D01*
X197562Y128550D01*
X197537Y128535D01*
X197416Y128429D01*
X195545Y126558D01*
X192931Y125475D01*
X190101Y125475D01*
G37*
%LPD*%
%LPC*%
G36*
X536250Y126571D02*
X536250Y126571D01*
X534476Y127306D01*
X533118Y128664D01*
X532383Y130438D01*
X532383Y132358D01*
X533118Y134132D01*
X533536Y134550D01*
X533596Y134628D01*
X533664Y134700D01*
X533693Y134753D01*
X533730Y134801D01*
X533770Y134892D01*
X533818Y134978D01*
X533833Y135037D01*
X533857Y135093D01*
X533872Y135191D01*
X533897Y135286D01*
X533903Y135386D01*
X533907Y135407D01*
X533905Y135419D01*
X533907Y135447D01*
X533907Y143354D01*
X537854Y147300D01*
X537914Y147379D01*
X537982Y147451D01*
X538011Y147504D01*
X538048Y147552D01*
X538088Y147643D01*
X538136Y147729D01*
X538151Y147788D01*
X538175Y147843D01*
X538190Y147941D01*
X538215Y148037D01*
X538221Y148137D01*
X538225Y148158D01*
X538223Y148170D01*
X538225Y148198D01*
X538225Y148788D01*
X538960Y150562D01*
X540318Y151920D01*
X542092Y152655D01*
X544012Y152655D01*
X545786Y151920D01*
X547144Y150562D01*
X547879Y148788D01*
X547879Y146868D01*
X547144Y145094D01*
X545786Y143736D01*
X544012Y143001D01*
X543422Y143001D01*
X543324Y142989D01*
X543225Y142986D01*
X543166Y142969D01*
X543106Y142961D01*
X543014Y142925D01*
X542919Y142897D01*
X542867Y142867D01*
X542811Y142844D01*
X542731Y142786D01*
X542645Y142736D01*
X542570Y142670D01*
X542553Y142658D01*
X542545Y142648D01*
X542524Y142630D01*
X540884Y140990D01*
X540824Y140911D01*
X540756Y140839D01*
X540727Y140786D01*
X540690Y140738D01*
X540650Y140647D01*
X540602Y140561D01*
X540587Y140502D01*
X540563Y140447D01*
X540548Y140349D01*
X540523Y140253D01*
X540517Y140153D01*
X540513Y140132D01*
X540515Y140120D01*
X540513Y140092D01*
X540513Y135447D01*
X540525Y135349D01*
X540528Y135250D01*
X540545Y135192D01*
X540553Y135132D01*
X540589Y135039D01*
X540617Y134944D01*
X540647Y134892D01*
X540670Y134836D01*
X540728Y134756D01*
X540778Y134670D01*
X540844Y134595D01*
X540856Y134578D01*
X540866Y134571D01*
X540884Y134550D01*
X541302Y134132D01*
X542037Y132358D01*
X542037Y130438D01*
X541302Y128664D01*
X539944Y127306D01*
X538170Y126571D01*
X536250Y126571D01*
G37*
%LPD*%
%LPC*%
G36*
X189540Y167131D02*
X189540Y167131D01*
X187766Y167866D01*
X186408Y169224D01*
X185673Y170998D01*
X185673Y172404D01*
X185656Y172542D01*
X185653Y172576D01*
X185651Y172604D01*
X185650Y172608D01*
X185643Y172681D01*
X185636Y172700D01*
X185633Y172720D01*
X185582Y172849D01*
X185565Y172897D01*
X185568Y172899D01*
X185623Y172971D01*
X185684Y173037D01*
X185718Y173098D01*
X185760Y173153D01*
X185831Y173298D01*
X186408Y174692D01*
X187334Y175618D01*
X187394Y175696D01*
X187462Y175768D01*
X187491Y175821D01*
X187528Y175869D01*
X187568Y175960D01*
X187616Y176046D01*
X187631Y176105D01*
X187655Y176161D01*
X187670Y176259D01*
X187695Y176354D01*
X187701Y176454D01*
X187705Y176475D01*
X187703Y176487D01*
X187705Y176515D01*
X187705Y179847D01*
X187693Y179945D01*
X187690Y180044D01*
X187673Y180102D01*
X187665Y180162D01*
X187629Y180255D01*
X187601Y180350D01*
X187571Y180402D01*
X187548Y180458D01*
X187490Y180538D01*
X187440Y180624D01*
X187374Y180699D01*
X187362Y180716D01*
X187352Y180723D01*
X187334Y180744D01*
X186662Y181416D01*
X185927Y183190D01*
X185927Y185110D01*
X186662Y186884D01*
X188020Y188242D01*
X189794Y188977D01*
X191714Y188977D01*
X193488Y188242D01*
X194846Y186884D01*
X195581Y185110D01*
X195581Y183190D01*
X194846Y181416D01*
X194174Y180744D01*
X194114Y180666D01*
X194046Y180594D01*
X194017Y180541D01*
X193980Y180493D01*
X193940Y180402D01*
X193892Y180316D01*
X193877Y180257D01*
X193853Y180201D01*
X193838Y180103D01*
X193813Y180008D01*
X193807Y179908D01*
X193803Y179887D01*
X193805Y179875D01*
X193803Y179847D01*
X193803Y176007D01*
X193815Y175909D01*
X193818Y175810D01*
X193835Y175752D01*
X193843Y175692D01*
X193879Y175599D01*
X193907Y175504D01*
X193937Y175452D01*
X193960Y175396D01*
X194018Y175316D01*
X194068Y175230D01*
X194134Y175155D01*
X194146Y175138D01*
X194156Y175131D01*
X194174Y175110D01*
X194592Y174692D01*
X195327Y172918D01*
X195327Y170998D01*
X194592Y169224D01*
X193234Y167866D01*
X191460Y167131D01*
X189540Y167131D01*
G37*
%LPD*%
%LPC*%
G36*
X483741Y353647D02*
X483741Y353647D01*
X481156Y354718D01*
X479178Y356696D01*
X478107Y359281D01*
X478107Y362079D01*
X479178Y364664D01*
X481156Y366642D01*
X483741Y367713D01*
X486539Y367713D01*
X489124Y366642D01*
X491102Y364664D01*
X492173Y362079D01*
X492173Y359281D01*
X491102Y356696D01*
X489124Y354718D01*
X486539Y353647D01*
X483741Y353647D01*
G37*
%LPD*%
%LPC*%
G36*
X54481Y71707D02*
X54481Y71707D01*
X51896Y72778D01*
X49918Y74756D01*
X48847Y77341D01*
X48847Y80139D01*
X49918Y82724D01*
X51896Y84702D01*
X54481Y85773D01*
X57279Y85773D01*
X59864Y84702D01*
X61842Y82724D01*
X62913Y80139D01*
X62913Y77341D01*
X61842Y74756D01*
X59864Y72778D01*
X57279Y71707D01*
X54481Y71707D01*
G37*
%LPD*%
%LPC*%
G36*
X439999Y350209D02*
X439999Y350209D01*
X439995Y350209D01*
X439986Y350209D01*
X439985Y350209D01*
X439983Y350209D01*
X439553Y350208D01*
X439538Y350209D01*
X439463Y350215D01*
X438373Y350226D01*
X435197Y350590D01*
X432075Y351282D01*
X429042Y352294D01*
X426131Y353615D01*
X423373Y355231D01*
X420796Y357124D01*
X420269Y357604D01*
X420269Y361188D01*
X421310Y360093D01*
X421319Y360088D01*
X421337Y360069D01*
X424533Y357562D01*
X424543Y357558D01*
X424564Y357542D01*
X428090Y355525D01*
X428099Y355522D01*
X428123Y355509D01*
X431904Y354025D01*
X431914Y354024D01*
X431939Y354014D01*
X435895Y353094D01*
X435905Y353094D01*
X435931Y353088D01*
X439979Y352752D01*
X439989Y352754D01*
X440019Y352751D01*
X444077Y353060D01*
X444087Y353064D01*
X444114Y353066D01*
X448083Y353966D01*
X448092Y353971D01*
X448118Y353977D01*
X451913Y355449D01*
X451920Y355455D01*
X451946Y355465D01*
X455484Y357478D01*
X455490Y357485D01*
X455514Y357498D01*
X458719Y360007D01*
X458724Y360015D01*
X458746Y360032D01*
X461548Y362984D01*
X461553Y362992D01*
X461571Y363012D01*
X463911Y366343D01*
X463914Y366352D01*
X463930Y366374D01*
X465364Y369231D01*
X468196Y369231D01*
X467253Y367078D01*
X467219Y367000D01*
X465663Y364269D01*
X465632Y364214D01*
X463789Y361649D01*
X463761Y361610D01*
X461652Y359244D01*
X461628Y359217D01*
X459256Y357060D01*
X456671Y355165D01*
X453901Y353550D01*
X450977Y352235D01*
X447931Y351234D01*
X444797Y350557D01*
X441610Y350213D01*
X440515Y350210D01*
X440467Y350204D01*
X439999Y350209D01*
G37*
%LPD*%
%LPC*%
G36*
X411804Y11769D02*
X411804Y11769D01*
X412504Y13367D01*
X412781Y14000D01*
X414072Y16265D01*
X414368Y16786D01*
X415929Y18958D01*
X416239Y19390D01*
X418052Y21424D01*
X418371Y21783D01*
X420744Y23940D01*
X423329Y25836D01*
X426099Y27450D01*
X429023Y28765D01*
X432069Y29766D01*
X435203Y30443D01*
X438390Y30787D01*
X439485Y30789D01*
X439533Y30796D01*
X440001Y30791D01*
X440005Y30791D01*
X440014Y30791D01*
X440015Y30791D01*
X440017Y30791D01*
X440447Y30792D01*
X440462Y30791D01*
X440537Y30785D01*
X441627Y30774D01*
X444803Y30410D01*
X447925Y29718D01*
X450958Y28706D01*
X453869Y27385D01*
X456627Y25769D01*
X459204Y23876D01*
X459731Y23396D01*
X459731Y19812D01*
X458690Y20907D01*
X458681Y20912D01*
X458663Y20931D01*
X455467Y23438D01*
X455458Y23442D01*
X455436Y23458D01*
X451910Y25475D01*
X451901Y25478D01*
X451878Y25491D01*
X448096Y26975D01*
X448086Y26976D01*
X448061Y26986D01*
X444105Y27906D01*
X444095Y27906D01*
X444069Y27912D01*
X440021Y28248D01*
X440011Y28246D01*
X439981Y28249D01*
X435923Y27940D01*
X435913Y27936D01*
X435886Y27934D01*
X431917Y27034D01*
X431908Y27029D01*
X431882Y27023D01*
X428087Y25551D01*
X428080Y25545D01*
X428054Y25535D01*
X424517Y23522D01*
X424510Y23515D01*
X424486Y23502D01*
X421281Y20993D01*
X421276Y20985D01*
X421254Y20968D01*
X418452Y18016D01*
X418447Y18008D01*
X418429Y17988D01*
X416089Y14657D01*
X416086Y14648D01*
X416070Y14626D01*
X414636Y11769D01*
X411804Y11769D01*
G37*
%LPD*%
%LPC*%
G36*
X599615Y150871D02*
X599615Y150871D01*
X596669Y153817D01*
X596669Y157983D01*
X599542Y160856D01*
X599560Y160880D01*
X599582Y160898D01*
X599645Y160993D01*
X599713Y161083D01*
X599724Y161111D01*
X599740Y161135D01*
X599774Y161243D01*
X599815Y161349D01*
X599817Y161378D01*
X599826Y161406D01*
X599829Y161520D01*
X599838Y161632D01*
X599832Y161661D01*
X599833Y161690D01*
X599804Y161800D01*
X599782Y161911D01*
X599769Y161937D01*
X599761Y161965D01*
X599703Y162063D01*
X599651Y162163D01*
X599631Y162185D01*
X599616Y162210D01*
X599533Y162287D01*
X599455Y162369D01*
X599430Y162384D01*
X599409Y162404D01*
X599308Y162456D01*
X599210Y162513D01*
X599182Y162520D01*
X599156Y162534D01*
X599078Y162547D01*
X598935Y162583D01*
X598872Y162581D01*
X598825Y162589D01*
X597413Y162589D01*
X597413Y165131D01*
X601898Y165131D01*
X601901Y165133D01*
X601904Y165131D01*
X603016Y165256D01*
X603022Y165262D01*
X603027Y165259D01*
X604084Y165629D01*
X604088Y165636D01*
X604094Y165633D01*
X605042Y166229D01*
X605045Y166237D01*
X605050Y166236D01*
X605842Y167028D01*
X605843Y167036D01*
X605849Y167036D01*
X606445Y167984D01*
X606444Y167993D01*
X606449Y167994D01*
X606819Y169051D01*
X606818Y169055D01*
X606820Y169057D01*
X606818Y169060D01*
X606822Y169062D01*
X606833Y169165D01*
X609435Y169165D01*
X609197Y167966D01*
X608733Y166845D01*
X608625Y166584D01*
X607951Y165575D01*
X607794Y165341D01*
X606737Y164284D01*
X605494Y163453D01*
X604112Y162881D01*
X604071Y162873D01*
X604002Y162849D01*
X603932Y162835D01*
X603869Y162802D01*
X603802Y162779D01*
X603743Y162737D01*
X603679Y162704D01*
X603628Y162655D01*
X603570Y162614D01*
X603525Y162558D01*
X603473Y162508D01*
X603437Y162447D01*
X603393Y162392D01*
X603366Y162325D01*
X603329Y162263D01*
X603312Y162194D01*
X603285Y162129D01*
X603277Y162057D01*
X603259Y161987D01*
X603262Y161916D01*
X603254Y161846D01*
X603266Y161775D01*
X603268Y161703D01*
X603290Y161636D01*
X603302Y161566D01*
X603334Y161501D01*
X603356Y161432D01*
X603391Y161384D01*
X603426Y161310D01*
X603507Y161221D01*
X603551Y161159D01*
X606727Y157983D01*
X606727Y153817D01*
X603781Y150871D01*
X599615Y150871D01*
G37*
%LPD*%
%LPC*%
G36*
X606833Y84835D02*
X606833Y84835D01*
X606822Y84938D01*
X606816Y84944D01*
X606819Y84949D01*
X606449Y86006D01*
X606443Y86010D01*
X606445Y86016D01*
X605849Y86964D01*
X605841Y86967D01*
X605842Y86972D01*
X605050Y87764D01*
X605042Y87765D01*
X605042Y87771D01*
X604094Y88367D01*
X604085Y88366D01*
X604084Y88371D01*
X603027Y88741D01*
X603019Y88739D01*
X603016Y88744D01*
X601904Y88869D01*
X601900Y88867D01*
X601898Y88869D01*
X597413Y88869D01*
X597413Y91411D01*
X598825Y91411D01*
X598854Y91415D01*
X598883Y91412D01*
X598994Y91435D01*
X599106Y91451D01*
X599133Y91463D01*
X599162Y91468D01*
X599262Y91521D01*
X599365Y91567D01*
X599388Y91586D01*
X599414Y91599D01*
X599496Y91677D01*
X599582Y91750D01*
X599599Y91775D01*
X599620Y91795D01*
X599677Y91893D01*
X599740Y91987D01*
X599749Y92015D01*
X599764Y92040D01*
X599792Y92150D01*
X599826Y92258D01*
X599827Y92288D01*
X599834Y92316D01*
X599830Y92429D01*
X599833Y92542D01*
X599826Y92571D01*
X599825Y92600D01*
X599790Y92708D01*
X599761Y92817D01*
X599746Y92843D01*
X599737Y92871D01*
X599692Y92934D01*
X599616Y93062D01*
X599570Y93105D01*
X599542Y93144D01*
X596669Y96017D01*
X596669Y100183D01*
X599615Y103129D01*
X603781Y103129D01*
X606727Y100183D01*
X606727Y96017D01*
X603551Y92841D01*
X603507Y92783D01*
X603456Y92732D01*
X603422Y92670D01*
X603380Y92614D01*
X603354Y92546D01*
X603319Y92483D01*
X603304Y92414D01*
X603279Y92348D01*
X603273Y92276D01*
X603257Y92206D01*
X603261Y92135D01*
X603255Y92065D01*
X603269Y91994D01*
X603273Y91922D01*
X603297Y91855D01*
X603311Y91786D01*
X603344Y91722D01*
X603368Y91654D01*
X603409Y91596D01*
X603442Y91534D01*
X603492Y91481D01*
X603534Y91423D01*
X603589Y91379D01*
X603638Y91328D01*
X603700Y91291D01*
X603757Y91246D01*
X603813Y91225D01*
X603883Y91184D01*
X604000Y91154D01*
X604071Y91127D01*
X604112Y91119D01*
X605494Y90547D01*
X606737Y89716D01*
X607794Y88659D01*
X608625Y87416D01*
X609197Y86034D01*
X609435Y84835D01*
X606833Y84835D01*
G37*
%LPD*%
%LPC*%
G36*
X205485Y238759D02*
X205485Y238759D01*
X205525Y239016D01*
X206106Y240803D01*
X206959Y242477D01*
X208064Y243998D01*
X209392Y245326D01*
X210913Y246431D01*
X212587Y247284D01*
X214374Y247865D01*
X214631Y247905D01*
X214631Y238759D01*
X205485Y238759D01*
G37*
%LPD*%
%LPC*%
G36*
X214374Y224575D02*
X214374Y224575D01*
X212587Y225156D01*
X210913Y226009D01*
X209392Y227114D01*
X208064Y228442D01*
X206959Y229963D01*
X206106Y231637D01*
X205525Y233424D01*
X205485Y233681D01*
X214631Y233681D01*
X214631Y224535D01*
X214374Y224575D01*
G37*
%LPD*%
G36*
X174707Y178765D02*
X174707Y178765D01*
X174730Y178769D01*
X174737Y178784D01*
X174746Y178790D01*
X174744Y178800D01*
X174751Y178816D01*
X174751Y181356D01*
X174739Y181375D01*
X174736Y181397D01*
X174720Y181404D01*
X174714Y181413D01*
X174704Y181412D01*
X174689Y181419D01*
X160592Y181419D01*
X160573Y181407D01*
X160550Y181403D01*
X160543Y181388D01*
X160534Y181382D01*
X160536Y181372D01*
X160529Y181356D01*
X160529Y178816D01*
X160541Y178797D01*
X160544Y178775D01*
X160560Y178768D01*
X160566Y178759D01*
X160576Y178760D01*
X160592Y178753D01*
X174689Y178753D01*
X174707Y178765D01*
G37*
%LPC*%
G36*
X452437Y115950D02*
X452437Y115950D01*
X452437Y120079D01*
X459741Y120079D01*
X459741Y118598D01*
X459533Y117822D01*
X459132Y117127D01*
X458564Y116559D01*
X457869Y116158D01*
X457093Y115950D01*
X452437Y115950D01*
G37*
%LPD*%
%LPC*%
G36*
X444607Y115950D02*
X444607Y115950D01*
X443831Y116158D01*
X443136Y116559D01*
X442568Y117127D01*
X442167Y117822D01*
X441959Y118598D01*
X441959Y120079D01*
X449263Y120079D01*
X449263Y115950D01*
X444607Y115950D01*
G37*
%LPD*%
%LPC*%
G36*
X634450Y162589D02*
X634450Y162589D01*
X632984Y162881D01*
X632108Y163244D01*
X631602Y163453D01*
X630712Y164048D01*
X630359Y164284D01*
X629302Y165341D01*
X628471Y166584D01*
X627899Y167966D01*
X627661Y169165D01*
X630263Y169165D01*
X630274Y169062D01*
X630280Y169056D01*
X630277Y169051D01*
X630647Y167994D01*
X630654Y167990D01*
X630651Y167984D01*
X631247Y167036D01*
X631255Y167033D01*
X631254Y167028D01*
X632046Y166236D01*
X632054Y166235D01*
X632054Y166229D01*
X633002Y165633D01*
X633011Y165634D01*
X633012Y165629D01*
X634069Y165259D01*
X634077Y165261D01*
X634080Y165256D01*
X635193Y165131D01*
X635196Y165133D01*
X635198Y165131D01*
X637183Y165131D01*
X637183Y162589D01*
X634450Y162589D01*
G37*
%LPD*%
%LPC*%
G36*
X627660Y84835D02*
X627660Y84835D01*
X627899Y86034D01*
X628407Y87262D01*
X628471Y87416D01*
X629246Y88575D01*
X629302Y88659D01*
X630359Y89716D01*
X631602Y90547D01*
X632984Y91119D01*
X634450Y91411D01*
X637183Y91411D01*
X637183Y88869D01*
X635198Y88869D01*
X635195Y88867D01*
X635194Y88867D01*
X635193Y88869D01*
X634080Y88744D01*
X634074Y88738D01*
X634069Y88741D01*
X633012Y88371D01*
X633008Y88365D01*
X633002Y88367D01*
X632054Y87771D01*
X632051Y87763D01*
X632046Y87764D01*
X631254Y86972D01*
X631253Y86964D01*
X631247Y86964D01*
X630651Y86016D01*
X630652Y86007D01*
X630647Y86006D01*
X630277Y84949D01*
X630279Y84943D01*
X630275Y84940D01*
X630276Y84939D01*
X630274Y84938D01*
X630263Y84835D01*
X627660Y84835D01*
G37*
%LPD*%
G36*
X562248Y14935D02*
X562248Y14935D01*
X562270Y14939D01*
X562277Y14954D01*
X562286Y14960D01*
X562285Y14970D01*
X562292Y14986D01*
X562292Y17526D01*
X562280Y17545D01*
X562276Y17567D01*
X562261Y17574D01*
X562255Y17583D01*
X562245Y17582D01*
X562229Y17589D01*
X553403Y17589D01*
X553384Y17577D01*
X553361Y17573D01*
X553354Y17558D01*
X553345Y17552D01*
X553347Y17542D01*
X553340Y17526D01*
X553340Y14986D01*
X553352Y14967D01*
X553355Y14945D01*
X553371Y14938D01*
X553377Y14929D01*
X553387Y14930D01*
X553403Y14923D01*
X562229Y14923D01*
X562248Y14935D01*
G37*
G36*
X517544Y14935D02*
X517544Y14935D01*
X517566Y14939D01*
X517573Y14954D01*
X517582Y14960D01*
X517581Y14970D01*
X517588Y14986D01*
X517588Y17526D01*
X517576Y17545D01*
X517572Y17567D01*
X517557Y17574D01*
X517551Y17583D01*
X517541Y17582D01*
X517525Y17589D01*
X508699Y17589D01*
X508680Y17577D01*
X508657Y17573D01*
X508650Y17558D01*
X508641Y17552D01*
X508643Y17542D01*
X508636Y17526D01*
X508636Y14986D01*
X508648Y14967D01*
X508651Y14945D01*
X508667Y14938D01*
X508673Y14929D01*
X508683Y14930D01*
X508699Y14923D01*
X517525Y14923D01*
X517544Y14935D01*
G37*
%LPC*%
G36*
X416301Y361660D02*
X416301Y361660D01*
X414430Y364252D01*
X412838Y367025D01*
X411860Y369231D01*
X414699Y369231D01*
X416126Y366415D01*
X416133Y366408D01*
X416145Y366384D01*
X417731Y364138D01*
X417731Y360059D01*
X416301Y361660D01*
G37*
%LPD*%
%LPC*%
G36*
X465301Y11769D02*
X465301Y11769D01*
X463874Y14585D01*
X463867Y14592D01*
X463855Y14616D01*
X462269Y16862D01*
X462269Y20941D01*
X463699Y19340D01*
X465570Y16748D01*
X467162Y13975D01*
X468139Y11769D01*
X465301Y11769D01*
G37*
%LPD*%
D10*
X633556Y138938D02*
X639318Y136057D01*
X633556Y133176D01*
X632115Y129583D02*
X637877Y129583D01*
X632115Y129583D02*
X630675Y128142D01*
X630675Y125261D01*
X632115Y123821D01*
X637877Y123821D01*
X639318Y125261D01*
X639318Y128142D01*
X637877Y129583D01*
X632115Y123821D01*
X633556Y120228D02*
X630675Y117347D01*
X639318Y117347D01*
X639318Y120228D02*
X639318Y114465D01*
D11*
X180861Y185941D02*
X175247Y185941D01*
X180861Y185941D02*
X180861Y174231D01*
X175247Y174231D01*
X175247Y185941D01*
X175247Y175172D02*
X180861Y175172D01*
X180861Y176113D02*
X175247Y176113D01*
X175247Y177054D02*
X180861Y177054D01*
X180861Y177995D02*
X175247Y177995D01*
X175247Y178936D02*
X180861Y178936D01*
X180861Y179877D02*
X175247Y179877D01*
X175247Y180818D02*
X180861Y180818D01*
X180861Y181759D02*
X175247Y181759D01*
X175247Y182700D02*
X180861Y182700D01*
X180861Y183641D02*
X175247Y183641D01*
X175247Y184582D02*
X180861Y184582D01*
X180861Y185523D02*
X175247Y185523D01*
X170447Y185941D02*
X164833Y185941D01*
X170447Y185941D02*
X170447Y174231D01*
X164833Y174231D01*
X164833Y185941D01*
X164833Y175172D02*
X170447Y175172D01*
X170447Y176113D02*
X164833Y176113D01*
X164833Y177054D02*
X170447Y177054D01*
X170447Y177995D02*
X164833Y177995D01*
X164833Y178936D02*
X170447Y178936D01*
X170447Y179877D02*
X164833Y179877D01*
X164833Y180818D02*
X170447Y180818D01*
X170447Y181759D02*
X164833Y181759D01*
X164833Y182700D02*
X170447Y182700D01*
X170447Y183641D02*
X164833Y183641D01*
X164833Y184582D02*
X170447Y184582D01*
X170447Y185523D02*
X164833Y185523D01*
X160033Y185941D02*
X154419Y185941D01*
X160033Y185941D02*
X160033Y174231D01*
X154419Y174231D01*
X154419Y185941D01*
X154419Y175172D02*
X160033Y175172D01*
X160033Y176113D02*
X154419Y176113D01*
X154419Y177054D02*
X160033Y177054D01*
X160033Y177995D02*
X154419Y177995D01*
X154419Y178936D02*
X160033Y178936D01*
X160033Y179877D02*
X154419Y179877D01*
X154419Y180818D02*
X160033Y180818D01*
X160033Y181759D02*
X154419Y181759D01*
X154419Y182700D02*
X160033Y182700D01*
X160033Y183641D02*
X154419Y183641D01*
X154419Y184582D02*
X160033Y184582D01*
X160033Y185523D02*
X154419Y185523D01*
X557644Y22111D02*
X563258Y22111D01*
X563258Y10401D01*
X557644Y10401D01*
X557644Y22111D01*
X557644Y11342D02*
X563258Y11342D01*
X563258Y12283D02*
X557644Y12283D01*
X557644Y13224D02*
X563258Y13224D01*
X563258Y14165D02*
X557644Y14165D01*
X557644Y15106D02*
X563258Y15106D01*
X563258Y16047D02*
X557644Y16047D01*
X557644Y16988D02*
X563258Y16988D01*
X563258Y17929D02*
X557644Y17929D01*
X557644Y18870D02*
X563258Y18870D01*
X563258Y19811D02*
X557644Y19811D01*
X557644Y20752D02*
X563258Y20752D01*
X563258Y21693D02*
X557644Y21693D01*
X552844Y22111D02*
X547230Y22111D01*
X552844Y22111D02*
X552844Y10401D01*
X547230Y10401D01*
X547230Y22111D01*
X547230Y11342D02*
X552844Y11342D01*
X552844Y12283D02*
X547230Y12283D01*
X547230Y13224D02*
X552844Y13224D01*
X552844Y14165D02*
X547230Y14165D01*
X547230Y15106D02*
X552844Y15106D01*
X552844Y16047D02*
X547230Y16047D01*
X547230Y16988D02*
X552844Y16988D01*
X552844Y17929D02*
X547230Y17929D01*
X547230Y18870D02*
X552844Y18870D01*
X552844Y19811D02*
X547230Y19811D01*
X547230Y20752D02*
X552844Y20752D01*
X552844Y21693D02*
X547230Y21693D01*
D12*
X456692Y118999D02*
X456692Y124333D01*
X456692Y118999D02*
X445008Y118999D01*
X445008Y124333D01*
X456692Y124333D01*
X456692Y119964D02*
X445008Y119964D01*
X445008Y120929D02*
X456692Y120929D01*
X456692Y121894D02*
X445008Y121894D01*
X445008Y122859D02*
X456692Y122859D01*
X456692Y123824D02*
X445008Y123824D01*
X456692Y127127D02*
X456692Y132461D01*
X456692Y127127D02*
X445008Y127127D01*
X445008Y132461D01*
X456692Y132461D01*
X456692Y128092D02*
X445008Y128092D01*
X445008Y129057D02*
X456692Y129057D01*
X456692Y130022D02*
X445008Y130022D01*
X445008Y130987D02*
X456692Y130987D01*
X456692Y131952D02*
X445008Y131952D01*
D11*
X512940Y22111D02*
X518554Y22111D01*
X518554Y10401D01*
X512940Y10401D01*
X512940Y22111D01*
X512940Y11342D02*
X518554Y11342D01*
X518554Y12283D02*
X512940Y12283D01*
X512940Y13224D02*
X518554Y13224D01*
X518554Y14165D02*
X512940Y14165D01*
X512940Y15106D02*
X518554Y15106D01*
X518554Y16047D02*
X512940Y16047D01*
X512940Y16988D02*
X518554Y16988D01*
X518554Y17929D02*
X512940Y17929D01*
X512940Y18870D02*
X518554Y18870D01*
X518554Y19811D02*
X512940Y19811D01*
X512940Y20752D02*
X518554Y20752D01*
X518554Y21693D02*
X512940Y21693D01*
X508140Y22111D02*
X502526Y22111D01*
X508140Y22111D02*
X508140Y10401D01*
X502526Y10401D01*
X502526Y22111D01*
X502526Y11342D02*
X508140Y11342D01*
X508140Y12283D02*
X502526Y12283D01*
X502526Y13224D02*
X508140Y13224D01*
X508140Y14165D02*
X502526Y14165D01*
X502526Y15106D02*
X508140Y15106D01*
X508140Y16047D02*
X502526Y16047D01*
X502526Y16988D02*
X508140Y16988D01*
X508140Y17929D02*
X502526Y17929D01*
X502526Y18870D02*
X508140Y18870D01*
X508140Y19811D02*
X502526Y19811D01*
X502526Y20752D02*
X508140Y20752D01*
X508140Y21693D02*
X502526Y21693D01*
D13*
X634928Y83820D02*
X641468Y83820D01*
X641468Y170180D02*
X634928Y170180D01*
X599668Y170180D02*
X593128Y170180D01*
X593128Y83820D02*
X599668Y83820D01*
D14*
X191516Y132588D03*
D15*
X485140Y360680D03*
X55880Y78740D03*
D16*
X6007Y99257D02*
X6007Y101743D01*
X24493Y101743D01*
X24493Y99257D01*
X6007Y99257D01*
X6007Y100221D02*
X24493Y100221D01*
X24493Y101185D02*
X6007Y101185D01*
X6007Y104257D02*
X6007Y106743D01*
X24493Y106743D01*
X24493Y104257D01*
X6007Y104257D01*
X6007Y105221D02*
X24493Y105221D01*
X24493Y106185D02*
X6007Y106185D01*
X6007Y109257D02*
X6007Y111743D01*
X24493Y111743D01*
X24493Y109257D01*
X6007Y109257D01*
X6007Y110221D02*
X24493Y110221D01*
X24493Y111185D02*
X6007Y111185D01*
X6007Y114257D02*
X6007Y116743D01*
X24493Y116743D01*
X24493Y114257D01*
X6007Y114257D01*
X6007Y115221D02*
X24493Y115221D01*
X24493Y116185D02*
X6007Y116185D01*
X6007Y119257D02*
X6007Y121743D01*
X24493Y121743D01*
X24493Y119257D01*
X6007Y119257D01*
X6007Y120221D02*
X24493Y120221D01*
X24493Y121185D02*
X6007Y121185D01*
X6007Y124257D02*
X6007Y126743D01*
X24493Y126743D01*
X24493Y124257D01*
X6007Y124257D01*
X6007Y125221D02*
X24493Y125221D01*
X24493Y126185D02*
X6007Y126185D01*
X6007Y129257D02*
X6007Y131743D01*
X24493Y131743D01*
X24493Y129257D01*
X6007Y129257D01*
X6007Y130221D02*
X24493Y130221D01*
X24493Y131185D02*
X6007Y131185D01*
X6007Y134257D02*
X6007Y136743D01*
X24493Y136743D01*
X24493Y134257D01*
X6007Y134257D01*
X6007Y135221D02*
X24493Y135221D01*
X24493Y136185D02*
X6007Y136185D01*
X6007Y139257D02*
X6007Y141743D01*
X24493Y141743D01*
X24493Y139257D01*
X6007Y139257D01*
X6007Y140221D02*
X24493Y140221D01*
X24493Y141185D02*
X6007Y141185D01*
X6007Y144257D02*
X6007Y146743D01*
X24493Y146743D01*
X24493Y144257D01*
X6007Y144257D01*
X6007Y145221D02*
X24493Y145221D01*
X24493Y146185D02*
X6007Y146185D01*
X6007Y149257D02*
X6007Y151743D01*
X24493Y151743D01*
X24493Y149257D01*
X6007Y149257D01*
X6007Y150221D02*
X24493Y150221D01*
X24493Y151185D02*
X6007Y151185D01*
X6007Y174257D02*
X6007Y176743D01*
X24493Y176743D01*
X24493Y174257D01*
X6007Y174257D01*
X6007Y175221D02*
X24493Y175221D01*
X24493Y176185D02*
X6007Y176185D01*
X6007Y179257D02*
X6007Y181743D01*
X24493Y181743D01*
X24493Y179257D01*
X6007Y179257D01*
X6007Y180221D02*
X24493Y180221D01*
X24493Y181185D02*
X6007Y181185D01*
X6007Y184257D02*
X6007Y186743D01*
X24493Y186743D01*
X24493Y184257D01*
X6007Y184257D01*
X6007Y185221D02*
X24493Y185221D01*
X24493Y186185D02*
X6007Y186185D01*
X6007Y189257D02*
X6007Y191743D01*
X24493Y191743D01*
X24493Y189257D01*
X6007Y189257D01*
X6007Y190221D02*
X24493Y190221D01*
X24493Y191185D02*
X6007Y191185D01*
X6007Y194257D02*
X6007Y196743D01*
X24493Y196743D01*
X24493Y194257D01*
X6007Y194257D01*
X6007Y195221D02*
X24493Y195221D01*
X24493Y196185D02*
X6007Y196185D01*
X6007Y199257D02*
X6007Y201743D01*
X24493Y201743D01*
X24493Y199257D01*
X6007Y199257D01*
X6007Y200221D02*
X24493Y200221D01*
X24493Y201185D02*
X6007Y201185D01*
X6007Y204257D02*
X6007Y206743D01*
X24493Y206743D01*
X24493Y204257D01*
X6007Y204257D01*
X6007Y205221D02*
X24493Y205221D01*
X24493Y206185D02*
X6007Y206185D01*
X6007Y209257D02*
X6007Y211743D01*
X24493Y211743D01*
X24493Y209257D01*
X6007Y209257D01*
X6007Y210221D02*
X24493Y210221D01*
X24493Y211185D02*
X6007Y211185D01*
X6007Y214257D02*
X6007Y216743D01*
X24493Y216743D01*
X24493Y214257D01*
X6007Y214257D01*
X6007Y215221D02*
X24493Y215221D01*
X24493Y216185D02*
X6007Y216185D01*
X6007Y219257D02*
X6007Y221743D01*
X24493Y221743D01*
X24493Y219257D01*
X6007Y219257D01*
X6007Y220221D02*
X24493Y220221D01*
X24493Y221185D02*
X6007Y221185D01*
X6007Y224257D02*
X6007Y226743D01*
X24493Y226743D01*
X24493Y224257D01*
X6007Y224257D01*
X6007Y225221D02*
X24493Y225221D01*
X24493Y226185D02*
X6007Y226185D01*
X6007Y229257D02*
X6007Y231743D01*
X24493Y231743D01*
X24493Y229257D01*
X6007Y229257D01*
X6007Y230221D02*
X24493Y230221D01*
X24493Y231185D02*
X6007Y231185D01*
X6007Y234257D02*
X6007Y236743D01*
X24493Y236743D01*
X24493Y234257D01*
X6007Y234257D01*
X6007Y235221D02*
X24493Y235221D01*
X24493Y236185D02*
X6007Y236185D01*
X6007Y239257D02*
X6007Y241743D01*
X24493Y241743D01*
X24493Y239257D01*
X6007Y239257D01*
X6007Y240221D02*
X24493Y240221D01*
X24493Y241185D02*
X6007Y241185D01*
X6007Y244257D02*
X6007Y246743D01*
X24493Y246743D01*
X24493Y244257D01*
X6007Y244257D01*
X6007Y245221D02*
X24493Y245221D01*
X24493Y246185D02*
X6007Y246185D01*
X6007Y249257D02*
X6007Y251743D01*
X24493Y251743D01*
X24493Y249257D01*
X6007Y249257D01*
X6007Y250221D02*
X24493Y250221D01*
X24493Y251185D02*
X6007Y251185D01*
X6007Y254257D02*
X6007Y256743D01*
X24493Y256743D01*
X24493Y254257D01*
X6007Y254257D01*
X6007Y255221D02*
X24493Y255221D01*
X24493Y256185D02*
X6007Y256185D01*
X6007Y259257D02*
X6007Y261743D01*
X24493Y261743D01*
X24493Y259257D01*
X6007Y259257D01*
X6007Y260221D02*
X24493Y260221D01*
X24493Y261185D02*
X6007Y261185D01*
X6007Y264257D02*
X6007Y266743D01*
X24493Y266743D01*
X24493Y264257D01*
X6007Y264257D01*
X6007Y265221D02*
X24493Y265221D01*
X24493Y266185D02*
X6007Y266185D01*
X6007Y269257D02*
X6007Y271743D01*
X24493Y271743D01*
X24493Y269257D01*
X6007Y269257D01*
X6007Y270221D02*
X24493Y270221D01*
X24493Y271185D02*
X6007Y271185D01*
X6007Y274257D02*
X6007Y276743D01*
X24493Y276743D01*
X24493Y274257D01*
X6007Y274257D01*
X6007Y275221D02*
X24493Y275221D01*
X24493Y276185D02*
X6007Y276185D01*
X6007Y279257D02*
X6007Y281743D01*
X24493Y281743D01*
X24493Y279257D01*
X6007Y279257D01*
X6007Y280221D02*
X24493Y280221D01*
X24493Y281185D02*
X6007Y281185D01*
D17*
X461000Y10500D03*
X419000Y10500D03*
X440000Y23500D03*
X419000Y370500D03*
X461000Y370500D03*
X440000Y357500D03*
D18*
X419000Y10500D02*
X408000Y10500D01*
X419000Y10500D02*
X419000Y23500D01*
X440000Y23500D02*
X440000Y32500D01*
X461000Y23500D02*
X461000Y10500D01*
X472000Y10500D01*
X472000Y370500D02*
X461000Y370500D01*
X461000Y357500D01*
X440000Y357500D02*
X440000Y348500D01*
X419000Y357500D02*
X419000Y370500D01*
X408000Y370500D01*
D19*
X217170Y236220D03*
X242570Y236220D03*
D20*
X467614Y120904D03*
D21*
X468376Y120142D01*
X468376Y93980D01*
X468376Y86868D01*
X505333Y49911D01*
X505333Y16256D01*
D20*
X447040Y183134D03*
D21*
X447040Y156718D01*
D22*
X220980Y269240D02*
X218440Y269240D01*
D20*
X220980Y269240D03*
D21*
X167640Y226060D02*
X167640Y180086D01*
X191770Y93980D02*
X269240Y93980D01*
D20*
X269240Y101600D03*
D21*
X167640Y118110D02*
X167640Y180086D01*
X167640Y118110D02*
X191770Y93980D01*
X269240Y93980D02*
X269240Y101600D01*
X269240Y93980D02*
X269240Y93726D01*
D22*
X467614Y120904D02*
X468122Y121412D01*
D20*
X167640Y226060D03*
D21*
X167640Y236220D01*
X200660Y269240D01*
X218440Y269240D01*
X468122Y93726D02*
X468376Y93980D01*
X468122Y93726D02*
X269240Y93726D01*
X447040Y156718D02*
X460502Y156718D01*
X468122Y149098D02*
X468122Y121412D01*
X468122Y149098D02*
X460502Y156718D01*
D20*
X565658Y132334D03*
X312420Y269240D03*
X312420Y129540D03*
X400558Y246126D03*
X401320Y269240D03*
X312420Y246380D03*
X337820Y269240D03*
X373380Y269240D03*
X373380Y246380D03*
X337820Y246380D03*
X312420Y226060D03*
X337820Y226060D03*
X373380Y226060D03*
X401320Y223520D03*
X424180Y208280D03*
X401320Y195580D03*
X401320Y172720D03*
X401320Y149860D03*
X401320Y129540D03*
X373380Y129540D03*
X337820Y129540D03*
X312420Y149860D03*
X312420Y172720D03*
X312420Y195580D03*
X337820Y195580D03*
X373380Y195580D03*
X373380Y172720D03*
X373380Y149860D03*
X337820Y149860D03*
X337820Y172720D03*
X452120Y111760D03*
X506730Y78740D03*
X568960Y88900D03*
X577342Y94742D03*
X577342Y158242D03*
X640080Y213360D03*
X627380Y213360D03*
X609600Y213360D03*
X595630Y212090D03*
X578612Y212598D03*
X563880Y213360D03*
X563880Y228600D03*
X563880Y297180D03*
X564388Y317246D03*
X578866Y319024D03*
X609346Y319024D03*
X627126Y319024D03*
X642366Y319024D03*
X594106Y319024D03*
X563880Y279400D03*
X548640Y279400D03*
X530860Y279400D03*
X515620Y279400D03*
X500380Y279400D03*
X487680Y279400D03*
X474980Y279400D03*
X457200Y279400D03*
X439420Y271780D03*
X563880Y243840D03*
X553720Y252984D03*
X536448Y252222D03*
X524256Y252984D03*
X493776Y253238D03*
X478282Y253746D03*
X447360Y244640D03*
X535940Y302260D03*
X530860Y177800D03*
X565150Y177800D03*
X492760Y177800D03*
X492760Y213360D03*
X464820Y213360D03*
X464820Y190500D03*
X500380Y302260D03*
X500380Y152400D03*
X528066Y148082D03*
X557022Y109982D03*
X511556Y118110D03*
X474980Y71120D03*
X532130Y21590D03*
X579120Y71120D03*
X616966Y69850D03*
X642620Y70866D03*
X530860Y213360D03*
X401320Y299720D03*
X373380Y299720D03*
X337820Y297180D03*
X311150Y297180D03*
X309880Y101600D03*
X337820Y101600D03*
X369824Y101600D03*
X226060Y124206D03*
X197358Y172212D03*
X185420Y198120D03*
X400304Y104140D03*
X278892Y107188D03*
X486156Y114300D03*
X546608Y110236D03*
X119380Y200660D03*
X93980Y175260D03*
X121920Y289560D03*
X68834Y293116D03*
X88900Y271780D03*
X279400Y269240D03*
X279400Y246380D03*
X279400Y226060D03*
X146558Y196850D03*
X167640Y103378D03*
X102616Y109728D03*
X110236Y159512D03*
X33782Y200406D03*
X47752Y293116D03*
X46990Y91694D03*
X617220Y39370D03*
X642620Y39116D03*
X579120Y40640D03*
X541020Y40640D03*
X492760Y40640D03*
X642366Y341884D03*
X642366Y362204D03*
X624586Y341884D03*
X623316Y362204D03*
X601726Y362204D03*
X576326Y362204D03*
X538226Y362204D03*
X500126Y362204D03*
X500126Y341884D03*
X538226Y341884D03*
X576326Y341884D03*
X601726Y341884D03*
X462026Y341884D03*
X462026Y298704D03*
X423926Y334264D03*
X423926Y298704D03*
X385826Y362204D03*
X322326Y334264D03*
X452120Y41910D03*
X388620Y41910D03*
X337820Y41910D03*
X299720Y45720D03*
X299720Y7620D03*
X337820Y7620D03*
X388620Y7620D03*
X490220Y7874D03*
X534416Y7620D03*
X579120Y7620D03*
X617220Y7620D03*
X642620Y7366D03*
X387350Y334010D03*
X356616Y363474D03*
X322326Y363474D03*
X356616Y334264D03*
X613918Y309880D03*
X634492Y310134D03*
X589534Y309626D03*
X588772Y223012D03*
X611124Y223266D03*
X634746Y223012D03*
X52780Y102818D03*
D18*
X76200Y126238D01*
X76200Y148080D01*
D20*
X76200Y148080D03*
X190754Y184150D03*
D18*
X190754Y172212D01*
X190500Y171958D01*
D20*
X190500Y171958D03*
X50546Y155448D03*
D18*
X50546Y143000D01*
D20*
X50546Y143000D03*
X475742Y129540D03*
X55626Y121920D03*
D18*
X55626Y161544D01*
D20*
X55626Y161544D03*
D18*
X476504Y129540D02*
X493776Y146812D01*
X476504Y129540D02*
X475742Y129540D01*
D20*
X493776Y146812D03*
X433070Y111760D03*
D18*
X433070Y150876D02*
X431546Y152400D01*
D20*
X431546Y152400D03*
D18*
X433070Y150876D02*
X433070Y111760D01*
D20*
X60960Y127000D03*
D18*
X60960Y153924D01*
D20*
X60960Y153924D03*
X549910Y33528D03*
D22*
X550037Y33401D01*
X550037Y16256D01*
D20*
X45720Y127762D03*
D18*
X45212Y128270D02*
X45212Y162306D01*
X45212Y128270D02*
X45720Y127762D01*
D20*
X45212Y162306D03*
D18*
X178054Y180086D02*
X178054Y194818D01*
D22*
X173482Y199390D01*
D20*
X173482Y199390D03*
D18*
X157226Y194564D02*
X157226Y180086D01*
D22*
X157226Y194564D02*
X162052Y199390D01*
D20*
X162052Y199390D03*
D22*
X561340Y33020D02*
X561467Y32893D01*
X561467Y17272D02*
X560451Y16256D01*
X561467Y17272D02*
X561467Y32893D01*
D20*
X561340Y33020D03*
X139446Y116586D03*
D18*
X139446Y201930D01*
X144526Y207010D01*
D20*
X144526Y207010D03*
X462280Y129540D03*
D22*
X451104Y129540D01*
X450850Y129794D01*
X515620Y16383D02*
X515747Y16256D01*
X515620Y16383D02*
X515620Y33020D01*
D20*
X515620Y33020D03*
X201422Y132842D03*
D22*
X201168Y132588D01*
X191516Y132588D01*
D20*
X537210Y131398D03*
D22*
X537210Y141986D01*
X543052Y147828D01*
D20*
X543052Y147828D03*
X34036Y137922D03*
D18*
X34036Y128016D01*
D20*
X34036Y128016D03*
X42164Y278384D03*
D18*
X30814Y185500D02*
X15250Y185500D01*
X58166Y212852D02*
X68326Y212852D01*
X58166Y212852D02*
X30814Y185500D01*
D20*
X68326Y212852D03*
D18*
X36054Y175500D02*
X15250Y175500D01*
X48514Y187960D02*
X68580Y187960D01*
X48514Y187960D02*
X36054Y175500D01*
D20*
X68580Y187960D03*
D18*
X33434Y180500D02*
X15250Y180500D01*
X33434Y180500D02*
X53848Y200914D01*
X68580Y200914D01*
D20*
X68580Y200914D03*
M02*
