G04 EAGLE Gerber RS-274X export*
G75*
%MOMM*%
%FSLAX34Y34*%
%LPD*%
%INSoldermask Bottom*%
%IPPOS*%
%AMOC8*
5,1,8,0,0,1.08239X$1,22.5*%
G01*
%ADD10C,0.228344*%
%ADD11C,0.228600*%
%ADD12C,0.777000*%
%ADD13C,1.143000*%
%ADD14C,1.127000*%
%ADD15C,0.228959*%
%ADD16C,0.736600*%
%ADD17C,2.006600*%

G36*
X174690Y178193D02*
X174690Y178193D01*
X174756Y178195D01*
X174799Y178213D01*
X174846Y178221D01*
X174903Y178255D01*
X174963Y178280D01*
X174998Y178311D01*
X175039Y178336D01*
X175081Y178387D01*
X175129Y178431D01*
X175151Y178473D01*
X175180Y178510D01*
X175201Y178572D01*
X175232Y178631D01*
X175240Y178685D01*
X175252Y178722D01*
X175251Y178762D01*
X175259Y178816D01*
X175259Y181356D01*
X175248Y181421D01*
X175246Y181487D01*
X175228Y181530D01*
X175220Y181577D01*
X175186Y181634D01*
X175161Y181694D01*
X175130Y181729D01*
X175105Y181770D01*
X175054Y181812D01*
X175010Y181860D01*
X174968Y181882D01*
X174931Y181911D01*
X174869Y181932D01*
X174810Y181963D01*
X174756Y181971D01*
X174719Y181983D01*
X174679Y181982D01*
X174625Y181990D01*
X170815Y181990D01*
X170750Y181979D01*
X170684Y181977D01*
X170641Y181959D01*
X170594Y181951D01*
X170537Y181917D01*
X170477Y181892D01*
X170442Y181861D01*
X170401Y181836D01*
X170360Y181785D01*
X170311Y181741D01*
X170289Y181699D01*
X170260Y181662D01*
X170239Y181600D01*
X170208Y181541D01*
X170200Y181487D01*
X170188Y181450D01*
X170188Y181447D01*
X170189Y181410D01*
X170181Y181356D01*
X170181Y178816D01*
X170192Y178751D01*
X170194Y178685D01*
X170212Y178642D01*
X170220Y178595D01*
X170254Y178538D01*
X170279Y178478D01*
X170310Y178443D01*
X170335Y178402D01*
X170386Y178361D01*
X170430Y178312D01*
X170472Y178290D01*
X170509Y178261D01*
X170571Y178240D01*
X170630Y178209D01*
X170684Y178201D01*
X170721Y178189D01*
X170761Y178190D01*
X170815Y178182D01*
X174625Y178182D01*
X174690Y178193D01*
G37*
G36*
X164530Y178193D02*
X164530Y178193D01*
X164596Y178195D01*
X164639Y178213D01*
X164686Y178221D01*
X164743Y178255D01*
X164803Y178280D01*
X164838Y178311D01*
X164879Y178336D01*
X164921Y178387D01*
X164969Y178431D01*
X164991Y178473D01*
X165020Y178510D01*
X165041Y178572D01*
X165072Y178631D01*
X165080Y178685D01*
X165092Y178722D01*
X165091Y178762D01*
X165099Y178816D01*
X165099Y181356D01*
X165088Y181421D01*
X165086Y181487D01*
X165068Y181530D01*
X165060Y181577D01*
X165026Y181634D01*
X165001Y181694D01*
X164970Y181729D01*
X164945Y181770D01*
X164894Y181812D01*
X164850Y181860D01*
X164808Y181882D01*
X164771Y181911D01*
X164709Y181932D01*
X164650Y181963D01*
X164596Y181971D01*
X164559Y181983D01*
X164519Y181982D01*
X164465Y181990D01*
X160655Y181990D01*
X160590Y181979D01*
X160524Y181977D01*
X160481Y181959D01*
X160434Y181951D01*
X160377Y181917D01*
X160317Y181892D01*
X160282Y181861D01*
X160241Y181836D01*
X160200Y181785D01*
X160151Y181741D01*
X160129Y181699D01*
X160100Y181662D01*
X160079Y181600D01*
X160048Y181541D01*
X160040Y181487D01*
X160028Y181450D01*
X160028Y181447D01*
X160029Y181410D01*
X160021Y181356D01*
X160021Y178816D01*
X160032Y178751D01*
X160034Y178685D01*
X160052Y178642D01*
X160060Y178595D01*
X160094Y178538D01*
X160119Y178478D01*
X160150Y178443D01*
X160175Y178402D01*
X160226Y178361D01*
X160270Y178312D01*
X160312Y178290D01*
X160349Y178261D01*
X160411Y178240D01*
X160470Y178209D01*
X160524Y178201D01*
X160561Y178189D01*
X160601Y178190D01*
X160655Y178182D01*
X164465Y178182D01*
X164530Y178193D01*
G37*
G36*
X512510Y14363D02*
X512510Y14363D01*
X512576Y14365D01*
X512619Y14383D01*
X512666Y14391D01*
X512723Y14425D01*
X512783Y14450D01*
X512818Y14481D01*
X512859Y14506D01*
X512901Y14557D01*
X512949Y14601D01*
X512971Y14643D01*
X513000Y14680D01*
X513021Y14742D01*
X513052Y14801D01*
X513060Y14855D01*
X513072Y14892D01*
X513071Y14932D01*
X513079Y14986D01*
X513079Y17526D01*
X513068Y17591D01*
X513066Y17657D01*
X513048Y17700D01*
X513040Y17747D01*
X513006Y17804D01*
X512981Y17864D01*
X512950Y17899D01*
X512925Y17940D01*
X512874Y17982D01*
X512830Y18030D01*
X512788Y18052D01*
X512751Y18081D01*
X512689Y18102D01*
X512630Y18133D01*
X512576Y18141D01*
X512539Y18153D01*
X512499Y18152D01*
X512445Y18160D01*
X508635Y18160D01*
X508570Y18149D01*
X508504Y18147D01*
X508461Y18129D01*
X508414Y18121D01*
X508357Y18087D01*
X508297Y18062D01*
X508262Y18031D01*
X508221Y18006D01*
X508180Y17955D01*
X508131Y17911D01*
X508109Y17869D01*
X508080Y17832D01*
X508059Y17770D01*
X508028Y17711D01*
X508020Y17657D01*
X508008Y17620D01*
X508008Y17617D01*
X508009Y17580D01*
X508001Y17526D01*
X508001Y14986D01*
X508012Y14921D01*
X508014Y14855D01*
X508032Y14812D01*
X508040Y14765D01*
X508074Y14708D01*
X508099Y14648D01*
X508130Y14613D01*
X508155Y14572D01*
X508206Y14531D01*
X508250Y14482D01*
X508292Y14460D01*
X508329Y14431D01*
X508391Y14410D01*
X508450Y14379D01*
X508504Y14371D01*
X508541Y14359D01*
X508581Y14360D01*
X508635Y14352D01*
X512445Y14352D01*
X512510Y14363D01*
G37*
G36*
X557214Y14363D02*
X557214Y14363D01*
X557280Y14365D01*
X557323Y14383D01*
X557370Y14391D01*
X557427Y14425D01*
X557487Y14450D01*
X557522Y14481D01*
X557563Y14506D01*
X557605Y14557D01*
X557653Y14601D01*
X557675Y14643D01*
X557704Y14680D01*
X557725Y14742D01*
X557756Y14801D01*
X557764Y14855D01*
X557776Y14892D01*
X557775Y14932D01*
X557783Y14986D01*
X557783Y17526D01*
X557772Y17591D01*
X557770Y17657D01*
X557752Y17700D01*
X557744Y17747D01*
X557710Y17804D01*
X557685Y17864D01*
X557654Y17899D01*
X557629Y17940D01*
X557578Y17982D01*
X557534Y18030D01*
X557492Y18052D01*
X557455Y18081D01*
X557393Y18102D01*
X557334Y18133D01*
X557280Y18141D01*
X557243Y18153D01*
X557203Y18152D01*
X557149Y18160D01*
X553339Y18160D01*
X553274Y18149D01*
X553208Y18147D01*
X553165Y18129D01*
X553118Y18121D01*
X553061Y18087D01*
X553001Y18062D01*
X552966Y18031D01*
X552925Y18006D01*
X552884Y17955D01*
X552835Y17911D01*
X552813Y17869D01*
X552784Y17832D01*
X552763Y17770D01*
X552732Y17711D01*
X552724Y17657D01*
X552712Y17620D01*
X552712Y17617D01*
X552713Y17580D01*
X552705Y17526D01*
X552705Y14986D01*
X552716Y14921D01*
X552718Y14855D01*
X552736Y14812D01*
X552744Y14765D01*
X552778Y14708D01*
X552803Y14648D01*
X552834Y14613D01*
X552859Y14572D01*
X552910Y14531D01*
X552954Y14482D01*
X552996Y14460D01*
X553033Y14431D01*
X553095Y14410D01*
X553154Y14379D01*
X553208Y14371D01*
X553245Y14359D01*
X553285Y14360D01*
X553339Y14352D01*
X557149Y14352D01*
X557214Y14363D01*
G37*
D10*
X175258Y185930D02*
X180850Y185930D01*
X180850Y174242D01*
X175258Y174242D01*
X175258Y185930D01*
X175258Y176411D02*
X180850Y176411D01*
X180850Y178580D02*
X175258Y178580D01*
X175258Y180749D02*
X180850Y180749D01*
X180850Y182918D02*
X175258Y182918D01*
X175258Y185087D02*
X180850Y185087D01*
X170436Y185930D02*
X164844Y185930D01*
X170436Y185930D02*
X170436Y174242D01*
X164844Y174242D01*
X164844Y185930D01*
X164844Y176411D02*
X170436Y176411D01*
X170436Y178580D02*
X164844Y178580D01*
X164844Y180749D02*
X170436Y180749D01*
X170436Y182918D02*
X164844Y182918D01*
X164844Y185087D02*
X170436Y185087D01*
X160022Y185930D02*
X154430Y185930D01*
X160022Y185930D02*
X160022Y174242D01*
X154430Y174242D01*
X154430Y185930D01*
X154430Y176411D02*
X160022Y176411D01*
X160022Y178580D02*
X154430Y178580D01*
X154430Y180749D02*
X160022Y180749D01*
X160022Y182918D02*
X154430Y182918D01*
X154430Y185087D02*
X160022Y185087D01*
X557655Y22100D02*
X563247Y22100D01*
X563247Y10412D01*
X557655Y10412D01*
X557655Y22100D01*
X557655Y12581D02*
X563247Y12581D01*
X563247Y14750D02*
X557655Y14750D01*
X557655Y16919D02*
X563247Y16919D01*
X563247Y19088D02*
X557655Y19088D01*
X557655Y21257D02*
X563247Y21257D01*
X552833Y22100D02*
X547241Y22100D01*
X552833Y22100D02*
X552833Y10412D01*
X547241Y10412D01*
X547241Y22100D01*
X547241Y12581D02*
X552833Y12581D01*
X552833Y14750D02*
X547241Y14750D01*
X547241Y16919D02*
X552833Y16919D01*
X552833Y19088D02*
X547241Y19088D01*
X547241Y21257D02*
X552833Y21257D01*
D11*
X456692Y118999D02*
X456692Y124333D01*
X456692Y118999D02*
X445008Y118999D01*
X445008Y124333D01*
X456692Y124333D01*
X456692Y121171D02*
X445008Y121171D01*
X445008Y123343D02*
X456692Y123343D01*
X456692Y127127D02*
X456692Y132461D01*
X456692Y127127D02*
X445008Y127127D01*
X445008Y132461D01*
X456692Y132461D01*
X456692Y129299D02*
X445008Y129299D01*
X445008Y131471D02*
X456692Y131471D01*
D10*
X512951Y22100D02*
X518543Y22100D01*
X518543Y10412D01*
X512951Y10412D01*
X512951Y22100D01*
X512951Y12581D02*
X518543Y12581D01*
X518543Y14750D02*
X512951Y14750D01*
X512951Y16919D02*
X518543Y16919D01*
X518543Y19088D02*
X512951Y19088D01*
X512951Y21257D02*
X518543Y21257D01*
X508129Y22100D02*
X502537Y22100D01*
X508129Y22100D02*
X508129Y10412D01*
X502537Y10412D01*
X502537Y22100D01*
X502537Y12581D02*
X508129Y12581D01*
X508129Y14750D02*
X502537Y14750D01*
X502537Y16919D02*
X508129Y16919D01*
X508129Y19088D02*
X502537Y19088D01*
X502537Y21257D02*
X508129Y21257D01*
D12*
X601698Y98100D03*
X601698Y155900D03*
D13*
X191516Y132588D03*
D14*
X485140Y360680D03*
X55880Y78740D03*
D15*
X6010Y99260D02*
X6010Y101740D01*
X24490Y101740D01*
X24490Y99260D01*
X6010Y99260D01*
X6010Y101435D02*
X24490Y101435D01*
X6010Y104260D02*
X6010Y106740D01*
X24490Y106740D01*
X24490Y104260D01*
X6010Y104260D01*
X6010Y106435D02*
X24490Y106435D01*
X6010Y109260D02*
X6010Y111740D01*
X24490Y111740D01*
X24490Y109260D01*
X6010Y109260D01*
X6010Y111435D02*
X24490Y111435D01*
X6010Y114260D02*
X6010Y116740D01*
X24490Y116740D01*
X24490Y114260D01*
X6010Y114260D01*
X6010Y116435D02*
X24490Y116435D01*
X6010Y119260D02*
X6010Y121740D01*
X24490Y121740D01*
X24490Y119260D01*
X6010Y119260D01*
X6010Y121435D02*
X24490Y121435D01*
X6010Y124260D02*
X6010Y126740D01*
X24490Y126740D01*
X24490Y124260D01*
X6010Y124260D01*
X6010Y126435D02*
X24490Y126435D01*
X6010Y129260D02*
X6010Y131740D01*
X24490Y131740D01*
X24490Y129260D01*
X6010Y129260D01*
X6010Y131435D02*
X24490Y131435D01*
X6010Y134260D02*
X6010Y136740D01*
X24490Y136740D01*
X24490Y134260D01*
X6010Y134260D01*
X6010Y136435D02*
X24490Y136435D01*
X6010Y139260D02*
X6010Y141740D01*
X24490Y141740D01*
X24490Y139260D01*
X6010Y139260D01*
X6010Y141435D02*
X24490Y141435D01*
X6010Y144260D02*
X6010Y146740D01*
X24490Y146740D01*
X24490Y144260D01*
X6010Y144260D01*
X6010Y146435D02*
X24490Y146435D01*
X6010Y149260D02*
X6010Y151740D01*
X24490Y151740D01*
X24490Y149260D01*
X6010Y149260D01*
X6010Y151435D02*
X24490Y151435D01*
X6010Y174260D02*
X6010Y176740D01*
X24490Y176740D01*
X24490Y174260D01*
X6010Y174260D01*
X6010Y176435D02*
X24490Y176435D01*
X6010Y179260D02*
X6010Y181740D01*
X24490Y181740D01*
X24490Y179260D01*
X6010Y179260D01*
X6010Y181435D02*
X24490Y181435D01*
X6010Y184260D02*
X6010Y186740D01*
X24490Y186740D01*
X24490Y184260D01*
X6010Y184260D01*
X6010Y186435D02*
X24490Y186435D01*
X6010Y189260D02*
X6010Y191740D01*
X24490Y191740D01*
X24490Y189260D01*
X6010Y189260D01*
X6010Y191435D02*
X24490Y191435D01*
X6010Y194260D02*
X6010Y196740D01*
X24490Y196740D01*
X24490Y194260D01*
X6010Y194260D01*
X6010Y196435D02*
X24490Y196435D01*
X6010Y199260D02*
X6010Y201740D01*
X24490Y201740D01*
X24490Y199260D01*
X6010Y199260D01*
X6010Y201435D02*
X24490Y201435D01*
X6010Y204260D02*
X6010Y206740D01*
X24490Y206740D01*
X24490Y204260D01*
X6010Y204260D01*
X6010Y206435D02*
X24490Y206435D01*
X6010Y209260D02*
X6010Y211740D01*
X24490Y211740D01*
X24490Y209260D01*
X6010Y209260D01*
X6010Y211435D02*
X24490Y211435D01*
X6010Y214260D02*
X6010Y216740D01*
X24490Y216740D01*
X24490Y214260D01*
X6010Y214260D01*
X6010Y216435D02*
X24490Y216435D01*
X6010Y219260D02*
X6010Y221740D01*
X24490Y221740D01*
X24490Y219260D01*
X6010Y219260D01*
X6010Y221435D02*
X24490Y221435D01*
X6010Y224260D02*
X6010Y226740D01*
X24490Y226740D01*
X24490Y224260D01*
X6010Y224260D01*
X6010Y226435D02*
X24490Y226435D01*
X6010Y229260D02*
X6010Y231740D01*
X24490Y231740D01*
X24490Y229260D01*
X6010Y229260D01*
X6010Y231435D02*
X24490Y231435D01*
X6010Y234260D02*
X6010Y236740D01*
X24490Y236740D01*
X24490Y234260D01*
X6010Y234260D01*
X6010Y236435D02*
X24490Y236435D01*
X6010Y239260D02*
X6010Y241740D01*
X24490Y241740D01*
X24490Y239260D01*
X6010Y239260D01*
X6010Y241435D02*
X24490Y241435D01*
X6010Y244260D02*
X6010Y246740D01*
X24490Y246740D01*
X24490Y244260D01*
X6010Y244260D01*
X6010Y246435D02*
X24490Y246435D01*
X6010Y249260D02*
X6010Y251740D01*
X24490Y251740D01*
X24490Y249260D01*
X6010Y249260D01*
X6010Y251435D02*
X24490Y251435D01*
X6010Y254260D02*
X6010Y256740D01*
X24490Y256740D01*
X24490Y254260D01*
X6010Y254260D01*
X6010Y256435D02*
X24490Y256435D01*
X6010Y259260D02*
X6010Y261740D01*
X24490Y261740D01*
X24490Y259260D01*
X6010Y259260D01*
X6010Y261435D02*
X24490Y261435D01*
X6010Y264260D02*
X6010Y266740D01*
X24490Y266740D01*
X24490Y264260D01*
X6010Y264260D01*
X6010Y266435D02*
X24490Y266435D01*
X6010Y269260D02*
X6010Y271740D01*
X24490Y271740D01*
X24490Y269260D01*
X6010Y269260D01*
X6010Y271435D02*
X24490Y271435D01*
X6010Y274260D02*
X6010Y276740D01*
X24490Y276740D01*
X24490Y274260D01*
X6010Y274260D01*
X6010Y276435D02*
X24490Y276435D01*
X6010Y279260D02*
X6010Y281740D01*
X24490Y281740D01*
X24490Y279260D01*
X6010Y279260D01*
X6010Y281435D02*
X24490Y281435D01*
D16*
X461000Y10500D03*
X419000Y10500D03*
X440000Y23500D03*
X419000Y370500D03*
X461000Y370500D03*
X440000Y357500D03*
D17*
X217170Y236220D03*
X242570Y236220D03*
M02*
