G04 EAGLE Gerber RS-274X export*
G75*
%MOMM*%
%FSLAX34Y34*%
%LPD*%
%INSoldermask Bottom*%
%IPPOS*%
%AMOC8*
5,1,8,0,0,1.08239X$1,22.5*%
G01*
%ADD10C,0.228344*%
%ADD11C,0.228600*%
%ADD12C,0.777000*%
%ADD13C,1.143000*%
%ADD14C,0.228959*%
%ADD15C,0.581000*%
%ADD16C,1.127000*%

G36*
X525751Y302679D02*
X525751Y302679D01*
X525761Y302683D01*
X525787Y302684D01*
X529621Y303518D01*
X529629Y303523D01*
X529655Y303528D01*
X533331Y304900D01*
X533339Y304905D01*
X533363Y304914D01*
X536807Y306795D01*
X536814Y306802D01*
X536837Y306814D01*
X539978Y309165D01*
X539984Y309173D01*
X540005Y309189D01*
X542779Y311963D01*
X542784Y311972D01*
X542803Y311990D01*
X545154Y315131D01*
X545157Y315140D01*
X545173Y315161D01*
X547054Y318605D01*
X547056Y318614D01*
X547068Y318637D01*
X548440Y322313D01*
X548440Y322323D01*
X548450Y322347D01*
X549284Y326181D01*
X549283Y326191D01*
X549289Y326217D01*
X549569Y330130D01*
X549563Y330156D01*
X549567Y330181D01*
X549549Y330223D01*
X549539Y330267D01*
X549521Y330285D01*
X549510Y330309D01*
X549472Y330334D01*
X549441Y330366D01*
X549415Y330372D01*
X549394Y330386D01*
X549320Y330397D01*
X539320Y330397D01*
X539313Y330395D01*
X539306Y330397D01*
X539247Y330376D01*
X539186Y330358D01*
X539181Y330353D01*
X539174Y330350D01*
X539136Y330300D01*
X539094Y330253D01*
X539093Y330246D01*
X539088Y330240D01*
X539072Y330168D01*
X538858Y327450D01*
X538226Y324817D01*
X537190Y322317D01*
X535776Y320009D01*
X534018Y317950D01*
X531959Y316192D01*
X529651Y314778D01*
X527151Y313742D01*
X524518Y313110D01*
X521820Y312898D01*
X519122Y313110D01*
X516489Y313742D01*
X513989Y314778D01*
X511681Y316192D01*
X509622Y317950D01*
X509569Y318013D01*
X509143Y318512D01*
X508930Y318761D01*
X508717Y319010D01*
X508504Y319260D01*
X508079Y319758D01*
X508078Y319758D01*
X507866Y320007D01*
X507864Y320009D01*
X506450Y322317D01*
X505414Y324817D01*
X504782Y327450D01*
X504568Y330168D01*
X504566Y330174D01*
X504567Y330181D01*
X504541Y330239D01*
X504519Y330298D01*
X504513Y330303D01*
X504510Y330309D01*
X504457Y330344D01*
X504407Y330382D01*
X504400Y330382D01*
X504394Y330386D01*
X504320Y330397D01*
X494320Y330397D01*
X494295Y330390D01*
X494269Y330392D01*
X494229Y330371D01*
X494186Y330358D01*
X494169Y330338D01*
X494146Y330326D01*
X494124Y330287D01*
X494094Y330253D01*
X494090Y330227D01*
X494077Y330204D01*
X494071Y330130D01*
X494351Y326217D01*
X494355Y326207D01*
X494356Y326181D01*
X495190Y322347D01*
X495195Y322339D01*
X495200Y322313D01*
X496572Y318637D01*
X496577Y318629D01*
X496586Y318605D01*
X498467Y315161D01*
X498474Y315154D01*
X498486Y315131D01*
X500837Y311990D01*
X500845Y311984D01*
X500861Y311963D01*
X503635Y309189D01*
X503644Y309184D01*
X503662Y309165D01*
X506803Y306814D01*
X506812Y306811D01*
X506833Y306795D01*
X510277Y304914D01*
X510286Y304912D01*
X510309Y304900D01*
X513985Y303528D01*
X513995Y303528D01*
X514019Y303518D01*
X517853Y302684D01*
X517863Y302685D01*
X517889Y302679D01*
X521802Y302399D01*
X521812Y302401D01*
X521838Y302399D01*
X525751Y302679D01*
G37*
G36*
X504387Y76005D02*
X504387Y76005D01*
X504394Y76003D01*
X504453Y76024D01*
X504514Y76042D01*
X504519Y76047D01*
X504526Y76050D01*
X504565Y76100D01*
X504606Y76147D01*
X504607Y76154D01*
X504612Y76160D01*
X504628Y76232D01*
X504842Y78950D01*
X505474Y81583D01*
X506510Y84083D01*
X507924Y86391D01*
X509682Y88450D01*
X511741Y90208D01*
X514049Y91622D01*
X516549Y92658D01*
X519182Y93290D01*
X521880Y93502D01*
X524578Y93290D01*
X527211Y92658D01*
X529711Y91622D01*
X532019Y90208D01*
X534078Y88450D01*
X534202Y88304D01*
X534415Y88055D01*
X534840Y87556D01*
X534841Y87556D01*
X535053Y87307D01*
X535266Y87058D01*
X535479Y86809D01*
X535692Y86559D01*
X535836Y86391D01*
X537250Y84083D01*
X538286Y81583D01*
X538918Y78950D01*
X539132Y76232D01*
X539134Y76226D01*
X539133Y76219D01*
X539159Y76161D01*
X539181Y76102D01*
X539187Y76097D01*
X539190Y76091D01*
X539243Y76056D01*
X539293Y76018D01*
X539301Y76018D01*
X539307Y76014D01*
X539380Y76003D01*
X549380Y76003D01*
X549405Y76010D01*
X549431Y76008D01*
X549471Y76029D01*
X549514Y76042D01*
X549531Y76062D01*
X549554Y76074D01*
X549576Y76113D01*
X549606Y76147D01*
X549610Y76173D01*
X549623Y76196D01*
X549629Y76270D01*
X549349Y80183D01*
X549345Y80193D01*
X549344Y80219D01*
X548510Y84053D01*
X548505Y84061D01*
X548500Y84087D01*
X547128Y87763D01*
X547123Y87771D01*
X547114Y87795D01*
X545233Y91239D01*
X545226Y91246D01*
X545214Y91269D01*
X542863Y94410D01*
X542855Y94416D01*
X542839Y94437D01*
X540065Y97211D01*
X540056Y97216D01*
X540038Y97235D01*
X536897Y99586D01*
X536888Y99589D01*
X536867Y99605D01*
X533423Y101486D01*
X533414Y101488D01*
X533391Y101500D01*
X529715Y102872D01*
X529705Y102872D01*
X529681Y102882D01*
X525847Y103716D01*
X525837Y103715D01*
X525811Y103721D01*
X521898Y104001D01*
X521888Y103999D01*
X521862Y104001D01*
X517949Y103721D01*
X517939Y103717D01*
X517913Y103716D01*
X514079Y102882D01*
X514071Y102877D01*
X514045Y102872D01*
X510369Y101500D01*
X510361Y101495D01*
X510337Y101486D01*
X506893Y99605D01*
X506886Y99598D01*
X506863Y99586D01*
X503722Y97235D01*
X503716Y97227D01*
X503695Y97211D01*
X500921Y94437D01*
X500916Y94428D01*
X500897Y94410D01*
X498546Y91269D01*
X498543Y91260D01*
X498527Y91239D01*
X496646Y87795D01*
X496644Y87786D01*
X496632Y87763D01*
X495260Y84087D01*
X495260Y84077D01*
X495250Y84053D01*
X494416Y80219D01*
X494417Y80209D01*
X494411Y80183D01*
X494131Y76270D01*
X494137Y76244D01*
X494133Y76219D01*
X494151Y76177D01*
X494161Y76133D01*
X494179Y76115D01*
X494190Y76091D01*
X494228Y76066D01*
X494259Y76034D01*
X494285Y76028D01*
X494307Y76014D01*
X494380Y76003D01*
X504380Y76003D01*
X504387Y76005D01*
G37*
G36*
X238190Y201053D02*
X238190Y201053D01*
X238256Y201055D01*
X238299Y201073D01*
X238346Y201081D01*
X238403Y201115D01*
X238463Y201140D01*
X238498Y201171D01*
X238539Y201196D01*
X238581Y201247D01*
X238629Y201291D01*
X238651Y201333D01*
X238680Y201370D01*
X238701Y201432D01*
X238732Y201491D01*
X238740Y201545D01*
X238752Y201582D01*
X238751Y201622D01*
X238759Y201676D01*
X238759Y204216D01*
X238748Y204281D01*
X238746Y204347D01*
X238728Y204390D01*
X238720Y204437D01*
X238686Y204494D01*
X238661Y204554D01*
X238630Y204589D01*
X238605Y204630D01*
X238554Y204672D01*
X238510Y204720D01*
X238468Y204742D01*
X238431Y204771D01*
X238369Y204792D01*
X238310Y204823D01*
X238256Y204831D01*
X238219Y204843D01*
X238179Y204842D01*
X238125Y204850D01*
X234315Y204850D01*
X234250Y204839D01*
X234184Y204837D01*
X234141Y204819D01*
X234094Y204811D01*
X234037Y204777D01*
X233977Y204752D01*
X233942Y204721D01*
X233901Y204696D01*
X233860Y204645D01*
X233811Y204601D01*
X233789Y204559D01*
X233760Y204522D01*
X233739Y204460D01*
X233708Y204401D01*
X233700Y204347D01*
X233688Y204310D01*
X233688Y204307D01*
X233689Y204270D01*
X233681Y204216D01*
X233681Y201676D01*
X233692Y201611D01*
X233694Y201545D01*
X233712Y201502D01*
X233720Y201455D01*
X233754Y201398D01*
X233779Y201338D01*
X233810Y201303D01*
X233835Y201262D01*
X233886Y201221D01*
X233930Y201172D01*
X233972Y201150D01*
X234009Y201121D01*
X234071Y201100D01*
X234130Y201069D01*
X234184Y201061D01*
X234221Y201049D01*
X234261Y201050D01*
X234315Y201042D01*
X238125Y201042D01*
X238190Y201053D01*
G37*
G36*
X228030Y201053D02*
X228030Y201053D01*
X228096Y201055D01*
X228139Y201073D01*
X228186Y201081D01*
X228243Y201115D01*
X228303Y201140D01*
X228338Y201171D01*
X228379Y201196D01*
X228421Y201247D01*
X228469Y201291D01*
X228491Y201333D01*
X228520Y201370D01*
X228541Y201432D01*
X228572Y201491D01*
X228580Y201545D01*
X228592Y201582D01*
X228591Y201622D01*
X228599Y201676D01*
X228599Y204216D01*
X228588Y204281D01*
X228586Y204347D01*
X228568Y204390D01*
X228560Y204437D01*
X228526Y204494D01*
X228501Y204554D01*
X228470Y204589D01*
X228445Y204630D01*
X228394Y204672D01*
X228350Y204720D01*
X228308Y204742D01*
X228271Y204771D01*
X228209Y204792D01*
X228150Y204823D01*
X228096Y204831D01*
X228059Y204843D01*
X228019Y204842D01*
X227965Y204850D01*
X224155Y204850D01*
X224090Y204839D01*
X224024Y204837D01*
X223981Y204819D01*
X223934Y204811D01*
X223877Y204777D01*
X223817Y204752D01*
X223782Y204721D01*
X223741Y204696D01*
X223700Y204645D01*
X223651Y204601D01*
X223629Y204559D01*
X223600Y204522D01*
X223579Y204460D01*
X223548Y204401D01*
X223540Y204347D01*
X223528Y204310D01*
X223528Y204307D01*
X223529Y204270D01*
X223521Y204216D01*
X223521Y201676D01*
X223532Y201611D01*
X223534Y201545D01*
X223552Y201502D01*
X223560Y201455D01*
X223594Y201398D01*
X223619Y201338D01*
X223650Y201303D01*
X223675Y201262D01*
X223726Y201221D01*
X223770Y201172D01*
X223812Y201150D01*
X223849Y201121D01*
X223911Y201100D01*
X223970Y201069D01*
X224024Y201061D01*
X224061Y201049D01*
X224101Y201050D01*
X224155Y201042D01*
X227965Y201042D01*
X228030Y201053D01*
G37*
G36*
X598870Y93103D02*
X598870Y93103D01*
X598936Y93105D01*
X598979Y93123D01*
X599026Y93131D01*
X599083Y93165D01*
X599143Y93190D01*
X599178Y93221D01*
X599219Y93246D01*
X599261Y93297D01*
X599309Y93341D01*
X599331Y93383D01*
X599360Y93420D01*
X599381Y93482D01*
X599412Y93541D01*
X599420Y93595D01*
X599432Y93632D01*
X599431Y93672D01*
X599439Y93726D01*
X599439Y96266D01*
X599428Y96331D01*
X599426Y96397D01*
X599408Y96440D01*
X599400Y96487D01*
X599366Y96544D01*
X599341Y96604D01*
X599310Y96639D01*
X599285Y96680D01*
X599234Y96722D01*
X599190Y96770D01*
X599148Y96792D01*
X599111Y96821D01*
X599049Y96842D01*
X598990Y96873D01*
X598936Y96881D01*
X598899Y96893D01*
X598859Y96892D01*
X598805Y96900D01*
X594995Y96900D01*
X594930Y96889D01*
X594864Y96887D01*
X594821Y96869D01*
X594774Y96861D01*
X594717Y96827D01*
X594657Y96802D01*
X594622Y96771D01*
X594581Y96746D01*
X594540Y96695D01*
X594491Y96651D01*
X594469Y96609D01*
X594440Y96572D01*
X594419Y96510D01*
X594388Y96451D01*
X594380Y96397D01*
X594368Y96360D01*
X594368Y96357D01*
X594369Y96320D01*
X594361Y96266D01*
X594361Y93726D01*
X594372Y93661D01*
X594374Y93595D01*
X594392Y93552D01*
X594400Y93505D01*
X594434Y93448D01*
X594459Y93388D01*
X594490Y93353D01*
X594515Y93312D01*
X594566Y93271D01*
X594610Y93222D01*
X594652Y93200D01*
X594689Y93171D01*
X594751Y93150D01*
X594810Y93119D01*
X594864Y93111D01*
X594901Y93099D01*
X594941Y93100D01*
X594995Y93092D01*
X598805Y93092D01*
X598870Y93103D01*
G37*
G36*
X643574Y93103D02*
X643574Y93103D01*
X643640Y93105D01*
X643683Y93123D01*
X643730Y93131D01*
X643787Y93165D01*
X643847Y93190D01*
X643882Y93221D01*
X643923Y93246D01*
X643965Y93297D01*
X644013Y93341D01*
X644035Y93383D01*
X644064Y93420D01*
X644085Y93482D01*
X644116Y93541D01*
X644124Y93595D01*
X644136Y93632D01*
X644135Y93672D01*
X644143Y93726D01*
X644143Y96266D01*
X644132Y96331D01*
X644130Y96397D01*
X644112Y96440D01*
X644104Y96487D01*
X644070Y96544D01*
X644045Y96604D01*
X644014Y96639D01*
X643989Y96680D01*
X643938Y96722D01*
X643894Y96770D01*
X643852Y96792D01*
X643815Y96821D01*
X643753Y96842D01*
X643694Y96873D01*
X643640Y96881D01*
X643603Y96893D01*
X643563Y96892D01*
X643509Y96900D01*
X639699Y96900D01*
X639634Y96889D01*
X639568Y96887D01*
X639525Y96869D01*
X639478Y96861D01*
X639421Y96827D01*
X639361Y96802D01*
X639326Y96771D01*
X639285Y96746D01*
X639244Y96695D01*
X639195Y96651D01*
X639173Y96609D01*
X639144Y96572D01*
X639123Y96510D01*
X639092Y96451D01*
X639084Y96397D01*
X639072Y96360D01*
X639072Y96357D01*
X639073Y96320D01*
X639065Y96266D01*
X639065Y93726D01*
X639076Y93661D01*
X639078Y93595D01*
X639096Y93552D01*
X639104Y93505D01*
X639138Y93448D01*
X639163Y93388D01*
X639194Y93353D01*
X639219Y93312D01*
X639270Y93271D01*
X639314Y93222D01*
X639356Y93200D01*
X639393Y93171D01*
X639455Y93150D01*
X639514Y93119D01*
X639568Y93111D01*
X639605Y93099D01*
X639645Y93100D01*
X639699Y93092D01*
X643509Y93092D01*
X643574Y93103D01*
G37*
D10*
X238758Y208790D02*
X244350Y208790D01*
X244350Y197102D01*
X238758Y197102D01*
X238758Y208790D01*
X238758Y199271D02*
X244350Y199271D01*
X244350Y201440D02*
X238758Y201440D01*
X238758Y203609D02*
X244350Y203609D01*
X244350Y205778D02*
X238758Y205778D01*
X238758Y207947D02*
X244350Y207947D01*
X233936Y208790D02*
X228344Y208790D01*
X233936Y208790D02*
X233936Y197102D01*
X228344Y197102D01*
X228344Y208790D01*
X228344Y199271D02*
X233936Y199271D01*
X233936Y201440D02*
X228344Y201440D01*
X228344Y203609D02*
X233936Y203609D01*
X233936Y205778D02*
X228344Y205778D01*
X228344Y207947D02*
X233936Y207947D01*
X223522Y208790D02*
X217930Y208790D01*
X223522Y208790D02*
X223522Y197102D01*
X217930Y197102D01*
X217930Y208790D01*
X217930Y199271D02*
X223522Y199271D01*
X223522Y201440D02*
X217930Y201440D01*
X217930Y203609D02*
X223522Y203609D01*
X223522Y205778D02*
X217930Y205778D01*
X217930Y207947D02*
X223522Y207947D01*
X644015Y100840D02*
X649607Y100840D01*
X649607Y89152D01*
X644015Y89152D01*
X644015Y100840D01*
X644015Y91321D02*
X649607Y91321D01*
X649607Y93490D02*
X644015Y93490D01*
X644015Y95659D02*
X649607Y95659D01*
X649607Y97828D02*
X644015Y97828D01*
X644015Y99997D02*
X649607Y99997D01*
X639193Y100840D02*
X633601Y100840D01*
X639193Y100840D02*
X639193Y89152D01*
X633601Y89152D01*
X633601Y100840D01*
X633601Y91321D02*
X639193Y91321D01*
X639193Y93490D02*
X633601Y93490D01*
X633601Y95659D02*
X639193Y95659D01*
X639193Y97828D02*
X633601Y97828D01*
X633601Y99997D02*
X639193Y99997D01*
D11*
X520192Y139319D02*
X520192Y144653D01*
X520192Y139319D02*
X508508Y139319D01*
X508508Y144653D01*
X520192Y144653D01*
X520192Y141491D02*
X508508Y141491D01*
X508508Y143663D02*
X520192Y143663D01*
X520192Y147447D02*
X520192Y152781D01*
X520192Y147447D02*
X508508Y147447D01*
X508508Y152781D01*
X520192Y152781D01*
X520192Y149619D02*
X508508Y149619D01*
X508508Y151791D02*
X520192Y151791D01*
D10*
X599311Y100840D02*
X604903Y100840D01*
X604903Y89152D01*
X599311Y89152D01*
X599311Y100840D01*
X599311Y91321D02*
X604903Y91321D01*
X604903Y93490D02*
X599311Y93490D01*
X599311Y95659D02*
X604903Y95659D01*
X604903Y97828D02*
X599311Y97828D01*
X599311Y99997D02*
X604903Y99997D01*
X594489Y100840D02*
X588897Y100840D01*
X594489Y100840D02*
X594489Y89152D01*
X588897Y89152D01*
X588897Y100840D01*
X588897Y91321D02*
X594489Y91321D01*
X594489Y93490D02*
X588897Y93490D01*
X588897Y95659D02*
X594489Y95659D01*
X594489Y97828D02*
X588897Y97828D01*
X588897Y99997D02*
X594489Y99997D01*
D12*
X690598Y119944D03*
X690598Y177744D03*
D13*
X249936Y155448D03*
D14*
X69510Y114440D02*
X69510Y111960D01*
X69510Y114440D02*
X87990Y114440D01*
X87990Y111960D01*
X69510Y111960D01*
X69510Y114135D02*
X87990Y114135D01*
X69510Y116960D02*
X69510Y119440D01*
X87990Y119440D01*
X87990Y116960D01*
X69510Y116960D01*
X69510Y119135D02*
X87990Y119135D01*
X69510Y121960D02*
X69510Y124440D01*
X87990Y124440D01*
X87990Y121960D01*
X69510Y121960D01*
X69510Y124135D02*
X87990Y124135D01*
X69510Y126960D02*
X69510Y129440D01*
X87990Y129440D01*
X87990Y126960D01*
X69510Y126960D01*
X69510Y129135D02*
X87990Y129135D01*
X69510Y131960D02*
X69510Y134440D01*
X87990Y134440D01*
X87990Y131960D01*
X69510Y131960D01*
X69510Y134135D02*
X87990Y134135D01*
X69510Y136960D02*
X69510Y139440D01*
X87990Y139440D01*
X87990Y136960D01*
X69510Y136960D01*
X69510Y139135D02*
X87990Y139135D01*
X69510Y141960D02*
X69510Y144440D01*
X87990Y144440D01*
X87990Y141960D01*
X69510Y141960D01*
X69510Y144135D02*
X87990Y144135D01*
X69510Y146960D02*
X69510Y149440D01*
X87990Y149440D01*
X87990Y146960D01*
X69510Y146960D01*
X69510Y149135D02*
X87990Y149135D01*
X69510Y151960D02*
X69510Y154440D01*
X87990Y154440D01*
X87990Y151960D01*
X69510Y151960D01*
X69510Y154135D02*
X87990Y154135D01*
X69510Y156960D02*
X69510Y159440D01*
X87990Y159440D01*
X87990Y156960D01*
X69510Y156960D01*
X69510Y159135D02*
X87990Y159135D01*
X69510Y161960D02*
X69510Y164440D01*
X87990Y164440D01*
X87990Y161960D01*
X69510Y161960D01*
X69510Y164135D02*
X87990Y164135D01*
X69510Y186960D02*
X69510Y189440D01*
X87990Y189440D01*
X87990Y186960D01*
X69510Y186960D01*
X69510Y189135D02*
X87990Y189135D01*
X69510Y191960D02*
X69510Y194440D01*
X87990Y194440D01*
X87990Y191960D01*
X69510Y191960D01*
X69510Y194135D02*
X87990Y194135D01*
X69510Y196960D02*
X69510Y199440D01*
X87990Y199440D01*
X87990Y196960D01*
X69510Y196960D01*
X69510Y199135D02*
X87990Y199135D01*
X69510Y201960D02*
X69510Y204440D01*
X87990Y204440D01*
X87990Y201960D01*
X69510Y201960D01*
X69510Y204135D02*
X87990Y204135D01*
X69510Y206960D02*
X69510Y209440D01*
X87990Y209440D01*
X87990Y206960D01*
X69510Y206960D01*
X69510Y209135D02*
X87990Y209135D01*
X69510Y211960D02*
X69510Y214440D01*
X87990Y214440D01*
X87990Y211960D01*
X69510Y211960D01*
X69510Y214135D02*
X87990Y214135D01*
X69510Y216960D02*
X69510Y219440D01*
X87990Y219440D01*
X87990Y216960D01*
X69510Y216960D01*
X69510Y219135D02*
X87990Y219135D01*
X69510Y221960D02*
X69510Y224440D01*
X87990Y224440D01*
X87990Y221960D01*
X69510Y221960D01*
X69510Y224135D02*
X87990Y224135D01*
X69510Y226960D02*
X69510Y229440D01*
X87990Y229440D01*
X87990Y226960D01*
X69510Y226960D01*
X69510Y229135D02*
X87990Y229135D01*
X69510Y231960D02*
X69510Y234440D01*
X87990Y234440D01*
X87990Y231960D01*
X69510Y231960D01*
X69510Y234135D02*
X87990Y234135D01*
X69510Y236960D02*
X69510Y239440D01*
X87990Y239440D01*
X87990Y236960D01*
X69510Y236960D01*
X69510Y239135D02*
X87990Y239135D01*
X69510Y241960D02*
X69510Y244440D01*
X87990Y244440D01*
X87990Y241960D01*
X69510Y241960D01*
X69510Y244135D02*
X87990Y244135D01*
X69510Y246960D02*
X69510Y249440D01*
X87990Y249440D01*
X87990Y246960D01*
X69510Y246960D01*
X69510Y249135D02*
X87990Y249135D01*
X69510Y251960D02*
X69510Y254440D01*
X87990Y254440D01*
X87990Y251960D01*
X69510Y251960D01*
X69510Y254135D02*
X87990Y254135D01*
X69510Y256960D02*
X69510Y259440D01*
X87990Y259440D01*
X87990Y256960D01*
X69510Y256960D01*
X69510Y259135D02*
X87990Y259135D01*
X69510Y261960D02*
X69510Y264440D01*
X87990Y264440D01*
X87990Y261960D01*
X69510Y261960D01*
X69510Y264135D02*
X87990Y264135D01*
X69510Y266960D02*
X69510Y269440D01*
X87990Y269440D01*
X87990Y266960D01*
X69510Y266960D01*
X69510Y269135D02*
X87990Y269135D01*
X69510Y271960D02*
X69510Y274440D01*
X87990Y274440D01*
X87990Y271960D01*
X69510Y271960D01*
X69510Y274135D02*
X87990Y274135D01*
X69510Y276960D02*
X69510Y279440D01*
X87990Y279440D01*
X87990Y276960D01*
X69510Y276960D01*
X69510Y279135D02*
X87990Y279135D01*
X69510Y281960D02*
X69510Y284440D01*
X87990Y284440D01*
X87990Y281960D01*
X69510Y281960D01*
X69510Y284135D02*
X87990Y284135D01*
X69510Y286960D02*
X69510Y289440D01*
X87990Y289440D01*
X87990Y286960D01*
X69510Y286960D01*
X69510Y289135D02*
X87990Y289135D01*
X69510Y291960D02*
X69510Y294440D01*
X87990Y294440D01*
X87990Y291960D01*
X69510Y291960D01*
X69510Y294135D02*
X87990Y294135D01*
D15*
X542880Y86252D03*
X500880Y86252D03*
X521880Y99252D03*
X500820Y320148D03*
X542820Y320148D03*
X521820Y307148D03*
D16*
X640080Y317500D03*
X129540Y93980D03*
M02*
