G04 EAGLE Gerber RS-274X export*
G75*
%MOMM*%
%FSLAX34Y34*%
%LPD*%
%INSilkscreen Bottom*%
%IPPOS*%
%AMOC8*
5,1,8,0,0,1.08239X$1,22.5*%
G01*
%ADD10C,0.203200*%
%ADD11C,0.152400*%

G36*
X244005Y214054D02*
X244005Y214054D01*
X244008Y214051D01*
X244608Y214151D01*
X244611Y214155D01*
X244614Y214153D01*
X245314Y214353D01*
X245315Y214354D01*
X245316Y214353D01*
X245916Y214553D01*
X245917Y214556D01*
X245919Y214555D01*
X246619Y214855D01*
X246621Y214857D01*
X246622Y214856D01*
X247222Y215156D01*
X247225Y215163D01*
X247231Y215162D01*
X248231Y215962D01*
X248232Y215966D01*
X248235Y215965D01*
X248735Y216465D01*
X248736Y216472D01*
X248741Y216473D01*
X249141Y217073D01*
X249141Y217077D01*
X249144Y217078D01*
X250044Y218878D01*
X250042Y218889D01*
X250049Y218893D01*
X250149Y219592D01*
X250249Y220192D01*
X250248Y220193D01*
X250249Y220193D01*
X250349Y220893D01*
X250344Y220902D01*
X250349Y220907D01*
X250249Y221607D01*
X250248Y221608D01*
X250249Y221608D01*
X250149Y222208D01*
X250049Y222907D01*
X250041Y222915D01*
X250044Y222922D01*
X249144Y224722D01*
X249140Y224724D01*
X249141Y224727D01*
X248741Y225327D01*
X248734Y225330D01*
X248735Y225335D01*
X248235Y225835D01*
X248231Y225835D01*
X248231Y225838D01*
X247231Y226638D01*
X247223Y226639D01*
X247222Y226644D01*
X246022Y227244D01*
X246015Y227243D01*
X246014Y227247D01*
X244614Y227647D01*
X244610Y227646D01*
X244608Y227649D01*
X244008Y227749D01*
X244003Y227746D01*
X244000Y227749D01*
X219100Y227749D01*
X219096Y227746D01*
X219093Y227749D01*
X218393Y227649D01*
X218392Y227648D01*
X218392Y227649D01*
X217792Y227549D01*
X217786Y227542D01*
X217781Y227545D01*
X217082Y227246D01*
X216484Y227047D01*
X216479Y227039D01*
X216473Y227041D01*
X215874Y226642D01*
X215375Y226342D01*
X215371Y226334D01*
X215365Y226335D01*
X214365Y225335D01*
X214365Y225331D01*
X214362Y225331D01*
X213962Y224831D01*
X213961Y224827D01*
X213959Y224827D01*
X213559Y224227D01*
X213559Y224223D01*
X213556Y224222D01*
X213256Y223622D01*
X213256Y223619D01*
X213255Y223619D01*
X213257Y223617D01*
X213253Y223616D01*
X213053Y223016D01*
X213054Y223014D01*
X213053Y223014D01*
X213029Y222929D01*
X212986Y222781D01*
X212972Y222732D01*
X212930Y222584D01*
X212888Y222437D01*
X212874Y222387D01*
X212853Y222314D01*
X212854Y222310D01*
X212851Y222308D01*
X212751Y221708D01*
X212752Y221707D01*
X212751Y221707D01*
X212651Y221007D01*
X212656Y220998D01*
X212651Y220993D01*
X212851Y219593D01*
X212852Y219592D01*
X212851Y219592D01*
X212951Y218992D01*
X212956Y218988D01*
X212953Y218984D01*
X213153Y218384D01*
X213156Y218383D01*
X213155Y218381D01*
X213455Y217681D01*
X213463Y217676D01*
X213462Y217669D01*
X213860Y217171D01*
X214259Y216573D01*
X214262Y216572D01*
X214262Y216569D01*
X214662Y216069D01*
X214669Y216067D01*
X214669Y216062D01*
X215169Y215662D01*
X215173Y215661D01*
X215173Y215659D01*
X215771Y215260D01*
X216269Y214862D01*
X216279Y214861D01*
X216281Y214855D01*
X216981Y214555D01*
X216984Y214556D01*
X216984Y214553D01*
X217584Y214353D01*
X217586Y214354D01*
X217586Y214353D01*
X218286Y214153D01*
X218296Y214156D01*
X218300Y214151D01*
X218897Y214151D01*
X219593Y214051D01*
X219598Y214054D01*
X219600Y214051D01*
X244000Y214051D01*
X244005Y214054D01*
G37*
G36*
X525392Y156984D02*
X525392Y156984D01*
X525395Y156981D01*
X526095Y157081D01*
X526100Y157086D01*
X526104Y157083D01*
X526703Y157283D01*
X527402Y157483D01*
X527403Y157484D01*
X527404Y157483D01*
X528004Y157683D01*
X528009Y157691D01*
X528015Y157689D01*
X528615Y158089D01*
X528616Y158092D01*
X528619Y158092D01*
X529619Y158892D01*
X529620Y158896D01*
X529623Y158895D01*
X530123Y159395D01*
X530123Y159399D01*
X530126Y159399D01*
X530526Y159899D01*
X530527Y159903D01*
X530529Y159903D01*
X530929Y160503D01*
X530929Y160507D01*
X530932Y160508D01*
X531232Y161108D01*
X531231Y161115D01*
X531235Y161116D01*
X531246Y161154D01*
X531288Y161301D01*
X531302Y161351D01*
X531344Y161498D01*
X531345Y161498D01*
X531344Y161498D01*
X531387Y161646D01*
X531401Y161695D01*
X531435Y161815D01*
X531635Y162414D01*
X531633Y162421D01*
X531637Y162423D01*
X531737Y163123D01*
X531734Y163128D01*
X531737Y163130D01*
X531737Y164430D01*
X531734Y164434D01*
X531737Y164437D01*
X531637Y165137D01*
X531633Y165141D01*
X531635Y165144D01*
X531435Y165844D01*
X531434Y165845D01*
X531435Y165846D01*
X531235Y166446D01*
X531230Y166449D01*
X531232Y166452D01*
X530632Y167652D01*
X530622Y167657D01*
X530623Y167665D01*
X530125Y168163D01*
X529726Y168661D01*
X529722Y168662D01*
X529723Y168665D01*
X529223Y169165D01*
X529216Y169166D01*
X529215Y169171D01*
X528615Y169571D01*
X528611Y169571D01*
X528610Y169574D01*
X527410Y170174D01*
X527405Y170173D01*
X527404Y170177D01*
X526804Y170377D01*
X526802Y170376D01*
X526802Y170377D01*
X526102Y170577D01*
X526097Y170576D01*
X526095Y170579D01*
X525395Y170679D01*
X525390Y170676D01*
X525388Y170679D01*
X524988Y170679D01*
X524958Y170657D01*
X524946Y170655D01*
X524928Y170626D01*
X524928Y170627D01*
X524923Y170664D01*
X524901Y170662D01*
X524888Y170679D01*
X501888Y170679D01*
X501884Y170676D01*
X501881Y170679D01*
X501181Y170579D01*
X501180Y170578D01*
X501180Y170579D01*
X500580Y170479D01*
X500577Y170475D01*
X500574Y170477D01*
X499874Y170277D01*
X499870Y170272D01*
X499866Y170274D01*
X498666Y169674D01*
X498664Y169670D01*
X498661Y169671D01*
X498061Y169271D01*
X498058Y169264D01*
X498053Y169265D01*
X497153Y168365D01*
X497153Y168361D01*
X497150Y168362D01*
X496650Y167762D01*
X496650Y167756D01*
X496646Y167755D01*
X496346Y167255D01*
X496346Y167250D01*
X496343Y167249D01*
X496043Y166551D01*
X495744Y165952D01*
X495745Y165947D01*
X495741Y165946D01*
X495541Y165346D01*
X495543Y165339D01*
X495539Y165337D01*
X495439Y164637D01*
X495442Y164632D01*
X495439Y164630D01*
X495439Y163230D01*
X495442Y163225D01*
X495439Y163222D01*
X495539Y162622D01*
X495543Y162619D01*
X495541Y162616D01*
X495741Y161916D01*
X495742Y161915D01*
X495741Y161914D01*
X495941Y161314D01*
X495946Y161311D01*
X495944Y161308D01*
X496544Y160108D01*
X496548Y160106D01*
X496547Y160103D01*
X496947Y159503D01*
X496954Y159500D01*
X496953Y159495D01*
X497453Y158995D01*
X497457Y158995D01*
X497457Y158992D01*
X498457Y158192D01*
X498461Y158191D01*
X498461Y158189D01*
X499061Y157789D01*
X499065Y157789D01*
X499066Y157786D01*
X499666Y157486D01*
X499671Y157487D01*
X499672Y157483D01*
X500272Y157283D01*
X500274Y157284D01*
X500274Y157283D01*
X500974Y157083D01*
X500984Y157086D01*
X500988Y157081D01*
X501684Y157081D01*
X502280Y156981D01*
X502285Y156984D01*
X502288Y156981D01*
X525388Y156981D01*
X525392Y156984D01*
G37*
%LPC*%
G36*
X232208Y216249D02*
X232208Y216249D01*
X231639Y216439D01*
X231450Y217005D01*
X231548Y217784D01*
X231833Y218259D01*
X232408Y218451D01*
X234800Y218451D01*
X234814Y218462D01*
X234832Y218463D01*
X234831Y218475D01*
X234847Y218487D01*
X234829Y218511D01*
X234827Y218541D01*
X234527Y218741D01*
X234526Y218741D01*
X234525Y218742D01*
X234026Y219042D01*
X233430Y219439D01*
X232835Y219935D01*
X232442Y220427D01*
X232146Y221019D01*
X231948Y221611D01*
X231850Y222300D01*
X231948Y222989D01*
X232146Y223581D01*
X232443Y224175D01*
X232837Y224766D01*
X233329Y225160D01*
X233922Y225555D01*
X234508Y225751D01*
X235893Y225751D01*
X236585Y225553D01*
X237176Y225356D01*
X237663Y224966D01*
X238059Y224373D01*
X238455Y223778D01*
X238652Y223188D01*
X238751Y222596D01*
X238751Y221812D01*
X238566Y221441D01*
X237893Y221249D01*
X237020Y221249D01*
X236646Y221623D01*
X236549Y222307D01*
X236548Y222308D01*
X236549Y222308D01*
X236449Y222908D01*
X236433Y222923D01*
X236435Y222935D01*
X235935Y223435D01*
X235913Y223438D01*
X235907Y223449D01*
X235207Y223549D01*
X235193Y223541D01*
X235184Y223547D01*
X234584Y223347D01*
X234573Y223330D01*
X234562Y223331D01*
X234162Y222831D01*
X234161Y222808D01*
X234151Y222800D01*
X234151Y222200D01*
X234160Y222187D01*
X234156Y222178D01*
X234456Y221578D01*
X234463Y221575D01*
X234462Y221569D01*
X234862Y221069D01*
X234869Y221067D01*
X234868Y221062D01*
X235468Y220562D01*
X235474Y220562D01*
X235475Y220558D01*
X235975Y220258D01*
X235975Y220257D01*
X237174Y219558D01*
X237766Y219163D01*
X238160Y218671D01*
X238555Y218078D01*
X238749Y217496D01*
X238653Y216918D01*
X238271Y216346D01*
X237597Y216249D01*
X232208Y216249D01*
G37*
%LPD*%
%LPC*%
G36*
X520495Y159179D02*
X520495Y159179D01*
X519803Y159377D01*
X519212Y159574D01*
X518721Y159967D01*
X518229Y160459D01*
X517934Y161048D01*
X517737Y161737D01*
X517737Y162427D01*
X517836Y163115D01*
X518130Y163703D01*
X518521Y164192D01*
X519010Y164486D01*
X519705Y164784D01*
X520399Y164982D01*
X520996Y165081D01*
X521000Y165086D01*
X521004Y165083D01*
X521604Y165283D01*
X521613Y165297D01*
X521623Y165295D01*
X522123Y165795D01*
X522127Y165822D01*
X522137Y165830D01*
X522137Y166430D01*
X522112Y166463D01*
X522110Y166474D01*
X521510Y166774D01*
X521494Y166771D01*
X521488Y166779D01*
X520788Y166779D01*
X520773Y166768D01*
X520763Y166772D01*
X520266Y166474D01*
X519578Y166179D01*
X519111Y166179D01*
X518627Y166760D01*
X518246Y167331D01*
X518527Y167800D01*
X519017Y168289D01*
X519607Y168584D01*
X520199Y168782D01*
X520891Y168881D01*
X521681Y168881D01*
X522373Y168683D01*
X522967Y168485D01*
X523463Y168188D01*
X523465Y168188D01*
X523446Y168155D01*
X523452Y168096D01*
X523453Y168096D01*
X523453Y168095D01*
X523949Y167600D01*
X524241Y167113D01*
X524339Y166423D01*
X524438Y165735D01*
X524242Y165148D01*
X523945Y164456D01*
X523556Y163969D01*
X522966Y163674D01*
X522370Y163376D01*
X521677Y163178D01*
X521080Y163079D01*
X521077Y163075D01*
X521074Y163077D01*
X520374Y162877D01*
X520362Y162860D01*
X520350Y162861D01*
X519950Y162361D01*
X519949Y162332D01*
X519939Y162322D01*
X520039Y161722D01*
X520058Y161705D01*
X520057Y161692D01*
X520557Y161292D01*
X520576Y161291D01*
X520581Y161281D01*
X521281Y161181D01*
X521297Y161190D01*
X521307Y161185D01*
X522007Y161485D01*
X522014Y161496D01*
X522023Y161495D01*
X522519Y161992D01*
X523103Y162381D01*
X523670Y162381D01*
X524250Y161897D01*
X524536Y161420D01*
X524442Y160854D01*
X523657Y160068D01*
X523063Y159673D01*
X522469Y159376D01*
X521880Y159179D01*
X520495Y159179D01*
G37*
%LPD*%
%LPC*%
G36*
X223903Y216249D02*
X223903Y216249D01*
X223213Y216348D01*
X222522Y216644D01*
X222028Y216940D01*
X221542Y217329D01*
X221353Y217898D01*
X221642Y218572D01*
X222124Y219055D01*
X222590Y219148D01*
X223173Y218759D01*
X223180Y218760D01*
X223182Y218754D01*
X223682Y218554D01*
X223689Y218556D01*
X223692Y218551D01*
X224292Y218451D01*
X224297Y218454D01*
X224300Y218451D01*
X225000Y218451D01*
X225009Y218458D01*
X225016Y218453D01*
X225616Y218653D01*
X225621Y218661D01*
X225627Y218659D01*
X226227Y219059D01*
X226230Y219066D01*
X226235Y219065D01*
X226735Y219565D01*
X226736Y219577D01*
X226744Y219578D01*
X227044Y220178D01*
X227042Y220189D01*
X227049Y220192D01*
X227149Y220792D01*
X227146Y220797D01*
X227149Y220800D01*
X227149Y221600D01*
X227142Y221609D01*
X227147Y221616D01*
X226947Y222216D01*
X226939Y222221D01*
X226941Y222227D01*
X226541Y222827D01*
X226531Y222831D01*
X226531Y222838D01*
X226031Y223238D01*
X226021Y223239D01*
X226019Y223245D01*
X225319Y223545D01*
X225311Y223543D01*
X225308Y223549D01*
X224708Y223649D01*
X224703Y223646D01*
X224700Y223649D01*
X224000Y223649D01*
X223991Y223642D01*
X223984Y223647D01*
X223384Y223447D01*
X223380Y223441D01*
X223376Y223443D01*
X222682Y223046D01*
X222309Y222953D01*
X221736Y223336D01*
X221349Y223915D01*
X221349Y224483D01*
X221734Y224963D01*
X222322Y225355D01*
X222915Y225553D01*
X223610Y225752D01*
X224303Y225851D01*
X224897Y225851D01*
X225589Y225752D01*
X226182Y225554D01*
X226879Y225255D01*
X227471Y224959D01*
X228362Y224069D01*
X228757Y223475D01*
X229054Y222882D01*
X229252Y222189D01*
X229351Y221596D01*
X229351Y220903D01*
X229251Y220207D01*
X229152Y219515D01*
X228856Y218922D01*
X228558Y218327D01*
X228163Y217833D01*
X227669Y217338D01*
X227075Y216943D01*
X226481Y216646D01*
X225885Y216447D01*
X225193Y216249D01*
X223903Y216249D01*
G37*
%LPD*%
%LPC*%
G36*
X509613Y162373D02*
X509613Y162373D01*
X509024Y162766D01*
X508631Y163355D01*
X508334Y163949D01*
X508137Y164538D01*
X508137Y165920D01*
X508433Y166609D01*
X508727Y167198D01*
X509219Y167592D01*
X509220Y167592D01*
X509815Y168088D01*
X510407Y168384D01*
X510996Y168581D01*
X514385Y168581D01*
X515058Y168485D01*
X515341Y168013D01*
X515439Y167426D01*
X515439Y163845D01*
X513237Y164467D01*
X513237Y165830D01*
X513229Y165841D01*
X513234Y165848D01*
X513034Y166348D01*
X512993Y166373D01*
X512988Y166379D01*
X511688Y166379D01*
X511684Y166376D01*
X511681Y166379D01*
X510981Y166279D01*
X510966Y166263D01*
X510953Y166265D01*
X510453Y165765D01*
X510450Y165744D01*
X510439Y165738D01*
X510339Y165138D01*
X510347Y165124D01*
X510341Y165116D01*
X510541Y164416D01*
X510558Y164404D01*
X510557Y164392D01*
X511027Y164015D01*
X510164Y162097D01*
X509613Y162373D01*
G37*
%LPD*%
%LPC*%
G36*
X241216Y216249D02*
X241216Y216249D01*
X240842Y216530D01*
X240647Y217116D01*
X240616Y217137D01*
X240611Y217148D01*
X240593Y217152D01*
X240596Y217154D01*
X240600Y217154D01*
X240609Y217161D01*
X240645Y217179D01*
X240642Y217185D01*
X240647Y217189D01*
X240643Y217195D01*
X240649Y217200D01*
X240649Y224597D01*
X240745Y225270D01*
X241216Y225552D01*
X241996Y225650D01*
X242663Y225459D01*
X242851Y224991D01*
X242851Y216909D01*
X242663Y216440D01*
X242092Y216249D01*
X241216Y216249D01*
G37*
%LPD*%
%LPC*%
G36*
X504596Y159179D02*
X504596Y159179D01*
X504025Y159370D01*
X503836Y159843D01*
X503737Y160533D01*
X503737Y167327D01*
X503835Y168011D01*
X504118Y168387D01*
X504792Y168580D01*
X505565Y168483D01*
X505939Y168110D01*
X505939Y166930D01*
X505965Y166896D01*
X505967Y166886D01*
X505995Y166872D01*
X505994Y166872D01*
X505950Y166861D01*
X505954Y166842D01*
X505939Y166830D01*
X505939Y160034D01*
X505843Y159458D01*
X505472Y159179D01*
X504596Y159179D01*
G37*
%LPD*%
%LPC*%
G36*
X513802Y159179D02*
X513802Y159179D01*
X513333Y159461D01*
X513237Y160034D01*
X513237Y161430D01*
X513218Y161456D01*
X513218Y161469D01*
X512818Y161769D01*
X512796Y161769D01*
X512788Y161779D01*
X511491Y161779D01*
X510799Y161878D01*
X510255Y162059D01*
X511120Y163981D01*
X512888Y163981D01*
X512914Y164000D01*
X512927Y164000D01*
X513207Y164373D01*
X515439Y163743D01*
X515439Y160633D01*
X515339Y159938D01*
X515244Y159367D01*
X514680Y159179D01*
X513802Y159179D01*
G37*
%LPD*%
D10*
X218440Y192786D02*
X243840Y192786D01*
X218440Y213106D02*
X218307Y213104D01*
X218174Y213098D01*
X218042Y213089D01*
X217909Y213075D01*
X217777Y213058D01*
X217646Y213037D01*
X217515Y213012D01*
X217386Y212983D01*
X217257Y212950D01*
X217129Y212914D01*
X217002Y212874D01*
X216876Y212830D01*
X216752Y212783D01*
X216629Y212732D01*
X216508Y212678D01*
X216388Y212620D01*
X216270Y212558D01*
X216154Y212493D01*
X216040Y212425D01*
X215928Y212354D01*
X215818Y212279D01*
X215710Y212201D01*
X215604Y212120D01*
X215501Y212036D01*
X215401Y211949D01*
X215303Y211860D01*
X215207Y211767D01*
X215114Y211671D01*
X215025Y211573D01*
X214938Y211473D01*
X214854Y211370D01*
X214773Y211264D01*
X214695Y211156D01*
X214620Y211046D01*
X214549Y210934D01*
X214481Y210820D01*
X214416Y210704D01*
X214354Y210586D01*
X214296Y210466D01*
X214242Y210345D01*
X214191Y210222D01*
X214144Y210098D01*
X214100Y209972D01*
X214060Y209845D01*
X214024Y209717D01*
X213991Y209588D01*
X213962Y209459D01*
X213937Y209328D01*
X213916Y209197D01*
X213899Y209065D01*
X213885Y208932D01*
X213876Y208800D01*
X213870Y208667D01*
X213868Y208534D01*
X243840Y213106D02*
X243973Y213104D01*
X244106Y213098D01*
X244238Y213089D01*
X244371Y213075D01*
X244503Y213058D01*
X244634Y213037D01*
X244765Y213012D01*
X244894Y212983D01*
X245023Y212950D01*
X245151Y212914D01*
X245278Y212874D01*
X245404Y212830D01*
X245528Y212783D01*
X245651Y212732D01*
X245772Y212678D01*
X245892Y212620D01*
X246010Y212558D01*
X246126Y212493D01*
X246240Y212425D01*
X246352Y212354D01*
X246462Y212279D01*
X246570Y212201D01*
X246676Y212120D01*
X246779Y212036D01*
X246879Y211949D01*
X246977Y211860D01*
X247073Y211767D01*
X247166Y211671D01*
X247255Y211573D01*
X247342Y211473D01*
X247426Y211370D01*
X247507Y211264D01*
X247585Y211156D01*
X247660Y211046D01*
X247731Y210934D01*
X247799Y210820D01*
X247864Y210704D01*
X247926Y210586D01*
X247984Y210466D01*
X248038Y210345D01*
X248089Y210222D01*
X248136Y210098D01*
X248180Y209972D01*
X248220Y209845D01*
X248256Y209717D01*
X248289Y209588D01*
X248318Y209459D01*
X248343Y209328D01*
X248364Y209197D01*
X248381Y209065D01*
X248395Y208932D01*
X248404Y208800D01*
X248410Y208667D01*
X248412Y208534D01*
X248412Y197358D02*
X248410Y197225D01*
X248404Y197092D01*
X248395Y196960D01*
X248381Y196827D01*
X248364Y196695D01*
X248343Y196564D01*
X248318Y196433D01*
X248289Y196304D01*
X248256Y196175D01*
X248220Y196047D01*
X248180Y195920D01*
X248136Y195794D01*
X248089Y195670D01*
X248038Y195547D01*
X247984Y195426D01*
X247926Y195306D01*
X247864Y195188D01*
X247799Y195072D01*
X247731Y194958D01*
X247660Y194846D01*
X247585Y194736D01*
X247507Y194628D01*
X247426Y194522D01*
X247342Y194419D01*
X247255Y194319D01*
X247166Y194221D01*
X247073Y194125D01*
X246977Y194032D01*
X246879Y193943D01*
X246779Y193856D01*
X246676Y193772D01*
X246570Y193691D01*
X246462Y193613D01*
X246352Y193538D01*
X246240Y193467D01*
X246126Y193399D01*
X246010Y193334D01*
X245892Y193272D01*
X245772Y193214D01*
X245651Y193160D01*
X245528Y193109D01*
X245404Y193062D01*
X245278Y193018D01*
X245151Y192978D01*
X245023Y192942D01*
X244894Y192909D01*
X244765Y192880D01*
X244634Y192855D01*
X244503Y192834D01*
X244371Y192817D01*
X244238Y192803D01*
X244106Y192794D01*
X243973Y192788D01*
X243840Y192786D01*
X218440Y192786D02*
X218307Y192788D01*
X218174Y192794D01*
X218042Y192803D01*
X217909Y192817D01*
X217777Y192834D01*
X217646Y192855D01*
X217515Y192880D01*
X217386Y192909D01*
X217257Y192942D01*
X217129Y192978D01*
X217002Y193018D01*
X216876Y193062D01*
X216752Y193109D01*
X216629Y193160D01*
X216508Y193214D01*
X216388Y193272D01*
X216270Y193334D01*
X216154Y193399D01*
X216040Y193467D01*
X215928Y193538D01*
X215818Y193613D01*
X215710Y193691D01*
X215604Y193772D01*
X215501Y193856D01*
X215401Y193943D01*
X215303Y194032D01*
X215207Y194125D01*
X215114Y194221D01*
X215025Y194319D01*
X214938Y194419D01*
X214854Y194522D01*
X214773Y194628D01*
X214695Y194736D01*
X214620Y194846D01*
X214549Y194958D01*
X214481Y195072D01*
X214416Y195188D01*
X214354Y195306D01*
X214296Y195426D01*
X214242Y195547D01*
X214191Y195670D01*
X214144Y195794D01*
X214100Y195920D01*
X214060Y196047D01*
X214024Y196175D01*
X213991Y196304D01*
X213962Y196433D01*
X213937Y196564D01*
X213916Y196695D01*
X213899Y196827D01*
X213885Y196960D01*
X213876Y197092D01*
X213870Y197225D01*
X213868Y197358D01*
X213868Y208534D01*
X248412Y208534D02*
X248412Y197358D01*
X243840Y213106D02*
X218440Y213106D01*
X633984Y84836D02*
X649224Y84836D01*
X629412Y100584D02*
X629414Y100717D01*
X629420Y100850D01*
X629429Y100982D01*
X629443Y101115D01*
X629460Y101247D01*
X629481Y101378D01*
X629506Y101509D01*
X629535Y101638D01*
X629568Y101767D01*
X629604Y101895D01*
X629644Y102022D01*
X629688Y102148D01*
X629735Y102272D01*
X629786Y102395D01*
X629840Y102516D01*
X629898Y102636D01*
X629960Y102754D01*
X630025Y102870D01*
X630093Y102984D01*
X630164Y103096D01*
X630239Y103206D01*
X630317Y103314D01*
X630398Y103420D01*
X630482Y103523D01*
X630569Y103623D01*
X630658Y103721D01*
X630751Y103817D01*
X630847Y103910D01*
X630945Y103999D01*
X631045Y104086D01*
X631148Y104170D01*
X631254Y104251D01*
X631362Y104329D01*
X631472Y104404D01*
X631584Y104475D01*
X631698Y104543D01*
X631814Y104608D01*
X631932Y104670D01*
X632052Y104728D01*
X632173Y104782D01*
X632296Y104833D01*
X632420Y104880D01*
X632546Y104924D01*
X632673Y104964D01*
X632801Y105000D01*
X632930Y105033D01*
X633059Y105062D01*
X633190Y105087D01*
X633321Y105108D01*
X633453Y105125D01*
X633586Y105139D01*
X633718Y105148D01*
X633851Y105154D01*
X633984Y105156D01*
X649224Y105156D02*
X649357Y105154D01*
X649490Y105148D01*
X649622Y105139D01*
X649755Y105125D01*
X649887Y105108D01*
X650018Y105087D01*
X650149Y105062D01*
X650278Y105033D01*
X650407Y105000D01*
X650535Y104964D01*
X650662Y104924D01*
X650788Y104880D01*
X650912Y104833D01*
X651035Y104782D01*
X651156Y104728D01*
X651276Y104670D01*
X651394Y104608D01*
X651510Y104543D01*
X651624Y104475D01*
X651736Y104404D01*
X651846Y104329D01*
X651954Y104251D01*
X652060Y104170D01*
X652163Y104086D01*
X652263Y103999D01*
X652361Y103910D01*
X652457Y103817D01*
X652550Y103721D01*
X652639Y103623D01*
X652726Y103523D01*
X652810Y103420D01*
X652891Y103314D01*
X652969Y103206D01*
X653044Y103096D01*
X653115Y102984D01*
X653183Y102870D01*
X653248Y102754D01*
X653310Y102636D01*
X653368Y102516D01*
X653422Y102395D01*
X653473Y102272D01*
X653520Y102148D01*
X653564Y102022D01*
X653604Y101895D01*
X653640Y101767D01*
X653673Y101638D01*
X653702Y101509D01*
X653727Y101378D01*
X653748Y101247D01*
X653765Y101115D01*
X653779Y100982D01*
X653788Y100850D01*
X653794Y100717D01*
X653796Y100584D01*
X653796Y89408D02*
X653794Y89275D01*
X653788Y89142D01*
X653779Y89010D01*
X653765Y88877D01*
X653748Y88745D01*
X653727Y88614D01*
X653702Y88483D01*
X653673Y88354D01*
X653640Y88225D01*
X653604Y88097D01*
X653564Y87970D01*
X653520Y87844D01*
X653473Y87720D01*
X653422Y87597D01*
X653368Y87476D01*
X653310Y87356D01*
X653248Y87238D01*
X653183Y87122D01*
X653115Y87008D01*
X653044Y86896D01*
X652969Y86786D01*
X652891Y86678D01*
X652810Y86572D01*
X652726Y86469D01*
X652639Y86369D01*
X652550Y86271D01*
X652457Y86175D01*
X652361Y86082D01*
X652263Y85993D01*
X652163Y85906D01*
X652060Y85822D01*
X651954Y85741D01*
X651846Y85663D01*
X651736Y85588D01*
X651624Y85517D01*
X651510Y85449D01*
X651394Y85384D01*
X651276Y85322D01*
X651156Y85264D01*
X651035Y85210D01*
X650912Y85159D01*
X650788Y85112D01*
X650662Y85068D01*
X650535Y85028D01*
X650407Y84992D01*
X650278Y84959D01*
X650149Y84930D01*
X650018Y84905D01*
X649887Y84884D01*
X649755Y84867D01*
X649622Y84853D01*
X649490Y84844D01*
X649357Y84838D01*
X649224Y84836D01*
X633984Y84836D02*
X633851Y84838D01*
X633718Y84844D01*
X633586Y84853D01*
X633453Y84867D01*
X633321Y84884D01*
X633190Y84905D01*
X633059Y84930D01*
X632930Y84959D01*
X632801Y84992D01*
X632673Y85028D01*
X632546Y85068D01*
X632420Y85112D01*
X632296Y85159D01*
X632173Y85210D01*
X632052Y85264D01*
X631932Y85322D01*
X631814Y85384D01*
X631698Y85449D01*
X631584Y85517D01*
X631472Y85588D01*
X631362Y85663D01*
X631254Y85741D01*
X631148Y85822D01*
X631045Y85906D01*
X630945Y85993D01*
X630847Y86082D01*
X630751Y86175D01*
X630658Y86271D01*
X630569Y86369D01*
X630482Y86469D01*
X630398Y86572D01*
X630317Y86678D01*
X630239Y86786D01*
X630164Y86896D01*
X630093Y87008D01*
X630025Y87122D01*
X629960Y87238D01*
X629898Y87356D01*
X629840Y87476D01*
X629786Y87597D01*
X629735Y87720D01*
X629688Y87844D01*
X629644Y87970D01*
X629604Y88097D01*
X629568Y88225D01*
X629535Y88354D01*
X629506Y88483D01*
X629481Y88614D01*
X629460Y88745D01*
X629443Y88877D01*
X629429Y89010D01*
X629420Y89142D01*
X629414Y89275D01*
X629412Y89408D01*
X629412Y100584D01*
X653796Y100584D02*
X653796Y89408D01*
X649224Y105156D02*
X633984Y105156D01*
D11*
X504190Y137414D02*
X504190Y154686D01*
X521970Y157226D02*
X522070Y157224D01*
X522169Y157218D01*
X522269Y157208D01*
X522367Y157195D01*
X522466Y157177D01*
X522563Y157156D01*
X522659Y157131D01*
X522755Y157102D01*
X522849Y157069D01*
X522942Y157033D01*
X523033Y156993D01*
X523123Y156949D01*
X523211Y156902D01*
X523297Y156852D01*
X523381Y156798D01*
X523463Y156741D01*
X523542Y156681D01*
X523620Y156617D01*
X523694Y156551D01*
X523766Y156482D01*
X523835Y156410D01*
X523901Y156336D01*
X523965Y156258D01*
X524025Y156179D01*
X524082Y156097D01*
X524136Y156013D01*
X524186Y155927D01*
X524233Y155839D01*
X524277Y155749D01*
X524317Y155658D01*
X524353Y155565D01*
X524386Y155471D01*
X524415Y155375D01*
X524440Y155279D01*
X524461Y155182D01*
X524479Y155083D01*
X524492Y154985D01*
X524502Y154885D01*
X524508Y154786D01*
X524510Y154686D01*
X524510Y137414D02*
X524508Y137314D01*
X524502Y137215D01*
X524492Y137115D01*
X524479Y137017D01*
X524461Y136918D01*
X524440Y136821D01*
X524415Y136725D01*
X524386Y136629D01*
X524353Y136535D01*
X524317Y136442D01*
X524277Y136351D01*
X524233Y136261D01*
X524186Y136173D01*
X524136Y136087D01*
X524082Y136003D01*
X524025Y135921D01*
X523965Y135842D01*
X523901Y135764D01*
X523835Y135690D01*
X523766Y135618D01*
X523694Y135549D01*
X523620Y135483D01*
X523542Y135419D01*
X523463Y135359D01*
X523381Y135302D01*
X523297Y135248D01*
X523211Y135198D01*
X523123Y135151D01*
X523033Y135107D01*
X522942Y135067D01*
X522849Y135031D01*
X522755Y134998D01*
X522659Y134969D01*
X522563Y134944D01*
X522466Y134923D01*
X522367Y134905D01*
X522269Y134892D01*
X522169Y134882D01*
X522070Y134876D01*
X521970Y134874D01*
X506730Y134874D02*
X506630Y134876D01*
X506531Y134882D01*
X506431Y134892D01*
X506333Y134905D01*
X506234Y134923D01*
X506137Y134944D01*
X506041Y134969D01*
X505945Y134998D01*
X505851Y135031D01*
X505758Y135067D01*
X505667Y135107D01*
X505577Y135151D01*
X505489Y135198D01*
X505403Y135248D01*
X505319Y135302D01*
X505237Y135359D01*
X505158Y135419D01*
X505080Y135483D01*
X505006Y135549D01*
X504934Y135618D01*
X504865Y135690D01*
X504799Y135764D01*
X504735Y135842D01*
X504675Y135921D01*
X504618Y136003D01*
X504564Y136087D01*
X504514Y136173D01*
X504467Y136261D01*
X504423Y136351D01*
X504383Y136442D01*
X504347Y136535D01*
X504314Y136629D01*
X504285Y136725D01*
X504260Y136821D01*
X504239Y136918D01*
X504221Y137017D01*
X504208Y137115D01*
X504198Y137215D01*
X504192Y137314D01*
X504190Y137414D01*
X504190Y154686D02*
X504192Y154786D01*
X504198Y154885D01*
X504208Y154985D01*
X504221Y155083D01*
X504239Y155182D01*
X504260Y155279D01*
X504285Y155375D01*
X504314Y155471D01*
X504347Y155565D01*
X504383Y155658D01*
X504423Y155749D01*
X504467Y155839D01*
X504514Y155927D01*
X504564Y156013D01*
X504618Y156097D01*
X504675Y156179D01*
X504735Y156258D01*
X504799Y156336D01*
X504865Y156410D01*
X504934Y156482D01*
X505006Y156551D01*
X505080Y156617D01*
X505158Y156681D01*
X505237Y156741D01*
X505319Y156798D01*
X505403Y156852D01*
X505489Y156902D01*
X505577Y156949D01*
X505667Y156993D01*
X505758Y157033D01*
X505851Y157069D01*
X505945Y157102D01*
X506041Y157131D01*
X506137Y157156D01*
X506234Y157177D01*
X506333Y157195D01*
X506431Y157208D01*
X506531Y157218D01*
X506630Y157224D01*
X506730Y157226D01*
X521970Y157226D01*
X521970Y134874D02*
X506730Y134874D01*
X524510Y137414D02*
X524510Y154686D01*
D10*
X589280Y84836D02*
X604520Y84836D01*
X584708Y100584D02*
X584710Y100717D01*
X584716Y100850D01*
X584725Y100982D01*
X584739Y101115D01*
X584756Y101247D01*
X584777Y101378D01*
X584802Y101509D01*
X584831Y101638D01*
X584864Y101767D01*
X584900Y101895D01*
X584940Y102022D01*
X584984Y102148D01*
X585031Y102272D01*
X585082Y102395D01*
X585136Y102516D01*
X585194Y102636D01*
X585256Y102754D01*
X585321Y102870D01*
X585389Y102984D01*
X585460Y103096D01*
X585535Y103206D01*
X585613Y103314D01*
X585694Y103420D01*
X585778Y103523D01*
X585865Y103623D01*
X585954Y103721D01*
X586047Y103817D01*
X586143Y103910D01*
X586241Y103999D01*
X586341Y104086D01*
X586444Y104170D01*
X586550Y104251D01*
X586658Y104329D01*
X586768Y104404D01*
X586880Y104475D01*
X586994Y104543D01*
X587110Y104608D01*
X587228Y104670D01*
X587348Y104728D01*
X587469Y104782D01*
X587592Y104833D01*
X587716Y104880D01*
X587842Y104924D01*
X587969Y104964D01*
X588097Y105000D01*
X588226Y105033D01*
X588355Y105062D01*
X588486Y105087D01*
X588617Y105108D01*
X588749Y105125D01*
X588882Y105139D01*
X589014Y105148D01*
X589147Y105154D01*
X589280Y105156D01*
X604520Y105156D02*
X604653Y105154D01*
X604786Y105148D01*
X604918Y105139D01*
X605051Y105125D01*
X605183Y105108D01*
X605314Y105087D01*
X605445Y105062D01*
X605574Y105033D01*
X605703Y105000D01*
X605831Y104964D01*
X605958Y104924D01*
X606084Y104880D01*
X606208Y104833D01*
X606331Y104782D01*
X606452Y104728D01*
X606572Y104670D01*
X606690Y104608D01*
X606806Y104543D01*
X606920Y104475D01*
X607032Y104404D01*
X607142Y104329D01*
X607250Y104251D01*
X607356Y104170D01*
X607459Y104086D01*
X607559Y103999D01*
X607657Y103910D01*
X607753Y103817D01*
X607846Y103721D01*
X607935Y103623D01*
X608022Y103523D01*
X608106Y103420D01*
X608187Y103314D01*
X608265Y103206D01*
X608340Y103096D01*
X608411Y102984D01*
X608479Y102870D01*
X608544Y102754D01*
X608606Y102636D01*
X608664Y102516D01*
X608718Y102395D01*
X608769Y102272D01*
X608816Y102148D01*
X608860Y102022D01*
X608900Y101895D01*
X608936Y101767D01*
X608969Y101638D01*
X608998Y101509D01*
X609023Y101378D01*
X609044Y101247D01*
X609061Y101115D01*
X609075Y100982D01*
X609084Y100850D01*
X609090Y100717D01*
X609092Y100584D01*
X609092Y89408D02*
X609090Y89275D01*
X609084Y89142D01*
X609075Y89010D01*
X609061Y88877D01*
X609044Y88745D01*
X609023Y88614D01*
X608998Y88483D01*
X608969Y88354D01*
X608936Y88225D01*
X608900Y88097D01*
X608860Y87970D01*
X608816Y87844D01*
X608769Y87720D01*
X608718Y87597D01*
X608664Y87476D01*
X608606Y87356D01*
X608544Y87238D01*
X608479Y87122D01*
X608411Y87008D01*
X608340Y86896D01*
X608265Y86786D01*
X608187Y86678D01*
X608106Y86572D01*
X608022Y86469D01*
X607935Y86369D01*
X607846Y86271D01*
X607753Y86175D01*
X607657Y86082D01*
X607559Y85993D01*
X607459Y85906D01*
X607356Y85822D01*
X607250Y85741D01*
X607142Y85663D01*
X607032Y85588D01*
X606920Y85517D01*
X606806Y85449D01*
X606690Y85384D01*
X606572Y85322D01*
X606452Y85264D01*
X606331Y85210D01*
X606208Y85159D01*
X606084Y85112D01*
X605958Y85068D01*
X605831Y85028D01*
X605703Y84992D01*
X605574Y84959D01*
X605445Y84930D01*
X605314Y84905D01*
X605183Y84884D01*
X605051Y84867D01*
X604918Y84853D01*
X604786Y84844D01*
X604653Y84838D01*
X604520Y84836D01*
X589280Y84836D02*
X589147Y84838D01*
X589014Y84844D01*
X588882Y84853D01*
X588749Y84867D01*
X588617Y84884D01*
X588486Y84905D01*
X588355Y84930D01*
X588226Y84959D01*
X588097Y84992D01*
X587969Y85028D01*
X587842Y85068D01*
X587716Y85112D01*
X587592Y85159D01*
X587469Y85210D01*
X587348Y85264D01*
X587228Y85322D01*
X587110Y85384D01*
X586994Y85449D01*
X586880Y85517D01*
X586768Y85588D01*
X586658Y85663D01*
X586550Y85741D01*
X586444Y85822D01*
X586341Y85906D01*
X586241Y85993D01*
X586143Y86082D01*
X586047Y86175D01*
X585954Y86271D01*
X585865Y86369D01*
X585778Y86469D01*
X585694Y86572D01*
X585613Y86678D01*
X585535Y86786D01*
X585460Y86896D01*
X585389Y87008D01*
X585321Y87122D01*
X585256Y87238D01*
X585194Y87356D01*
X585136Y87476D01*
X585082Y87597D01*
X585031Y87720D01*
X584984Y87844D01*
X584940Y87970D01*
X584900Y88097D01*
X584864Y88225D01*
X584831Y88354D01*
X584802Y88483D01*
X584777Y88614D01*
X584756Y88745D01*
X584739Y88877D01*
X584725Y89010D01*
X584716Y89142D01*
X584710Y89275D01*
X584708Y89408D01*
X584708Y100584D01*
X609092Y100584D02*
X609092Y89408D01*
X604520Y105156D02*
X589280Y105156D01*
M02*
