M48
;GenerationSoftware,Autodesk,EAGLE,9.6.2*%
;CreationDate,2021-05-28T19:17:56Z*%
FMAT,2
ICI,OFF
METRIC,TZ,000.000
T4C0.200
T3C0.305
T2C0.400
T1C0.650
%
G90
M71
T1
X69060Y11994
X69060Y17774
T2
X72710Y10566
X72710Y19202
X68530Y19202
X68530Y10566
T3
X37592Y28194
X37592Y14224
X46482Y25908
X46482Y28194
X37592Y25908
X40132Y28194
X43688Y28194
X43688Y25908
X40132Y25908
X37592Y23876
X40132Y23876
X43688Y23876
X46482Y23622
X48768Y22098
X46482Y20828
X46482Y18542
X46482Y16256
X46482Y14224
X43688Y14224
X40132Y14224
X37592Y16256
X37592Y18542
X37592Y20828
X40132Y20828
X43688Y20828
X43688Y18542
X43688Y16256
X40132Y16256
X40132Y18542
X51562Y13208
X61214Y10160
X65786Y10160
X66929Y11684
X66929Y18034
X73152Y21590
X71882Y21590
X70104Y21590
X68326Y21590
X66294Y21590
X65278Y22606
X65278Y24130
X65278Y29972
X65278Y31242
X66777Y32410
X69825Y32410
X71603Y32410
X73127Y32410
X68301Y32410
X65278Y28448
X63754Y28448
X61976Y28448
X60452Y28448
X58928Y28448
X57404Y28448
X55626Y28448
X53848Y28448
X52070Y28448
X50292Y28448
X65278Y25654
X63754Y25654
X61976Y25654
X60452Y25654
X58928Y25654
X57404Y25654
X55880Y25654
X54356Y25654
X50546Y25654
X62484Y31496
X58928Y22606
X58928Y19050
X61976Y19050
X65405Y19050
X55626Y19050
X55626Y22606
X52832Y22606
X52832Y20320
X58928Y31496
X58928Y16510
X62001Y17018
X64897Y13208
X58928Y12954
X55880Y13208
X56388Y8382
X61976Y8382
X66802Y8382
X70612Y8382
X73152Y8357
X61976Y22606
X46482Y31242
X43688Y31242
X40132Y30988
X37592Y31242
X37338Y10668
X40132Y10668
X43332Y10668
X25908Y11430
X28956Y15748
X26086Y19507
X24892Y22098
X20320Y23876
X21869Y13132
X15951Y17043
X12116Y15189
X10897Y21361
X11684Y26670
X11938Y30734
X18288Y30988
X46380Y11684
X34290Y13462
X54839Y15113
X59360Y11303
X64186Y11811
X10160Y24257
X10998Y18796
X20244Y14961
X16510Y15240
X13030Y13183
X12014Y14402
X13284Y14249
X11709Y13716
X25425Y20701
X25400Y19482
X12192Y12700
X53924Y14351
X50800Y20193
X13945Y13183
X49657Y13208
X49276Y17272
X9830Y23546
X63627Y11227
X10643Y15240
X24130Y22352
X22098Y22327
X64770Y11176
X21082Y23876
X21082Y12954
X52578Y14986
X60198Y11176
X25984Y15570
X62916Y15350
X63500Y16993
X16764Y16535
X20549Y15741
X11328Y22276
X19812Y15748
X17272Y16002
X10871Y22828
X10304Y29320
X18542Y29210
X53111Y14122
X49886Y20066
X32004Y31242
X33528Y13716
X65761Y15443
T4
X54288Y8625
X50088Y8625
X52188Y9925
X50082Y32015
X54282Y32015
X52182Y30715
M30