G04 EAGLE Gerber RS-274X export*
G75*
%MOMM*%
%FSLAX34Y34*%
%LPD*%
%INSoldermask Top*%
%IPPOS*%
%AMOC8*
5,1,8,0,0,1.08239X$1,22.5*%
G01*
%ADD10C,0.225369*%
%ADD11R,4.200000X1.700000*%
%ADD12C,0.225400*%
%ADD13C,0.428259*%
%ADD14C,0.227100*%
%ADD15C,0.223409*%
%ADD16C,0.231750*%
%ADD17C,0.229969*%
%ADD18C,0.230578*%
%ADD19C,0.777000*%
%ADD20C,0.229859*%
%ADD21C,0.225938*%
%ADD22C,0.224709*%
%ADD23C,0.228959*%
%ADD24C,0.581000*%
%ADD25R,0.620000X0.840000*%
%ADD26R,0.620000X0.560000*%
%ADD27R,0.640000X0.840000*%
%ADD28C,0.222250*%
%ADD29C,1.127000*%

G36*
X525751Y302679D02*
X525751Y302679D01*
X525761Y302683D01*
X525787Y302684D01*
X529621Y303518D01*
X529629Y303523D01*
X529655Y303528D01*
X533331Y304900D01*
X533339Y304905D01*
X533363Y304914D01*
X536807Y306795D01*
X536814Y306802D01*
X536837Y306814D01*
X539978Y309165D01*
X539984Y309173D01*
X540005Y309189D01*
X542779Y311963D01*
X542784Y311972D01*
X542803Y311990D01*
X545154Y315131D01*
X545157Y315140D01*
X545173Y315161D01*
X547054Y318605D01*
X547056Y318614D01*
X547068Y318637D01*
X548440Y322313D01*
X548440Y322323D01*
X548450Y322347D01*
X549284Y326181D01*
X549283Y326191D01*
X549289Y326217D01*
X549569Y330130D01*
X549563Y330156D01*
X549567Y330181D01*
X549549Y330223D01*
X549539Y330267D01*
X549521Y330285D01*
X549510Y330309D01*
X549472Y330334D01*
X549441Y330366D01*
X549415Y330372D01*
X549394Y330386D01*
X549320Y330397D01*
X539320Y330397D01*
X539313Y330395D01*
X539306Y330397D01*
X539247Y330376D01*
X539186Y330358D01*
X539181Y330353D01*
X539174Y330350D01*
X539136Y330300D01*
X539094Y330253D01*
X539093Y330246D01*
X539088Y330240D01*
X539072Y330168D01*
X538858Y327450D01*
X538226Y324817D01*
X537190Y322317D01*
X535776Y320009D01*
X534018Y317950D01*
X531959Y316192D01*
X529651Y314778D01*
X527151Y313742D01*
X524518Y313110D01*
X521820Y312898D01*
X519122Y313110D01*
X516489Y313742D01*
X513989Y314778D01*
X511681Y316192D01*
X509622Y317950D01*
X507864Y320009D01*
X506450Y322317D01*
X505414Y324817D01*
X504782Y327450D01*
X504568Y330168D01*
X504566Y330174D01*
X504567Y330181D01*
X504541Y330239D01*
X504519Y330298D01*
X504513Y330303D01*
X504510Y330309D01*
X504457Y330344D01*
X504407Y330382D01*
X504400Y330382D01*
X504394Y330386D01*
X504320Y330397D01*
X494320Y330397D01*
X494295Y330390D01*
X494269Y330392D01*
X494229Y330371D01*
X494186Y330358D01*
X494169Y330338D01*
X494146Y330326D01*
X494124Y330287D01*
X494094Y330253D01*
X494090Y330227D01*
X494077Y330204D01*
X494071Y330130D01*
X494351Y326217D01*
X494355Y326207D01*
X494356Y326181D01*
X495190Y322347D01*
X495195Y322339D01*
X495200Y322313D01*
X496572Y318637D01*
X496577Y318629D01*
X496586Y318605D01*
X498467Y315161D01*
X498474Y315154D01*
X498486Y315131D01*
X500837Y311990D01*
X500845Y311984D01*
X500861Y311963D01*
X503635Y309189D01*
X503644Y309184D01*
X503662Y309165D01*
X506803Y306814D01*
X506812Y306811D01*
X506833Y306795D01*
X510277Y304914D01*
X510286Y304912D01*
X510309Y304900D01*
X513985Y303528D01*
X513995Y303528D01*
X514019Y303518D01*
X517853Y302684D01*
X517863Y302685D01*
X517889Y302679D01*
X521802Y302399D01*
X521812Y302401D01*
X521838Y302399D01*
X525751Y302679D01*
G37*
G36*
X504387Y76005D02*
X504387Y76005D01*
X504394Y76003D01*
X504453Y76024D01*
X504514Y76042D01*
X504519Y76047D01*
X504526Y76050D01*
X504565Y76100D01*
X504606Y76147D01*
X504607Y76154D01*
X504612Y76160D01*
X504628Y76232D01*
X504842Y78950D01*
X505474Y81583D01*
X506510Y84083D01*
X507924Y86391D01*
X509682Y88450D01*
X511741Y90208D01*
X514049Y91622D01*
X516549Y92658D01*
X519182Y93290D01*
X521880Y93502D01*
X524578Y93290D01*
X527211Y92658D01*
X529711Y91622D01*
X532019Y90208D01*
X534078Y88450D01*
X535836Y86391D01*
X537250Y84083D01*
X538286Y81583D01*
X538918Y78950D01*
X539132Y76232D01*
X539134Y76226D01*
X539133Y76219D01*
X539159Y76161D01*
X539181Y76102D01*
X539187Y76097D01*
X539190Y76091D01*
X539243Y76056D01*
X539293Y76018D01*
X539301Y76018D01*
X539307Y76014D01*
X539380Y76003D01*
X549380Y76003D01*
X549405Y76010D01*
X549431Y76008D01*
X549471Y76029D01*
X549514Y76042D01*
X549531Y76062D01*
X549554Y76074D01*
X549576Y76113D01*
X549606Y76147D01*
X549610Y76173D01*
X549623Y76196D01*
X549629Y76270D01*
X549349Y80183D01*
X549345Y80193D01*
X549344Y80219D01*
X548510Y84053D01*
X548505Y84061D01*
X548500Y84087D01*
X547128Y87763D01*
X547123Y87771D01*
X547114Y87795D01*
X545233Y91239D01*
X545226Y91246D01*
X545214Y91269D01*
X542863Y94410D01*
X542855Y94416D01*
X542839Y94437D01*
X540065Y97211D01*
X540056Y97216D01*
X540038Y97235D01*
X536897Y99586D01*
X536888Y99589D01*
X536867Y99605D01*
X533423Y101486D01*
X533414Y101488D01*
X533391Y101500D01*
X529715Y102872D01*
X529705Y102872D01*
X529681Y102882D01*
X525847Y103716D01*
X525837Y103715D01*
X525811Y103721D01*
X521898Y104001D01*
X521888Y103999D01*
X521862Y104001D01*
X517949Y103721D01*
X517939Y103717D01*
X517913Y103716D01*
X514079Y102882D01*
X514071Y102877D01*
X514045Y102872D01*
X510369Y101500D01*
X510361Y101495D01*
X510337Y101486D01*
X506893Y99605D01*
X506886Y99598D01*
X506863Y99586D01*
X503722Y97235D01*
X503716Y97227D01*
X503695Y97211D01*
X500921Y94437D01*
X500916Y94428D01*
X500897Y94410D01*
X498546Y91269D01*
X498543Y91260D01*
X498527Y91239D01*
X496646Y87795D01*
X496644Y87786D01*
X496632Y87763D01*
X495260Y84087D01*
X495260Y84077D01*
X495250Y84053D01*
X494416Y80219D01*
X494417Y80209D01*
X494411Y80183D01*
X494131Y76270D01*
X494137Y76244D01*
X494133Y76219D01*
X494151Y76177D01*
X494161Y76133D01*
X494179Y76115D01*
X494190Y76091D01*
X494228Y76066D01*
X494259Y76034D01*
X494285Y76028D01*
X494307Y76014D01*
X494380Y76003D01*
X504380Y76003D01*
X504387Y76005D01*
G37*
G36*
X281113Y151662D02*
X281113Y151662D01*
X281140Y151664D01*
X281175Y151690D01*
X281215Y151708D01*
X281230Y151731D01*
X281252Y151747D01*
X281268Y151788D01*
X281292Y151825D01*
X281299Y151868D01*
X281302Y151877D01*
X281301Y151884D01*
X281303Y151898D01*
X281303Y175898D01*
X281298Y175914D01*
X281301Y175931D01*
X281279Y175981D01*
X281264Y176032D01*
X281251Y176043D01*
X281244Y176059D01*
X281199Y176089D01*
X281159Y176124D01*
X281142Y176127D01*
X281128Y176136D01*
X281054Y176147D01*
X257054Y176147D01*
X257012Y176135D01*
X256968Y176132D01*
X256946Y176116D01*
X256920Y176108D01*
X256891Y176075D01*
X256856Y176049D01*
X256846Y176023D01*
X256828Y176003D01*
X256821Y175959D01*
X256806Y175919D01*
X256811Y175892D01*
X256807Y175865D01*
X256825Y175824D01*
X256834Y175782D01*
X256860Y175746D01*
X256864Y175737D01*
X256869Y175733D01*
X256878Y175722D01*
X280878Y151722D01*
X280916Y151701D01*
X280949Y151672D01*
X280976Y151668D01*
X281000Y151655D01*
X281044Y151658D01*
X281087Y151651D01*
X281113Y151662D01*
G37*
G36*
X691353Y185998D02*
X691353Y185998D01*
X691356Y185995D01*
X692623Y186200D01*
X692629Y186206D01*
X692634Y186203D01*
X693823Y186685D01*
X693827Y186692D01*
X693833Y186690D01*
X694886Y187424D01*
X694888Y187432D01*
X694894Y187431D01*
X695757Y188381D01*
X695758Y188390D01*
X695763Y188390D01*
X696393Y189509D01*
X696392Y189517D01*
X696398Y189519D01*
X696763Y190749D01*
X696760Y190756D01*
X696764Y190759D01*
X696763Y190759D01*
X696765Y190760D01*
X696847Y192041D01*
X696845Y192045D01*
X696847Y192047D01*
X696765Y193328D01*
X696759Y193334D01*
X696763Y193339D01*
X696398Y194569D01*
X696391Y194574D01*
X696393Y194579D01*
X695763Y195698D01*
X695756Y195701D01*
X695757Y195707D01*
X694894Y196657D01*
X694886Y196658D01*
X694886Y196664D01*
X693833Y197398D01*
X693825Y197398D01*
X693823Y197403D01*
X692634Y197885D01*
X692626Y197883D01*
X692623Y197888D01*
X691356Y198093D01*
X691351Y198090D01*
X691348Y198093D01*
X679348Y198093D01*
X679344Y198090D01*
X679341Y198093D01*
X678219Y197938D01*
X678214Y197933D01*
X678210Y197936D01*
X677139Y197565D01*
X677135Y197559D01*
X677130Y197561D01*
X676153Y196988D01*
X676150Y196982D01*
X676145Y196983D01*
X675298Y196230D01*
X675296Y196223D01*
X675291Y196223D01*
X674607Y195320D01*
X674607Y195313D01*
X674602Y195312D01*
X674107Y194293D01*
X674109Y194286D01*
X674107Y194285D01*
X674104Y194284D01*
X673817Y193187D01*
X673820Y193181D01*
X673816Y193178D01*
X673749Y192047D01*
X673751Y192043D01*
X673749Y192041D01*
X673816Y190910D01*
X673821Y190905D01*
X673817Y190901D01*
X674104Y189804D01*
X674110Y189800D01*
X674107Y189795D01*
X674602Y188776D01*
X674608Y188773D01*
X674607Y188768D01*
X675291Y187865D01*
X675298Y187863D01*
X675298Y187858D01*
X676145Y187105D01*
X676152Y187105D01*
X676153Y187100D01*
X677130Y186527D01*
X677137Y186528D01*
X677139Y186523D01*
X678210Y186152D01*
X678216Y186155D01*
X678219Y186150D01*
X679341Y185995D01*
X679346Y185998D01*
X679348Y185995D01*
X691348Y185995D01*
X691353Y185998D01*
G37*
G36*
X691353Y99598D02*
X691353Y99598D01*
X691356Y99595D01*
X692623Y99800D01*
X692629Y99806D01*
X692634Y99803D01*
X693823Y100285D01*
X693827Y100292D01*
X693833Y100290D01*
X694886Y101024D01*
X694888Y101032D01*
X694894Y101031D01*
X695757Y101981D01*
X695758Y101990D01*
X695763Y101990D01*
X696393Y103109D01*
X696392Y103117D01*
X696398Y103119D01*
X696763Y104349D01*
X696760Y104356D01*
X696764Y104359D01*
X696763Y104359D01*
X696765Y104360D01*
X696847Y105641D01*
X696845Y105645D01*
X696847Y105647D01*
X696765Y106928D01*
X696759Y106934D01*
X696763Y106939D01*
X696398Y108169D01*
X696391Y108174D01*
X696393Y108179D01*
X695763Y109298D01*
X695756Y109301D01*
X695757Y109307D01*
X694894Y110257D01*
X694886Y110258D01*
X694886Y110264D01*
X693833Y110998D01*
X693825Y110998D01*
X693823Y111003D01*
X692634Y111485D01*
X692626Y111483D01*
X692623Y111488D01*
X691356Y111693D01*
X691351Y111690D01*
X691348Y111693D01*
X679348Y111693D01*
X679344Y111690D01*
X679341Y111693D01*
X678219Y111538D01*
X678214Y111533D01*
X678210Y111536D01*
X677139Y111165D01*
X677135Y111159D01*
X677130Y111161D01*
X676153Y110588D01*
X676150Y110582D01*
X676145Y110583D01*
X675298Y109830D01*
X675296Y109823D01*
X675291Y109823D01*
X674607Y108920D01*
X674607Y108913D01*
X674602Y108912D01*
X674107Y107893D01*
X674109Y107886D01*
X674107Y107885D01*
X674104Y107884D01*
X673817Y106787D01*
X673820Y106781D01*
X673816Y106778D01*
X673749Y105647D01*
X673751Y105643D01*
X673749Y105641D01*
X673816Y104510D01*
X673821Y104505D01*
X673817Y104501D01*
X674104Y103404D01*
X674110Y103400D01*
X674107Y103395D01*
X674602Y102376D01*
X674608Y102373D01*
X674607Y102368D01*
X675291Y101465D01*
X675298Y101463D01*
X675298Y101458D01*
X676145Y100705D01*
X676152Y100705D01*
X676153Y100700D01*
X677130Y100127D01*
X677137Y100128D01*
X677139Y100123D01*
X678210Y99752D01*
X678216Y99755D01*
X678219Y99750D01*
X679341Y99595D01*
X679346Y99598D01*
X679348Y99595D01*
X691348Y99595D01*
X691353Y99598D01*
G37*
G36*
X730152Y185997D02*
X730152Y185997D01*
X730154Y185995D01*
X731483Y186150D01*
X731489Y186156D01*
X731493Y186153D01*
X732754Y186600D01*
X732759Y186607D01*
X732764Y186605D01*
X733894Y187322D01*
X733897Y187329D01*
X733903Y187328D01*
X734845Y188279D01*
X734846Y188287D01*
X734852Y188287D01*
X735559Y189423D01*
X735559Y189428D01*
X735560Y189429D01*
X735559Y189431D01*
X735564Y189433D01*
X736000Y190698D01*
X735998Y190706D01*
X736003Y190709D01*
X736147Y192039D01*
X736143Y192045D01*
X736147Y192049D01*
X736037Y193215D01*
X736032Y193220D01*
X736035Y193224D01*
X735700Y194347D01*
X735694Y194351D01*
X735696Y194355D01*
X735148Y195391D01*
X735142Y195394D01*
X735143Y195399D01*
X734404Y196307D01*
X734397Y196309D01*
X734397Y196314D01*
X733495Y197061D01*
X733488Y197061D01*
X733487Y197067D01*
X732456Y197623D01*
X732449Y197622D01*
X732447Y197627D01*
X731328Y197971D01*
X731321Y197969D01*
X731318Y197973D01*
X730153Y198093D01*
X730150Y198091D01*
X730148Y198093D01*
X724148Y198093D01*
X724145Y198091D01*
X724143Y198093D01*
X722967Y197982D01*
X722962Y197977D01*
X722958Y197980D01*
X721826Y197642D01*
X721822Y197636D01*
X721817Y197638D01*
X720773Y197086D01*
X720770Y197079D01*
X720765Y197081D01*
X719849Y196335D01*
X719848Y196328D01*
X719842Y196328D01*
X719089Y195419D01*
X719089Y195411D01*
X719084Y195411D01*
X718523Y194371D01*
X718524Y194364D01*
X718519Y194362D01*
X718172Y193233D01*
X718174Y193227D01*
X718170Y193224D01*
X718049Y192049D01*
X718053Y192042D01*
X718049Y192038D01*
X718206Y190698D01*
X718211Y190692D01*
X718208Y190687D01*
X718659Y189416D01*
X718666Y189411D01*
X718664Y189406D01*
X719386Y188267D01*
X719394Y188264D01*
X719393Y188258D01*
X720351Y187308D01*
X720359Y187307D01*
X720360Y187301D01*
X721505Y186588D01*
X721514Y186589D01*
X721515Y186583D01*
X722791Y186143D01*
X722798Y186145D01*
X722800Y186143D01*
X722801Y186141D01*
X724143Y185995D01*
X724146Y185997D01*
X724148Y185995D01*
X730148Y185995D01*
X730152Y185997D01*
G37*
G36*
X730152Y99597D02*
X730152Y99597D01*
X730154Y99595D01*
X731483Y99750D01*
X731489Y99756D01*
X731493Y99753D01*
X732754Y100200D01*
X732759Y100207D01*
X732764Y100205D01*
X733894Y100922D01*
X733897Y100929D01*
X733903Y100928D01*
X734845Y101879D01*
X734846Y101887D01*
X734852Y101887D01*
X735559Y103023D01*
X735559Y103028D01*
X735560Y103029D01*
X735559Y103031D01*
X735564Y103033D01*
X736000Y104298D01*
X735998Y104306D01*
X736003Y104309D01*
X736147Y105639D01*
X736143Y105645D01*
X736147Y105649D01*
X736037Y106815D01*
X736032Y106820D01*
X736035Y106824D01*
X735700Y107947D01*
X735694Y107951D01*
X735696Y107955D01*
X735148Y108991D01*
X735142Y108994D01*
X735143Y108999D01*
X734404Y109907D01*
X734397Y109909D01*
X734397Y109914D01*
X733495Y110661D01*
X733488Y110661D01*
X733487Y110667D01*
X732456Y111223D01*
X732449Y111222D01*
X732447Y111227D01*
X731328Y111571D01*
X731321Y111569D01*
X731318Y111573D01*
X730153Y111693D01*
X730150Y111691D01*
X730148Y111693D01*
X724148Y111693D01*
X724145Y111691D01*
X724143Y111693D01*
X722967Y111582D01*
X722962Y111577D01*
X722958Y111580D01*
X721826Y111242D01*
X721822Y111236D01*
X721817Y111238D01*
X720773Y110686D01*
X720770Y110679D01*
X720765Y110681D01*
X719849Y109935D01*
X719848Y109928D01*
X719842Y109928D01*
X719089Y109019D01*
X719089Y109011D01*
X719084Y109011D01*
X718523Y107971D01*
X718524Y107964D01*
X718519Y107962D01*
X718172Y106833D01*
X718174Y106827D01*
X718170Y106824D01*
X718049Y105649D01*
X718053Y105642D01*
X718049Y105638D01*
X718206Y104298D01*
X718211Y104292D01*
X718208Y104287D01*
X718659Y103016D01*
X718666Y103011D01*
X718664Y103006D01*
X719386Y101867D01*
X719394Y101864D01*
X719393Y101858D01*
X720351Y100908D01*
X720359Y100907D01*
X720360Y100901D01*
X721505Y100188D01*
X721514Y100189D01*
X721515Y100183D01*
X722791Y99743D01*
X722798Y99745D01*
X722800Y99743D01*
X722801Y99741D01*
X724143Y99595D01*
X724146Y99597D01*
X724148Y99595D01*
X730148Y99595D01*
X730152Y99597D01*
G37*
D10*
X307546Y160242D02*
X312562Y160242D01*
X312562Y155226D01*
X307546Y155226D01*
X307546Y160242D01*
X307546Y157367D02*
X312562Y157367D01*
X312562Y159508D02*
X307546Y159508D01*
X302562Y160242D02*
X297546Y160242D01*
X302562Y160242D02*
X302562Y155226D01*
X297546Y155226D01*
X297546Y160242D01*
X297546Y157367D02*
X302562Y157367D01*
X302562Y159508D02*
X297546Y159508D01*
D11*
X260254Y130598D03*
D12*
X224726Y189946D02*
X224726Y199962D01*
X224726Y189946D02*
X215710Y189946D01*
X215710Y199962D01*
X224726Y199962D01*
X224726Y192087D02*
X215710Y192087D01*
X215710Y194228D02*
X224726Y194228D01*
X224726Y196369D02*
X215710Y196369D01*
X215710Y198510D02*
X224726Y198510D01*
X224726Y206946D02*
X224726Y216962D01*
X224726Y206946D02*
X215710Y206946D01*
X215710Y216962D01*
X224726Y216962D01*
X224726Y209087D02*
X215710Y209087D01*
X215710Y211228D02*
X224726Y211228D01*
X224726Y213369D02*
X215710Y213369D01*
X215710Y215510D02*
X224726Y215510D01*
X244538Y200216D02*
X244538Y190200D01*
X235522Y190200D01*
X235522Y200216D01*
X244538Y200216D01*
X244538Y192341D02*
X235522Y192341D01*
X235522Y194482D02*
X244538Y194482D01*
X244538Y196623D02*
X235522Y196623D01*
X235522Y198764D02*
X244538Y198764D01*
X244538Y207200D02*
X244538Y217216D01*
X244538Y207200D02*
X235522Y207200D01*
X235522Y217216D01*
X244538Y217216D01*
X244538Y209341D02*
X235522Y209341D01*
X235522Y211482D02*
X244538Y211482D01*
X244538Y213623D02*
X235522Y213623D01*
X235522Y215764D02*
X244538Y215764D01*
D13*
X646626Y92648D02*
X646626Y85660D01*
X646626Y92648D02*
X653614Y92648D01*
X653614Y85660D01*
X646626Y85660D01*
X646626Y89729D02*
X653614Y89729D01*
X629086Y92648D02*
X629086Y85660D01*
X629086Y92648D02*
X636074Y92648D01*
X636074Y85660D01*
X629086Y85660D01*
X629086Y89729D02*
X636074Y89729D01*
D14*
X297220Y127160D02*
X291920Y127160D01*
X291920Y134460D01*
X297220Y134460D01*
X297220Y127160D01*
X297220Y129317D02*
X291920Y129317D01*
X291920Y131474D02*
X297220Y131474D01*
X297220Y133631D02*
X291920Y133631D01*
X314920Y127160D02*
X320220Y127160D01*
X314920Y127160D02*
X314920Y134460D01*
X320220Y134460D01*
X320220Y127160D01*
X320220Y129317D02*
X314920Y129317D01*
X314920Y131474D02*
X320220Y131474D01*
X320220Y133631D02*
X314920Y133631D01*
D10*
X312308Y149574D02*
X307292Y149574D01*
X312308Y149574D02*
X312308Y144558D01*
X307292Y144558D01*
X307292Y149574D01*
X307292Y146699D02*
X312308Y146699D01*
X312308Y148840D02*
X307292Y148840D01*
X302308Y149574D02*
X297292Y149574D01*
X302308Y149574D02*
X302308Y144558D01*
X297292Y144558D01*
X297292Y149574D01*
X297292Y146699D02*
X302308Y146699D01*
X302308Y148840D02*
X297292Y148840D01*
X635112Y99092D02*
X640128Y99092D01*
X635112Y99092D02*
X635112Y104108D01*
X640128Y104108D01*
X640128Y99092D01*
X640128Y101233D02*
X635112Y101233D01*
X635112Y103374D02*
X640128Y103374D01*
X645112Y99092D02*
X650128Y99092D01*
X645112Y99092D02*
X645112Y104108D01*
X650128Y104108D01*
X650128Y99092D01*
X650128Y101233D02*
X645112Y101233D01*
X645112Y103374D02*
X650128Y103374D01*
X166926Y312706D02*
X161910Y312706D01*
X161910Y317722D01*
X166926Y317722D01*
X166926Y312706D01*
X166926Y314847D02*
X161910Y314847D01*
X161910Y316988D02*
X166926Y316988D01*
X171910Y312706D02*
X176926Y312706D01*
X171910Y312706D02*
X171910Y317722D01*
X176926Y317722D01*
X176926Y312706D01*
X176926Y314847D02*
X171910Y314847D01*
X171910Y316988D02*
X176926Y316988D01*
X176926Y308324D02*
X171910Y308324D01*
X176926Y308324D02*
X176926Y303308D01*
X171910Y303308D01*
X171910Y308324D01*
X171910Y305449D02*
X176926Y305449D01*
X176926Y307590D02*
X171910Y307590D01*
X166926Y308324D02*
X161910Y308324D01*
X166926Y308324D02*
X166926Y303308D01*
X161910Y303308D01*
X161910Y308324D01*
X161910Y305449D02*
X166926Y305449D01*
X166926Y307590D02*
X161910Y307590D01*
D13*
X603446Y92648D02*
X603446Y85660D01*
X603446Y92648D02*
X610434Y92648D01*
X610434Y85660D01*
X603446Y85660D01*
X603446Y89729D02*
X610434Y89729D01*
X585906Y92648D02*
X585906Y85660D01*
X585906Y92648D02*
X592894Y92648D01*
X592894Y85660D01*
X585906Y85660D01*
X585906Y89729D02*
X592894Y89729D01*
D10*
X594408Y99346D02*
X589392Y99346D01*
X589392Y104362D01*
X594408Y104362D01*
X594408Y99346D01*
X594408Y101487D02*
X589392Y101487D01*
X589392Y103628D02*
X594408Y103628D01*
X599392Y99346D02*
X604408Y99346D01*
X599392Y99346D02*
X599392Y104362D01*
X604408Y104362D01*
X604408Y99346D01*
X604408Y101487D02*
X599392Y101487D01*
X599392Y103628D02*
X604408Y103628D01*
D15*
X133373Y290950D02*
X133373Y295486D01*
X144409Y295486D01*
X144409Y290950D01*
X133373Y290950D01*
X133373Y293072D02*
X144409Y293072D01*
X144409Y295194D02*
X133373Y295194D01*
X133373Y285986D02*
X133373Y281450D01*
X133373Y285986D02*
X144409Y285986D01*
X144409Y281450D01*
X133373Y281450D01*
X133373Y283572D02*
X144409Y283572D01*
X144409Y285694D02*
X133373Y285694D01*
X133373Y276486D02*
X133373Y271950D01*
X133373Y276486D02*
X144409Y276486D01*
X144409Y271950D01*
X133373Y271950D01*
X133373Y274072D02*
X144409Y274072D01*
X144409Y276194D02*
X133373Y276194D01*
X159375Y276486D02*
X159375Y271950D01*
X159375Y276486D02*
X170411Y276486D01*
X170411Y271950D01*
X159375Y271950D01*
X159375Y274072D02*
X170411Y274072D01*
X170411Y276194D02*
X159375Y276194D01*
X159375Y290950D02*
X159375Y295486D01*
X170411Y295486D01*
X170411Y290950D01*
X159375Y290950D01*
X159375Y293072D02*
X170411Y293072D01*
X170411Y295194D02*
X159375Y295194D01*
D10*
X141366Y308324D02*
X136350Y308324D01*
X141366Y308324D02*
X141366Y303308D01*
X136350Y303308D01*
X136350Y308324D01*
X136350Y305449D02*
X141366Y305449D01*
X141366Y307590D02*
X136350Y307590D01*
X131366Y308324D02*
X126350Y308324D01*
X131366Y308324D02*
X131366Y303308D01*
X126350Y303308D01*
X126350Y308324D01*
X126350Y305449D02*
X131366Y305449D01*
X131366Y307590D02*
X126350Y307590D01*
X624538Y164052D02*
X629554Y164052D01*
X629554Y159036D01*
X624538Y159036D01*
X624538Y164052D01*
X624538Y161177D02*
X629554Y161177D01*
X629554Y163318D02*
X624538Y163318D01*
X619554Y164052D02*
X614538Y164052D01*
X619554Y164052D02*
X619554Y159036D01*
X614538Y159036D01*
X614538Y164052D01*
X614538Y161177D02*
X619554Y161177D01*
X619554Y163318D02*
X614538Y163318D01*
X625046Y147542D02*
X630062Y147542D01*
X630062Y142526D01*
X625046Y142526D01*
X625046Y147542D01*
X625046Y144667D02*
X630062Y144667D01*
X630062Y146808D02*
X625046Y146808D01*
X620062Y147542D02*
X615046Y147542D01*
X620062Y147542D02*
X620062Y142526D01*
X615046Y142526D01*
X615046Y147542D01*
X615046Y144667D02*
X620062Y144667D01*
X620062Y146808D02*
X615046Y146808D01*
X496360Y217492D02*
X496360Y222508D01*
X501376Y222508D01*
X501376Y217492D01*
X496360Y217492D01*
X496360Y219633D02*
X501376Y219633D01*
X501376Y221774D02*
X496360Y221774D01*
X496360Y212508D02*
X496360Y207492D01*
X496360Y212508D02*
X501376Y212508D01*
X501376Y207492D01*
X496360Y207492D01*
X496360Y209633D02*
X501376Y209633D01*
X501376Y211774D02*
X496360Y211774D01*
D16*
X487576Y138360D02*
X470624Y138360D01*
X470624Y145312D01*
X487576Y145312D01*
X487576Y138360D01*
X487576Y140562D02*
X470624Y140562D01*
X470624Y142764D02*
X487576Y142764D01*
X487576Y144966D02*
X470624Y144966D01*
X470624Y149360D02*
X487576Y149360D01*
X470624Y149360D02*
X470624Y156312D01*
X487576Y156312D01*
X487576Y149360D01*
X487576Y151562D02*
X470624Y151562D01*
X470624Y153764D02*
X487576Y153764D01*
X487576Y155966D02*
X470624Y155966D01*
X470624Y160360D02*
X487576Y160360D01*
X470624Y160360D02*
X470624Y167312D01*
X487576Y167312D01*
X487576Y160360D01*
X487576Y162562D02*
X470624Y162562D01*
X470624Y164764D02*
X487576Y164764D01*
X487576Y166966D02*
X470624Y166966D01*
X470624Y171360D02*
X487576Y171360D01*
X470624Y171360D02*
X470624Y178312D01*
X487576Y178312D01*
X487576Y171360D01*
X487576Y173562D02*
X470624Y173562D01*
X470624Y175764D02*
X487576Y175764D01*
X487576Y177966D02*
X470624Y177966D01*
X470624Y182360D02*
X487576Y182360D01*
X470624Y182360D02*
X470624Y189312D01*
X487576Y189312D01*
X487576Y182360D01*
X487576Y184562D02*
X470624Y184562D01*
X470624Y186764D02*
X487576Y186764D01*
X487576Y188966D02*
X470624Y188966D01*
X470624Y193360D02*
X487576Y193360D01*
X470624Y193360D02*
X470624Y200312D01*
X487576Y200312D01*
X487576Y193360D01*
X487576Y195562D02*
X470624Y195562D01*
X470624Y197764D02*
X487576Y197764D01*
X487576Y199966D02*
X470624Y199966D01*
X470624Y204360D02*
X487576Y204360D01*
X470624Y204360D02*
X470624Y211312D01*
X487576Y211312D01*
X487576Y204360D01*
X487576Y206562D02*
X470624Y206562D01*
X470624Y208764D02*
X487576Y208764D01*
X487576Y210966D02*
X470624Y210966D01*
X470624Y234360D02*
X487576Y234360D01*
X470624Y234360D02*
X470624Y241312D01*
X487576Y241312D01*
X487576Y234360D01*
X487576Y236562D02*
X470624Y236562D01*
X470624Y238764D02*
X487576Y238764D01*
X487576Y240966D02*
X470624Y240966D01*
X470624Y245360D02*
X487576Y245360D01*
X470624Y245360D02*
X470624Y252312D01*
X487576Y252312D01*
X487576Y245360D01*
X487576Y247562D02*
X470624Y247562D01*
X470624Y249764D02*
X487576Y249764D01*
X487576Y251966D02*
X470624Y251966D01*
X470624Y256360D02*
X487576Y256360D01*
X470624Y256360D02*
X470624Y263312D01*
X487576Y263312D01*
X487576Y256360D01*
X487576Y258562D02*
X470624Y258562D01*
X470624Y260764D02*
X487576Y260764D01*
X487576Y262966D02*
X470624Y262966D01*
X470624Y267360D02*
X487576Y267360D01*
X470624Y267360D02*
X470624Y274312D01*
X487576Y274312D01*
X487576Y267360D01*
X487576Y269562D02*
X470624Y269562D01*
X470624Y271764D02*
X487576Y271764D01*
X487576Y273966D02*
X470624Y273966D01*
X470624Y278360D02*
X487576Y278360D01*
X470624Y278360D02*
X470624Y285312D01*
X487576Y285312D01*
X487576Y278360D01*
X487576Y280562D02*
X470624Y280562D01*
X470624Y282764D02*
X487576Y282764D01*
X487576Y284966D02*
X470624Y284966D01*
X367576Y285312D02*
X350624Y285312D01*
X367576Y285312D02*
X367576Y278360D01*
X350624Y278360D01*
X350624Y285312D01*
X350624Y280562D02*
X367576Y280562D01*
X367576Y282764D02*
X350624Y282764D01*
X350624Y284966D02*
X367576Y284966D01*
X367576Y274312D02*
X350624Y274312D01*
X367576Y274312D02*
X367576Y267360D01*
X350624Y267360D01*
X350624Y274312D01*
X350624Y269562D02*
X367576Y269562D01*
X367576Y271764D02*
X350624Y271764D01*
X350624Y273966D02*
X367576Y273966D01*
X367576Y263312D02*
X350624Y263312D01*
X367576Y263312D02*
X367576Y256360D01*
X350624Y256360D01*
X350624Y263312D01*
X350624Y258562D02*
X367576Y258562D01*
X367576Y260764D02*
X350624Y260764D01*
X350624Y262966D02*
X367576Y262966D01*
X367576Y252312D02*
X350624Y252312D01*
X367576Y252312D02*
X367576Y245360D01*
X350624Y245360D01*
X350624Y252312D01*
X350624Y247562D02*
X367576Y247562D01*
X367576Y249764D02*
X350624Y249764D01*
X350624Y251966D02*
X367576Y251966D01*
X367576Y241312D02*
X350624Y241312D01*
X367576Y241312D02*
X367576Y234360D01*
X350624Y234360D01*
X350624Y241312D01*
X350624Y236562D02*
X367576Y236562D01*
X367576Y238764D02*
X350624Y238764D01*
X350624Y240966D02*
X367576Y240966D01*
X367576Y211312D02*
X350624Y211312D01*
X367576Y211312D02*
X367576Y204360D01*
X350624Y204360D01*
X350624Y211312D01*
X350624Y206562D02*
X367576Y206562D01*
X367576Y208764D02*
X350624Y208764D01*
X350624Y210966D02*
X367576Y210966D01*
X367576Y200312D02*
X350624Y200312D01*
X367576Y200312D02*
X367576Y193360D01*
X350624Y193360D01*
X350624Y200312D01*
X350624Y195562D02*
X367576Y195562D01*
X367576Y197764D02*
X350624Y197764D01*
X350624Y199966D02*
X367576Y199966D01*
X367576Y189312D02*
X350624Y189312D01*
X367576Y189312D02*
X367576Y182360D01*
X350624Y182360D01*
X350624Y189312D01*
X350624Y184562D02*
X367576Y184562D01*
X367576Y186764D02*
X350624Y186764D01*
X350624Y188966D02*
X367576Y188966D01*
X367576Y178312D02*
X350624Y178312D01*
X367576Y178312D02*
X367576Y171360D01*
X350624Y171360D01*
X350624Y178312D01*
X350624Y173562D02*
X367576Y173562D01*
X367576Y175764D02*
X350624Y175764D01*
X350624Y177966D02*
X367576Y177966D01*
X367576Y167312D02*
X350624Y167312D01*
X367576Y167312D02*
X367576Y160360D01*
X350624Y160360D01*
X350624Y167312D01*
X350624Y162562D02*
X367576Y162562D01*
X367576Y164764D02*
X350624Y164764D01*
X350624Y166966D02*
X367576Y166966D01*
X367576Y156312D02*
X350624Y156312D01*
X367576Y156312D02*
X367576Y149360D01*
X350624Y149360D01*
X350624Y156312D01*
X350624Y151562D02*
X367576Y151562D01*
X367576Y153764D02*
X350624Y153764D01*
X350624Y155966D02*
X367576Y155966D01*
X367576Y145312D02*
X350624Y145312D01*
X367576Y145312D02*
X367576Y138360D01*
X350624Y138360D01*
X350624Y145312D01*
X350624Y140562D02*
X367576Y140562D01*
X367576Y142764D02*
X350624Y142764D01*
X350624Y144966D02*
X367576Y144966D01*
D17*
X645913Y149659D02*
X650983Y149659D01*
X650983Y148189D01*
X645913Y148189D01*
X645913Y149659D01*
X646413Y154659D02*
X650983Y154659D01*
X650983Y153189D01*
X646413Y153189D01*
X646413Y154659D01*
X646413Y159659D02*
X650983Y159659D01*
X650983Y158189D01*
X646413Y158189D01*
X646413Y159659D01*
X642383Y158189D02*
X637813Y158189D01*
X637813Y159659D01*
X642383Y159659D01*
X642383Y158189D01*
X642383Y153189D02*
X637813Y153189D01*
X637813Y154659D01*
X642383Y154659D01*
X642383Y153189D01*
X642383Y148189D02*
X637813Y148189D01*
X637813Y149659D01*
X642383Y149659D01*
X642383Y148189D01*
D18*
X684030Y155362D02*
X684030Y157326D01*
X684030Y155362D02*
X675066Y155362D01*
X675066Y157326D01*
X684030Y157326D01*
X684030Y152326D02*
X684030Y150362D01*
X675066Y150362D01*
X675066Y152326D01*
X684030Y152326D01*
D10*
X684056Y178586D02*
X684056Y183602D01*
X684056Y178586D02*
X675040Y178586D01*
X675040Y183602D01*
X684056Y183602D01*
X684056Y180727D02*
X675040Y180727D01*
X675040Y182868D02*
X684056Y182868D01*
X684056Y175852D02*
X684056Y170836D01*
X675040Y170836D01*
X675040Y175852D01*
X684056Y175852D01*
X684056Y172977D02*
X675040Y172977D01*
X675040Y175118D02*
X684056Y175118D01*
D18*
X684030Y167326D02*
X684030Y165362D01*
X675066Y165362D01*
X675066Y167326D01*
X684030Y167326D01*
X684030Y162326D02*
X684030Y160362D01*
X675066Y160362D01*
X675066Y162326D01*
X684030Y162326D01*
X675066Y142326D02*
X675066Y140362D01*
X675066Y142326D02*
X684030Y142326D01*
X684030Y140362D01*
X675066Y140362D01*
X675066Y145362D02*
X675066Y147326D01*
X684030Y147326D01*
X684030Y145362D01*
X675066Y145362D01*
D10*
X675040Y119102D02*
X675040Y114086D01*
X675040Y119102D02*
X684056Y119102D01*
X684056Y114086D01*
X675040Y114086D01*
X675040Y116227D02*
X684056Y116227D01*
X684056Y118368D02*
X675040Y118368D01*
X675040Y121836D02*
X675040Y126852D01*
X684056Y126852D01*
X684056Y121836D01*
X675040Y121836D01*
X675040Y123977D02*
X684056Y123977D01*
X684056Y126118D02*
X675040Y126118D01*
D18*
X675066Y130362D02*
X675066Y132326D01*
X684030Y132326D01*
X684030Y130362D01*
X675066Y130362D01*
X675066Y135362D02*
X675066Y137326D01*
X684030Y137326D01*
X684030Y135362D01*
X675066Y135362D01*
D19*
X690598Y119944D03*
X690598Y177744D03*
D10*
X498888Y153812D02*
X498888Y148796D01*
X498888Y153812D02*
X503904Y153812D01*
X503904Y148796D01*
X498888Y148796D01*
X498888Y150937D02*
X503904Y150937D01*
X503904Y153078D02*
X498888Y153078D01*
X498888Y143812D02*
X498888Y138796D01*
X498888Y143812D02*
X503904Y143812D01*
X503904Y138796D01*
X498888Y138796D01*
X498888Y140937D02*
X503904Y140937D01*
X503904Y143078D02*
X498888Y143078D01*
D20*
X666298Y308134D02*
X666298Y318606D01*
X735270Y318606D01*
X735270Y308134D01*
X666298Y308134D01*
X666298Y310318D02*
X735270Y310318D01*
X735270Y312502D02*
X666298Y312502D01*
X666298Y314686D02*
X735270Y314686D01*
X735270Y316870D02*
X666298Y316870D01*
D21*
X644278Y274876D02*
X644278Y266864D01*
X644278Y274876D02*
X665290Y274876D01*
X665290Y266864D01*
X644278Y266864D01*
X644278Y269010D02*
X665290Y269010D01*
X665290Y271156D02*
X644278Y271156D01*
X644278Y273302D02*
X665290Y273302D01*
D20*
X666298Y233606D02*
X666298Y223134D01*
X666298Y233606D02*
X735270Y233606D01*
X735270Y223134D01*
X666298Y223134D01*
X666298Y225318D02*
X735270Y225318D01*
X735270Y227502D02*
X666298Y227502D01*
X666298Y229686D02*
X735270Y229686D01*
X735270Y231870D02*
X666298Y231870D01*
D22*
X523462Y267082D02*
X523462Y274606D01*
X531486Y274606D01*
X531486Y267082D01*
X523462Y267082D01*
X523462Y269217D02*
X531486Y269217D01*
X531486Y271352D02*
X523462Y271352D01*
X523462Y273487D02*
X531486Y273487D01*
X523462Y263006D02*
X523462Y255482D01*
X523462Y263006D02*
X531486Y263006D01*
X531486Y255482D01*
X523462Y255482D01*
X523462Y257617D02*
X531486Y257617D01*
X531486Y259752D02*
X523462Y259752D01*
X523462Y261887D02*
X531486Y261887D01*
X533954Y237488D02*
X541478Y237488D01*
X533954Y237488D02*
X533954Y245512D01*
X541478Y245512D01*
X541478Y237488D01*
X541478Y239623D02*
X533954Y239623D01*
X533954Y241758D02*
X541478Y241758D01*
X541478Y243893D02*
X533954Y243893D01*
X545554Y237488D02*
X553078Y237488D01*
X545554Y237488D02*
X545554Y245512D01*
X553078Y245512D01*
X553078Y237488D01*
X553078Y239623D02*
X545554Y239623D01*
X545554Y241758D02*
X553078Y241758D01*
X553078Y243893D02*
X545554Y243893D01*
X522402Y245412D02*
X514878Y245412D01*
X522402Y245412D02*
X522402Y237388D01*
X514878Y237388D01*
X514878Y245412D01*
X514878Y239523D02*
X522402Y239523D01*
X522402Y241658D02*
X514878Y241658D01*
X514878Y243793D02*
X522402Y243793D01*
X510802Y245412D02*
X503278Y245412D01*
X510802Y245412D02*
X510802Y237388D01*
X503278Y237388D01*
X503278Y245412D01*
X503278Y239523D02*
X510802Y239523D01*
X510802Y241658D02*
X503278Y241658D01*
X503278Y243793D02*
X510802Y243793D01*
X129234Y276188D02*
X129234Y283712D01*
X129234Y276188D02*
X121210Y276188D01*
X121210Y283712D01*
X129234Y283712D01*
X129234Y278323D02*
X121210Y278323D01*
X121210Y280458D02*
X129234Y280458D01*
X129234Y282593D02*
X121210Y282593D01*
X129234Y287788D02*
X129234Y295312D01*
X129234Y287788D02*
X121210Y287788D01*
X121210Y295312D01*
X129234Y295312D01*
X129234Y289923D02*
X121210Y289923D01*
X121210Y292058D02*
X129234Y292058D01*
X129234Y294193D02*
X121210Y294193D01*
D23*
X82990Y111940D02*
X82990Y109460D01*
X69510Y109460D01*
X69510Y111940D01*
X82990Y111940D01*
X82990Y111635D02*
X69510Y111635D01*
X82990Y114460D02*
X82990Y116940D01*
X82990Y114460D02*
X69510Y114460D01*
X69510Y116940D01*
X82990Y116940D01*
X82990Y116635D02*
X69510Y116635D01*
X82990Y119460D02*
X82990Y121940D01*
X82990Y119460D02*
X69510Y119460D01*
X69510Y121940D01*
X82990Y121940D01*
X82990Y121635D02*
X69510Y121635D01*
X82990Y124460D02*
X82990Y126940D01*
X82990Y124460D02*
X69510Y124460D01*
X69510Y126940D01*
X82990Y126940D01*
X82990Y126635D02*
X69510Y126635D01*
X82990Y129460D02*
X82990Y131940D01*
X82990Y129460D02*
X69510Y129460D01*
X69510Y131940D01*
X82990Y131940D01*
X82990Y131635D02*
X69510Y131635D01*
X82990Y134460D02*
X82990Y136940D01*
X82990Y134460D02*
X69510Y134460D01*
X69510Y136940D01*
X82990Y136940D01*
X82990Y136635D02*
X69510Y136635D01*
X82990Y139460D02*
X82990Y141940D01*
X82990Y139460D02*
X69510Y139460D01*
X69510Y141940D01*
X82990Y141940D01*
X82990Y141635D02*
X69510Y141635D01*
X82990Y144460D02*
X82990Y146940D01*
X82990Y144460D02*
X69510Y144460D01*
X69510Y146940D01*
X82990Y146940D01*
X82990Y146635D02*
X69510Y146635D01*
X82990Y149460D02*
X82990Y151940D01*
X82990Y149460D02*
X69510Y149460D01*
X69510Y151940D01*
X82990Y151940D01*
X82990Y151635D02*
X69510Y151635D01*
X82990Y154460D02*
X82990Y156940D01*
X82990Y154460D02*
X69510Y154460D01*
X69510Y156940D01*
X82990Y156940D01*
X82990Y156635D02*
X69510Y156635D01*
X82990Y159460D02*
X82990Y161940D01*
X82990Y159460D02*
X69510Y159460D01*
X69510Y161940D01*
X82990Y161940D01*
X82990Y161635D02*
X69510Y161635D01*
X82990Y164460D02*
X82990Y166940D01*
X82990Y164460D02*
X69510Y164460D01*
X69510Y166940D01*
X82990Y166940D01*
X82990Y166635D02*
X69510Y166635D01*
X82990Y189460D02*
X82990Y191940D01*
X82990Y189460D02*
X69510Y189460D01*
X69510Y191940D01*
X82990Y191940D01*
X82990Y191635D02*
X69510Y191635D01*
X82990Y194460D02*
X82990Y196940D01*
X82990Y194460D02*
X69510Y194460D01*
X69510Y196940D01*
X82990Y196940D01*
X82990Y196635D02*
X69510Y196635D01*
X82990Y199460D02*
X82990Y201940D01*
X82990Y199460D02*
X69510Y199460D01*
X69510Y201940D01*
X82990Y201940D01*
X82990Y201635D02*
X69510Y201635D01*
X82990Y204460D02*
X82990Y206940D01*
X82990Y204460D02*
X69510Y204460D01*
X69510Y206940D01*
X82990Y206940D01*
X82990Y206635D02*
X69510Y206635D01*
X82990Y209460D02*
X82990Y211940D01*
X82990Y209460D02*
X69510Y209460D01*
X69510Y211940D01*
X82990Y211940D01*
X82990Y211635D02*
X69510Y211635D01*
X82990Y214460D02*
X82990Y216940D01*
X82990Y214460D02*
X69510Y214460D01*
X69510Y216940D01*
X82990Y216940D01*
X82990Y216635D02*
X69510Y216635D01*
X82990Y219460D02*
X82990Y221940D01*
X82990Y219460D02*
X69510Y219460D01*
X69510Y221940D01*
X82990Y221940D01*
X82990Y221635D02*
X69510Y221635D01*
X82990Y224460D02*
X82990Y226940D01*
X82990Y224460D02*
X69510Y224460D01*
X69510Y226940D01*
X82990Y226940D01*
X82990Y226635D02*
X69510Y226635D01*
X82990Y229460D02*
X82990Y231940D01*
X82990Y229460D02*
X69510Y229460D01*
X69510Y231940D01*
X82990Y231940D01*
X82990Y231635D02*
X69510Y231635D01*
X82990Y234460D02*
X82990Y236940D01*
X82990Y234460D02*
X69510Y234460D01*
X69510Y236940D01*
X82990Y236940D01*
X82990Y236635D02*
X69510Y236635D01*
X82990Y239460D02*
X82990Y241940D01*
X82990Y239460D02*
X69510Y239460D01*
X69510Y241940D01*
X82990Y241940D01*
X82990Y241635D02*
X69510Y241635D01*
X82990Y244460D02*
X82990Y246940D01*
X82990Y244460D02*
X69510Y244460D01*
X69510Y246940D01*
X82990Y246940D01*
X82990Y246635D02*
X69510Y246635D01*
X82990Y249460D02*
X82990Y251940D01*
X82990Y249460D02*
X69510Y249460D01*
X69510Y251940D01*
X82990Y251940D01*
X82990Y251635D02*
X69510Y251635D01*
X82990Y254460D02*
X82990Y256940D01*
X82990Y254460D02*
X69510Y254460D01*
X69510Y256940D01*
X82990Y256940D01*
X82990Y256635D02*
X69510Y256635D01*
X82990Y259460D02*
X82990Y261940D01*
X82990Y259460D02*
X69510Y259460D01*
X69510Y261940D01*
X82990Y261940D01*
X82990Y261635D02*
X69510Y261635D01*
X82990Y264460D02*
X82990Y266940D01*
X82990Y264460D02*
X69510Y264460D01*
X69510Y266940D01*
X82990Y266940D01*
X82990Y266635D02*
X69510Y266635D01*
X82990Y269460D02*
X82990Y271940D01*
X82990Y269460D02*
X69510Y269460D01*
X69510Y271940D01*
X82990Y271940D01*
X82990Y271635D02*
X69510Y271635D01*
X82990Y274460D02*
X82990Y276940D01*
X82990Y274460D02*
X69510Y274460D01*
X69510Y276940D01*
X82990Y276940D01*
X82990Y276635D02*
X69510Y276635D01*
X82990Y279460D02*
X82990Y281940D01*
X82990Y279460D02*
X69510Y279460D01*
X69510Y281940D01*
X82990Y281940D01*
X82990Y281635D02*
X69510Y281635D01*
X82990Y284460D02*
X82990Y286940D01*
X82990Y284460D02*
X69510Y284460D01*
X69510Y286940D01*
X82990Y286940D01*
X82990Y286635D02*
X69510Y286635D01*
X82990Y289460D02*
X82990Y291940D01*
X82990Y289460D02*
X69510Y289460D01*
X69510Y291940D01*
X82990Y291940D01*
X82990Y291635D02*
X69510Y291635D01*
X82990Y294460D02*
X82990Y296940D01*
X82990Y294460D02*
X69510Y294460D01*
X69510Y296940D01*
X82990Y296940D01*
X82990Y296635D02*
X69510Y296635D01*
D24*
X542880Y86252D03*
X500880Y86252D03*
X521880Y99252D03*
X500820Y320148D03*
X542820Y320148D03*
X521820Y307148D03*
D25*
X317458Y181040D03*
D26*
X317458Y189040D03*
X317458Y197040D03*
D25*
X330658Y181040D03*
D26*
X330658Y189040D03*
X330658Y197040D03*
D27*
X330558Y205040D03*
D25*
X317458Y205040D03*
D28*
X314166Y257524D02*
X314166Y264192D01*
X328454Y264192D01*
X328454Y257524D01*
X314166Y257524D01*
X314166Y259636D02*
X328454Y259636D01*
X328454Y261748D02*
X314166Y261748D01*
X314166Y263860D02*
X328454Y263860D01*
X258286Y264192D02*
X258286Y257524D01*
X258286Y264192D02*
X272574Y264192D01*
X272574Y257524D01*
X258286Y257524D01*
X258286Y259636D02*
X272574Y259636D01*
X272574Y261748D02*
X258286Y261748D01*
X258286Y263860D02*
X272574Y263860D01*
X314166Y295624D02*
X314166Y302292D01*
X328454Y302292D01*
X328454Y295624D01*
X314166Y295624D01*
X314166Y297736D02*
X328454Y297736D01*
X328454Y299848D02*
X314166Y299848D01*
X314166Y301960D02*
X328454Y301960D01*
X258286Y302292D02*
X258286Y295624D01*
X258286Y302292D02*
X272574Y302292D01*
X272574Y295624D01*
X258286Y295624D01*
X258286Y297736D02*
X272574Y297736D01*
X272574Y299848D02*
X258286Y299848D01*
X258286Y301960D02*
X272574Y301960D01*
D22*
X345642Y304032D02*
X345642Y296508D01*
X337618Y296508D01*
X337618Y304032D01*
X345642Y304032D01*
X345642Y298643D02*
X337618Y298643D01*
X337618Y300778D02*
X345642Y300778D01*
X345642Y302913D02*
X337618Y302913D01*
X345642Y308108D02*
X345642Y315632D01*
X345642Y308108D02*
X337618Y308108D01*
X337618Y315632D01*
X345642Y315632D01*
X345642Y310243D02*
X337618Y310243D01*
X337618Y312378D02*
X345642Y312378D01*
X345642Y314513D02*
X337618Y314513D01*
D10*
X339884Y154828D02*
X339884Y149812D01*
X339884Y154828D02*
X344900Y154828D01*
X344900Y149812D01*
X339884Y149812D01*
X339884Y151953D02*
X344900Y151953D01*
X344900Y154094D02*
X339884Y154094D01*
X339884Y144828D02*
X339884Y139812D01*
X339884Y144828D02*
X344900Y144828D01*
X344900Y139812D01*
X339884Y139812D01*
X339884Y141953D02*
X344900Y141953D01*
X344900Y144094D02*
X339884Y144094D01*
D29*
X640080Y317500D03*
X129540Y93980D03*
M02*
