G04 EAGLE Gerber RS-274X export*
G75*
%MOMM*%
%FSLAX34Y34*%
%LPD*%
%INBottom Copper*%
%IPPOS*%
%AMOC8*
5,1,8,0,0,1.08239X$1,22.5*%
G01*
%ADD10C,0.099059*%
%ADD11C,0.101600*%
%ADD12C,0.654000*%
%ADD13C,1.016000*%
%ADD14C,0.101500*%
%ADD15C,0.454000*%
%ADD16C,1.000000*%
%ADD17C,0.558800*%
%ADD18C,0.254000*%
%ADD19C,0.203200*%

G36*
X491196Y79010D02*
X491196Y79010D01*
X491315Y79017D01*
X491353Y79030D01*
X491394Y79035D01*
X491504Y79078D01*
X491617Y79115D01*
X491652Y79137D01*
X491689Y79152D01*
X491785Y79221D01*
X491886Y79285D01*
X491914Y79315D01*
X491947Y79338D01*
X492023Y79430D01*
X492104Y79517D01*
X492124Y79552D01*
X492149Y79583D01*
X492200Y79691D01*
X492258Y79795D01*
X492268Y79835D01*
X492285Y79871D01*
X492307Y79988D01*
X492337Y80103D01*
X492341Y80163D01*
X492345Y80183D01*
X492343Y80204D01*
X492347Y80264D01*
X492347Y80930D01*
X492959Y82812D01*
X492995Y83003D01*
X493018Y83124D01*
X493008Y83285D01*
X492999Y83441D01*
X492999Y83442D01*
X492950Y83592D01*
X492901Y83743D01*
X492900Y83744D01*
X492839Y83841D01*
X492730Y84012D01*
X492730Y84013D01*
X492656Y84082D01*
X492499Y84230D01*
X492498Y84230D01*
X492369Y84302D01*
X492220Y84384D01*
X492053Y84427D01*
X491912Y84463D01*
X491911Y84463D01*
X491752Y84473D01*
X491143Y84473D01*
X490101Y85515D01*
X490101Y86989D01*
X491143Y88031D01*
X493732Y88031D01*
X493811Y88041D01*
X493890Y88041D01*
X493968Y88061D01*
X494048Y88071D01*
X494122Y88100D01*
X494199Y88119D01*
X494269Y88158D01*
X494344Y88188D01*
X494408Y88234D01*
X494477Y88272D01*
X494536Y88327D01*
X494601Y88374D01*
X494652Y88436D01*
X494710Y88490D01*
X494753Y88558D01*
X494804Y88619D01*
X494838Y88691D01*
X494880Y88758D01*
X494939Y88907D01*
X494940Y88908D01*
X495238Y89827D01*
X498859Y94810D01*
X498933Y94945D01*
X499012Y95088D01*
X499012Y95089D01*
X499051Y95242D01*
X499091Y95396D01*
X499091Y95397D01*
X499091Y95399D01*
X499101Y95556D01*
X499101Y97989D01*
X500143Y99031D01*
X501671Y99031D01*
X501678Y99025D01*
X501697Y99017D01*
X501712Y99006D01*
X501842Y98955D01*
X501970Y98899D01*
X501990Y98896D01*
X502008Y98889D01*
X502147Y98871D01*
X502284Y98849D01*
X502304Y98851D01*
X502323Y98848D01*
X502463Y98866D01*
X502601Y98879D01*
X502619Y98885D01*
X502639Y98888D01*
X502770Y98939D01*
X502900Y98986D01*
X502917Y98997D01*
X502935Y99005D01*
X503071Y99091D01*
X508305Y102894D01*
X517202Y105785D01*
X518832Y105785D01*
X518950Y105800D01*
X519069Y105807D01*
X519107Y105820D01*
X519148Y105825D01*
X519258Y105868D01*
X519371Y105905D01*
X519406Y105927D01*
X519443Y105942D01*
X519539Y106011D01*
X519640Y106075D01*
X519668Y106105D01*
X519701Y106128D01*
X519777Y106220D01*
X519858Y106307D01*
X519878Y106342D01*
X519903Y106373D01*
X519954Y106481D01*
X520012Y106585D01*
X520022Y106625D01*
X520039Y106661D01*
X520061Y106778D01*
X520091Y106893D01*
X520095Y106953D01*
X520099Y106973D01*
X520098Y106985D01*
X521143Y108031D01*
X522617Y108031D01*
X523668Y106979D01*
X523674Y106936D01*
X523681Y106817D01*
X523694Y106779D01*
X523699Y106738D01*
X523742Y106628D01*
X523779Y106515D01*
X523801Y106480D01*
X523816Y106443D01*
X523885Y106347D01*
X523949Y106246D01*
X523979Y106218D01*
X524002Y106185D01*
X524094Y106109D01*
X524181Y106028D01*
X524216Y106008D01*
X524247Y105983D01*
X524355Y105932D01*
X524459Y105874D01*
X524499Y105864D01*
X524535Y105847D01*
X524652Y105825D01*
X524767Y105795D01*
X524827Y105791D01*
X524847Y105787D01*
X524868Y105789D01*
X524928Y105785D01*
X526558Y105785D01*
X535455Y102894D01*
X540689Y99091D01*
X540706Y99081D01*
X540721Y99068D01*
X540846Y99005D01*
X540968Y98938D01*
X540987Y98933D01*
X541004Y98924D01*
X541140Y98893D01*
X541276Y98858D01*
X541296Y98858D01*
X541315Y98854D01*
X541454Y98858D01*
X541594Y98858D01*
X541613Y98863D01*
X541633Y98864D01*
X541767Y98903D01*
X541902Y98937D01*
X541919Y98947D01*
X541938Y98952D01*
X542058Y99023D01*
X542072Y99031D01*
X543617Y99031D01*
X544659Y97989D01*
X544659Y95556D01*
X544679Y95396D01*
X544698Y95242D01*
X544698Y95241D01*
X544699Y95241D01*
X544759Y95089D01*
X544815Y94946D01*
X544815Y94945D01*
X544816Y94945D01*
X544816Y94944D01*
X544901Y94810D01*
X548522Y89827D01*
X548820Y88908D01*
X548854Y88836D01*
X548879Y88761D01*
X548922Y88693D01*
X548956Y88620D01*
X549006Y88559D01*
X549049Y88492D01*
X549107Y88437D01*
X549159Y88375D01*
X549223Y88328D01*
X549280Y88274D01*
X549351Y88235D01*
X549416Y88188D01*
X549490Y88159D01*
X549559Y88120D01*
X549637Y88100D01*
X549711Y88071D01*
X549790Y88061D01*
X549867Y88041D01*
X550026Y88031D01*
X550027Y88031D01*
X550028Y88031D01*
X552617Y88031D01*
X553659Y86989D01*
X553659Y85515D01*
X552617Y84473D01*
X552008Y84473D01*
X551842Y84452D01*
X551693Y84434D01*
X551693Y84433D01*
X551535Y84371D01*
X551398Y84317D01*
X551397Y84317D01*
X551397Y84316D01*
X551270Y84224D01*
X551140Y84130D01*
X551043Y84013D01*
X550937Y83885D01*
X550872Y83746D01*
X550802Y83598D01*
X550801Y83597D01*
X550778Y83474D01*
X550742Y83285D01*
X550752Y83124D01*
X550761Y82968D01*
X550761Y82967D01*
X550762Y82966D01*
X550801Y82812D01*
X551413Y80930D01*
X551413Y80264D01*
X551428Y80146D01*
X551435Y80027D01*
X551448Y79989D01*
X551453Y79948D01*
X551496Y79838D01*
X551533Y79725D01*
X551555Y79690D01*
X551570Y79653D01*
X551639Y79557D01*
X551703Y79456D01*
X551733Y79428D01*
X551756Y79395D01*
X551848Y79319D01*
X551935Y79238D01*
X551970Y79218D01*
X552001Y79193D01*
X552109Y79142D01*
X552213Y79084D01*
X552253Y79074D01*
X552289Y79057D01*
X552406Y79035D01*
X552521Y79005D01*
X552581Y79001D01*
X552601Y78997D01*
X552622Y78999D01*
X552682Y78995D01*
X734314Y78995D01*
X734432Y79010D01*
X734551Y79017D01*
X734589Y79030D01*
X734630Y79035D01*
X734740Y79078D01*
X734853Y79115D01*
X734888Y79137D01*
X734925Y79152D01*
X735021Y79221D01*
X735122Y79285D01*
X735150Y79315D01*
X735183Y79338D01*
X735259Y79430D01*
X735340Y79517D01*
X735360Y79552D01*
X735385Y79583D01*
X735436Y79691D01*
X735494Y79795D01*
X735504Y79835D01*
X735521Y79871D01*
X735543Y79988D01*
X735573Y80103D01*
X735577Y80163D01*
X735581Y80183D01*
X735579Y80204D01*
X735583Y80264D01*
X735583Y96774D01*
X735568Y96892D01*
X735561Y97011D01*
X735548Y97049D01*
X735543Y97090D01*
X735500Y97200D01*
X735463Y97313D01*
X735441Y97348D01*
X735426Y97385D01*
X735357Y97481D01*
X735293Y97582D01*
X735263Y97610D01*
X735240Y97643D01*
X735148Y97719D01*
X735061Y97800D01*
X735026Y97820D01*
X734995Y97845D01*
X734887Y97896D01*
X734783Y97954D01*
X734743Y97964D01*
X734707Y97981D01*
X734590Y98003D01*
X734475Y98033D01*
X734415Y98037D01*
X734395Y98041D01*
X734374Y98039D01*
X734314Y98043D01*
X677995Y98043D01*
X676655Y99383D01*
X676655Y99387D01*
X676643Y99485D01*
X676640Y99584D01*
X676623Y99642D01*
X676615Y99702D01*
X676579Y99794D01*
X676551Y99889D01*
X676521Y99942D01*
X676498Y99998D01*
X676440Y100078D01*
X676390Y100163D01*
X676324Y100239D01*
X676312Y100255D01*
X676302Y100263D01*
X676284Y100284D01*
X675953Y100615D01*
X675904Y100653D01*
X675861Y100698D01*
X675731Y100792D01*
X675357Y101027D01*
X675327Y101071D01*
X675323Y101075D01*
X675319Y101080D01*
X675204Y101180D01*
X675166Y101214D01*
X674926Y101597D01*
X674887Y101645D01*
X674855Y101698D01*
X674749Y101819D01*
X674436Y102132D01*
X674417Y102181D01*
X674413Y102186D01*
X674411Y102192D01*
X674323Y102313D01*
X674292Y102356D01*
X674143Y102783D01*
X674115Y102838D01*
X674096Y102898D01*
X674020Y103039D01*
X673784Y103413D01*
X673777Y103465D01*
X673775Y103471D01*
X673774Y103477D01*
X673714Y103616D01*
X673694Y103664D01*
X673644Y104114D01*
X673629Y104174D01*
X673624Y104236D01*
X673580Y104391D01*
X673434Y104808D01*
X673439Y104861D01*
X673438Y104866D01*
X673438Y104872D01*
X673411Y105021D01*
X673402Y105073D01*
X673453Y105522D01*
X673453Y105547D01*
X673457Y105568D01*
X673455Y105602D01*
X673461Y105645D01*
X673453Y105806D01*
X673403Y106245D01*
X673419Y106295D01*
X673420Y106302D01*
X673421Y106308D01*
X673428Y106460D01*
X673431Y106511D01*
X673580Y106937D01*
X673593Y106998D01*
X673615Y107056D01*
X673644Y107214D01*
X673693Y107654D01*
X673720Y107699D01*
X673721Y107705D01*
X673725Y107710D01*
X673765Y107858D01*
X673779Y107906D01*
X674020Y108289D01*
X674046Y108345D01*
X674080Y108397D01*
X674143Y108545D01*
X674289Y108962D01*
X674325Y109001D01*
X674328Y109006D01*
X674332Y109011D01*
X674405Y109145D01*
X674429Y109189D01*
X674749Y109509D01*
X674787Y109558D01*
X674832Y109601D01*
X674926Y109731D01*
X675123Y110045D01*
X675123Y110046D01*
X675161Y110105D01*
X675205Y110135D01*
X675209Y110139D01*
X675214Y110143D01*
X675314Y110257D01*
X675348Y110296D01*
X675731Y110536D01*
X675779Y110575D01*
X675832Y110607D01*
X675953Y110713D01*
X676284Y111044D01*
X676344Y111122D01*
X676412Y111194D01*
X676441Y111247D01*
X676478Y111295D01*
X676518Y111386D01*
X676566Y111473D01*
X676581Y111531D01*
X676605Y111587D01*
X676620Y111685D01*
X676645Y111781D01*
X676651Y111881D01*
X676655Y111901D01*
X676653Y111913D01*
X676655Y111941D01*
X676655Y185747D01*
X676643Y185845D01*
X676640Y185944D01*
X676623Y186002D01*
X676615Y186062D01*
X676579Y186154D01*
X676551Y186249D01*
X676521Y186302D01*
X676498Y186358D01*
X676440Y186438D01*
X676390Y186523D01*
X676324Y186599D01*
X676312Y186615D01*
X676302Y186623D01*
X676284Y186644D01*
X675953Y186975D01*
X675904Y187013D01*
X675861Y187058D01*
X675731Y187152D01*
X675356Y187387D01*
X675327Y187431D01*
X675322Y187435D01*
X675319Y187440D01*
X675202Y187542D01*
X675166Y187574D01*
X674926Y187957D01*
X674887Y188005D01*
X674855Y188058D01*
X674749Y188179D01*
X674436Y188492D01*
X674417Y188541D01*
X674413Y188546D01*
X674411Y188552D01*
X674322Y188675D01*
X674292Y188716D01*
X674143Y189143D01*
X674115Y189198D01*
X674096Y189258D01*
X674020Y189399D01*
X673784Y189773D01*
X673777Y189826D01*
X673775Y189831D01*
X673774Y189837D01*
X673713Y189978D01*
X673694Y190024D01*
X673644Y190474D01*
X673629Y190534D01*
X673624Y190596D01*
X673580Y190751D01*
X673434Y191168D01*
X673439Y191221D01*
X673438Y191226D01*
X673438Y191232D01*
X673411Y191382D01*
X673402Y191433D01*
X673453Y191882D01*
X673452Y191944D01*
X673461Y192005D01*
X673453Y192166D01*
X673403Y192605D01*
X673419Y192656D01*
X673420Y192662D01*
X673421Y192667D01*
X673428Y192820D01*
X673431Y192871D01*
X673580Y193297D01*
X673593Y193358D01*
X673615Y193416D01*
X673644Y193574D01*
X673693Y194014D01*
X673720Y194059D01*
X673721Y194065D01*
X673724Y194070D01*
X673765Y194217D01*
X673779Y194266D01*
X674020Y194649D01*
X674046Y194705D01*
X674080Y194757D01*
X674143Y194905D01*
X674289Y195322D01*
X674325Y195361D01*
X674328Y195366D01*
X674332Y195370D01*
X674405Y195505D01*
X674429Y195549D01*
X674749Y195869D01*
X674787Y195918D01*
X674832Y195961D01*
X674926Y196091D01*
X675161Y196465D01*
X675205Y196495D01*
X675209Y196499D01*
X675214Y196503D01*
X675314Y196617D01*
X675348Y196656D01*
X675731Y196896D01*
X675779Y196935D01*
X675832Y196967D01*
X675953Y197073D01*
X676284Y197404D01*
X676344Y197482D01*
X676412Y197554D01*
X676436Y197598D01*
X676457Y197624D01*
X676463Y197635D01*
X676478Y197655D01*
X676518Y197746D01*
X676566Y197833D01*
X676577Y197878D01*
X676593Y197911D01*
X676596Y197926D01*
X676605Y197947D01*
X676615Y198011D01*
X677995Y199391D01*
X734314Y199391D01*
X734432Y199406D01*
X734551Y199413D01*
X734589Y199426D01*
X734630Y199431D01*
X734740Y199474D01*
X734853Y199511D01*
X734888Y199533D01*
X734925Y199548D01*
X735021Y199617D01*
X735122Y199681D01*
X735150Y199711D01*
X735183Y199734D01*
X735259Y199826D01*
X735340Y199913D01*
X735360Y199948D01*
X735385Y199979D01*
X735436Y200087D01*
X735494Y200191D01*
X735504Y200231D01*
X735521Y200267D01*
X735543Y200384D01*
X735573Y200499D01*
X735577Y200559D01*
X735581Y200579D01*
X735579Y200600D01*
X735583Y200660D01*
X735583Y230646D01*
X735569Y230762D01*
X735562Y230879D01*
X735549Y230919D01*
X735543Y230962D01*
X735500Y231070D01*
X735465Y231182D01*
X735442Y231218D01*
X735426Y231257D01*
X735358Y231352D01*
X735296Y231451D01*
X735265Y231480D01*
X735240Y231515D01*
X735149Y231589D01*
X735065Y231670D01*
X735027Y231690D01*
X734995Y231718D01*
X734889Y231767D01*
X734787Y231824D01*
X734745Y231835D01*
X734707Y231853D01*
X734592Y231875D01*
X734479Y231905D01*
X734415Y231909D01*
X734395Y231913D01*
X734375Y231912D01*
X734318Y231916D01*
X665987Y232155D01*
X665985Y232155D01*
X665983Y232155D01*
X664825Y232155D01*
X664009Y232976D01*
X664008Y232977D01*
X664006Y232980D01*
X663189Y233796D01*
X663193Y234951D01*
X663193Y234952D01*
X663193Y234955D01*
X663193Y305919D01*
X663188Y305964D01*
X663193Y307595D01*
X663193Y307596D01*
X663193Y307599D01*
X663193Y308757D01*
X664014Y309573D01*
X664015Y309574D01*
X664017Y309576D01*
X664834Y310393D01*
X665989Y310389D01*
X665990Y310389D01*
X665993Y310389D01*
X667585Y310389D01*
X667618Y310387D01*
X667637Y310383D01*
X667648Y310384D01*
X667673Y310383D01*
X734310Y310149D01*
X734430Y310164D01*
X734551Y310171D01*
X734587Y310183D01*
X734625Y310188D01*
X734738Y310232D01*
X734853Y310269D01*
X734886Y310290D01*
X734921Y310304D01*
X735020Y310375D01*
X735122Y310440D01*
X735148Y310467D01*
X735179Y310490D01*
X735257Y310583D01*
X735340Y310671D01*
X735359Y310705D01*
X735383Y310734D01*
X735435Y310843D01*
X735494Y310950D01*
X735503Y310987D01*
X735520Y311021D01*
X735543Y311140D01*
X735573Y311258D01*
X735577Y311314D01*
X735580Y311333D01*
X735579Y311354D01*
X735583Y311418D01*
X735583Y326136D01*
X735568Y326254D01*
X735561Y326373D01*
X735548Y326411D01*
X735543Y326452D01*
X735500Y326562D01*
X735463Y326675D01*
X735441Y326710D01*
X735426Y326747D01*
X735357Y326843D01*
X735293Y326944D01*
X735263Y326972D01*
X735240Y327005D01*
X735148Y327081D01*
X735061Y327162D01*
X735026Y327182D01*
X734995Y327207D01*
X734887Y327258D01*
X734783Y327316D01*
X734743Y327326D01*
X734707Y327343D01*
X734590Y327365D01*
X734475Y327395D01*
X734415Y327399D01*
X734395Y327403D01*
X734374Y327401D01*
X734314Y327405D01*
X552622Y327405D01*
X552504Y327390D01*
X552385Y327383D01*
X552347Y327370D01*
X552306Y327365D01*
X552196Y327322D01*
X552083Y327285D01*
X552048Y327263D01*
X552011Y327248D01*
X551915Y327179D01*
X551814Y327115D01*
X551786Y327085D01*
X551753Y327062D01*
X551677Y326970D01*
X551596Y326883D01*
X551576Y326848D01*
X551551Y326817D01*
X551500Y326709D01*
X551442Y326605D01*
X551432Y326565D01*
X551415Y326529D01*
X551393Y326412D01*
X551363Y326297D01*
X551359Y326237D01*
X551355Y326217D01*
X551357Y326196D01*
X551353Y326136D01*
X551353Y325470D01*
X550741Y323588D01*
X550700Y323371D01*
X550682Y323276D01*
X550695Y323067D01*
X550701Y322959D01*
X550701Y322958D01*
X550750Y322808D01*
X550799Y322657D01*
X550800Y322656D01*
X550888Y322516D01*
X550970Y322388D01*
X550970Y322387D01*
X551085Y322279D01*
X551201Y322170D01*
X551202Y322170D01*
X551331Y322098D01*
X551480Y322016D01*
X551647Y321973D01*
X551788Y321937D01*
X551789Y321937D01*
X551948Y321927D01*
X552557Y321927D01*
X553599Y320885D01*
X553599Y319411D01*
X552557Y318369D01*
X549968Y318369D01*
X549889Y318359D01*
X549810Y318359D01*
X549732Y318339D01*
X549652Y318329D01*
X549578Y318300D01*
X549501Y318281D01*
X549431Y318242D01*
X549356Y318212D01*
X549292Y318166D01*
X549223Y318128D01*
X549164Y318073D01*
X549099Y318026D01*
X549048Y317964D01*
X548991Y317910D01*
X548947Y317842D01*
X548896Y317781D01*
X548862Y317709D01*
X548820Y317642D01*
X548761Y317493D01*
X548760Y317492D01*
X548462Y316573D01*
X544841Y311590D01*
X544766Y311454D01*
X544688Y311312D01*
X544688Y311311D01*
X544642Y311133D01*
X544609Y311004D01*
X544609Y311003D01*
X544609Y311001D01*
X544599Y310844D01*
X544599Y308411D01*
X543557Y307369D01*
X542029Y307369D01*
X542022Y307375D01*
X542003Y307383D01*
X541988Y307394D01*
X541858Y307445D01*
X541730Y307501D01*
X541710Y307504D01*
X541692Y307511D01*
X541553Y307529D01*
X541416Y307551D01*
X541396Y307549D01*
X541377Y307552D01*
X541237Y307534D01*
X541099Y307521D01*
X541081Y307515D01*
X541061Y307512D01*
X540930Y307461D01*
X540800Y307414D01*
X540783Y307403D01*
X540765Y307395D01*
X540629Y307309D01*
X535395Y303506D01*
X526498Y300615D01*
X524868Y300615D01*
X524750Y300600D01*
X524631Y300593D01*
X524593Y300580D01*
X524552Y300575D01*
X524442Y300532D01*
X524329Y300495D01*
X524294Y300473D01*
X524257Y300458D01*
X524161Y300389D01*
X524060Y300325D01*
X524032Y300295D01*
X523999Y300272D01*
X523923Y300180D01*
X523842Y300093D01*
X523822Y300058D01*
X523797Y300027D01*
X523746Y299919D01*
X523688Y299815D01*
X523678Y299775D01*
X523661Y299739D01*
X523639Y299622D01*
X523609Y299507D01*
X523605Y299447D01*
X523601Y299427D01*
X523602Y299415D01*
X522557Y298369D01*
X521083Y298369D01*
X520032Y299421D01*
X520026Y299464D01*
X520019Y299583D01*
X520006Y299621D01*
X520001Y299662D01*
X519958Y299772D01*
X519921Y299885D01*
X519899Y299920D01*
X519884Y299957D01*
X519815Y300053D01*
X519751Y300154D01*
X519721Y300182D01*
X519698Y300215D01*
X519606Y300291D01*
X519519Y300372D01*
X519484Y300392D01*
X519453Y300417D01*
X519345Y300468D01*
X519241Y300526D01*
X519201Y300536D01*
X519165Y300553D01*
X519048Y300575D01*
X518933Y300605D01*
X518873Y300609D01*
X518853Y300613D01*
X518832Y300611D01*
X518772Y300615D01*
X517142Y300615D01*
X508245Y303506D01*
X503011Y307309D01*
X502994Y307319D01*
X502979Y307332D01*
X502855Y307395D01*
X502732Y307462D01*
X502713Y307467D01*
X502696Y307476D01*
X502560Y307507D01*
X502424Y307542D01*
X502405Y307542D01*
X502385Y307546D01*
X502246Y307542D01*
X502106Y307542D01*
X502087Y307537D01*
X502068Y307536D01*
X501933Y307497D01*
X501798Y307463D01*
X501781Y307453D01*
X501762Y307448D01*
X501642Y307377D01*
X501628Y307369D01*
X500083Y307369D01*
X499041Y308411D01*
X499041Y310844D01*
X499023Y310986D01*
X499002Y311158D01*
X499002Y311159D01*
X499001Y311159D01*
X498955Y311278D01*
X498885Y311454D01*
X498885Y311455D01*
X498884Y311455D01*
X498884Y311456D01*
X498799Y311590D01*
X495178Y316573D01*
X494880Y317492D01*
X494846Y317564D01*
X494821Y317639D01*
X494778Y317707D01*
X494744Y317780D01*
X494694Y317841D01*
X494651Y317908D01*
X494593Y317963D01*
X494542Y318025D01*
X494477Y318072D01*
X494420Y318126D01*
X494349Y318165D01*
X494284Y318212D01*
X494210Y318241D01*
X494141Y318280D01*
X494063Y318300D01*
X493989Y318329D01*
X493910Y318339D01*
X493833Y318359D01*
X493674Y318369D01*
X493673Y318369D01*
X493672Y318369D01*
X491083Y318369D01*
X490041Y319411D01*
X490041Y320885D01*
X491083Y321927D01*
X491692Y321927D01*
X491858Y321948D01*
X492007Y321966D01*
X492007Y321967D01*
X492165Y322029D01*
X492302Y322083D01*
X492303Y322083D01*
X492303Y322084D01*
X492422Y322170D01*
X492560Y322270D01*
X492639Y322366D01*
X492763Y322515D01*
X492814Y322623D01*
X492898Y322802D01*
X492899Y322803D01*
X492919Y322911D01*
X492958Y323115D01*
X492950Y323246D01*
X492939Y323432D01*
X492939Y323433D01*
X492938Y323434D01*
X492899Y323588D01*
X492287Y325470D01*
X492287Y326136D01*
X492272Y326254D01*
X492265Y326373D01*
X492252Y326411D01*
X492247Y326452D01*
X492204Y326562D01*
X492167Y326675D01*
X492145Y326710D01*
X492130Y326747D01*
X492061Y326843D01*
X491997Y326944D01*
X491967Y326972D01*
X491944Y327005D01*
X491852Y327081D01*
X491765Y327162D01*
X491730Y327182D01*
X491699Y327207D01*
X491591Y327258D01*
X491487Y327316D01*
X491447Y327326D01*
X491411Y327343D01*
X491294Y327365D01*
X491179Y327395D01*
X491119Y327399D01*
X491099Y327403D01*
X491078Y327401D01*
X491018Y327405D01*
X107564Y327405D01*
X107446Y327390D01*
X107327Y327383D01*
X107289Y327370D01*
X107248Y327365D01*
X107138Y327322D01*
X107025Y327285D01*
X106990Y327263D01*
X106953Y327248D01*
X106857Y327179D01*
X106756Y327115D01*
X106728Y327085D01*
X106695Y327062D01*
X106619Y326970D01*
X106538Y326883D01*
X106518Y326848D01*
X106493Y326817D01*
X106442Y326709D01*
X106384Y326605D01*
X106374Y326565D01*
X106357Y326529D01*
X106335Y326412D01*
X106305Y326297D01*
X106301Y326237D01*
X106297Y326217D01*
X106299Y326196D01*
X106295Y326136D01*
X106295Y308697D01*
X106301Y308649D01*
X106298Y308600D01*
X106316Y308517D01*
X106317Y308492D01*
X106323Y308474D01*
X106335Y308381D01*
X106353Y308336D01*
X106362Y308288D01*
X106386Y308239D01*
X106299Y307139D01*
X106300Y307117D01*
X106295Y307038D01*
X106295Y305948D01*
X106294Y305946D01*
X106257Y305841D01*
X106213Y305739D01*
X106206Y305691D01*
X106190Y305645D01*
X106167Y305486D01*
X106129Y305005D01*
X105700Y304333D01*
X105700Y304332D01*
X104001Y301666D01*
X100427Y299638D01*
X100306Y299548D01*
X100184Y299460D01*
X100179Y299453D01*
X100172Y299448D01*
X100078Y299331D01*
X99981Y299215D01*
X99978Y299207D01*
X99972Y299200D01*
X99910Y299062D01*
X99846Y298927D01*
X99844Y298918D01*
X99841Y298911D01*
X99814Y298761D01*
X99786Y298614D01*
X99787Y298606D01*
X99785Y298597D01*
X99797Y298447D01*
X99806Y298297D01*
X99809Y298289D01*
X99809Y298280D01*
X99858Y298137D01*
X99904Y297995D01*
X99908Y297987D01*
X99911Y297979D01*
X99994Y297853D01*
X100074Y297726D01*
X100080Y297720D01*
X100085Y297713D01*
X100196Y297612D01*
X100306Y297508D01*
X100313Y297504D01*
X100320Y297498D01*
X100452Y297427D01*
X100584Y297354D01*
X100593Y297352D01*
X100600Y297348D01*
X100747Y297312D01*
X100892Y297275D01*
X100904Y297274D01*
X100909Y297273D01*
X100922Y297273D01*
X101053Y297265D01*
X104724Y297265D01*
X107105Y294884D01*
X107105Y291516D01*
X104724Y289135D01*
X101400Y289135D01*
X101302Y289123D01*
X101203Y289120D01*
X101145Y289103D01*
X101085Y289095D01*
X100993Y289059D01*
X100897Y289031D01*
X100845Y289001D01*
X100789Y288978D01*
X100709Y288920D01*
X100624Y288870D01*
X100548Y288804D01*
X100532Y288792D01*
X100524Y288782D01*
X100503Y288764D01*
X97398Y285659D01*
X91040Y285659D01*
X90922Y285644D01*
X90803Y285637D01*
X90765Y285624D01*
X90724Y285619D01*
X90614Y285576D01*
X90501Y285539D01*
X90466Y285517D01*
X90429Y285502D01*
X90333Y285433D01*
X90232Y285369D01*
X90204Y285339D01*
X90171Y285316D01*
X90095Y285224D01*
X90014Y285137D01*
X89994Y285102D01*
X89969Y285071D01*
X89918Y284963D01*
X89860Y284859D01*
X89850Y284819D01*
X89833Y284783D01*
X89811Y284666D01*
X89781Y284551D01*
X89777Y284491D01*
X89773Y284471D01*
X89775Y284450D01*
X89771Y284390D01*
X89771Y231836D01*
X89786Y231718D01*
X89793Y231599D01*
X89806Y231561D01*
X89811Y231520D01*
X89854Y231410D01*
X89891Y231297D01*
X89913Y231262D01*
X89928Y231225D01*
X89997Y231129D01*
X90061Y231028D01*
X90091Y231000D01*
X90114Y230967D01*
X90206Y230891D01*
X90293Y230810D01*
X90328Y230790D01*
X90359Y230765D01*
X90467Y230714D01*
X90571Y230656D01*
X90611Y230646D01*
X90647Y230629D01*
X90764Y230607D01*
X90879Y230577D01*
X90939Y230573D01*
X90959Y230569D01*
X90980Y230571D01*
X91040Y230567D01*
X94377Y230567D01*
X94515Y230584D01*
X94653Y230597D01*
X94672Y230604D01*
X94692Y230607D01*
X94821Y230658D01*
X94952Y230705D01*
X94969Y230716D01*
X94988Y230724D01*
X95100Y230805D01*
X95215Y230883D01*
X95229Y230899D01*
X95245Y230910D01*
X95334Y231018D01*
X95426Y231122D01*
X95435Y231140D01*
X95448Y231155D01*
X95507Y231281D01*
X95570Y231405D01*
X95575Y231425D01*
X95584Y231443D01*
X95610Y231580D01*
X95640Y231715D01*
X95640Y231736D01*
X95643Y231755D01*
X95635Y231893D01*
X95630Y232033D01*
X95625Y232053D01*
X95624Y232073D01*
X95581Y232205D01*
X95542Y232339D01*
X95532Y232356D01*
X95526Y232375D01*
X95451Y232493D01*
X95381Y232613D01*
X95362Y232634D01*
X95355Y232644D01*
X95340Y232658D01*
X95274Y232733D01*
X94233Y233774D01*
X94233Y237142D01*
X96614Y239523D01*
X99982Y239523D01*
X101388Y238116D01*
X101466Y238056D01*
X101538Y237988D01*
X101591Y237959D01*
X101639Y237922D01*
X101730Y237882D01*
X101817Y237834D01*
X101875Y237819D01*
X101931Y237795D01*
X102029Y237780D01*
X102125Y237755D01*
X102225Y237749D01*
X102245Y237745D01*
X102257Y237747D01*
X102285Y237745D01*
X114855Y237745D01*
X141733Y210867D01*
X141733Y135813D01*
X141745Y135715D01*
X141748Y135616D01*
X141765Y135558D01*
X141773Y135498D01*
X141809Y135406D01*
X141837Y135311D01*
X141867Y135259D01*
X141890Y135202D01*
X141948Y135122D01*
X141998Y135037D01*
X142064Y134961D01*
X142076Y134945D01*
X142086Y134937D01*
X142104Y134916D01*
X143511Y133510D01*
X143511Y130142D01*
X141130Y127761D01*
X137762Y127761D01*
X135381Y130142D01*
X135381Y133510D01*
X136788Y134916D01*
X136848Y134994D01*
X136916Y135066D01*
X136945Y135119D01*
X136982Y135167D01*
X137022Y135258D01*
X137070Y135345D01*
X137085Y135403D01*
X137109Y135459D01*
X137124Y135557D01*
X137149Y135653D01*
X137155Y135753D01*
X137159Y135773D01*
X137157Y135785D01*
X137159Y135813D01*
X137159Y137999D01*
X137142Y138137D01*
X137129Y138275D01*
X137122Y138294D01*
X137119Y138314D01*
X137068Y138443D01*
X137021Y138574D01*
X137010Y138591D01*
X137002Y138610D01*
X136921Y138722D01*
X136843Y138837D01*
X136827Y138851D01*
X136816Y138867D01*
X136708Y138956D01*
X136604Y139048D01*
X136586Y139057D01*
X136571Y139070D01*
X136445Y139129D01*
X136321Y139192D01*
X136301Y139197D01*
X136283Y139206D01*
X136146Y139232D01*
X136011Y139262D01*
X135990Y139262D01*
X135971Y139265D01*
X135832Y139257D01*
X135693Y139252D01*
X135673Y139247D01*
X135653Y139246D01*
X135521Y139203D01*
X135387Y139164D01*
X135370Y139154D01*
X135351Y139148D01*
X135233Y139073D01*
X135113Y139003D01*
X135092Y138984D01*
X135082Y138977D01*
X135068Y138962D01*
X134993Y138896D01*
X134526Y138429D01*
X131158Y138429D01*
X129688Y139899D01*
X129594Y139972D01*
X129505Y140051D01*
X129469Y140069D01*
X129437Y140094D01*
X129328Y140142D01*
X129222Y140196D01*
X129182Y140205D01*
X129145Y140221D01*
X129027Y140239D01*
X128911Y140265D01*
X128871Y140264D01*
X128831Y140270D01*
X128712Y140259D01*
X128594Y140256D01*
X128555Y140244D01*
X128514Y140241D01*
X128402Y140200D01*
X128288Y140167D01*
X128253Y140147D01*
X128215Y140133D01*
X128116Y140066D01*
X128014Y140006D01*
X127969Y139966D01*
X127952Y139954D01*
X127939Y139939D01*
X127893Y139899D01*
X124578Y136585D01*
X122867Y134873D01*
X121081Y134873D01*
X120983Y134861D01*
X120884Y134858D01*
X120826Y134841D01*
X120766Y134833D01*
X120674Y134797D01*
X120579Y134769D01*
X120526Y134739D01*
X120470Y134716D01*
X120390Y134658D01*
X120305Y134608D01*
X120229Y134542D01*
X120213Y134530D01*
X120205Y134520D01*
X120184Y134502D01*
X118914Y133231D01*
X118829Y133122D01*
X118740Y133015D01*
X118731Y132996D01*
X118719Y132980D01*
X118663Y132852D01*
X118604Y132727D01*
X118601Y132707D01*
X118593Y132688D01*
X118571Y132550D01*
X118545Y132414D01*
X118546Y132394D01*
X118543Y132374D01*
X118556Y132235D01*
X118564Y132097D01*
X118571Y132078D01*
X118573Y132058D01*
X118620Y131926D01*
X118662Y131795D01*
X118673Y131777D01*
X118680Y131758D01*
X118758Y131643D01*
X118833Y131526D01*
X118847Y131512D01*
X118859Y131495D01*
X118963Y131403D01*
X119064Y131308D01*
X119082Y131298D01*
X119097Y131285D01*
X119221Y131221D01*
X119343Y131154D01*
X119362Y131149D01*
X119380Y131140D01*
X119516Y131110D01*
X119651Y131075D01*
X119679Y131073D01*
X119691Y131070D01*
X119711Y131071D01*
X119811Y131065D01*
X123604Y131065D01*
X125985Y128684D01*
X125985Y125316D01*
X123604Y122935D01*
X120236Y122935D01*
X118830Y124342D01*
X118752Y124402D01*
X118680Y124470D01*
X118627Y124499D01*
X118579Y124536D01*
X118488Y124576D01*
X118401Y124624D01*
X118343Y124639D01*
X118287Y124663D01*
X118189Y124678D01*
X118093Y124703D01*
X117993Y124709D01*
X117973Y124713D01*
X117961Y124711D01*
X117933Y124713D01*
X113607Y124713D01*
X108287Y130034D01*
X108208Y130094D01*
X108136Y130162D01*
X108083Y130191D01*
X108035Y130228D01*
X107944Y130268D01*
X107858Y130316D01*
X107799Y130331D01*
X107743Y130355D01*
X107645Y130370D01*
X107550Y130395D01*
X107450Y130401D01*
X107429Y130405D01*
X107417Y130403D01*
X107389Y130405D01*
X91040Y130405D01*
X90922Y130390D01*
X90803Y130383D01*
X90765Y130370D01*
X90724Y130365D01*
X90614Y130322D01*
X90501Y130285D01*
X90466Y130263D01*
X90429Y130248D01*
X90333Y130179D01*
X90232Y130115D01*
X90204Y130085D01*
X90171Y130062D01*
X90095Y129970D01*
X90014Y129883D01*
X89994Y129848D01*
X89969Y129817D01*
X89918Y129709D01*
X89860Y129605D01*
X89850Y129565D01*
X89833Y129529D01*
X89811Y129412D01*
X89781Y129297D01*
X89777Y129237D01*
X89773Y129217D01*
X89775Y129196D01*
X89771Y129136D01*
X89771Y111221D01*
X88729Y110179D01*
X72148Y110179D01*
X72030Y110164D01*
X71911Y110157D01*
X71873Y110144D01*
X71832Y110139D01*
X71722Y110096D01*
X71609Y110059D01*
X71574Y110037D01*
X71537Y110022D01*
X71441Y109953D01*
X71340Y109889D01*
X71312Y109859D01*
X71279Y109836D01*
X71203Y109744D01*
X71122Y109657D01*
X71102Y109622D01*
X71077Y109591D01*
X71026Y109483D01*
X70968Y109379D01*
X70958Y109339D01*
X70941Y109303D01*
X70919Y109186D01*
X70889Y109071D01*
X70885Y109011D01*
X70881Y108991D01*
X70883Y108970D01*
X70879Y108910D01*
X70879Y108014D01*
X70894Y107896D01*
X70901Y107777D01*
X70914Y107739D01*
X70919Y107698D01*
X70962Y107588D01*
X70999Y107475D01*
X71021Y107440D01*
X71036Y107403D01*
X71105Y107307D01*
X71169Y107206D01*
X71199Y107178D01*
X71222Y107145D01*
X71314Y107069D01*
X71401Y106988D01*
X71436Y106968D01*
X71467Y106943D01*
X71575Y106892D01*
X71679Y106834D01*
X71719Y106824D01*
X71755Y106807D01*
X71872Y106785D01*
X71987Y106755D01*
X72047Y106751D01*
X72067Y106747D01*
X72088Y106749D01*
X72148Y106745D01*
X96860Y106745D01*
X96947Y106756D01*
X97035Y106757D01*
X97088Y106771D01*
X98514Y106745D01*
X98522Y106746D01*
X98538Y106745D01*
X99967Y106745D01*
X100030Y106727D01*
X100160Y106717D01*
X100173Y106714D01*
X100179Y106715D01*
X100191Y106714D01*
X100544Y106708D01*
X104018Y104752D01*
X106149Y101383D01*
X106182Y100911D01*
X106193Y100857D01*
X106194Y100802D01*
X106224Y100701D01*
X106244Y100599D01*
X106268Y100549D01*
X106283Y100496D01*
X106295Y100476D01*
X106295Y99342D01*
X106297Y99320D01*
X106298Y99253D01*
X106377Y98120D01*
X106358Y98048D01*
X106324Y97949D01*
X106319Y97894D01*
X106305Y97841D01*
X106295Y97680D01*
X106295Y80264D01*
X106310Y80146D01*
X106317Y80027D01*
X106330Y79989D01*
X106335Y79948D01*
X106378Y79838D01*
X106415Y79725D01*
X106437Y79690D01*
X106452Y79653D01*
X106521Y79557D01*
X106585Y79456D01*
X106615Y79428D01*
X106638Y79395D01*
X106730Y79319D01*
X106817Y79238D01*
X106852Y79218D01*
X106883Y79193D01*
X106991Y79142D01*
X107095Y79084D01*
X107135Y79074D01*
X107171Y79057D01*
X107288Y79035D01*
X107403Y79005D01*
X107463Y79001D01*
X107483Y78997D01*
X107504Y78999D01*
X107564Y78995D01*
X491078Y78995D01*
X491196Y79010D01*
G37*
%LPC*%
G36*
X588155Y87375D02*
X588155Y87375D01*
X587120Y88410D01*
X587120Y91186D01*
X587105Y91304D01*
X587098Y91423D01*
X587085Y91461D01*
X587080Y91502D01*
X587037Y91612D01*
X587000Y91725D01*
X586978Y91760D01*
X586963Y91797D01*
X586894Y91893D01*
X586830Y91994D01*
X586800Y92022D01*
X586777Y92055D01*
X586685Y92131D01*
X586598Y92212D01*
X586563Y92232D01*
X586532Y92257D01*
X586424Y92308D01*
X586320Y92366D01*
X586280Y92376D01*
X586244Y92393D01*
X586127Y92415D01*
X586012Y92445D01*
X585952Y92449D01*
X585932Y92453D01*
X585911Y92451D01*
X585851Y92455D01*
X575274Y92455D01*
X573414Y94315D01*
X544712Y123017D01*
X544617Y123090D01*
X544528Y123169D01*
X544492Y123187D01*
X544460Y123212D01*
X544351Y123260D01*
X544245Y123314D01*
X544206Y123323D01*
X544168Y123339D01*
X544051Y123357D01*
X543935Y123383D01*
X543894Y123382D01*
X543854Y123388D01*
X543736Y123377D01*
X543617Y123374D01*
X543578Y123362D01*
X543538Y123359D01*
X543425Y123318D01*
X543311Y123285D01*
X543277Y123265D01*
X543238Y123251D01*
X543140Y123184D01*
X543037Y123124D01*
X542992Y123084D01*
X542975Y123072D01*
X542962Y123057D01*
X542917Y123017D01*
X541564Y121665D01*
X246852Y121665D01*
X228599Y139918D01*
X228599Y194056D01*
X228584Y194174D01*
X228577Y194293D01*
X228564Y194331D01*
X228559Y194372D01*
X228516Y194482D01*
X228479Y194595D01*
X228457Y194630D01*
X228442Y194667D01*
X228373Y194763D01*
X228309Y194864D01*
X228279Y194892D01*
X228256Y194925D01*
X228164Y195001D01*
X228077Y195082D01*
X228042Y195102D01*
X228011Y195127D01*
X227903Y195178D01*
X227799Y195236D01*
X227759Y195246D01*
X227723Y195263D01*
X227650Y195277D01*
X226831Y196097D01*
X226737Y196169D01*
X226647Y196248D01*
X226611Y196267D01*
X226579Y196291D01*
X226470Y196339D01*
X226364Y196393D01*
X226325Y196402D01*
X226287Y196418D01*
X226170Y196437D01*
X226054Y196463D01*
X226013Y196461D01*
X225973Y196468D01*
X225855Y196457D01*
X225736Y196453D01*
X225697Y196442D01*
X225657Y196438D01*
X225544Y196398D01*
X225430Y196364D01*
X225396Y196344D01*
X225357Y196330D01*
X225259Y196263D01*
X225156Y196203D01*
X225111Y196163D01*
X225094Y196152D01*
X225081Y196136D01*
X225036Y196097D01*
X224264Y195325D01*
X217188Y195325D01*
X216153Y196360D01*
X216153Y209532D01*
X217227Y210606D01*
X217232Y210607D01*
X217342Y210650D01*
X217455Y210687D01*
X217490Y210709D01*
X217527Y210724D01*
X217623Y210793D01*
X217724Y210857D01*
X217752Y210887D01*
X217785Y210910D01*
X217861Y211002D01*
X217942Y211089D01*
X217962Y211124D01*
X217987Y211155D01*
X218038Y211263D01*
X218096Y211367D01*
X218106Y211407D01*
X218123Y211443D01*
X218145Y211560D01*
X218175Y211675D01*
X218179Y211735D01*
X218183Y211755D01*
X218181Y211776D01*
X218185Y211836D01*
X218185Y219787D01*
X218173Y219885D01*
X218170Y219984D01*
X218153Y220042D01*
X218145Y220102D01*
X218109Y220194D01*
X218081Y220289D01*
X218051Y220341D01*
X218028Y220398D01*
X217970Y220478D01*
X217920Y220563D01*
X217854Y220639D01*
X217842Y220655D01*
X217832Y220663D01*
X217814Y220684D01*
X216915Y221582D01*
X216915Y224950D01*
X219296Y227331D01*
X222664Y227331D01*
X225045Y224950D01*
X225045Y221582D01*
X223638Y220176D01*
X223578Y220098D01*
X223510Y220026D01*
X223481Y219973D01*
X223444Y219925D01*
X223404Y219834D01*
X223356Y219747D01*
X223341Y219689D01*
X223317Y219633D01*
X223302Y219535D01*
X223277Y219439D01*
X223271Y219339D01*
X223267Y219319D01*
X223269Y219307D01*
X223267Y219279D01*
X223267Y211836D01*
X223282Y211718D01*
X223289Y211599D01*
X223302Y211561D01*
X223307Y211520D01*
X223350Y211410D01*
X223387Y211297D01*
X223409Y211262D01*
X223424Y211225D01*
X223493Y211129D01*
X223557Y211028D01*
X223587Y211000D01*
X223610Y210967D01*
X223702Y210891D01*
X223789Y210810D01*
X223824Y210790D01*
X223855Y210765D01*
X223963Y210714D01*
X224067Y210656D01*
X224107Y210646D01*
X224143Y210629D01*
X224216Y210615D01*
X225036Y209795D01*
X225130Y209722D01*
X225219Y209644D01*
X225255Y209625D01*
X225287Y209601D01*
X225396Y209553D01*
X225502Y209499D01*
X225541Y209490D01*
X225579Y209474D01*
X225696Y209455D01*
X225812Y209429D01*
X225853Y209431D01*
X225893Y209424D01*
X226011Y209435D01*
X226130Y209439D01*
X226169Y209450D01*
X226209Y209454D01*
X226321Y209494D01*
X226436Y209528D01*
X226471Y209548D01*
X226509Y209562D01*
X226607Y209629D01*
X226710Y209689D01*
X226755Y209729D01*
X226772Y209740D01*
X226785Y209756D01*
X226831Y209795D01*
X227641Y210606D01*
X227646Y210607D01*
X227756Y210650D01*
X227869Y210687D01*
X227904Y210709D01*
X227941Y210724D01*
X228037Y210793D01*
X228138Y210857D01*
X228166Y210887D01*
X228199Y210910D01*
X228275Y211002D01*
X228356Y211089D01*
X228376Y211124D01*
X228401Y211155D01*
X228452Y211263D01*
X228510Y211367D01*
X228520Y211407D01*
X228537Y211443D01*
X228559Y211560D01*
X228589Y211675D01*
X228593Y211735D01*
X228597Y211755D01*
X228595Y211776D01*
X228599Y211836D01*
X228599Y288290D01*
X228584Y288408D01*
X228577Y288527D01*
X228564Y288565D01*
X228559Y288606D01*
X228516Y288716D01*
X228479Y288829D01*
X228457Y288864D01*
X228442Y288901D01*
X228373Y288997D01*
X228309Y289098D01*
X228279Y289126D01*
X228256Y289159D01*
X228164Y289235D01*
X228077Y289316D01*
X228042Y289336D01*
X228011Y289361D01*
X227903Y289412D01*
X227799Y289470D01*
X227759Y289480D01*
X227723Y289497D01*
X227606Y289519D01*
X227491Y289549D01*
X227431Y289553D01*
X227411Y289557D01*
X227390Y289555D01*
X227330Y289559D01*
X189153Y289559D01*
X189055Y289547D01*
X188956Y289544D01*
X188898Y289527D01*
X188838Y289519D01*
X188746Y289483D01*
X188651Y289455D01*
X188598Y289425D01*
X188542Y289402D01*
X188462Y289344D01*
X188377Y289294D01*
X188301Y289228D01*
X188285Y289216D01*
X188277Y289206D01*
X188256Y289188D01*
X187104Y288035D01*
X183736Y288035D01*
X181355Y290416D01*
X181355Y293784D01*
X183736Y296165D01*
X187104Y296165D01*
X188256Y295012D01*
X188334Y294952D01*
X188406Y294884D01*
X188459Y294855D01*
X188507Y294818D01*
X188598Y294778D01*
X188685Y294730D01*
X188743Y294715D01*
X188799Y294691D01*
X188897Y294676D01*
X188993Y294651D01*
X189093Y294645D01*
X189113Y294641D01*
X189125Y294643D01*
X189153Y294641D01*
X295602Y294641D01*
X295700Y294653D01*
X295799Y294656D01*
X295857Y294673D01*
X295917Y294681D01*
X296009Y294717D01*
X296105Y294745D01*
X296157Y294775D01*
X296213Y294798D01*
X296293Y294856D01*
X296378Y294906D01*
X296454Y294972D01*
X296470Y294984D01*
X296478Y294994D01*
X296499Y295012D01*
X316462Y314975D01*
X316504Y314976D01*
X316562Y314993D01*
X316622Y315001D01*
X316714Y315037D01*
X316809Y315065D01*
X316861Y315095D01*
X316918Y315118D01*
X316998Y315176D01*
X317083Y315226D01*
X317159Y315292D01*
X317175Y315304D01*
X317183Y315314D01*
X317204Y315332D01*
X318356Y316485D01*
X321724Y316485D01*
X324105Y314104D01*
X324105Y310736D01*
X321724Y308355D01*
X318249Y308355D01*
X318229Y308364D01*
X318123Y308418D01*
X318084Y308427D01*
X318047Y308443D01*
X317929Y308462D01*
X317813Y308488D01*
X317773Y308487D01*
X317733Y308493D01*
X317614Y308482D01*
X317495Y308478D01*
X317456Y308467D01*
X317416Y308463D01*
X317304Y308423D01*
X317190Y308390D01*
X317155Y308369D01*
X317117Y308356D01*
X317018Y308289D01*
X316916Y308228D01*
X316871Y308188D01*
X316854Y308177D01*
X316840Y308162D01*
X316795Y308122D01*
X298232Y289559D01*
X234950Y289559D01*
X234832Y289544D01*
X234713Y289537D01*
X234675Y289524D01*
X234634Y289519D01*
X234524Y289476D01*
X234411Y289439D01*
X234376Y289417D01*
X234339Y289402D01*
X234243Y289333D01*
X234142Y289269D01*
X234114Y289239D01*
X234081Y289216D01*
X234005Y289124D01*
X233924Y289037D01*
X233904Y289002D01*
X233879Y288971D01*
X233828Y288863D01*
X233770Y288759D01*
X233760Y288719D01*
X233743Y288683D01*
X233721Y288566D01*
X233691Y288451D01*
X233687Y288391D01*
X233683Y288371D01*
X233685Y288350D01*
X233681Y288290D01*
X233681Y211836D01*
X233696Y211718D01*
X233703Y211599D01*
X233716Y211561D01*
X233721Y211520D01*
X233764Y211410D01*
X233801Y211297D01*
X233823Y211262D01*
X233838Y211225D01*
X233907Y211129D01*
X233971Y211028D01*
X234001Y211000D01*
X234024Y210967D01*
X234116Y210891D01*
X234203Y210810D01*
X234238Y210790D01*
X234269Y210765D01*
X234377Y210714D01*
X234481Y210656D01*
X234521Y210646D01*
X234557Y210629D01*
X234630Y210615D01*
X235450Y209795D01*
X235544Y209722D01*
X235633Y209644D01*
X235669Y209625D01*
X235701Y209601D01*
X235810Y209553D01*
X235916Y209499D01*
X235955Y209490D01*
X235993Y209474D01*
X236110Y209455D01*
X236226Y209429D01*
X236267Y209431D01*
X236307Y209424D01*
X236425Y209435D01*
X236544Y209439D01*
X236583Y209450D01*
X236623Y209454D01*
X236735Y209494D01*
X236850Y209528D01*
X236885Y209548D01*
X236923Y209562D01*
X237021Y209629D01*
X237124Y209689D01*
X237169Y209729D01*
X237186Y209740D01*
X237199Y209756D01*
X237245Y209795D01*
X238055Y210606D01*
X238060Y210607D01*
X238170Y210650D01*
X238283Y210687D01*
X238318Y210709D01*
X238355Y210724D01*
X238451Y210793D01*
X238552Y210857D01*
X238580Y210887D01*
X238613Y210910D01*
X238689Y211002D01*
X238770Y211089D01*
X238790Y211124D01*
X238815Y211155D01*
X238866Y211263D01*
X238924Y211367D01*
X238934Y211407D01*
X238951Y211443D01*
X238973Y211560D01*
X239003Y211675D01*
X239007Y211735D01*
X239011Y211755D01*
X239009Y211776D01*
X239013Y211836D01*
X239013Y219533D01*
X239001Y219631D01*
X238998Y219730D01*
X238981Y219788D01*
X238973Y219848D01*
X238937Y219940D01*
X238909Y220035D01*
X238879Y220087D01*
X238856Y220144D01*
X238798Y220224D01*
X238748Y220309D01*
X238682Y220385D01*
X238670Y220401D01*
X238660Y220409D01*
X238642Y220430D01*
X237235Y221836D01*
X237235Y225204D01*
X239616Y227585D01*
X242984Y227585D01*
X245365Y225204D01*
X245365Y221836D01*
X244466Y220938D01*
X244406Y220860D01*
X244338Y220788D01*
X244309Y220735D01*
X244272Y220687D01*
X244232Y220596D01*
X244184Y220509D01*
X244169Y220451D01*
X244145Y220395D01*
X244130Y220297D01*
X244105Y220201D01*
X244099Y220101D01*
X244095Y220081D01*
X244097Y220069D01*
X244095Y220041D01*
X244095Y211836D01*
X244110Y211718D01*
X244117Y211599D01*
X244130Y211561D01*
X244135Y211520D01*
X244178Y211410D01*
X244215Y211297D01*
X244237Y211262D01*
X244252Y211225D01*
X244321Y211129D01*
X244385Y211028D01*
X244415Y211000D01*
X244438Y210967D01*
X244530Y210891D01*
X244617Y210810D01*
X244652Y210790D01*
X244683Y210765D01*
X244791Y210714D01*
X244895Y210656D01*
X244935Y210646D01*
X244971Y210629D01*
X245044Y210615D01*
X246127Y209532D01*
X246127Y196360D01*
X245092Y195325D01*
X238016Y195325D01*
X237245Y196097D01*
X237151Y196169D01*
X237061Y196248D01*
X237025Y196267D01*
X236993Y196291D01*
X236884Y196339D01*
X236778Y196393D01*
X236739Y196402D01*
X236701Y196418D01*
X236584Y196437D01*
X236468Y196463D01*
X236427Y196461D01*
X236387Y196468D01*
X236269Y196457D01*
X236150Y196453D01*
X236111Y196442D01*
X236071Y196438D01*
X235958Y196398D01*
X235844Y196364D01*
X235810Y196344D01*
X235771Y196330D01*
X235673Y196263D01*
X235570Y196203D01*
X235525Y196163D01*
X235508Y196152D01*
X235495Y196136D01*
X235450Y196097D01*
X234639Y195286D01*
X234634Y195285D01*
X234524Y195242D01*
X234411Y195205D01*
X234376Y195183D01*
X234339Y195168D01*
X234243Y195099D01*
X234142Y195035D01*
X234114Y195005D01*
X234081Y194982D01*
X234005Y194890D01*
X233924Y194803D01*
X233904Y194768D01*
X233879Y194737D01*
X233828Y194629D01*
X233770Y194525D01*
X233760Y194485D01*
X233743Y194449D01*
X233721Y194332D01*
X233691Y194217D01*
X233687Y194157D01*
X233683Y194137D01*
X233685Y194116D01*
X233681Y194056D01*
X233681Y142548D01*
X233693Y142450D01*
X233696Y142351D01*
X233713Y142293D01*
X233721Y142233D01*
X233757Y142141D01*
X233785Y142045D01*
X233815Y141993D01*
X233838Y141937D01*
X233896Y141857D01*
X233946Y141772D01*
X234012Y141696D01*
X234024Y141680D01*
X234034Y141672D01*
X234052Y141651D01*
X248585Y127118D01*
X248663Y127058D01*
X248735Y126990D01*
X248788Y126961D01*
X248836Y126924D01*
X248927Y126884D01*
X249014Y126836D01*
X249072Y126821D01*
X249128Y126797D01*
X249226Y126782D01*
X249321Y126757D01*
X249422Y126751D01*
X249442Y126747D01*
X249454Y126749D01*
X249482Y126747D01*
X331470Y126747D01*
X331588Y126762D01*
X331707Y126769D01*
X331745Y126782D01*
X331786Y126787D01*
X331896Y126830D01*
X332009Y126867D01*
X332044Y126889D01*
X332081Y126904D01*
X332177Y126973D01*
X332278Y127037D01*
X332306Y127067D01*
X332339Y127090D01*
X332415Y127182D01*
X332496Y127269D01*
X332516Y127304D01*
X332541Y127335D01*
X332592Y127443D01*
X332650Y127547D01*
X332660Y127587D01*
X332677Y127623D01*
X332699Y127740D01*
X332729Y127855D01*
X332733Y127915D01*
X332737Y127935D01*
X332735Y127956D01*
X332739Y128016D01*
X332739Y133427D01*
X332727Y133525D01*
X332724Y133624D01*
X332707Y133682D01*
X332699Y133742D01*
X332663Y133834D01*
X332635Y133929D01*
X332605Y133981D01*
X332582Y134038D01*
X332524Y134118D01*
X332474Y134203D01*
X332408Y134279D01*
X332396Y134295D01*
X332386Y134303D01*
X332368Y134324D01*
X331215Y135476D01*
X331215Y138844D01*
X333596Y141225D01*
X336964Y141225D01*
X339345Y138844D01*
X339345Y135476D01*
X338192Y134324D01*
X338132Y134246D01*
X338064Y134174D01*
X338035Y134121D01*
X337998Y134073D01*
X337958Y133982D01*
X337910Y133895D01*
X337895Y133837D01*
X337871Y133781D01*
X337856Y133683D01*
X337831Y133587D01*
X337825Y133487D01*
X337821Y133467D01*
X337823Y133455D01*
X337821Y133427D01*
X337821Y128016D01*
X337836Y127898D01*
X337843Y127779D01*
X337856Y127741D01*
X337861Y127700D01*
X337904Y127590D01*
X337941Y127477D01*
X337963Y127442D01*
X337978Y127405D01*
X338047Y127309D01*
X338111Y127208D01*
X338141Y127180D01*
X338164Y127147D01*
X338256Y127071D01*
X338343Y126990D01*
X338378Y126970D01*
X338409Y126945D01*
X338517Y126894D01*
X338621Y126836D01*
X338661Y126826D01*
X338697Y126809D01*
X338814Y126787D01*
X338929Y126757D01*
X338989Y126753D01*
X339009Y126749D01*
X339030Y126751D01*
X339090Y126747D01*
X493091Y126747D01*
X493228Y126764D01*
X493367Y126777D01*
X493386Y126784D01*
X493406Y126787D01*
X493535Y126838D01*
X493666Y126885D01*
X493683Y126896D01*
X493702Y126904D01*
X493814Y126985D01*
X493929Y127063D01*
X493943Y127079D01*
X493959Y127090D01*
X494048Y127198D01*
X494140Y127302D01*
X494149Y127320D01*
X494162Y127335D01*
X494221Y127461D01*
X494284Y127585D01*
X494289Y127605D01*
X494298Y127623D01*
X494324Y127760D01*
X494354Y127895D01*
X494354Y127916D01*
X494357Y127935D01*
X494349Y128074D01*
X494344Y128213D01*
X494339Y128233D01*
X494338Y128253D01*
X494295Y128385D01*
X494256Y128519D01*
X494246Y128536D01*
X494240Y128555D01*
X494165Y128673D01*
X494095Y128793D01*
X494076Y128814D01*
X494069Y128824D01*
X494054Y128838D01*
X493988Y128913D01*
X492505Y130396D01*
X492505Y133764D01*
X493912Y135170D01*
X493972Y135248D01*
X494040Y135320D01*
X494069Y135373D01*
X494106Y135421D01*
X494146Y135512D01*
X494194Y135599D01*
X494209Y135657D01*
X494233Y135713D01*
X494248Y135811D01*
X494273Y135907D01*
X494279Y136007D01*
X494283Y136027D01*
X494281Y136039D01*
X494283Y136067D01*
X494283Y167386D01*
X494268Y167504D01*
X494261Y167623D01*
X494248Y167661D01*
X494243Y167702D01*
X494200Y167812D01*
X494163Y167925D01*
X494141Y167960D01*
X494126Y167997D01*
X494057Y168093D01*
X493993Y168194D01*
X493963Y168222D01*
X493940Y168255D01*
X493848Y168331D01*
X493761Y168412D01*
X493726Y168432D01*
X493695Y168457D01*
X493587Y168508D01*
X493483Y168566D01*
X493443Y168576D01*
X493407Y168593D01*
X493290Y168615D01*
X493175Y168645D01*
X493115Y168649D01*
X493095Y168653D01*
X493074Y168651D01*
X493014Y168655D01*
X491076Y168655D01*
X488695Y171036D01*
X488695Y174404D01*
X491076Y176785D01*
X494444Y176785D01*
X496825Y174404D01*
X496825Y172415D01*
X496837Y172317D01*
X496840Y172218D01*
X496857Y172160D01*
X496865Y172099D01*
X496901Y172007D01*
X496929Y171912D01*
X496959Y171860D01*
X496982Y171804D01*
X497040Y171724D01*
X497090Y171638D01*
X497156Y171563D01*
X497168Y171546D01*
X497178Y171539D01*
X497196Y171517D01*
X498857Y169857D01*
X498857Y136067D01*
X498869Y135969D01*
X498872Y135870D01*
X498889Y135812D01*
X498897Y135752D01*
X498933Y135660D01*
X498961Y135565D01*
X498991Y135513D01*
X499014Y135456D01*
X499072Y135376D01*
X499122Y135291D01*
X499188Y135215D01*
X499200Y135199D01*
X499210Y135191D01*
X499228Y135170D01*
X500635Y133764D01*
X500635Y130396D01*
X499152Y128913D01*
X499067Y128804D01*
X498978Y128697D01*
X498969Y128678D01*
X498957Y128662D01*
X498901Y128534D01*
X498842Y128409D01*
X498839Y128389D01*
X498831Y128370D01*
X498809Y128232D01*
X498783Y128096D01*
X498784Y128076D01*
X498781Y128056D01*
X498794Y127917D01*
X498802Y127779D01*
X498809Y127760D01*
X498811Y127740D01*
X498858Y127608D01*
X498900Y127477D01*
X498911Y127459D01*
X498918Y127440D01*
X498996Y127325D01*
X499071Y127208D01*
X499085Y127194D01*
X499097Y127177D01*
X499201Y127085D01*
X499302Y126990D01*
X499320Y126980D01*
X499335Y126967D01*
X499459Y126903D01*
X499581Y126836D01*
X499600Y126831D01*
X499618Y126822D01*
X499754Y126792D01*
X499889Y126757D01*
X499917Y126755D01*
X499929Y126752D01*
X499949Y126753D01*
X500049Y126747D01*
X538934Y126747D01*
X539032Y126759D01*
X539131Y126762D01*
X539170Y126773D01*
X539210Y126777D01*
X539229Y126784D01*
X539249Y126787D01*
X539341Y126823D01*
X539437Y126851D01*
X539471Y126871D01*
X539509Y126885D01*
X539526Y126896D01*
X539545Y126904D01*
X539625Y126962D01*
X539710Y127012D01*
X539756Y127052D01*
X539773Y127063D01*
X539786Y127079D01*
X539802Y127090D01*
X539810Y127100D01*
X539831Y127118D01*
X539831Y127119D01*
X539904Y127213D01*
X539983Y127302D01*
X539992Y127320D01*
X540005Y127335D01*
X540014Y127354D01*
X540026Y127370D01*
X540074Y127479D01*
X540128Y127585D01*
X540132Y127605D01*
X540141Y127623D01*
X540145Y127643D01*
X540153Y127662D01*
X540171Y127779D01*
X540197Y127895D01*
X540197Y127916D01*
X540201Y127935D01*
X540199Y127955D01*
X540202Y127976D01*
X540191Y128094D01*
X540188Y128213D01*
X540182Y128233D01*
X540181Y128253D01*
X540175Y128272D01*
X540173Y128292D01*
X540132Y128405D01*
X540099Y128519D01*
X540089Y128536D01*
X540083Y128555D01*
X540072Y128572D01*
X540065Y128592D01*
X539998Y128690D01*
X539938Y128793D01*
X539919Y128814D01*
X539913Y128824D01*
X539898Y128838D01*
X539886Y128855D01*
X539871Y128868D01*
X539831Y128914D01*
X531957Y136788D01*
X531879Y136848D01*
X531807Y136916D01*
X531754Y136945D01*
X531706Y136982D01*
X531615Y137022D01*
X531528Y137070D01*
X531470Y137085D01*
X531414Y137109D01*
X531316Y137124D01*
X531221Y137149D01*
X531120Y137155D01*
X531100Y137159D01*
X531088Y137157D01*
X531060Y137159D01*
X529430Y137159D01*
X527049Y139540D01*
X527049Y142908D01*
X527770Y143629D01*
X527855Y143738D01*
X527944Y143845D01*
X527953Y143864D01*
X527965Y143880D01*
X528020Y144007D01*
X528080Y144133D01*
X528083Y144153D01*
X528091Y144172D01*
X528113Y144310D01*
X528139Y144446D01*
X528138Y144466D01*
X528141Y144486D01*
X528128Y144625D01*
X528120Y144763D01*
X528113Y144782D01*
X528111Y144802D01*
X528064Y144934D01*
X528022Y145065D01*
X528011Y145083D01*
X528004Y145102D01*
X527926Y145217D01*
X527851Y145334D01*
X527837Y145348D01*
X527825Y145365D01*
X527721Y145457D01*
X527620Y145552D01*
X527602Y145562D01*
X527587Y145575D01*
X527463Y145638D01*
X527341Y145706D01*
X527322Y145711D01*
X527304Y145720D01*
X527168Y145750D01*
X527033Y145785D01*
X527005Y145787D01*
X526993Y145790D01*
X526973Y145789D01*
X526873Y145795D01*
X524510Y145795D01*
X524392Y145780D01*
X524273Y145773D01*
X524235Y145760D01*
X524194Y145755D01*
X524084Y145712D01*
X523971Y145675D01*
X523936Y145653D01*
X523899Y145638D01*
X523803Y145569D01*
X523702Y145505D01*
X523674Y145475D01*
X523641Y145452D01*
X523565Y145360D01*
X523484Y145273D01*
X523464Y145238D01*
X523439Y145207D01*
X523388Y145099D01*
X523330Y144995D01*
X523320Y144955D01*
X523303Y144919D01*
X523281Y144802D01*
X523251Y144687D01*
X523247Y144627D01*
X523243Y144607D01*
X523245Y144586D01*
X523241Y144526D01*
X523241Y143573D01*
X514668Y143573D01*
X514549Y143558D01*
X514431Y143550D01*
X514392Y143538D01*
X514352Y143533D01*
X514338Y143527D01*
X514308Y143533D01*
X514193Y143563D01*
X514133Y143566D01*
X514113Y143570D01*
X514092Y143569D01*
X514032Y143573D01*
X505459Y143573D01*
X505459Y145054D01*
X505667Y145830D01*
X506068Y146525D01*
X506358Y146814D01*
X506418Y146892D01*
X506486Y146964D01*
X506515Y147017D01*
X506552Y147065D01*
X506592Y147156D01*
X506640Y147243D01*
X506655Y147302D01*
X506679Y147357D01*
X506694Y147455D01*
X506719Y147551D01*
X506725Y147651D01*
X506729Y147671D01*
X506727Y147684D01*
X506729Y147712D01*
X506729Y153518D01*
X507771Y154560D01*
X520929Y154560D01*
X521933Y153556D01*
X522027Y153483D01*
X522116Y153404D01*
X522152Y153386D01*
X522184Y153361D01*
X522293Y153314D01*
X522399Y153260D01*
X522439Y153251D01*
X522476Y153235D01*
X522594Y153216D01*
X522709Y153190D01*
X522750Y153191D01*
X522790Y153185D01*
X522908Y153196D01*
X523027Y153200D01*
X523066Y153211D01*
X523106Y153215D01*
X523218Y153255D01*
X523333Y153288D01*
X523368Y153309D01*
X523406Y153322D01*
X523504Y153389D01*
X523607Y153450D01*
X523652Y153489D01*
X523669Y153501D01*
X523682Y153516D01*
X523728Y153556D01*
X524215Y154043D01*
X524270Y154063D01*
X524286Y154074D01*
X524305Y154082D01*
X524417Y154163D01*
X524533Y154241D01*
X524546Y154257D01*
X524562Y154268D01*
X524651Y154376D01*
X524743Y154480D01*
X524752Y154498D01*
X524765Y154513D01*
X524824Y154639D01*
X524888Y154763D01*
X524892Y154783D01*
X524901Y154801D01*
X524927Y154937D01*
X524957Y155073D01*
X524957Y155094D01*
X524961Y155113D01*
X524952Y155252D01*
X524948Y155391D01*
X524942Y155411D01*
X524941Y155431D01*
X524898Y155563D01*
X524859Y155697D01*
X524849Y155714D01*
X524843Y155733D01*
X524768Y155851D01*
X524698Y155971D01*
X524679Y155992D01*
X524673Y156002D01*
X524658Y156016D01*
X524591Y156091D01*
X496315Y184368D01*
X496315Y196927D01*
X496303Y197025D01*
X496300Y197124D01*
X496283Y197182D01*
X496275Y197242D01*
X496239Y197334D01*
X496211Y197429D01*
X496181Y197481D01*
X496158Y197538D01*
X496100Y197618D01*
X496050Y197703D01*
X495984Y197779D01*
X495972Y197795D01*
X495962Y197803D01*
X495944Y197824D01*
X494791Y198976D01*
X494791Y202344D01*
X497172Y204725D01*
X500540Y204725D01*
X501895Y203369D01*
X501990Y203296D01*
X502079Y203217D01*
X502115Y203199D01*
X502147Y203174D01*
X502256Y203127D01*
X502362Y203073D01*
X502401Y203064D01*
X502439Y203048D01*
X502556Y203029D01*
X502672Y203003D01*
X502713Y203004D01*
X502753Y202998D01*
X502871Y203009D01*
X502990Y203013D01*
X503029Y203024D01*
X503069Y203028D01*
X503182Y203068D01*
X503296Y203101D01*
X503330Y203121D01*
X503369Y203135D01*
X503467Y203202D01*
X503570Y203262D01*
X503615Y203302D01*
X503632Y203314D01*
X503645Y203329D01*
X503690Y203369D01*
X506316Y205995D01*
X509684Y205995D01*
X512065Y203614D01*
X512065Y200246D01*
X510658Y198840D01*
X510598Y198762D01*
X510530Y198690D01*
X510501Y198637D01*
X510464Y198589D01*
X510424Y198498D01*
X510376Y198411D01*
X510361Y198353D01*
X510337Y198297D01*
X510322Y198199D01*
X510297Y198103D01*
X510291Y198003D01*
X510287Y197983D01*
X510289Y197971D01*
X510287Y197943D01*
X510287Y184353D01*
X510299Y184255D01*
X510302Y184156D01*
X510319Y184098D01*
X510327Y184037D01*
X510363Y183945D01*
X510391Y183850D01*
X510417Y183806D01*
X510418Y183803D01*
X510422Y183795D01*
X510444Y183742D01*
X510502Y183662D01*
X510552Y183576D01*
X510584Y183540D01*
X510588Y183534D01*
X510595Y183527D01*
X510618Y183501D01*
X510630Y183484D01*
X510640Y183477D01*
X510658Y183455D01*
X541529Y152585D01*
X541529Y147497D01*
X541541Y147399D01*
X541544Y147300D01*
X541561Y147242D01*
X541569Y147182D01*
X541605Y147090D01*
X541633Y146995D01*
X541663Y146943D01*
X541686Y146886D01*
X541744Y146806D01*
X541794Y146721D01*
X541860Y146645D01*
X541872Y146629D01*
X541882Y146621D01*
X541900Y146600D01*
X543307Y145194D01*
X543307Y141826D01*
X540926Y139445D01*
X539550Y139445D01*
X539413Y139428D01*
X539274Y139415D01*
X539255Y139408D01*
X539235Y139405D01*
X539106Y139354D01*
X538974Y139307D01*
X538958Y139296D01*
X538939Y139288D01*
X538827Y139207D01*
X538711Y139129D01*
X538698Y139113D01*
X538682Y139102D01*
X538593Y138994D01*
X538501Y138890D01*
X538492Y138872D01*
X538479Y138857D01*
X538420Y138731D01*
X538356Y138607D01*
X538352Y138587D01*
X538343Y138569D01*
X538317Y138433D01*
X538287Y138297D01*
X538287Y138276D01*
X538283Y138257D01*
X538292Y138118D01*
X538296Y137979D01*
X538302Y137959D01*
X538303Y137939D01*
X538346Y137807D01*
X538385Y137673D01*
X538395Y137656D01*
X538401Y137637D01*
X538476Y137519D01*
X538546Y137399D01*
X538565Y137378D01*
X538571Y137368D01*
X538586Y137354D01*
X538653Y137279D01*
X545003Y130928D01*
X546863Y129068D01*
X546863Y128578D01*
X546875Y128480D01*
X546878Y128381D01*
X546895Y128323D01*
X546903Y128263D01*
X546939Y128171D01*
X546967Y128075D01*
X546997Y128023D01*
X547020Y127967D01*
X547078Y127887D01*
X547128Y127801D01*
X547194Y127726D01*
X547206Y127710D01*
X547216Y127702D01*
X547234Y127681D01*
X577007Y97908D01*
X577085Y97848D01*
X577157Y97780D01*
X577210Y97751D01*
X577258Y97714D01*
X577349Y97674D01*
X577436Y97626D01*
X577494Y97611D01*
X577550Y97587D01*
X577648Y97572D01*
X577743Y97547D01*
X577844Y97541D01*
X577864Y97537D01*
X577876Y97539D01*
X577904Y97537D01*
X585851Y97537D01*
X585969Y97552D01*
X586088Y97559D01*
X586126Y97572D01*
X586167Y97577D01*
X586277Y97620D01*
X586390Y97657D01*
X586425Y97679D01*
X586462Y97694D01*
X586558Y97763D01*
X586659Y97827D01*
X586687Y97857D01*
X586720Y97880D01*
X586796Y97972D01*
X586877Y98059D01*
X586897Y98094D01*
X586922Y98125D01*
X586973Y98233D01*
X587031Y98337D01*
X587041Y98377D01*
X587058Y98413D01*
X587080Y98530D01*
X587110Y98645D01*
X587114Y98705D01*
X587118Y98725D01*
X587116Y98746D01*
X587120Y98806D01*
X587120Y101582D01*
X588155Y102617D01*
X595231Y102617D01*
X596003Y101845D01*
X596097Y101772D01*
X596186Y101694D01*
X596222Y101675D01*
X596254Y101651D01*
X596363Y101603D01*
X596469Y101549D01*
X596508Y101540D01*
X596546Y101524D01*
X596663Y101505D01*
X596779Y101479D01*
X596820Y101481D01*
X596860Y101474D01*
X596978Y101485D01*
X597097Y101489D01*
X597136Y101500D01*
X597176Y101504D01*
X597288Y101544D01*
X597403Y101578D01*
X597438Y101598D01*
X597476Y101612D01*
X597574Y101679D01*
X597677Y101739D01*
X597722Y101779D01*
X597739Y101790D01*
X597752Y101806D01*
X597798Y101845D01*
X598679Y102727D01*
X598709Y102737D01*
X598744Y102759D01*
X598781Y102774D01*
X598877Y102843D01*
X598978Y102907D01*
X599006Y102937D01*
X599039Y102960D01*
X599115Y103052D01*
X599196Y103139D01*
X599216Y103174D01*
X599241Y103205D01*
X599292Y103313D01*
X599350Y103417D01*
X599360Y103457D01*
X599377Y103493D01*
X599399Y103610D01*
X599429Y103725D01*
X599433Y103785D01*
X599437Y103805D01*
X599435Y103826D01*
X599439Y103886D01*
X599439Y108027D01*
X599427Y108125D01*
X599424Y108224D01*
X599407Y108282D01*
X599399Y108342D01*
X599363Y108434D01*
X599335Y108529D01*
X599305Y108581D01*
X599282Y108638D01*
X599224Y108718D01*
X599174Y108803D01*
X599108Y108879D01*
X599096Y108895D01*
X599086Y108903D01*
X599068Y108924D01*
X597915Y110076D01*
X597915Y113444D01*
X600296Y115825D01*
X603664Y115825D01*
X606045Y113444D01*
X606045Y110076D01*
X604892Y108924D01*
X604832Y108846D01*
X604764Y108774D01*
X604735Y108721D01*
X604698Y108673D01*
X604658Y108582D01*
X604610Y108495D01*
X604595Y108437D01*
X604571Y108381D01*
X604556Y108283D01*
X604531Y108187D01*
X604525Y108087D01*
X604521Y108067D01*
X604523Y108055D01*
X604521Y108027D01*
X604521Y103886D01*
X604536Y103768D01*
X604543Y103649D01*
X604556Y103611D01*
X604561Y103570D01*
X604604Y103460D01*
X604641Y103347D01*
X604663Y103312D01*
X604678Y103275D01*
X604747Y103179D01*
X604811Y103078D01*
X604841Y103050D01*
X604864Y103017D01*
X604956Y102941D01*
X605043Y102860D01*
X605078Y102840D01*
X605109Y102815D01*
X605217Y102764D01*
X605321Y102706D01*
X605361Y102696D01*
X605397Y102679D01*
X605514Y102657D01*
X605629Y102627D01*
X605635Y102627D01*
X606680Y101582D01*
X606680Y88410D01*
X605645Y87375D01*
X598569Y87375D01*
X597798Y88147D01*
X597704Y88219D01*
X597614Y88298D01*
X597578Y88317D01*
X597546Y88341D01*
X597437Y88389D01*
X597331Y88443D01*
X597292Y88452D01*
X597254Y88468D01*
X597137Y88487D01*
X597021Y88513D01*
X596980Y88511D01*
X596940Y88518D01*
X596822Y88507D01*
X596703Y88503D01*
X596664Y88492D01*
X596624Y88488D01*
X596511Y88448D01*
X596397Y88414D01*
X596363Y88394D01*
X596324Y88380D01*
X596226Y88313D01*
X596123Y88253D01*
X596078Y88213D01*
X596061Y88202D01*
X596048Y88186D01*
X596003Y88147D01*
X595231Y87375D01*
X588155Y87375D01*
G37*
%LPD*%
G36*
X717383Y99325D02*
X717383Y99325D01*
X717455Y99325D01*
X717523Y99345D01*
X717593Y99355D01*
X717659Y99384D01*
X717728Y99404D01*
X717788Y99442D01*
X717853Y99471D01*
X717908Y99518D01*
X717969Y99556D01*
X718016Y99609D01*
X718070Y99655D01*
X718110Y99715D01*
X718158Y99769D01*
X718188Y99832D01*
X718227Y99891D01*
X718249Y99960D01*
X718280Y100025D01*
X718292Y100095D01*
X718313Y100162D01*
X718315Y100234D01*
X718327Y100306D01*
X718318Y100376D01*
X718320Y100446D01*
X718302Y100516D01*
X718294Y100588D01*
X718269Y100643D01*
X718248Y100721D01*
X718187Y100825D01*
X718156Y100894D01*
X717371Y102068D01*
X716799Y103450D01*
X716561Y104649D01*
X719163Y104649D01*
X719174Y104546D01*
X719180Y104540D01*
X719177Y104535D01*
X719547Y103478D01*
X719554Y103474D01*
X719551Y103468D01*
X720147Y102520D01*
X720155Y102517D01*
X720154Y102512D01*
X720946Y101720D01*
X720954Y101719D01*
X720954Y101713D01*
X721902Y101117D01*
X721911Y101118D01*
X721912Y101113D01*
X722969Y100743D01*
X722977Y100745D01*
X722980Y100740D01*
X724093Y100615D01*
X724096Y100617D01*
X724098Y100615D01*
X730098Y100615D01*
X730101Y100617D01*
X730104Y100615D01*
X731216Y100740D01*
X731222Y100746D01*
X731227Y100743D01*
X732284Y101113D01*
X732288Y101120D01*
X732294Y101117D01*
X733242Y101713D01*
X733245Y101721D01*
X733250Y101720D01*
X734042Y102512D01*
X734043Y102520D01*
X734049Y102520D01*
X734645Y103468D01*
X734644Y103477D01*
X734649Y103478D01*
X735019Y104535D01*
X735018Y104539D01*
X735020Y104541D01*
X735018Y104544D01*
X735022Y104546D01*
X735147Y105659D01*
X735143Y105666D01*
X735147Y105670D01*
X735022Y106782D01*
X735016Y106788D01*
X735019Y106793D01*
X734649Y107850D01*
X734643Y107854D01*
X734645Y107860D01*
X734049Y108808D01*
X734041Y108811D01*
X734042Y108816D01*
X733250Y109608D01*
X733242Y109609D01*
X733242Y109615D01*
X732294Y110211D01*
X732285Y110210D01*
X732284Y110215D01*
X731227Y110585D01*
X731219Y110583D01*
X731216Y110588D01*
X730104Y110713D01*
X730100Y110711D01*
X730098Y110713D01*
X728113Y110713D01*
X728113Y113255D01*
X730846Y113255D01*
X732312Y112963D01*
X733694Y112391D01*
X734004Y112183D01*
X734069Y112152D01*
X734129Y112112D01*
X734197Y112091D01*
X734260Y112060D01*
X734331Y112048D01*
X734400Y112026D01*
X734471Y112024D01*
X734540Y112013D01*
X734612Y112021D01*
X734684Y112019D01*
X734753Y112037D01*
X734823Y112045D01*
X734890Y112073D01*
X734959Y112091D01*
X735020Y112127D01*
X735085Y112154D01*
X735142Y112199D01*
X735204Y112236D01*
X735252Y112288D01*
X735307Y112332D01*
X735349Y112391D01*
X735398Y112443D01*
X735430Y112506D01*
X735471Y112564D01*
X735495Y112632D01*
X735528Y112696D01*
X735538Y112756D01*
X735564Y112833D01*
X735571Y112953D01*
X735583Y113028D01*
X735583Y184660D01*
X735576Y184708D01*
X735577Y184712D01*
X735575Y184717D01*
X735573Y184732D01*
X735573Y184804D01*
X735553Y184872D01*
X735543Y184942D01*
X735514Y185008D01*
X735494Y185077D01*
X735456Y185137D01*
X735427Y185201D01*
X735380Y185257D01*
X735342Y185318D01*
X735289Y185364D01*
X735244Y185418D01*
X735183Y185458D01*
X735129Y185506D01*
X735066Y185537D01*
X735007Y185576D01*
X734938Y185598D01*
X734873Y185629D01*
X734803Y185640D01*
X734736Y185662D01*
X734664Y185664D01*
X734592Y185675D01*
X734522Y185667D01*
X734452Y185669D01*
X734382Y185651D01*
X734310Y185642D01*
X734255Y185618D01*
X734177Y185597D01*
X734073Y185536D01*
X734004Y185505D01*
X733694Y185297D01*
X732312Y184725D01*
X730845Y184433D01*
X728113Y184433D01*
X728113Y186975D01*
X730098Y186975D01*
X730101Y186977D01*
X730104Y186975D01*
X731216Y187100D01*
X731222Y187106D01*
X731227Y187103D01*
X732284Y187473D01*
X732288Y187480D01*
X732294Y187477D01*
X733242Y188073D01*
X733245Y188081D01*
X733250Y188080D01*
X734042Y188872D01*
X734043Y188880D01*
X734049Y188880D01*
X734645Y189828D01*
X734644Y189837D01*
X734649Y189838D01*
X735019Y190895D01*
X735018Y190899D01*
X735020Y190901D01*
X735018Y190904D01*
X735022Y190906D01*
X735147Y192019D01*
X735143Y192026D01*
X735147Y192030D01*
X735022Y193142D01*
X735016Y193148D01*
X735019Y193153D01*
X734649Y194210D01*
X734643Y194214D01*
X734645Y194220D01*
X734049Y195168D01*
X734041Y195171D01*
X734042Y195176D01*
X733250Y195968D01*
X733242Y195969D01*
X733242Y195975D01*
X732294Y196571D01*
X732285Y196570D01*
X732284Y196575D01*
X731227Y196945D01*
X731219Y196943D01*
X731216Y196948D01*
X730104Y197073D01*
X730100Y197071D01*
X730098Y197073D01*
X724098Y197073D01*
X724095Y197071D01*
X724094Y197071D01*
X724093Y197073D01*
X722980Y196948D01*
X722974Y196942D01*
X722969Y196945D01*
X721912Y196575D01*
X721908Y196569D01*
X721902Y196571D01*
X720954Y195975D01*
X720951Y195967D01*
X720946Y195968D01*
X720154Y195176D01*
X720153Y195168D01*
X720147Y195168D01*
X719551Y194220D01*
X719552Y194211D01*
X719547Y194210D01*
X719177Y193153D01*
X719179Y193147D01*
X719175Y193144D01*
X719176Y193143D01*
X719174Y193142D01*
X719163Y193039D01*
X716560Y193039D01*
X716799Y194238D01*
X717215Y195242D01*
X717371Y195620D01*
X717986Y196540D01*
X718017Y196605D01*
X718058Y196665D01*
X718079Y196733D01*
X718109Y196796D01*
X718122Y196867D01*
X718143Y196936D01*
X718145Y197007D01*
X718157Y197076D01*
X718149Y197148D01*
X718151Y197220D01*
X718133Y197289D01*
X718125Y197359D01*
X718097Y197426D01*
X718079Y197495D01*
X718043Y197556D01*
X718016Y197621D01*
X717970Y197678D01*
X717934Y197740D01*
X717882Y197788D01*
X717838Y197843D01*
X717779Y197885D01*
X717726Y197934D01*
X717663Y197967D01*
X717606Y198007D01*
X717537Y198031D01*
X717473Y198064D01*
X717414Y198074D01*
X717337Y198100D01*
X717217Y198107D01*
X717142Y198119D01*
X697754Y198119D01*
X697682Y198109D01*
X697610Y198109D01*
X697542Y198089D01*
X697472Y198079D01*
X697407Y198050D01*
X697337Y198030D01*
X697277Y197992D01*
X697213Y197963D01*
X697158Y197917D01*
X697097Y197878D01*
X697050Y197825D01*
X696996Y197780D01*
X696956Y197719D01*
X696908Y197665D01*
X696878Y197602D01*
X696838Y197543D01*
X696817Y197474D01*
X696786Y197409D01*
X696774Y197339D01*
X696753Y197272D01*
X696751Y197200D01*
X696739Y197128D01*
X696747Y197058D01*
X696745Y196988D01*
X696764Y196918D01*
X696772Y196846D01*
X696797Y196791D01*
X696817Y196713D01*
X696879Y196609D01*
X696910Y196540D01*
X697525Y195620D01*
X698097Y194238D01*
X698335Y193039D01*
X695733Y193039D01*
X695722Y193142D01*
X695716Y193148D01*
X695719Y193153D01*
X695349Y194210D01*
X695343Y194214D01*
X695345Y194220D01*
X694749Y195168D01*
X694741Y195171D01*
X694742Y195176D01*
X693950Y195968D01*
X693942Y195969D01*
X693942Y195975D01*
X692994Y196571D01*
X692985Y196570D01*
X692984Y196575D01*
X691927Y196945D01*
X691919Y196943D01*
X691916Y196948D01*
X690804Y197073D01*
X690800Y197071D01*
X690798Y197073D01*
X679798Y197073D01*
X679795Y197071D01*
X679794Y197071D01*
X679793Y197073D01*
X678680Y196948D01*
X678674Y196942D01*
X678669Y196945D01*
X677612Y196575D01*
X677608Y196569D01*
X677602Y196571D01*
X676654Y195975D01*
X676651Y195967D01*
X676646Y195968D01*
X675854Y195176D01*
X675853Y195168D01*
X675847Y195168D01*
X675251Y194220D01*
X675252Y194211D01*
X675247Y194210D01*
X674877Y193153D01*
X674879Y193147D01*
X674875Y193144D01*
X674876Y193143D01*
X674874Y193142D01*
X674749Y192030D01*
X674753Y192022D01*
X674749Y192019D01*
X674874Y190906D01*
X674880Y190900D01*
X674877Y190895D01*
X675247Y189838D01*
X675254Y189834D01*
X675251Y189828D01*
X675847Y188880D01*
X675855Y188877D01*
X675854Y188872D01*
X676646Y188080D01*
X676654Y188079D01*
X676654Y188073D01*
X677602Y187477D01*
X677611Y187478D01*
X677612Y187473D01*
X678669Y187103D01*
X678677Y187105D01*
X678680Y187100D01*
X679793Y186975D01*
X679796Y186977D01*
X679798Y186975D01*
X684283Y186975D01*
X684283Y184433D01*
X678950Y184433D01*
X678914Y184428D01*
X678857Y184431D01*
X678841Y184428D01*
X678826Y184428D01*
X678720Y184401D01*
X678669Y184393D01*
X678646Y184383D01*
X678579Y184368D01*
X678566Y184360D01*
X678551Y184356D01*
X678442Y184292D01*
X678441Y184291D01*
X678409Y184277D01*
X678398Y184268D01*
X678331Y184230D01*
X678320Y184219D01*
X678306Y184211D01*
X678219Y184119D01*
X678205Y184104D01*
X678192Y184093D01*
X678189Y184088D01*
X678130Y184029D01*
X678122Y184015D01*
X678112Y184004D01*
X678054Y183891D01*
X678037Y183860D01*
X678035Y183857D01*
X678034Y183855D01*
X677993Y183780D01*
X677989Y183765D01*
X677982Y183751D01*
X677971Y183683D01*
X677930Y183503D01*
X677933Y183456D01*
X677927Y183420D01*
X677927Y114268D01*
X677929Y114253D01*
X677927Y114237D01*
X677949Y114112D01*
X677967Y113987D01*
X677973Y113973D01*
X677976Y113957D01*
X678013Y113879D01*
X678014Y113879D01*
X678015Y113877D01*
X678031Y113843D01*
X678083Y113727D01*
X678093Y113716D01*
X678100Y113701D01*
X678156Y113639D01*
X678159Y113634D01*
X678168Y113625D01*
X678185Y113607D01*
X678267Y113510D01*
X678280Y113502D01*
X678290Y113490D01*
X678356Y113449D01*
X678366Y113440D01*
X678394Y113426D01*
X678397Y113423D01*
X678503Y113353D01*
X678518Y113348D01*
X678531Y113340D01*
X678599Y113321D01*
X678619Y113310D01*
X678658Y113304D01*
X678774Y113267D01*
X678790Y113267D01*
X678805Y113262D01*
X678874Y113264D01*
X678895Y113264D01*
X678950Y113255D01*
X684283Y113255D01*
X684283Y110713D01*
X679798Y110713D01*
X679795Y110711D01*
X679794Y110711D01*
X679793Y110713D01*
X678680Y110588D01*
X678674Y110582D01*
X678669Y110585D01*
X677612Y110215D01*
X677608Y110209D01*
X677602Y110211D01*
X676654Y109615D01*
X676651Y109607D01*
X676646Y109608D01*
X675854Y108816D01*
X675853Y108808D01*
X675847Y108808D01*
X675251Y107860D01*
X675252Y107851D01*
X675247Y107850D01*
X674877Y106793D01*
X674879Y106787D01*
X674875Y106784D01*
X674876Y106783D01*
X674874Y106782D01*
X674749Y105670D01*
X674753Y105662D01*
X674749Y105659D01*
X674874Y104546D01*
X674880Y104540D01*
X674877Y104535D01*
X675247Y103478D01*
X675254Y103474D01*
X675251Y103468D01*
X675847Y102520D01*
X675855Y102517D01*
X675854Y102512D01*
X676646Y101720D01*
X676654Y101719D01*
X676654Y101713D01*
X677602Y101117D01*
X677611Y101118D01*
X677612Y101113D01*
X678669Y100743D01*
X678677Y100745D01*
X678680Y100740D01*
X679793Y100615D01*
X679796Y100617D01*
X679798Y100615D01*
X690798Y100615D01*
X690801Y100617D01*
X690804Y100615D01*
X691916Y100740D01*
X691922Y100746D01*
X691927Y100743D01*
X692984Y101113D01*
X692988Y101120D01*
X692994Y101117D01*
X693942Y101713D01*
X693945Y101721D01*
X693950Y101720D01*
X694742Y102512D01*
X694743Y102520D01*
X694749Y102520D01*
X695345Y103468D01*
X695344Y103477D01*
X695349Y103478D01*
X695719Y104535D01*
X695718Y104539D01*
X695720Y104541D01*
X695718Y104544D01*
X695722Y104546D01*
X695733Y104649D01*
X698335Y104649D01*
X698097Y103450D01*
X697665Y102406D01*
X697525Y102068D01*
X696921Y101165D01*
X696740Y100894D01*
X696709Y100829D01*
X696669Y100769D01*
X696647Y100701D01*
X696617Y100638D01*
X696605Y100567D01*
X696583Y100498D01*
X696581Y100427D01*
X696569Y100358D01*
X696578Y100286D01*
X696576Y100214D01*
X696594Y100145D01*
X696602Y100075D01*
X696629Y100008D01*
X696648Y99939D01*
X696684Y99878D01*
X696711Y99813D01*
X696756Y99756D01*
X696793Y99694D01*
X696844Y99646D01*
X696888Y99591D01*
X696947Y99549D01*
X697000Y99500D01*
X697063Y99468D01*
X697121Y99427D01*
X697189Y99403D01*
X697253Y99370D01*
X697312Y99360D01*
X697389Y99334D01*
X697509Y99327D01*
X697584Y99315D01*
X717312Y99315D01*
X717383Y99325D01*
G37*
G36*
X115689Y145753D02*
X115689Y145753D01*
X115788Y145756D01*
X115846Y145773D01*
X115906Y145781D01*
X115998Y145817D01*
X116093Y145845D01*
X116145Y145875D01*
X116202Y145898D01*
X116282Y145956D01*
X116367Y146006D01*
X116443Y146072D01*
X116459Y146084D01*
X116467Y146094D01*
X116488Y146112D01*
X118458Y148083D01*
X121826Y148083D01*
X122547Y147362D01*
X122656Y147277D01*
X122763Y147188D01*
X122782Y147179D01*
X122798Y147167D01*
X122925Y147112D01*
X123051Y147052D01*
X123071Y147049D01*
X123090Y147041D01*
X123228Y147019D01*
X123364Y146993D01*
X123384Y146994D01*
X123404Y146991D01*
X123543Y147004D01*
X123681Y147012D01*
X123700Y147019D01*
X123720Y147021D01*
X123852Y147068D01*
X123983Y147110D01*
X124001Y147121D01*
X124020Y147128D01*
X124135Y147206D01*
X124252Y147281D01*
X124266Y147295D01*
X124283Y147307D01*
X124375Y147411D01*
X124470Y147512D01*
X124480Y147530D01*
X124493Y147545D01*
X124556Y147669D01*
X124624Y147791D01*
X124629Y147810D01*
X124638Y147828D01*
X124668Y147964D01*
X124703Y148099D01*
X124705Y148127D01*
X124708Y148139D01*
X124707Y148159D01*
X124713Y148259D01*
X124713Y178867D01*
X124701Y178965D01*
X124698Y179064D01*
X124681Y179122D01*
X124673Y179183D01*
X124637Y179275D01*
X124609Y179370D01*
X124579Y179422D01*
X124556Y179478D01*
X124498Y179558D01*
X124448Y179644D01*
X124382Y179719D01*
X124370Y179736D01*
X124360Y179743D01*
X124342Y179765D01*
X93565Y210542D01*
X93486Y210602D01*
X93414Y210670D01*
X93361Y210699D01*
X93313Y210736D01*
X93222Y210776D01*
X93136Y210824D01*
X93077Y210839D01*
X93021Y210863D01*
X92923Y210878D01*
X92828Y210903D01*
X92728Y210909D01*
X92707Y210913D01*
X92695Y210911D01*
X92667Y210913D01*
X91040Y210913D01*
X90922Y210898D01*
X90803Y210891D01*
X90765Y210878D01*
X90724Y210873D01*
X90614Y210830D01*
X90501Y210793D01*
X90466Y210771D01*
X90429Y210756D01*
X90333Y210687D01*
X90232Y210623D01*
X90204Y210593D01*
X90171Y210570D01*
X90095Y210478D01*
X90014Y210391D01*
X89994Y210356D01*
X89969Y210325D01*
X89918Y210217D01*
X89860Y210113D01*
X89850Y210073D01*
X89833Y210037D01*
X89811Y209920D01*
X89781Y209805D01*
X89777Y209745D01*
X89773Y209725D01*
X89775Y209704D01*
X89771Y209644D01*
X89771Y187014D01*
X89786Y186896D01*
X89793Y186777D01*
X89806Y186739D01*
X89811Y186698D01*
X89854Y186588D01*
X89891Y186475D01*
X89913Y186440D01*
X89928Y186403D01*
X89997Y186307D01*
X90061Y186206D01*
X90091Y186178D01*
X90114Y186145D01*
X90206Y186069D01*
X90293Y185988D01*
X90328Y185968D01*
X90359Y185943D01*
X90467Y185892D01*
X90571Y185834D01*
X90611Y185824D01*
X90647Y185807D01*
X90764Y185785D01*
X90879Y185755D01*
X90939Y185751D01*
X90959Y185747D01*
X90980Y185749D01*
X91040Y185745D01*
X94857Y185745D01*
X98938Y183388D01*
X101295Y179307D01*
X101295Y174593D01*
X98938Y170512D01*
X94857Y168155D01*
X89859Y168155D01*
X89721Y168138D01*
X89582Y168125D01*
X89563Y168118D01*
X89543Y168115D01*
X89414Y168064D01*
X89283Y168017D01*
X89266Y168006D01*
X89248Y167998D01*
X89135Y167917D01*
X89020Y167839D01*
X89007Y167823D01*
X88990Y167812D01*
X88901Y167704D01*
X88810Y167600D01*
X88800Y167582D01*
X88787Y167567D01*
X88728Y167441D01*
X88665Y167317D01*
X88660Y167297D01*
X88652Y167279D01*
X88626Y167142D01*
X88595Y167007D01*
X88596Y166986D01*
X88592Y166967D01*
X88601Y166828D01*
X88605Y166689D01*
X88611Y166669D01*
X88612Y166649D01*
X88655Y166517D01*
X88693Y166383D01*
X88704Y166366D01*
X88710Y166347D01*
X88784Y166229D01*
X88855Y166109D01*
X88873Y166088D01*
X88880Y166078D01*
X88895Y166064D01*
X88961Y165989D01*
X89771Y165179D01*
X89771Y156756D01*
X89786Y156638D01*
X89793Y156519D01*
X89806Y156481D01*
X89811Y156440D01*
X89854Y156330D01*
X89891Y156217D01*
X89913Y156182D01*
X89928Y156145D01*
X89997Y156049D01*
X90061Y155948D01*
X90091Y155920D01*
X90114Y155887D01*
X90206Y155811D01*
X90293Y155730D01*
X90328Y155710D01*
X90359Y155685D01*
X90467Y155634D01*
X90571Y155576D01*
X90611Y155566D01*
X90647Y155549D01*
X90764Y155527D01*
X90879Y155497D01*
X90939Y155493D01*
X90959Y155489D01*
X90980Y155491D01*
X91040Y155487D01*
X103239Y155487D01*
X103337Y155499D01*
X103436Y155502D01*
X103494Y155519D01*
X103554Y155527D01*
X103646Y155563D01*
X103741Y155591D01*
X103793Y155621D01*
X103850Y155644D01*
X103930Y155702D01*
X104015Y155752D01*
X104091Y155818D01*
X104107Y155830D01*
X104115Y155840D01*
X104136Y155858D01*
X104742Y156465D01*
X108110Y156465D01*
X110491Y154084D01*
X110491Y150716D01*
X108110Y148335D01*
X104742Y148335D01*
X102536Y150542D01*
X102458Y150602D01*
X102386Y150670D01*
X102333Y150699D01*
X102285Y150736D01*
X102194Y150776D01*
X102107Y150824D01*
X102049Y150839D01*
X101993Y150863D01*
X101895Y150878D01*
X101799Y150903D01*
X101699Y150909D01*
X101679Y150913D01*
X101667Y150911D01*
X101639Y150913D01*
X91040Y150913D01*
X90922Y150898D01*
X90803Y150891D01*
X90765Y150878D01*
X90724Y150873D01*
X90614Y150830D01*
X90501Y150793D01*
X90466Y150771D01*
X90429Y150756D01*
X90333Y150687D01*
X90232Y150623D01*
X90204Y150593D01*
X90171Y150570D01*
X90095Y150478D01*
X90014Y150391D01*
X89994Y150356D01*
X89969Y150325D01*
X89918Y150217D01*
X89860Y150113D01*
X89850Y150073D01*
X89833Y150037D01*
X89811Y149920D01*
X89781Y149805D01*
X89777Y149745D01*
X89773Y149725D01*
X89775Y149704D01*
X89771Y149644D01*
X89771Y147010D01*
X89786Y146892D01*
X89793Y146773D01*
X89806Y146735D01*
X89811Y146694D01*
X89854Y146584D01*
X89891Y146471D01*
X89913Y146436D01*
X89928Y146399D01*
X89997Y146303D01*
X90061Y146202D01*
X90091Y146174D01*
X90114Y146141D01*
X90206Y146065D01*
X90293Y145984D01*
X90328Y145964D01*
X90359Y145939D01*
X90467Y145888D01*
X90571Y145830D01*
X90611Y145820D01*
X90647Y145803D01*
X90764Y145781D01*
X90879Y145751D01*
X90939Y145747D01*
X90959Y145743D01*
X90980Y145745D01*
X91040Y145741D01*
X115591Y145741D01*
X115689Y145753D01*
G37*
%LPC*%
G36*
X209136Y125475D02*
X209136Y125475D01*
X206755Y127856D01*
X206755Y131224D01*
X208162Y132630D01*
X208222Y132708D01*
X208290Y132780D01*
X208319Y132833D01*
X208356Y132881D01*
X208396Y132972D01*
X208444Y133059D01*
X208459Y133117D01*
X208483Y133173D01*
X208498Y133271D01*
X208523Y133367D01*
X208529Y133467D01*
X208533Y133487D01*
X208531Y133499D01*
X208533Y133527D01*
X208533Y152074D01*
X208518Y152192D01*
X208511Y152311D01*
X208498Y152349D01*
X208493Y152389D01*
X208450Y152500D01*
X208413Y152613D01*
X208391Y152647D01*
X208376Y152685D01*
X208307Y152781D01*
X208243Y152882D01*
X208213Y152910D01*
X208190Y152942D01*
X208098Y153018D01*
X208011Y153100D01*
X207976Y153119D01*
X207945Y153145D01*
X207837Y153196D01*
X207733Y153253D01*
X207693Y153263D01*
X207657Y153281D01*
X207540Y153303D01*
X207425Y153333D01*
X207365Y153337D01*
X207345Y153340D01*
X207324Y153339D01*
X207264Y153343D01*
X203802Y153343D01*
X202664Y154481D01*
X202570Y154554D01*
X202481Y154633D01*
X202445Y154651D01*
X202413Y154676D01*
X202304Y154723D01*
X202198Y154777D01*
X202158Y154786D01*
X202121Y154802D01*
X202004Y154821D01*
X201888Y154847D01*
X201847Y154846D01*
X201807Y154852D01*
X201689Y154841D01*
X201570Y154837D01*
X201531Y154826D01*
X201491Y154822D01*
X201378Y154782D01*
X201264Y154749D01*
X201229Y154728D01*
X201191Y154715D01*
X201093Y154648D01*
X200990Y154587D01*
X200945Y154548D01*
X200928Y154536D01*
X200915Y154521D01*
X200869Y154481D01*
X199804Y153415D01*
X196436Y153415D01*
X194055Y155796D01*
X194055Y156464D01*
X194040Y156582D01*
X194033Y156701D01*
X194020Y156739D01*
X194015Y156780D01*
X193972Y156890D01*
X193935Y157003D01*
X193913Y157038D01*
X193898Y157075D01*
X193829Y157171D01*
X193765Y157272D01*
X193735Y157300D01*
X193712Y157333D01*
X193620Y157409D01*
X193533Y157490D01*
X193498Y157510D01*
X193467Y157535D01*
X193359Y157586D01*
X193255Y157644D01*
X193215Y157654D01*
X193179Y157671D01*
X193062Y157693D01*
X192947Y157723D01*
X192887Y157727D01*
X192867Y157731D01*
X192846Y157729D01*
X192786Y157733D01*
X176707Y157733D01*
X176609Y157721D01*
X176510Y157718D01*
X176452Y157701D01*
X176392Y157693D01*
X176300Y157657D01*
X176205Y157629D01*
X176153Y157599D01*
X176096Y157576D01*
X176016Y157518D01*
X175931Y157468D01*
X175855Y157402D01*
X175839Y157390D01*
X175831Y157380D01*
X175810Y157362D01*
X174404Y155955D01*
X171036Y155955D01*
X168655Y158336D01*
X168655Y160020D01*
X168640Y160138D01*
X168633Y160257D01*
X168620Y160295D01*
X168615Y160336D01*
X168572Y160446D01*
X168535Y160559D01*
X168513Y160594D01*
X168498Y160631D01*
X168429Y160727D01*
X168365Y160828D01*
X168335Y160856D01*
X168312Y160889D01*
X168220Y160965D01*
X168133Y161046D01*
X168098Y161066D01*
X168067Y161091D01*
X167959Y161142D01*
X167855Y161200D01*
X167815Y161210D01*
X167779Y161227D01*
X167662Y161249D01*
X167547Y161279D01*
X167487Y161283D01*
X167467Y161287D01*
X167446Y161285D01*
X167386Y161289D01*
X165956Y161289D01*
X163575Y163670D01*
X163575Y167038D01*
X165956Y169419D01*
X169324Y169419D01*
X170730Y168012D01*
X170808Y167952D01*
X170880Y167884D01*
X170933Y167855D01*
X170981Y167818D01*
X171072Y167778D01*
X171159Y167730D01*
X171217Y167715D01*
X171273Y167691D01*
X171371Y167676D01*
X171467Y167651D01*
X171567Y167645D01*
X171587Y167641D01*
X171599Y167643D01*
X171627Y167641D01*
X198487Y167641D01*
X204283Y161844D01*
X204362Y161784D01*
X204434Y161716D01*
X204487Y161686D01*
X204535Y161649D01*
X204626Y161610D01*
X204712Y161562D01*
X204771Y161547D01*
X204827Y161523D01*
X204925Y161507D01*
X205020Y161483D01*
X205120Y161476D01*
X205141Y161473D01*
X205153Y161474D01*
X205181Y161472D01*
X207264Y161472D01*
X207382Y161487D01*
X207501Y161495D01*
X207539Y161507D01*
X207580Y161512D01*
X207690Y161556D01*
X207803Y161593D01*
X207838Y161614D01*
X207875Y161629D01*
X207971Y161699D01*
X208072Y161763D01*
X208100Y161792D01*
X208133Y161816D01*
X208209Y161908D01*
X208290Y161995D01*
X208310Y162030D01*
X208335Y162061D01*
X208386Y162169D01*
X208444Y162273D01*
X208454Y162312D01*
X208471Y162349D01*
X208493Y162466D01*
X208523Y162581D01*
X208527Y162641D01*
X208531Y162661D01*
X208530Y162679D01*
X208531Y162685D01*
X208530Y162693D01*
X208533Y162742D01*
X208533Y234773D01*
X208521Y234871D01*
X208518Y234970D01*
X208501Y235028D01*
X208493Y235088D01*
X208457Y235180D01*
X208429Y235275D01*
X208399Y235327D01*
X208376Y235384D01*
X208318Y235464D01*
X208268Y235549D01*
X208202Y235625D01*
X208190Y235641D01*
X208180Y235649D01*
X208162Y235670D01*
X206755Y237076D01*
X206755Y240444D01*
X209136Y242825D01*
X212504Y242825D01*
X214885Y240444D01*
X214885Y237076D01*
X213478Y235670D01*
X213418Y235592D01*
X213350Y235520D01*
X213321Y235467D01*
X213284Y235419D01*
X213244Y235328D01*
X213196Y235241D01*
X213181Y235183D01*
X213157Y235127D01*
X213142Y235029D01*
X213117Y234933D01*
X213111Y234833D01*
X213107Y234813D01*
X213109Y234801D01*
X213107Y234773D01*
X213107Y133527D01*
X213119Y133429D01*
X213122Y133330D01*
X213139Y133272D01*
X213147Y133212D01*
X213183Y133120D01*
X213211Y133025D01*
X213241Y132973D01*
X213264Y132916D01*
X213322Y132836D01*
X213372Y132751D01*
X213438Y132675D01*
X213450Y132659D01*
X213460Y132651D01*
X213478Y132630D01*
X214885Y131224D01*
X214885Y127856D01*
X212504Y125475D01*
X209136Y125475D01*
G37*
%LPD*%
G36*
X135989Y181820D02*
X135989Y181820D01*
X136127Y181829D01*
X136146Y181835D01*
X136166Y181837D01*
X136298Y181884D01*
X136429Y181927D01*
X136447Y181937D01*
X136466Y181944D01*
X136581Y182022D01*
X136698Y182097D01*
X136712Y182111D01*
X136729Y182123D01*
X136821Y182227D01*
X136916Y182328D01*
X136926Y182346D01*
X136939Y182361D01*
X137003Y182485D01*
X137070Y182607D01*
X137075Y182626D01*
X137084Y182644D01*
X137114Y182780D01*
X137149Y182915D01*
X137151Y182943D01*
X137154Y182955D01*
X137153Y182975D01*
X137159Y183075D01*
X137159Y208447D01*
X137147Y208545D01*
X137144Y208644D01*
X137127Y208702D01*
X137119Y208762D01*
X137083Y208854D01*
X137055Y208950D01*
X137028Y208996D01*
X137028Y208998D01*
X137024Y209003D01*
X137002Y209058D01*
X136944Y209138D01*
X136894Y209224D01*
X136860Y209262D01*
X136857Y209266D01*
X136850Y209273D01*
X136828Y209299D01*
X136816Y209315D01*
X136806Y209323D01*
X136788Y209344D01*
X114943Y231188D01*
X114834Y231274D01*
X114727Y231362D01*
X114708Y231371D01*
X114692Y231383D01*
X114564Y231439D01*
X114439Y231498D01*
X114419Y231502D01*
X114400Y231510D01*
X114262Y231532D01*
X114126Y231558D01*
X114106Y231556D01*
X114086Y231560D01*
X113947Y231546D01*
X113809Y231538D01*
X113790Y231532D01*
X113770Y231530D01*
X113638Y231483D01*
X113507Y231440D01*
X113489Y231429D01*
X113470Y231422D01*
X113355Y231344D01*
X113238Y231270D01*
X113224Y231255D01*
X113207Y231244D01*
X113115Y231139D01*
X113020Y231038D01*
X113010Y231020D01*
X112997Y231005D01*
X112933Y230881D01*
X112866Y230760D01*
X112861Y230740D01*
X112852Y230722D01*
X112822Y230586D01*
X112787Y230452D01*
X112785Y230424D01*
X112782Y230412D01*
X112783Y230391D01*
X112777Y230291D01*
X112777Y228092D01*
X112792Y227974D01*
X112799Y227855D01*
X112812Y227817D01*
X112817Y227776D01*
X112860Y227666D01*
X112897Y227553D01*
X112919Y227518D01*
X112934Y227481D01*
X113003Y227385D01*
X113067Y227284D01*
X113097Y227256D01*
X113120Y227223D01*
X113212Y227147D01*
X113299Y227066D01*
X113334Y227046D01*
X113365Y227021D01*
X113473Y226970D01*
X113577Y226912D01*
X113617Y226902D01*
X113653Y226885D01*
X113770Y226863D01*
X113885Y226833D01*
X113945Y226829D01*
X113965Y226825D01*
X113986Y226827D01*
X114046Y226823D01*
X114968Y226823D01*
X117349Y224442D01*
X117349Y221074D01*
X114968Y218693D01*
X111600Y218693D01*
X109752Y220542D01*
X109674Y220602D01*
X109602Y220670D01*
X109549Y220699D01*
X109501Y220736D01*
X109410Y220776D01*
X109323Y220824D01*
X109265Y220839D01*
X109209Y220863D01*
X109111Y220878D01*
X109015Y220903D01*
X108915Y220909D01*
X108895Y220913D01*
X108883Y220911D01*
X108855Y220913D01*
X99321Y220913D01*
X99184Y220896D01*
X99045Y220883D01*
X99026Y220876D01*
X99006Y220873D01*
X98877Y220822D01*
X98746Y220775D01*
X98729Y220764D01*
X98710Y220756D01*
X98598Y220675D01*
X98483Y220597D01*
X98469Y220581D01*
X98453Y220570D01*
X98364Y220462D01*
X98272Y220358D01*
X98263Y220340D01*
X98250Y220325D01*
X98191Y220199D01*
X98128Y220075D01*
X98123Y220055D01*
X98115Y220037D01*
X98088Y219901D01*
X98058Y219765D01*
X98059Y219744D01*
X98055Y219725D01*
X98063Y219586D01*
X98068Y219447D01*
X98073Y219427D01*
X98075Y219407D01*
X98117Y219275D01*
X98156Y219141D01*
X98166Y219124D01*
X98173Y219105D01*
X98247Y218987D01*
X98318Y218867D01*
X98336Y218846D01*
X98343Y218836D01*
X98358Y218822D01*
X98424Y218747D01*
X133417Y183753D01*
X134993Y182178D01*
X135102Y182093D01*
X135209Y182004D01*
X135228Y181995D01*
X135244Y181983D01*
X135372Y181928D01*
X135497Y181869D01*
X135517Y181865D01*
X135536Y181857D01*
X135674Y181835D01*
X135810Y181809D01*
X135830Y181810D01*
X135850Y181807D01*
X135989Y181820D01*
G37*
G36*
X525897Y302708D02*
X525897Y302708D01*
X525907Y302712D01*
X525934Y302714D01*
X529903Y303614D01*
X529912Y303619D01*
X529938Y303625D01*
X533733Y305097D01*
X533740Y305103D01*
X533766Y305113D01*
X537304Y307126D01*
X537310Y307133D01*
X537334Y307146D01*
X540539Y309655D01*
X540544Y309663D01*
X540566Y309680D01*
X543368Y312632D01*
X543373Y312640D01*
X543391Y312660D01*
X545731Y315991D01*
X545734Y316000D01*
X545750Y316022D01*
X547576Y319660D01*
X547578Y319669D01*
X547590Y319693D01*
X548864Y323559D01*
X548864Y323569D01*
X548872Y323595D01*
X549566Y327606D01*
X549561Y327644D01*
X549567Y327681D01*
X549554Y327712D01*
X549550Y327744D01*
X549526Y327774D01*
X549510Y327809D01*
X549483Y327827D01*
X549462Y327853D01*
X549425Y327865D01*
X549394Y327886D01*
X549336Y327895D01*
X549329Y327897D01*
X549326Y327896D01*
X549320Y327897D01*
X541320Y327897D01*
X541256Y327879D01*
X541186Y327858D01*
X541185Y327858D01*
X541140Y327806D01*
X541094Y327753D01*
X541094Y327752D01*
X541073Y327681D01*
X540691Y324819D01*
X539872Y322070D01*
X538633Y319484D01*
X537005Y317123D01*
X535027Y315045D01*
X532749Y313303D01*
X530227Y311939D01*
X527521Y310986D01*
X524701Y310468D01*
X521820Y310397D01*
X518939Y310468D01*
X516119Y310986D01*
X513414Y311939D01*
X510891Y313303D01*
X508613Y315045D01*
X506635Y317123D01*
X505007Y319484D01*
X503768Y322070D01*
X502949Y324819D01*
X502909Y325114D01*
X502876Y325363D01*
X502810Y325862D01*
X502776Y326111D01*
X502710Y326609D01*
X502710Y326610D01*
X502677Y326859D01*
X502610Y327357D01*
X502567Y327681D01*
X502536Y327751D01*
X502510Y327809D01*
X502450Y327849D01*
X502394Y327886D01*
X502320Y327897D01*
X494320Y327897D01*
X494282Y327886D01*
X494243Y327885D01*
X494217Y327867D01*
X494186Y327858D01*
X494160Y327829D01*
X494128Y327807D01*
X494115Y327777D01*
X494094Y327753D01*
X494088Y327714D01*
X494073Y327678D01*
X494074Y327622D01*
X494073Y327615D01*
X494074Y327611D01*
X494075Y327604D01*
X494795Y323606D01*
X494799Y323597D01*
X494804Y323571D01*
X496096Y319719D01*
X496101Y319711D01*
X496110Y319686D01*
X497946Y316063D01*
X497953Y316056D01*
X497965Y316032D01*
X500308Y312713D01*
X500312Y312709D01*
X500314Y312706D01*
X500318Y312703D01*
X500331Y312685D01*
X503130Y309741D01*
X503139Y309736D01*
X503157Y309717D01*
X506353Y307210D01*
X506363Y307206D01*
X506384Y307190D01*
X509910Y305173D01*
X509919Y305170D01*
X509943Y305157D01*
X513724Y303673D01*
X513734Y303672D01*
X513759Y303662D01*
X517715Y302742D01*
X517725Y302742D01*
X517751Y302736D01*
X521799Y302400D01*
X521809Y302402D01*
X521839Y302399D01*
X525897Y302708D01*
G37*
G36*
X502380Y78503D02*
X502380Y78503D01*
X502381Y78503D01*
X502444Y78521D01*
X502514Y78542D01*
X502515Y78542D01*
X502559Y78593D01*
X502606Y78647D01*
X502606Y78648D01*
X502627Y78719D01*
X503009Y81581D01*
X503828Y84330D01*
X505067Y86916D01*
X506695Y89277D01*
X508673Y91355D01*
X510951Y93097D01*
X513474Y94461D01*
X516179Y95414D01*
X518999Y95932D01*
X521880Y96003D01*
X524761Y95932D01*
X527581Y95414D01*
X530287Y94461D01*
X532809Y93097D01*
X535087Y91355D01*
X537065Y89277D01*
X538693Y86916D01*
X539932Y84330D01*
X540751Y81581D01*
X540801Y81211D01*
X540834Y80962D01*
X540900Y80463D01*
X540934Y80214D01*
X541000Y79716D01*
X541033Y79466D01*
X541100Y78968D01*
X541133Y78719D01*
X541165Y78647D01*
X541190Y78591D01*
X541250Y78551D01*
X541306Y78514D01*
X541307Y78514D01*
X541380Y78503D01*
X549380Y78503D01*
X549418Y78514D01*
X549457Y78515D01*
X549483Y78533D01*
X549514Y78542D01*
X549540Y78571D01*
X549572Y78593D01*
X549585Y78623D01*
X549606Y78647D01*
X549612Y78686D01*
X549627Y78722D01*
X549626Y78778D01*
X549627Y78785D01*
X549626Y78789D01*
X549625Y78796D01*
X548905Y82794D01*
X548901Y82803D01*
X548896Y82829D01*
X547604Y86681D01*
X547599Y86689D01*
X547590Y86714D01*
X545754Y90337D01*
X545747Y90344D01*
X545735Y90368D01*
X543392Y93687D01*
X543384Y93693D01*
X543369Y93715D01*
X540570Y96659D01*
X540561Y96664D01*
X540543Y96683D01*
X537347Y99190D01*
X537338Y99194D01*
X537316Y99210D01*
X533790Y101227D01*
X533781Y101230D01*
X533758Y101243D01*
X529976Y102727D01*
X529966Y102728D01*
X529941Y102738D01*
X525985Y103658D01*
X525975Y103658D01*
X525949Y103664D01*
X521901Y104000D01*
X521891Y103998D01*
X521861Y104001D01*
X517803Y103692D01*
X517793Y103688D01*
X517766Y103686D01*
X513797Y102786D01*
X513788Y102781D01*
X513762Y102775D01*
X509967Y101303D01*
X509960Y101297D01*
X509934Y101287D01*
X506397Y99274D01*
X506390Y99267D01*
X506366Y99254D01*
X503161Y96745D01*
X503156Y96737D01*
X503134Y96720D01*
X500332Y93768D01*
X500327Y93760D01*
X500309Y93740D01*
X497969Y90409D01*
X497966Y90400D01*
X497950Y90378D01*
X496124Y86740D01*
X496122Y86731D01*
X496110Y86707D01*
X494837Y82841D01*
X494836Y82831D01*
X494828Y82805D01*
X494134Y78794D01*
X494139Y78756D01*
X494133Y78719D01*
X494146Y78688D01*
X494150Y78656D01*
X494174Y78626D01*
X494190Y78591D01*
X494217Y78573D01*
X494238Y78547D01*
X494275Y78535D01*
X494307Y78514D01*
X494364Y78505D01*
X494371Y78503D01*
X494374Y78504D01*
X494380Y78503D01*
X502380Y78503D01*
X502380Y78503D01*
G37*
%LPC*%
G36*
X632859Y87375D02*
X632859Y87375D01*
X631824Y88410D01*
X631824Y101582D01*
X632898Y102656D01*
X632903Y102657D01*
X633013Y102700D01*
X633126Y102737D01*
X633161Y102759D01*
X633198Y102774D01*
X633294Y102843D01*
X633395Y102907D01*
X633423Y102937D01*
X633456Y102960D01*
X633532Y103052D01*
X633613Y103139D01*
X633633Y103174D01*
X633658Y103205D01*
X633709Y103313D01*
X633767Y103417D01*
X633777Y103457D01*
X633794Y103493D01*
X633816Y103610D01*
X633846Y103725D01*
X633850Y103785D01*
X633854Y103805D01*
X633852Y103826D01*
X633856Y103886D01*
X633856Y108408D01*
X633844Y108506D01*
X633841Y108605D01*
X633824Y108663D01*
X633816Y108723D01*
X633780Y108815D01*
X633752Y108910D01*
X633722Y108962D01*
X633699Y109019D01*
X633641Y109099D01*
X633591Y109184D01*
X633525Y109260D01*
X633513Y109276D01*
X633503Y109284D01*
X633485Y109305D01*
X632205Y110584D01*
X632205Y113952D01*
X634586Y116333D01*
X637954Y116333D01*
X640335Y113952D01*
X640335Y110584D01*
X639309Y109559D01*
X639249Y109481D01*
X639181Y109409D01*
X639152Y109356D01*
X639115Y109308D01*
X639075Y109217D01*
X639027Y109130D01*
X639012Y109072D01*
X638988Y109016D01*
X638973Y108918D01*
X638948Y108822D01*
X638942Y108722D01*
X638938Y108702D01*
X638940Y108690D01*
X638938Y108662D01*
X638938Y103886D01*
X638953Y103768D01*
X638960Y103649D01*
X638973Y103611D01*
X638978Y103570D01*
X639021Y103460D01*
X639058Y103347D01*
X639080Y103312D01*
X639095Y103275D01*
X639164Y103179D01*
X639228Y103078D01*
X639258Y103050D01*
X639281Y103017D01*
X639373Y102941D01*
X639460Y102860D01*
X639495Y102840D01*
X639526Y102815D01*
X639634Y102764D01*
X639738Y102706D01*
X639778Y102696D01*
X639814Y102679D01*
X639887Y102665D01*
X640707Y101845D01*
X640801Y101772D01*
X640890Y101694D01*
X640926Y101675D01*
X640958Y101651D01*
X641067Y101603D01*
X641173Y101549D01*
X641212Y101540D01*
X641250Y101524D01*
X641367Y101505D01*
X641483Y101479D01*
X641524Y101481D01*
X641564Y101474D01*
X641682Y101485D01*
X641801Y101489D01*
X641840Y101500D01*
X641880Y101504D01*
X641992Y101544D01*
X642107Y101578D01*
X642142Y101598D01*
X642180Y101612D01*
X642278Y101679D01*
X642381Y101739D01*
X642426Y101779D01*
X642443Y101790D01*
X642456Y101806D01*
X642502Y101845D01*
X643273Y102617D01*
X644017Y102617D01*
X644135Y102632D01*
X644254Y102639D01*
X644292Y102652D01*
X644333Y102657D01*
X644443Y102700D01*
X644556Y102737D01*
X644591Y102759D01*
X644628Y102774D01*
X644724Y102843D01*
X644825Y102907D01*
X644853Y102937D01*
X644886Y102960D01*
X644962Y103052D01*
X645043Y103139D01*
X645063Y103174D01*
X645088Y103205D01*
X645139Y103313D01*
X645197Y103417D01*
X645207Y103457D01*
X645224Y103493D01*
X645246Y103610D01*
X645276Y103725D01*
X645280Y103785D01*
X645284Y103805D01*
X645282Y103826D01*
X645286Y103886D01*
X645286Y107900D01*
X645274Y107998D01*
X645271Y108097D01*
X645254Y108155D01*
X645246Y108215D01*
X645210Y108307D01*
X645182Y108402D01*
X645152Y108454D01*
X645129Y108511D01*
X645071Y108591D01*
X645021Y108676D01*
X644955Y108752D01*
X644943Y108768D01*
X644933Y108776D01*
X644915Y108797D01*
X643635Y110076D01*
X643635Y113444D01*
X646016Y115825D01*
X649384Y115825D01*
X651765Y113444D01*
X651765Y110076D01*
X650739Y109051D01*
X650679Y108973D01*
X650611Y108901D01*
X650582Y108848D01*
X650545Y108800D01*
X650505Y108709D01*
X650457Y108622D01*
X650442Y108564D01*
X650418Y108508D01*
X650403Y108410D01*
X650378Y108314D01*
X650372Y108214D01*
X650368Y108194D01*
X650370Y108182D01*
X650368Y108154D01*
X650368Y103124D01*
X650380Y103026D01*
X650383Y102927D01*
X650400Y102868D01*
X650408Y102808D01*
X650444Y102716D01*
X650472Y102621D01*
X650502Y102569D01*
X650525Y102513D01*
X650583Y102433D01*
X650633Y102347D01*
X650669Y102306D01*
X650672Y102302D01*
X650677Y102297D01*
X650699Y102272D01*
X650711Y102255D01*
X650721Y102248D01*
X650740Y102226D01*
X651384Y101582D01*
X651384Y88410D01*
X650349Y87375D01*
X643273Y87375D01*
X642502Y88147D01*
X642408Y88219D01*
X642318Y88298D01*
X642282Y88317D01*
X642250Y88341D01*
X642141Y88389D01*
X642035Y88443D01*
X641996Y88452D01*
X641958Y88468D01*
X641841Y88487D01*
X641725Y88513D01*
X641684Y88511D01*
X641644Y88518D01*
X641526Y88507D01*
X641407Y88503D01*
X641368Y88492D01*
X641328Y88488D01*
X641215Y88448D01*
X641101Y88414D01*
X641067Y88394D01*
X641028Y88380D01*
X640930Y88313D01*
X640827Y88253D01*
X640782Y88213D01*
X640765Y88202D01*
X640752Y88186D01*
X640707Y88147D01*
X639935Y87375D01*
X632859Y87375D01*
G37*
%LPD*%
%LPC*%
G36*
X248673Y149097D02*
X248673Y149097D01*
X246339Y150064D01*
X244552Y151851D01*
X243585Y154185D01*
X243585Y156711D01*
X244552Y159045D01*
X246339Y160832D01*
X248673Y161799D01*
X251199Y161799D01*
X253533Y160832D01*
X255481Y158884D01*
X255575Y158811D01*
X255664Y158733D01*
X255700Y158714D01*
X255732Y158689D01*
X255842Y158642D01*
X255948Y158588D01*
X255987Y158579D01*
X256024Y158563D01*
X256142Y158544D01*
X256258Y158518D01*
X256298Y158520D01*
X256338Y158513D01*
X256457Y158524D01*
X256576Y158528D01*
X256615Y158539D01*
X256655Y158543D01*
X256767Y158583D01*
X256881Y158616D01*
X256916Y158637D01*
X256954Y158651D01*
X257053Y158718D01*
X257155Y158778D01*
X257200Y158818D01*
X257217Y158829D01*
X257231Y158845D01*
X257276Y158884D01*
X258158Y159767D01*
X261526Y159767D01*
X263907Y157386D01*
X263907Y154018D01*
X261526Y151637D01*
X258158Y151637D01*
X257432Y152364D01*
X257393Y152394D01*
X257359Y152431D01*
X257267Y152491D01*
X257181Y152559D01*
X257135Y152578D01*
X257094Y152606D01*
X256990Y152641D01*
X256889Y152685D01*
X256840Y152693D01*
X256793Y152709D01*
X256684Y152718D01*
X256575Y152735D01*
X256525Y152730D01*
X256476Y152734D01*
X256368Y152715D01*
X256258Y152705D01*
X256211Y152688D01*
X256162Y152680D01*
X256062Y152635D01*
X255959Y152597D01*
X255918Y152569D01*
X255872Y152549D01*
X255787Y152480D01*
X255696Y152419D01*
X255663Y152382D01*
X255624Y152350D01*
X255558Y152263D01*
X255485Y152180D01*
X255463Y152136D01*
X255433Y152096D01*
X255362Y151952D01*
X255320Y151851D01*
X253533Y150064D01*
X251199Y149097D01*
X248673Y149097D01*
G37*
%LPD*%
%LPC*%
G36*
X627474Y149431D02*
X627474Y149431D01*
X625093Y151812D01*
X625093Y155180D01*
X626246Y156332D01*
X626306Y156410D01*
X626374Y156482D01*
X626403Y156535D01*
X626440Y156583D01*
X626480Y156674D01*
X626528Y156761D01*
X626543Y156819D01*
X626567Y156875D01*
X626582Y156973D01*
X626607Y157069D01*
X626613Y157169D01*
X626617Y157189D01*
X626615Y157201D01*
X626617Y157229D01*
X626617Y165136D01*
X630564Y169083D01*
X630624Y169161D01*
X630692Y169233D01*
X630721Y169286D01*
X630758Y169334D01*
X630798Y169425D01*
X630846Y169512D01*
X630861Y169570D01*
X630885Y169626D01*
X630900Y169724D01*
X630925Y169819D01*
X630931Y169920D01*
X630935Y169940D01*
X630933Y169952D01*
X630935Y169980D01*
X630935Y171610D01*
X633316Y173991D01*
X636684Y173991D01*
X639065Y171610D01*
X639065Y168242D01*
X636684Y165861D01*
X635054Y165861D01*
X634956Y165849D01*
X634857Y165846D01*
X634799Y165829D01*
X634739Y165821D01*
X634647Y165785D01*
X634551Y165757D01*
X634499Y165727D01*
X634443Y165704D01*
X634363Y165646D01*
X634278Y165596D01*
X634202Y165530D01*
X634186Y165518D01*
X634178Y165508D01*
X634157Y165490D01*
X632070Y163403D01*
X632010Y163325D01*
X631942Y163253D01*
X631913Y163200D01*
X631876Y163152D01*
X631836Y163061D01*
X631788Y162974D01*
X631773Y162916D01*
X631749Y162860D01*
X631734Y162762D01*
X631709Y162667D01*
X631703Y162566D01*
X631699Y162546D01*
X631701Y162534D01*
X631699Y162506D01*
X631699Y157229D01*
X631711Y157131D01*
X631714Y157032D01*
X631731Y156974D01*
X631739Y156914D01*
X631775Y156822D01*
X631803Y156727D01*
X631833Y156675D01*
X631856Y156618D01*
X631914Y156538D01*
X631964Y156453D01*
X632030Y156377D01*
X632042Y156361D01*
X632052Y156353D01*
X632070Y156332D01*
X633223Y155180D01*
X633223Y151812D01*
X630842Y149431D01*
X627474Y149431D01*
G37*
%LPD*%
%LPC*%
G36*
X252316Y190753D02*
X252316Y190753D01*
X249935Y193134D01*
X249935Y196502D01*
X251342Y197908D01*
X251402Y197986D01*
X251470Y198058D01*
X251499Y198111D01*
X251536Y198159D01*
X251576Y198250D01*
X251624Y198337D01*
X251639Y198395D01*
X251663Y198451D01*
X251678Y198549D01*
X251703Y198645D01*
X251709Y198745D01*
X251713Y198765D01*
X251711Y198777D01*
X251713Y198805D01*
X251713Y203277D01*
X251701Y203375D01*
X251698Y203474D01*
X251681Y203532D01*
X251673Y203592D01*
X251637Y203684D01*
X251609Y203779D01*
X251579Y203831D01*
X251556Y203888D01*
X251498Y203968D01*
X251448Y204053D01*
X251382Y204129D01*
X251370Y204145D01*
X251360Y204153D01*
X251342Y204174D01*
X250189Y205326D01*
X250189Y208694D01*
X252570Y211075D01*
X255938Y211075D01*
X258319Y208694D01*
X258319Y205326D01*
X257166Y204174D01*
X257106Y204096D01*
X257038Y204024D01*
X257009Y203971D01*
X256972Y203923D01*
X256932Y203832D01*
X256884Y203745D01*
X256869Y203687D01*
X256845Y203631D01*
X256830Y203533D01*
X256805Y203437D01*
X256799Y203337D01*
X256795Y203317D01*
X256797Y203305D01*
X256795Y203277D01*
X256795Y198297D01*
X256807Y198199D01*
X256810Y198100D01*
X256816Y198079D01*
X256817Y198067D01*
X256828Y198033D01*
X256835Y197982D01*
X256871Y197890D01*
X256899Y197795D01*
X256914Y197769D01*
X256915Y197765D01*
X256930Y197742D01*
X256952Y197686D01*
X257010Y197606D01*
X257060Y197521D01*
X257126Y197445D01*
X257138Y197429D01*
X257148Y197421D01*
X257166Y197400D01*
X258065Y196502D01*
X258065Y193134D01*
X255684Y190753D01*
X252316Y190753D01*
G37*
%LPD*%
%LPC*%
G36*
X638833Y311229D02*
X638833Y311229D01*
X636528Y312184D01*
X634764Y313948D01*
X633809Y316253D01*
X633809Y318747D01*
X634764Y321052D01*
X636528Y322816D01*
X638833Y323771D01*
X641327Y323771D01*
X643632Y322816D01*
X645396Y321052D01*
X646351Y318747D01*
X646351Y316253D01*
X645396Y313948D01*
X643632Y312184D01*
X641327Y311229D01*
X638833Y311229D01*
G37*
%LPD*%
%LPC*%
G36*
X128293Y87709D02*
X128293Y87709D01*
X125988Y88664D01*
X124224Y90428D01*
X123269Y92733D01*
X123269Y95227D01*
X124224Y97532D01*
X125988Y99296D01*
X128293Y100251D01*
X130787Y100251D01*
X133092Y99296D01*
X134856Y97532D01*
X135811Y95227D01*
X135811Y92733D01*
X134856Y90428D01*
X133092Y88664D01*
X130787Y87709D01*
X128293Y87709D01*
G37*
%LPD*%
%LPC*%
G36*
X688515Y172715D02*
X688515Y172715D01*
X685569Y175661D01*
X685569Y179827D01*
X688442Y182700D01*
X688460Y182724D01*
X688482Y182742D01*
X688545Y182837D01*
X688613Y182927D01*
X688624Y182955D01*
X688640Y182979D01*
X688674Y183087D01*
X688715Y183193D01*
X688717Y183222D01*
X688726Y183250D01*
X688729Y183364D01*
X688738Y183476D01*
X688732Y183505D01*
X688733Y183534D01*
X688704Y183644D01*
X688682Y183755D01*
X688669Y183781D01*
X688661Y183809D01*
X688603Y183907D01*
X688551Y184007D01*
X688531Y184029D01*
X688516Y184054D01*
X688433Y184131D01*
X688355Y184213D01*
X688330Y184228D01*
X688309Y184248D01*
X688208Y184300D01*
X688110Y184357D01*
X688082Y184364D01*
X688056Y184378D01*
X687978Y184391D01*
X687835Y184427D01*
X687772Y184425D01*
X687725Y184433D01*
X686313Y184433D01*
X686313Y186975D01*
X690798Y186975D01*
X690801Y186977D01*
X690804Y186975D01*
X691916Y187100D01*
X691922Y187106D01*
X691927Y187103D01*
X692984Y187473D01*
X692988Y187480D01*
X692994Y187477D01*
X693942Y188073D01*
X693945Y188081D01*
X693950Y188080D01*
X694742Y188872D01*
X694743Y188880D01*
X694749Y188880D01*
X695345Y189828D01*
X695344Y189837D01*
X695349Y189838D01*
X695719Y190895D01*
X695718Y190899D01*
X695720Y190901D01*
X695718Y190904D01*
X695722Y190906D01*
X695733Y191009D01*
X698335Y191009D01*
X698097Y189810D01*
X697525Y188428D01*
X696694Y187185D01*
X695637Y186128D01*
X694394Y185297D01*
X693012Y184725D01*
X692971Y184717D01*
X692902Y184693D01*
X692832Y184679D01*
X692769Y184646D01*
X692702Y184623D01*
X692643Y184581D01*
X692579Y184548D01*
X692528Y184499D01*
X692470Y184458D01*
X692425Y184402D01*
X692373Y184352D01*
X692337Y184291D01*
X692293Y184236D01*
X692266Y184169D01*
X692229Y184107D01*
X692212Y184038D01*
X692185Y183973D01*
X692177Y183901D01*
X692159Y183831D01*
X692162Y183760D01*
X692154Y183690D01*
X692166Y183619D01*
X692168Y183547D01*
X692190Y183480D01*
X692202Y183410D01*
X692234Y183345D01*
X692256Y183276D01*
X692291Y183228D01*
X692326Y183154D01*
X692407Y183065D01*
X692451Y183003D01*
X695627Y179827D01*
X695627Y175661D01*
X692681Y172715D01*
X688515Y172715D01*
G37*
%LPD*%
%LPC*%
G36*
X695733Y106679D02*
X695733Y106679D01*
X695722Y106782D01*
X695716Y106788D01*
X695719Y106793D01*
X695349Y107850D01*
X695343Y107854D01*
X695345Y107860D01*
X694749Y108808D01*
X694741Y108811D01*
X694742Y108816D01*
X693950Y109608D01*
X693942Y109609D01*
X693942Y109615D01*
X692994Y110211D01*
X692985Y110210D01*
X692984Y110215D01*
X691927Y110585D01*
X691919Y110583D01*
X691916Y110588D01*
X690804Y110713D01*
X690800Y110711D01*
X690798Y110713D01*
X686313Y110713D01*
X686313Y113255D01*
X687725Y113255D01*
X687754Y113259D01*
X687783Y113256D01*
X687894Y113279D01*
X688006Y113295D01*
X688033Y113307D01*
X688062Y113312D01*
X688162Y113365D01*
X688265Y113411D01*
X688288Y113430D01*
X688314Y113443D01*
X688396Y113521D01*
X688482Y113594D01*
X688499Y113619D01*
X688520Y113639D01*
X688577Y113737D01*
X688640Y113831D01*
X688649Y113859D01*
X688664Y113884D01*
X688692Y113994D01*
X688726Y114102D01*
X688727Y114132D01*
X688734Y114160D01*
X688730Y114273D01*
X688733Y114386D01*
X688726Y114415D01*
X688725Y114444D01*
X688690Y114552D01*
X688661Y114661D01*
X688646Y114687D01*
X688637Y114715D01*
X688592Y114778D01*
X688516Y114906D01*
X688470Y114949D01*
X688442Y114988D01*
X685569Y117861D01*
X685569Y122027D01*
X688515Y124973D01*
X692681Y124973D01*
X695627Y122027D01*
X695627Y117861D01*
X692451Y114685D01*
X692407Y114627D01*
X692356Y114576D01*
X692322Y114514D01*
X692280Y114458D01*
X692254Y114390D01*
X692219Y114327D01*
X692204Y114258D01*
X692179Y114192D01*
X692173Y114120D01*
X692157Y114050D01*
X692161Y113979D01*
X692155Y113909D01*
X692169Y113838D01*
X692173Y113766D01*
X692197Y113699D01*
X692211Y113630D01*
X692244Y113566D01*
X692268Y113498D01*
X692309Y113440D01*
X692342Y113378D01*
X692392Y113325D01*
X692434Y113267D01*
X692489Y113223D01*
X692538Y113172D01*
X692600Y113135D01*
X692657Y113090D01*
X692713Y113069D01*
X692783Y113028D01*
X692900Y112998D01*
X692971Y112971D01*
X693012Y112963D01*
X694394Y112391D01*
X695637Y111560D01*
X696694Y110503D01*
X697525Y109260D01*
X698097Y107878D01*
X698335Y106679D01*
X695733Y106679D01*
G37*
%LPD*%
G36*
X238207Y201625D02*
X238207Y201625D01*
X238230Y201629D01*
X238237Y201644D01*
X238246Y201650D01*
X238244Y201660D01*
X238251Y201676D01*
X238251Y204216D01*
X238239Y204235D01*
X238236Y204257D01*
X238220Y204264D01*
X238214Y204273D01*
X238204Y204272D01*
X238189Y204279D01*
X224092Y204279D01*
X224073Y204267D01*
X224050Y204263D01*
X224043Y204248D01*
X224034Y204242D01*
X224036Y204232D01*
X224029Y204216D01*
X224029Y201676D01*
X224041Y201657D01*
X224044Y201635D01*
X224060Y201628D01*
X224066Y201619D01*
X224076Y201620D01*
X224092Y201613D01*
X238189Y201613D01*
X238207Y201625D01*
G37*
%LPC*%
G36*
X515937Y136270D02*
X515937Y136270D01*
X515937Y140399D01*
X523241Y140399D01*
X523241Y138918D01*
X523033Y138142D01*
X522632Y137447D01*
X522064Y136879D01*
X521369Y136478D01*
X520593Y136270D01*
X515937Y136270D01*
G37*
%LPD*%
%LPC*%
G36*
X508107Y136270D02*
X508107Y136270D01*
X507331Y136478D01*
X506636Y136879D01*
X506068Y137447D01*
X505667Y138142D01*
X505459Y138918D01*
X505459Y140399D01*
X512763Y140399D01*
X512763Y136270D01*
X508107Y136270D01*
G37*
%LPD*%
%LPC*%
G36*
X723350Y184433D02*
X723350Y184433D01*
X721884Y184725D01*
X720740Y185199D01*
X720502Y185297D01*
X719404Y186031D01*
X719259Y186128D01*
X718202Y187185D01*
X717371Y188428D01*
X716799Y189810D01*
X716561Y191009D01*
X719163Y191009D01*
X719174Y190906D01*
X719180Y190900D01*
X719177Y190895D01*
X719547Y189838D01*
X719554Y189834D01*
X719551Y189828D01*
X720147Y188880D01*
X720155Y188877D01*
X720154Y188872D01*
X720946Y188080D01*
X720954Y188079D01*
X720954Y188073D01*
X721902Y187477D01*
X721911Y187478D01*
X721912Y187473D01*
X722969Y187103D01*
X722977Y187105D01*
X722980Y187100D01*
X724093Y186975D01*
X724096Y186977D01*
X724098Y186975D01*
X726083Y186975D01*
X726083Y184433D01*
X723350Y184433D01*
G37*
%LPD*%
%LPC*%
G36*
X716560Y106679D02*
X716560Y106679D01*
X716799Y107878D01*
X717120Y108652D01*
X717371Y109260D01*
X717909Y110064D01*
X718202Y110503D01*
X719259Y111560D01*
X720502Y112391D01*
X721884Y112963D01*
X723350Y113255D01*
X726083Y113255D01*
X726083Y110713D01*
X724098Y110713D01*
X724095Y110711D01*
X724094Y110711D01*
X724093Y110713D01*
X722980Y110588D01*
X722974Y110582D01*
X722969Y110585D01*
X721912Y110215D01*
X721908Y110209D01*
X721902Y110211D01*
X720954Y109615D01*
X720951Y109607D01*
X720946Y109608D01*
X720154Y108816D01*
X720153Y108808D01*
X720147Y108808D01*
X719551Y107860D01*
X719552Y107851D01*
X719547Y107850D01*
X719177Y106793D01*
X719179Y106787D01*
X719175Y106784D01*
X719176Y106783D01*
X719174Y106782D01*
X719163Y106679D01*
X716560Y106679D01*
G37*
%LPD*%
G36*
X648608Y93675D02*
X648608Y93675D01*
X648630Y93679D01*
X648637Y93694D01*
X648646Y93700D01*
X648645Y93710D01*
X648652Y93726D01*
X648652Y96266D01*
X648640Y96285D01*
X648636Y96307D01*
X648621Y96314D01*
X648615Y96323D01*
X648605Y96322D01*
X648589Y96329D01*
X639763Y96329D01*
X639744Y96317D01*
X639721Y96313D01*
X639714Y96298D01*
X639705Y96292D01*
X639707Y96282D01*
X639700Y96266D01*
X639700Y93726D01*
X639712Y93707D01*
X639715Y93685D01*
X639731Y93678D01*
X639737Y93669D01*
X639747Y93670D01*
X639763Y93663D01*
X648589Y93663D01*
X648608Y93675D01*
G37*
G36*
X603904Y93675D02*
X603904Y93675D01*
X603926Y93679D01*
X603933Y93694D01*
X603942Y93700D01*
X603941Y93710D01*
X603948Y93726D01*
X603948Y96266D01*
X603936Y96285D01*
X603932Y96307D01*
X603917Y96314D01*
X603911Y96323D01*
X603901Y96322D01*
X603885Y96329D01*
X595059Y96329D01*
X595040Y96317D01*
X595017Y96313D01*
X595010Y96298D01*
X595001Y96292D01*
X595003Y96282D01*
X594996Y96266D01*
X594996Y93726D01*
X595008Y93707D01*
X595011Y93685D01*
X595027Y93678D01*
X595033Y93669D01*
X595043Y93670D01*
X595059Y93663D01*
X603885Y93663D01*
X603904Y93675D01*
G37*
D10*
X238747Y208801D02*
X244361Y208801D01*
X244361Y197091D01*
X238747Y197091D01*
X238747Y208801D01*
X238747Y198032D02*
X244361Y198032D01*
X244361Y198973D02*
X238747Y198973D01*
X238747Y199914D02*
X244361Y199914D01*
X244361Y200855D02*
X238747Y200855D01*
X238747Y201796D02*
X244361Y201796D01*
X244361Y202737D02*
X238747Y202737D01*
X238747Y203678D02*
X244361Y203678D01*
X244361Y204619D02*
X238747Y204619D01*
X238747Y205560D02*
X244361Y205560D01*
X244361Y206501D02*
X238747Y206501D01*
X238747Y207442D02*
X244361Y207442D01*
X244361Y208383D02*
X238747Y208383D01*
X233947Y208801D02*
X228333Y208801D01*
X233947Y208801D02*
X233947Y197091D01*
X228333Y197091D01*
X228333Y208801D01*
X228333Y198032D02*
X233947Y198032D01*
X233947Y198973D02*
X228333Y198973D01*
X228333Y199914D02*
X233947Y199914D01*
X233947Y200855D02*
X228333Y200855D01*
X228333Y201796D02*
X233947Y201796D01*
X233947Y202737D02*
X228333Y202737D01*
X228333Y203678D02*
X233947Y203678D01*
X233947Y204619D02*
X228333Y204619D01*
X228333Y205560D02*
X233947Y205560D01*
X233947Y206501D02*
X228333Y206501D01*
X228333Y207442D02*
X233947Y207442D01*
X233947Y208383D02*
X228333Y208383D01*
X223533Y208801D02*
X217919Y208801D01*
X223533Y208801D02*
X223533Y197091D01*
X217919Y197091D01*
X217919Y208801D01*
X217919Y198032D02*
X223533Y198032D01*
X223533Y198973D02*
X217919Y198973D01*
X217919Y199914D02*
X223533Y199914D01*
X223533Y200855D02*
X217919Y200855D01*
X217919Y201796D02*
X223533Y201796D01*
X223533Y202737D02*
X217919Y202737D01*
X217919Y203678D02*
X223533Y203678D01*
X223533Y204619D02*
X217919Y204619D01*
X217919Y205560D02*
X223533Y205560D01*
X223533Y206501D02*
X217919Y206501D01*
X217919Y207442D02*
X223533Y207442D01*
X223533Y208383D02*
X217919Y208383D01*
X644004Y100851D02*
X649618Y100851D01*
X649618Y89141D01*
X644004Y89141D01*
X644004Y100851D01*
X644004Y90082D02*
X649618Y90082D01*
X649618Y91023D02*
X644004Y91023D01*
X644004Y91964D02*
X649618Y91964D01*
X649618Y92905D02*
X644004Y92905D01*
X644004Y93846D02*
X649618Y93846D01*
X649618Y94787D02*
X644004Y94787D01*
X644004Y95728D02*
X649618Y95728D01*
X649618Y96669D02*
X644004Y96669D01*
X644004Y97610D02*
X649618Y97610D01*
X649618Y98551D02*
X644004Y98551D01*
X644004Y99492D02*
X649618Y99492D01*
X649618Y100433D02*
X644004Y100433D01*
X639204Y100851D02*
X633590Y100851D01*
X639204Y100851D02*
X639204Y89141D01*
X633590Y89141D01*
X633590Y100851D01*
X633590Y90082D02*
X639204Y90082D01*
X639204Y91023D02*
X633590Y91023D01*
X633590Y91964D02*
X639204Y91964D01*
X639204Y92905D02*
X633590Y92905D01*
X633590Y93846D02*
X639204Y93846D01*
X639204Y94787D02*
X633590Y94787D01*
X633590Y95728D02*
X639204Y95728D01*
X639204Y96669D02*
X633590Y96669D01*
X633590Y97610D02*
X639204Y97610D01*
X639204Y98551D02*
X633590Y98551D01*
X633590Y99492D02*
X639204Y99492D01*
X639204Y100433D02*
X633590Y100433D01*
D11*
X520192Y139319D02*
X520192Y144653D01*
X520192Y139319D02*
X508508Y139319D01*
X508508Y144653D01*
X520192Y144653D01*
X520192Y140284D02*
X508508Y140284D01*
X508508Y141249D02*
X520192Y141249D01*
X520192Y142214D02*
X508508Y142214D01*
X508508Y143179D02*
X520192Y143179D01*
X520192Y144144D02*
X508508Y144144D01*
X520192Y147447D02*
X520192Y152781D01*
X520192Y147447D02*
X508508Y147447D01*
X508508Y152781D01*
X520192Y152781D01*
X520192Y148412D02*
X508508Y148412D01*
X508508Y149377D02*
X520192Y149377D01*
X520192Y150342D02*
X508508Y150342D01*
X508508Y151307D02*
X520192Y151307D01*
X520192Y152272D02*
X508508Y152272D01*
D10*
X599300Y100851D02*
X604914Y100851D01*
X604914Y89141D01*
X599300Y89141D01*
X599300Y100851D01*
X599300Y90082D02*
X604914Y90082D01*
X604914Y91023D02*
X599300Y91023D01*
X599300Y91964D02*
X604914Y91964D01*
X604914Y92905D02*
X599300Y92905D01*
X599300Y93846D02*
X604914Y93846D01*
X604914Y94787D02*
X599300Y94787D01*
X599300Y95728D02*
X604914Y95728D01*
X604914Y96669D02*
X599300Y96669D01*
X599300Y97610D02*
X604914Y97610D01*
X604914Y98551D02*
X599300Y98551D01*
X599300Y99492D02*
X604914Y99492D01*
X604914Y100433D02*
X599300Y100433D01*
X594500Y100851D02*
X588886Y100851D01*
X594500Y100851D02*
X594500Y89141D01*
X588886Y89141D01*
X588886Y100851D01*
X588886Y90082D02*
X594500Y90082D01*
X594500Y91023D02*
X588886Y91023D01*
X588886Y91964D02*
X594500Y91964D01*
X594500Y92905D02*
X588886Y92905D01*
X588886Y93846D02*
X594500Y93846D01*
X594500Y94787D02*
X588886Y94787D01*
X588886Y95728D02*
X594500Y95728D01*
X594500Y96669D02*
X588886Y96669D01*
X588886Y97610D02*
X594500Y97610D01*
X594500Y98551D02*
X588886Y98551D01*
X588886Y99492D02*
X594500Y99492D01*
X594500Y100433D02*
X588886Y100433D01*
D12*
X723828Y105664D02*
X730368Y105664D01*
X730368Y192024D02*
X723828Y192024D01*
X688568Y192024D02*
X682028Y192024D01*
X682028Y105664D02*
X688568Y105664D01*
D13*
X249936Y155448D03*
D14*
X69507Y114443D02*
X69507Y111957D01*
X69507Y114443D02*
X87993Y114443D01*
X87993Y111957D01*
X69507Y111957D01*
X69507Y112921D02*
X87993Y112921D01*
X87993Y113885D02*
X69507Y113885D01*
X69507Y116957D02*
X69507Y119443D01*
X87993Y119443D01*
X87993Y116957D01*
X69507Y116957D01*
X69507Y117921D02*
X87993Y117921D01*
X87993Y118885D02*
X69507Y118885D01*
X69507Y121957D02*
X69507Y124443D01*
X87993Y124443D01*
X87993Y121957D01*
X69507Y121957D01*
X69507Y122921D02*
X87993Y122921D01*
X87993Y123885D02*
X69507Y123885D01*
X69507Y126957D02*
X69507Y129443D01*
X87993Y129443D01*
X87993Y126957D01*
X69507Y126957D01*
X69507Y127921D02*
X87993Y127921D01*
X87993Y128885D02*
X69507Y128885D01*
X69507Y131957D02*
X69507Y134443D01*
X87993Y134443D01*
X87993Y131957D01*
X69507Y131957D01*
X69507Y132921D02*
X87993Y132921D01*
X87993Y133885D02*
X69507Y133885D01*
X69507Y136957D02*
X69507Y139443D01*
X87993Y139443D01*
X87993Y136957D01*
X69507Y136957D01*
X69507Y137921D02*
X87993Y137921D01*
X87993Y138885D02*
X69507Y138885D01*
X69507Y141957D02*
X69507Y144443D01*
X87993Y144443D01*
X87993Y141957D01*
X69507Y141957D01*
X69507Y142921D02*
X87993Y142921D01*
X87993Y143885D02*
X69507Y143885D01*
X69507Y146957D02*
X69507Y149443D01*
X87993Y149443D01*
X87993Y146957D01*
X69507Y146957D01*
X69507Y147921D02*
X87993Y147921D01*
X87993Y148885D02*
X69507Y148885D01*
X69507Y151957D02*
X69507Y154443D01*
X87993Y154443D01*
X87993Y151957D01*
X69507Y151957D01*
X69507Y152921D02*
X87993Y152921D01*
X87993Y153885D02*
X69507Y153885D01*
X69507Y156957D02*
X69507Y159443D01*
X87993Y159443D01*
X87993Y156957D01*
X69507Y156957D01*
X69507Y157921D02*
X87993Y157921D01*
X87993Y158885D02*
X69507Y158885D01*
X69507Y161957D02*
X69507Y164443D01*
X87993Y164443D01*
X87993Y161957D01*
X69507Y161957D01*
X69507Y162921D02*
X87993Y162921D01*
X87993Y163885D02*
X69507Y163885D01*
X69507Y186957D02*
X69507Y189443D01*
X87993Y189443D01*
X87993Y186957D01*
X69507Y186957D01*
X69507Y187921D02*
X87993Y187921D01*
X87993Y188885D02*
X69507Y188885D01*
X69507Y191957D02*
X69507Y194443D01*
X87993Y194443D01*
X87993Y191957D01*
X69507Y191957D01*
X69507Y192921D02*
X87993Y192921D01*
X87993Y193885D02*
X69507Y193885D01*
X69507Y196957D02*
X69507Y199443D01*
X87993Y199443D01*
X87993Y196957D01*
X69507Y196957D01*
X69507Y197921D02*
X87993Y197921D01*
X87993Y198885D02*
X69507Y198885D01*
X69507Y201957D02*
X69507Y204443D01*
X87993Y204443D01*
X87993Y201957D01*
X69507Y201957D01*
X69507Y202921D02*
X87993Y202921D01*
X87993Y203885D02*
X69507Y203885D01*
X69507Y206957D02*
X69507Y209443D01*
X87993Y209443D01*
X87993Y206957D01*
X69507Y206957D01*
X69507Y207921D02*
X87993Y207921D01*
X87993Y208885D02*
X69507Y208885D01*
X69507Y211957D02*
X69507Y214443D01*
X87993Y214443D01*
X87993Y211957D01*
X69507Y211957D01*
X69507Y212921D02*
X87993Y212921D01*
X87993Y213885D02*
X69507Y213885D01*
X69507Y216957D02*
X69507Y219443D01*
X87993Y219443D01*
X87993Y216957D01*
X69507Y216957D01*
X69507Y217921D02*
X87993Y217921D01*
X87993Y218885D02*
X69507Y218885D01*
X69507Y221957D02*
X69507Y224443D01*
X87993Y224443D01*
X87993Y221957D01*
X69507Y221957D01*
X69507Y222921D02*
X87993Y222921D01*
X87993Y223885D02*
X69507Y223885D01*
X69507Y226957D02*
X69507Y229443D01*
X87993Y229443D01*
X87993Y226957D01*
X69507Y226957D01*
X69507Y227921D02*
X87993Y227921D01*
X87993Y228885D02*
X69507Y228885D01*
X69507Y231957D02*
X69507Y234443D01*
X87993Y234443D01*
X87993Y231957D01*
X69507Y231957D01*
X69507Y232921D02*
X87993Y232921D01*
X87993Y233885D02*
X69507Y233885D01*
X69507Y236957D02*
X69507Y239443D01*
X87993Y239443D01*
X87993Y236957D01*
X69507Y236957D01*
X69507Y237921D02*
X87993Y237921D01*
X87993Y238885D02*
X69507Y238885D01*
X69507Y241957D02*
X69507Y244443D01*
X87993Y244443D01*
X87993Y241957D01*
X69507Y241957D01*
X69507Y242921D02*
X87993Y242921D01*
X87993Y243885D02*
X69507Y243885D01*
X69507Y246957D02*
X69507Y249443D01*
X87993Y249443D01*
X87993Y246957D01*
X69507Y246957D01*
X69507Y247921D02*
X87993Y247921D01*
X87993Y248885D02*
X69507Y248885D01*
X69507Y251957D02*
X69507Y254443D01*
X87993Y254443D01*
X87993Y251957D01*
X69507Y251957D01*
X69507Y252921D02*
X87993Y252921D01*
X87993Y253885D02*
X69507Y253885D01*
X69507Y256957D02*
X69507Y259443D01*
X87993Y259443D01*
X87993Y256957D01*
X69507Y256957D01*
X69507Y257921D02*
X87993Y257921D01*
X87993Y258885D02*
X69507Y258885D01*
X69507Y261957D02*
X69507Y264443D01*
X87993Y264443D01*
X87993Y261957D01*
X69507Y261957D01*
X69507Y262921D02*
X87993Y262921D01*
X87993Y263885D02*
X69507Y263885D01*
X69507Y266957D02*
X69507Y269443D01*
X87993Y269443D01*
X87993Y266957D01*
X69507Y266957D01*
X69507Y267921D02*
X87993Y267921D01*
X87993Y268885D02*
X69507Y268885D01*
X69507Y271957D02*
X69507Y274443D01*
X87993Y274443D01*
X87993Y271957D01*
X69507Y271957D01*
X69507Y272921D02*
X87993Y272921D01*
X87993Y273885D02*
X69507Y273885D01*
X69507Y276957D02*
X69507Y279443D01*
X87993Y279443D01*
X87993Y276957D01*
X69507Y276957D01*
X69507Y277921D02*
X87993Y277921D01*
X87993Y278885D02*
X69507Y278885D01*
X69507Y281957D02*
X69507Y284443D01*
X87993Y284443D01*
X87993Y281957D01*
X69507Y281957D01*
X69507Y282921D02*
X87993Y282921D01*
X87993Y283885D02*
X69507Y283885D01*
X69507Y286957D02*
X69507Y289443D01*
X87993Y289443D01*
X87993Y286957D01*
X69507Y286957D01*
X69507Y287921D02*
X87993Y287921D01*
X87993Y288885D02*
X69507Y288885D01*
X69507Y291957D02*
X69507Y294443D01*
X87993Y294443D01*
X87993Y291957D01*
X69507Y291957D01*
X69507Y292921D02*
X87993Y292921D01*
X87993Y293885D02*
X69507Y293885D01*
D15*
X542880Y86252D03*
X500880Y86252D03*
X521880Y99252D03*
D11*
X500880Y86252D02*
X491880Y86252D01*
X500880Y86252D02*
X500880Y97252D01*
X521880Y99252D02*
X521880Y106252D01*
X542880Y97252D02*
X542880Y86252D01*
X551880Y86252D01*
D15*
X500820Y320148D03*
X542820Y320148D03*
X521820Y307148D03*
D11*
X542820Y320148D02*
X551820Y320148D01*
X542820Y320148D02*
X542820Y309148D01*
X521820Y307148D02*
X521820Y300148D01*
X500820Y309148D02*
X500820Y320148D01*
X491820Y320148D01*
D16*
X640080Y317500D03*
X129540Y93980D03*
D17*
X185420Y292100D03*
X531114Y141224D03*
D18*
X543814Y127508D02*
X576326Y94996D01*
X544322Y128016D02*
X531114Y141224D01*
X576326Y94996D02*
X591693Y94996D01*
D17*
X498856Y200660D03*
D18*
X498856Y185420D01*
X531622Y152654D01*
X231140Y292100D02*
X185420Y292100D01*
X231140Y292100D02*
X297180Y292100D01*
X317500Y312420D02*
X320040Y312420D01*
D17*
X320040Y312420D03*
D18*
X317500Y312420D02*
X297180Y292100D01*
X231140Y292100D02*
X231140Y202946D01*
X247904Y124206D02*
X335280Y124206D01*
D17*
X335280Y137160D03*
D18*
X335280Y124206D02*
X540512Y124206D01*
X543814Y127508D01*
X544322Y128016D01*
X231140Y140970D02*
X231140Y202946D01*
X231140Y140970D02*
X247904Y124206D01*
X335280Y124206D02*
X335280Y137160D01*
X531114Y141224D02*
X531622Y141732D01*
X531622Y152654D01*
D17*
X657606Y154432D03*
X375920Y281940D03*
X375920Y142240D03*
X464820Y259080D03*
X464820Y281940D03*
X375920Y259080D03*
X401320Y281940D03*
X436880Y281940D03*
X436880Y259080D03*
X401320Y259080D03*
X375920Y238760D03*
X401320Y238760D03*
X436880Y238760D03*
X464820Y236220D03*
X487680Y220980D03*
X464820Y208280D03*
X464820Y185420D03*
X464820Y162560D03*
X464820Y142240D03*
X436880Y142240D03*
X401320Y142240D03*
X375920Y162560D03*
X375920Y185420D03*
X375920Y208280D03*
X401320Y208280D03*
X436880Y208280D03*
X436880Y185420D03*
X436880Y162560D03*
X401320Y162560D03*
X401320Y185420D03*
X515620Y132080D03*
X612140Y101600D03*
X657860Y101600D03*
X669290Y116840D03*
X669290Y180340D03*
X731520Y215900D03*
X718820Y215900D03*
X701040Y215900D03*
X683260Y215900D03*
X662940Y215900D03*
X652780Y226060D03*
X652780Y241300D03*
X652780Y299720D03*
X652780Y312420D03*
X667766Y324104D03*
X698246Y324104D03*
X716026Y324104D03*
X731266Y324104D03*
X683006Y324104D03*
X652780Y284480D03*
X637540Y284480D03*
X619760Y284480D03*
X604520Y284480D03*
X589280Y284480D03*
X574040Y284480D03*
X556260Y284480D03*
X538480Y284480D03*
X520700Y284480D03*
X502920Y284480D03*
X652780Y256540D03*
X637540Y256540D03*
X619760Y256540D03*
X604520Y256540D03*
X589280Y256540D03*
X574040Y256540D03*
X558800Y256540D03*
X543560Y256540D03*
X505460Y256540D03*
X624840Y314960D03*
X589280Y226060D03*
X589280Y190500D03*
X619760Y190500D03*
X654050Y190500D03*
X556260Y190500D03*
X556260Y226060D03*
X528320Y226060D03*
X528320Y203200D03*
X589280Y314960D03*
X589280Y165100D03*
X620014Y170180D03*
X648970Y132080D03*
X589280Y129540D03*
X558800Y132080D03*
X563880Y83820D03*
X619760Y83820D03*
X668020Y83820D03*
X706120Y83820D03*
X731520Y83566D03*
X619760Y226060D03*
X464820Y312420D03*
X436880Y312420D03*
X401320Y309880D03*
X375920Y312420D03*
X373380Y106680D03*
X401320Y106680D03*
X433324Y106680D03*
X259080Y114300D03*
X289560Y157480D03*
X260858Y195072D03*
X248920Y220980D03*
X203200Y238760D03*
X218694Y131318D03*
X159512Y170434D03*
X121158Y151892D03*
X108966Y213614D03*
X116840Y266700D03*
X119380Y307340D03*
X182880Y309880D03*
X463804Y116840D03*
X342900Y134620D03*
X548386Y151130D03*
X593598Y113030D03*
X641858Y118110D03*
X101600Y242570D03*
X109982Y187960D03*
X202438Y149606D03*
X165100Y152400D03*
X130302Y131826D03*
D18*
X119324Y143200D02*
X78750Y143200D01*
X119324Y143200D02*
X120142Y144018D01*
D17*
X120142Y144018D03*
X132842Y142494D03*
D19*
X95685Y218252D02*
X78802Y218252D01*
X78750Y218200D01*
X95685Y218252D02*
X132842Y181095D01*
X132842Y142494D01*
D18*
X116054Y138200D02*
X78750Y138200D01*
X116054Y138200D02*
X117094Y137160D01*
D17*
X117094Y137160D03*
X254254Y207010D03*
D18*
X254254Y195072D01*
X254000Y194818D01*
D17*
X254000Y194818D03*
D19*
X94140Y213200D02*
X78750Y213200D01*
X127000Y180340D02*
X127000Y142240D01*
X121920Y137160D01*
X117094Y137160D01*
X127000Y180340D02*
X94140Y213200D01*
D17*
X121920Y127000D03*
D19*
X79258Y132692D02*
X78750Y133200D01*
X114554Y127000D02*
X121920Y127000D01*
X114554Y127000D02*
X108862Y132692D01*
X79258Y132692D01*
D17*
X539242Y143510D03*
D19*
X539242Y151638D01*
X508000Y182880D01*
X508000Y201930D01*
D17*
X508000Y201930D03*
X139446Y131826D03*
X496570Y132080D03*
D19*
X496570Y168910D02*
X492760Y172720D01*
X496570Y168910D02*
X496570Y132080D01*
D17*
X492760Y172720D03*
D19*
X113908Y235458D02*
X98298Y235458D01*
X139446Y209920D02*
X139446Y131826D01*
X139446Y209920D02*
X113908Y235458D01*
D17*
X98298Y235458D03*
X636270Y112268D03*
D18*
X636397Y112141D01*
X636397Y94996D01*
D17*
X106426Y152400D03*
D19*
X105626Y153200D02*
X78750Y153200D01*
X105626Y153200D02*
X106426Y152400D01*
D18*
X241554Y202946D02*
X241554Y223266D01*
X241300Y223520D01*
D17*
X241300Y223520D03*
D18*
X220726Y223012D02*
X220726Y202946D01*
X220726Y223012D02*
X220980Y223266D01*
D17*
X220980Y223266D03*
D18*
X647700Y111760D02*
X647827Y111633D01*
X647827Y96012D02*
X646811Y94996D01*
X647827Y96012D02*
X647827Y111633D01*
D17*
X647700Y111760D03*
X210820Y238760D03*
X210820Y129540D03*
D19*
X210820Y238760D01*
D17*
X525780Y149860D03*
D18*
X514604Y149860D01*
X514350Y150114D01*
X601980Y95123D02*
X602107Y94996D01*
X601980Y95123D02*
X601980Y111760D01*
D17*
X601980Y111760D03*
X259842Y155702D03*
D18*
X259588Y155448D01*
X249936Y155448D01*
D17*
X629158Y153496D03*
D18*
X629158Y164084D01*
X635000Y169926D01*
D17*
X635000Y169926D03*
X167640Y165354D03*
D19*
X197540Y165354D01*
X205486Y157408D01*
D17*
X205486Y157408D03*
X113284Y222758D03*
D19*
X112842Y223200D01*
X78750Y223200D01*
D17*
X198120Y157480D03*
X172720Y160020D03*
D19*
X195580Y160020D01*
X198120Y157480D01*
D17*
X108712Y228280D03*
D19*
X80862Y228280D01*
X80782Y228200D01*
X78750Y228200D01*
D17*
X103040Y293200D03*
D18*
X99060Y293200D02*
X78750Y293200D01*
X99060Y293200D02*
X103040Y293200D01*
X96346Y288200D02*
X78750Y288200D01*
X99060Y290914D02*
X99060Y293200D01*
X99060Y290914D02*
X96346Y288200D01*
M02*
