G04 EAGLE Gerber RS-274X export*
G75*
%MOMM*%
%FSLAX34Y34*%
%LPD*%
%INSoldermask Bottom*%
%IPPOS*%
%AMOC8*
5,1,8,0,0,1.08239X$1,22.5*%
G01*
%ADD10C,0.228344*%
%ADD11C,0.777000*%
%ADD12C,1.143000*%
%ADD13C,1.127000*%
%ADD14C,0.228959*%
%ADD15C,0.736600*%
%ADD16C,2.006600*%

G36*
X632779Y204736D02*
X632779Y204736D01*
X632845Y204738D01*
X632888Y204756D01*
X632935Y204764D01*
X632992Y204798D01*
X633052Y204823D01*
X633087Y204854D01*
X633128Y204879D01*
X633170Y204930D01*
X633218Y204974D01*
X633240Y205016D01*
X633269Y205053D01*
X633290Y205115D01*
X633321Y205174D01*
X633329Y205228D01*
X633341Y205265D01*
X633340Y205305D01*
X633348Y205359D01*
X633348Y209169D01*
X633337Y209234D01*
X633335Y209300D01*
X633317Y209343D01*
X633309Y209390D01*
X633275Y209447D01*
X633250Y209507D01*
X633219Y209542D01*
X633194Y209583D01*
X633143Y209625D01*
X633099Y209673D01*
X633057Y209695D01*
X633020Y209724D01*
X632958Y209745D01*
X632899Y209776D01*
X632845Y209784D01*
X632808Y209796D01*
X632768Y209795D01*
X632714Y209803D01*
X630174Y209803D01*
X630109Y209792D01*
X630043Y209790D01*
X630000Y209772D01*
X629953Y209764D01*
X629896Y209730D01*
X629836Y209705D01*
X629801Y209674D01*
X629760Y209649D01*
X629719Y209598D01*
X629670Y209554D01*
X629648Y209512D01*
X629619Y209475D01*
X629598Y209413D01*
X629567Y209354D01*
X629559Y209300D01*
X629547Y209263D01*
X629547Y209259D01*
X629547Y209258D01*
X629548Y209223D01*
X629540Y209169D01*
X629540Y205359D01*
X629551Y205294D01*
X629553Y205228D01*
X629571Y205185D01*
X629579Y205138D01*
X629613Y205081D01*
X629638Y205021D01*
X629669Y204986D01*
X629694Y204945D01*
X629745Y204904D01*
X629789Y204855D01*
X629831Y204833D01*
X629868Y204804D01*
X629930Y204783D01*
X629989Y204752D01*
X630043Y204744D01*
X630080Y204732D01*
X630120Y204733D01*
X630174Y204725D01*
X632714Y204725D01*
X632779Y204736D01*
G37*
G36*
X632779Y168922D02*
X632779Y168922D01*
X632845Y168924D01*
X632888Y168942D01*
X632935Y168950D01*
X632992Y168984D01*
X633052Y169009D01*
X633087Y169040D01*
X633128Y169065D01*
X633170Y169116D01*
X633218Y169160D01*
X633240Y169202D01*
X633269Y169239D01*
X633290Y169301D01*
X633321Y169360D01*
X633329Y169414D01*
X633341Y169451D01*
X633340Y169491D01*
X633348Y169545D01*
X633348Y173355D01*
X633337Y173420D01*
X633335Y173486D01*
X633317Y173529D01*
X633309Y173576D01*
X633275Y173633D01*
X633250Y173693D01*
X633219Y173728D01*
X633194Y173769D01*
X633143Y173811D01*
X633099Y173859D01*
X633057Y173881D01*
X633020Y173910D01*
X632958Y173931D01*
X632899Y173962D01*
X632845Y173970D01*
X632808Y173982D01*
X632768Y173981D01*
X632714Y173989D01*
X630174Y173989D01*
X630109Y173978D01*
X630043Y173976D01*
X630000Y173958D01*
X629953Y173950D01*
X629896Y173916D01*
X629836Y173891D01*
X629801Y173860D01*
X629760Y173835D01*
X629719Y173784D01*
X629670Y173740D01*
X629648Y173698D01*
X629619Y173661D01*
X629598Y173599D01*
X629567Y173540D01*
X629559Y173486D01*
X629547Y173449D01*
X629547Y173445D01*
X629547Y173444D01*
X629548Y173409D01*
X629540Y173355D01*
X629540Y169545D01*
X629551Y169480D01*
X629553Y169414D01*
X629571Y169371D01*
X629579Y169324D01*
X629613Y169267D01*
X629638Y169207D01*
X629669Y169172D01*
X629694Y169131D01*
X629745Y169090D01*
X629789Y169041D01*
X629831Y169019D01*
X629868Y168990D01*
X629930Y168969D01*
X629989Y168938D01*
X630043Y168930D01*
X630080Y168918D01*
X630120Y168919D01*
X630174Y168911D01*
X632714Y168911D01*
X632779Y168922D01*
G37*
G36*
X212790Y279793D02*
X212790Y279793D01*
X212856Y279795D01*
X212899Y279813D01*
X212946Y279821D01*
X213003Y279855D01*
X213063Y279880D01*
X213098Y279911D01*
X213139Y279936D01*
X213181Y279987D01*
X213229Y280031D01*
X213251Y280073D01*
X213280Y280110D01*
X213301Y280172D01*
X213332Y280231D01*
X213340Y280285D01*
X213352Y280322D01*
X213351Y280362D01*
X213359Y280416D01*
X213359Y282956D01*
X213348Y283021D01*
X213346Y283087D01*
X213328Y283130D01*
X213320Y283177D01*
X213286Y283234D01*
X213261Y283294D01*
X213230Y283329D01*
X213205Y283370D01*
X213154Y283412D01*
X213110Y283460D01*
X213068Y283482D01*
X213031Y283511D01*
X212969Y283532D01*
X212910Y283563D01*
X212856Y283571D01*
X212819Y283583D01*
X212779Y283582D01*
X212725Y283590D01*
X208915Y283590D01*
X208850Y283579D01*
X208784Y283577D01*
X208741Y283559D01*
X208694Y283551D01*
X208637Y283517D01*
X208577Y283492D01*
X208542Y283461D01*
X208501Y283436D01*
X208460Y283385D01*
X208411Y283341D01*
X208389Y283299D01*
X208360Y283262D01*
X208339Y283200D01*
X208308Y283141D01*
X208300Y283087D01*
X208288Y283050D01*
X208288Y283047D01*
X208289Y283010D01*
X208281Y282956D01*
X208281Y280416D01*
X208292Y280351D01*
X208294Y280285D01*
X208312Y280242D01*
X208320Y280195D01*
X208354Y280138D01*
X208379Y280078D01*
X208410Y280043D01*
X208435Y280002D01*
X208486Y279961D01*
X208530Y279912D01*
X208572Y279890D01*
X208609Y279861D01*
X208671Y279840D01*
X208730Y279809D01*
X208784Y279801D01*
X208821Y279789D01*
X208861Y279790D01*
X208915Y279782D01*
X212725Y279782D01*
X212790Y279793D01*
G37*
G36*
X202630Y279793D02*
X202630Y279793D01*
X202696Y279795D01*
X202739Y279813D01*
X202786Y279821D01*
X202843Y279855D01*
X202903Y279880D01*
X202938Y279911D01*
X202979Y279936D01*
X203021Y279987D01*
X203069Y280031D01*
X203091Y280073D01*
X203120Y280110D01*
X203141Y280172D01*
X203172Y280231D01*
X203180Y280285D01*
X203192Y280322D01*
X203191Y280362D01*
X203199Y280416D01*
X203199Y282956D01*
X203188Y283021D01*
X203186Y283087D01*
X203168Y283130D01*
X203160Y283177D01*
X203126Y283234D01*
X203101Y283294D01*
X203070Y283329D01*
X203045Y283370D01*
X202994Y283412D01*
X202950Y283460D01*
X202908Y283482D01*
X202871Y283511D01*
X202809Y283532D01*
X202750Y283563D01*
X202696Y283571D01*
X202659Y283583D01*
X202619Y283582D01*
X202565Y283590D01*
X198755Y283590D01*
X198690Y283579D01*
X198624Y283577D01*
X198581Y283559D01*
X198534Y283551D01*
X198477Y283517D01*
X198417Y283492D01*
X198382Y283461D01*
X198341Y283436D01*
X198300Y283385D01*
X198251Y283341D01*
X198229Y283299D01*
X198200Y283262D01*
X198179Y283200D01*
X198148Y283141D01*
X198140Y283087D01*
X198128Y283050D01*
X198128Y283047D01*
X198129Y283010D01*
X198121Y282956D01*
X198121Y280416D01*
X198132Y280351D01*
X198134Y280285D01*
X198152Y280242D01*
X198160Y280195D01*
X198194Y280138D01*
X198219Y280078D01*
X198250Y280043D01*
X198275Y280002D01*
X198326Y279961D01*
X198370Y279912D01*
X198412Y279890D01*
X198449Y279861D01*
X198511Y279840D01*
X198570Y279809D01*
X198624Y279801D01*
X198661Y279789D01*
X198701Y279790D01*
X198755Y279782D01*
X202565Y279782D01*
X202630Y279793D01*
G37*
D10*
X213358Y287530D02*
X218950Y287530D01*
X218950Y275842D01*
X213358Y275842D01*
X213358Y287530D01*
X213358Y278011D02*
X218950Y278011D01*
X218950Y280180D02*
X213358Y280180D01*
X213358Y282349D02*
X218950Y282349D01*
X218950Y284518D02*
X213358Y284518D01*
X213358Y286687D02*
X218950Y286687D01*
X208536Y287530D02*
X202944Y287530D01*
X208536Y287530D02*
X208536Y275842D01*
X202944Y275842D01*
X202944Y287530D01*
X202944Y278011D02*
X208536Y278011D01*
X208536Y280180D02*
X202944Y280180D01*
X202944Y282349D02*
X208536Y282349D01*
X208536Y284518D02*
X202944Y284518D01*
X202944Y286687D02*
X208536Y286687D01*
X198122Y287530D02*
X192530Y287530D01*
X198122Y287530D02*
X198122Y275842D01*
X192530Y275842D01*
X192530Y287530D01*
X192530Y278011D02*
X198122Y278011D01*
X198122Y280180D02*
X192530Y280180D01*
X192530Y282349D02*
X198122Y282349D01*
X198122Y284518D02*
X192530Y284518D01*
X192530Y286687D02*
X198122Y286687D01*
X625600Y215267D02*
X625600Y209675D01*
X625600Y215267D02*
X637288Y215267D01*
X637288Y209675D01*
X625600Y209675D01*
X625600Y211844D02*
X637288Y211844D01*
X637288Y214013D02*
X625600Y214013D01*
X625600Y204853D02*
X625600Y199261D01*
X625600Y204853D02*
X637288Y204853D01*
X637288Y199261D01*
X625600Y199261D01*
X625600Y201430D02*
X637288Y201430D01*
X637288Y203599D02*
X625600Y203599D01*
X625600Y179453D02*
X625600Y173861D01*
X625600Y179453D02*
X637288Y179453D01*
X637288Y173861D01*
X625600Y173861D01*
X625600Y176030D02*
X637288Y176030D01*
X637288Y178199D02*
X625600Y178199D01*
X625600Y169039D02*
X625600Y163447D01*
X625600Y169039D02*
X637288Y169039D01*
X637288Y163447D01*
X625600Y163447D01*
X625600Y165616D02*
X637288Y165616D01*
X637288Y167785D02*
X625600Y167785D01*
D11*
X601698Y72700D03*
X601698Y130500D03*
D12*
X228092Y31496D03*
D13*
X66040Y362980D03*
X600680Y19040D03*
D14*
X6010Y99260D02*
X6010Y101740D01*
X24490Y101740D01*
X24490Y99260D01*
X6010Y99260D01*
X6010Y101435D02*
X24490Y101435D01*
X6010Y104260D02*
X6010Y106740D01*
X24490Y106740D01*
X24490Y104260D01*
X6010Y104260D01*
X6010Y106435D02*
X24490Y106435D01*
X6010Y109260D02*
X6010Y111740D01*
X24490Y111740D01*
X24490Y109260D01*
X6010Y109260D01*
X6010Y111435D02*
X24490Y111435D01*
X6010Y114260D02*
X6010Y116740D01*
X24490Y116740D01*
X24490Y114260D01*
X6010Y114260D01*
X6010Y116435D02*
X24490Y116435D01*
X6010Y119260D02*
X6010Y121740D01*
X24490Y121740D01*
X24490Y119260D01*
X6010Y119260D01*
X6010Y121435D02*
X24490Y121435D01*
X6010Y124260D02*
X6010Y126740D01*
X24490Y126740D01*
X24490Y124260D01*
X6010Y124260D01*
X6010Y126435D02*
X24490Y126435D01*
X6010Y129260D02*
X6010Y131740D01*
X24490Y131740D01*
X24490Y129260D01*
X6010Y129260D01*
X6010Y131435D02*
X24490Y131435D01*
X6010Y134260D02*
X6010Y136740D01*
X24490Y136740D01*
X24490Y134260D01*
X6010Y134260D01*
X6010Y136435D02*
X24490Y136435D01*
X6010Y139260D02*
X6010Y141740D01*
X24490Y141740D01*
X24490Y139260D01*
X6010Y139260D01*
X6010Y141435D02*
X24490Y141435D01*
X6010Y144260D02*
X6010Y146740D01*
X24490Y146740D01*
X24490Y144260D01*
X6010Y144260D01*
X6010Y146435D02*
X24490Y146435D01*
X6010Y149260D02*
X6010Y151740D01*
X24490Y151740D01*
X24490Y149260D01*
X6010Y149260D01*
X6010Y151435D02*
X24490Y151435D01*
X6010Y174260D02*
X6010Y176740D01*
X24490Y176740D01*
X24490Y174260D01*
X6010Y174260D01*
X6010Y176435D02*
X24490Y176435D01*
X6010Y179260D02*
X6010Y181740D01*
X24490Y181740D01*
X24490Y179260D01*
X6010Y179260D01*
X6010Y181435D02*
X24490Y181435D01*
X6010Y184260D02*
X6010Y186740D01*
X24490Y186740D01*
X24490Y184260D01*
X6010Y184260D01*
X6010Y186435D02*
X24490Y186435D01*
X6010Y189260D02*
X6010Y191740D01*
X24490Y191740D01*
X24490Y189260D01*
X6010Y189260D01*
X6010Y191435D02*
X24490Y191435D01*
X6010Y194260D02*
X6010Y196740D01*
X24490Y196740D01*
X24490Y194260D01*
X6010Y194260D01*
X6010Y196435D02*
X24490Y196435D01*
X6010Y199260D02*
X6010Y201740D01*
X24490Y201740D01*
X24490Y199260D01*
X6010Y199260D01*
X6010Y201435D02*
X24490Y201435D01*
X6010Y204260D02*
X6010Y206740D01*
X24490Y206740D01*
X24490Y204260D01*
X6010Y204260D01*
X6010Y206435D02*
X24490Y206435D01*
X6010Y209260D02*
X6010Y211740D01*
X24490Y211740D01*
X24490Y209260D01*
X6010Y209260D01*
X6010Y211435D02*
X24490Y211435D01*
X6010Y214260D02*
X6010Y216740D01*
X24490Y216740D01*
X24490Y214260D01*
X6010Y214260D01*
X6010Y216435D02*
X24490Y216435D01*
X6010Y219260D02*
X6010Y221740D01*
X24490Y221740D01*
X24490Y219260D01*
X6010Y219260D01*
X6010Y221435D02*
X24490Y221435D01*
X6010Y224260D02*
X6010Y226740D01*
X24490Y226740D01*
X24490Y224260D01*
X6010Y224260D01*
X6010Y226435D02*
X24490Y226435D01*
X6010Y229260D02*
X6010Y231740D01*
X24490Y231740D01*
X24490Y229260D01*
X6010Y229260D01*
X6010Y231435D02*
X24490Y231435D01*
X6010Y234260D02*
X6010Y236740D01*
X24490Y236740D01*
X24490Y234260D01*
X6010Y234260D01*
X6010Y236435D02*
X24490Y236435D01*
X6010Y239260D02*
X6010Y241740D01*
X24490Y241740D01*
X24490Y239260D01*
X6010Y239260D01*
X6010Y241435D02*
X24490Y241435D01*
X6010Y244260D02*
X6010Y246740D01*
X24490Y246740D01*
X24490Y244260D01*
X6010Y244260D01*
X6010Y246435D02*
X24490Y246435D01*
X6010Y249260D02*
X6010Y251740D01*
X24490Y251740D01*
X24490Y249260D01*
X6010Y249260D01*
X6010Y251435D02*
X24490Y251435D01*
X6010Y254260D02*
X6010Y256740D01*
X24490Y256740D01*
X24490Y254260D01*
X6010Y254260D01*
X6010Y256435D02*
X24490Y256435D01*
X6010Y259260D02*
X6010Y261740D01*
X24490Y261740D01*
X24490Y259260D01*
X6010Y259260D01*
X6010Y261435D02*
X24490Y261435D01*
X6010Y264260D02*
X6010Y266740D01*
X24490Y266740D01*
X24490Y264260D01*
X6010Y264260D01*
X6010Y266435D02*
X24490Y266435D01*
X6010Y269260D02*
X6010Y271740D01*
X24490Y271740D01*
X24490Y269260D01*
X6010Y269260D01*
X6010Y271435D02*
X24490Y271435D01*
X6010Y274260D02*
X6010Y276740D01*
X24490Y276740D01*
X24490Y274260D01*
X6010Y274260D01*
X6010Y276435D02*
X24490Y276435D01*
X6010Y279260D02*
X6010Y281740D01*
X24490Y281740D01*
X24490Y279260D01*
X6010Y279260D01*
X6010Y281435D02*
X24490Y281435D01*
D15*
X461000Y10500D03*
X419000Y10500D03*
X440000Y23500D03*
X419000Y370500D03*
X461000Y370500D03*
X440000Y357500D03*
D16*
X344570Y351870D03*
X319170Y351870D03*
X242570Y351790D03*
X217170Y354330D03*
X191770Y351790D03*
M02*
