M48
;GenerationSoftware,Autodesk,EAGLE,9.5.1*%
;CreationDate,2021-09-14T16:48:33Z*%
FMAT,2
ICI,OFF
METRIC,TZ,000.000
T5C0.305
T4C0.381
T3C0.400
T2C0.650
T1C1.016
%
G90
M71
T1
X19177Y35179
X34457Y35187
X31917Y35187
X24257Y35179
X21717Y35433
T2
X60170Y7270
X60170Y13050
T3
X63820Y5842
X63820Y14478
X59640Y14478
X59640Y5842
T4
X4318Y27940
X56896Y11938
X56896Y13462
T5
X31242Y24638
X34417Y26924
X37338Y26924
X37338Y24638
X34417Y24765
X31242Y22606
X34417Y22606
X37338Y22606
X40132Y22352
X42418Y20447
X40132Y19558
X40132Y17272
X40132Y14786
X40112Y13164
X37338Y12954
X34417Y12954
X31242Y14986
X31242Y17272
X31362Y18738
X34377Y18758
X37338Y17272
X37338Y14986
X34417Y15113
X34417Y17272
X56439Y32995
X60300Y33299
X62459Y33299
X64237Y33299
X56388Y29210
X42926Y27051
X46236Y24464
X55702Y8458
X51537Y8382
X31242Y10160
X34417Y10160
X37363Y10160
X40030Y10160
X27889Y10719
X53391Y8484
X16612Y35509
X8788Y35535
X12319Y32512
X4775Y29312
X40107Y36728
X37338Y4191
X34417Y4191
X37186Y36728
X34265Y36728
X61392Y32258
X63449Y32283
X58953Y32233
X58877Y23571
X61112Y23597
X63475Y23571
X57734Y13284
X31217Y36728
X40005Y4191
X58014Y33299
X8727Y17334
X8679Y7409
X37398Y20852
X34468Y20892
X31318Y20992
X4779Y7699
X5917Y15964
X3187Y19444
X17852Y10920
X27162Y5581
X26942Y2551
X17958Y28143
X14249Y27000
X20168Y24867
X19736Y16866
X22098Y18999
X22784Y16231
X7798Y19152
X5588Y12268
X14097Y10693
X21844Y33223
X15443Y34087
X14326Y12954
X18567Y13386
X21895Y6756
X42545Y4191
X45085Y4191
X47625Y4191
X50165Y4191
X52705Y4191
X52705Y1651
X55245Y4191
X57785Y4191
X60325Y4191
X62865Y4191
X62865Y1651
X57785Y1651
X55245Y1651
X50165Y1651
X47625Y1651
X37338Y1651
X40005Y1651
X34417Y1651
X45085Y6731
X45085Y9271
X47625Y6731
X50165Y6731
X47625Y9271
X47625Y11811
X52705Y6731
X42545Y6731
X47244Y14351
X47625Y16891
X50165Y16891
X52705Y16891
X55245Y16891
X57785Y16891
X50165Y14351
X52705Y14351
X57785Y14351
X55245Y19431
X52705Y19431
X50165Y19431
X50165Y21844
X52705Y21971
X55245Y21971
X57785Y21971
X57785Y19431
X46365Y21911
X46355Y19431
X50165Y24511
X52705Y24511
X55245Y24511
X55245Y29210
X53975Y29210
X52705Y29210
X44704Y28829
X46482Y26416
X43307Y23749
X44958Y24130
X56388Y30480
X56388Y31750
X56515Y24511
X56515Y26797
X55245Y26924
X54229Y27051
X53086Y27051
X51435Y29210
X50800Y27051
X49530Y27051
X50165Y29210
X48895Y29210
X47625Y29210
X46355Y29210
X40005Y6731
X37465Y6731
X34290Y6731
X31877Y1651
X31877Y4191
X31877Y6731
X29337Y6731
X29337Y4191
X29337Y1651
X52705Y32131
X50165Y32131
X47625Y32131
X45085Y32131
X42545Y32131
X40005Y32131
X37465Y32131
X34925Y32131
X32385Y32131
X29845Y32131
X37465Y34671
X40005Y34671
X42545Y34671
X45085Y34671
X47625Y34671
X50165Y34671
X52705Y34671
X55245Y34671
X47625Y37211
X50165Y37211
X52705Y37211
X55245Y37211
X57785Y37211
X60325Y37211
X62865Y37211
X62865Y34671
X57785Y34671
X60325Y34671
X55245Y32131
X29845Y29591
X32385Y29591
X34925Y29591
X37465Y29591
X40005Y29591
X42545Y29591
X27305Y29591
X27305Y27051
X27305Y24511
X27305Y21971
X57785Y6731
X14783Y18644
X44704Y18313
X15000Y18000
X20985Y23215
X20920Y24350
X3890Y17060
X5160Y8850
X59920Y20357
X45500Y18400
X45500Y14500
X21590Y30226
X19558Y30226
X60706Y21336
X27810Y19210
X27770Y20690
X60706Y17653
X23000Y4500
X53721Y10600
X54305Y12243
X23480Y16720
X23130Y18970
X10010Y17980
X10027Y7505
X23648Y17430
X23170Y19680
X9989Y21675
X9500Y11270
X12700Y4445
X9779Y28575
X9779Y26162
X9779Y27432
X12700Y14224
X15530Y28692
X21790Y7910
X19060Y8000
X17800Y13030
X14969Y13590
X15000Y22000
X15000Y27000
X5009Y14341
X6359Y12874
X18980Y16040
X19138Y24892
X9339Y18776
X8599Y19482
X5090Y9720
X4490Y16520
X6604Y13716
X5250Y15080
X18410Y16920
X18503Y26162
X14180Y9910
X22480Y7340
X15500Y9910
X17858Y8598
X20231Y32372
X36315Y7593
X27500Y9240
X60000Y19119
X15893Y32468
X56566Y10693
X46100Y1050
X41900Y1050
X44000Y2350
X41900Y37050
X46100Y37050
X44000Y35750
X31242Y26924
X31242Y12954
X40056Y24613
X40132Y26924
X17710Y19210
M30