M48
;GenerationSoftware,Autodesk,EAGLE,9.6.2*%
;CreationDate,2021-08-02T18:54:01Z*%
FMAT,2
ICI,OFF
METRIC,TZ,000.000
T4C0.305
T3C0.400
T2C0.650
T1C1.016
%
G90
M71
T1
X24257Y23622
X21717Y23622
T2
X60170Y9810
X60170Y15590
T3
X63820Y8382
X63820Y17018
X59640Y17018
X59640Y8382
T4
X40056Y24613
X40132Y26924
X31242Y24638
X33782Y26924
X37338Y26924
X37338Y24638
X33782Y24638
X31242Y22606
X33782Y22606
X37338Y22606
X40132Y22352
X42418Y20828
X40132Y19558
X40132Y17272
X40132Y14986
X40132Y12954
X37338Y12954
X33782Y12954
X31242Y14986
X31242Y17272
X31242Y19558
X33782Y19558
X37338Y19558
X37338Y17272
X37338Y14986
X33782Y14986
X33782Y17272
X45212Y11176
X50673Y7874
X56896Y8890
X57734Y9474
X57734Y15824
X64008Y21336
X62738Y21336
X60960Y21336
X59563Y21209
X57861Y21260
X56388Y21336
X56388Y22860
X56388Y29718
X56439Y31725
X57887Y31902
X60935Y31902
X62713Y31902
X64237Y31902
X59411Y31902
X56388Y27940
X54864Y27940
X53086Y27940
X51562Y27940
X50038Y27940
X48768Y27940
X47498Y27940
X45720Y27940
X43942Y27178
X56388Y24384
X55372Y25298
X53645Y25222
X52426Y25298
X49378Y25324
X47828Y25375
X44736Y24464
X53594Y30226
X53086Y17780
X56515Y17780
X49276Y17780
X49276Y21336
X46482Y21336
X46482Y19050
X50038Y30226
X50038Y15240
X52807Y14808
X55702Y10998
X51156Y11811
X47498Y7112
X53213Y2159
X57912Y7112
X61697Y6985
X64262Y7087
X53086Y21336
X40132Y29972
X37338Y29972
X33782Y29718
X31115Y29718
X30988Y10160
X33782Y10160
X36982Y10160
X22606Y12421
X19736Y17221
X18542Y19812
X40030Y10414
X27889Y10719
X48616Y11430
X54661Y11024
X11938Y20066
X9398Y17526
X12192Y28956
X6883Y29312
X8890Y27178
X27940Y26924
X27940Y24638
X27940Y22606
X14656Y19685
X16764Y10338
X10262Y10973
X11024Y15951
X3378Y20041
X4775Y29312
X4699Y9169
X61722Y3937
X64262Y3912
X57912Y4064
X54102Y4064
X49276Y4064
X64237Y34188
X64237Y36220
X62459Y34188
X62332Y36220
X60173Y36220
X57633Y36220
X53823Y36220
X50013Y36220
X50013Y34188
X53823Y34188
X57633Y34188
X60173Y34188
X46203Y34188
X46203Y29870
X42393Y33426
X42393Y29870
X38583Y36220
X32233Y33426
X45212Y4191
X38862Y4191
X33782Y4191
X29972Y4572
X29972Y762
X33782Y762
X38862Y762
X49022Y787
X53442Y762
X57912Y762
X61722Y762
X64262Y737
X38735Y33401
X35662Y36347
X32233Y36347
X35662Y33426
X46761Y12090
X63449Y31013
X58953Y30963
X58877Y22301
X61112Y22327
X63475Y22301
X5278Y10282
X7620Y14808
X19075Y18415
X19050Y17196
X5055Y15545
X5055Y14300
X47574Y12954
X5563Y12192
X5563Y16154
X49378Y14681
X43307Y11176
X43155Y15240
X6096Y12700
X6096Y15392
X54991Y3353
X4572Y12776
X4521Y16231
X17348Y19939
X16205Y19939
X56134Y3302
X61392Y30988
X14453Y20701
X46228Y12954
X51562Y3302
X20142Y13284
X53721Y13140
X54305Y14783
X3404Y13792
X3404Y12802
X4216Y27838
X6833Y21285
X6858Y18796
X6858Y20091
X44704Y18313
X22098Y26924
X26924Y10160
X16764Y22606
X56566Y13233
X31242Y26924
X46100Y1050
X41900Y1050
X44000Y2350
X41900Y37050
X46100Y37050
X44000Y35750
X31242Y12954
X13945Y11659
M30