G04 EAGLE Gerber RS-274X export*
G75*
%MOMM*%
%FSLAX34Y34*%
%LPD*%
%INSilkscreen Top*%
%IPPOS*%
%AMOC8*
5,1,8,0,0,1.08239X$1,22.5*%
G01*
%ADD10C,0.228600*%
%ADD11C,0.152400*%
%ADD12C,0.203200*%
%ADD13C,0.254000*%
%ADD14C,0.177800*%
%ADD15C,0.812800*%
%ADD16C,0.300000*%
%ADD17R,0.040000X0.640000*%
%ADD18R,0.040000X0.800000*%
%ADD19R,0.040000X0.840000*%
%ADD20R,0.040000X0.280000*%
%ADD21R,0.040000X0.600000*%
%ADD22R,0.040000X0.680000*%
%ADD23R,0.040000X0.760000*%

G36*
X272644Y209054D02*
X272644Y209054D01*
X272647Y209051D01*
X274047Y209251D01*
X274048Y209252D01*
X274048Y209251D01*
X274648Y209351D01*
X274654Y209358D01*
X274659Y209355D01*
X275359Y209655D01*
X275361Y209657D01*
X275362Y209656D01*
X275962Y209956D01*
X275963Y209959D01*
X275965Y209958D01*
X276465Y210258D01*
X276466Y210259D01*
X276467Y210259D01*
X277067Y210659D01*
X277070Y210666D01*
X277075Y210665D01*
X277575Y211165D01*
X277575Y211169D01*
X277578Y211169D01*
X278378Y212169D01*
X278379Y212173D01*
X278381Y212173D01*
X278781Y212773D01*
X278781Y212778D01*
X278783Y212780D01*
X278782Y212783D01*
X278787Y212784D01*
X278987Y213384D01*
X278986Y213386D01*
X278987Y213386D01*
X279187Y214085D01*
X279387Y214684D01*
X279385Y214691D01*
X279389Y214693D01*
X279489Y215393D01*
X279486Y215398D01*
X279489Y215400D01*
X279489Y216100D01*
X279486Y216104D01*
X279489Y216107D01*
X279389Y216807D01*
X279388Y216808D01*
X279389Y216808D01*
X279289Y217408D01*
X279285Y217411D01*
X279287Y217414D01*
X279087Y218114D01*
X279086Y218115D01*
X279087Y218116D01*
X278887Y218716D01*
X278882Y218719D01*
X278884Y218722D01*
X278584Y219322D01*
X278580Y219324D01*
X278581Y219327D01*
X278181Y219927D01*
X278178Y219928D01*
X278178Y219931D01*
X277778Y220431D01*
X277774Y220432D01*
X277775Y220435D01*
X277275Y220935D01*
X277271Y220935D01*
X277271Y220938D01*
X276771Y221338D01*
X276767Y221339D01*
X276767Y221341D01*
X276167Y221741D01*
X276163Y221741D01*
X276162Y221744D01*
X274962Y222344D01*
X274955Y222343D01*
X274954Y222347D01*
X274254Y222547D01*
X274250Y222546D01*
X274248Y222549D01*
X273648Y222649D01*
X273647Y222648D01*
X273647Y222649D01*
X272947Y222749D01*
X272942Y222746D01*
X272940Y222749D01*
X189640Y222749D01*
X189636Y222746D01*
X189633Y222749D01*
X188233Y222549D01*
X188232Y222548D01*
X188232Y222549D01*
X187632Y222449D01*
X187625Y222441D01*
X187618Y222444D01*
X187019Y222145D01*
X186321Y221845D01*
X186318Y221841D01*
X186315Y221842D01*
X185815Y221542D01*
X185814Y221541D01*
X185813Y221541D01*
X185213Y221141D01*
X185210Y221134D01*
X185205Y221135D01*
X184705Y220635D01*
X184705Y220631D01*
X184702Y220631D01*
X183902Y219631D01*
X183901Y219627D01*
X183899Y219627D01*
X183499Y219027D01*
X183500Y219018D01*
X183499Y219017D01*
X183493Y219016D01*
X183293Y218416D01*
X183294Y218414D01*
X183293Y218414D01*
X183093Y217715D01*
X182893Y217116D01*
X182895Y217109D01*
X182891Y217107D01*
X182791Y216407D01*
X182793Y216403D01*
X182793Y216402D01*
X182791Y216400D01*
X182791Y215700D01*
X182794Y215696D01*
X182791Y215693D01*
X182891Y214993D01*
X182892Y214992D01*
X182891Y214992D01*
X182991Y214392D01*
X182995Y214389D01*
X182993Y214386D01*
X183193Y213686D01*
X183194Y213685D01*
X183193Y213684D01*
X183393Y213084D01*
X183398Y213081D01*
X183396Y213078D01*
X183696Y212478D01*
X183700Y212476D01*
X183699Y212473D01*
X184099Y211873D01*
X184102Y211872D01*
X184102Y211869D01*
X184502Y211369D01*
X184506Y211368D01*
X184505Y211365D01*
X185005Y210865D01*
X185009Y210865D01*
X185009Y210862D01*
X185509Y210462D01*
X185513Y210461D01*
X185513Y210459D01*
X186113Y210059D01*
X186117Y210059D01*
X186118Y210056D01*
X187318Y209456D01*
X187325Y209457D01*
X187326Y209453D01*
X188026Y209253D01*
X188030Y209254D01*
X188032Y209251D01*
X188632Y209151D01*
X188633Y209152D01*
X188633Y209151D01*
X189333Y209051D01*
X189338Y209054D01*
X189340Y209051D01*
X272640Y209051D01*
X272644Y209054D01*
G37*
G36*
X304344Y332018D02*
X304344Y332018D01*
X304351Y332012D01*
X305651Y332312D01*
X305668Y332333D01*
X305682Y332334D01*
X306182Y333134D01*
X306180Y333150D01*
X306189Y333156D01*
X306289Y334356D01*
X306287Y334359D01*
X306289Y334360D01*
X306289Y337835D01*
X306956Y338311D01*
X310540Y338311D01*
X310543Y338313D01*
X310544Y338311D01*
X311744Y338411D01*
X311762Y338427D01*
X311775Y338425D01*
X312475Y339125D01*
X312476Y339136D01*
X312479Y339139D01*
X312477Y339142D01*
X312478Y339147D01*
X312489Y339153D01*
X312689Y340553D01*
X312682Y340565D01*
X312688Y340572D01*
X312388Y341772D01*
X312370Y341787D01*
X312370Y341799D01*
X311570Y342399D01*
X311551Y342399D01*
X311549Y342403D01*
X311545Y342403D01*
X311540Y342409D01*
X306763Y342409D01*
X306289Y342978D01*
X306289Y344140D01*
X306860Y344711D01*
X313940Y344711D01*
X313949Y344717D01*
X313951Y344717D01*
X313956Y344721D01*
X313965Y344718D01*
X314965Y345318D01*
X314973Y345336D01*
X314983Y345344D01*
X314983Y345345D01*
X314988Y345347D01*
X315288Y346447D01*
X315283Y346458D01*
X315289Y346464D01*
X315189Y347764D01*
X315173Y347782D01*
X315175Y347795D01*
X314375Y348595D01*
X314354Y348598D01*
X314349Y348608D01*
X313249Y348808D01*
X313243Y348805D01*
X313240Y348809D01*
X303540Y348809D01*
X303534Y348805D01*
X303530Y348805D01*
X303526Y348802D01*
X303520Y348805D01*
X302620Y348405D01*
X302608Y348384D01*
X302604Y348381D01*
X302594Y348378D01*
X302194Y347378D01*
X302198Y347365D01*
X302191Y347360D01*
X302191Y334160D01*
X302193Y334157D01*
X302191Y334156D01*
X302291Y332956D01*
X302305Y332940D01*
X302303Y332928D01*
X302903Y332228D01*
X302927Y332223D01*
X302933Y332211D01*
X304333Y332011D01*
X304344Y332018D01*
G37*
G36*
X391047Y332016D02*
X391047Y332016D01*
X391052Y332012D01*
X392252Y332312D01*
X392256Y332317D01*
X392260Y332315D01*
X393360Y332815D01*
X393363Y332820D01*
X393367Y332819D01*
X394267Y333419D01*
X394270Y333426D01*
X394275Y333425D01*
X395175Y334325D01*
X395176Y334332D01*
X395180Y334332D01*
X395880Y335332D01*
X395880Y335340D01*
X395886Y335342D01*
X396286Y336342D01*
X396284Y336347D01*
X396288Y336348D01*
X396588Y337548D01*
X396584Y337556D01*
X396589Y337560D01*
X396589Y338860D01*
X396586Y338865D01*
X396589Y338868D01*
X396389Y340068D01*
X396384Y340073D01*
X396386Y340077D01*
X395986Y341177D01*
X395979Y341182D01*
X395981Y341187D01*
X395381Y342087D01*
X395376Y342089D01*
X395377Y342093D01*
X394577Y342993D01*
X394568Y342994D01*
X394568Y343000D01*
X393568Y343700D01*
X393561Y343700D01*
X393560Y343705D01*
X392460Y344205D01*
X392455Y344204D01*
X392453Y344208D01*
X391353Y344508D01*
X391344Y344504D01*
X391340Y344509D01*
X390140Y344509D01*
X390137Y344507D01*
X390136Y344509D01*
X388936Y344409D01*
X388929Y344403D01*
X388923Y344406D01*
X387823Y344006D01*
X387821Y344003D01*
X387818Y344004D01*
X386818Y343504D01*
X386815Y343497D01*
X386809Y343498D01*
X385809Y342698D01*
X385808Y342696D01*
X385806Y342696D01*
X384106Y341096D01*
X384102Y341068D01*
X384091Y341060D01*
X384091Y337260D01*
X384097Y337252D01*
X384093Y337247D01*
X384393Y336147D01*
X384399Y336142D01*
X384397Y336136D01*
X384997Y335036D01*
X385002Y335034D01*
X385001Y335030D01*
X385701Y334130D01*
X385708Y334128D01*
X385707Y334123D01*
X386607Y333323D01*
X386614Y333323D01*
X386615Y333318D01*
X387615Y332718D01*
X387619Y332718D01*
X387620Y332715D01*
X388720Y332215D01*
X388729Y332217D01*
X388732Y332211D01*
X389932Y332011D01*
X389937Y332014D01*
X389940Y332011D01*
X391040Y332011D01*
X391047Y332016D01*
G37*
G36*
X346043Y292503D02*
X346043Y292503D01*
X346045Y292501D01*
X346945Y292601D01*
X346949Y292605D01*
X346952Y292602D01*
X347752Y292802D01*
X347756Y292807D01*
X347759Y292805D01*
X348459Y293105D01*
X348463Y293112D01*
X348469Y293110D01*
X349869Y294110D01*
X349871Y294118D01*
X349877Y294118D01*
X350477Y294818D01*
X350478Y294825D01*
X350483Y294826D01*
X351283Y296226D01*
X351282Y296229D01*
X351284Y296230D01*
X351282Y296233D01*
X351281Y296235D01*
X351288Y296238D01*
X351488Y297038D01*
X351487Y297039D01*
X351488Y297039D01*
X351688Y297939D01*
X351685Y297947D01*
X351689Y297950D01*
X351689Y299650D01*
X351684Y299657D01*
X351688Y299662D01*
X351488Y300462D01*
X351484Y300465D01*
X351486Y300467D01*
X351186Y301267D01*
X351181Y301270D01*
X351183Y301274D01*
X350783Y301974D01*
X350779Y301976D01*
X350780Y301979D01*
X350280Y302679D01*
X350272Y302681D01*
X350272Y302687D01*
X349572Y303287D01*
X349572Y303288D01*
X348972Y303788D01*
X348963Y303788D01*
X348962Y303794D01*
X348162Y304194D01*
X348160Y304194D01*
X348159Y304195D01*
X347459Y304495D01*
X347453Y304494D01*
X347451Y304498D01*
X346551Y304698D01*
X346547Y304697D01*
X346546Y304699D01*
X345746Y304799D01*
X345737Y304794D01*
X345732Y304799D01*
X345133Y304699D01*
X344334Y304599D01*
X344331Y304596D01*
X344328Y304598D01*
X343528Y304398D01*
X343522Y304390D01*
X343516Y304393D01*
X342816Y303993D01*
X342814Y303989D01*
X342811Y303990D01*
X342111Y303490D01*
X342110Y303484D01*
X342105Y303485D01*
X340905Y302285D01*
X340904Y302275D01*
X340897Y302274D01*
X340497Y301574D01*
X340498Y301569D01*
X340494Y301567D01*
X340194Y300767D01*
X340195Y300763D01*
X340192Y300762D01*
X339992Y299962D01*
X339994Y299957D01*
X339991Y299955D01*
X339891Y299055D01*
X339893Y299052D01*
X339891Y299050D01*
X339891Y298150D01*
X339894Y298146D01*
X339891Y298144D01*
X339991Y297344D01*
X339994Y297341D01*
X339992Y297338D01*
X340192Y296538D01*
X340197Y296534D01*
X340195Y296531D01*
X340495Y295831D01*
X340537Y295807D01*
X340514Y295792D01*
X340507Y295774D01*
X340495Y295765D01*
X340501Y295757D01*
X340493Y295736D01*
X340500Y295733D01*
X340497Y295726D01*
X340897Y295026D01*
X340906Y295022D01*
X340905Y295015D01*
X342105Y293815D01*
X342111Y293814D01*
X342111Y293810D01*
X342811Y293310D01*
X342817Y293310D01*
X342818Y293306D01*
X343618Y292906D01*
X343620Y292906D01*
X343621Y292905D01*
X344321Y292605D01*
X344331Y292607D01*
X344335Y292601D01*
X345235Y292501D01*
X345238Y292503D01*
X345240Y292501D01*
X346040Y292501D01*
X346043Y292503D01*
G37*
G36*
X411443Y332111D02*
X411443Y332111D01*
X411458Y332124D01*
X411470Y332121D01*
X412270Y332721D01*
X412277Y332745D01*
X412288Y332751D01*
X412488Y333851D01*
X412485Y333857D01*
X412489Y333860D01*
X412489Y338660D01*
X412486Y338665D01*
X412489Y338668D01*
X412289Y339868D01*
X412284Y339873D01*
X412286Y339877D01*
X411886Y340977D01*
X411878Y340982D01*
X411880Y340988D01*
X411180Y341988D01*
X411176Y341990D01*
X411177Y341993D01*
X410377Y342893D01*
X410366Y342895D01*
X410365Y342902D01*
X409365Y343502D01*
X409358Y343501D01*
X409357Y343506D01*
X408257Y343906D01*
X408251Y343904D01*
X408249Y343908D01*
X407149Y344108D01*
X407138Y344103D01*
X407132Y344109D01*
X405932Y343909D01*
X405921Y343897D01*
X405912Y343900D01*
X404921Y343207D01*
X404364Y343114D01*
X403882Y343886D01*
X403854Y343897D01*
X403847Y343909D01*
X402447Y344109D01*
X402438Y344104D01*
X402433Y344109D01*
X401033Y343909D01*
X401014Y343890D01*
X401001Y343890D01*
X400401Y343090D01*
X400401Y343068D01*
X400391Y343060D01*
X400391Y333560D01*
X400397Y333552D01*
X400393Y333546D01*
X400693Y332546D01*
X400715Y332529D01*
X400718Y332516D01*
X401718Y332016D01*
X401736Y332019D01*
X401743Y332011D01*
X403343Y332111D01*
X403356Y332122D01*
X403366Y332118D01*
X404166Y332618D01*
X404176Y332644D01*
X404188Y332650D01*
X404388Y333650D01*
X404385Y333657D01*
X404389Y333660D01*
X404389Y337358D01*
X404488Y338546D01*
X404976Y339522D01*
X406049Y340010D01*
X407222Y339912D01*
X407998Y339330D01*
X408391Y338152D01*
X408391Y333360D01*
X408400Y333348D01*
X408395Y333340D01*
X408795Y332440D01*
X408819Y332427D01*
X408823Y332414D01*
X409923Y332014D01*
X409937Y332018D01*
X409943Y332011D01*
X411443Y332111D01*
G37*
G36*
X324146Y332018D02*
X324146Y332018D01*
X324153Y332013D01*
X325253Y332313D01*
X325259Y332320D01*
X325265Y332318D01*
X326262Y332916D01*
X326720Y333099D01*
X327198Y332334D01*
X327223Y332324D01*
X327229Y332312D01*
X328529Y332012D01*
X328541Y332017D01*
X328547Y332011D01*
X329947Y332211D01*
X329962Y332227D01*
X329975Y332225D01*
X330675Y332925D01*
X330678Y332949D01*
X330689Y332956D01*
X330789Y334056D01*
X330787Y334058D01*
X330789Y334060D01*
X330789Y342460D01*
X330783Y342468D01*
X330787Y342474D01*
X330487Y343474D01*
X330466Y343490D01*
X330464Y343503D01*
X329564Y344003D01*
X329547Y344001D01*
X329540Y344009D01*
X328040Y344009D01*
X328029Y344001D01*
X328022Y344006D01*
X327022Y343606D01*
X327006Y343579D01*
X326993Y343574D01*
X326693Y342574D01*
X326696Y342566D01*
X326693Y342564D01*
X326694Y342562D01*
X326691Y342560D01*
X326691Y337771D01*
X326202Y336696D01*
X325228Y336209D01*
X324054Y336209D01*
X323082Y336792D01*
X322789Y337867D01*
X322789Y341460D01*
X322787Y341462D01*
X322789Y341464D01*
X322689Y342764D01*
X322683Y342770D01*
X322687Y342776D01*
X322387Y343676D01*
X322360Y343694D01*
X322356Y343707D01*
X321156Y344107D01*
X321141Y344102D01*
X321134Y344109D01*
X319634Y343909D01*
X319619Y343895D01*
X319608Y343897D01*
X318908Y343297D01*
X318903Y343275D01*
X318892Y343270D01*
X318692Y342270D01*
X318695Y342263D01*
X318691Y342260D01*
X318691Y338560D01*
X318693Y338557D01*
X318691Y338556D01*
X318791Y337356D01*
X318793Y337354D01*
X318791Y337352D01*
X318991Y336152D01*
X318997Y336146D01*
X318994Y336142D01*
X319394Y335142D01*
X319399Y335139D01*
X319398Y335135D01*
X319998Y334135D01*
X320004Y334132D01*
X320003Y334127D01*
X320803Y333227D01*
X320812Y333226D01*
X320812Y333220D01*
X321812Y332520D01*
X321821Y332520D01*
X321823Y332514D01*
X322923Y332114D01*
X322932Y332117D01*
X322936Y332111D01*
X324136Y332011D01*
X324146Y332018D01*
G37*
G36*
X345343Y332111D02*
X345343Y332111D01*
X345360Y332125D01*
X345372Y332123D01*
X346072Y332723D01*
X346075Y332736D01*
X346077Y332745D01*
X346088Y332751D01*
X346288Y333851D01*
X346285Y333857D01*
X346289Y333860D01*
X346289Y338660D01*
X346286Y338665D01*
X346289Y338668D01*
X346089Y339868D01*
X346084Y339873D01*
X346086Y339877D01*
X345686Y340977D01*
X345680Y340981D01*
X345682Y340985D01*
X345082Y341985D01*
X345076Y341988D01*
X345077Y341993D01*
X344277Y342893D01*
X344266Y342895D01*
X344265Y342902D01*
X343265Y343502D01*
X343258Y343501D01*
X343257Y343506D01*
X342157Y343906D01*
X342150Y343904D01*
X342148Y343909D01*
X340948Y344109D01*
X340938Y344103D01*
X340932Y344109D01*
X339732Y343909D01*
X339720Y343896D01*
X339710Y343899D01*
X338820Y343207D01*
X338165Y343113D01*
X337682Y343886D01*
X337654Y343897D01*
X337648Y343909D01*
X336348Y344109D01*
X336338Y344104D01*
X336333Y344109D01*
X334933Y343909D01*
X334914Y343890D01*
X334901Y343890D01*
X334301Y343090D01*
X334301Y343068D01*
X334291Y343060D01*
X334291Y333560D01*
X334297Y333552D01*
X334293Y333546D01*
X334593Y332546D01*
X334615Y332529D01*
X334618Y332516D01*
X335618Y332016D01*
X335636Y332019D01*
X335643Y332011D01*
X337143Y332111D01*
X337156Y332122D01*
X337166Y332118D01*
X337966Y332618D01*
X337975Y332641D01*
X337987Y332646D01*
X338287Y333646D01*
X338284Y333656D01*
X338289Y333660D01*
X338289Y338546D01*
X338875Y339522D01*
X339850Y340010D01*
X341023Y339912D01*
X341897Y339330D01*
X342191Y338154D01*
X342191Y334560D01*
X342193Y334557D01*
X342191Y334556D01*
X342291Y333356D01*
X342297Y333349D01*
X342293Y333344D01*
X342593Y332444D01*
X342620Y332426D01*
X342624Y332413D01*
X343824Y332013D01*
X343837Y332018D01*
X343843Y332011D01*
X345343Y332111D01*
G37*
G36*
X375156Y292513D02*
X375156Y292513D01*
X375167Y292509D01*
X375767Y292909D01*
X375774Y292927D01*
X375778Y292931D01*
X375776Y292933D01*
X375788Y292938D01*
X375988Y293738D01*
X375984Y293746D01*
X375989Y293750D01*
X375989Y303250D01*
X375986Y303254D01*
X375989Y303257D01*
X375889Y303957D01*
X375868Y303977D01*
X375867Y303991D01*
X375267Y304391D01*
X375250Y304390D01*
X375245Y304399D01*
X374245Y304499D01*
X374231Y304491D01*
X374223Y304496D01*
X373423Y304196D01*
X373413Y304181D01*
X373402Y304182D01*
X371802Y302282D01*
X371802Y302280D01*
X371801Y302280D01*
X369906Y299786D01*
X369352Y299417D01*
X366380Y303479D01*
X366377Y303480D01*
X366377Y303482D01*
X365777Y304182D01*
X365762Y304185D01*
X365759Y304195D01*
X365059Y304495D01*
X365046Y304492D01*
X365040Y304499D01*
X364040Y304499D01*
X364026Y304488D01*
X364016Y304493D01*
X363316Y304093D01*
X363305Y304068D01*
X363293Y304064D01*
X363093Y303364D01*
X363096Y303354D01*
X363091Y303350D01*
X363091Y293950D01*
X363094Y293946D01*
X363091Y293944D01*
X363191Y293144D01*
X363207Y293128D01*
X363205Y293115D01*
X363705Y292615D01*
X363728Y292612D01*
X363735Y292601D01*
X364735Y292501D01*
X364745Y292507D01*
X364751Y292502D01*
X365651Y292702D01*
X365671Y292725D01*
X365684Y292728D01*
X365984Y293328D01*
X365981Y293344D01*
X365989Y293350D01*
X365989Y299231D01*
X366102Y299118D01*
X368300Y296121D01*
X368311Y296118D01*
X368311Y296110D01*
X369011Y295610D01*
X369031Y295610D01*
X369036Y295604D01*
X369038Y295604D01*
X369040Y295601D01*
X369840Y295601D01*
X369844Y295604D01*
X369846Y295604D01*
X369854Y295610D01*
X369862Y295606D01*
X370662Y296006D01*
X370670Y296022D01*
X370681Y296023D01*
X371081Y296622D01*
X372991Y299296D01*
X372991Y294350D01*
X372993Y294347D01*
X372991Y294345D01*
X373091Y293445D01*
X373098Y293437D01*
X373095Y293431D01*
X373395Y292731D01*
X373423Y292715D01*
X373428Y292702D01*
X374228Y292502D01*
X374236Y292506D01*
X374240Y292501D01*
X375140Y292501D01*
X375156Y292513D01*
G37*
G36*
X370142Y332014D02*
X370142Y332014D01*
X370144Y332011D01*
X371244Y332111D01*
X371259Y332124D01*
X371270Y332121D01*
X372070Y332721D01*
X372077Y332747D01*
X372089Y332753D01*
X372289Y334153D01*
X372283Y334163D01*
X372289Y334168D01*
X372089Y335368D01*
X372063Y335392D01*
X372060Y335405D01*
X371160Y335805D01*
X371151Y335803D01*
X371148Y335809D01*
X369874Y336005D01*
X369489Y336870D01*
X369489Y339155D01*
X369679Y340007D01*
X370836Y339911D01*
X370844Y339916D01*
X370849Y339912D01*
X371949Y340112D01*
X371961Y340125D01*
X371972Y340123D01*
X372672Y340723D01*
X372677Y340747D01*
X372689Y340753D01*
X372889Y342153D01*
X372882Y342164D01*
X372888Y342171D01*
X372588Y343471D01*
X372567Y343488D01*
X372566Y343502D01*
X371766Y344002D01*
X371750Y344000D01*
X371744Y344009D01*
X370644Y344109D01*
X370639Y344106D01*
X370636Y344109D01*
X369489Y344014D01*
X369489Y346260D01*
X369486Y346265D01*
X369489Y346268D01*
X369289Y347468D01*
X369270Y347486D01*
X369270Y347499D01*
X368470Y348099D01*
X368450Y348099D01*
X368444Y348109D01*
X367044Y348209D01*
X367033Y348203D01*
X367027Y348208D01*
X365927Y347908D01*
X365910Y347886D01*
X365897Y347884D01*
X365397Y346984D01*
X365399Y346967D01*
X365391Y346960D01*
X365391Y344578D01*
X364914Y344005D01*
X363831Y343808D01*
X363807Y343782D01*
X363794Y343778D01*
X363394Y342778D01*
X363397Y342768D01*
X363391Y342764D01*
X363291Y341464D01*
X363298Y341454D01*
X363293Y341447D01*
X363593Y340347D01*
X363620Y340326D01*
X363624Y340313D01*
X365391Y339725D01*
X365391Y337360D01*
X365393Y337358D01*
X365391Y337356D01*
X365491Y336056D01*
X365493Y336054D01*
X365491Y336053D01*
X365691Y334753D01*
X365697Y334747D01*
X365694Y334742D01*
X366094Y333742D01*
X366104Y333736D01*
X366103Y333728D01*
X366703Y333028D01*
X366712Y333026D01*
X366713Y333019D01*
X367613Y332419D01*
X367624Y332420D01*
X367627Y332413D01*
X368727Y332113D01*
X368734Y332115D01*
X368737Y332111D01*
X370137Y332011D01*
X370142Y332014D01*
G37*
G36*
X317148Y292507D02*
X317148Y292507D01*
X317154Y292503D01*
X317854Y292703D01*
X317872Y292727D01*
X317885Y292731D01*
X318185Y293431D01*
X318182Y293444D01*
X318189Y293450D01*
X318189Y299104D01*
X322601Y293320D01*
X322606Y293319D01*
X322605Y293315D01*
X323305Y292615D01*
X323328Y292612D01*
X323334Y292601D01*
X324134Y292501D01*
X324141Y292505D01*
X324144Y292501D01*
X325244Y292601D01*
X325265Y292620D01*
X325278Y292619D01*
X325678Y293119D01*
X325679Y293127D01*
X325680Y293128D01*
X325679Y293130D01*
X325679Y293138D01*
X325689Y293144D01*
X325789Y293944D01*
X325787Y293948D01*
X325789Y293950D01*
X325789Y303350D01*
X325783Y303358D01*
X325787Y303364D01*
X325587Y304064D01*
X325566Y304079D01*
X325564Y304093D01*
X324864Y304493D01*
X324847Y304490D01*
X324840Y304499D01*
X323940Y304499D01*
X323933Y304494D01*
X323928Y304498D01*
X323128Y304298D01*
X323104Y304268D01*
X323093Y304264D01*
X322893Y303564D01*
X322895Y303557D01*
X322891Y303555D01*
X322791Y302555D01*
X322793Y302552D01*
X322791Y302550D01*
X322791Y297701D01*
X320980Y300179D01*
X320979Y300179D01*
X320979Y300180D01*
X318379Y303580D01*
X318378Y303580D01*
X318378Y303582D01*
X317878Y304182D01*
X317860Y304186D01*
X317857Y304196D01*
X317057Y304496D01*
X317042Y304491D01*
X317035Y304499D01*
X316135Y304399D01*
X316124Y304389D01*
X316116Y304393D01*
X315416Y303993D01*
X315403Y303963D01*
X315391Y303956D01*
X315291Y303156D01*
X315293Y303153D01*
X315293Y303152D01*
X315291Y303150D01*
X315291Y293850D01*
X315294Y293846D01*
X315291Y293844D01*
X315391Y293044D01*
X315409Y293026D01*
X315408Y293012D01*
X316008Y292512D01*
X316032Y292511D01*
X316040Y292501D01*
X317140Y292501D01*
X317148Y292507D01*
G37*
G36*
X391148Y292507D02*
X391148Y292507D01*
X391154Y292503D01*
X391854Y292703D01*
X391872Y292727D01*
X391885Y292731D01*
X392185Y293431D01*
X392182Y293444D01*
X392189Y293450D01*
X392189Y299104D01*
X396601Y293320D01*
X396606Y293319D01*
X396605Y293315D01*
X397305Y292615D01*
X397328Y292612D01*
X397334Y292601D01*
X398134Y292501D01*
X398141Y292505D01*
X398145Y292501D01*
X399145Y292601D01*
X399162Y292617D01*
X399175Y292615D01*
X399675Y293115D01*
X399676Y293126D01*
X399678Y293128D01*
X399677Y293130D01*
X399678Y293138D01*
X399689Y293144D01*
X399789Y293944D01*
X399787Y293948D01*
X399789Y293950D01*
X399789Y303350D01*
X399783Y303358D01*
X399787Y303364D01*
X399587Y304064D01*
X399566Y304079D01*
X399564Y304093D01*
X398864Y304493D01*
X398847Y304490D01*
X398840Y304499D01*
X397940Y304499D01*
X397933Y304494D01*
X397928Y304498D01*
X397128Y304298D01*
X397104Y304268D01*
X397093Y304264D01*
X396893Y303564D01*
X396895Y303557D01*
X396891Y303555D01*
X396791Y302555D01*
X396793Y302552D01*
X396791Y302550D01*
X396791Y297700D01*
X395480Y299479D01*
X395479Y299479D01*
X395479Y299480D01*
X392379Y303580D01*
X392378Y303580D01*
X392378Y303582D01*
X391878Y304182D01*
X391860Y304186D01*
X391857Y304196D01*
X391057Y304496D01*
X391042Y304491D01*
X391035Y304499D01*
X390135Y304399D01*
X390124Y304389D01*
X390116Y304393D01*
X389416Y303993D01*
X389403Y303963D01*
X389391Y303956D01*
X389291Y303156D01*
X389293Y303153D01*
X389293Y303152D01*
X389291Y303150D01*
X389291Y293850D01*
X389294Y293846D01*
X389291Y293844D01*
X389391Y293044D01*
X389409Y293026D01*
X389408Y293012D01*
X390008Y292512D01*
X390032Y292511D01*
X390040Y292501D01*
X391140Y292501D01*
X391148Y292507D01*
G37*
G36*
X356448Y332017D02*
X356448Y332017D01*
X356453Y332013D01*
X357553Y332313D01*
X357557Y332317D01*
X357560Y332315D01*
X358660Y332815D01*
X358665Y332823D01*
X358671Y332822D01*
X359671Y333622D01*
X359675Y333638D01*
X359685Y333640D01*
X360085Y334540D01*
X360081Y334557D01*
X360083Y334558D01*
X360080Y334563D01*
X360079Y334566D01*
X360086Y334577D01*
X359686Y335677D01*
X359675Y335684D01*
X359676Y335693D01*
X358676Y336793D01*
X358660Y336796D01*
X358657Y336806D01*
X357857Y337106D01*
X357829Y337098D01*
X357816Y337103D01*
X356720Y336505D01*
X355539Y336111D01*
X354464Y336404D01*
X353589Y337182D01*
X353589Y338351D01*
X353981Y339429D01*
X354956Y340111D01*
X356127Y340111D01*
X357216Y339517D01*
X357223Y339518D01*
X357224Y339513D01*
X358124Y339213D01*
X358155Y339223D01*
X358167Y339219D01*
X359067Y339819D01*
X359072Y339832D01*
X359081Y339833D01*
X359881Y341033D01*
X359880Y341047D01*
X359888Y341051D01*
X360088Y342151D01*
X360075Y342177D01*
X360079Y342190D01*
X359379Y343090D01*
X359366Y343094D01*
X359365Y343102D01*
X358365Y343702D01*
X358357Y343701D01*
X358356Y343707D01*
X357156Y344107D01*
X357150Y344105D01*
X357148Y344109D01*
X355948Y344309D01*
X355943Y344306D01*
X355940Y344309D01*
X354740Y344309D01*
X354732Y344303D01*
X354727Y344308D01*
X353627Y344008D01*
X353623Y344003D01*
X353620Y344005D01*
X352520Y343505D01*
X352516Y343499D01*
X352512Y343500D01*
X351512Y342800D01*
X351510Y342794D01*
X351505Y342795D01*
X350705Y341995D01*
X350704Y341987D01*
X350698Y341986D01*
X349998Y340886D01*
X349999Y340879D01*
X349994Y340877D01*
X349594Y339777D01*
X349597Y339768D01*
X349591Y339764D01*
X349491Y338564D01*
X349493Y338561D01*
X349491Y338560D01*
X349491Y337360D01*
X349497Y337352D01*
X349493Y337347D01*
X349793Y336247D01*
X349797Y336243D01*
X349795Y336240D01*
X350295Y335140D01*
X350301Y335136D01*
X350300Y335132D01*
X351000Y334132D01*
X351008Y334129D01*
X351007Y334123D01*
X351907Y333323D01*
X351914Y333323D01*
X351915Y333318D01*
X352915Y332718D01*
X352919Y332718D01*
X352920Y332715D01*
X354020Y332215D01*
X354028Y332217D01*
X354031Y332212D01*
X355131Y332012D01*
X355137Y332015D01*
X355140Y332011D01*
X356440Y332011D01*
X356448Y332017D01*
G37*
G36*
X336753Y292510D02*
X336753Y292510D01*
X336762Y292506D01*
X337362Y292806D01*
X337373Y292828D01*
X337375Y292829D01*
X337386Y292833D01*
X337686Y293633D01*
X337682Y293648D01*
X337689Y293654D01*
X337589Y294754D01*
X337573Y294772D01*
X337575Y294785D01*
X337075Y295285D01*
X337056Y295287D01*
X337052Y295298D01*
X336252Y295498D01*
X336244Y295494D01*
X336240Y295499D01*
X331189Y295499D01*
X331189Y296247D01*
X331283Y297001D01*
X334740Y297001D01*
X334748Y297007D01*
X334754Y297003D01*
X335454Y297203D01*
X335472Y297227D01*
X335485Y297231D01*
X335785Y297931D01*
X335782Y297944D01*
X335789Y297950D01*
X335789Y299050D01*
X335780Y299063D01*
X335784Y299072D01*
X335484Y299672D01*
X335458Y299685D01*
X335454Y299697D01*
X334754Y299897D01*
X334744Y299894D01*
X334740Y299899D01*
X331283Y299899D01*
X331189Y300653D01*
X331189Y301407D01*
X331943Y301501D01*
X336140Y301501D01*
X336143Y301503D01*
X336145Y301501D01*
X337045Y301601D01*
X337065Y301620D01*
X337078Y301619D01*
X337478Y302119D01*
X337479Y302133D01*
X337488Y302140D01*
X337688Y303140D01*
X337682Y303153D01*
X337688Y303161D01*
X337488Y304061D01*
X337468Y304078D01*
X337467Y304091D01*
X336867Y304491D01*
X336847Y304490D01*
X336840Y304499D01*
X329040Y304499D01*
X329022Y304485D01*
X329009Y304488D01*
X328509Y304088D01*
X328504Y304067D01*
X328492Y304062D01*
X328292Y303262D01*
X328296Y303254D01*
X328291Y303250D01*
X328291Y293850D01*
X328294Y293846D01*
X328291Y293844D01*
X328391Y293044D01*
X328410Y293025D01*
X328409Y293012D01*
X328909Y292612D01*
X328929Y292611D01*
X328935Y292601D01*
X329935Y292501D01*
X329938Y292503D01*
X329940Y292501D01*
X336740Y292501D01*
X336753Y292510D01*
G37*
G36*
X348984Y314102D02*
X348984Y314102D01*
X348994Y314097D01*
X349693Y314496D01*
X350068Y314684D01*
X350746Y314297D01*
X350756Y314299D01*
X350759Y314292D01*
X351659Y314092D01*
X351667Y314095D01*
X351670Y314091D01*
X352470Y314091D01*
X352481Y314099D01*
X352489Y314095D01*
X353189Y314395D01*
X353192Y314400D01*
X353196Y314398D01*
X353996Y314898D01*
X354000Y314908D01*
X354007Y314908D01*
X354607Y315608D01*
X354608Y315611D01*
X354610Y315611D01*
X355110Y316311D01*
X355110Y316317D01*
X355114Y316318D01*
X355514Y317118D01*
X355512Y317127D01*
X355518Y317131D01*
X355517Y317133D01*
X355519Y317134D01*
X355619Y317934D01*
X355619Y317935D01*
X355719Y318835D01*
X355713Y318845D01*
X355718Y318852D01*
X355518Y319652D01*
X355513Y319656D01*
X355515Y319659D01*
X355215Y320359D01*
X355210Y320362D01*
X355212Y320366D01*
X354712Y321166D01*
X354704Y321169D01*
X354705Y321175D01*
X354105Y321775D01*
X354097Y321776D01*
X354096Y321782D01*
X353296Y322282D01*
X353290Y322281D01*
X353289Y322285D01*
X352589Y322585D01*
X352580Y322583D01*
X352576Y322589D01*
X351776Y322689D01*
X351772Y322687D01*
X351770Y322689D01*
X351170Y322689D01*
X351160Y322682D01*
X351153Y322686D01*
X350353Y322386D01*
X350349Y322380D01*
X350345Y322382D01*
X349919Y322127D01*
X349919Y325540D01*
X349913Y325548D01*
X349917Y325554D01*
X349717Y326254D01*
X349698Y326268D01*
X349697Y326281D01*
X349097Y326681D01*
X349077Y326680D01*
X349070Y326689D01*
X347970Y326689D01*
X347956Y326678D01*
X347946Y326683D01*
X347246Y326283D01*
X347235Y326258D01*
X347223Y326254D01*
X347023Y325554D01*
X347026Y325544D01*
X347021Y325540D01*
X347021Y315240D01*
X347026Y315233D01*
X347022Y315228D01*
X347222Y314428D01*
X347245Y314409D01*
X347248Y314396D01*
X347848Y314096D01*
X347864Y314099D01*
X347870Y314091D01*
X348970Y314091D01*
X348984Y314102D01*
G37*
G36*
X380846Y292506D02*
X380846Y292506D01*
X380851Y292502D01*
X381751Y292702D01*
X381751Y292703D01*
X381752Y292702D01*
X382552Y292902D01*
X382558Y292910D01*
X382564Y292907D01*
X383964Y293707D01*
X383968Y293716D01*
X383975Y293715D01*
X384575Y294315D01*
X384575Y294319D01*
X384578Y294318D01*
X385078Y294918D01*
X385078Y294921D01*
X385080Y294921D01*
X385580Y295621D01*
X385580Y295629D01*
X385585Y295631D01*
X385885Y296331D01*
X385885Y296332D01*
X385886Y296333D01*
X386186Y297133D01*
X386185Y297137D01*
X386188Y297138D01*
X386388Y297938D01*
X386387Y297939D01*
X386388Y297939D01*
X386588Y298839D01*
X386585Y298847D01*
X386589Y298850D01*
X386589Y300650D01*
X386584Y300656D01*
X386588Y300661D01*
X386388Y301561D01*
X386384Y301564D01*
X386386Y301567D01*
X386086Y302367D01*
X386079Y302372D01*
X386081Y302377D01*
X385681Y302977D01*
X385680Y302978D01*
X385680Y302979D01*
X385180Y303679D01*
X385168Y303682D01*
X385167Y303691D01*
X384567Y304091D01*
X384563Y304091D01*
X384562Y304094D01*
X383762Y304494D01*
X383750Y304492D01*
X383746Y304499D01*
X382946Y304599D01*
X382945Y304598D01*
X382945Y304599D01*
X381945Y304699D01*
X381934Y304693D01*
X381928Y304698D01*
X380328Y304298D01*
X380320Y304287D01*
X380311Y304290D01*
X379611Y303790D01*
X379610Y303784D01*
X379605Y303785D01*
X379005Y303185D01*
X379004Y303175D01*
X378997Y303174D01*
X378597Y302474D01*
X378598Y302469D01*
X378594Y302467D01*
X378294Y301667D01*
X378296Y301659D01*
X378291Y301656D01*
X378191Y300856D01*
X378193Y300852D01*
X378191Y300850D01*
X378191Y300750D01*
X378194Y300746D01*
X378191Y300744D01*
X378291Y299944D01*
X378300Y299935D01*
X378296Y299928D01*
X378696Y299128D01*
X378704Y299124D01*
X378703Y299118D01*
X379303Y298418D01*
X379309Y298417D01*
X379308Y298412D01*
X379908Y297912D01*
X379917Y297912D01*
X379918Y297906D01*
X380718Y297506D01*
X380726Y297507D01*
X380728Y297502D01*
X381528Y297302D01*
X381536Y297306D01*
X381540Y297301D01*
X382340Y297301D01*
X382346Y297306D01*
X382351Y297302D01*
X383160Y297482D01*
X382997Y297074D01*
X382505Y296385D01*
X381817Y295894D01*
X381028Y295598D01*
X380234Y295499D01*
X379335Y295399D01*
X379323Y295388D01*
X379313Y295391D01*
X378713Y294991D01*
X378704Y294967D01*
X378692Y294962D01*
X378492Y294162D01*
X378497Y294151D01*
X378491Y294145D01*
X378591Y293145D01*
X378607Y293128D01*
X378605Y293115D01*
X379105Y292615D01*
X379128Y292612D01*
X379134Y292601D01*
X379934Y292501D01*
X379938Y292503D01*
X379940Y292501D01*
X380840Y292501D01*
X380846Y292506D01*
G37*
G36*
X369877Y314096D02*
X369877Y314096D01*
X369882Y314092D01*
X370682Y314292D01*
X370685Y314296D01*
X370687Y314294D01*
X371487Y314594D01*
X371492Y314602D01*
X371499Y314600D01*
X372199Y315100D01*
X372200Y315106D01*
X372205Y315105D01*
X372805Y315705D01*
X372806Y315711D01*
X372810Y315711D01*
X373310Y316411D01*
X373310Y316421D01*
X373316Y316423D01*
X373616Y317223D01*
X373615Y317227D01*
X373618Y317228D01*
X373818Y318028D01*
X373814Y318036D01*
X373819Y318040D01*
X373819Y318940D01*
X373814Y318946D01*
X373818Y318951D01*
X373618Y319851D01*
X373616Y319852D01*
X373617Y319854D01*
X373417Y320554D01*
X373408Y320561D01*
X373410Y320569D01*
X372910Y321269D01*
X372907Y321270D01*
X372907Y321272D01*
X372307Y321972D01*
X372299Y321974D01*
X372299Y321980D01*
X371599Y322480D01*
X371591Y322480D01*
X371589Y322485D01*
X370889Y322785D01*
X370884Y322784D01*
X370882Y322788D01*
X370082Y322988D01*
X370077Y322986D01*
X370075Y322989D01*
X369175Y323089D01*
X369168Y323085D01*
X369164Y323089D01*
X368364Y322989D01*
X368358Y322983D01*
X368353Y322986D01*
X367553Y322686D01*
X367551Y322683D01*
X367548Y322684D01*
X366748Y322284D01*
X366744Y322277D01*
X366738Y322278D01*
X366138Y321778D01*
X366138Y321776D01*
X366137Y321776D01*
X364837Y320576D01*
X364834Y320563D01*
X364825Y320556D01*
X364831Y320548D01*
X364821Y320540D01*
X364821Y317840D01*
X364828Y317830D01*
X364824Y317823D01*
X365424Y316223D01*
X365437Y316215D01*
X365435Y316205D01*
X366635Y315005D01*
X366645Y315004D01*
X366646Y314997D01*
X367346Y314597D01*
X367327Y314564D01*
X367335Y314505D01*
X367349Y314507D01*
X367353Y314494D01*
X368153Y314194D01*
X368161Y314196D01*
X368164Y314191D01*
X368964Y314091D01*
X368968Y314093D01*
X368970Y314091D01*
X369870Y314091D01*
X369877Y314096D01*
G37*
G36*
X335274Y314191D02*
X335274Y314191D01*
X335292Y314207D01*
X335305Y314205D01*
X335805Y314705D01*
X335806Y314716D01*
X335808Y314718D01*
X335807Y314720D01*
X335808Y314728D01*
X335819Y314734D01*
X335919Y315534D01*
X335917Y315538D01*
X335919Y315540D01*
X335919Y321540D01*
X335913Y321548D01*
X335917Y321554D01*
X335717Y322254D01*
X335696Y322269D01*
X335694Y322283D01*
X334994Y322683D01*
X334977Y322680D01*
X334970Y322689D01*
X333870Y322689D01*
X333859Y322681D01*
X333851Y322685D01*
X333151Y322385D01*
X333135Y322358D01*
X333123Y322354D01*
X332923Y321654D01*
X332926Y321644D01*
X332921Y321640D01*
X332921Y318153D01*
X332534Y317476D01*
X331857Y317089D01*
X330988Y317089D01*
X330411Y317570D01*
X330119Y318250D01*
X330119Y321740D01*
X330110Y321753D01*
X330114Y321762D01*
X329814Y322362D01*
X329791Y322373D01*
X329787Y322386D01*
X328987Y322686D01*
X328972Y322682D01*
X328966Y322689D01*
X327866Y322589D01*
X327851Y322576D01*
X327839Y322578D01*
X327339Y322178D01*
X327333Y322153D01*
X327321Y322146D01*
X327221Y321346D01*
X327223Y321342D01*
X327221Y321340D01*
X327221Y317940D01*
X327226Y317934D01*
X327222Y317929D01*
X327422Y317029D01*
X327427Y317025D01*
X327425Y317021D01*
X327725Y316321D01*
X327727Y316319D01*
X327726Y316318D01*
X328126Y315518D01*
X328136Y315513D01*
X328135Y315505D01*
X328735Y314905D01*
X328741Y314904D01*
X328741Y314900D01*
X329441Y314400D01*
X329454Y314400D01*
X329456Y314393D01*
X330156Y314193D01*
X330162Y314195D01*
X330165Y314191D01*
X331065Y314091D01*
X331075Y314098D01*
X331082Y314092D01*
X331882Y314292D01*
X331888Y314300D01*
X331894Y314297D01*
X332593Y314696D01*
X332953Y314877D01*
X333329Y314313D01*
X333353Y314304D01*
X333358Y314292D01*
X334158Y314092D01*
X334169Y314097D01*
X334174Y314091D01*
X335274Y314191D01*
G37*
G36*
X553673Y31589D02*
X553673Y31589D01*
X553687Y31587D01*
X554087Y31987D01*
X554088Y31999D01*
X554093Y32003D01*
X554090Y32008D01*
X554101Y32014D01*
X554201Y32614D01*
X554198Y32619D01*
X554201Y32622D01*
X554201Y33992D01*
X554564Y34173D01*
X555952Y34173D01*
X555957Y34176D01*
X555960Y34173D01*
X556560Y34273D01*
X556564Y34278D01*
X556568Y34275D01*
X557168Y34475D01*
X557173Y34483D01*
X557179Y34481D01*
X558379Y35281D01*
X558383Y35291D01*
X558390Y35291D01*
X558790Y35791D01*
X558791Y35801D01*
X558797Y35803D01*
X559097Y36503D01*
X559095Y36511D01*
X559101Y36514D01*
X559201Y37114D01*
X559200Y37115D01*
X559201Y37115D01*
X559301Y37815D01*
X559298Y37820D01*
X559301Y37822D01*
X559301Y38522D01*
X559292Y38535D01*
X559296Y38544D01*
X558896Y39344D01*
X558889Y39347D01*
X558890Y39353D01*
X558490Y39853D01*
X558486Y39854D01*
X558487Y39857D01*
X557987Y40357D01*
X557980Y40358D01*
X557979Y40363D01*
X557379Y40763D01*
X557375Y40763D01*
X557374Y40766D01*
X556774Y41066D01*
X556763Y41064D01*
X556759Y41071D01*
X556059Y41171D01*
X556054Y41168D01*
X556052Y41171D01*
X552652Y41171D01*
X552643Y41164D01*
X552636Y41169D01*
X552036Y40969D01*
X552019Y40944D01*
X552006Y40940D01*
X551806Y40440D01*
X551810Y40427D01*
X551803Y40422D01*
X551803Y32222D01*
X551812Y32209D01*
X551808Y32200D01*
X552008Y31800D01*
X552034Y31787D01*
X552038Y31775D01*
X552738Y31575D01*
X552748Y31578D01*
X552752Y31573D01*
X553652Y31573D01*
X553673Y31589D01*
G37*
%LPC*%
G36*
X230254Y211249D02*
X230254Y211249D01*
X229785Y211531D01*
X229689Y212104D01*
X229689Y213073D01*
X231934Y213648D01*
X232318Y213456D01*
X232334Y213459D01*
X232340Y213451D01*
X234440Y213451D01*
X234461Y213467D01*
X234475Y213465D01*
X234875Y213865D01*
X234879Y213892D01*
X234889Y213900D01*
X234889Y214500D01*
X234882Y214509D01*
X234887Y214516D01*
X234687Y215116D01*
X234652Y215139D01*
X234647Y215149D01*
X233270Y215345D01*
X232989Y215814D01*
X232989Y216580D01*
X233363Y216954D01*
X234047Y217051D01*
X234052Y217056D01*
X234056Y217053D01*
X234656Y217253D01*
X234689Y217302D01*
X234686Y217304D01*
X234689Y217307D01*
X234589Y218007D01*
X234573Y218022D01*
X234575Y218035D01*
X234175Y218435D01*
X234148Y218439D01*
X234140Y218449D01*
X232040Y218449D01*
X231993Y218413D01*
X231995Y218410D01*
X231991Y218408D01*
X231891Y217808D01*
X231894Y217803D01*
X231891Y217800D01*
X231891Y213837D01*
X229689Y213223D01*
X229689Y219596D01*
X229786Y220176D01*
X230163Y220553D01*
X230943Y220651D01*
X234336Y220651D01*
X234925Y220553D01*
X235515Y220257D01*
X236105Y219865D01*
X236495Y219278D01*
X236693Y218684D01*
X236890Y218095D01*
X236792Y217410D01*
X236593Y216714D01*
X236597Y216701D01*
X236591Y216695D01*
X236691Y215695D01*
X236700Y215686D01*
X236696Y215678D01*
X236993Y215085D01*
X237091Y214492D01*
X237135Y214451D01*
X237140Y214457D01*
X237146Y214451D01*
X239126Y214687D01*
X239126Y214686D01*
X237134Y214449D01*
X237091Y214408D01*
X237095Y214403D01*
X237091Y214400D01*
X237091Y213807D01*
X236894Y213118D01*
X236598Y212527D01*
X236205Y212035D01*
X235713Y211642D01*
X235125Y211348D01*
X234437Y211249D01*
X230254Y211249D01*
G37*
%LPD*%
G36*
X544170Y31587D02*
X544170Y31587D01*
X544183Y31584D01*
X544683Y31984D01*
X544687Y31999D01*
X544692Y32003D01*
X544689Y32007D01*
X544689Y32008D01*
X544701Y32014D01*
X544801Y32614D01*
X544798Y32619D01*
X544801Y32622D01*
X544801Y33992D01*
X545164Y34173D01*
X546552Y34173D01*
X546557Y34176D01*
X546560Y34173D01*
X547160Y34273D01*
X547164Y34278D01*
X547168Y34275D01*
X547768Y34475D01*
X547773Y34483D01*
X547779Y34481D01*
X548979Y35281D01*
X548983Y35291D01*
X548990Y35291D01*
X549390Y35791D01*
X549391Y35801D01*
X549397Y35803D01*
X549697Y36503D01*
X549695Y36511D01*
X549701Y36514D01*
X549801Y37114D01*
X549798Y37119D01*
X549801Y37122D01*
X549801Y38522D01*
X549792Y38535D01*
X549796Y38544D01*
X549396Y39344D01*
X549393Y39345D01*
X549394Y39347D01*
X549094Y39847D01*
X549086Y39851D01*
X549087Y39857D01*
X548587Y40357D01*
X548580Y40358D01*
X548579Y40363D01*
X547979Y40763D01*
X547973Y40763D01*
X547971Y40767D01*
X547271Y41067D01*
X547263Y41065D01*
X547260Y41071D01*
X546660Y41171D01*
X546655Y41168D01*
X546652Y41171D01*
X543252Y41171D01*
X543243Y41164D01*
X543236Y41169D01*
X542636Y40969D01*
X542619Y40944D01*
X542606Y40940D01*
X542406Y40440D01*
X542410Y40427D01*
X542403Y40422D01*
X542403Y32222D01*
X542412Y32209D01*
X542408Y32200D01*
X542608Y31800D01*
X542634Y31787D01*
X542638Y31775D01*
X543338Y31575D01*
X543348Y31578D01*
X543352Y31573D01*
X544152Y31573D01*
X544170Y31587D01*
G37*
G36*
X383382Y314103D02*
X383382Y314103D01*
X383394Y314097D01*
X384094Y314497D01*
X384098Y314506D01*
X384105Y314505D01*
X384805Y315205D01*
X384809Y315232D01*
X384819Y315240D01*
X384819Y315940D01*
X384806Y315957D01*
X384810Y315969D01*
X384310Y316669D01*
X384305Y316670D01*
X384306Y316674D01*
X382539Y318539D01*
X384305Y320305D01*
X384306Y320311D01*
X384310Y320311D01*
X384810Y321011D01*
X384810Y321019D01*
X384814Y321022D01*
X384810Y321027D01*
X384809Y321033D01*
X384819Y321040D01*
X384819Y321740D01*
X384804Y321760D01*
X384807Y321772D01*
X384107Y322572D01*
X384095Y322575D01*
X384094Y322583D01*
X383394Y322983D01*
X383362Y322979D01*
X383351Y322985D01*
X382651Y322685D01*
X382645Y322676D01*
X382638Y322677D01*
X381938Y322077D01*
X381937Y322072D01*
X381932Y322072D01*
X380847Y320789D01*
X380290Y320789D01*
X378405Y322675D01*
X378392Y322677D01*
X378389Y322685D01*
X377689Y322985D01*
X377658Y322977D01*
X377646Y322983D01*
X376946Y322583D01*
X376941Y322572D01*
X376933Y322572D01*
X376233Y321772D01*
X376232Y321753D01*
X376221Y321748D01*
X376121Y321148D01*
X376134Y321124D01*
X376130Y321111D01*
X376630Y320411D01*
X376635Y320410D01*
X376634Y320406D01*
X378404Y318538D01*
X377933Y317973D01*
X376735Y316775D01*
X376734Y316770D01*
X376731Y316770D01*
X376131Y315970D01*
X376131Y315948D01*
X376121Y315940D01*
X376121Y315340D01*
X376136Y315320D01*
X376133Y315308D01*
X376833Y314508D01*
X376845Y314505D01*
X376846Y314497D01*
X377546Y314097D01*
X377573Y314101D01*
X377584Y314093D01*
X378284Y314293D01*
X378293Y314305D01*
X378302Y314303D01*
X379002Y314903D01*
X379003Y314905D01*
X379005Y314905D01*
X380194Y316094D01*
X380753Y316187D01*
X382635Y314305D01*
X382653Y314303D01*
X382656Y314293D01*
X383356Y314093D01*
X383382Y314103D01*
G37*
%LPC*%
G36*
X221147Y211249D02*
X221147Y211249D01*
X220474Y211441D01*
X220288Y211815D01*
X220189Y212503D01*
X220189Y219297D01*
X220288Y220086D01*
X220474Y220459D01*
X221147Y220651D01*
X226636Y220651D01*
X227210Y220555D01*
X227492Y220084D01*
X227591Y219294D01*
X227633Y219251D01*
X227640Y219258D01*
X227647Y219252D01*
X227630Y219248D01*
X227609Y219225D01*
X227596Y219222D01*
X227304Y218639D01*
X226831Y218449D01*
X222740Y218449D01*
X222714Y218430D01*
X222701Y218430D01*
X222401Y218030D01*
X222401Y218008D01*
X222391Y218000D01*
X222391Y217400D01*
X222410Y217374D01*
X222410Y217361D01*
X222810Y217061D01*
X222831Y217061D01*
X222838Y217051D01*
X225526Y216951D01*
X225998Y216668D01*
X226189Y215999D01*
X225996Y215229D01*
X225618Y214945D01*
X224933Y214749D01*
X222940Y214749D01*
X222934Y214745D01*
X222930Y214748D01*
X222430Y214648D01*
X222391Y214604D01*
X222393Y214602D01*
X222391Y214600D01*
X222391Y213900D01*
X222404Y213882D01*
X222401Y213870D01*
X222701Y213470D01*
X222732Y213462D01*
X222740Y213451D01*
X226137Y213451D01*
X226829Y213352D01*
X227401Y213161D01*
X227590Y212595D01*
X227493Y211719D01*
X227212Y211345D01*
X226636Y211249D01*
X221147Y211249D01*
G37*
%LPD*%
%LPC*%
G36*
X254844Y211249D02*
X254844Y211249D01*
X254248Y211349D01*
X254247Y211348D01*
X254247Y211349D01*
X253555Y211448D01*
X252967Y211742D01*
X252471Y212138D01*
X252467Y212139D01*
X252467Y212141D01*
X251876Y212536D01*
X251481Y213127D01*
X251478Y213128D01*
X251478Y213131D01*
X251082Y213627D01*
X250786Y214219D01*
X250588Y214811D01*
X250489Y215503D01*
X250489Y216197D01*
X250504Y216299D01*
X252691Y216350D01*
X252691Y215000D01*
X252700Y214987D01*
X252696Y214978D01*
X252796Y214778D01*
X252809Y214771D01*
X252809Y214762D01*
X253307Y214363D01*
X253805Y213865D01*
X253817Y213864D01*
X253818Y213856D01*
X254418Y213556D01*
X254429Y213558D01*
X254432Y213551D01*
X255032Y213451D01*
X255037Y213454D01*
X255040Y213451D01*
X255740Y213451D01*
X255753Y213460D01*
X255762Y213456D01*
X256362Y213756D01*
X256364Y213760D01*
X256367Y213759D01*
X256967Y214159D01*
X256972Y214174D01*
X256982Y214175D01*
X257282Y214675D01*
X257282Y214680D01*
X257285Y214681D01*
X257585Y215381D01*
X257584Y215388D01*
X257587Y215391D01*
X257584Y215396D01*
X257589Y215400D01*
X257589Y216100D01*
X257586Y216104D01*
X257589Y216107D01*
X257489Y216807D01*
X257484Y216812D01*
X257487Y216816D01*
X257287Y217416D01*
X257276Y217423D01*
X257278Y217431D01*
X256878Y217931D01*
X256868Y217933D01*
X256867Y217941D01*
X256267Y218341D01*
X256263Y218341D01*
X256262Y218344D01*
X255662Y218644D01*
X255646Y218641D01*
X255640Y218649D01*
X254940Y218649D01*
X254935Y218646D01*
X254932Y218649D01*
X254332Y218549D01*
X254322Y218538D01*
X254313Y218541D01*
X253713Y218141D01*
X253710Y218134D01*
X253705Y218135D01*
X253205Y217635D01*
X253204Y217626D01*
X253198Y217625D01*
X252898Y217125D01*
X252899Y217116D01*
X252893Y217114D01*
X252858Y216993D01*
X252844Y216944D01*
X252802Y216796D01*
X252760Y216649D01*
X252746Y216599D01*
X252704Y216452D01*
X252703Y216448D01*
X250518Y216398D01*
X250589Y216892D01*
X250688Y217486D01*
X250985Y218179D01*
X251282Y218773D01*
X251677Y219267D01*
X252173Y219763D01*
X252667Y220158D01*
X253259Y220454D01*
X253855Y220653D01*
X254547Y220851D01*
X255537Y220851D01*
X256229Y220752D01*
X256821Y220554D01*
X257415Y220257D01*
X258009Y219862D01*
X258999Y218871D01*
X259593Y217685D01*
X259691Y217092D01*
X259791Y216397D01*
X259791Y215703D01*
X259692Y215011D01*
X259493Y214416D01*
X259494Y214414D01*
X259493Y214414D01*
X259295Y213723D01*
X258902Y213231D01*
X258901Y213227D01*
X258899Y213227D01*
X258503Y212634D01*
X258011Y212240D01*
X257415Y211843D01*
X256821Y211546D01*
X256229Y211348D01*
X255537Y211249D01*
X254844Y211249D01*
G37*
%LPD*%
%LPC*%
G36*
X243343Y211249D02*
X243343Y211249D01*
X242651Y211348D01*
X242056Y211547D01*
X241464Y211744D01*
X240971Y212138D01*
X240375Y212635D01*
X239980Y213129D01*
X239583Y213725D01*
X239287Y214315D01*
X239240Y214600D01*
X241322Y214848D01*
X242405Y213765D01*
X242421Y213763D01*
X242424Y213753D01*
X243024Y213553D01*
X243031Y213555D01*
X243033Y213551D01*
X243733Y213451D01*
X243743Y213457D01*
X243748Y213451D01*
X244348Y213551D01*
X244352Y213556D01*
X244356Y213553D01*
X244956Y213753D01*
X244963Y213764D01*
X244972Y213762D01*
X245572Y214262D01*
X245574Y214274D01*
X245582Y214275D01*
X245882Y214775D01*
X245881Y214783D01*
X245887Y214784D01*
X246087Y215384D01*
X246085Y215389D01*
X246088Y215391D01*
X246087Y215393D01*
X246089Y215394D01*
X246189Y216194D01*
X246184Y216202D01*
X246189Y216207D01*
X246089Y216907D01*
X246081Y216915D01*
X246084Y216922D01*
X245784Y217522D01*
X245777Y217525D01*
X245778Y217531D01*
X245378Y218031D01*
X245368Y218033D01*
X245367Y218041D01*
X244767Y218441D01*
X244758Y218440D01*
X244756Y218447D01*
X244156Y218647D01*
X244145Y218643D01*
X244140Y218649D01*
X243440Y218649D01*
X243431Y218642D01*
X243424Y218647D01*
X242824Y218447D01*
X242821Y218442D01*
X242818Y218444D01*
X242218Y218144D01*
X242213Y218134D01*
X242205Y218135D01*
X241705Y217635D01*
X241704Y217623D01*
X241696Y217622D01*
X241396Y217022D01*
X241398Y217011D01*
X241391Y217007D01*
X241291Y216307D01*
X241293Y216304D01*
X241294Y216302D01*
X241291Y216300D01*
X241291Y215044D01*
X239207Y214796D01*
X239189Y214908D01*
X239089Y215603D01*
X239089Y216992D01*
X239287Y217584D01*
X239286Y217586D01*
X239287Y217586D01*
X239485Y218279D01*
X239880Y218871D01*
X240275Y219365D01*
X240771Y219762D01*
X241267Y220158D01*
X241862Y220456D01*
X242455Y220752D01*
X243143Y220851D01*
X244236Y220851D01*
X244826Y220752D01*
X245518Y220456D01*
X246014Y220158D01*
X246611Y219760D01*
X247103Y219366D01*
X247499Y218773D01*
X247502Y218772D01*
X247502Y218769D01*
X247895Y218277D01*
X248093Y217586D01*
X248094Y217585D01*
X248093Y217584D01*
X248292Y216989D01*
X248391Y216297D01*
X248391Y215607D01*
X248193Y214914D01*
X248194Y214910D01*
X248191Y214908D01*
X248093Y214315D01*
X247797Y213725D01*
X247400Y213129D01*
X247003Y212633D01*
X246509Y212138D01*
X245915Y211743D01*
X245325Y211447D01*
X244732Y211349D01*
X244037Y211249D01*
X243343Y211249D01*
G37*
%LPD*%
G36*
X589157Y317844D02*
X589157Y317844D01*
X589169Y317840D01*
X589869Y318340D01*
X589873Y318354D01*
X589882Y318355D01*
X590182Y318855D01*
X590180Y318880D01*
X590188Y318890D01*
X590088Y319390D01*
X590082Y319396D01*
X590084Y319401D01*
X586484Y326901D01*
X586480Y326904D01*
X586481Y326907D01*
X586281Y327207D01*
X586264Y327213D01*
X586262Y327224D01*
X585662Y327524D01*
X585642Y327520D01*
X585633Y327529D01*
X584933Y327429D01*
X584920Y327416D01*
X584909Y327418D01*
X584409Y327018D01*
X584406Y327004D01*
X584396Y327002D01*
X584096Y326402D01*
X580796Y319602D01*
X580797Y319597D01*
X580793Y319596D01*
X580593Y318996D01*
X580600Y318977D01*
X580599Y318977D01*
X580600Y318976D01*
X580601Y318973D01*
X580594Y318962D01*
X580794Y318462D01*
X580811Y318452D01*
X580811Y318440D01*
X581511Y317940D01*
X581527Y317940D01*
X581532Y317931D01*
X582132Y317831D01*
X582151Y317841D01*
X582162Y317836D01*
X582762Y318136D01*
X582772Y318156D01*
X582784Y318158D01*
X583084Y318758D01*
X583670Y319931D01*
X587020Y319931D01*
X587399Y319551D01*
X587995Y318259D01*
X588010Y318252D01*
X588009Y318242D01*
X588509Y317842D01*
X588532Y317841D01*
X588540Y317831D01*
X589140Y317831D01*
X589157Y317844D01*
G37*
G36*
X500149Y30818D02*
X500149Y30818D01*
X500156Y30813D01*
X500756Y31013D01*
X500759Y31018D01*
X500762Y31016D01*
X501362Y31316D01*
X501363Y31319D01*
X501365Y31318D01*
X501865Y31618D01*
X501869Y31626D01*
X501875Y31625D01*
X502375Y32125D01*
X502376Y32132D01*
X502381Y32133D01*
X502781Y32733D01*
X502780Y32742D01*
X502787Y32744D01*
X502987Y33344D01*
X502983Y33355D01*
X502987Y33358D01*
X502987Y33359D01*
X502989Y33360D01*
X502989Y34060D01*
X502986Y34065D01*
X502989Y34068D01*
X502889Y34668D01*
X502881Y34675D01*
X502884Y34682D01*
X502584Y35282D01*
X502571Y35288D01*
X502572Y35298D01*
X501989Y35783D01*
X501989Y36136D01*
X502471Y36522D01*
X502474Y36536D01*
X502484Y36538D01*
X502784Y37138D01*
X502782Y37147D01*
X502787Y37151D01*
X502784Y37156D01*
X502789Y37160D01*
X502789Y37860D01*
X502786Y37864D01*
X502789Y37867D01*
X502689Y38567D01*
X502681Y38575D01*
X502684Y38582D01*
X502384Y39182D01*
X502374Y39187D01*
X502375Y39195D01*
X501876Y39694D01*
X500977Y40693D01*
X500948Y40698D01*
X500940Y40709D01*
X498840Y40709D01*
X498831Y40702D01*
X498824Y40707D01*
X498225Y40507D01*
X497526Y40307D01*
X497518Y40296D01*
X497509Y40298D01*
X497009Y39898D01*
X497008Y39894D01*
X497005Y39895D01*
X496505Y39395D01*
X496503Y39382D01*
X496495Y39379D01*
X496195Y38679D01*
X496197Y38672D01*
X496192Y38670D01*
X496092Y38170D01*
X496103Y38147D01*
X496098Y38135D01*
X496398Y37635D01*
X496412Y37629D01*
X496413Y37619D01*
X497013Y37219D01*
X497027Y37220D01*
X497032Y37211D01*
X497632Y37111D01*
X497638Y37115D01*
X497645Y37115D01*
X497658Y37125D01*
X497671Y37122D01*
X498171Y37522D01*
X498173Y37529D01*
X498178Y37529D01*
X498572Y38021D01*
X499152Y38311D01*
X499823Y38311D01*
X500291Y37936D01*
X500291Y37396D01*
X499729Y37208D01*
X498934Y37109D01*
X498925Y37100D01*
X498918Y37104D01*
X498518Y36904D01*
X498508Y36884D01*
X498496Y36882D01*
X498196Y36282D01*
X498200Y36263D01*
X498191Y36255D01*
X498291Y35355D01*
X498307Y35338D01*
X498305Y35325D01*
X498705Y34925D01*
X498726Y34922D01*
X498732Y34911D01*
X499332Y34811D01*
X499333Y34812D01*
X499333Y34811D01*
X500017Y34714D01*
X500494Y34236D01*
X500587Y33680D01*
X500116Y33304D01*
X499535Y33110D01*
X498854Y33208D01*
X498181Y33496D01*
X497987Y34174D01*
X497970Y34187D01*
X497970Y34199D01*
X497570Y34499D01*
X497552Y34499D01*
X497546Y34509D01*
X496746Y34609D01*
X496736Y34603D01*
X496732Y34603D01*
X496726Y34607D01*
X496026Y34407D01*
X496013Y34390D01*
X496001Y34390D01*
X495701Y33990D01*
X495701Y33981D01*
X495695Y33976D01*
X495701Y33968D01*
X495691Y33960D01*
X495691Y33260D01*
X495700Y33247D01*
X495696Y33238D01*
X495996Y32638D01*
X496000Y32636D01*
X495999Y32633D01*
X496399Y32033D01*
X496402Y32032D01*
X496402Y32029D01*
X496802Y31529D01*
X496814Y31526D01*
X496815Y31518D01*
X497315Y31218D01*
X497318Y31218D01*
X497318Y31216D01*
X497918Y30916D01*
X497929Y30918D01*
X497933Y30911D01*
X498633Y30811D01*
X498638Y30814D01*
X498640Y30811D01*
X500140Y30811D01*
X500149Y30818D01*
G37*
G36*
X521148Y30817D02*
X521148Y30817D01*
X521154Y30813D01*
X521854Y31013D01*
X521858Y31018D01*
X521862Y31016D01*
X522462Y31316D01*
X522463Y31319D01*
X522465Y31318D01*
X522965Y31618D01*
X522969Y31626D01*
X522975Y31625D01*
X523475Y32125D01*
X523476Y32137D01*
X523484Y32138D01*
X523784Y32738D01*
X523783Y32743D01*
X523787Y32744D01*
X523987Y33344D01*
X523985Y33351D01*
X523989Y33353D01*
X524089Y34053D01*
X524083Y34063D01*
X524089Y34068D01*
X523989Y34668D01*
X523978Y34678D01*
X523981Y34687D01*
X523581Y35287D01*
X523574Y35290D01*
X523575Y35295D01*
X523089Y35780D01*
X523089Y36136D01*
X523571Y36522D01*
X523576Y36541D01*
X523587Y36544D01*
X523787Y37144D01*
X523785Y37149D01*
X523788Y37151D01*
X523787Y37152D01*
X523789Y37153D01*
X523889Y37853D01*
X523882Y37866D01*
X523887Y37874D01*
X523687Y38574D01*
X523682Y38578D01*
X523684Y38582D01*
X523384Y39182D01*
X523377Y39185D01*
X523378Y39191D01*
X522978Y39691D01*
X522974Y39692D01*
X522975Y39695D01*
X521975Y40695D01*
X521948Y40699D01*
X521940Y40709D01*
X519940Y40709D01*
X519931Y40702D01*
X519924Y40707D01*
X519325Y40507D01*
X518626Y40307D01*
X518618Y40296D01*
X518609Y40298D01*
X518109Y39898D01*
X518108Y39894D01*
X518105Y39895D01*
X517605Y39395D01*
X517604Y39385D01*
X517597Y39384D01*
X517197Y38684D01*
X517199Y38673D01*
X517192Y38670D01*
X517092Y38170D01*
X517103Y38147D01*
X517098Y38135D01*
X517398Y37635D01*
X517414Y37628D01*
X517416Y37617D01*
X518116Y37217D01*
X518128Y37219D01*
X518132Y37211D01*
X518732Y37111D01*
X518738Y37115D01*
X518745Y37115D01*
X518758Y37125D01*
X518771Y37122D01*
X519271Y37522D01*
X519273Y37529D01*
X519278Y37529D01*
X519672Y38021D01*
X520252Y38311D01*
X520923Y38311D01*
X521391Y37936D01*
X521391Y37396D01*
X520829Y37208D01*
X520034Y37109D01*
X520027Y37102D01*
X520022Y37106D01*
X519522Y36906D01*
X519506Y36880D01*
X519493Y36876D01*
X519293Y36276D01*
X519298Y36261D01*
X519291Y36255D01*
X519391Y35355D01*
X519407Y35338D01*
X519405Y35325D01*
X519805Y34925D01*
X519825Y34922D01*
X519830Y34912D01*
X520330Y34812D01*
X520333Y34813D01*
X520334Y34811D01*
X521117Y34713D01*
X521591Y34240D01*
X521591Y33680D01*
X521214Y33304D01*
X520537Y33110D01*
X519855Y33208D01*
X519278Y33496D01*
X518985Y34179D01*
X518970Y34188D01*
X518970Y34199D01*
X518570Y34499D01*
X518552Y34499D01*
X518546Y34509D01*
X517746Y34609D01*
X517736Y34603D01*
X517732Y34603D01*
X517726Y34607D01*
X517026Y34407D01*
X517013Y34390D01*
X517001Y34390D01*
X516701Y33990D01*
X516701Y33981D01*
X516695Y33976D01*
X516701Y33968D01*
X516701Y33963D01*
X516691Y33953D01*
X516791Y33253D01*
X516796Y33248D01*
X516793Y33244D01*
X516993Y32644D01*
X517001Y32639D01*
X516999Y32633D01*
X517399Y32033D01*
X517406Y32030D01*
X517405Y32025D01*
X517905Y31525D01*
X517914Y31524D01*
X517915Y31518D01*
X518415Y31218D01*
X518418Y31218D01*
X518418Y31216D01*
X519018Y30916D01*
X519029Y30918D01*
X519033Y30911D01*
X519733Y30811D01*
X519738Y30814D01*
X519740Y30811D01*
X521140Y30811D01*
X521148Y30817D01*
G37*
G36*
X379347Y332017D02*
X379347Y332017D01*
X379353Y332013D01*
X380453Y332313D01*
X380470Y332334D01*
X380483Y332336D01*
X380983Y333236D01*
X380981Y333253D01*
X380989Y333260D01*
X380989Y341660D01*
X380987Y341663D01*
X380989Y341664D01*
X380889Y342864D01*
X380879Y342875D01*
X380883Y342884D01*
X380383Y343784D01*
X380357Y343795D01*
X380352Y343808D01*
X379152Y344108D01*
X379139Y344102D01*
X379133Y344109D01*
X377733Y343909D01*
X377718Y343893D01*
X377705Y343895D01*
X377005Y343195D01*
X377002Y343171D01*
X376991Y343164D01*
X376891Y342064D01*
X376893Y342062D01*
X376891Y342060D01*
X376891Y333960D01*
X376893Y333957D01*
X376891Y333956D01*
X376991Y332856D01*
X377009Y332836D01*
X377008Y332823D01*
X377808Y332123D01*
X377830Y332121D01*
X377837Y332111D01*
X379337Y332011D01*
X379347Y332017D01*
G37*
G36*
X564956Y31576D02*
X564956Y31576D01*
X564959Y31573D01*
X565659Y31673D01*
X565667Y31681D01*
X565674Y31678D01*
X566874Y32278D01*
X566879Y32288D01*
X566887Y32287D01*
X567287Y32687D01*
X567288Y32694D01*
X567293Y32695D01*
X567693Y33295D01*
X567692Y33304D01*
X567699Y33306D01*
X567899Y33906D01*
X567897Y33913D01*
X567901Y33915D01*
X568001Y34615D01*
X567996Y34623D01*
X568001Y34628D01*
X567901Y35428D01*
X567896Y35433D01*
X567899Y35438D01*
X567699Y36038D01*
X567692Y36042D01*
X567694Y36047D01*
X567394Y36547D01*
X567383Y36552D01*
X567383Y36560D01*
X566883Y36960D01*
X566875Y36961D01*
X566874Y36966D01*
X566274Y37266D01*
X566267Y37265D01*
X566266Y37269D01*
X565566Y37469D01*
X565564Y37469D01*
X565563Y37470D01*
X564272Y37768D01*
X563693Y38154D01*
X563507Y38712D01*
X563878Y39176D01*
X564547Y39272D01*
X565128Y39078D01*
X565720Y38584D01*
X565744Y38583D01*
X565752Y38573D01*
X566352Y38573D01*
X566367Y38584D01*
X566377Y38580D01*
X566877Y38880D01*
X566883Y38893D01*
X566892Y38893D01*
X567392Y39593D01*
X567391Y39615D01*
X567401Y39622D01*
X567401Y40122D01*
X567385Y40143D01*
X567387Y40157D01*
X566887Y40657D01*
X566883Y40657D01*
X566883Y40660D01*
X566383Y41060D01*
X566369Y41061D01*
X566366Y41069D01*
X565666Y41269D01*
X565662Y41268D01*
X565660Y41271D01*
X565060Y41371D01*
X565059Y41370D01*
X565059Y41371D01*
X564359Y41471D01*
X564351Y41466D01*
X564346Y41471D01*
X563546Y41371D01*
X563541Y41366D01*
X563536Y41369D01*
X562936Y41169D01*
X562933Y41164D01*
X562930Y41166D01*
X562330Y40866D01*
X562327Y40859D01*
X562321Y40860D01*
X561821Y40460D01*
X561819Y40450D01*
X561811Y40449D01*
X561411Y39849D01*
X561412Y39840D01*
X561405Y39838D01*
X561205Y39238D01*
X561207Y39232D01*
X561203Y39230D01*
X561103Y38630D01*
X561109Y38620D01*
X561103Y38615D01*
X561203Y37915D01*
X561207Y37911D01*
X561205Y37908D01*
X561405Y37208D01*
X561416Y37200D01*
X561414Y37191D01*
X561814Y36691D01*
X561821Y36689D01*
X561821Y36684D01*
X562321Y36284D01*
X562329Y36283D01*
X562330Y36278D01*
X563530Y35678D01*
X563537Y35679D01*
X563538Y35675D01*
X564238Y35475D01*
X564242Y35476D01*
X564244Y35473D01*
X564837Y35375D01*
X565412Y35087D01*
X565598Y34528D01*
X565317Y34060D01*
X564744Y33773D01*
X564068Y33869D01*
X563382Y34262D01*
X562887Y34757D01*
X562873Y34759D01*
X562870Y34768D01*
X562370Y34968D01*
X562358Y34964D01*
X562353Y34971D01*
X562350Y34971D01*
X562347Y34969D01*
X562345Y34971D01*
X561645Y34871D01*
X561627Y34853D01*
X561614Y34854D01*
X561114Y34254D01*
X561114Y34246D01*
X561113Y34246D01*
X561114Y34245D01*
X561113Y34236D01*
X561104Y34232D01*
X561004Y33732D01*
X561013Y33713D01*
X561007Y33703D01*
X561307Y33003D01*
X561318Y32996D01*
X561317Y32987D01*
X561717Y32587D01*
X561724Y32586D01*
X561725Y32581D01*
X562925Y31781D01*
X562934Y31782D01*
X562936Y31775D01*
X563536Y31575D01*
X563547Y31579D01*
X563552Y31573D01*
X564952Y31573D01*
X564956Y31576D01*
G37*
G36*
X638748Y317837D02*
X638748Y317837D01*
X638754Y317833D01*
X639454Y318033D01*
X639466Y318050D01*
X639478Y318049D01*
X639834Y318494D01*
X640098Y318055D01*
X640120Y318046D01*
X640124Y318033D01*
X640724Y317833D01*
X640735Y317837D01*
X640740Y317831D01*
X641540Y317831D01*
X641555Y317842D01*
X641565Y317838D01*
X642065Y318138D01*
X642073Y318157D01*
X642080Y318162D01*
X642077Y318166D01*
X642089Y318173D01*
X642189Y318873D01*
X642186Y318878D01*
X642189Y318880D01*
X642189Y323680D01*
X642186Y323685D01*
X642189Y323688D01*
X642089Y324288D01*
X642070Y324305D01*
X642071Y324318D01*
X641571Y324718D01*
X641549Y324719D01*
X641544Y324726D01*
X641543Y324726D01*
X641540Y324729D01*
X640740Y324729D01*
X640735Y324726D01*
X640730Y324726D01*
X640728Y324724D01*
X640724Y324727D01*
X640124Y324527D01*
X640111Y324507D01*
X640098Y324505D01*
X639830Y324059D01*
X639775Y324115D01*
X639771Y324115D01*
X639771Y324118D01*
X639271Y324518D01*
X639258Y324519D01*
X639256Y324527D01*
X638656Y324727D01*
X638651Y324725D01*
X638651Y324726D01*
X638643Y324726D01*
X638640Y324729D01*
X637940Y324729D01*
X637935Y324726D01*
X637930Y324726D01*
X637928Y324724D01*
X637924Y324727D01*
X637324Y324527D01*
X637321Y324522D01*
X637318Y324524D01*
X636718Y324224D01*
X636714Y324217D01*
X636708Y324218D01*
X636108Y323718D01*
X636106Y323708D01*
X636099Y323707D01*
X635699Y323107D01*
X635699Y323103D01*
X635696Y323102D01*
X635396Y322502D01*
X635397Y322497D01*
X635393Y322496D01*
X635193Y321896D01*
X635197Y321886D01*
X635193Y321883D01*
X635193Y321882D01*
X635191Y321880D01*
X635191Y321180D01*
X635194Y321176D01*
X635191Y321173D01*
X635291Y320473D01*
X635296Y320468D01*
X635293Y320464D01*
X635493Y319864D01*
X635498Y319861D01*
X635496Y319858D01*
X635796Y319258D01*
X635806Y319253D01*
X635805Y319245D01*
X636805Y318245D01*
X636817Y318244D01*
X636818Y318236D01*
X637418Y317936D01*
X637429Y317938D01*
X637432Y317931D01*
X638032Y317831D01*
X638037Y317834D01*
X638040Y317831D01*
X638740Y317831D01*
X638748Y317837D01*
G37*
G36*
X510248Y30911D02*
X510248Y30911D01*
X510260Y30924D01*
X510271Y30922D01*
X510771Y31322D01*
X510773Y31332D01*
X510781Y31333D01*
X511181Y31933D01*
X511181Y31938D01*
X511184Y31939D01*
X514384Y38539D01*
X514384Y38540D01*
X514385Y38541D01*
X514685Y39241D01*
X514679Y39267D01*
X514686Y39278D01*
X514486Y39778D01*
X514471Y39787D01*
X514472Y39798D01*
X513872Y40298D01*
X513858Y40298D01*
X513856Y40307D01*
X513256Y40507D01*
X513235Y40500D01*
X513224Y40507D01*
X512624Y40307D01*
X512609Y40284D01*
X512596Y40281D01*
X509717Y34227D01*
X509578Y34296D01*
X507285Y39580D01*
X507278Y39584D01*
X507279Y39590D01*
X506979Y39990D01*
X506974Y39991D01*
X506975Y39995D01*
X506475Y40495D01*
X506442Y40499D01*
X506432Y40509D01*
X505832Y40409D01*
X505823Y40399D01*
X505816Y40403D01*
X505116Y40003D01*
X505109Y39987D01*
X505098Y39985D01*
X504798Y39485D01*
X504801Y39456D01*
X504793Y39444D01*
X504993Y38844D01*
X504998Y38842D01*
X504996Y38838D01*
X508596Y31538D01*
X508603Y31535D01*
X508602Y31529D01*
X509002Y31029D01*
X509021Y31024D01*
X509024Y31013D01*
X509624Y30813D01*
X509640Y30819D01*
X509648Y30811D01*
X510248Y30911D01*
G37*
%LPC*%
G36*
X192547Y211249D02*
X192547Y211249D01*
X191863Y211445D01*
X191371Y211838D01*
X191367Y211839D01*
X191367Y211841D01*
X190771Y212238D01*
X190379Y212631D01*
X190089Y213114D01*
X190089Y213585D01*
X190474Y214162D01*
X191047Y214448D01*
X191520Y214354D01*
X192210Y213861D01*
X192709Y213462D01*
X192723Y213461D01*
X192726Y213453D01*
X193426Y213253D01*
X193444Y213260D01*
X193454Y213253D01*
X194154Y213453D01*
X194164Y213467D01*
X194175Y213465D01*
X194575Y213865D01*
X194579Y213892D01*
X194589Y213900D01*
X194589Y214600D01*
X194564Y214633D01*
X194562Y214644D01*
X193962Y214944D01*
X193956Y214943D01*
X193954Y214947D01*
X192654Y215347D01*
X191958Y215546D01*
X191367Y215842D01*
X190875Y216235D01*
X190484Y216724D01*
X190288Y217311D01*
X190189Y218003D01*
X190189Y218692D01*
X190385Y219278D01*
X190778Y219869D01*
X191175Y220265D01*
X191183Y220324D01*
X191181Y220324D01*
X191182Y220326D01*
X190742Y221029D01*
X191200Y220372D01*
X191256Y220353D01*
X191258Y220361D01*
X191265Y220358D01*
X191761Y220655D01*
X192351Y220852D01*
X193143Y220951D01*
X193832Y220951D01*
X194424Y220753D01*
X194427Y220754D01*
X194428Y220752D01*
X195218Y220555D01*
X195610Y220261D01*
X196191Y219777D01*
X196191Y219313D01*
X195802Y218633D01*
X195323Y218249D01*
X194853Y218249D01*
X194165Y218643D01*
X193665Y218942D01*
X193643Y218940D01*
X193634Y218949D01*
X192834Y218849D01*
X192818Y218833D01*
X192805Y218835D01*
X192405Y218435D01*
X192404Y218424D01*
X192401Y218422D01*
X192403Y218419D01*
X192401Y218403D01*
X192391Y218393D01*
X192491Y217693D01*
X192513Y217671D01*
X192515Y217658D01*
X193015Y217358D01*
X193023Y217359D01*
X193026Y217353D01*
X194326Y216953D01*
X195025Y216753D01*
X195618Y216555D01*
X196205Y216165D01*
X196595Y215578D01*
X196791Y214992D01*
X196791Y213608D01*
X196595Y213022D01*
X196202Y212431D01*
X195711Y211941D01*
X194525Y211347D01*
X193936Y211249D01*
X192547Y211249D01*
G37*
%LPD*%
%LPC*%
G36*
X211643Y211249D02*
X211643Y211249D01*
X210975Y211345D01*
X210788Y211813D01*
X210689Y212503D01*
X210689Y219297D01*
X210788Y219987D01*
X210977Y220459D01*
X211647Y220651D01*
X217232Y220651D01*
X217805Y220460D01*
X218091Y219888D01*
X218091Y219200D01*
X218127Y219153D01*
X218135Y219159D01*
X218142Y219151D01*
X218164Y219152D01*
X218135Y219149D01*
X218111Y219127D01*
X218098Y219125D01*
X217807Y218641D01*
X217232Y218449D01*
X213140Y218449D01*
X213102Y218420D01*
X213094Y218418D01*
X212894Y217918D01*
X212898Y217905D01*
X212891Y217900D01*
X212891Y217200D01*
X212927Y217153D01*
X212930Y217155D01*
X212932Y217151D01*
X213532Y217051D01*
X213537Y217054D01*
X213540Y217051D01*
X215537Y217051D01*
X216210Y216955D01*
X216492Y216484D01*
X216590Y215704D01*
X216399Y215034D01*
X216026Y214848D01*
X215237Y214749D01*
X213240Y214749D01*
X213214Y214730D01*
X213201Y214730D01*
X212901Y214330D01*
X212901Y214308D01*
X212891Y214300D01*
X212891Y211620D01*
X212520Y211249D01*
X211643Y211249D01*
G37*
%LPD*%
G36*
X361781Y314099D02*
X361781Y314099D01*
X361788Y314094D01*
X362288Y314294D01*
X362302Y314317D01*
X362315Y314321D01*
X362615Y315021D01*
X362612Y315034D01*
X362619Y315040D01*
X362619Y316140D01*
X362607Y316156D01*
X362611Y316167D01*
X362211Y316767D01*
X362183Y316777D01*
X362176Y316789D01*
X361398Y316886D01*
X361019Y317455D01*
X361019Y325940D01*
X361007Y325956D01*
X361011Y325967D01*
X360611Y326567D01*
X360587Y326576D01*
X360582Y326588D01*
X359782Y326788D01*
X359771Y326783D01*
X359766Y326789D01*
X358666Y326689D01*
X358645Y326670D01*
X358632Y326671D01*
X358232Y326171D01*
X358231Y326152D01*
X358221Y326146D01*
X358121Y325346D01*
X358123Y325342D01*
X358121Y325340D01*
X358121Y316640D01*
X358126Y316633D01*
X358122Y316628D01*
X358322Y315828D01*
X358323Y315827D01*
X358323Y315826D01*
X358523Y315126D01*
X358534Y315118D01*
X358532Y315109D01*
X358932Y314609D01*
X358950Y314605D01*
X358953Y314594D01*
X359753Y314294D01*
X359759Y314296D01*
X359761Y314292D01*
X360861Y314092D01*
X360867Y314095D01*
X360870Y314091D01*
X361770Y314091D01*
X361781Y314099D01*
G37*
G36*
X610708Y187957D02*
X610708Y187957D01*
X610714Y187953D01*
X611414Y188153D01*
X611419Y188160D01*
X611425Y188158D01*
X611925Y188458D01*
X611929Y188466D01*
X611935Y188465D01*
X612235Y188765D01*
X612239Y188792D01*
X612249Y188800D01*
X612249Y189300D01*
X612241Y189311D01*
X612245Y189319D01*
X611945Y190019D01*
X611924Y190031D01*
X611922Y190044D01*
X611322Y190344D01*
X611296Y190339D01*
X611284Y190347D01*
X610092Y189949D01*
X609407Y189949D01*
X608729Y190143D01*
X608377Y190583D01*
X608722Y190756D01*
X608738Y190787D01*
X608746Y190794D01*
X608743Y190798D01*
X608747Y190806D01*
X608748Y190807D01*
X608752Y190788D01*
X608799Y190751D01*
X608799Y190752D01*
X608800Y190751D01*
X611500Y190751D01*
X611510Y190758D01*
X611515Y190758D01*
X611516Y190759D01*
X611522Y190756D01*
X612122Y191056D01*
X612125Y191063D01*
X612131Y191062D01*
X612631Y191462D01*
X612635Y191477D01*
X612643Y191483D01*
X612638Y191490D01*
X612638Y191492D01*
X612649Y191500D01*
X612649Y192300D01*
X612646Y192304D01*
X612649Y192307D01*
X612549Y193007D01*
X612544Y193012D01*
X612547Y193016D01*
X612347Y193616D01*
X612336Y193623D01*
X612338Y193631D01*
X611938Y194131D01*
X611934Y194132D01*
X611935Y194135D01*
X611435Y194635D01*
X611423Y194636D01*
X611422Y194644D01*
X610822Y194944D01*
X610812Y194942D01*
X610810Y194944D01*
X610809Y194944D01*
X610807Y194949D01*
X609407Y195149D01*
X609398Y195144D01*
X609393Y195149D01*
X608693Y195049D01*
X608689Y195045D01*
X608686Y195047D01*
X607986Y194847D01*
X607982Y194842D01*
X607978Y194844D01*
X607378Y194544D01*
X607375Y194537D01*
X607369Y194538D01*
X606869Y194138D01*
X606868Y194134D01*
X606865Y194135D01*
X606465Y193735D01*
X606464Y193728D01*
X606459Y193727D01*
X606059Y193127D01*
X606060Y193118D01*
X606053Y193116D01*
X605853Y192516D01*
X605855Y192509D01*
X605851Y192507D01*
X605751Y191807D01*
X605754Y191802D01*
X605751Y191800D01*
X605751Y191100D01*
X605757Y191092D01*
X605753Y191086D01*
X605953Y190386D01*
X605954Y190385D01*
X605953Y190384D01*
X606153Y189784D01*
X606161Y189779D01*
X606159Y189773D01*
X606559Y189173D01*
X606562Y189172D01*
X606562Y189169D01*
X606962Y188669D01*
X606972Y188667D01*
X606973Y188659D01*
X607573Y188259D01*
X607582Y188260D01*
X607584Y188253D01*
X608184Y188053D01*
X608191Y188055D01*
X608193Y188051D01*
X608893Y187951D01*
X608898Y187954D01*
X608900Y187951D01*
X610700Y187951D01*
X610708Y187957D01*
G37*
G36*
X635808Y187957D02*
X635808Y187957D01*
X635814Y187953D01*
X636514Y188153D01*
X636519Y188160D01*
X636525Y188158D01*
X637025Y188458D01*
X637029Y188466D01*
X637035Y188465D01*
X637335Y188765D01*
X637339Y188792D01*
X637349Y188800D01*
X637349Y189300D01*
X637341Y189311D01*
X637345Y189319D01*
X637045Y190019D01*
X637027Y190030D01*
X637025Y190042D01*
X636525Y190342D01*
X636497Y190339D01*
X636486Y190347D01*
X635786Y190147D01*
X635785Y190146D01*
X635784Y190147D01*
X635192Y189949D01*
X634507Y189949D01*
X633829Y190143D01*
X633480Y190579D01*
X633909Y190751D01*
X636600Y190751D01*
X636610Y190758D01*
X636615Y190758D01*
X636616Y190759D01*
X636622Y190756D01*
X637222Y191056D01*
X637225Y191063D01*
X637231Y191062D01*
X637731Y191462D01*
X637735Y191477D01*
X637743Y191483D01*
X637738Y191490D01*
X637738Y191492D01*
X637749Y191500D01*
X637749Y192300D01*
X637746Y192304D01*
X637749Y192307D01*
X637649Y193007D01*
X637644Y193012D01*
X637647Y193016D01*
X637447Y193616D01*
X637436Y193623D01*
X637438Y193631D01*
X637038Y194131D01*
X637034Y194132D01*
X637035Y194135D01*
X636535Y194635D01*
X636523Y194636D01*
X636522Y194644D01*
X635922Y194944D01*
X635912Y194942D01*
X635911Y194943D01*
X635908Y194949D01*
X635308Y195049D01*
X635307Y195048D01*
X635306Y195049D01*
X634506Y195149D01*
X634498Y195144D01*
X634493Y195149D01*
X633793Y195049D01*
X633788Y195044D01*
X633784Y195047D01*
X633184Y194847D01*
X633181Y194842D01*
X633178Y194844D01*
X632578Y194544D01*
X632576Y194540D01*
X632573Y194541D01*
X631973Y194141D01*
X631970Y194134D01*
X631965Y194135D01*
X631565Y193735D01*
X631564Y193723D01*
X631556Y193722D01*
X630956Y192522D01*
X630958Y192511D01*
X630951Y192507D01*
X630851Y191807D01*
X630856Y191798D01*
X630851Y191793D01*
X631051Y190393D01*
X631056Y190388D01*
X631053Y190384D01*
X631253Y189784D01*
X631261Y189779D01*
X631259Y189773D01*
X631659Y189173D01*
X631662Y189172D01*
X631662Y189169D01*
X632062Y188669D01*
X632072Y188667D01*
X632073Y188659D01*
X632673Y188259D01*
X632682Y188260D01*
X632684Y188253D01*
X633284Y188053D01*
X633291Y188055D01*
X633293Y188051D01*
X633993Y187951D01*
X633998Y187954D01*
X634000Y187951D01*
X635800Y187951D01*
X635808Y187957D01*
G37*
G36*
X613548Y317837D02*
X613548Y317837D01*
X613554Y317833D01*
X614254Y318033D01*
X614258Y318038D01*
X614262Y318036D01*
X614862Y318336D01*
X614870Y318352D01*
X614881Y318353D01*
X615081Y318653D01*
X615080Y318666D01*
X615088Y318670D01*
X615188Y319170D01*
X615178Y319192D01*
X615183Y319204D01*
X614783Y319904D01*
X614767Y319911D01*
X614765Y319922D01*
X614265Y320222D01*
X614237Y320219D01*
X614226Y320227D01*
X613526Y320027D01*
X613525Y320026D01*
X613524Y320027D01*
X612932Y319829D01*
X612248Y319829D01*
X611667Y320023D01*
X611228Y320462D01*
X611649Y320631D01*
X614340Y320631D01*
X614350Y320638D01*
X614355Y320638D01*
X614356Y320639D01*
X614362Y320636D01*
X614962Y320936D01*
X614965Y320943D01*
X614971Y320942D01*
X615471Y321342D01*
X615475Y321357D01*
X615483Y321363D01*
X615478Y321370D01*
X615478Y321372D01*
X615489Y321380D01*
X615489Y322180D01*
X615486Y322184D01*
X615489Y322187D01*
X615389Y322887D01*
X615384Y322892D01*
X615387Y322896D01*
X615187Y323496D01*
X615176Y323503D01*
X615178Y323511D01*
X614778Y324011D01*
X614774Y324012D01*
X614775Y324015D01*
X614275Y324515D01*
X614263Y324516D01*
X614262Y324524D01*
X613662Y324824D01*
X613652Y324822D01*
X613651Y324823D01*
X613648Y324829D01*
X613048Y324929D01*
X613047Y324928D01*
X613046Y324929D01*
X612246Y325029D01*
X612238Y325024D01*
X612233Y325029D01*
X611533Y324929D01*
X611528Y324924D01*
X611524Y324927D01*
X610924Y324727D01*
X610921Y324722D01*
X610918Y324724D01*
X610318Y324424D01*
X610315Y324417D01*
X610309Y324418D01*
X609309Y323618D01*
X609306Y323604D01*
X609296Y323602D01*
X608996Y323002D01*
X608997Y322997D01*
X608993Y322996D01*
X608793Y322396D01*
X608795Y322389D01*
X608791Y322387D01*
X608691Y321687D01*
X608694Y321682D01*
X608691Y321680D01*
X608691Y320980D01*
X608694Y320976D01*
X608691Y320973D01*
X608791Y320273D01*
X608796Y320268D01*
X608793Y320264D01*
X608993Y319664D01*
X609001Y319659D01*
X608999Y319653D01*
X609399Y319053D01*
X609402Y319052D01*
X609402Y319049D01*
X609802Y318549D01*
X609812Y318547D01*
X609813Y318539D01*
X610413Y318139D01*
X610424Y318140D01*
X610426Y318133D01*
X611126Y317933D01*
X611130Y317934D01*
X611132Y317931D01*
X611732Y317831D01*
X611737Y317834D01*
X611740Y317831D01*
X613540Y317831D01*
X613548Y317837D01*
G37*
G36*
X628258Y317844D02*
X628258Y317844D01*
X628270Y317841D01*
X628670Y318141D01*
X628674Y318157D01*
X628681Y318162D01*
X628681Y318163D01*
X628687Y318164D01*
X628887Y318764D01*
X628883Y318775D01*
X628889Y318780D01*
X628889Y321468D01*
X629177Y322043D01*
X629752Y322331D01*
X630423Y322331D01*
X630897Y321951D01*
X631091Y321273D01*
X631091Y318580D01*
X631099Y318569D01*
X631094Y318562D01*
X631294Y318062D01*
X631320Y318046D01*
X631324Y318033D01*
X631924Y317833D01*
X631935Y317837D01*
X631940Y317831D01*
X632840Y317831D01*
X632858Y317845D01*
X632871Y317842D01*
X633371Y318242D01*
X633375Y318257D01*
X633380Y318261D01*
X633377Y318265D01*
X633377Y318266D01*
X633389Y318272D01*
X633489Y318872D01*
X633486Y318877D01*
X633489Y318880D01*
X633489Y321680D01*
X633482Y321689D01*
X633487Y321696D01*
X633287Y322295D01*
X633087Y322994D01*
X633080Y322999D01*
X633082Y323005D01*
X632782Y323505D01*
X632774Y323509D01*
X632775Y323515D01*
X632275Y324015D01*
X632268Y324016D01*
X632267Y324021D01*
X631667Y324421D01*
X631658Y324420D01*
X631656Y324427D01*
X631056Y324627D01*
X631049Y324625D01*
X631047Y324629D01*
X630347Y324729D01*
X630342Y324726D01*
X630336Y324726D01*
X630333Y324729D01*
X629633Y324629D01*
X629620Y324616D01*
X629609Y324618D01*
X629118Y324225D01*
X628763Y324137D01*
X628482Y324605D01*
X628454Y324617D01*
X628447Y324629D01*
X627747Y324729D01*
X627742Y324726D01*
X627737Y324726D01*
X627734Y324729D01*
X626934Y324629D01*
X626918Y324613D01*
X626905Y324615D01*
X626505Y324215D01*
X626504Y324203D01*
X626497Y324197D01*
X626502Y324190D01*
X626502Y324188D01*
X626491Y324180D01*
X626491Y318680D01*
X626498Y318671D01*
X626493Y318664D01*
X626693Y318064D01*
X626720Y318046D01*
X626724Y318033D01*
X627324Y317833D01*
X627335Y317837D01*
X627340Y317831D01*
X628240Y317831D01*
X628258Y317844D01*
G37*
G36*
X594258Y317844D02*
X594258Y317844D01*
X594270Y317841D01*
X594670Y318141D01*
X594674Y318157D01*
X594681Y318162D01*
X594681Y318163D01*
X594687Y318164D01*
X594887Y318764D01*
X594883Y318775D01*
X594889Y318780D01*
X594889Y321468D01*
X595177Y322043D01*
X595752Y322331D01*
X596423Y322331D01*
X596897Y321951D01*
X597091Y321273D01*
X597091Y318580D01*
X597099Y318569D01*
X597094Y318562D01*
X597294Y318062D01*
X597320Y318046D01*
X597324Y318033D01*
X597924Y317833D01*
X597935Y317837D01*
X597940Y317831D01*
X598840Y317831D01*
X598861Y317847D01*
X598875Y317845D01*
X599275Y318245D01*
X599276Y318257D01*
X599281Y318261D01*
X599280Y318262D01*
X599287Y318264D01*
X599487Y318864D01*
X599483Y318875D01*
X599489Y318880D01*
X599489Y321680D01*
X599482Y321689D01*
X599487Y321696D01*
X599287Y322295D01*
X599087Y322994D01*
X599080Y322999D01*
X599082Y323005D01*
X598782Y323505D01*
X598774Y323509D01*
X598775Y323515D01*
X598275Y324015D01*
X598268Y324016D01*
X598267Y324021D01*
X597667Y324421D01*
X597658Y324420D01*
X597656Y324427D01*
X597056Y324627D01*
X597049Y324625D01*
X597047Y324629D01*
X596347Y324729D01*
X596342Y324726D01*
X596336Y324726D01*
X596333Y324729D01*
X595633Y324629D01*
X595620Y324616D01*
X595609Y324618D01*
X595118Y324225D01*
X594763Y324137D01*
X594482Y324605D01*
X594454Y324617D01*
X594447Y324629D01*
X593747Y324729D01*
X593742Y324726D01*
X593737Y324726D01*
X593734Y324729D01*
X592934Y324629D01*
X592918Y324613D01*
X592905Y324615D01*
X592505Y324215D01*
X592504Y324203D01*
X592497Y324197D01*
X592502Y324190D01*
X592502Y324188D01*
X592491Y324180D01*
X592491Y318680D01*
X592498Y318671D01*
X592493Y318664D01*
X592693Y318064D01*
X592720Y318046D01*
X592724Y318033D01*
X593324Y317833D01*
X593335Y317837D01*
X593340Y317831D01*
X594240Y317831D01*
X594258Y317844D01*
G37*
G36*
X616518Y187964D02*
X616518Y187964D01*
X616530Y187961D01*
X616930Y188261D01*
X616934Y188277D01*
X616941Y188282D01*
X616938Y188286D01*
X616949Y188292D01*
X617049Y188892D01*
X617046Y188897D01*
X617049Y188900D01*
X617049Y190996D01*
X617147Y191585D01*
X617437Y192163D01*
X618012Y192451D01*
X618683Y192451D01*
X619154Y192074D01*
X619251Y191397D01*
X619251Y189400D01*
X619254Y189396D01*
X619251Y189393D01*
X619351Y188693D01*
X619357Y188687D01*
X619354Y188682D01*
X619554Y188182D01*
X619580Y188166D01*
X619584Y188153D01*
X620184Y187953D01*
X620195Y187957D01*
X620200Y187951D01*
X621100Y187951D01*
X621121Y187967D01*
X621135Y187965D01*
X621535Y188365D01*
X621536Y188377D01*
X621541Y188381D01*
X621540Y188382D01*
X621547Y188384D01*
X621747Y188984D01*
X621743Y188996D01*
X621749Y189002D01*
X621649Y191802D01*
X621646Y191806D01*
X621649Y191808D01*
X621549Y192408D01*
X621545Y192411D01*
X621547Y192414D01*
X621347Y193114D01*
X621336Y193122D01*
X621338Y193131D01*
X620538Y194131D01*
X620528Y194133D01*
X620527Y194141D01*
X619927Y194541D01*
X619918Y194540D01*
X619916Y194547D01*
X619316Y194747D01*
X619309Y194745D01*
X619307Y194749D01*
X618607Y194849D01*
X618602Y194846D01*
X618596Y194846D01*
X618593Y194849D01*
X617893Y194749D01*
X617880Y194736D01*
X617869Y194738D01*
X617378Y194345D01*
X617023Y194257D01*
X616742Y194725D01*
X616714Y194737D01*
X616707Y194749D01*
X616007Y194849D01*
X616002Y194846D01*
X615997Y194846D01*
X615994Y194849D01*
X615194Y194749D01*
X615178Y194733D01*
X615165Y194735D01*
X614765Y194335D01*
X614764Y194323D01*
X614757Y194317D01*
X614762Y194310D01*
X614762Y194308D01*
X614751Y194300D01*
X614751Y188800D01*
X614758Y188791D01*
X614753Y188784D01*
X614953Y188184D01*
X614978Y188167D01*
X614982Y188154D01*
X615482Y187954D01*
X615495Y187958D01*
X615500Y187951D01*
X616500Y187951D01*
X616518Y187964D01*
G37*
G36*
X585104Y187954D02*
X585104Y187954D01*
X585107Y187951D01*
X585807Y188051D01*
X585818Y188062D01*
X585827Y188059D01*
X586422Y188455D01*
X586672Y188539D01*
X586854Y188082D01*
X586887Y188062D01*
X586893Y188051D01*
X587593Y187951D01*
X587598Y187954D01*
X587600Y187951D01*
X588500Y187951D01*
X588525Y187970D01*
X588538Y187969D01*
X588938Y188469D01*
X588939Y188477D01*
X588941Y188479D01*
X588939Y188483D01*
X588939Y188492D01*
X588949Y188500D01*
X588949Y193900D01*
X588946Y193905D01*
X588949Y193908D01*
X588849Y194508D01*
X588827Y194529D01*
X588825Y194542D01*
X588325Y194842D01*
X588310Y194841D01*
X588306Y194846D01*
X588303Y194846D01*
X588300Y194849D01*
X587400Y194849D01*
X587395Y194846D01*
X587393Y194846D01*
X587386Y194840D01*
X587378Y194844D01*
X586778Y194544D01*
X586768Y194525D01*
X586763Y194521D01*
X586754Y194518D01*
X586554Y194018D01*
X586558Y194005D01*
X586551Y194000D01*
X586551Y191208D01*
X586360Y190635D01*
X585788Y190349D01*
X585117Y190349D01*
X584639Y190732D01*
X584349Y191312D01*
X584349Y194100D01*
X584341Y194111D01*
X584346Y194118D01*
X584146Y194618D01*
X584120Y194634D01*
X584116Y194647D01*
X583516Y194847D01*
X583511Y194845D01*
X583511Y194846D01*
X583498Y194846D01*
X583495Y194849D01*
X582595Y194749D01*
X582581Y194736D01*
X582570Y194739D01*
X582170Y194439D01*
X582166Y194423D01*
X582156Y194416D01*
X582159Y194412D01*
X582151Y194408D01*
X582051Y193808D01*
X582054Y193803D01*
X582051Y193800D01*
X582051Y191000D01*
X582054Y190996D01*
X582051Y190993D01*
X582151Y190293D01*
X582159Y190285D01*
X582156Y190278D01*
X582756Y189078D01*
X582766Y189073D01*
X582765Y189065D01*
X583265Y188565D01*
X583274Y188564D01*
X583275Y188558D01*
X583775Y188258D01*
X583778Y188258D01*
X583778Y188256D01*
X584378Y187956D01*
X584394Y187959D01*
X584400Y187951D01*
X585100Y187951D01*
X585104Y187954D01*
G37*
G36*
X619358Y317844D02*
X619358Y317844D01*
X619370Y317841D01*
X619770Y318141D01*
X619774Y318157D01*
X619781Y318162D01*
X619781Y318163D01*
X619787Y318164D01*
X619987Y318764D01*
X619983Y318775D01*
X619989Y318780D01*
X619989Y321468D01*
X620277Y322043D01*
X620852Y322331D01*
X621523Y322331D01*
X621997Y321951D01*
X622191Y321273D01*
X622191Y318580D01*
X622199Y318569D01*
X622194Y318562D01*
X622394Y318062D01*
X622422Y318045D01*
X622426Y318033D01*
X623126Y317833D01*
X623136Y317836D01*
X623140Y317831D01*
X623940Y317831D01*
X623958Y317845D01*
X623971Y317842D01*
X624471Y318242D01*
X624475Y318257D01*
X624480Y318261D01*
X624477Y318265D01*
X624477Y318266D01*
X624489Y318272D01*
X624589Y318872D01*
X624586Y318877D01*
X624589Y318880D01*
X624589Y321680D01*
X624586Y321685D01*
X624589Y321688D01*
X624489Y322288D01*
X624482Y322294D01*
X624485Y322299D01*
X624185Y322999D01*
X624181Y323002D01*
X624182Y323005D01*
X623882Y323505D01*
X623874Y323509D01*
X623875Y323515D01*
X623375Y324015D01*
X623368Y324016D01*
X623367Y324021D01*
X622767Y324421D01*
X622758Y324420D01*
X622756Y324427D01*
X622156Y324627D01*
X622149Y324625D01*
X622147Y324629D01*
X621447Y324729D01*
X621442Y324726D01*
X621435Y324726D01*
X621432Y324729D01*
X620832Y324629D01*
X620822Y324618D01*
X620813Y324621D01*
X620218Y324225D01*
X619962Y324139D01*
X619682Y324605D01*
X619653Y324617D01*
X619646Y324629D01*
X618846Y324729D01*
X618841Y324726D01*
X618837Y324726D01*
X618834Y324729D01*
X618034Y324629D01*
X618014Y324610D01*
X618001Y324610D01*
X617701Y324210D01*
X617701Y324201D01*
X617696Y324197D01*
X617701Y324191D01*
X617701Y324188D01*
X617691Y324180D01*
X617691Y318680D01*
X617694Y318675D01*
X617691Y318672D01*
X617791Y318072D01*
X617821Y318044D01*
X617824Y318033D01*
X618424Y317833D01*
X618435Y317837D01*
X618440Y317831D01*
X619340Y317831D01*
X619358Y317844D01*
G37*
G36*
X83575Y221365D02*
X83575Y221365D01*
X83577Y221367D01*
X83578Y221366D01*
X84249Y221601D01*
X84250Y221602D01*
X84251Y221602D01*
X84853Y221980D01*
X84854Y221982D01*
X84856Y221982D01*
X85358Y222484D01*
X85358Y222486D01*
X85360Y222487D01*
X85738Y223089D01*
X85738Y223090D01*
X85739Y223091D01*
X85974Y223762D01*
X85974Y223764D01*
X85975Y223765D01*
X86054Y224471D01*
X86054Y224472D01*
X86053Y224473D01*
X86054Y224474D01*
X85975Y225180D01*
X85973Y225182D01*
X85974Y225183D01*
X85739Y225854D01*
X85738Y225855D01*
X85738Y225856D01*
X85360Y226458D01*
X85358Y226459D01*
X85358Y226461D01*
X84856Y226963D01*
X84854Y226963D01*
X84853Y226965D01*
X84251Y227343D01*
X84250Y227343D01*
X84249Y227344D01*
X83578Y227579D01*
X83576Y227579D01*
X83575Y227580D01*
X82869Y227659D01*
X82867Y227658D01*
X82866Y227659D01*
X82160Y227580D01*
X82158Y227578D01*
X82157Y227579D01*
X81486Y227344D01*
X81485Y227343D01*
X81484Y227343D01*
X80882Y226965D01*
X80881Y226963D01*
X80879Y226963D01*
X80377Y226461D01*
X80377Y226459D01*
X80375Y226458D01*
X79997Y225856D01*
X79997Y225855D01*
X79996Y225854D01*
X79761Y225183D01*
X79762Y225181D01*
X79760Y225180D01*
X79681Y224474D01*
X79682Y224472D01*
X79681Y224471D01*
X79760Y223765D01*
X79762Y223763D01*
X79761Y223762D01*
X79996Y223091D01*
X79997Y223090D01*
X79997Y223089D01*
X80375Y222487D01*
X80377Y222486D01*
X80377Y222484D01*
X80879Y221982D01*
X80881Y221982D01*
X80882Y221980D01*
X81484Y221602D01*
X81485Y221602D01*
X81486Y221601D01*
X82157Y221366D01*
X82159Y221367D01*
X82160Y221365D01*
X82866Y221286D01*
X82868Y221287D01*
X82869Y221286D01*
X83575Y221365D01*
G37*
%LPC*%
G36*
X265948Y211249D02*
X265948Y211249D01*
X265384Y211437D01*
X265289Y212004D01*
X265289Y218200D01*
X265286Y218205D01*
X265289Y218208D01*
X265189Y218808D01*
X265145Y218849D01*
X265143Y218846D01*
X265140Y218849D01*
X262452Y218849D01*
X261885Y219133D01*
X261790Y219797D01*
X261981Y220463D01*
X262449Y220651D01*
X270226Y220651D01*
X270695Y220370D01*
X270790Y219799D01*
X270695Y219130D01*
X270226Y218849D01*
X267440Y218849D01*
X267393Y218813D01*
X267398Y218806D01*
X267391Y218800D01*
X267391Y212008D01*
X267201Y211439D01*
X266632Y211249D01*
X265948Y211249D01*
G37*
%LPD*%
%LPC*%
G36*
X206657Y211249D02*
X206657Y211249D01*
X206180Y211631D01*
X205585Y212921D01*
X205574Y212927D01*
X205575Y212935D01*
X205180Y213329D01*
X204189Y215212D01*
X204189Y215600D01*
X204181Y215610D01*
X204186Y215618D01*
X203686Y216918D01*
X203664Y216931D01*
X203662Y216944D01*
X203462Y217044D01*
X203404Y217033D01*
X203406Y217021D01*
X203394Y217018D01*
X202894Y215718D01*
X202895Y215715D01*
X202892Y215713D01*
X202894Y215711D01*
X202892Y215710D01*
X202799Y215248D01*
X200109Y215158D01*
X202582Y220173D01*
X202966Y220654D01*
X203635Y220750D01*
X204211Y220558D01*
X204598Y220074D01*
X207796Y213379D01*
X207798Y213378D01*
X207797Y213376D01*
X208193Y212683D01*
X208288Y212114D01*
X207907Y211638D01*
X207227Y211249D01*
X206657Y211249D01*
G37*
%LPD*%
G36*
X627921Y187967D02*
X627921Y187967D01*
X627935Y187965D01*
X628335Y188365D01*
X628336Y188377D01*
X628341Y188381D01*
X628338Y188386D01*
X628338Y188387D01*
X628349Y188393D01*
X628449Y189093D01*
X628444Y189102D01*
X628449Y189107D01*
X628349Y189807D01*
X628327Y189829D01*
X628325Y189842D01*
X627825Y190142D01*
X627811Y190141D01*
X627807Y190149D01*
X627130Y190245D01*
X626849Y190714D01*
X626849Y191996D01*
X626941Y192544D01*
X627593Y192451D01*
X627602Y192456D01*
X627607Y192451D01*
X628307Y192551D01*
X628319Y192564D01*
X628330Y192561D01*
X628730Y192861D01*
X628737Y192888D01*
X628749Y192895D01*
X628849Y193795D01*
X628842Y193806D01*
X628847Y193814D01*
X628647Y194514D01*
X628627Y194529D01*
X628625Y194542D01*
X628125Y194842D01*
X628110Y194841D01*
X628106Y194846D01*
X628103Y194846D01*
X628100Y194849D01*
X627500Y194849D01*
X627496Y194846D01*
X627493Y194849D01*
X626849Y194757D01*
X626849Y196100D01*
X626846Y196105D01*
X626849Y196108D01*
X626749Y196708D01*
X626733Y196723D01*
X626735Y196735D01*
X626335Y197135D01*
X626312Y197138D01*
X626305Y197149D01*
X625405Y197249D01*
X625392Y197241D01*
X625384Y197247D01*
X624784Y197047D01*
X624767Y197022D01*
X624754Y197018D01*
X624554Y196518D01*
X624558Y196505D01*
X624551Y196500D01*
X624551Y195120D01*
X624274Y194844D01*
X623586Y194647D01*
X623571Y194627D01*
X623563Y194621D01*
X623554Y194618D01*
X623354Y194118D01*
X623358Y194105D01*
X623351Y194100D01*
X623351Y193300D01*
X623354Y193295D01*
X623351Y193292D01*
X623451Y192692D01*
X623480Y192665D01*
X623483Y192654D01*
X624551Y192266D01*
X624551Y190200D01*
X624554Y190196D01*
X624551Y190193D01*
X624651Y189493D01*
X624656Y189488D01*
X624653Y189484D01*
X624853Y188884D01*
X624867Y188875D01*
X624865Y188865D01*
X625265Y188465D01*
X625274Y188464D01*
X625275Y188458D01*
X625775Y188158D01*
X625783Y188159D01*
X625784Y188153D01*
X626384Y187953D01*
X626395Y187957D01*
X626400Y187951D01*
X627900Y187951D01*
X627921Y187967D01*
G37*
G36*
X605661Y317847D02*
X605661Y317847D01*
X605675Y317845D01*
X606075Y318245D01*
X606076Y318257D01*
X606081Y318261D01*
X606078Y318266D01*
X606078Y318267D01*
X606089Y318273D01*
X606189Y318973D01*
X606184Y318982D01*
X606189Y318987D01*
X606089Y319687D01*
X606067Y319709D01*
X606065Y319722D01*
X605565Y320022D01*
X605551Y320021D01*
X605547Y320029D01*
X604870Y320125D01*
X604589Y320594D01*
X604589Y321872D01*
X604773Y322425D01*
X605332Y322331D01*
X605342Y322337D01*
X605347Y322331D01*
X606047Y322431D01*
X606059Y322444D01*
X606070Y322441D01*
X606470Y322741D01*
X606477Y322768D01*
X606489Y322775D01*
X606589Y323675D01*
X606582Y323686D01*
X606587Y323694D01*
X606387Y324394D01*
X606367Y324409D01*
X606365Y324422D01*
X605865Y324722D01*
X605850Y324721D01*
X605846Y324726D01*
X605843Y324726D01*
X605840Y324729D01*
X605240Y324729D01*
X605236Y324726D01*
X605233Y324729D01*
X604589Y324637D01*
X604589Y325980D01*
X604586Y325985D01*
X604589Y325988D01*
X604489Y326588D01*
X604473Y326603D01*
X604475Y326615D01*
X604075Y327015D01*
X604052Y327018D01*
X604046Y327029D01*
X603246Y327129D01*
X603234Y327122D01*
X603226Y327127D01*
X602526Y326927D01*
X602507Y326902D01*
X602494Y326898D01*
X602294Y326398D01*
X602298Y326385D01*
X602291Y326380D01*
X602291Y325000D01*
X602013Y324723D01*
X601424Y324527D01*
X601411Y324507D01*
X601398Y324505D01*
X601098Y324005D01*
X601098Y324001D01*
X601097Y324000D01*
X601099Y323998D01*
X601100Y323987D01*
X601091Y323980D01*
X601091Y323180D01*
X601094Y323175D01*
X601091Y323172D01*
X601191Y322572D01*
X601220Y322545D01*
X601223Y322534D01*
X602291Y322146D01*
X602291Y320080D01*
X602294Y320076D01*
X602291Y320073D01*
X602391Y319373D01*
X602399Y319365D01*
X602396Y319358D01*
X602696Y318758D01*
X602702Y318755D01*
X602701Y318750D01*
X603001Y318350D01*
X603014Y318347D01*
X603015Y318338D01*
X603515Y318038D01*
X603524Y318039D01*
X603526Y318033D01*
X604226Y317833D01*
X604236Y317836D01*
X604240Y317831D01*
X605640Y317831D01*
X605661Y317847D01*
G37*
%LPC*%
G36*
X345053Y295499D02*
X345053Y295499D01*
X344367Y295892D01*
X343672Y296388D01*
X343075Y296985D01*
X343068Y296986D01*
X343067Y296991D01*
X342789Y297176D01*
X342789Y298845D01*
X342986Y299732D01*
X343381Y300422D01*
X343873Y301012D01*
X344663Y301506D01*
X345350Y301801D01*
X346230Y301801D01*
X346917Y301506D01*
X347707Y301012D01*
X348199Y300422D01*
X348592Y299734D01*
X348691Y298847D01*
X348691Y297956D01*
X348494Y297171D01*
X348004Y296484D01*
X347413Y295992D01*
X346626Y295598D01*
X345837Y295499D01*
X345053Y295499D01*
G37*
%LPD*%
G36*
X601704Y187954D02*
X601704Y187954D01*
X601707Y187951D01*
X602407Y188051D01*
X602415Y188059D01*
X602422Y188056D01*
X603022Y188356D01*
X603026Y188364D01*
X603032Y188362D01*
X603632Y188862D01*
X603635Y188879D01*
X603646Y188882D01*
X603846Y189382D01*
X603838Y189410D01*
X603844Y189422D01*
X603544Y190022D01*
X603537Y190026D01*
X603538Y190032D01*
X603038Y190632D01*
X603021Y190635D01*
X603018Y190646D01*
X602518Y190846D01*
X602490Y190838D01*
X602478Y190844D01*
X601882Y190546D01*
X601197Y190350D01*
X600621Y190446D01*
X600049Y190923D01*
X600049Y191588D01*
X600339Y192168D01*
X600817Y192551D01*
X601490Y192551D01*
X602181Y192255D01*
X602182Y192255D01*
X602182Y192254D01*
X602682Y192054D01*
X602713Y192063D01*
X602725Y192058D01*
X603225Y192358D01*
X603231Y192371D01*
X603240Y192371D01*
X603740Y193071D01*
X603740Y193087D01*
X603749Y193092D01*
X603849Y193692D01*
X603835Y193718D01*
X603838Y193731D01*
X603438Y194231D01*
X603428Y194233D01*
X603427Y194241D01*
X602827Y194641D01*
X602816Y194640D01*
X602814Y194647D01*
X602114Y194847D01*
X602109Y194846D01*
X602107Y194849D01*
X601407Y194949D01*
X601402Y194946D01*
X601400Y194949D01*
X600800Y194949D01*
X600793Y194944D01*
X600791Y194944D01*
X600786Y194947D01*
X600086Y194747D01*
X600085Y194746D01*
X600084Y194747D01*
X599484Y194547D01*
X599479Y194539D01*
X599473Y194541D01*
X598873Y194141D01*
X598870Y194134D01*
X598865Y194135D01*
X598365Y193635D01*
X598364Y193623D01*
X598356Y193622D01*
X598056Y193022D01*
X598057Y193017D01*
X598053Y193016D01*
X597853Y192416D01*
X597854Y192414D01*
X597853Y192414D01*
X597653Y191714D01*
X597655Y191708D01*
X597653Y191707D01*
X597657Y191702D01*
X597658Y191700D01*
X597651Y191693D01*
X597851Y190293D01*
X597859Y190285D01*
X597856Y190278D01*
X598156Y189678D01*
X598163Y189675D01*
X598162Y189669D01*
X598562Y189169D01*
X598566Y189168D01*
X598565Y189165D01*
X599065Y188665D01*
X599072Y188664D01*
X599073Y188659D01*
X599673Y188259D01*
X599684Y188260D01*
X599686Y188253D01*
X600386Y188053D01*
X600390Y188054D01*
X600392Y188051D01*
X600992Y187951D01*
X600997Y187954D01*
X601000Y187951D01*
X601700Y187951D01*
X601704Y187954D01*
G37*
G36*
X641706Y188051D02*
X641706Y188051D01*
X641719Y188064D01*
X641730Y188061D01*
X642130Y188361D01*
X642134Y188377D01*
X642139Y188381D01*
X642136Y188385D01*
X642137Y188387D01*
X642149Y188393D01*
X642249Y189093D01*
X642246Y189098D01*
X642249Y189100D01*
X642249Y191792D01*
X642440Y192365D01*
X643008Y192649D01*
X643689Y192552D01*
X644284Y192353D01*
X644318Y192365D01*
X644331Y192362D01*
X644831Y192762D01*
X644835Y192778D01*
X644845Y192781D01*
X645145Y193481D01*
X645142Y193494D01*
X645149Y193500D01*
X645149Y194100D01*
X645140Y194113D01*
X645144Y194122D01*
X644844Y194722D01*
X644814Y194737D01*
X644808Y194749D01*
X644208Y194849D01*
X644207Y194848D01*
X644207Y194849D01*
X643507Y194949D01*
X643499Y194944D01*
X643488Y194944D01*
X643486Y194942D01*
X643481Y194945D01*
X642781Y194645D01*
X642776Y194637D01*
X642769Y194638D01*
X642311Y194272D01*
X642141Y194527D01*
X642126Y194532D01*
X642125Y194542D01*
X641625Y194842D01*
X641610Y194841D01*
X641606Y194846D01*
X641603Y194846D01*
X641600Y194849D01*
X640700Y194849D01*
X640695Y194846D01*
X640690Y194846D01*
X640688Y194844D01*
X640684Y194847D01*
X640084Y194647D01*
X640071Y194627D01*
X640058Y194617D01*
X640053Y194616D01*
X639853Y194016D01*
X639857Y194005D01*
X639851Y194000D01*
X639851Y188600D01*
X639862Y188585D01*
X639858Y188575D01*
X640158Y188075D01*
X640186Y188063D01*
X640193Y188051D01*
X640893Y187951D01*
X640901Y187956D01*
X640906Y187951D01*
X641706Y188051D01*
G37*
G36*
X343073Y318693D02*
X343073Y318693D01*
X343075Y318691D01*
X343975Y318791D01*
X344003Y318818D01*
X344015Y318821D01*
X344315Y319521D01*
X344312Y319534D01*
X344319Y319540D01*
X344319Y320440D01*
X344311Y320451D01*
X344315Y320459D01*
X344015Y321159D01*
X343986Y321176D01*
X343981Y321188D01*
X343081Y321388D01*
X343073Y321385D01*
X343070Y321389D01*
X339770Y321389D01*
X339767Y321387D01*
X339765Y321389D01*
X338865Y321289D01*
X338853Y321278D01*
X338843Y321281D01*
X338243Y320881D01*
X338234Y320857D01*
X338222Y320852D01*
X338022Y320052D01*
X338029Y320036D01*
X338022Y320028D01*
X338222Y319228D01*
X338240Y319214D01*
X338239Y319202D01*
X338739Y318802D01*
X338759Y318801D01*
X338765Y318791D01*
X339765Y318691D01*
X339768Y318693D01*
X339770Y318691D01*
X343070Y318691D01*
X343073Y318693D01*
G37*
G36*
X359244Y297104D02*
X359244Y297104D01*
X359246Y297101D01*
X360046Y297201D01*
X360073Y297228D01*
X360085Y297231D01*
X360385Y297931D01*
X360382Y297944D01*
X360389Y297950D01*
X360389Y298850D01*
X360381Y298861D01*
X360385Y298869D01*
X360085Y299569D01*
X360057Y299585D01*
X360052Y299598D01*
X359252Y299798D01*
X359244Y299794D01*
X359240Y299799D01*
X355840Y299799D01*
X355837Y299797D01*
X355835Y299799D01*
X354935Y299699D01*
X354923Y299688D01*
X354913Y299691D01*
X354313Y299291D01*
X354303Y299263D01*
X354291Y299256D01*
X354191Y298456D01*
X354196Y298448D01*
X354191Y298444D01*
X354291Y297644D01*
X354312Y297623D01*
X354313Y297609D01*
X354913Y297209D01*
X354929Y297210D01*
X354935Y297201D01*
X355835Y297101D01*
X355838Y297103D01*
X355840Y297101D01*
X359240Y297101D01*
X359244Y297104D01*
G37*
%LPC*%
G36*
X389559Y336109D02*
X389559Y336109D01*
X388680Y336891D01*
X388190Y337870D01*
X388288Y339141D01*
X388972Y340021D01*
X389950Y340510D01*
X391121Y340412D01*
X392000Y339729D01*
X392489Y338653D01*
X392293Y337480D01*
X391609Y336600D01*
X390529Y336109D01*
X389559Y336109D01*
G37*
%LPD*%
G36*
X379044Y345616D02*
X379044Y345616D01*
X379048Y345611D01*
X380248Y345811D01*
X380252Y345816D01*
X380256Y345813D01*
X380556Y345913D01*
X380573Y345938D01*
X380586Y345942D01*
X380986Y346942D01*
X380982Y346955D01*
X380989Y346960D01*
X380989Y348260D01*
X380981Y348271D01*
X380986Y348278D01*
X380586Y349278D01*
X380558Y349295D01*
X380553Y349308D01*
X379453Y349608D01*
X379442Y349603D01*
X379437Y349609D01*
X377837Y349509D01*
X377822Y349497D01*
X377811Y349500D01*
X377111Y349000D01*
X377106Y348983D01*
X377093Y348973D01*
X377095Y348970D01*
X377091Y348968D01*
X376891Y347768D01*
X376896Y347760D01*
X376891Y347756D01*
X376991Y346656D01*
X377006Y346639D01*
X377003Y346627D01*
X377803Y345727D01*
X377829Y345722D01*
X377836Y345711D01*
X379036Y345611D01*
X379044Y345616D01*
G37*
%LPC*%
G36*
X199757Y211347D02*
X199757Y211347D01*
X199076Y211736D01*
X198793Y212207D01*
X198986Y212882D01*
X200059Y215058D01*
X202841Y215151D01*
X204110Y215151D01*
X205058Y213349D01*
X201840Y213349D01*
X201815Y213330D01*
X201802Y213331D01*
X201402Y212831D01*
X201401Y212822D01*
X201395Y212821D01*
X200802Y211534D01*
X200330Y211252D01*
X199757Y211347D01*
G37*
%LPD*%
G36*
X595433Y191676D02*
X595433Y191676D01*
X595444Y191678D01*
X595744Y192278D01*
X595741Y192294D01*
X595749Y192300D01*
X595749Y193000D01*
X595742Y193009D01*
X595747Y193016D01*
X595547Y193616D01*
X595512Y193639D01*
X595507Y193649D01*
X594807Y193749D01*
X594802Y193746D01*
X594800Y193749D01*
X591400Y193749D01*
X591385Y193738D01*
X591375Y193742D01*
X590875Y193442D01*
X590863Y193414D01*
X590851Y193407D01*
X590751Y192707D01*
X590756Y192699D01*
X590755Y192698D01*
X590755Y192697D01*
X590751Y192693D01*
X590851Y191993D01*
X590870Y191974D01*
X590870Y191961D01*
X591270Y191661D01*
X591292Y191661D01*
X591300Y191651D01*
X595400Y191651D01*
X595433Y191676D01*
G37*
%LPC*%
G36*
X368786Y317089D02*
X368786Y317089D01*
X368110Y317572D01*
X367820Y318248D01*
X367918Y319124D01*
X368304Y319800D01*
X369079Y320091D01*
X369854Y320091D01*
X370529Y319609D01*
X370820Y318834D01*
X370723Y317960D01*
X370241Y317382D01*
X369461Y317089D01*
X368786Y317089D01*
G37*
%LPD*%
%LPC*%
G36*
X350790Y317089D02*
X350790Y317089D01*
X350214Y317665D01*
X350022Y318437D01*
X350311Y319209D01*
X350986Y319691D01*
X351754Y319691D01*
X352429Y319209D01*
X352719Y318437D01*
X352527Y317670D01*
X351852Y317187D01*
X351067Y317089D01*
X350790Y317089D01*
G37*
%LPD*%
%LPC*%
G36*
X544801Y36571D02*
X544801Y36571D01*
X544801Y38502D01*
X545072Y38773D01*
X546444Y38773D01*
X547020Y38581D01*
X547403Y38007D01*
X547403Y37336D01*
X547115Y36856D01*
X546736Y36571D01*
X544801Y36571D01*
G37*
%LPD*%
%LPC*%
G36*
X554201Y36571D02*
X554201Y36571D01*
X554201Y38497D01*
X554568Y38773D01*
X555844Y38773D01*
X556420Y38581D01*
X556803Y38007D01*
X556803Y37336D01*
X556515Y36856D01*
X556136Y36571D01*
X554201Y36571D01*
G37*
%LPD*%
%LPC*%
G36*
X382688Y299962D02*
X382688Y299962D01*
X382641Y299999D01*
X382641Y299998D01*
X382640Y299999D01*
X381758Y299999D01*
X381186Y300475D01*
X381092Y301235D01*
X381568Y301806D01*
X382337Y301999D01*
X383108Y301709D01*
X383489Y301138D01*
X383394Y300381D01*
X382716Y299993D01*
X382699Y299954D01*
X382695Y299951D01*
X382697Y299949D01*
X382694Y299943D01*
X382693Y299941D01*
X382688Y299962D01*
G37*
%LPD*%
%LPC*%
G36*
X638452Y320229D02*
X638452Y320229D01*
X637866Y320522D01*
X637493Y320802D01*
X637588Y321465D01*
X637878Y322045D01*
X638354Y322331D01*
X639023Y322331D01*
X639497Y321951D01*
X639690Y321277D01*
X639594Y320704D01*
X639120Y320229D01*
X638452Y320229D01*
G37*
%LPD*%
%LPC*%
G36*
X608526Y192049D02*
X608526Y192049D01*
X608363Y192294D01*
X608826Y192756D01*
X609503Y192950D01*
X610063Y192856D01*
X610242Y192318D01*
X609884Y192049D01*
X608526Y192049D01*
G37*
%LPD*%
%LPC*%
G36*
X611388Y321892D02*
X611388Y321892D01*
X611386Y321894D01*
X611387Y321896D01*
X611296Y322167D01*
X611767Y322637D01*
X612344Y322829D01*
X612907Y322736D01*
X613176Y322199D01*
X612726Y321929D01*
X611440Y321929D01*
X611393Y321893D01*
X611398Y321886D01*
X611394Y321883D01*
X611398Y321878D01*
X611393Y321873D01*
X611388Y321892D01*
G37*
%LPD*%
%LPC*%
G36*
X633636Y192049D02*
X633636Y192049D01*
X633556Y192287D01*
X634027Y192757D01*
X634604Y192949D01*
X635167Y192856D01*
X635436Y192319D01*
X634986Y192049D01*
X633636Y192049D01*
G37*
%LPD*%
%LPC*%
G36*
X584878Y321929D02*
X584878Y321929D01*
X584792Y322276D01*
X585285Y323461D01*
X585285Y323464D01*
X585287Y323464D01*
X585347Y323646D01*
X585895Y322459D01*
X585896Y322459D01*
X585896Y322458D01*
X586160Y321929D01*
X584878Y321929D01*
G37*
%LPD*%
D10*
X203073Y166376D02*
X211716Y166376D01*
X207395Y170697D02*
X207395Y162054D01*
X201556Y92716D02*
X192913Y92716D01*
D11*
X178308Y109982D02*
X177915Y110409D01*
X177532Y110845D01*
X177159Y111290D01*
X176798Y111745D01*
X176448Y112208D01*
X176109Y112679D01*
X175782Y113159D01*
X175467Y113646D01*
X175163Y114141D01*
X174872Y114643D01*
X174593Y115152D01*
X174327Y115668D01*
X174073Y116190D01*
X173832Y116718D01*
X173604Y117252D01*
X173389Y117791D01*
X173187Y118336D01*
X172998Y118885D01*
X172823Y119438D01*
X172661Y119996D01*
X172513Y120557D01*
X172379Y121122D01*
X172259Y121690D01*
X172152Y122260D01*
X172059Y122833D01*
X171981Y123409D01*
X171916Y123985D01*
X171865Y124564D01*
X171829Y125143D01*
X171806Y125723D01*
X171798Y126304D01*
X171804Y126884D01*
X171824Y127464D01*
X171858Y128044D01*
X171906Y128622D01*
X171968Y129199D01*
X172045Y129775D01*
X172135Y130348D01*
X172239Y130919D01*
X172357Y131488D01*
X172489Y132053D01*
X172635Y132615D01*
X172794Y133173D01*
X172967Y133728D01*
X173153Y134277D01*
X173353Y134823D01*
X173565Y135363D01*
X173791Y135897D01*
X174030Y136427D01*
X174282Y136950D01*
X174546Y137467D01*
X174823Y137977D01*
X175112Y138480D01*
X175413Y138976D01*
X175727Y139465D01*
X176052Y139946D01*
X176388Y140419D01*
X176737Y140883D01*
X177096Y141339D01*
X177466Y141786D01*
X177847Y142224D01*
X178239Y142653D01*
X178641Y143072D01*
X179053Y143480D01*
X179475Y143879D01*
X179906Y144268D01*
X180347Y144645D01*
X180797Y145012D01*
X181256Y145368D01*
X181723Y145713D01*
X182198Y146046D01*
X182682Y146367D01*
X183173Y146677D01*
X183671Y146974D01*
X184177Y147260D01*
X184689Y147532D01*
X185208Y147793D01*
X185733Y148040D01*
X186264Y148275D01*
X186801Y148497D01*
X187342Y148706D01*
X187889Y148901D01*
X188440Y149083D01*
X188996Y149251D01*
X189555Y149406D01*
X190118Y149548D01*
X190685Y149675D01*
X191254Y149789D01*
X191826Y149889D01*
X192400Y149975D01*
X192976Y150047D01*
X193554Y150105D01*
X194132Y150148D01*
X194712Y150178D01*
X195292Y150193D01*
X195873Y150195D01*
X196453Y150182D01*
X197033Y150155D01*
X197612Y150114D01*
X219710Y129540D02*
X219799Y129131D01*
X219879Y128720D01*
X219948Y128307D01*
X220008Y127893D01*
X220058Y127477D01*
X220097Y127060D01*
X220127Y126643D01*
X220146Y126224D01*
X220155Y125806D01*
X220154Y125387D01*
X220143Y124969D01*
X220122Y124551D01*
X220091Y124133D01*
X220050Y123717D01*
X219999Y123301D01*
X219937Y122887D01*
X219866Y122474D01*
X219785Y122064D01*
X219694Y121655D01*
X219593Y121249D01*
X219482Y120845D01*
X219362Y120444D01*
X219232Y120046D01*
X219092Y119651D01*
X218943Y119260D01*
X218785Y118873D01*
X218617Y118489D01*
X218440Y118110D01*
D12*
X570865Y15177D02*
X570865Y5652D01*
X224870Y101700D02*
X224870Y114200D01*
X233570Y114200D02*
X251570Y114200D01*
X251570Y101700D02*
X233570Y101700D01*
X527685Y15177D02*
X527685Y5652D01*
D13*
X78232Y287020D03*
D12*
X84098Y258318D02*
X92686Y258318D01*
X92686Y283718D02*
X84098Y283718D01*
X95480Y273702D02*
X95480Y268334D01*
D14*
X404400Y273000D02*
X419100Y273000D01*
X419100Y254500D01*
X419100Y126500D02*
X419100Y108000D01*
X404400Y108000D01*
X306800Y108000D02*
X292100Y108000D01*
X292100Y126500D01*
X292100Y254500D02*
X292100Y273000D01*
X306800Y273000D01*
D15*
X424180Y102870D03*
D16*
X559450Y122826D03*
D11*
X557022Y123444D02*
X547878Y123444D01*
X547878Y140208D02*
X557022Y140208D01*
D12*
X609248Y83800D02*
X627248Y83800D01*
X627248Y170200D02*
X609248Y170200D01*
D17*
X36950Y147690D03*
D18*
X36550Y147690D03*
D19*
X36150Y147890D03*
X35750Y147890D03*
X35350Y147890D03*
X34950Y147890D03*
D18*
X34550Y148090D03*
D20*
X34150Y150690D03*
X33750Y150690D03*
X33350Y150690D03*
D21*
X32950Y149090D03*
D22*
X32550Y148690D03*
X32150Y148690D03*
X31750Y148690D03*
X31350Y148690D03*
X30950Y148690D03*
D17*
X30550Y148890D03*
D20*
X30150Y150690D03*
X29750Y150690D03*
X29350Y150690D03*
D23*
X28950Y148290D03*
D19*
X28550Y147890D03*
X28150Y147890D03*
X27750Y147890D03*
X27350Y147890D03*
X26950Y147890D03*
D23*
X26550Y147890D03*
D12*
X126143Y170942D02*
X126143Y217678D01*
X91027Y167132D02*
X90914Y167116D01*
X90800Y167105D01*
X90686Y167098D01*
X90572Y167094D01*
X90457Y167095D01*
X90343Y167099D01*
X90229Y167107D01*
X90115Y167119D01*
X90002Y167135D01*
X89890Y167155D01*
X89778Y167179D01*
X89667Y167206D01*
X89557Y167238D01*
X89448Y167273D01*
X89340Y167311D01*
X89234Y167354D01*
X89130Y167400D01*
X89026Y167449D01*
X88925Y167502D01*
X88826Y167558D01*
X88728Y167618D01*
X88633Y167681D01*
X88540Y167748D01*
X88449Y167817D01*
X88361Y167889D01*
X88275Y167965D01*
X88191Y168043D01*
X88111Y168124D01*
X88033Y168208D01*
X87958Y168295D01*
X87887Y168384D01*
X87818Y168475D01*
X87752Y168569D01*
X87690Y168664D01*
X87631Y168762D01*
X87575Y168862D01*
X87523Y168964D01*
X87474Y169067D01*
X87429Y169172D01*
X87388Y169279D01*
X87350Y169387D01*
X87315Y169496D01*
X87285Y169606D01*
X87258Y169717D01*
X87236Y169829D01*
X87217Y169942D01*
X126143Y217678D02*
X126126Y217808D01*
X126105Y217937D01*
X126080Y218066D01*
X126052Y218194D01*
X126019Y218321D01*
X125983Y218447D01*
X125942Y218572D01*
X125898Y218695D01*
X125851Y218817D01*
X125799Y218938D01*
X125745Y219057D01*
X125686Y219174D01*
X125624Y219289D01*
X125559Y219403D01*
X125490Y219515D01*
X125417Y219624D01*
X125342Y219731D01*
X125263Y219836D01*
X125181Y219938D01*
X125096Y220038D01*
X125009Y220135D01*
X124918Y220230D01*
X124824Y220322D01*
X124728Y220411D01*
X124629Y220497D01*
X124528Y220579D01*
X124424Y220659D01*
X124317Y220736D01*
X124209Y220809D01*
X124098Y220879D01*
X123985Y220946D01*
X123870Y221009D01*
X123754Y221069D01*
X123635Y221125D01*
X123515Y221178D01*
X123394Y221227D01*
X123271Y221272D01*
X123146Y221314D01*
X123021Y221352D01*
X122894Y221385D01*
X122767Y221416D01*
X122638Y221442D01*
X122509Y221464D01*
X122379Y221483D01*
X122249Y221497D01*
X122118Y221508D01*
X121987Y221514D01*
X121856Y221517D01*
X121725Y221516D01*
X121594Y221510D01*
X121464Y221501D01*
X121333Y221488D01*
X126143Y170942D02*
X126141Y170820D01*
X126135Y170698D01*
X126125Y170576D01*
X126112Y170455D01*
X126094Y170334D01*
X126073Y170214D01*
X126048Y170094D01*
X126019Y169975D01*
X125986Y169858D01*
X125949Y169741D01*
X125909Y169626D01*
X125865Y169512D01*
X125817Y169400D01*
X125766Y169289D01*
X125711Y169180D01*
X125653Y169072D01*
X125591Y168967D01*
X125526Y168863D01*
X125458Y168762D01*
X125387Y168663D01*
X125312Y168566D01*
X125234Y168472D01*
X125154Y168380D01*
X125070Y168291D01*
X124984Y168205D01*
X124895Y168121D01*
X124803Y168041D01*
X124709Y167963D01*
X124612Y167888D01*
X124513Y167817D01*
X124412Y167749D01*
X124308Y167684D01*
X124203Y167622D01*
X124095Y167564D01*
X123986Y167509D01*
X123875Y167458D01*
X123763Y167410D01*
X123649Y167366D01*
X123534Y167326D01*
X123417Y167289D01*
X123300Y167256D01*
X123181Y167227D01*
X123061Y167202D01*
X122941Y167181D01*
X122820Y167163D01*
X122699Y167150D01*
X122577Y167140D01*
X122455Y167134D01*
X122333Y167132D01*
X87217Y217677D02*
X87202Y217791D01*
X87190Y217905D01*
X87183Y218019D01*
X87179Y218133D01*
X87180Y218247D01*
X87184Y218362D01*
X87192Y218476D01*
X87204Y218589D01*
X87220Y218702D01*
X87240Y218815D01*
X87264Y218927D01*
X87291Y219038D01*
X87322Y219148D01*
X87357Y219257D01*
X87396Y219364D01*
X87438Y219471D01*
X87484Y219575D01*
X87534Y219678D01*
X87587Y219780D01*
X87643Y219879D01*
X87703Y219977D01*
X87766Y220072D01*
X87832Y220165D01*
X87902Y220256D01*
X87974Y220344D01*
X88050Y220430D01*
X88128Y220513D01*
X88209Y220594D01*
X88293Y220672D01*
X88379Y220746D01*
X88468Y220818D01*
X88560Y220887D01*
X88653Y220953D01*
X88749Y221015D01*
X88847Y221074D01*
X88947Y221130D01*
X89049Y221182D01*
X89152Y221230D01*
X89257Y221276D01*
X89364Y221317D01*
X89472Y221355D01*
X89581Y221389D01*
X89691Y221419D01*
X89802Y221446D01*
X89914Y221469D01*
X90027Y221488D01*
X87217Y217678D02*
X87217Y169942D01*
X91027Y167132D02*
X122333Y167132D01*
X112776Y220980D02*
X112774Y220822D01*
X112768Y220663D01*
X112758Y220505D01*
X112744Y220348D01*
X112727Y220190D01*
X112705Y220034D01*
X112680Y219877D01*
X112650Y219722D01*
X112617Y219567D01*
X112580Y219413D01*
X112539Y219260D01*
X112494Y219108D01*
X112445Y218958D01*
X112393Y218808D01*
X112337Y218660D01*
X112277Y218513D01*
X112214Y218368D01*
X112147Y218225D01*
X112077Y218083D01*
X112003Y217943D01*
X111925Y217805D01*
X111844Y217669D01*
X111760Y217535D01*
X111673Y217403D01*
X111582Y217273D01*
X111488Y217146D01*
X111391Y217021D01*
X111290Y216898D01*
X111187Y216778D01*
X111081Y216661D01*
X110972Y216546D01*
X110860Y216434D01*
X110745Y216325D01*
X110628Y216219D01*
X110508Y216116D01*
X110385Y216015D01*
X110260Y215918D01*
X110133Y215824D01*
X110003Y215733D01*
X109871Y215646D01*
X109737Y215562D01*
X109601Y215481D01*
X109463Y215403D01*
X109323Y215329D01*
X109181Y215259D01*
X109038Y215192D01*
X108893Y215129D01*
X108746Y215069D01*
X108598Y215013D01*
X108448Y214961D01*
X108298Y214912D01*
X108146Y214867D01*
X107993Y214826D01*
X107839Y214789D01*
X107684Y214756D01*
X107529Y214726D01*
X107372Y214701D01*
X107216Y214679D01*
X107058Y214662D01*
X106901Y214648D01*
X106743Y214638D01*
X106584Y214632D01*
X106426Y214630D01*
X106268Y214632D01*
X106109Y214638D01*
X105951Y214648D01*
X105794Y214662D01*
X105636Y214679D01*
X105480Y214701D01*
X105323Y214726D01*
X105168Y214756D01*
X105013Y214789D01*
X104859Y214826D01*
X104706Y214867D01*
X104554Y214912D01*
X104404Y214961D01*
X104254Y215013D01*
X104106Y215069D01*
X103959Y215129D01*
X103814Y215192D01*
X103671Y215259D01*
X103529Y215329D01*
X103389Y215403D01*
X103251Y215481D01*
X103115Y215562D01*
X102981Y215646D01*
X102849Y215733D01*
X102719Y215824D01*
X102592Y215918D01*
X102467Y216015D01*
X102344Y216116D01*
X102224Y216219D01*
X102107Y216325D01*
X101992Y216434D01*
X101880Y216546D01*
X101771Y216661D01*
X101665Y216778D01*
X101562Y216898D01*
X101461Y217021D01*
X101364Y217146D01*
X101270Y217273D01*
X101179Y217403D01*
X101092Y217535D01*
X101008Y217669D01*
X100927Y217805D01*
X100849Y217943D01*
X100775Y218083D01*
X100705Y218225D01*
X100638Y218368D01*
X100575Y218513D01*
X100515Y218660D01*
X100459Y218808D01*
X100407Y218958D01*
X100358Y219108D01*
X100313Y219260D01*
X100272Y219413D01*
X100235Y219567D01*
X100202Y219722D01*
X100172Y219877D01*
X100147Y220034D01*
X100125Y220190D01*
X100108Y220348D01*
X100094Y220505D01*
X100084Y220663D01*
X100078Y220822D01*
X100076Y220980D01*
X112776Y221488D02*
X121206Y221488D01*
X100076Y221488D02*
X90027Y221488D01*
X210820Y248920D02*
X223520Y248920D01*
X229870Y242570D01*
X229870Y229870D02*
X223520Y223520D01*
X229870Y242570D02*
X236220Y248920D01*
X248920Y248920D01*
X255270Y242570D01*
X255270Y229870D02*
X248920Y223520D01*
X236220Y223520D01*
X229870Y229870D01*
X204470Y229870D02*
X204470Y242570D01*
X210820Y248920D01*
X204470Y229870D02*
X210820Y223520D01*
X223520Y223520D01*
X255270Y229870D02*
X255270Y242570D01*
M02*
