G04 EAGLE Gerber RS-274X export*
G75*
%MOMM*%
%FSLAX34Y34*%
%LPD*%
%INSolderpaste Top*%
%IPPOS*%
%AMOC8*
5,1,8,0,0,1.08239X$1,22.5*%
G01*
%ADD10C,0.102000*%
%ADD11R,4.200000X1.700000*%
%ADD12C,0.100000*%
%ADD13C,0.300000*%
%ADD14C,0.100800*%
%ADD15C,0.099000*%
%ADD16R,1.200000X0.800000*%
%ADD17R,0.900000X0.600000*%
%ADD18C,0.102500*%
%ADD19R,2.400000X1.100000*%
%ADD20R,7.000000X1.250000*%

G36*
X222693Y128802D02*
X222693Y128802D01*
X222720Y128804D01*
X222755Y128830D01*
X222795Y128848D01*
X222810Y128871D01*
X222832Y128887D01*
X222848Y128928D01*
X222872Y128965D01*
X222879Y129008D01*
X222882Y129017D01*
X222881Y129024D01*
X222883Y129038D01*
X222883Y153038D01*
X222878Y153054D01*
X222881Y153071D01*
X222859Y153121D01*
X222844Y153172D01*
X222831Y153183D01*
X222824Y153199D01*
X222779Y153229D01*
X222739Y153264D01*
X222722Y153267D01*
X222708Y153276D01*
X222634Y153287D01*
X198634Y153287D01*
X198592Y153275D01*
X198548Y153272D01*
X198526Y153256D01*
X198500Y153248D01*
X198471Y153215D01*
X198436Y153189D01*
X198426Y153163D01*
X198408Y153143D01*
X198401Y153099D01*
X198386Y153059D01*
X198391Y153032D01*
X198387Y153005D01*
X198405Y152964D01*
X198414Y152922D01*
X198440Y152886D01*
X198444Y152877D01*
X198449Y152873D01*
X198458Y152862D01*
X222458Y128862D01*
X222496Y128841D01*
X222529Y128812D01*
X222556Y128808D01*
X222580Y128795D01*
X222624Y128798D01*
X222667Y128791D01*
X222693Y128802D01*
G37*
G36*
X602955Y165156D02*
X602955Y165156D01*
X602959Y165152D01*
X603903Y165371D01*
X603909Y165377D01*
X603914Y165375D01*
X604786Y165799D01*
X604789Y165806D01*
X604795Y165804D01*
X605551Y166411D01*
X605553Y166419D01*
X605559Y166419D01*
X606160Y167179D01*
X606160Y167188D01*
X606166Y167189D01*
X606584Y168064D01*
X606582Y168072D01*
X606587Y168074D01*
X606800Y169020D01*
X606797Y169026D01*
X606799Y169028D01*
X606798Y169029D01*
X606801Y169031D01*
X606797Y170000D01*
X606797Y170001D01*
X606778Y171069D01*
X606773Y171076D01*
X606777Y171080D01*
X606521Y172117D01*
X606514Y172122D01*
X606517Y172128D01*
X606036Y173082D01*
X606029Y173086D01*
X606030Y173091D01*
X605349Y173915D01*
X605341Y173916D01*
X605341Y173922D01*
X604494Y174573D01*
X604486Y174573D01*
X604485Y174579D01*
X603514Y175026D01*
X603506Y175024D01*
X603504Y175029D01*
X602458Y175248D01*
X602456Y175247D01*
X602450Y175247D01*
X602448Y175249D01*
X590448Y175249D01*
X590445Y175247D01*
X590442Y175247D01*
X590440Y175249D01*
X589345Y175069D01*
X589339Y175063D01*
X589334Y175066D01*
X588306Y174647D01*
X588302Y174640D01*
X588297Y174642D01*
X587388Y174005D01*
X587386Y173997D01*
X587380Y173997D01*
X586636Y173174D01*
X586635Y173166D01*
X586629Y173165D01*
X586087Y172197D01*
X586088Y172188D01*
X586082Y172186D01*
X585769Y171122D01*
X585772Y171114D01*
X585767Y171111D01*
X585699Y170003D01*
X585703Y169997D01*
X585699Y169993D01*
X585869Y168885D01*
X585875Y168879D01*
X585872Y168874D01*
X586284Y167832D01*
X586291Y167828D01*
X586289Y167823D01*
X586923Y166898D01*
X586931Y166896D01*
X586930Y166890D01*
X587754Y166130D01*
X587762Y166129D01*
X587762Y166123D01*
X588734Y165566D01*
X588742Y165567D01*
X588744Y165561D01*
X589816Y165234D01*
X589824Y165237D01*
X589827Y165232D01*
X590944Y165151D01*
X590947Y165152D01*
X590948Y165151D01*
X602948Y165151D01*
X602955Y165156D01*
G37*
G36*
X602453Y78754D02*
X602453Y78754D01*
X602456Y78751D01*
X603452Y78909D01*
X603458Y78915D01*
X603463Y78912D01*
X604399Y79287D01*
X604403Y79294D01*
X604409Y79292D01*
X605238Y79866D01*
X605241Y79874D01*
X605246Y79873D01*
X605927Y80617D01*
X605928Y80626D01*
X605934Y80626D01*
X606432Y81503D01*
X606431Y81512D01*
X606436Y81514D01*
X606549Y81889D01*
X606727Y82479D01*
X606727Y82480D01*
X606726Y82482D01*
X606724Y82487D01*
X606729Y82490D01*
X606797Y83497D01*
X606796Y83499D01*
X606797Y83500D01*
X606788Y84581D01*
X606783Y84588D01*
X606787Y84592D01*
X606538Y85644D01*
X606531Y85649D01*
X606534Y85654D01*
X606057Y86624D01*
X606049Y86627D01*
X606051Y86633D01*
X605370Y87472D01*
X605362Y87474D01*
X605362Y87480D01*
X604512Y88146D01*
X604503Y88147D01*
X604502Y88152D01*
X603525Y88613D01*
X603517Y88611D01*
X603514Y88617D01*
X602459Y88848D01*
X602456Y88847D01*
X602450Y88847D01*
X602448Y88849D01*
X590448Y88849D01*
X590445Y88847D01*
X590441Y88847D01*
X590440Y88849D01*
X589334Y88656D01*
X589329Y88650D01*
X589324Y88653D01*
X588289Y88220D01*
X588285Y88213D01*
X588280Y88215D01*
X587367Y87562D01*
X587365Y87554D01*
X587359Y87555D01*
X586615Y86716D01*
X586614Y86707D01*
X586609Y86707D01*
X586070Y85723D01*
X586071Y85715D01*
X586066Y85713D01*
X586050Y85659D01*
X585869Y85019D01*
X585759Y84634D01*
X585762Y84627D01*
X585759Y84625D01*
X585759Y84624D01*
X585757Y84623D01*
X585699Y83503D01*
X585702Y83498D01*
X585699Y83495D01*
X585817Y82449D01*
X585823Y82443D01*
X585819Y82438D01*
X586167Y81444D01*
X586174Y81440D01*
X586172Y81435D01*
X586732Y80543D01*
X586739Y80541D01*
X586739Y80535D01*
X587483Y79791D01*
X587491Y79789D01*
X587491Y79784D01*
X588383Y79224D01*
X588391Y79224D01*
X588392Y79219D01*
X589386Y78871D01*
X589394Y78874D01*
X589397Y78869D01*
X590443Y78751D01*
X590446Y78753D01*
X590448Y78751D01*
X602448Y78751D01*
X602453Y78754D01*
G37*
G36*
X641754Y165155D02*
X641754Y165155D01*
X641757Y165152D01*
X642838Y165364D01*
X642843Y165370D01*
X642848Y165367D01*
X643854Y165814D01*
X643858Y165821D01*
X643864Y165819D01*
X644745Y166479D01*
X644748Y166487D01*
X644753Y166487D01*
X645466Y167326D01*
X645466Y167334D01*
X645472Y167335D01*
X645980Y168312D01*
X645979Y168320D01*
X645984Y168322D01*
X646262Y169387D01*
X646259Y169395D01*
X646263Y169398D01*
X646297Y170499D01*
X646294Y170504D01*
X646297Y170507D01*
X646142Y171583D01*
X646136Y171588D01*
X646139Y171593D01*
X645749Y172607D01*
X645742Y172611D01*
X645744Y172617D01*
X645137Y173519D01*
X645129Y173521D01*
X645130Y173527D01*
X644338Y174271D01*
X644330Y174272D01*
X644330Y174278D01*
X643392Y174827D01*
X643384Y174826D01*
X643382Y174832D01*
X642346Y175159D01*
X642338Y175156D01*
X642335Y175161D01*
X641252Y175249D01*
X641249Y175247D01*
X641248Y175249D01*
X635248Y175249D01*
X635245Y175247D01*
X635243Y175247D01*
X635242Y175249D01*
X634109Y175099D01*
X634103Y175093D01*
X634098Y175096D01*
X633028Y174698D01*
X633024Y174691D01*
X633018Y174693D01*
X632063Y174066D01*
X632060Y174058D01*
X632055Y174059D01*
X631263Y173236D01*
X631262Y173228D01*
X631256Y173227D01*
X630667Y172248D01*
X630668Y172240D01*
X630663Y172238D01*
X630307Y171153D01*
X630310Y171145D01*
X630305Y171142D01*
X630199Y170005D01*
X630204Y169996D01*
X630200Y169991D01*
X630407Y168854D01*
X630413Y168848D01*
X630410Y168843D01*
X630865Y167781D01*
X630872Y167777D01*
X630870Y167771D01*
X631550Y166836D01*
X631558Y166834D01*
X631557Y166828D01*
X632428Y166068D01*
X632436Y166068D01*
X632437Y166062D01*
X633456Y165515D01*
X633464Y165516D01*
X633466Y165511D01*
X634580Y165204D01*
X634588Y165207D01*
X634591Y165202D01*
X635746Y165151D01*
X635747Y165152D01*
X635748Y165151D01*
X641748Y165151D01*
X641754Y165155D01*
G37*
G36*
X641252Y78754D02*
X641252Y78754D01*
X641254Y78751D01*
X642387Y78901D01*
X642393Y78907D01*
X642398Y78904D01*
X643468Y79302D01*
X643472Y79309D01*
X643478Y79307D01*
X644433Y79934D01*
X644436Y79942D01*
X644441Y79941D01*
X645233Y80764D01*
X645234Y80772D01*
X645240Y80773D01*
X645829Y81752D01*
X645828Y81760D01*
X645833Y81762D01*
X646189Y82847D01*
X646187Y82855D01*
X646191Y82858D01*
X646297Y83995D01*
X646293Y84002D01*
X646297Y84007D01*
X646152Y85094D01*
X646146Y85100D01*
X646149Y85105D01*
X645766Y86133D01*
X645759Y86138D01*
X645761Y86143D01*
X645158Y87060D01*
X645150Y87063D01*
X645151Y87069D01*
X644359Y87829D01*
X644351Y87830D01*
X644350Y87836D01*
X643409Y88400D01*
X643401Y88399D01*
X643399Y88405D01*
X642356Y88746D01*
X642348Y88744D01*
X642345Y88748D01*
X641253Y88849D01*
X641250Y88847D01*
X641248Y88849D01*
X635248Y88849D01*
X635245Y88847D01*
X635244Y88849D01*
X634151Y88748D01*
X634145Y88743D01*
X634140Y88746D01*
X633097Y88405D01*
X633092Y88398D01*
X633087Y88400D01*
X632146Y87836D01*
X632143Y87828D01*
X632137Y87829D01*
X631345Y87069D01*
X631344Y87061D01*
X631338Y87060D01*
X630736Y86143D01*
X630736Y86135D01*
X630731Y86133D01*
X630347Y85105D01*
X630349Y85097D01*
X630344Y85094D01*
X630199Y84007D01*
X630203Y83999D01*
X630199Y83995D01*
X630305Y82858D01*
X630310Y82852D01*
X630307Y82847D01*
X630663Y81762D01*
X630670Y81757D01*
X630667Y81752D01*
X631256Y80773D01*
X631264Y80770D01*
X631263Y80764D01*
X632055Y79941D01*
X632063Y79940D01*
X632063Y79934D01*
X633018Y79307D01*
X633026Y79308D01*
X633028Y79302D01*
X634098Y78904D01*
X634106Y78906D01*
X634109Y78901D01*
X635242Y78751D01*
X635246Y78754D01*
X635248Y78751D01*
X641248Y78751D01*
X641252Y78754D01*
G37*
D10*
X244064Y137364D02*
X249044Y137364D01*
X249044Y132384D01*
X244064Y132384D01*
X244064Y137364D01*
X244064Y133353D02*
X249044Y133353D01*
X249044Y134322D02*
X244064Y134322D01*
X244064Y135291D02*
X249044Y135291D01*
X249044Y136260D02*
X244064Y136260D01*
X244064Y137229D02*
X249044Y137229D01*
X239044Y137364D02*
X234064Y137364D01*
X239044Y137364D02*
X239044Y132384D01*
X234064Y132384D01*
X234064Y137364D01*
X234064Y133353D02*
X239044Y133353D01*
X239044Y134322D02*
X234064Y134322D01*
X234064Y135291D02*
X239044Y135291D01*
X239044Y136260D02*
X234064Y136260D01*
X234064Y137229D02*
X239044Y137229D01*
D11*
X201834Y107738D03*
D12*
X163758Y167348D02*
X163758Y177348D01*
X163758Y167348D02*
X154758Y167348D01*
X154758Y177348D01*
X163758Y177348D01*
X163758Y168298D02*
X154758Y168298D01*
X154758Y169248D02*
X163758Y169248D01*
X163758Y170198D02*
X154758Y170198D01*
X154758Y171148D02*
X163758Y171148D01*
X163758Y172098D02*
X154758Y172098D01*
X154758Y173048D02*
X163758Y173048D01*
X163758Y173998D02*
X154758Y173998D01*
X154758Y174948D02*
X163758Y174948D01*
X163758Y175898D02*
X154758Y175898D01*
X154758Y176848D02*
X163758Y176848D01*
X163758Y184348D02*
X163758Y194348D01*
X163758Y184348D02*
X154758Y184348D01*
X154758Y194348D01*
X163758Y194348D01*
X163758Y185298D02*
X154758Y185298D01*
X154758Y186248D02*
X163758Y186248D01*
X163758Y187198D02*
X154758Y187198D01*
X154758Y188148D02*
X163758Y188148D01*
X163758Y189098D02*
X154758Y189098D01*
X154758Y190048D02*
X163758Y190048D01*
X163758Y190998D02*
X154758Y190998D01*
X154758Y191948D02*
X163758Y191948D01*
X163758Y192898D02*
X154758Y192898D01*
X154758Y193848D02*
X163758Y193848D01*
X179760Y177348D02*
X179760Y167348D01*
X170760Y167348D01*
X170760Y177348D01*
X179760Y177348D01*
X179760Y168298D02*
X170760Y168298D01*
X170760Y169248D02*
X179760Y169248D01*
X179760Y170198D02*
X170760Y170198D01*
X170760Y171148D02*
X179760Y171148D01*
X179760Y172098D02*
X170760Y172098D01*
X170760Y173048D02*
X179760Y173048D01*
X179760Y173998D02*
X170760Y173998D01*
X170760Y174948D02*
X179760Y174948D01*
X179760Y175898D02*
X170760Y175898D01*
X170760Y176848D02*
X179760Y176848D01*
X179760Y184348D02*
X179760Y194348D01*
X179760Y184348D02*
X170760Y184348D01*
X170760Y194348D01*
X179760Y194348D01*
X179760Y185298D02*
X170760Y185298D01*
X170760Y186248D02*
X179760Y186248D01*
X179760Y187198D02*
X170760Y187198D01*
X170760Y188148D02*
X179760Y188148D01*
X179760Y189098D02*
X170760Y189098D01*
X170760Y190048D02*
X179760Y190048D01*
X179760Y190998D02*
X170760Y190998D01*
X170760Y191948D02*
X179760Y191948D01*
X179760Y192898D02*
X170760Y192898D01*
X170760Y193848D02*
X179760Y193848D01*
D13*
X560260Y13914D02*
X560260Y6914D01*
X560260Y13914D02*
X567260Y13914D01*
X567260Y6914D01*
X560260Y6914D01*
X560260Y9764D02*
X567260Y9764D01*
X567260Y12614D02*
X560260Y12614D01*
X542720Y13914D02*
X542720Y6914D01*
X542720Y13914D02*
X549720Y13914D01*
X549720Y6914D01*
X542720Y6914D01*
X542720Y9764D02*
X549720Y9764D01*
X549720Y12614D02*
X542720Y12614D01*
D14*
X233716Y104304D02*
X228424Y104304D01*
X228424Y111596D01*
X233716Y111596D01*
X233716Y104304D01*
X233716Y105262D02*
X228424Y105262D01*
X228424Y106220D02*
X233716Y106220D01*
X233716Y107178D02*
X228424Y107178D01*
X228424Y108136D02*
X233716Y108136D01*
X233716Y109094D02*
X228424Y109094D01*
X228424Y110052D02*
X233716Y110052D01*
X233716Y111010D02*
X228424Y111010D01*
X251424Y104304D02*
X256716Y104304D01*
X251424Y104304D02*
X251424Y111596D01*
X256716Y111596D01*
X256716Y104304D01*
X256716Y105262D02*
X251424Y105262D01*
X251424Y106220D02*
X256716Y106220D01*
X256716Y107178D02*
X251424Y107178D01*
X251424Y108136D02*
X256716Y108136D01*
X256716Y109094D02*
X251424Y109094D01*
X251424Y110052D02*
X256716Y110052D01*
X256716Y111010D02*
X251424Y111010D01*
D10*
X248790Y126696D02*
X243810Y126696D01*
X248790Y126696D02*
X248790Y121716D01*
X243810Y121716D01*
X243810Y126696D01*
X243810Y122685D02*
X248790Y122685D01*
X248790Y123654D02*
X243810Y123654D01*
X243810Y124623D02*
X248790Y124623D01*
X248790Y125592D02*
X243810Y125592D01*
X243810Y126561D02*
X248790Y126561D01*
X238790Y126696D02*
X233810Y126696D01*
X238790Y126696D02*
X238790Y121716D01*
X233810Y121716D01*
X233810Y126696D01*
X233810Y122685D02*
X238790Y122685D01*
X238790Y123654D02*
X233810Y123654D01*
X233810Y124623D02*
X238790Y124623D01*
X238790Y125592D02*
X233810Y125592D01*
X233810Y126561D02*
X238790Y126561D01*
X548770Y20370D02*
X553750Y20370D01*
X548770Y20370D02*
X548770Y25350D01*
X553750Y25350D01*
X553750Y20370D01*
X553750Y21339D02*
X548770Y21339D01*
X548770Y22308D02*
X553750Y22308D01*
X553750Y23277D02*
X548770Y23277D01*
X548770Y24246D02*
X553750Y24246D01*
X553750Y25215D02*
X548770Y25215D01*
X558770Y20370D02*
X563750Y20370D01*
X558770Y20370D02*
X558770Y25350D01*
X563750Y25350D01*
X563750Y20370D01*
X563750Y21339D02*
X558770Y21339D01*
X558770Y22308D02*
X563750Y22308D01*
X563750Y23277D02*
X558770Y23277D01*
X558770Y24246D02*
X563750Y24246D01*
X563750Y25215D02*
X558770Y25215D01*
X103408Y289864D02*
X98428Y289864D01*
X98428Y294844D01*
X103408Y294844D01*
X103408Y289864D01*
X103408Y290833D02*
X98428Y290833D01*
X98428Y291802D02*
X103408Y291802D01*
X103408Y292771D02*
X98428Y292771D01*
X98428Y293740D02*
X103408Y293740D01*
X103408Y294709D02*
X98428Y294709D01*
X108428Y289864D02*
X113408Y289864D01*
X108428Y289864D02*
X108428Y294844D01*
X113408Y294844D01*
X113408Y289864D01*
X113408Y290833D02*
X108428Y290833D01*
X108428Y291802D02*
X113408Y291802D01*
X113408Y292771D02*
X108428Y292771D01*
X108428Y293740D02*
X113408Y293740D01*
X113408Y294709D02*
X108428Y294709D01*
D13*
X517080Y13914D02*
X517080Y6914D01*
X517080Y13914D02*
X524080Y13914D01*
X524080Y6914D01*
X517080Y6914D01*
X517080Y9764D02*
X524080Y9764D01*
X524080Y12614D02*
X517080Y12614D01*
X499540Y13914D02*
X499540Y6914D01*
X499540Y13914D02*
X506540Y13914D01*
X506540Y6914D01*
X499540Y6914D01*
X499540Y9764D02*
X506540Y9764D01*
X506540Y12614D02*
X499540Y12614D01*
D10*
X503050Y20624D02*
X508030Y20624D01*
X503050Y20624D02*
X503050Y25604D01*
X508030Y25604D01*
X508030Y20624D01*
X508030Y21593D02*
X503050Y21593D01*
X503050Y22562D02*
X508030Y22562D01*
X508030Y23531D02*
X503050Y23531D01*
X503050Y24500D02*
X508030Y24500D01*
X508030Y25469D02*
X503050Y25469D01*
X513050Y20624D02*
X518030Y20624D01*
X513050Y20624D02*
X513050Y25604D01*
X518030Y25604D01*
X518030Y20624D01*
X518030Y21593D02*
X513050Y21593D01*
X513050Y22562D02*
X518030Y22562D01*
X518030Y23531D02*
X513050Y23531D01*
X513050Y24500D02*
X518030Y24500D01*
X518030Y25469D02*
X513050Y25469D01*
D15*
X69886Y278263D02*
X69886Y282773D01*
X80896Y282773D01*
X80896Y278263D01*
X69886Y278263D01*
X69886Y279203D02*
X80896Y279203D01*
X80896Y280143D02*
X69886Y280143D01*
X69886Y281083D02*
X80896Y281083D01*
X80896Y282023D02*
X69886Y282023D01*
X69886Y273273D02*
X69886Y268763D01*
X69886Y273273D02*
X80896Y273273D01*
X80896Y268763D01*
X69886Y268763D01*
X69886Y269703D02*
X80896Y269703D01*
X80896Y270643D02*
X69886Y270643D01*
X69886Y271583D02*
X80896Y271583D01*
X80896Y272523D02*
X69886Y272523D01*
X69886Y263773D02*
X69886Y259263D01*
X69886Y263773D02*
X80896Y263773D01*
X80896Y259263D01*
X69886Y259263D01*
X69886Y260203D02*
X80896Y260203D01*
X80896Y261143D02*
X69886Y261143D01*
X69886Y262083D02*
X80896Y262083D01*
X80896Y263023D02*
X69886Y263023D01*
X95888Y263773D02*
X95888Y259263D01*
X95888Y263773D02*
X106898Y263773D01*
X106898Y259263D01*
X95888Y259263D01*
X95888Y260203D02*
X106898Y260203D01*
X106898Y261143D02*
X95888Y261143D01*
X95888Y262083D02*
X106898Y262083D01*
X106898Y263023D02*
X95888Y263023D01*
X95888Y278263D02*
X95888Y282773D01*
X106898Y282773D01*
X106898Y278263D01*
X95888Y278263D01*
X95888Y279203D02*
X106898Y279203D01*
X106898Y280143D02*
X95888Y280143D01*
X95888Y281083D02*
X106898Y281083D01*
X106898Y282023D02*
X95888Y282023D01*
D10*
X90548Y295606D02*
X85568Y295606D01*
X90548Y295606D02*
X90548Y290626D01*
X85568Y290626D01*
X85568Y295606D01*
X85568Y291595D02*
X90548Y291595D01*
X90548Y292564D02*
X85568Y292564D01*
X85568Y293533D02*
X90548Y293533D01*
X90548Y294502D02*
X85568Y294502D01*
X85568Y295471D02*
X90548Y295471D01*
X80548Y295606D02*
X75568Y295606D01*
X80548Y295606D02*
X80548Y290626D01*
X75568Y290626D01*
X75568Y295606D01*
X75568Y291595D02*
X80548Y291595D01*
X80548Y292564D02*
X75568Y292564D01*
X75568Y293533D02*
X80548Y293533D01*
X80548Y294502D02*
X75568Y294502D01*
X75568Y295471D02*
X80548Y295471D01*
X532608Y141936D02*
X537588Y141936D01*
X537588Y136956D01*
X532608Y136956D01*
X532608Y141936D01*
X532608Y137925D02*
X537588Y137925D01*
X537588Y138894D02*
X532608Y138894D01*
X532608Y139863D02*
X537588Y139863D01*
X537588Y140832D02*
X532608Y140832D01*
X532608Y141801D02*
X537588Y141801D01*
X527588Y141936D02*
X522608Y141936D01*
X527588Y141936D02*
X527588Y136956D01*
X522608Y136956D01*
X522608Y141936D01*
X522608Y137925D02*
X527588Y137925D01*
X527588Y138894D02*
X522608Y138894D01*
X522608Y139863D02*
X527588Y139863D01*
X527588Y140832D02*
X522608Y140832D01*
X522608Y141801D02*
X527588Y141801D01*
X533116Y125426D02*
X538096Y125426D01*
X538096Y120446D01*
X533116Y120446D01*
X533116Y125426D01*
X533116Y121415D02*
X538096Y121415D01*
X538096Y122384D02*
X533116Y122384D01*
X533116Y123353D02*
X538096Y123353D01*
X538096Y124322D02*
X533116Y124322D01*
X533116Y125291D02*
X538096Y125291D01*
X528096Y125426D02*
X523116Y125426D01*
X528096Y125426D02*
X528096Y120446D01*
X523116Y120446D01*
X523116Y125426D01*
X523116Y121415D02*
X528096Y121415D01*
X528096Y122384D02*
X523116Y122384D01*
X523116Y123353D02*
X528096Y123353D01*
X528096Y124322D02*
X523116Y124322D01*
X523116Y125291D02*
X528096Y125291D01*
X432878Y193380D02*
X432878Y198360D01*
X437858Y198360D01*
X437858Y193380D01*
X432878Y193380D01*
X432878Y194349D02*
X437858Y194349D01*
X437858Y195318D02*
X432878Y195318D01*
X432878Y196287D02*
X437858Y196287D01*
X437858Y197256D02*
X432878Y197256D01*
X432878Y198225D02*
X437858Y198225D01*
X432878Y188360D02*
X432878Y183380D01*
X432878Y188360D02*
X437858Y188360D01*
X437858Y183380D01*
X432878Y183380D01*
X432878Y184349D02*
X437858Y184349D01*
X437858Y185318D02*
X432878Y185318D01*
X432878Y186287D02*
X437858Y186287D01*
X437858Y187256D02*
X432878Y187256D01*
X432878Y188225D02*
X437858Y188225D01*
D16*
X422600Y120500D03*
D17*
X412100Y120500D03*
D16*
X422600Y131500D03*
D17*
X412100Y131500D03*
D16*
X422600Y142500D03*
D17*
X412100Y142500D03*
D16*
X422600Y153500D03*
D17*
X412100Y153500D03*
D16*
X422600Y164500D03*
D17*
X412100Y164500D03*
D16*
X422600Y175500D03*
D17*
X412100Y175500D03*
D16*
X422600Y186500D03*
D17*
X412100Y186500D03*
D16*
X422600Y216500D03*
D17*
X412100Y216500D03*
D16*
X422600Y227500D03*
D17*
X412100Y227500D03*
D16*
X422600Y238500D03*
D17*
X412100Y238500D03*
D16*
X422600Y249500D03*
D17*
X412100Y249500D03*
D16*
X422600Y260500D03*
D17*
X412100Y260500D03*
D16*
X288600Y186500D03*
D17*
X299100Y186500D03*
D16*
X288600Y175500D03*
D17*
X299100Y175500D03*
D16*
X288600Y164500D03*
D17*
X299100Y164500D03*
D16*
X288600Y153500D03*
D17*
X299100Y153500D03*
D16*
X288600Y142500D03*
D17*
X299100Y142500D03*
D16*
X288600Y131500D03*
D17*
X299100Y131500D03*
D16*
X288600Y120500D03*
D17*
X299100Y120500D03*
D16*
X288600Y260500D03*
D17*
X299100Y260500D03*
D16*
X288600Y249500D03*
D17*
X299100Y249500D03*
D16*
X288600Y238500D03*
D17*
X299100Y238500D03*
D16*
X288600Y227500D03*
D17*
X299100Y227500D03*
D16*
X288600Y216500D03*
D17*
X299100Y216500D03*
D18*
X553962Y127564D02*
X559038Y127564D01*
X559038Y126088D01*
X553962Y126088D01*
X553962Y127564D01*
X553962Y127062D02*
X559038Y127062D01*
X559038Y132564D02*
X554462Y132564D01*
X559038Y132564D02*
X559038Y131088D01*
X554462Y131088D01*
X554462Y132564D01*
X554462Y132062D02*
X559038Y132062D01*
X559038Y137564D02*
X554462Y137564D01*
X559038Y137564D02*
X559038Y136088D01*
X554462Y136088D01*
X554462Y137564D01*
X554462Y137062D02*
X559038Y137062D01*
X550438Y136088D02*
X545862Y136088D01*
X545862Y137564D01*
X550438Y137564D01*
X550438Y136088D01*
X550438Y137062D02*
X545862Y137062D01*
X545862Y131088D02*
X550438Y131088D01*
X545862Y131088D02*
X545862Y132564D01*
X550438Y132564D01*
X550438Y131088D01*
X550438Y132062D02*
X545862Y132062D01*
X545862Y126088D02*
X550438Y126088D01*
X545862Y126088D02*
X545862Y127564D01*
X550438Y127564D01*
X550438Y126088D01*
X550438Y127062D02*
X545862Y127062D01*
D10*
X595138Y133510D02*
X595138Y135490D01*
X595138Y133510D02*
X586158Y133510D01*
X586158Y135490D01*
X595138Y135490D01*
X595138Y134479D02*
X586158Y134479D01*
X586158Y135448D02*
X595138Y135448D01*
X595138Y130490D02*
X595138Y128510D01*
X586158Y128510D01*
X586158Y130490D01*
X595138Y130490D01*
X595138Y129479D02*
X586158Y129479D01*
X586158Y130448D02*
X595138Y130448D01*
X595138Y156760D02*
X595138Y161740D01*
X595138Y156760D02*
X586158Y156760D01*
X586158Y161740D01*
X595138Y161740D01*
X595138Y157729D02*
X586158Y157729D01*
X586158Y158698D02*
X595138Y158698D01*
X595138Y159667D02*
X586158Y159667D01*
X586158Y160636D02*
X595138Y160636D01*
X595138Y161605D02*
X586158Y161605D01*
X595138Y153990D02*
X595138Y149010D01*
X586158Y149010D01*
X586158Y153990D01*
X595138Y153990D01*
X595138Y149979D02*
X586158Y149979D01*
X586158Y150948D02*
X595138Y150948D01*
X595138Y151917D02*
X586158Y151917D01*
X586158Y152886D02*
X595138Y152886D01*
X595138Y153855D02*
X586158Y153855D01*
X595138Y145490D02*
X595138Y143510D01*
X586158Y143510D01*
X586158Y145490D01*
X595138Y145490D01*
X595138Y144479D02*
X586158Y144479D01*
X586158Y145448D02*
X595138Y145448D01*
X595138Y140490D02*
X595138Y138510D01*
X586158Y138510D01*
X586158Y140490D01*
X595138Y140490D01*
X595138Y139479D02*
X586158Y139479D01*
X586158Y140448D02*
X595138Y140448D01*
X586158Y120490D02*
X586158Y118510D01*
X586158Y120490D02*
X595138Y120490D01*
X595138Y118510D01*
X586158Y118510D01*
X586158Y119479D02*
X595138Y119479D01*
X595138Y120448D02*
X586158Y120448D01*
X586158Y123510D02*
X586158Y125490D01*
X595138Y125490D01*
X595138Y123510D01*
X586158Y123510D01*
X586158Y124479D02*
X595138Y124479D01*
X595138Y125448D02*
X586158Y125448D01*
X586158Y97240D02*
X586158Y92260D01*
X586158Y97240D02*
X595138Y97240D01*
X595138Y92260D01*
X586158Y92260D01*
X586158Y93229D02*
X595138Y93229D01*
X595138Y94198D02*
X586158Y94198D01*
X586158Y95167D02*
X595138Y95167D01*
X595138Y96136D02*
X586158Y96136D01*
X586158Y97105D02*
X595138Y97105D01*
X586158Y100010D02*
X586158Y104990D01*
X595138Y104990D01*
X595138Y100010D01*
X586158Y100010D01*
X586158Y100979D02*
X595138Y100979D01*
X595138Y101948D02*
X586158Y101948D01*
X586158Y102917D02*
X595138Y102917D01*
X595138Y103886D02*
X586158Y103886D01*
X586158Y104855D02*
X595138Y104855D01*
X586158Y108510D02*
X586158Y110490D01*
X595138Y110490D01*
X595138Y108510D01*
X586158Y108510D01*
X586158Y109479D02*
X595138Y109479D01*
X595138Y110448D02*
X586158Y110448D01*
X586158Y113510D02*
X586158Y115490D01*
X595138Y115490D01*
X595138Y113510D01*
X586158Y113510D01*
X586158Y114479D02*
X595138Y114479D01*
X595138Y115448D02*
X586158Y115448D01*
X435406Y128494D02*
X435406Y133474D01*
X440386Y133474D01*
X440386Y128494D01*
X435406Y128494D01*
X435406Y129463D02*
X440386Y129463D01*
X440386Y130432D02*
X435406Y130432D01*
X435406Y131401D02*
X440386Y131401D01*
X440386Y132370D02*
X435406Y132370D01*
X435406Y133339D02*
X440386Y133339D01*
X435406Y123474D02*
X435406Y118494D01*
X435406Y123474D02*
X440386Y123474D01*
X440386Y118494D01*
X435406Y118494D01*
X435406Y119463D02*
X440386Y119463D01*
X440386Y120432D02*
X435406Y120432D01*
X435406Y121401D02*
X440386Y121401D01*
X440386Y122370D02*
X435406Y122370D01*
X435406Y123339D02*
X440386Y123339D01*
D19*
X564984Y266700D03*
D20*
X611884Y309750D03*
X611884Y223650D03*
D10*
X459984Y262024D02*
X459984Y269504D01*
X467964Y269504D01*
X467964Y262024D01*
X459984Y262024D01*
X459984Y262993D02*
X467964Y262993D01*
X467964Y263962D02*
X459984Y263962D01*
X459984Y264931D02*
X467964Y264931D01*
X467964Y265900D02*
X459984Y265900D01*
X459984Y266869D02*
X467964Y266869D01*
X467964Y267838D02*
X459984Y267838D01*
X459984Y268807D02*
X467964Y268807D01*
X459984Y257904D02*
X459984Y250424D01*
X459984Y257904D02*
X467964Y257904D01*
X467964Y250424D01*
X459984Y250424D01*
X459984Y251393D02*
X467964Y251393D01*
X467964Y252362D02*
X459984Y252362D01*
X459984Y253331D02*
X467964Y253331D01*
X467964Y254300D02*
X459984Y254300D01*
X459984Y255269D02*
X467964Y255269D01*
X467964Y256238D02*
X459984Y256238D01*
X459984Y257207D02*
X467964Y257207D01*
X470476Y224810D02*
X477956Y224810D01*
X470476Y224810D02*
X470476Y232790D01*
X477956Y232790D01*
X477956Y224810D01*
X477956Y225779D02*
X470476Y225779D01*
X470476Y226748D02*
X477956Y226748D01*
X477956Y227717D02*
X470476Y227717D01*
X470476Y228686D02*
X477956Y228686D01*
X477956Y229655D02*
X470476Y229655D01*
X470476Y230624D02*
X477956Y230624D01*
X477956Y231593D02*
X470476Y231593D01*
X470476Y232562D02*
X477956Y232562D01*
X482076Y224810D02*
X489556Y224810D01*
X482076Y224810D02*
X482076Y232790D01*
X489556Y232790D01*
X489556Y224810D01*
X489556Y225779D02*
X482076Y225779D01*
X482076Y226748D02*
X489556Y226748D01*
X489556Y227717D02*
X482076Y227717D01*
X482076Y228686D02*
X489556Y228686D01*
X489556Y229655D02*
X482076Y229655D01*
X482076Y230624D02*
X489556Y230624D01*
X489556Y231593D02*
X482076Y231593D01*
X482076Y232562D02*
X489556Y232562D01*
X458880Y232690D02*
X451400Y232690D01*
X458880Y232690D02*
X458880Y224710D01*
X451400Y224710D01*
X451400Y232690D01*
X451400Y225679D02*
X458880Y225679D01*
X458880Y226648D02*
X451400Y226648D01*
X451400Y227617D02*
X458880Y227617D01*
X458880Y228586D02*
X451400Y228586D01*
X451400Y229555D02*
X458880Y229555D01*
X458880Y230524D02*
X451400Y230524D01*
X451400Y231493D02*
X458880Y231493D01*
X458880Y232462D02*
X451400Y232462D01*
X447280Y232690D02*
X439800Y232690D01*
X447280Y232690D02*
X447280Y224710D01*
X439800Y224710D01*
X439800Y232690D01*
X439800Y225679D02*
X447280Y225679D01*
X447280Y226648D02*
X439800Y226648D01*
X439800Y227617D02*
X447280Y227617D01*
X447280Y228586D02*
X439800Y228586D01*
X439800Y229555D02*
X447280Y229555D01*
X447280Y230524D02*
X439800Y230524D01*
X439800Y231493D02*
X447280Y231493D01*
X447280Y232462D02*
X439800Y232462D01*
X65204Y264272D02*
X65204Y271752D01*
X65204Y264272D02*
X57224Y264272D01*
X57224Y271752D01*
X65204Y271752D01*
X65204Y265241D02*
X57224Y265241D01*
X57224Y266210D02*
X65204Y266210D01*
X65204Y267179D02*
X57224Y267179D01*
X57224Y268148D02*
X65204Y268148D01*
X65204Y269117D02*
X57224Y269117D01*
X57224Y270086D02*
X65204Y270086D01*
X65204Y271055D02*
X57224Y271055D01*
X65204Y275872D02*
X65204Y283352D01*
X65204Y275872D02*
X57224Y275872D01*
X57224Y283352D01*
X65204Y283352D01*
X65204Y276841D02*
X57224Y276841D01*
X57224Y277810D02*
X65204Y277810D01*
X65204Y278779D02*
X57224Y278779D01*
X57224Y279748D02*
X65204Y279748D01*
X65204Y280717D02*
X57224Y280717D01*
X57224Y281686D02*
X65204Y281686D01*
X65204Y282655D02*
X57224Y282655D01*
D15*
X270075Y164987D02*
X270075Y157977D01*
X265565Y157977D01*
X265565Y164987D01*
X270075Y164987D01*
X270075Y158917D02*
X265565Y158917D01*
X265565Y159857D02*
X270075Y159857D01*
X270075Y160797D02*
X265565Y160797D01*
X265565Y161737D02*
X270075Y161737D01*
X270075Y162677D02*
X265565Y162677D01*
X265565Y163617D02*
X270075Y163617D01*
X270075Y164557D02*
X265565Y164557D01*
D12*
X270070Y167482D02*
X270070Y171482D01*
X270070Y167482D02*
X265570Y167482D01*
X265570Y171482D01*
X270070Y171482D01*
X270070Y168432D02*
X265570Y168432D01*
X265570Y169382D02*
X270070Y169382D01*
X270070Y170332D02*
X265570Y170332D01*
X265570Y171282D02*
X270070Y171282D01*
X270070Y175482D02*
X270070Y179482D01*
X270070Y175482D02*
X265570Y175482D01*
X265570Y179482D01*
X270070Y179482D01*
X270070Y176432D02*
X265570Y176432D01*
X265570Y177382D02*
X270070Y177382D01*
X270070Y178332D02*
X265570Y178332D01*
X265570Y179282D02*
X270070Y179282D01*
D15*
X270075Y181977D02*
X270075Y188987D01*
X270075Y181977D02*
X265565Y181977D01*
X265565Y188987D01*
X270075Y188987D01*
X270075Y182917D02*
X265565Y182917D01*
X265565Y183857D02*
X270075Y183857D01*
X270075Y184797D02*
X265565Y184797D01*
X265565Y185737D02*
X270075Y185737D01*
X270075Y186677D02*
X265565Y186677D01*
X265565Y187617D02*
X270075Y187617D01*
X270075Y188557D02*
X265565Y188557D01*
X257075Y188987D02*
X257075Y181977D01*
X252565Y181977D01*
X252565Y188987D01*
X257075Y188987D01*
X257075Y182917D02*
X252565Y182917D01*
X252565Y183857D02*
X257075Y183857D01*
X257075Y184797D02*
X252565Y184797D01*
X252565Y185737D02*
X257075Y185737D01*
X257075Y186677D02*
X252565Y186677D01*
X252565Y187617D02*
X257075Y187617D01*
X257075Y188557D02*
X252565Y188557D01*
D12*
X257070Y179482D02*
X257070Y175482D01*
X252570Y175482D01*
X252570Y179482D01*
X257070Y179482D01*
X257070Y176432D02*
X252570Y176432D01*
X252570Y177382D02*
X257070Y177382D01*
X257070Y178332D02*
X252570Y178332D01*
X252570Y179282D02*
X257070Y179282D01*
X257070Y171482D02*
X257070Y167482D01*
X252570Y167482D01*
X252570Y171482D01*
X257070Y171482D01*
X257070Y168432D02*
X252570Y168432D01*
X252570Y169382D02*
X257070Y169382D01*
X257070Y170332D02*
X252570Y170332D01*
X252570Y171282D02*
X257070Y171282D01*
D15*
X257075Y164987D02*
X257075Y157977D01*
X252565Y157977D01*
X252565Y164987D01*
X257075Y164987D01*
X257075Y158917D02*
X252565Y158917D01*
X252565Y159857D02*
X257075Y159857D01*
X257075Y160797D02*
X252565Y160797D01*
X252565Y161737D02*
X257075Y161737D01*
X257075Y162677D02*
X252565Y162677D01*
X252565Y163617D02*
X257075Y163617D01*
X257075Y164557D02*
X252565Y164557D01*
D10*
X246560Y253350D02*
X246560Y260830D01*
X246560Y253350D02*
X238580Y253350D01*
X238580Y260830D01*
X246560Y260830D01*
X246560Y254319D02*
X238580Y254319D01*
X238580Y255288D02*
X246560Y255288D01*
X246560Y256257D02*
X238580Y256257D01*
X238580Y257226D02*
X246560Y257226D01*
X246560Y258195D02*
X238580Y258195D01*
X238580Y259164D02*
X246560Y259164D01*
X246560Y260133D02*
X238580Y260133D01*
X246560Y264950D02*
X246560Y272430D01*
X246560Y264950D02*
X238580Y264950D01*
X238580Y272430D01*
X246560Y272430D01*
X246560Y265919D02*
X238580Y265919D01*
X238580Y266888D02*
X246560Y266888D01*
X246560Y267857D02*
X238580Y267857D01*
X238580Y268826D02*
X246560Y268826D01*
X246560Y269795D02*
X238580Y269795D01*
X238580Y270764D02*
X246560Y270764D01*
X246560Y271733D02*
X238580Y271733D01*
X274878Y133982D02*
X274878Y129002D01*
X274878Y133982D02*
X279858Y133982D01*
X279858Y129002D01*
X274878Y129002D01*
X274878Y129971D02*
X279858Y129971D01*
X279858Y130940D02*
X274878Y130940D01*
X274878Y131909D02*
X279858Y131909D01*
X279858Y132878D02*
X274878Y132878D01*
X274878Y133847D02*
X279858Y133847D01*
X274878Y123982D02*
X274878Y119002D01*
X274878Y123982D02*
X279858Y123982D01*
X279858Y119002D01*
X274878Y119002D01*
X274878Y119971D02*
X279858Y119971D01*
X279858Y120940D02*
X274878Y120940D01*
X274878Y121909D02*
X279858Y121909D01*
X279858Y122878D02*
X274878Y122878D01*
X274878Y123847D02*
X279858Y123847D01*
X73190Y210870D02*
X73190Y215850D01*
X84170Y215850D01*
X84170Y210870D01*
X73190Y210870D01*
X73190Y211839D02*
X84170Y211839D01*
X84170Y212808D02*
X73190Y212808D01*
X73190Y213777D02*
X84170Y213777D01*
X84170Y214746D02*
X73190Y214746D01*
X73190Y215715D02*
X84170Y215715D01*
X73190Y203150D02*
X73190Y198170D01*
X73190Y203150D02*
X84170Y203150D01*
X84170Y198170D01*
X73190Y198170D01*
X73190Y199139D02*
X84170Y199139D01*
X84170Y200108D02*
X73190Y200108D01*
X73190Y201077D02*
X84170Y201077D01*
X84170Y202046D02*
X73190Y202046D01*
X73190Y203015D02*
X84170Y203015D01*
X73190Y190450D02*
X73190Y185470D01*
X73190Y190450D02*
X84170Y190450D01*
X84170Y185470D01*
X73190Y185470D01*
X73190Y186439D02*
X84170Y186439D01*
X84170Y187408D02*
X73190Y187408D01*
X73190Y188377D02*
X84170Y188377D01*
X84170Y189346D02*
X73190Y189346D01*
X73190Y190315D02*
X84170Y190315D01*
X73190Y177750D02*
X73190Y172770D01*
X73190Y177750D02*
X84170Y177750D01*
X84170Y172770D01*
X73190Y172770D01*
X73190Y173739D02*
X84170Y173739D01*
X84170Y174708D02*
X73190Y174708D01*
X73190Y175677D02*
X84170Y175677D01*
X84170Y176646D02*
X73190Y176646D01*
X73190Y177615D02*
X84170Y177615D01*
X129190Y177750D02*
X129190Y172770D01*
X129190Y177750D02*
X140170Y177750D01*
X140170Y172770D01*
X129190Y172770D01*
X129190Y173739D02*
X140170Y173739D01*
X140170Y174708D02*
X129190Y174708D01*
X129190Y175677D02*
X140170Y175677D01*
X140170Y176646D02*
X129190Y176646D01*
X129190Y177615D02*
X140170Y177615D01*
X129190Y185470D02*
X129190Y190450D01*
X140170Y190450D01*
X140170Y185470D01*
X129190Y185470D01*
X129190Y186439D02*
X140170Y186439D01*
X140170Y187408D02*
X129190Y187408D01*
X129190Y188377D02*
X140170Y188377D01*
X140170Y189346D02*
X129190Y189346D01*
X129190Y190315D02*
X140170Y190315D01*
X129190Y198170D02*
X129190Y203150D01*
X140170Y203150D01*
X140170Y198170D01*
X129190Y198170D01*
X129190Y199139D02*
X140170Y199139D01*
X140170Y200108D02*
X129190Y200108D01*
X129190Y201077D02*
X140170Y201077D01*
X140170Y202046D02*
X129190Y202046D01*
X129190Y203015D02*
X140170Y203015D01*
X129190Y210870D02*
X129190Y215850D01*
X140170Y215850D01*
X140170Y210870D01*
X129190Y210870D01*
X129190Y211839D02*
X140170Y211839D01*
X140170Y212808D02*
X129190Y212808D01*
X129190Y213777D02*
X140170Y213777D01*
X140170Y214746D02*
X129190Y214746D01*
X129190Y215715D02*
X140170Y215715D01*
X512752Y250048D02*
X512752Y257528D01*
X512752Y250048D02*
X504772Y250048D01*
X504772Y257528D01*
X512752Y257528D01*
X512752Y251017D02*
X504772Y251017D01*
X504772Y251986D02*
X512752Y251986D01*
X512752Y252955D02*
X504772Y252955D01*
X504772Y253924D02*
X512752Y253924D01*
X512752Y254893D02*
X504772Y254893D01*
X504772Y255862D02*
X512752Y255862D01*
X512752Y256831D02*
X504772Y256831D01*
X512752Y261648D02*
X512752Y269128D01*
X512752Y261648D02*
X504772Y261648D01*
X504772Y269128D01*
X512752Y269128D01*
X512752Y262617D02*
X504772Y262617D01*
X504772Y263586D02*
X512752Y263586D01*
X512752Y264555D02*
X504772Y264555D01*
X504772Y265524D02*
X512752Y265524D01*
X512752Y266493D02*
X504772Y266493D01*
X504772Y267462D02*
X512752Y267462D01*
X512752Y268431D02*
X504772Y268431D01*
M02*
