G04 EAGLE Gerber RS-274X export*
G75*
%MOMM*%
%FSLAX34Y34*%
%LPD*%
%INSilkscreen Bottom*%
%IPPOS*%
%AMOC8*
5,1,8,0,0,1.08239X$1,22.5*%
G01*
%ADD10C,0.203200*%
%ADD11C,0.152400*%

G36*
X219914Y59150D02*
X219914Y59150D01*
X220001Y59153D01*
X220001Y59154D01*
X220002Y59154D01*
X220077Y59195D01*
X220153Y59236D01*
X220153Y59237D01*
X220154Y59237D01*
X220205Y59309D01*
X220253Y59378D01*
X220253Y59379D01*
X220254Y59386D01*
X220280Y59520D01*
X220280Y87120D01*
X220276Y87140D01*
X220277Y87167D01*
X220077Y88767D01*
X220066Y88799D01*
X220058Y88848D01*
X219558Y90248D01*
X219550Y90260D01*
X219546Y90277D01*
X219046Y91377D01*
X219028Y91401D01*
X219012Y91438D01*
X218312Y92438D01*
X218293Y92455D01*
X218282Y92474D01*
X218260Y92490D01*
X218233Y92520D01*
X217333Y93220D01*
X217322Y93225D01*
X217311Y93236D01*
X216411Y93836D01*
X216380Y93848D01*
X216341Y93873D01*
X215341Y94273D01*
X215326Y94275D01*
X215309Y94284D01*
X214309Y94584D01*
X214290Y94585D01*
X214268Y94594D01*
X213168Y94794D01*
X213139Y94793D01*
X213100Y94800D01*
X211400Y94800D01*
X211377Y94795D01*
X211346Y94796D01*
X210646Y94696D01*
X210613Y94683D01*
X210559Y94673D01*
X210069Y94477D01*
X209838Y94400D01*
X209700Y94400D01*
X209531Y94361D01*
X209398Y94251D01*
X209327Y94092D01*
X209333Y93919D01*
X209416Y93767D01*
X209558Y93667D01*
X209679Y93644D01*
X209889Y93504D01*
X209920Y93492D01*
X210008Y93451D01*
X210333Y93370D01*
X210672Y93116D01*
X210688Y93109D01*
X210704Y93094D01*
X211664Y92518D01*
X211998Y92184D01*
X212252Y91760D01*
X212420Y91258D01*
X212420Y90682D01*
X212251Y90176D01*
X211886Y89538D01*
X211439Y89001D01*
X210810Y88552D01*
X209972Y88179D01*
X208961Y87903D01*
X207461Y87997D01*
X206047Y88374D01*
X204961Y89008D01*
X204234Y90008D01*
X203786Y91083D01*
X203875Y92334D01*
X204429Y93719D01*
X205678Y95161D01*
X207369Y96851D01*
X207383Y96873D01*
X207408Y96897D01*
X208708Y98697D01*
X208714Y98712D01*
X208728Y98727D01*
X209728Y100427D01*
X209739Y100464D01*
X209771Y100538D01*
X210171Y102338D01*
X210171Y102371D01*
X210180Y102420D01*
X210180Y104120D01*
X210171Y104158D01*
X210163Y104233D01*
X209663Y105833D01*
X209643Y105867D01*
X209613Y105935D01*
X208513Y107535D01*
X208486Y107560D01*
X208452Y107605D01*
X206752Y109105D01*
X206717Y109124D01*
X206664Y109163D01*
X204364Y110263D01*
X204331Y110270D01*
X204284Y110291D01*
X202084Y110791D01*
X202046Y110791D01*
X201981Y110800D01*
X199981Y110700D01*
X199955Y110692D01*
X199918Y110691D01*
X198118Y110291D01*
X198087Y110277D01*
X198039Y110265D01*
X196539Y109565D01*
X196535Y109562D01*
X196530Y109560D01*
X195996Y109293D01*
X195330Y108960D01*
X195308Y108942D01*
X195272Y108924D01*
X194472Y108324D01*
X194457Y108306D01*
X194431Y108289D01*
X194231Y108089D01*
X194218Y108067D01*
X194198Y108051D01*
X194172Y107994D01*
X194140Y107942D01*
X194137Y107916D01*
X194127Y107892D01*
X194129Y107831D01*
X194123Y107769D01*
X194132Y107745D01*
X194133Y107719D01*
X194163Y107665D01*
X194185Y107607D01*
X194204Y107590D01*
X194216Y107567D01*
X194267Y107532D01*
X194312Y107490D01*
X194337Y107482D01*
X194358Y107467D01*
X194442Y107451D01*
X194478Y107440D01*
X194488Y107442D01*
X194500Y107440D01*
X194600Y107440D01*
X194636Y107448D01*
X194692Y107451D01*
X195078Y107548D01*
X195631Y107640D01*
X196276Y107640D01*
X197015Y107547D01*
X197854Y107268D01*
X198588Y106901D01*
X199228Y106352D01*
X199689Y105799D01*
X199952Y105360D01*
X200120Y104858D01*
X200120Y103782D01*
X199951Y103276D01*
X199579Y102626D01*
X199109Y101967D01*
X197954Y100811D01*
X197295Y100341D01*
X196620Y99955D01*
X196284Y99787D01*
X195848Y99569D01*
X195105Y99291D01*
X194473Y99200D01*
X193978Y99200D01*
X193397Y99449D01*
X193003Y99765D01*
X192752Y100266D01*
X192580Y100782D01*
X192580Y101758D01*
X192661Y102000D01*
X192663Y102021D01*
X192669Y102036D01*
X192668Y102059D01*
X192680Y102120D01*
X192680Y102320D01*
X192666Y102383D01*
X192658Y102447D01*
X192646Y102466D01*
X192641Y102489D01*
X192600Y102539D01*
X192565Y102593D01*
X192545Y102605D01*
X192531Y102622D01*
X192472Y102649D01*
X192417Y102682D01*
X192394Y102684D01*
X192372Y102693D01*
X192308Y102691D01*
X192244Y102696D01*
X192219Y102687D01*
X192199Y102687D01*
X192166Y102668D01*
X192107Y102648D01*
X190407Y101648D01*
X190379Y101621D01*
X190323Y101581D01*
X188723Y99881D01*
X188707Y99852D01*
X188675Y99818D01*
X187275Y97518D01*
X187265Y97486D01*
X187241Y97444D01*
X186241Y94544D01*
X186238Y94516D01*
X186224Y94479D01*
X185724Y91279D01*
X185727Y91246D01*
X185720Y91198D01*
X185920Y87698D01*
X185930Y87667D01*
X185933Y87621D01*
X186933Y83921D01*
X186950Y83889D01*
X186968Y83835D01*
X188968Y80235D01*
X188985Y80217D01*
X189000Y80187D01*
X190400Y78387D01*
X190412Y78377D01*
X190423Y78360D01*
X191923Y76760D01*
X191941Y76748D01*
X191958Y76726D01*
X193658Y75326D01*
X193677Y75317D01*
X193697Y75299D01*
X195597Y74099D01*
X195625Y74089D01*
X195659Y74067D01*
X197659Y73267D01*
X197671Y73265D01*
X197685Y73258D01*
X199885Y72558D01*
X199914Y72555D01*
X199953Y72543D01*
X202353Y72243D01*
X202374Y72245D01*
X202400Y72240D01*
X206153Y72240D01*
X207267Y71961D01*
X208212Y71489D01*
X209269Y70816D01*
X210231Y69950D01*
X211219Y68864D01*
X211220Y68863D01*
X211221Y68862D01*
X212415Y67568D01*
X213611Y66173D01*
X213617Y66169D01*
X213621Y66162D01*
X214820Y64863D01*
X217020Y62463D01*
X217908Y61476D01*
X218600Y60587D01*
X218606Y60581D01*
X218611Y60573D01*
X219203Y59882D01*
X219475Y59519D01*
X219559Y59351D01*
X219560Y59350D01*
X219612Y59287D01*
X219669Y59218D01*
X219670Y59217D01*
X219671Y59217D01*
X219746Y59183D01*
X219828Y59147D01*
X219829Y59146D01*
X219914Y59150D01*
G37*
G36*
X311329Y8251D02*
X311329Y8251D01*
X311401Y8253D01*
X311415Y8261D01*
X311430Y8263D01*
X311545Y8332D01*
X311553Y8336D01*
X311553Y8337D01*
X311554Y8337D01*
X312546Y9230D01*
X313538Y10023D01*
X313544Y10031D01*
X313554Y10037D01*
X314554Y10937D01*
X314560Y10945D01*
X314569Y10951D01*
X315454Y11836D01*
X316438Y12623D01*
X316444Y12631D01*
X316454Y12637D01*
X317453Y13536D01*
X318353Y14336D01*
X318353Y14337D01*
X318354Y14337D01*
X319354Y15237D01*
X319405Y15310D01*
X319453Y15378D01*
X319453Y15379D01*
X319453Y15380D01*
X319455Y15388D01*
X319480Y15520D01*
X319480Y52420D01*
X319478Y52429D01*
X319480Y52439D01*
X319458Y52513D01*
X319441Y52589D01*
X319435Y52596D01*
X319432Y52605D01*
X319380Y52663D01*
X319331Y52722D01*
X319322Y52726D01*
X319315Y52733D01*
X319183Y52791D01*
X317383Y53191D01*
X317363Y53191D01*
X317338Y53198D01*
X316360Y53296D01*
X315483Y53491D01*
X315464Y53491D01*
X315442Y53498D01*
X314562Y53596D01*
X313683Y53791D01*
X313679Y53791D01*
X313675Y53793D01*
X312675Y53993D01*
X312660Y53992D01*
X312642Y53998D01*
X311742Y54098D01*
X311671Y54089D01*
X311599Y54087D01*
X311586Y54079D01*
X311570Y54077D01*
X311510Y54038D01*
X311447Y54004D01*
X311438Y53991D01*
X311425Y53983D01*
X311389Y53921D01*
X311347Y53862D01*
X311344Y53845D01*
X311337Y53833D01*
X311334Y53794D01*
X311320Y53720D01*
X311320Y51289D01*
X311208Y51444D01*
X311197Y51453D01*
X311193Y51461D01*
X311183Y51468D01*
X311169Y51489D01*
X310269Y52389D01*
X310260Y52394D01*
X310253Y52404D01*
X309353Y53204D01*
X309326Y53218D01*
X309296Y53246D01*
X308296Y53846D01*
X308267Y53855D01*
X308230Y53877D01*
X307130Y54277D01*
X307125Y54278D01*
X307120Y54281D01*
X305920Y54681D01*
X305884Y54684D01*
X305829Y54699D01*
X304531Y54799D01*
X303332Y54899D01*
X303303Y54895D01*
X303263Y54898D01*
X300163Y54598D01*
X300131Y54587D01*
X300080Y54581D01*
X297380Y53681D01*
X297347Y53660D01*
X297286Y53634D01*
X295086Y52134D01*
X295063Y52110D01*
X295024Y52082D01*
X293224Y50182D01*
X293207Y50153D01*
X293175Y50118D01*
X291775Y47818D01*
X291765Y47788D01*
X291742Y47749D01*
X290842Y45249D01*
X290840Y45227D01*
X290828Y45200D01*
X290228Y42400D01*
X290229Y42376D01*
X290221Y42345D01*
X290021Y39345D01*
X290024Y39323D01*
X290021Y39293D01*
X290221Y36493D01*
X290228Y36470D01*
X290229Y36438D01*
X290829Y33738D01*
X290839Y33717D01*
X290844Y33687D01*
X291744Y31287D01*
X291762Y31259D01*
X291779Y31216D01*
X293179Y29016D01*
X293198Y28997D01*
X293217Y28966D01*
X294917Y27066D01*
X294948Y27044D01*
X294996Y26999D01*
X297196Y25599D01*
X297228Y25588D01*
X297271Y25562D01*
X299771Y24662D01*
X299807Y24658D01*
X299861Y24642D01*
X302761Y24342D01*
X302790Y24345D01*
X302829Y24341D01*
X304129Y24441D01*
X304144Y24445D01*
X304163Y24445D01*
X305363Y24645D01*
X305375Y24650D01*
X305392Y24651D01*
X306592Y24951D01*
X306618Y24965D01*
X306657Y24974D01*
X307757Y25474D01*
X307767Y25481D01*
X307782Y25486D01*
X308882Y26086D01*
X308896Y26099D01*
X308918Y26109D01*
X309918Y26809D01*
X309942Y26835D01*
X309984Y26867D01*
X310784Y27767D01*
X310788Y27775D01*
X310797Y27782D01*
X310920Y27936D01*
X310920Y8620D01*
X310923Y8605D01*
X310921Y8589D01*
X310943Y8521D01*
X310959Y8451D01*
X310969Y8439D01*
X310974Y8424D01*
X311024Y8373D01*
X311069Y8318D01*
X311084Y8311D01*
X311095Y8300D01*
X311162Y8276D01*
X311228Y8247D01*
X311243Y8247D01*
X311258Y8242D01*
X311329Y8251D01*
G37*
G36*
X279516Y24244D02*
X279516Y24244D01*
X279538Y24242D01*
X280538Y24342D01*
X280557Y24348D01*
X280583Y24349D01*
X282383Y24749D01*
X282398Y24756D01*
X282420Y24759D01*
X283320Y25059D01*
X283340Y25072D01*
X283370Y25080D01*
X284050Y25420D01*
X284170Y25480D01*
X284177Y25486D01*
X284189Y25490D01*
X284889Y25890D01*
X284901Y25902D01*
X284921Y25911D01*
X285621Y26411D01*
X285630Y26420D01*
X285643Y26428D01*
X286243Y26928D01*
X286266Y26958D01*
X286309Y26999D01*
X286801Y27688D01*
X287292Y28277D01*
X287308Y28308D01*
X287340Y28350D01*
X287740Y29150D01*
X287744Y29167D01*
X287756Y29187D01*
X288056Y29987D01*
X288058Y29998D01*
X288064Y30011D01*
X288364Y31011D01*
X288366Y31040D01*
X288378Y31078D01*
X288478Y31978D01*
X288478Y31982D01*
X288479Y31986D01*
X288579Y33086D01*
X288574Y33120D01*
X288577Y33171D01*
X288277Y35371D01*
X288265Y35401D01*
X288259Y35447D01*
X287659Y37147D01*
X287640Y37176D01*
X287620Y37226D01*
X286720Y38626D01*
X286692Y38653D01*
X286646Y38710D01*
X285346Y39810D01*
X285326Y39820D01*
X285306Y39840D01*
X283906Y40740D01*
X283874Y40751D01*
X283834Y40776D01*
X282234Y41376D01*
X282212Y41379D01*
X282187Y41390D01*
X280487Y41790D01*
X280476Y41790D01*
X280463Y41795D01*
X278663Y42095D01*
X278653Y42094D01*
X278642Y42098D01*
X276843Y42298D01*
X275144Y42498D01*
X273580Y42693D01*
X272317Y43082D01*
X271154Y43470D01*
X270356Y43913D01*
X269868Y44563D01*
X269780Y45439D01*
X269780Y45989D01*
X269873Y46542D01*
X269959Y46887D01*
X270330Y47629D01*
X270496Y47878D01*
X270742Y48125D01*
X270991Y48291D01*
X271333Y48461D01*
X271692Y48551D01*
X271722Y48567D01*
X271770Y48580D01*
X271841Y48615D01*
X272090Y48740D01*
X272400Y48740D01*
X272430Y48747D01*
X272475Y48747D01*
X273438Y48940D01*
X274869Y48940D01*
X275431Y48846D01*
X275917Y48749D01*
X276308Y48651D01*
X276316Y48651D01*
X276325Y48647D01*
X276776Y48557D01*
X277109Y48391D01*
X277389Y48204D01*
X277409Y48196D01*
X277430Y48180D01*
X277775Y48008D01*
X278288Y47495D01*
X278837Y46396D01*
X278927Y45945D01*
X278939Y45919D01*
X278947Y45879D01*
X279120Y45447D01*
X279120Y45020D01*
X279131Y44970D01*
X279133Y44919D01*
X279151Y44887D01*
X279159Y44851D01*
X279192Y44812D01*
X279216Y44767D01*
X279246Y44746D01*
X279269Y44718D01*
X279316Y44697D01*
X279358Y44667D01*
X279400Y44659D01*
X279428Y44647D01*
X279458Y44648D01*
X279500Y44640D01*
X287300Y44640D01*
X287377Y44658D01*
X287455Y44673D01*
X287461Y44677D01*
X287469Y44679D01*
X287530Y44730D01*
X287593Y44778D01*
X287597Y44785D01*
X287602Y44789D01*
X287635Y44862D01*
X287670Y44933D01*
X287670Y44941D01*
X287673Y44948D01*
X287672Y44981D01*
X287676Y45078D01*
X287476Y46378D01*
X287471Y46390D01*
X287471Y46395D01*
X287470Y46397D01*
X287469Y46412D01*
X287169Y47612D01*
X287159Y47632D01*
X287153Y47661D01*
X286753Y48661D01*
X286745Y48673D01*
X286740Y48690D01*
X286240Y49690D01*
X286227Y49706D01*
X286216Y49731D01*
X285616Y50631D01*
X285600Y50646D01*
X285586Y50670D01*
X284886Y51470D01*
X284855Y51493D01*
X284811Y51536D01*
X283011Y52736D01*
X282998Y52741D01*
X282985Y52752D01*
X282085Y53252D01*
X282077Y53254D01*
X282070Y53260D01*
X281070Y53760D01*
X281040Y53767D01*
X281000Y53787D01*
X278800Y54387D01*
X278783Y54387D01*
X278763Y54395D01*
X277563Y54595D01*
X277550Y54594D01*
X277534Y54599D01*
X276434Y54699D01*
X276433Y54699D01*
X276432Y54699D01*
X275232Y54799D01*
X275217Y54797D01*
X275200Y54800D01*
X271800Y54800D01*
X271784Y54796D01*
X271762Y54798D01*
X270762Y54698D01*
X270749Y54694D01*
X270732Y54694D01*
X268532Y54294D01*
X268529Y54293D01*
X268525Y54293D01*
X267525Y54093D01*
X267511Y54086D01*
X267491Y54084D01*
X266491Y53784D01*
X266472Y53774D01*
X266446Y53767D01*
X265546Y53367D01*
X265534Y53358D01*
X265515Y53352D01*
X264615Y52852D01*
X264599Y52837D01*
X264572Y52824D01*
X263772Y52224D01*
X263765Y52216D01*
X263753Y52209D01*
X263053Y51609D01*
X263032Y51581D01*
X262996Y51548D01*
X262396Y50748D01*
X262390Y50735D01*
X262378Y50722D01*
X261878Y49922D01*
X261865Y49885D01*
X261836Y49829D01*
X261536Y48829D01*
X261536Y48825D01*
X261533Y48820D01*
X261233Y47720D01*
X261232Y47682D01*
X261220Y47620D01*
X261220Y30758D01*
X261127Y30295D01*
X261128Y30263D01*
X261120Y30220D01*
X261120Y28958D01*
X261027Y28495D01*
X261028Y28463D01*
X261020Y28420D01*
X261020Y28067D01*
X260731Y26912D01*
X260731Y26876D01*
X260720Y26820D01*
X260720Y26582D01*
X260655Y26389D01*
X260484Y26131D01*
X260470Y26095D01*
X260439Y26040D01*
X260348Y25766D01*
X260260Y25590D01*
X260248Y25540D01*
X260227Y25492D01*
X260228Y25457D01*
X260220Y25422D01*
X260231Y25371D01*
X260233Y25319D01*
X260251Y25288D01*
X260259Y25253D01*
X260291Y25213D01*
X260316Y25167D01*
X260345Y25146D01*
X260368Y25119D01*
X260415Y25097D01*
X260458Y25067D01*
X260499Y25059D01*
X260526Y25047D01*
X260557Y25048D01*
X260600Y25040D01*
X268500Y25040D01*
X268550Y25051D01*
X268601Y25053D01*
X268633Y25071D01*
X268669Y25079D01*
X268708Y25112D01*
X268753Y25136D01*
X268774Y25166D01*
X268802Y25189D01*
X268823Y25236D01*
X268853Y25278D01*
X268861Y25320D01*
X268873Y25348D01*
X268872Y25378D01*
X268880Y25420D01*
X268880Y25469D01*
X268909Y25516D01*
X268953Y25578D01*
X268955Y25590D01*
X268960Y25598D01*
X268964Y25635D01*
X268980Y25720D01*
X268980Y25830D01*
X269013Y25895D01*
X269069Y25951D01*
X269109Y26016D01*
X269153Y26078D01*
X269155Y26090D01*
X269160Y26098D01*
X269164Y26135D01*
X269180Y26220D01*
X269180Y26469D01*
X269209Y26516D01*
X269253Y26578D01*
X269255Y26590D01*
X269260Y26598D01*
X269264Y26635D01*
X269280Y26720D01*
X269280Y27030D01*
X269340Y27150D01*
X269344Y27165D01*
X269353Y27178D01*
X269377Y27305D01*
X269731Y26951D01*
X269747Y26941D01*
X269762Y26923D01*
X270262Y26523D01*
X270283Y26513D01*
X270304Y26494D01*
X270804Y26194D01*
X270817Y26190D01*
X270830Y26180D01*
X272630Y25280D01*
X272653Y25274D01*
X272680Y25259D01*
X273880Y24859D01*
X273905Y24857D01*
X273938Y24845D01*
X274516Y24749D01*
X275196Y24554D01*
X275215Y24553D01*
X275238Y24545D01*
X275838Y24445D01*
X275842Y24445D01*
X275846Y24444D01*
X276546Y24344D01*
X276570Y24346D01*
X276600Y24340D01*
X277173Y24340D01*
X277846Y24244D01*
X277870Y24246D01*
X277900Y24240D01*
X279500Y24240D01*
X279516Y24244D01*
G37*
G36*
X217432Y25147D02*
X217432Y25147D01*
X217466Y25145D01*
X217516Y25167D01*
X217569Y25179D01*
X217594Y25200D01*
X217625Y25213D01*
X217672Y25265D01*
X217702Y25289D01*
X217709Y25305D01*
X217723Y25320D01*
X225275Y37519D01*
X227820Y35059D01*
X227820Y25520D01*
X227831Y25470D01*
X227833Y25419D01*
X227851Y25387D01*
X227859Y25351D01*
X227892Y25312D01*
X227916Y25267D01*
X227946Y25246D01*
X227969Y25218D01*
X228016Y25197D01*
X228058Y25167D01*
X228100Y25159D01*
X228128Y25147D01*
X228158Y25148D01*
X228200Y25140D01*
X236000Y25140D01*
X236050Y25151D01*
X236101Y25153D01*
X236133Y25171D01*
X236169Y25179D01*
X236208Y25212D01*
X236253Y25236D01*
X236274Y25266D01*
X236302Y25289D01*
X236323Y25336D01*
X236353Y25378D01*
X236361Y25420D01*
X236373Y25448D01*
X236372Y25478D01*
X236380Y25520D01*
X236380Y60220D01*
X236371Y60262D01*
X236371Y60304D01*
X236351Y60345D01*
X236341Y60389D01*
X236314Y60422D01*
X236295Y60460D01*
X236253Y60495D01*
X236231Y60522D01*
X236208Y60532D01*
X236184Y60553D01*
X228384Y64853D01*
X228327Y64869D01*
X228272Y64893D01*
X228244Y64892D01*
X228217Y64900D01*
X228159Y64889D01*
X228099Y64887D01*
X228074Y64873D01*
X228047Y64868D01*
X227999Y64832D01*
X227947Y64804D01*
X227931Y64781D01*
X227908Y64764D01*
X227881Y64711D01*
X227847Y64662D01*
X227841Y64631D01*
X227830Y64609D01*
X227830Y64573D01*
X227820Y64520D01*
X227820Y44558D01*
X218673Y53985D01*
X218607Y54027D01*
X218542Y54073D01*
X218533Y54074D01*
X218527Y54078D01*
X218493Y54082D01*
X218400Y54100D01*
X209200Y54100D01*
X209172Y54094D01*
X209144Y54096D01*
X209089Y54074D01*
X209031Y54061D01*
X209009Y54043D01*
X208983Y54032D01*
X208943Y53988D01*
X208898Y53951D01*
X208886Y53925D01*
X208867Y53903D01*
X208851Y53846D01*
X208827Y53792D01*
X208828Y53764D01*
X208820Y53737D01*
X208831Y53679D01*
X208833Y53619D01*
X208847Y53594D01*
X208852Y53566D01*
X208898Y53501D01*
X208916Y53467D01*
X208926Y53460D01*
X208935Y53447D01*
X219408Y43268D01*
X207684Y25731D01*
X207657Y25661D01*
X207627Y25592D01*
X207627Y25580D01*
X207623Y25569D01*
X207630Y25494D01*
X207633Y25419D01*
X207639Y25409D01*
X207640Y25397D01*
X207680Y25333D01*
X207716Y25267D01*
X207726Y25260D01*
X207732Y25250D01*
X207796Y25211D01*
X207858Y25167D01*
X207871Y25165D01*
X207880Y25159D01*
X207918Y25156D01*
X208000Y25140D01*
X217400Y25140D01*
X217432Y25147D01*
G37*
G36*
X138550Y25151D02*
X138550Y25151D01*
X138601Y25153D01*
X138633Y25171D01*
X138669Y25179D01*
X138708Y25212D01*
X138753Y25236D01*
X138774Y25266D01*
X138802Y25289D01*
X138823Y25336D01*
X138853Y25378D01*
X138861Y25420D01*
X138873Y25448D01*
X138872Y25478D01*
X138880Y25520D01*
X138880Y41409D01*
X138979Y43082D01*
X139174Y44447D01*
X139459Y45587D01*
X139913Y46495D01*
X140531Y47113D01*
X141364Y47576D01*
X142287Y47945D01*
X143501Y48039D01*
X144830Y47944D01*
X146044Y47570D01*
X146974Y47012D01*
X147798Y46280D01*
X148346Y45275D01*
X148729Y43935D01*
X149021Y42277D01*
X149120Y40310D01*
X149120Y25520D01*
X149131Y25470D01*
X149133Y25419D01*
X149151Y25387D01*
X149159Y25351D01*
X149192Y25312D01*
X149216Y25267D01*
X149246Y25246D01*
X149269Y25218D01*
X149316Y25197D01*
X149358Y25167D01*
X149400Y25159D01*
X149428Y25147D01*
X149458Y25148D01*
X149500Y25140D01*
X157300Y25140D01*
X157350Y25151D01*
X157401Y25153D01*
X157433Y25171D01*
X157469Y25179D01*
X157508Y25212D01*
X157553Y25236D01*
X157574Y25266D01*
X157602Y25289D01*
X157623Y25336D01*
X157653Y25378D01*
X157661Y25420D01*
X157673Y25448D01*
X157672Y25478D01*
X157680Y25520D01*
X157680Y50220D01*
X157679Y50225D01*
X157680Y50231D01*
X157580Y53731D01*
X157568Y53775D01*
X157567Y53821D01*
X157547Y53858D01*
X157536Y53898D01*
X157506Y53933D01*
X157484Y53973D01*
X157450Y53997D01*
X157422Y54029D01*
X157380Y54046D01*
X157342Y54073D01*
X157293Y54082D01*
X157262Y54095D01*
X157235Y54093D01*
X157200Y54100D01*
X149800Y54100D01*
X149750Y54089D01*
X149699Y54087D01*
X149667Y54069D01*
X149631Y54061D01*
X149592Y54028D01*
X149547Y54004D01*
X149526Y53974D01*
X149498Y53951D01*
X149477Y53904D01*
X149447Y53862D01*
X149439Y53820D01*
X149427Y53792D01*
X149428Y53762D01*
X149420Y53720D01*
X149420Y50852D01*
X149208Y51144D01*
X149194Y51155D01*
X149183Y51174D01*
X148283Y52174D01*
X148261Y52190D01*
X148238Y52217D01*
X147238Y53017D01*
X147221Y53025D01*
X147204Y53041D01*
X146104Y53741D01*
X146078Y53750D01*
X146046Y53771D01*
X144846Y54271D01*
X144822Y54275D01*
X144792Y54289D01*
X143592Y54589D01*
X143578Y54589D01*
X143563Y54595D01*
X142363Y54795D01*
X142349Y54794D01*
X142332Y54799D01*
X141132Y54899D01*
X141106Y54895D01*
X141073Y54899D01*
X138273Y54699D01*
X138245Y54691D01*
X138204Y54688D01*
X135904Y54088D01*
X135871Y54071D01*
X135815Y54052D01*
X134015Y53052D01*
X133987Y53026D01*
X133931Y52989D01*
X132531Y51589D01*
X132511Y51557D01*
X132472Y51513D01*
X131472Y49813D01*
X131462Y49778D01*
X131436Y49729D01*
X130836Y47729D01*
X130835Y47710D01*
X130826Y47688D01*
X130426Y45488D01*
X130427Y45465D01*
X130420Y45435D01*
X130320Y42935D01*
X130321Y42928D01*
X130320Y42920D01*
X130320Y25520D01*
X130331Y25470D01*
X130333Y25419D01*
X130351Y25387D01*
X130359Y25351D01*
X130392Y25312D01*
X130416Y25267D01*
X130446Y25246D01*
X130469Y25218D01*
X130516Y25197D01*
X130558Y25167D01*
X130600Y25159D01*
X130628Y25147D01*
X130658Y25148D01*
X130700Y25140D01*
X138500Y25140D01*
X138550Y25151D01*
G37*
G36*
X180427Y24541D02*
X180427Y24541D01*
X180455Y24549D01*
X180496Y24552D01*
X182796Y25152D01*
X182829Y25169D01*
X182885Y25188D01*
X184685Y26188D01*
X184713Y26214D01*
X184769Y26251D01*
X186169Y27651D01*
X186190Y27684D01*
X186236Y27742D01*
X187136Y29442D01*
X187142Y29466D01*
X187159Y29494D01*
X187859Y31494D01*
X187862Y31526D01*
X187877Y31569D01*
X188177Y33769D01*
X188175Y33785D01*
X188180Y33805D01*
X188280Y36305D01*
X188279Y36312D01*
X188280Y36320D01*
X188280Y53720D01*
X188269Y53770D01*
X188267Y53821D01*
X188249Y53853D01*
X188241Y53889D01*
X188208Y53928D01*
X188184Y53973D01*
X188154Y53994D01*
X188131Y54022D01*
X188084Y54043D01*
X188042Y54073D01*
X188000Y54081D01*
X187972Y54093D01*
X187942Y54092D01*
X187900Y54100D01*
X180200Y54100D01*
X180150Y54089D01*
X180099Y54087D01*
X180067Y54069D01*
X180031Y54061D01*
X179992Y54028D01*
X179947Y54004D01*
X179926Y53974D01*
X179898Y53951D01*
X179877Y53904D01*
X179847Y53862D01*
X179839Y53820D01*
X179827Y53792D01*
X179828Y53762D01*
X179820Y53720D01*
X179820Y37831D01*
X179721Y36158D01*
X179528Y34808D01*
X179148Y33666D01*
X178681Y32732D01*
X178145Y32107D01*
X177340Y31571D01*
X176334Y31296D01*
X175197Y31201D01*
X173774Y31296D01*
X172652Y31670D01*
X171630Y32228D01*
X170908Y32950D01*
X170348Y33976D01*
X169869Y35318D01*
X169580Y36953D01*
X169580Y53720D01*
X169569Y53770D01*
X169567Y53821D01*
X169549Y53853D01*
X169541Y53889D01*
X169508Y53928D01*
X169484Y53973D01*
X169454Y53994D01*
X169431Y54022D01*
X169384Y54043D01*
X169342Y54073D01*
X169300Y54081D01*
X169272Y54093D01*
X169242Y54092D01*
X169200Y54100D01*
X161400Y54100D01*
X161350Y54089D01*
X161299Y54087D01*
X161267Y54069D01*
X161231Y54061D01*
X161192Y54028D01*
X161147Y54004D01*
X161126Y53974D01*
X161098Y53951D01*
X161077Y53904D01*
X161047Y53862D01*
X161039Y53820D01*
X161027Y53792D01*
X161028Y53762D01*
X161020Y53720D01*
X161020Y29020D01*
X161021Y29015D01*
X161020Y29009D01*
X161120Y25509D01*
X161132Y25465D01*
X161133Y25419D01*
X161153Y25382D01*
X161164Y25342D01*
X161194Y25307D01*
X161216Y25267D01*
X161250Y25243D01*
X161278Y25211D01*
X161320Y25194D01*
X161358Y25167D01*
X161407Y25158D01*
X161438Y25145D01*
X161465Y25147D01*
X161500Y25140D01*
X168900Y25140D01*
X168950Y25151D01*
X169001Y25153D01*
X169033Y25171D01*
X169069Y25179D01*
X169108Y25212D01*
X169153Y25236D01*
X169174Y25266D01*
X169202Y25289D01*
X169223Y25336D01*
X169253Y25378D01*
X169261Y25420D01*
X169273Y25448D01*
X169272Y25478D01*
X169280Y25520D01*
X169280Y28251D01*
X169392Y28096D01*
X169412Y28080D01*
X169431Y28051D01*
X170431Y27051D01*
X170447Y27041D01*
X170462Y27023D01*
X171462Y26223D01*
X171479Y26215D01*
X171496Y26199D01*
X172596Y25499D01*
X172618Y25491D01*
X172643Y25474D01*
X173743Y24974D01*
X173771Y24968D01*
X173808Y24951D01*
X175008Y24651D01*
X175024Y24651D01*
X175042Y24644D01*
X176342Y24444D01*
X176354Y24445D01*
X176368Y24441D01*
X177568Y24341D01*
X177594Y24345D01*
X177627Y24341D01*
X180427Y24541D01*
G37*
G36*
X337616Y24440D02*
X337616Y24440D01*
X337636Y24446D01*
X337663Y24445D01*
X340063Y24845D01*
X340084Y24854D01*
X340115Y24858D01*
X342315Y25558D01*
X342337Y25571D01*
X342370Y25580D01*
X343011Y25900D01*
X343771Y26280D01*
X343771Y26281D01*
X344370Y26580D01*
X344393Y26599D01*
X344431Y26618D01*
X346131Y27918D01*
X346155Y27947D01*
X346202Y27989D01*
X347502Y29689D01*
X347518Y29724D01*
X347552Y29776D01*
X348452Y31976D01*
X348457Y32011D01*
X348475Y32060D01*
X348875Y34560D01*
X348870Y34640D01*
X348867Y34721D01*
X348864Y34726D01*
X348863Y34733D01*
X348822Y34802D01*
X348784Y34873D01*
X348779Y34877D01*
X348775Y34882D01*
X348708Y34927D01*
X348642Y34973D01*
X348635Y34974D01*
X348631Y34977D01*
X348600Y34981D01*
X348500Y35000D01*
X341100Y35000D01*
X341067Y34993D01*
X341033Y34994D01*
X340984Y34973D01*
X340931Y34961D01*
X340905Y34939D01*
X340874Y34926D01*
X340839Y34885D01*
X340798Y34851D01*
X340784Y34820D01*
X340762Y34794D01*
X340743Y34728D01*
X340727Y34692D01*
X340727Y34683D01*
X340726Y34679D01*
X340726Y34670D01*
X340721Y34654D01*
X340626Y33610D01*
X340266Y32708D01*
X339720Y31980D01*
X338980Y31333D01*
X338151Y30872D01*
X337208Y30589D01*
X336247Y30397D01*
X335084Y30300D01*
X334342Y30300D01*
X333488Y30490D01*
X332733Y30679D01*
X331980Y31055D01*
X331346Y31417D01*
X330832Y32017D01*
X330565Y32728D01*
X330391Y33515D01*
X330556Y34177D01*
X330891Y34763D01*
X331601Y35295D01*
X331823Y35406D01*
X331823Y35407D01*
X332558Y35774D01*
X333723Y36259D01*
X335190Y36651D01*
X336983Y37049D01*
X336987Y37051D01*
X336992Y37051D01*
X340592Y37951D01*
X340599Y37954D01*
X340607Y37955D01*
X342307Y38455D01*
X342321Y38463D01*
X342341Y38467D01*
X343841Y39067D01*
X343857Y39078D01*
X343880Y39085D01*
X345180Y39785D01*
X345204Y39806D01*
X345243Y39828D01*
X346443Y40828D01*
X346465Y40856D01*
X346504Y40892D01*
X347404Y42092D01*
X347420Y42128D01*
X347458Y42192D01*
X347958Y43592D01*
X347962Y43627D01*
X347968Y43644D01*
X347975Y43660D01*
X347975Y43666D01*
X347978Y43676D01*
X348178Y45376D01*
X348174Y45411D01*
X348178Y45465D01*
X347878Y47965D01*
X347868Y47991D01*
X347867Y48016D01*
X347862Y48026D01*
X347859Y48046D01*
X347159Y50046D01*
X347141Y50073D01*
X347095Y50160D01*
X345795Y51760D01*
X345766Y51782D01*
X345728Y51824D01*
X344128Y53024D01*
X344096Y53038D01*
X344054Y53067D01*
X342254Y53867D01*
X342232Y53872D01*
X342204Y53886D01*
X340104Y54486D01*
X340081Y54487D01*
X340051Y54497D01*
X337851Y54797D01*
X337836Y54795D01*
X337817Y54800D01*
X335517Y54900D01*
X335502Y54897D01*
X335483Y54900D01*
X333183Y54800D01*
X333167Y54795D01*
X333146Y54796D01*
X331046Y54496D01*
X331025Y54488D01*
X330996Y54486D01*
X328896Y53886D01*
X328870Y53871D01*
X328830Y53860D01*
X328269Y53580D01*
X327508Y53199D01*
X327030Y52960D01*
X327008Y52942D01*
X326972Y52924D01*
X325372Y51724D01*
X325347Y51694D01*
X325296Y51648D01*
X324096Y50048D01*
X324083Y50019D01*
X324056Y49983D01*
X323156Y48083D01*
X323149Y48048D01*
X323128Y47998D01*
X322628Y45598D01*
X322628Y45595D01*
X322627Y45592D01*
X322630Y45508D01*
X322632Y45424D01*
X322633Y45422D01*
X322633Y45419D01*
X322673Y45345D01*
X322713Y45271D01*
X322715Y45269D01*
X322716Y45267D01*
X322784Y45219D01*
X322853Y45169D01*
X322856Y45169D01*
X322858Y45167D01*
X323000Y45140D01*
X330400Y45140D01*
X330413Y45143D01*
X330427Y45141D01*
X330497Y45162D01*
X330569Y45179D01*
X330579Y45188D01*
X330592Y45192D01*
X330646Y45243D01*
X330702Y45289D01*
X330708Y45302D01*
X330718Y45311D01*
X330773Y45445D01*
X330963Y46396D01*
X331327Y47123D01*
X331781Y47759D01*
X332310Y48200D01*
X332580Y48335D01*
X333028Y48559D01*
X334742Y48940D01*
X336376Y48940D01*
X337149Y48843D01*
X337821Y48747D01*
X338439Y48571D01*
X338958Y48225D01*
X339288Y47895D01*
X339541Y47387D01*
X339710Y46711D01*
X339547Y45892D01*
X339045Y45307D01*
X338215Y44753D01*
X337165Y44276D01*
X335907Y43889D01*
X334425Y43593D01*
X334418Y43589D01*
X334408Y43589D01*
X332821Y43192D01*
X331134Y42894D01*
X331114Y42886D01*
X331087Y42883D01*
X329491Y42384D01*
X327793Y41885D01*
X327779Y41877D01*
X327759Y41873D01*
X326259Y41273D01*
X326236Y41257D01*
X326201Y41244D01*
X324901Y40444D01*
X324884Y40427D01*
X324857Y40412D01*
X323657Y39412D01*
X323633Y39381D01*
X323587Y39336D01*
X322687Y38036D01*
X322673Y38000D01*
X322639Y37940D01*
X322139Y36440D01*
X322136Y36407D01*
X322122Y36362D01*
X321922Y34562D01*
X321926Y34527D01*
X321922Y34475D01*
X322222Y31975D01*
X322235Y31940D01*
X322245Y31885D01*
X323045Y29785D01*
X323067Y29752D01*
X323098Y29689D01*
X324398Y27989D01*
X324422Y27969D01*
X324450Y27934D01*
X326050Y26534D01*
X326083Y26516D01*
X326130Y26480D01*
X328130Y25480D01*
X328160Y25473D01*
X328200Y25453D01*
X330400Y24853D01*
X330416Y24853D01*
X330435Y24845D01*
X332735Y24445D01*
X332757Y24447D01*
X332784Y24440D01*
X335184Y24340D01*
X335198Y24343D01*
X335216Y24340D01*
X337616Y24440D01*
G37*
G36*
X85520Y12846D02*
X85520Y12846D01*
X85628Y12856D01*
X85641Y12862D01*
X85655Y12864D01*
X85752Y12912D01*
X85851Y12957D01*
X85864Y12968D01*
X85873Y12972D01*
X85888Y12988D01*
X85965Y13050D01*
X88550Y15635D01*
X88613Y15724D01*
X88679Y15809D01*
X88684Y15822D01*
X88692Y15834D01*
X88723Y15937D01*
X88759Y16040D01*
X88759Y16054D01*
X88763Y16067D01*
X88759Y16175D01*
X88760Y16284D01*
X88755Y16297D01*
X88755Y16311D01*
X88717Y16413D01*
X88682Y16515D01*
X88673Y16530D01*
X88669Y16539D01*
X88655Y16556D01*
X88601Y16638D01*
X85837Y20028D01*
X86394Y21110D01*
X86400Y21130D01*
X86442Y21225D01*
X86813Y22384D01*
X91164Y22827D01*
X91268Y22855D01*
X91374Y22880D01*
X91386Y22887D01*
X91399Y22890D01*
X91489Y22951D01*
X91582Y23008D01*
X91590Y23019D01*
X91602Y23027D01*
X91668Y23113D01*
X91737Y23197D01*
X91741Y23210D01*
X91750Y23221D01*
X91784Y23324D01*
X91823Y23425D01*
X91824Y23443D01*
X91828Y23452D01*
X91828Y23474D01*
X91837Y23572D01*
X91837Y27228D01*
X91820Y27335D01*
X91806Y27443D01*
X91800Y27455D01*
X91798Y27469D01*
X91746Y27565D01*
X91699Y27662D01*
X91689Y27672D01*
X91683Y27684D01*
X91603Y27758D01*
X91527Y27835D01*
X91515Y27841D01*
X91505Y27851D01*
X91406Y27896D01*
X91309Y27944D01*
X91291Y27948D01*
X91282Y27952D01*
X91261Y27954D01*
X91164Y27973D01*
X86813Y28416D01*
X86442Y29575D01*
X86433Y29592D01*
X86431Y29600D01*
X86427Y29607D01*
X86394Y29690D01*
X85837Y30772D01*
X88601Y34162D01*
X88655Y34256D01*
X88712Y34348D01*
X88715Y34361D01*
X88722Y34373D01*
X88743Y34480D01*
X88768Y34585D01*
X88766Y34599D01*
X88769Y34613D01*
X88754Y34720D01*
X88744Y34828D01*
X88738Y34841D01*
X88736Y34855D01*
X88688Y34952D01*
X88643Y35051D01*
X88632Y35064D01*
X88628Y35073D01*
X88612Y35088D01*
X88550Y35165D01*
X85965Y37750D01*
X85876Y37813D01*
X85791Y37879D01*
X85778Y37884D01*
X85766Y37892D01*
X85663Y37923D01*
X85560Y37959D01*
X85546Y37959D01*
X85533Y37963D01*
X85425Y37959D01*
X85316Y37960D01*
X85303Y37955D01*
X85289Y37955D01*
X85187Y37917D01*
X85085Y37882D01*
X85070Y37873D01*
X85061Y37869D01*
X85044Y37855D01*
X84962Y37801D01*
X81572Y35037D01*
X80490Y35594D01*
X80470Y35600D01*
X80375Y35642D01*
X79216Y36013D01*
X78773Y40364D01*
X78745Y40468D01*
X78720Y40574D01*
X78713Y40586D01*
X78710Y40599D01*
X78649Y40689D01*
X78592Y40782D01*
X78581Y40790D01*
X78573Y40802D01*
X78487Y40868D01*
X78403Y40937D01*
X78390Y40941D01*
X78379Y40950D01*
X78276Y40984D01*
X78175Y41023D01*
X78157Y41024D01*
X78148Y41028D01*
X78126Y41028D01*
X78028Y41037D01*
X74372Y41037D01*
X74265Y41020D01*
X74157Y41006D01*
X74145Y41000D01*
X74131Y40998D01*
X74035Y40946D01*
X73938Y40899D01*
X73928Y40889D01*
X73916Y40883D01*
X73842Y40803D01*
X73765Y40727D01*
X73759Y40715D01*
X73749Y40705D01*
X73704Y40606D01*
X73656Y40509D01*
X73652Y40491D01*
X73648Y40482D01*
X73646Y40461D01*
X73627Y40364D01*
X73184Y36013D01*
X72025Y35642D01*
X72007Y35632D01*
X71910Y35594D01*
X70828Y35037D01*
X67438Y37801D01*
X67344Y37855D01*
X67252Y37912D01*
X67239Y37915D01*
X67227Y37922D01*
X67120Y37943D01*
X67015Y37968D01*
X67001Y37966D01*
X66987Y37969D01*
X66880Y37954D01*
X66772Y37944D01*
X66759Y37938D01*
X66746Y37936D01*
X66648Y37888D01*
X66549Y37843D01*
X66536Y37832D01*
X66527Y37828D01*
X66512Y37812D01*
X66435Y37750D01*
X63850Y35165D01*
X63787Y35076D01*
X63721Y34991D01*
X63716Y34978D01*
X63708Y34966D01*
X63677Y34863D01*
X63641Y34760D01*
X63641Y34746D01*
X63637Y34733D01*
X63641Y34625D01*
X63640Y34516D01*
X63645Y34503D01*
X63645Y34489D01*
X63683Y34387D01*
X63718Y34285D01*
X63727Y34270D01*
X63731Y34261D01*
X63745Y34244D01*
X63799Y34162D01*
X66563Y30772D01*
X66006Y29690D01*
X66000Y29670D01*
X65958Y29575D01*
X65587Y28416D01*
X61236Y27973D01*
X61132Y27945D01*
X61026Y27920D01*
X61014Y27913D01*
X61001Y27910D01*
X60911Y27849D01*
X60818Y27792D01*
X60810Y27781D01*
X60798Y27773D01*
X60732Y27687D01*
X60664Y27603D01*
X60659Y27590D01*
X60650Y27579D01*
X60616Y27476D01*
X60577Y27375D01*
X60576Y27357D01*
X60572Y27348D01*
X60573Y27326D01*
X60563Y27228D01*
X60563Y23572D01*
X60580Y23465D01*
X60594Y23357D01*
X60600Y23345D01*
X60602Y23331D01*
X60654Y23235D01*
X60701Y23138D01*
X60711Y23128D01*
X60717Y23116D01*
X60797Y23042D01*
X60873Y22965D01*
X60885Y22959D01*
X60896Y22949D01*
X60994Y22904D01*
X61091Y22856D01*
X61109Y22852D01*
X61118Y22848D01*
X61139Y22846D01*
X61236Y22827D01*
X65587Y22384D01*
X65958Y21225D01*
X65968Y21207D01*
X66006Y21110D01*
X66563Y20028D01*
X63799Y16638D01*
X63745Y16544D01*
X63688Y16452D01*
X63685Y16439D01*
X63678Y16427D01*
X63657Y16320D01*
X63632Y16215D01*
X63634Y16201D01*
X63631Y16187D01*
X63646Y16080D01*
X63656Y15972D01*
X63662Y15959D01*
X63664Y15946D01*
X63712Y15848D01*
X63757Y15749D01*
X63768Y15736D01*
X63772Y15727D01*
X63788Y15712D01*
X63850Y15635D01*
X66435Y13050D01*
X66524Y12987D01*
X66609Y12921D01*
X66622Y12916D01*
X66634Y12908D01*
X66737Y12877D01*
X66840Y12841D01*
X66854Y12841D01*
X66867Y12837D01*
X66975Y12841D01*
X67084Y12840D01*
X67097Y12845D01*
X67111Y12845D01*
X67213Y12883D01*
X67315Y12918D01*
X67330Y12927D01*
X67339Y12931D01*
X67356Y12945D01*
X67438Y12999D01*
X70828Y15763D01*
X71910Y15206D01*
X71963Y15189D01*
X72012Y15163D01*
X72078Y15152D01*
X72142Y15131D01*
X72198Y15132D01*
X72252Y15123D01*
X72319Y15134D01*
X72386Y15135D01*
X72438Y15153D01*
X72493Y15162D01*
X72553Y15194D01*
X72616Y15217D01*
X72659Y15251D01*
X72709Y15277D01*
X72755Y15326D01*
X72807Y15368D01*
X72838Y15415D01*
X72876Y15455D01*
X72932Y15560D01*
X72940Y15573D01*
X72941Y15578D01*
X72945Y15585D01*
X75098Y20782D01*
X75118Y20865D01*
X75123Y20878D01*
X75125Y20894D01*
X75150Y20979D01*
X75149Y21000D01*
X75154Y21020D01*
X75146Y21102D01*
X75148Y21121D01*
X75143Y21141D01*
X75139Y21222D01*
X75132Y21242D01*
X75130Y21263D01*
X75099Y21332D01*
X75092Y21359D01*
X75077Y21383D01*
X75051Y21450D01*
X75038Y21466D01*
X75029Y21485D01*
X74984Y21534D01*
X74964Y21566D01*
X74933Y21591D01*
X74895Y21637D01*
X74872Y21653D01*
X74862Y21663D01*
X74841Y21675D01*
X74776Y21720D01*
X74775Y21721D01*
X74774Y21722D01*
X73875Y22228D01*
X73188Y22872D01*
X72673Y23660D01*
X72361Y24548D01*
X72269Y25485D01*
X72402Y26417D01*
X72753Y27291D01*
X73302Y28056D01*
X74016Y28669D01*
X74856Y29094D01*
X75773Y29308D01*
X76714Y29298D01*
X77626Y29064D01*
X78456Y28621D01*
X79157Y27992D01*
X79689Y27215D01*
X80020Y26334D01*
X80133Y25399D01*
X80025Y24482D01*
X79705Y23614D01*
X79191Y22845D01*
X78512Y22218D01*
X77628Y21723D01*
X77586Y21690D01*
X77544Y21667D01*
X77513Y21634D01*
X77465Y21599D01*
X77453Y21583D01*
X77437Y21570D01*
X77402Y21515D01*
X77377Y21489D01*
X77363Y21458D01*
X77322Y21401D01*
X77316Y21382D01*
X77306Y21365D01*
X77287Y21290D01*
X77277Y21267D01*
X77274Y21243D01*
X77251Y21168D01*
X77252Y21148D01*
X77247Y21128D01*
X77254Y21043D01*
X77253Y21024D01*
X77256Y21007D01*
X77259Y20924D01*
X77267Y20899D01*
X77268Y20885D01*
X77278Y20863D01*
X77302Y20782D01*
X77611Y20037D01*
X78542Y17789D01*
X78852Y17040D01*
X79455Y15585D01*
X79484Y15538D01*
X79505Y15486D01*
X79548Y15435D01*
X79584Y15378D01*
X79627Y15343D01*
X79663Y15300D01*
X79720Y15266D01*
X79772Y15223D01*
X79824Y15204D01*
X79872Y15175D01*
X79938Y15161D01*
X80001Y15137D01*
X80056Y15135D01*
X80110Y15124D01*
X80177Y15131D01*
X80244Y15129D01*
X80298Y15145D01*
X80353Y15152D01*
X80464Y15196D01*
X80478Y15200D01*
X80482Y15203D01*
X80490Y15206D01*
X81572Y15763D01*
X84962Y12999D01*
X85056Y12945D01*
X85148Y12888D01*
X85161Y12885D01*
X85173Y12878D01*
X85280Y12857D01*
X85385Y12832D01*
X85399Y12834D01*
X85413Y12831D01*
X85520Y12846D01*
G37*
G36*
X180505Y191194D02*
X180505Y191194D01*
X180508Y191191D01*
X181108Y191291D01*
X181111Y191295D01*
X181114Y191293D01*
X181814Y191493D01*
X181815Y191494D01*
X181816Y191493D01*
X182416Y191693D01*
X182417Y191696D01*
X182419Y191695D01*
X183119Y191995D01*
X183121Y191997D01*
X183122Y191996D01*
X183722Y192296D01*
X183725Y192303D01*
X183731Y192302D01*
X184731Y193102D01*
X184732Y193106D01*
X184735Y193105D01*
X185235Y193605D01*
X185236Y193612D01*
X185241Y193613D01*
X185641Y194213D01*
X185641Y194217D01*
X185644Y194218D01*
X186544Y196018D01*
X186542Y196029D01*
X186549Y196033D01*
X186649Y196732D01*
X186749Y197332D01*
X186748Y197333D01*
X186749Y197333D01*
X186849Y198033D01*
X186844Y198042D01*
X186849Y198047D01*
X186749Y198747D01*
X186748Y198748D01*
X186749Y198748D01*
X186649Y199348D01*
X186549Y200047D01*
X186541Y200055D01*
X186544Y200062D01*
X185644Y201862D01*
X185640Y201864D01*
X185641Y201867D01*
X185241Y202467D01*
X185234Y202470D01*
X185235Y202475D01*
X184735Y202975D01*
X184731Y202975D01*
X184731Y202978D01*
X183731Y203778D01*
X183723Y203779D01*
X183722Y203784D01*
X182522Y204384D01*
X182515Y204383D01*
X182514Y204387D01*
X181114Y204787D01*
X181110Y204786D01*
X181108Y204789D01*
X180508Y204889D01*
X180503Y204886D01*
X180500Y204889D01*
X155600Y204889D01*
X155596Y204886D01*
X155593Y204889D01*
X154893Y204789D01*
X154892Y204788D01*
X154892Y204789D01*
X154292Y204689D01*
X154286Y204682D01*
X154281Y204685D01*
X153582Y204386D01*
X152984Y204187D01*
X152979Y204179D01*
X152973Y204181D01*
X152374Y203782D01*
X151875Y203482D01*
X151871Y203474D01*
X151865Y203475D01*
X150865Y202475D01*
X150865Y202471D01*
X150862Y202471D01*
X150462Y201971D01*
X150461Y201967D01*
X150459Y201967D01*
X150059Y201367D01*
X150059Y201363D01*
X150056Y201362D01*
X149756Y200762D01*
X149756Y200759D01*
X149755Y200759D01*
X149757Y200757D01*
X149753Y200756D01*
X149553Y200156D01*
X149554Y200154D01*
X149553Y200154D01*
X149529Y200069D01*
X149486Y199921D01*
X149472Y199872D01*
X149430Y199724D01*
X149388Y199577D01*
X149374Y199527D01*
X149353Y199454D01*
X149354Y199450D01*
X149351Y199448D01*
X149251Y198848D01*
X149252Y198847D01*
X149251Y198847D01*
X149151Y198147D01*
X149156Y198138D01*
X149151Y198133D01*
X149351Y196733D01*
X149352Y196732D01*
X149351Y196732D01*
X149451Y196132D01*
X149456Y196128D01*
X149453Y196124D01*
X149653Y195524D01*
X149656Y195523D01*
X149655Y195521D01*
X149955Y194821D01*
X149963Y194816D01*
X149962Y194809D01*
X150360Y194311D01*
X150759Y193713D01*
X150762Y193712D01*
X150762Y193709D01*
X151162Y193209D01*
X151169Y193207D01*
X151169Y193202D01*
X151669Y192802D01*
X151673Y192801D01*
X151673Y192799D01*
X152271Y192400D01*
X152769Y192002D01*
X152779Y192001D01*
X152781Y191995D01*
X153481Y191695D01*
X153484Y191696D01*
X153484Y191693D01*
X154084Y191493D01*
X154086Y191494D01*
X154086Y191493D01*
X154786Y191293D01*
X154796Y191296D01*
X154800Y191291D01*
X155397Y191291D01*
X156093Y191191D01*
X156098Y191194D01*
X156100Y191191D01*
X180500Y191191D01*
X180505Y191194D01*
G37*
G36*
X463162Y136664D02*
X463162Y136664D01*
X463165Y136661D01*
X463865Y136761D01*
X463870Y136766D01*
X463874Y136763D01*
X464473Y136963D01*
X465172Y137163D01*
X465173Y137164D01*
X465174Y137163D01*
X465774Y137363D01*
X465779Y137371D01*
X465785Y137369D01*
X466385Y137769D01*
X466386Y137772D01*
X466389Y137772D01*
X467389Y138572D01*
X467390Y138576D01*
X467393Y138575D01*
X467893Y139075D01*
X467893Y139079D01*
X467896Y139079D01*
X468296Y139579D01*
X468297Y139583D01*
X468299Y139583D01*
X468699Y140183D01*
X468699Y140187D01*
X468702Y140188D01*
X469002Y140788D01*
X469001Y140795D01*
X469005Y140796D01*
X469016Y140834D01*
X469058Y140981D01*
X469072Y141031D01*
X469114Y141178D01*
X469115Y141178D01*
X469114Y141178D01*
X469157Y141326D01*
X469171Y141375D01*
X469205Y141495D01*
X469405Y142094D01*
X469403Y142101D01*
X469407Y142103D01*
X469507Y142803D01*
X469504Y142808D01*
X469507Y142810D01*
X469507Y144110D01*
X469504Y144114D01*
X469507Y144117D01*
X469407Y144817D01*
X469403Y144821D01*
X469405Y144824D01*
X469205Y145524D01*
X469204Y145525D01*
X469205Y145526D01*
X469005Y146126D01*
X469000Y146129D01*
X469002Y146132D01*
X468402Y147332D01*
X468392Y147337D01*
X468393Y147345D01*
X467895Y147843D01*
X467496Y148341D01*
X467492Y148342D01*
X467493Y148345D01*
X466993Y148845D01*
X466986Y148846D01*
X466985Y148851D01*
X466385Y149251D01*
X466381Y149251D01*
X466380Y149254D01*
X465180Y149854D01*
X465175Y149853D01*
X465174Y149857D01*
X464574Y150057D01*
X464572Y150056D01*
X464572Y150057D01*
X463872Y150257D01*
X463867Y150256D01*
X463865Y150259D01*
X463165Y150359D01*
X463160Y150356D01*
X463158Y150359D01*
X462758Y150359D01*
X462728Y150337D01*
X462716Y150335D01*
X462698Y150306D01*
X462698Y150307D01*
X462693Y150344D01*
X462671Y150342D01*
X462658Y150359D01*
X439658Y150359D01*
X439654Y150356D01*
X439651Y150359D01*
X438951Y150259D01*
X438950Y150258D01*
X438950Y150259D01*
X438350Y150159D01*
X438347Y150155D01*
X438344Y150157D01*
X437644Y149957D01*
X437640Y149952D01*
X437636Y149954D01*
X436436Y149354D01*
X436434Y149350D01*
X436431Y149351D01*
X435831Y148951D01*
X435828Y148944D01*
X435823Y148945D01*
X434923Y148045D01*
X434923Y148041D01*
X434920Y148042D01*
X434420Y147442D01*
X434420Y147436D01*
X434416Y147435D01*
X434116Y146935D01*
X434116Y146930D01*
X434113Y146929D01*
X433813Y146231D01*
X433514Y145632D01*
X433515Y145627D01*
X433511Y145626D01*
X433311Y145026D01*
X433313Y145019D01*
X433309Y145017D01*
X433209Y144317D01*
X433212Y144312D01*
X433209Y144310D01*
X433209Y142910D01*
X433212Y142905D01*
X433209Y142902D01*
X433309Y142302D01*
X433313Y142299D01*
X433311Y142296D01*
X433511Y141596D01*
X433512Y141595D01*
X433511Y141594D01*
X433711Y140994D01*
X433716Y140991D01*
X433714Y140988D01*
X434314Y139788D01*
X434318Y139786D01*
X434317Y139783D01*
X434717Y139183D01*
X434724Y139180D01*
X434723Y139175D01*
X435223Y138675D01*
X435227Y138675D01*
X435227Y138672D01*
X436227Y137872D01*
X436231Y137871D01*
X436231Y137869D01*
X436831Y137469D01*
X436835Y137469D01*
X436836Y137466D01*
X437436Y137166D01*
X437441Y137167D01*
X437442Y137163D01*
X438042Y136963D01*
X438044Y136964D01*
X438044Y136963D01*
X438744Y136763D01*
X438754Y136766D01*
X438758Y136761D01*
X439454Y136761D01*
X440050Y136661D01*
X440055Y136664D01*
X440058Y136661D01*
X463158Y136661D01*
X463162Y136664D01*
G37*
G36*
X203350Y25151D02*
X203350Y25151D01*
X203401Y25153D01*
X203433Y25171D01*
X203469Y25179D01*
X203508Y25212D01*
X203553Y25236D01*
X203574Y25266D01*
X203602Y25289D01*
X203623Y25336D01*
X203653Y25378D01*
X203661Y25420D01*
X203673Y25448D01*
X203672Y25478D01*
X203680Y25520D01*
X203680Y48140D01*
X211000Y48140D01*
X211025Y48146D01*
X211051Y48143D01*
X211109Y48165D01*
X211169Y48179D01*
X211189Y48196D01*
X211213Y48205D01*
X211255Y48250D01*
X211302Y48289D01*
X211313Y48313D01*
X211330Y48332D01*
X211348Y48391D01*
X211373Y48448D01*
X211372Y48473D01*
X211380Y48498D01*
X211369Y48559D01*
X211367Y48621D01*
X211354Y48643D01*
X211350Y48669D01*
X211302Y48740D01*
X211284Y48773D01*
X211276Y48779D01*
X211269Y48789D01*
X210569Y49489D01*
X210558Y49496D01*
X210547Y49509D01*
X209870Y50090D01*
X209289Y50767D01*
X209268Y50782D01*
X209247Y50809D01*
X208570Y51390D01*
X207989Y52067D01*
X207968Y52082D01*
X207947Y52109D01*
X207258Y52699D01*
X205969Y53989D01*
X205904Y54029D01*
X205842Y54073D01*
X205830Y54075D01*
X205822Y54080D01*
X205785Y54084D01*
X205700Y54100D01*
X203680Y54100D01*
X203680Y55920D01*
X203678Y55929D01*
X203680Y55941D01*
X203580Y57741D01*
X203570Y57775D01*
X203565Y57827D01*
X203065Y59527D01*
X203051Y59552D01*
X203040Y59590D01*
X202340Y60990D01*
X202321Y61014D01*
X202301Y61052D01*
X201301Y62352D01*
X201271Y62377D01*
X201221Y62429D01*
X199821Y63429D01*
X199797Y63439D01*
X199770Y63460D01*
X198170Y64260D01*
X198134Y64269D01*
X198125Y64272D01*
X198117Y64278D01*
X198108Y64280D01*
X198078Y64292D01*
X196178Y64692D01*
X196158Y64692D01*
X196133Y64699D01*
X193833Y64899D01*
X193818Y64897D01*
X193800Y64900D01*
X192300Y64900D01*
X192270Y64893D01*
X192225Y64893D01*
X191762Y64800D01*
X190700Y64800D01*
X190670Y64793D01*
X190625Y64793D01*
X190162Y64700D01*
X189700Y64700D01*
X189650Y64689D01*
X189599Y64687D01*
X189567Y64669D01*
X189531Y64661D01*
X189492Y64628D01*
X189447Y64604D01*
X189426Y64574D01*
X189398Y64551D01*
X189377Y64504D01*
X189347Y64462D01*
X189339Y64420D01*
X189327Y64392D01*
X189327Y64379D01*
X189327Y64378D01*
X189327Y64360D01*
X189320Y64320D01*
X189320Y58520D01*
X189322Y58510D01*
X189320Y58500D01*
X189342Y58426D01*
X189359Y58351D01*
X189366Y58343D01*
X189369Y58333D01*
X189420Y58277D01*
X189469Y58218D01*
X189479Y58213D01*
X189486Y58206D01*
X189557Y58178D01*
X189628Y58147D01*
X189638Y58147D01*
X189648Y58143D01*
X189792Y58151D01*
X190147Y58240D01*
X191900Y58240D01*
X191937Y58248D01*
X192020Y58259D01*
X192262Y58340D01*
X192573Y58340D01*
X193243Y58244D01*
X193808Y58150D01*
X194295Y57988D01*
X194612Y57670D01*
X194859Y57341D01*
X195028Y56832D01*
X195120Y56193D01*
X195120Y54100D01*
X190200Y54100D01*
X190150Y54089D01*
X190099Y54087D01*
X190067Y54069D01*
X190031Y54061D01*
X189992Y54028D01*
X189947Y54004D01*
X189926Y53974D01*
X189898Y53951D01*
X189877Y53904D01*
X189847Y53862D01*
X189839Y53820D01*
X189827Y53792D01*
X189828Y53762D01*
X189820Y53720D01*
X189820Y48520D01*
X189831Y48470D01*
X189833Y48419D01*
X189851Y48387D01*
X189859Y48351D01*
X189892Y48312D01*
X189916Y48267D01*
X189946Y48246D01*
X189969Y48218D01*
X190016Y48197D01*
X190058Y48167D01*
X190100Y48159D01*
X190128Y48147D01*
X190158Y48148D01*
X190200Y48140D01*
X195120Y48140D01*
X195120Y25520D01*
X195131Y25470D01*
X195133Y25419D01*
X195151Y25387D01*
X195159Y25351D01*
X195192Y25312D01*
X195216Y25267D01*
X195246Y25246D01*
X195269Y25218D01*
X195316Y25197D01*
X195358Y25167D01*
X195400Y25159D01*
X195428Y25147D01*
X195458Y25148D01*
X195500Y25140D01*
X203300Y25140D01*
X203350Y25151D01*
G37*
G36*
X257350Y25051D02*
X257350Y25051D01*
X257401Y25053D01*
X257433Y25071D01*
X257469Y25079D01*
X257508Y25112D01*
X257553Y25136D01*
X257574Y25166D01*
X257602Y25189D01*
X257623Y25236D01*
X257653Y25278D01*
X257661Y25320D01*
X257673Y25348D01*
X257672Y25378D01*
X257680Y25420D01*
X257680Y49020D01*
X257679Y49025D01*
X257680Y49031D01*
X257580Y52431D01*
X257579Y52435D01*
X257580Y52439D01*
X257568Y52479D01*
X257567Y52518D01*
X257548Y52554D01*
X257536Y52599D01*
X257533Y52602D01*
X257532Y52605D01*
X257501Y52639D01*
X257484Y52671D01*
X257454Y52692D01*
X257422Y52729D01*
X257418Y52731D01*
X257415Y52733D01*
X257362Y52757D01*
X257342Y52770D01*
X257321Y52775D01*
X257283Y52791D01*
X256383Y52991D01*
X256363Y52991D01*
X256338Y52998D01*
X255360Y53096D01*
X253583Y53491D01*
X253564Y53491D01*
X253542Y53498D01*
X252662Y53596D01*
X251783Y53791D01*
X251779Y53791D01*
X251775Y53793D01*
X250775Y53993D01*
X250760Y53992D01*
X250742Y53998D01*
X249842Y54098D01*
X249771Y54089D01*
X249699Y54087D01*
X249686Y54079D01*
X249670Y54077D01*
X249610Y54038D01*
X249547Y54004D01*
X249538Y53991D01*
X249525Y53983D01*
X249489Y53921D01*
X249447Y53862D01*
X249444Y53845D01*
X249437Y53833D01*
X249434Y53794D01*
X249420Y53720D01*
X249420Y50018D01*
X249408Y50044D01*
X248608Y51144D01*
X248601Y51149D01*
X248601Y51150D01*
X248599Y51151D01*
X248588Y51161D01*
X248569Y51189D01*
X247569Y52189D01*
X247549Y52201D01*
X247528Y52224D01*
X246328Y53124D01*
X246310Y53132D01*
X246292Y53148D01*
X245092Y53848D01*
X245076Y53853D01*
X245059Y53865D01*
X243759Y54465D01*
X243726Y54472D01*
X243680Y54492D01*
X242280Y54792D01*
X242256Y54791D01*
X242225Y54799D01*
X240725Y54899D01*
X240714Y54898D01*
X240700Y54900D01*
X240100Y54900D01*
X240085Y54897D01*
X240070Y54899D01*
X239938Y54862D01*
X239931Y54861D01*
X239931Y54860D01*
X239930Y54860D01*
X239810Y54800D01*
X239700Y54800D01*
X239663Y54792D01*
X239580Y54781D01*
X239338Y54700D01*
X239200Y54700D01*
X239185Y54697D01*
X239170Y54699D01*
X239038Y54662D01*
X239031Y54661D01*
X239031Y54660D01*
X239030Y54660D01*
X239029Y54660D01*
X238830Y54560D01*
X238791Y54528D01*
X238747Y54504D01*
X238726Y54473D01*
X238697Y54449D01*
X238676Y54403D01*
X238647Y54362D01*
X238639Y54319D01*
X238626Y54291D01*
X238628Y54261D01*
X238620Y54220D01*
X238620Y47020D01*
X238625Y46996D01*
X238623Y46971D01*
X238645Y46912D01*
X238659Y46851D01*
X238675Y46832D01*
X238684Y46809D01*
X238730Y46766D01*
X238769Y46718D01*
X238792Y46707D01*
X238811Y46690D01*
X238870Y46672D01*
X238928Y46647D01*
X238953Y46648D01*
X238977Y46640D01*
X239064Y46652D01*
X239101Y46653D01*
X239109Y46658D01*
X239120Y46659D01*
X239362Y46740D01*
X239600Y46740D01*
X239636Y46748D01*
X239692Y46751D01*
X240047Y46840D01*
X240700Y46840D01*
X240736Y46848D01*
X240792Y46851D01*
X241147Y46940D01*
X241781Y46940D01*
X243724Y46745D01*
X245238Y46272D01*
X246552Y45427D01*
X247495Y44390D01*
X248251Y43161D01*
X248730Y41630D01*
X249022Y39976D01*
X249120Y38210D01*
X249120Y25420D01*
X249131Y25370D01*
X249133Y25319D01*
X249151Y25287D01*
X249159Y25251D01*
X249192Y25212D01*
X249216Y25167D01*
X249246Y25146D01*
X249269Y25118D01*
X249316Y25097D01*
X249358Y25067D01*
X249400Y25059D01*
X249428Y25047D01*
X249458Y25048D01*
X249500Y25040D01*
X257300Y25040D01*
X257350Y25051D01*
G37*
%LPC*%
G36*
X303198Y31092D02*
X303198Y31092D01*
X301892Y31652D01*
X300765Y32496D01*
X299928Y33519D01*
X299356Y34855D01*
X298873Y36305D01*
X298679Y37855D01*
X298581Y39520D01*
X298679Y41186D01*
X298873Y42837D01*
X299352Y44274D01*
X300025Y45619D01*
X300872Y46748D01*
X301982Y47581D01*
X303286Y48047D01*
X304999Y48237D01*
X306617Y48047D01*
X308013Y47581D01*
X309024Y46755D01*
X309875Y45619D01*
X310543Y44285D01*
X310650Y43883D01*
X310650Y43882D01*
X310751Y43502D01*
X310853Y43122D01*
X310928Y42838D01*
X311222Y41176D01*
X311319Y39520D01*
X311222Y37866D01*
X310929Y36304D01*
X310543Y34855D01*
X309879Y33528D01*
X309035Y32496D01*
X307912Y31654D01*
X306506Y31092D01*
X304899Y30903D01*
X303198Y31092D01*
G37*
%LPD*%
%LPC*%
G36*
X274638Y30300D02*
X274638Y30300D01*
X273683Y30491D01*
X272943Y30676D01*
X272289Y31050D01*
X272279Y31053D01*
X272270Y31060D01*
X271725Y31333D01*
X271284Y31774D01*
X270532Y32714D01*
X270353Y33161D01*
X270345Y33173D01*
X270340Y33190D01*
X270063Y33744D01*
X269780Y35158D01*
X269780Y38543D01*
X269989Y38404D01*
X270020Y38392D01*
X270108Y38351D01*
X270894Y38155D01*
X271180Y38059D01*
X271201Y38057D01*
X271225Y38047D01*
X271717Y37949D01*
X272508Y37751D01*
X272544Y37751D01*
X272600Y37740D01*
X273053Y37740D01*
X273408Y37651D01*
X273416Y37651D01*
X273425Y37647D01*
X273925Y37547D01*
X273957Y37548D01*
X274000Y37540D01*
X274362Y37540D01*
X275317Y37349D01*
X275708Y37251D01*
X275716Y37251D01*
X275725Y37247D01*
X276217Y37149D01*
X277008Y36951D01*
X277367Y36861D01*
X277730Y36680D01*
X277763Y36672D01*
X277808Y36651D01*
X278167Y36561D01*
X278509Y36391D01*
X278758Y36225D01*
X279305Y35678D01*
X279671Y35129D01*
X279841Y34787D01*
X279929Y34437D01*
X280020Y33982D01*
X280020Y33058D01*
X279929Y32603D01*
X279841Y32253D01*
X279671Y31911D01*
X279305Y31362D01*
X279058Y31116D01*
X278809Y30950D01*
X278454Y30772D01*
X278180Y30681D01*
X278160Y30669D01*
X278143Y30665D01*
X278141Y30663D01*
X278130Y30660D01*
X277767Y30479D01*
X277417Y30391D01*
X276962Y30300D01*
X274638Y30300D01*
G37*
%LPD*%
%LPC*%
G36*
X168708Y193389D02*
X168708Y193389D01*
X168139Y193579D01*
X167950Y194145D01*
X168048Y194924D01*
X168333Y195399D01*
X168908Y195591D01*
X171300Y195591D01*
X171314Y195602D01*
X171332Y195603D01*
X171331Y195615D01*
X171347Y195627D01*
X171329Y195651D01*
X171327Y195681D01*
X171027Y195881D01*
X171026Y195881D01*
X171025Y195882D01*
X170526Y196182D01*
X169930Y196579D01*
X169335Y197075D01*
X168942Y197567D01*
X168646Y198159D01*
X168448Y198751D01*
X168350Y199440D01*
X168448Y200129D01*
X168646Y200721D01*
X168943Y201315D01*
X169337Y201906D01*
X169829Y202300D01*
X170422Y202695D01*
X171008Y202891D01*
X172393Y202891D01*
X173085Y202693D01*
X173676Y202496D01*
X174163Y202106D01*
X174559Y201513D01*
X174955Y200918D01*
X175152Y200328D01*
X175251Y199736D01*
X175251Y198952D01*
X175066Y198581D01*
X174393Y198389D01*
X173520Y198389D01*
X173146Y198763D01*
X173049Y199447D01*
X173048Y199448D01*
X173049Y199448D01*
X172949Y200048D01*
X172933Y200063D01*
X172935Y200075D01*
X172435Y200575D01*
X172413Y200578D01*
X172407Y200589D01*
X171707Y200689D01*
X171693Y200681D01*
X171684Y200687D01*
X171084Y200487D01*
X171073Y200470D01*
X171062Y200471D01*
X170662Y199971D01*
X170661Y199948D01*
X170651Y199940D01*
X170651Y199340D01*
X170660Y199327D01*
X170656Y199318D01*
X170956Y198718D01*
X170963Y198715D01*
X170962Y198709D01*
X171362Y198209D01*
X171369Y198207D01*
X171368Y198202D01*
X171968Y197702D01*
X171974Y197702D01*
X171975Y197698D01*
X172475Y197398D01*
X172475Y197397D01*
X173674Y196698D01*
X174266Y196303D01*
X174660Y195811D01*
X175055Y195218D01*
X175249Y194636D01*
X175153Y194058D01*
X174771Y193486D01*
X174097Y193389D01*
X168708Y193389D01*
G37*
%LPD*%
%LPC*%
G36*
X458265Y138859D02*
X458265Y138859D01*
X457573Y139057D01*
X456982Y139254D01*
X456491Y139647D01*
X455999Y140139D01*
X455704Y140728D01*
X455507Y141417D01*
X455507Y142107D01*
X455606Y142795D01*
X455900Y143383D01*
X456291Y143872D01*
X456780Y144166D01*
X457475Y144464D01*
X458169Y144662D01*
X458766Y144761D01*
X458770Y144766D01*
X458774Y144763D01*
X459374Y144963D01*
X459383Y144977D01*
X459393Y144975D01*
X459893Y145475D01*
X459897Y145502D01*
X459907Y145510D01*
X459907Y146110D01*
X459882Y146143D01*
X459880Y146154D01*
X459280Y146454D01*
X459264Y146451D01*
X459258Y146459D01*
X458558Y146459D01*
X458543Y146448D01*
X458533Y146452D01*
X458036Y146154D01*
X457348Y145859D01*
X456881Y145859D01*
X456397Y146440D01*
X456016Y147011D01*
X456297Y147480D01*
X456787Y147969D01*
X457377Y148264D01*
X457969Y148462D01*
X458661Y148561D01*
X459451Y148561D01*
X460143Y148363D01*
X460737Y148165D01*
X461233Y147868D01*
X461235Y147868D01*
X461216Y147835D01*
X461222Y147776D01*
X461223Y147776D01*
X461223Y147775D01*
X461719Y147280D01*
X462011Y146793D01*
X462109Y146103D01*
X462208Y145415D01*
X462012Y144828D01*
X461715Y144136D01*
X461326Y143649D01*
X460736Y143354D01*
X460140Y143056D01*
X459447Y142858D01*
X458850Y142759D01*
X458847Y142755D01*
X458844Y142757D01*
X458144Y142557D01*
X458132Y142540D01*
X458120Y142541D01*
X457720Y142041D01*
X457719Y142012D01*
X457709Y142002D01*
X457809Y141402D01*
X457828Y141385D01*
X457827Y141372D01*
X458327Y140972D01*
X458346Y140971D01*
X458351Y140961D01*
X459051Y140861D01*
X459067Y140870D01*
X459077Y140865D01*
X459777Y141165D01*
X459784Y141176D01*
X459793Y141175D01*
X460289Y141672D01*
X460873Y142061D01*
X461440Y142061D01*
X462020Y141577D01*
X462306Y141100D01*
X462212Y140534D01*
X461427Y139748D01*
X460833Y139353D01*
X460239Y139056D01*
X459650Y138859D01*
X458265Y138859D01*
G37*
%LPD*%
%LPC*%
G36*
X160403Y193389D02*
X160403Y193389D01*
X159713Y193488D01*
X159022Y193784D01*
X158528Y194080D01*
X158042Y194469D01*
X157853Y195038D01*
X158142Y195712D01*
X158624Y196195D01*
X159090Y196288D01*
X159673Y195899D01*
X159680Y195900D01*
X159682Y195894D01*
X160182Y195694D01*
X160189Y195696D01*
X160192Y195691D01*
X160792Y195591D01*
X160797Y195594D01*
X160800Y195591D01*
X161500Y195591D01*
X161509Y195598D01*
X161516Y195593D01*
X162116Y195793D01*
X162121Y195801D01*
X162127Y195799D01*
X162727Y196199D01*
X162730Y196206D01*
X162735Y196205D01*
X163235Y196705D01*
X163236Y196717D01*
X163244Y196718D01*
X163544Y197318D01*
X163542Y197329D01*
X163549Y197332D01*
X163649Y197932D01*
X163646Y197937D01*
X163649Y197940D01*
X163649Y198740D01*
X163642Y198749D01*
X163647Y198756D01*
X163447Y199356D01*
X163439Y199361D01*
X163441Y199367D01*
X163041Y199967D01*
X163031Y199971D01*
X163031Y199978D01*
X162531Y200378D01*
X162521Y200379D01*
X162519Y200385D01*
X161819Y200685D01*
X161811Y200683D01*
X161808Y200689D01*
X161208Y200789D01*
X161203Y200786D01*
X161200Y200789D01*
X160500Y200789D01*
X160491Y200782D01*
X160484Y200787D01*
X159884Y200587D01*
X159880Y200581D01*
X159876Y200583D01*
X159182Y200186D01*
X158809Y200093D01*
X158236Y200476D01*
X157849Y201055D01*
X157849Y201623D01*
X158234Y202103D01*
X158822Y202495D01*
X159415Y202693D01*
X160110Y202892D01*
X160803Y202991D01*
X161397Y202991D01*
X162089Y202892D01*
X162682Y202694D01*
X163379Y202395D01*
X163971Y202099D01*
X164862Y201209D01*
X165257Y200615D01*
X165554Y200022D01*
X165752Y199329D01*
X165851Y198736D01*
X165851Y198043D01*
X165751Y197347D01*
X165652Y196655D01*
X165356Y196062D01*
X165058Y195467D01*
X164663Y194973D01*
X164169Y194478D01*
X163575Y194083D01*
X162981Y193786D01*
X162385Y193587D01*
X161693Y193389D01*
X160403Y193389D01*
G37*
%LPD*%
%LPC*%
G36*
X447383Y142053D02*
X447383Y142053D01*
X446794Y142446D01*
X446401Y143035D01*
X446104Y143629D01*
X445907Y144218D01*
X445907Y145600D01*
X446203Y146289D01*
X446497Y146878D01*
X446989Y147272D01*
X446990Y147272D01*
X447585Y147768D01*
X448177Y148064D01*
X448766Y148261D01*
X452155Y148261D01*
X452828Y148165D01*
X453111Y147693D01*
X453209Y147106D01*
X453209Y143525D01*
X451007Y144147D01*
X451007Y145510D01*
X450999Y145521D01*
X451004Y145528D01*
X450804Y146028D01*
X450763Y146053D01*
X450758Y146059D01*
X449458Y146059D01*
X449454Y146056D01*
X449451Y146059D01*
X448751Y145959D01*
X448736Y145943D01*
X448723Y145945D01*
X448223Y145445D01*
X448220Y145424D01*
X448209Y145418D01*
X448109Y144818D01*
X448117Y144804D01*
X448111Y144796D01*
X448311Y144096D01*
X448328Y144084D01*
X448327Y144072D01*
X448797Y143695D01*
X447934Y141777D01*
X447383Y142053D01*
G37*
%LPD*%
%LPC*%
G36*
X177716Y193389D02*
X177716Y193389D01*
X177342Y193670D01*
X177147Y194256D01*
X177116Y194277D01*
X177111Y194288D01*
X177093Y194292D01*
X177096Y194294D01*
X177100Y194294D01*
X177109Y194301D01*
X177145Y194319D01*
X177142Y194325D01*
X177147Y194329D01*
X177143Y194335D01*
X177149Y194340D01*
X177149Y201737D01*
X177245Y202410D01*
X177716Y202692D01*
X178496Y202790D01*
X179163Y202599D01*
X179351Y202131D01*
X179351Y194049D01*
X179163Y193580D01*
X178592Y193389D01*
X177716Y193389D01*
G37*
%LPD*%
%LPC*%
G36*
X442366Y138859D02*
X442366Y138859D01*
X441795Y139050D01*
X441606Y139523D01*
X441507Y140213D01*
X441507Y147007D01*
X441605Y147691D01*
X441888Y148067D01*
X442562Y148260D01*
X443335Y148163D01*
X443709Y147790D01*
X443709Y146610D01*
X443735Y146576D01*
X443737Y146566D01*
X443765Y146552D01*
X443764Y146552D01*
X443720Y146541D01*
X443724Y146522D01*
X443709Y146510D01*
X443709Y139714D01*
X443613Y139138D01*
X443242Y138859D01*
X442366Y138859D01*
G37*
%LPD*%
%LPC*%
G36*
X451572Y138859D02*
X451572Y138859D01*
X451103Y139141D01*
X451007Y139714D01*
X451007Y141110D01*
X450988Y141136D01*
X450988Y141149D01*
X450588Y141449D01*
X450566Y141449D01*
X450558Y141459D01*
X449261Y141459D01*
X448569Y141558D01*
X448025Y141739D01*
X448890Y143661D01*
X450658Y143661D01*
X450684Y143680D01*
X450697Y143680D01*
X450977Y144053D01*
X453209Y143423D01*
X453209Y140313D01*
X453109Y139618D01*
X453014Y139047D01*
X452450Y138859D01*
X451572Y138859D01*
G37*
%LPD*%
D10*
X154940Y169926D02*
X180340Y169926D01*
X154940Y190246D02*
X154807Y190244D01*
X154674Y190238D01*
X154542Y190229D01*
X154409Y190215D01*
X154277Y190198D01*
X154146Y190177D01*
X154015Y190152D01*
X153886Y190123D01*
X153757Y190090D01*
X153629Y190054D01*
X153502Y190014D01*
X153376Y189970D01*
X153252Y189923D01*
X153129Y189872D01*
X153008Y189818D01*
X152888Y189760D01*
X152770Y189698D01*
X152654Y189633D01*
X152540Y189565D01*
X152428Y189494D01*
X152318Y189419D01*
X152210Y189341D01*
X152104Y189260D01*
X152001Y189176D01*
X151901Y189089D01*
X151803Y189000D01*
X151707Y188907D01*
X151614Y188811D01*
X151525Y188713D01*
X151438Y188613D01*
X151354Y188510D01*
X151273Y188404D01*
X151195Y188296D01*
X151120Y188186D01*
X151049Y188074D01*
X150981Y187960D01*
X150916Y187844D01*
X150854Y187726D01*
X150796Y187606D01*
X150742Y187485D01*
X150691Y187362D01*
X150644Y187238D01*
X150600Y187112D01*
X150560Y186985D01*
X150524Y186857D01*
X150491Y186728D01*
X150462Y186599D01*
X150437Y186468D01*
X150416Y186337D01*
X150399Y186205D01*
X150385Y186072D01*
X150376Y185940D01*
X150370Y185807D01*
X150368Y185674D01*
X180340Y190246D02*
X180473Y190244D01*
X180606Y190238D01*
X180738Y190229D01*
X180871Y190215D01*
X181003Y190198D01*
X181134Y190177D01*
X181265Y190152D01*
X181394Y190123D01*
X181523Y190090D01*
X181651Y190054D01*
X181778Y190014D01*
X181904Y189970D01*
X182028Y189923D01*
X182151Y189872D01*
X182272Y189818D01*
X182392Y189760D01*
X182510Y189698D01*
X182626Y189633D01*
X182740Y189565D01*
X182852Y189494D01*
X182962Y189419D01*
X183070Y189341D01*
X183176Y189260D01*
X183279Y189176D01*
X183379Y189089D01*
X183477Y189000D01*
X183573Y188907D01*
X183666Y188811D01*
X183755Y188713D01*
X183842Y188613D01*
X183926Y188510D01*
X184007Y188404D01*
X184085Y188296D01*
X184160Y188186D01*
X184231Y188074D01*
X184299Y187960D01*
X184364Y187844D01*
X184426Y187726D01*
X184484Y187606D01*
X184538Y187485D01*
X184589Y187362D01*
X184636Y187238D01*
X184680Y187112D01*
X184720Y186985D01*
X184756Y186857D01*
X184789Y186728D01*
X184818Y186599D01*
X184843Y186468D01*
X184864Y186337D01*
X184881Y186205D01*
X184895Y186072D01*
X184904Y185940D01*
X184910Y185807D01*
X184912Y185674D01*
X184912Y174498D02*
X184910Y174365D01*
X184904Y174232D01*
X184895Y174100D01*
X184881Y173967D01*
X184864Y173835D01*
X184843Y173704D01*
X184818Y173573D01*
X184789Y173444D01*
X184756Y173315D01*
X184720Y173187D01*
X184680Y173060D01*
X184636Y172934D01*
X184589Y172810D01*
X184538Y172687D01*
X184484Y172566D01*
X184426Y172446D01*
X184364Y172328D01*
X184299Y172212D01*
X184231Y172098D01*
X184160Y171986D01*
X184085Y171876D01*
X184007Y171768D01*
X183926Y171662D01*
X183842Y171559D01*
X183755Y171459D01*
X183666Y171361D01*
X183573Y171265D01*
X183477Y171172D01*
X183379Y171083D01*
X183279Y170996D01*
X183176Y170912D01*
X183070Y170831D01*
X182962Y170753D01*
X182852Y170678D01*
X182740Y170607D01*
X182626Y170539D01*
X182510Y170474D01*
X182392Y170412D01*
X182272Y170354D01*
X182151Y170300D01*
X182028Y170249D01*
X181904Y170202D01*
X181778Y170158D01*
X181651Y170118D01*
X181523Y170082D01*
X181394Y170049D01*
X181265Y170020D01*
X181134Y169995D01*
X181003Y169974D01*
X180871Y169957D01*
X180738Y169943D01*
X180606Y169934D01*
X180473Y169928D01*
X180340Y169926D01*
X154940Y169926D02*
X154807Y169928D01*
X154674Y169934D01*
X154542Y169943D01*
X154409Y169957D01*
X154277Y169974D01*
X154146Y169995D01*
X154015Y170020D01*
X153886Y170049D01*
X153757Y170082D01*
X153629Y170118D01*
X153502Y170158D01*
X153376Y170202D01*
X153252Y170249D01*
X153129Y170300D01*
X153008Y170354D01*
X152888Y170412D01*
X152770Y170474D01*
X152654Y170539D01*
X152540Y170607D01*
X152428Y170678D01*
X152318Y170753D01*
X152210Y170831D01*
X152104Y170912D01*
X152001Y170996D01*
X151901Y171083D01*
X151803Y171172D01*
X151707Y171265D01*
X151614Y171361D01*
X151525Y171459D01*
X151438Y171559D01*
X151354Y171662D01*
X151273Y171768D01*
X151195Y171876D01*
X151120Y171986D01*
X151049Y172098D01*
X150981Y172212D01*
X150916Y172328D01*
X150854Y172446D01*
X150796Y172566D01*
X150742Y172687D01*
X150691Y172810D01*
X150644Y172934D01*
X150600Y173060D01*
X150560Y173187D01*
X150524Y173315D01*
X150491Y173444D01*
X150462Y173573D01*
X150437Y173704D01*
X150416Y173835D01*
X150399Y173967D01*
X150385Y174100D01*
X150376Y174232D01*
X150370Y174365D01*
X150368Y174498D01*
X150368Y185674D01*
X184912Y185674D02*
X184912Y174498D01*
X180340Y190246D02*
X154940Y190246D01*
X547624Y6096D02*
X562864Y6096D01*
X543052Y21844D02*
X543054Y21977D01*
X543060Y22110D01*
X543069Y22242D01*
X543083Y22375D01*
X543100Y22507D01*
X543121Y22638D01*
X543146Y22769D01*
X543175Y22898D01*
X543208Y23027D01*
X543244Y23155D01*
X543284Y23282D01*
X543328Y23408D01*
X543375Y23532D01*
X543426Y23655D01*
X543480Y23776D01*
X543538Y23896D01*
X543600Y24014D01*
X543665Y24130D01*
X543733Y24244D01*
X543804Y24356D01*
X543879Y24466D01*
X543957Y24574D01*
X544038Y24680D01*
X544122Y24783D01*
X544209Y24883D01*
X544298Y24981D01*
X544391Y25077D01*
X544487Y25170D01*
X544585Y25259D01*
X544685Y25346D01*
X544788Y25430D01*
X544894Y25511D01*
X545002Y25589D01*
X545112Y25664D01*
X545224Y25735D01*
X545338Y25803D01*
X545454Y25868D01*
X545572Y25930D01*
X545692Y25988D01*
X545813Y26042D01*
X545936Y26093D01*
X546060Y26140D01*
X546186Y26184D01*
X546313Y26224D01*
X546441Y26260D01*
X546570Y26293D01*
X546699Y26322D01*
X546830Y26347D01*
X546961Y26368D01*
X547093Y26385D01*
X547226Y26399D01*
X547358Y26408D01*
X547491Y26414D01*
X547624Y26416D01*
X562864Y26416D02*
X562997Y26414D01*
X563130Y26408D01*
X563262Y26399D01*
X563395Y26385D01*
X563527Y26368D01*
X563658Y26347D01*
X563789Y26322D01*
X563918Y26293D01*
X564047Y26260D01*
X564175Y26224D01*
X564302Y26184D01*
X564428Y26140D01*
X564552Y26093D01*
X564675Y26042D01*
X564796Y25988D01*
X564916Y25930D01*
X565034Y25868D01*
X565150Y25803D01*
X565264Y25735D01*
X565376Y25664D01*
X565486Y25589D01*
X565594Y25511D01*
X565700Y25430D01*
X565803Y25346D01*
X565903Y25259D01*
X566001Y25170D01*
X566097Y25077D01*
X566190Y24981D01*
X566279Y24883D01*
X566366Y24783D01*
X566450Y24680D01*
X566531Y24574D01*
X566609Y24466D01*
X566684Y24356D01*
X566755Y24244D01*
X566823Y24130D01*
X566888Y24014D01*
X566950Y23896D01*
X567008Y23776D01*
X567062Y23655D01*
X567113Y23532D01*
X567160Y23408D01*
X567204Y23282D01*
X567244Y23155D01*
X567280Y23027D01*
X567313Y22898D01*
X567342Y22769D01*
X567367Y22638D01*
X567388Y22507D01*
X567405Y22375D01*
X567419Y22242D01*
X567428Y22110D01*
X567434Y21977D01*
X567436Y21844D01*
X567436Y10668D02*
X567434Y10535D01*
X567428Y10402D01*
X567419Y10270D01*
X567405Y10137D01*
X567388Y10005D01*
X567367Y9874D01*
X567342Y9743D01*
X567313Y9614D01*
X567280Y9485D01*
X567244Y9357D01*
X567204Y9230D01*
X567160Y9104D01*
X567113Y8980D01*
X567062Y8857D01*
X567008Y8736D01*
X566950Y8616D01*
X566888Y8498D01*
X566823Y8382D01*
X566755Y8268D01*
X566684Y8156D01*
X566609Y8046D01*
X566531Y7938D01*
X566450Y7832D01*
X566366Y7729D01*
X566279Y7629D01*
X566190Y7531D01*
X566097Y7435D01*
X566001Y7342D01*
X565903Y7253D01*
X565803Y7166D01*
X565700Y7082D01*
X565594Y7001D01*
X565486Y6923D01*
X565376Y6848D01*
X565264Y6777D01*
X565150Y6709D01*
X565034Y6644D01*
X564916Y6582D01*
X564796Y6524D01*
X564675Y6470D01*
X564552Y6419D01*
X564428Y6372D01*
X564302Y6328D01*
X564175Y6288D01*
X564047Y6252D01*
X563918Y6219D01*
X563789Y6190D01*
X563658Y6165D01*
X563527Y6144D01*
X563395Y6127D01*
X563262Y6113D01*
X563130Y6104D01*
X562997Y6098D01*
X562864Y6096D01*
X547624Y6096D02*
X547491Y6098D01*
X547358Y6104D01*
X547226Y6113D01*
X547093Y6127D01*
X546961Y6144D01*
X546830Y6165D01*
X546699Y6190D01*
X546570Y6219D01*
X546441Y6252D01*
X546313Y6288D01*
X546186Y6328D01*
X546060Y6372D01*
X545936Y6419D01*
X545813Y6470D01*
X545692Y6524D01*
X545572Y6582D01*
X545454Y6644D01*
X545338Y6709D01*
X545224Y6777D01*
X545112Y6848D01*
X545002Y6923D01*
X544894Y7001D01*
X544788Y7082D01*
X544685Y7166D01*
X544585Y7253D01*
X544487Y7342D01*
X544391Y7435D01*
X544298Y7531D01*
X544209Y7629D01*
X544122Y7729D01*
X544038Y7832D01*
X543957Y7938D01*
X543879Y8046D01*
X543804Y8156D01*
X543733Y8268D01*
X543665Y8382D01*
X543600Y8498D01*
X543538Y8616D01*
X543480Y8736D01*
X543426Y8857D01*
X543375Y8980D01*
X543328Y9104D01*
X543284Y9230D01*
X543244Y9357D01*
X543208Y9485D01*
X543175Y9614D01*
X543146Y9743D01*
X543121Y9874D01*
X543100Y10005D01*
X543083Y10137D01*
X543069Y10270D01*
X543060Y10402D01*
X543054Y10535D01*
X543052Y10668D01*
X543052Y21844D01*
X567436Y21844D02*
X567436Y10668D01*
X562864Y26416D02*
X547624Y26416D01*
D11*
X440690Y117094D02*
X440690Y134366D01*
X458470Y136906D02*
X458570Y136904D01*
X458669Y136898D01*
X458769Y136888D01*
X458867Y136875D01*
X458966Y136857D01*
X459063Y136836D01*
X459159Y136811D01*
X459255Y136782D01*
X459349Y136749D01*
X459442Y136713D01*
X459533Y136673D01*
X459623Y136629D01*
X459711Y136582D01*
X459797Y136532D01*
X459881Y136478D01*
X459963Y136421D01*
X460042Y136361D01*
X460120Y136297D01*
X460194Y136231D01*
X460266Y136162D01*
X460335Y136090D01*
X460401Y136016D01*
X460465Y135938D01*
X460525Y135859D01*
X460582Y135777D01*
X460636Y135693D01*
X460686Y135607D01*
X460733Y135519D01*
X460777Y135429D01*
X460817Y135338D01*
X460853Y135245D01*
X460886Y135151D01*
X460915Y135055D01*
X460940Y134959D01*
X460961Y134862D01*
X460979Y134763D01*
X460992Y134665D01*
X461002Y134565D01*
X461008Y134466D01*
X461010Y134366D01*
X461010Y117094D02*
X461008Y116994D01*
X461002Y116895D01*
X460992Y116795D01*
X460979Y116697D01*
X460961Y116598D01*
X460940Y116501D01*
X460915Y116405D01*
X460886Y116309D01*
X460853Y116215D01*
X460817Y116122D01*
X460777Y116031D01*
X460733Y115941D01*
X460686Y115853D01*
X460636Y115767D01*
X460582Y115683D01*
X460525Y115601D01*
X460465Y115522D01*
X460401Y115444D01*
X460335Y115370D01*
X460266Y115298D01*
X460194Y115229D01*
X460120Y115163D01*
X460042Y115099D01*
X459963Y115039D01*
X459881Y114982D01*
X459797Y114928D01*
X459711Y114878D01*
X459623Y114831D01*
X459533Y114787D01*
X459442Y114747D01*
X459349Y114711D01*
X459255Y114678D01*
X459159Y114649D01*
X459063Y114624D01*
X458966Y114603D01*
X458867Y114585D01*
X458769Y114572D01*
X458669Y114562D01*
X458570Y114556D01*
X458470Y114554D01*
X443230Y114554D02*
X443130Y114556D01*
X443031Y114562D01*
X442931Y114572D01*
X442833Y114585D01*
X442734Y114603D01*
X442637Y114624D01*
X442541Y114649D01*
X442445Y114678D01*
X442351Y114711D01*
X442258Y114747D01*
X442167Y114787D01*
X442077Y114831D01*
X441989Y114878D01*
X441903Y114928D01*
X441819Y114982D01*
X441737Y115039D01*
X441658Y115099D01*
X441580Y115163D01*
X441506Y115229D01*
X441434Y115298D01*
X441365Y115370D01*
X441299Y115444D01*
X441235Y115522D01*
X441175Y115601D01*
X441118Y115683D01*
X441064Y115767D01*
X441014Y115853D01*
X440967Y115941D01*
X440923Y116031D01*
X440883Y116122D01*
X440847Y116215D01*
X440814Y116309D01*
X440785Y116405D01*
X440760Y116501D01*
X440739Y116598D01*
X440721Y116697D01*
X440708Y116795D01*
X440698Y116895D01*
X440692Y116994D01*
X440690Y117094D01*
X440690Y134366D02*
X440692Y134466D01*
X440698Y134565D01*
X440708Y134665D01*
X440721Y134763D01*
X440739Y134862D01*
X440760Y134959D01*
X440785Y135055D01*
X440814Y135151D01*
X440847Y135245D01*
X440883Y135338D01*
X440923Y135429D01*
X440967Y135519D01*
X441014Y135607D01*
X441064Y135693D01*
X441118Y135777D01*
X441175Y135859D01*
X441235Y135938D01*
X441299Y136016D01*
X441365Y136090D01*
X441434Y136162D01*
X441506Y136231D01*
X441580Y136297D01*
X441658Y136361D01*
X441737Y136421D01*
X441819Y136478D01*
X441903Y136532D01*
X441989Y136582D01*
X442077Y136629D01*
X442167Y136673D01*
X442258Y136713D01*
X442351Y136749D01*
X442445Y136782D01*
X442541Y136811D01*
X442637Y136836D01*
X442734Y136857D01*
X442833Y136875D01*
X442931Y136888D01*
X443031Y136898D01*
X443130Y136904D01*
X443230Y136906D01*
X458470Y136906D01*
X458470Y114554D02*
X443230Y114554D01*
X461010Y117094D02*
X461010Y134366D01*
D10*
X502920Y6096D02*
X518160Y6096D01*
X498348Y21844D02*
X498350Y21977D01*
X498356Y22110D01*
X498365Y22242D01*
X498379Y22375D01*
X498396Y22507D01*
X498417Y22638D01*
X498442Y22769D01*
X498471Y22898D01*
X498504Y23027D01*
X498540Y23155D01*
X498580Y23282D01*
X498624Y23408D01*
X498671Y23532D01*
X498722Y23655D01*
X498776Y23776D01*
X498834Y23896D01*
X498896Y24014D01*
X498961Y24130D01*
X499029Y24244D01*
X499100Y24356D01*
X499175Y24466D01*
X499253Y24574D01*
X499334Y24680D01*
X499418Y24783D01*
X499505Y24883D01*
X499594Y24981D01*
X499687Y25077D01*
X499783Y25170D01*
X499881Y25259D01*
X499981Y25346D01*
X500084Y25430D01*
X500190Y25511D01*
X500298Y25589D01*
X500408Y25664D01*
X500520Y25735D01*
X500634Y25803D01*
X500750Y25868D01*
X500868Y25930D01*
X500988Y25988D01*
X501109Y26042D01*
X501232Y26093D01*
X501356Y26140D01*
X501482Y26184D01*
X501609Y26224D01*
X501737Y26260D01*
X501866Y26293D01*
X501995Y26322D01*
X502126Y26347D01*
X502257Y26368D01*
X502389Y26385D01*
X502522Y26399D01*
X502654Y26408D01*
X502787Y26414D01*
X502920Y26416D01*
X518160Y26416D02*
X518293Y26414D01*
X518426Y26408D01*
X518558Y26399D01*
X518691Y26385D01*
X518823Y26368D01*
X518954Y26347D01*
X519085Y26322D01*
X519214Y26293D01*
X519343Y26260D01*
X519471Y26224D01*
X519598Y26184D01*
X519724Y26140D01*
X519848Y26093D01*
X519971Y26042D01*
X520092Y25988D01*
X520212Y25930D01*
X520330Y25868D01*
X520446Y25803D01*
X520560Y25735D01*
X520672Y25664D01*
X520782Y25589D01*
X520890Y25511D01*
X520996Y25430D01*
X521099Y25346D01*
X521199Y25259D01*
X521297Y25170D01*
X521393Y25077D01*
X521486Y24981D01*
X521575Y24883D01*
X521662Y24783D01*
X521746Y24680D01*
X521827Y24574D01*
X521905Y24466D01*
X521980Y24356D01*
X522051Y24244D01*
X522119Y24130D01*
X522184Y24014D01*
X522246Y23896D01*
X522304Y23776D01*
X522358Y23655D01*
X522409Y23532D01*
X522456Y23408D01*
X522500Y23282D01*
X522540Y23155D01*
X522576Y23027D01*
X522609Y22898D01*
X522638Y22769D01*
X522663Y22638D01*
X522684Y22507D01*
X522701Y22375D01*
X522715Y22242D01*
X522724Y22110D01*
X522730Y21977D01*
X522732Y21844D01*
X522732Y10668D02*
X522730Y10535D01*
X522724Y10402D01*
X522715Y10270D01*
X522701Y10137D01*
X522684Y10005D01*
X522663Y9874D01*
X522638Y9743D01*
X522609Y9614D01*
X522576Y9485D01*
X522540Y9357D01*
X522500Y9230D01*
X522456Y9104D01*
X522409Y8980D01*
X522358Y8857D01*
X522304Y8736D01*
X522246Y8616D01*
X522184Y8498D01*
X522119Y8382D01*
X522051Y8268D01*
X521980Y8156D01*
X521905Y8046D01*
X521827Y7938D01*
X521746Y7832D01*
X521662Y7729D01*
X521575Y7629D01*
X521486Y7531D01*
X521393Y7435D01*
X521297Y7342D01*
X521199Y7253D01*
X521099Y7166D01*
X520996Y7082D01*
X520890Y7001D01*
X520782Y6923D01*
X520672Y6848D01*
X520560Y6777D01*
X520446Y6709D01*
X520330Y6644D01*
X520212Y6582D01*
X520092Y6524D01*
X519971Y6470D01*
X519848Y6419D01*
X519724Y6372D01*
X519598Y6328D01*
X519471Y6288D01*
X519343Y6252D01*
X519214Y6219D01*
X519085Y6190D01*
X518954Y6165D01*
X518823Y6144D01*
X518691Y6127D01*
X518558Y6113D01*
X518426Y6104D01*
X518293Y6098D01*
X518160Y6096D01*
X502920Y6096D02*
X502787Y6098D01*
X502654Y6104D01*
X502522Y6113D01*
X502389Y6127D01*
X502257Y6144D01*
X502126Y6165D01*
X501995Y6190D01*
X501866Y6219D01*
X501737Y6252D01*
X501609Y6288D01*
X501482Y6328D01*
X501356Y6372D01*
X501232Y6419D01*
X501109Y6470D01*
X500988Y6524D01*
X500868Y6582D01*
X500750Y6644D01*
X500634Y6709D01*
X500520Y6777D01*
X500408Y6848D01*
X500298Y6923D01*
X500190Y7001D01*
X500084Y7082D01*
X499981Y7166D01*
X499881Y7253D01*
X499783Y7342D01*
X499687Y7435D01*
X499594Y7531D01*
X499505Y7629D01*
X499418Y7729D01*
X499334Y7832D01*
X499253Y7938D01*
X499175Y8046D01*
X499100Y8156D01*
X499029Y8268D01*
X498961Y8382D01*
X498896Y8498D01*
X498834Y8616D01*
X498776Y8736D01*
X498722Y8857D01*
X498671Y8980D01*
X498624Y9104D01*
X498580Y9230D01*
X498540Y9357D01*
X498504Y9485D01*
X498471Y9614D01*
X498442Y9743D01*
X498417Y9874D01*
X498396Y10005D01*
X498379Y10137D01*
X498365Y10270D01*
X498356Y10402D01*
X498350Y10535D01*
X498348Y10668D01*
X498348Y21844D01*
X522732Y21844D02*
X522732Y10668D01*
X518160Y26416D02*
X502920Y26416D01*
M02*
