G04 EAGLE Gerber RS-274X export*
G75*
%MOMM*%
%FSLAX34Y34*%
%LPD*%
%INSilkscreen Bottom*%
%IPPOS*%
%AMOC8*
5,1,8,0,0,1.08239X$1,22.5*%
G01*
%ADD10C,0.203200*%

G36*
X620274Y166559D02*
X620274Y166559D01*
X620278Y166556D01*
X620778Y166656D01*
X620806Y166688D01*
X620808Y166689D01*
X620808Y166690D01*
X620817Y166700D01*
X620815Y166702D01*
X620817Y166704D01*
X620817Y176804D01*
X620781Y176851D01*
X620774Y176846D01*
X620768Y176853D01*
X571468Y176853D01*
X571462Y176849D01*
X571458Y176852D01*
X570963Y176753D01*
X570468Y176753D01*
X570463Y176750D01*
X570459Y176750D01*
X570455Y176747D01*
X570450Y176750D01*
X569954Y176551D01*
X569458Y176452D01*
X569450Y176443D01*
X569443Y176446D01*
X568945Y176147D01*
X568546Y175948D01*
X568541Y175938D01*
X568533Y175939D01*
X568136Y175541D01*
X567738Y175243D01*
X567736Y175234D01*
X567729Y175234D01*
X567129Y174434D01*
X567129Y174424D01*
X567122Y174422D01*
X566923Y173924D01*
X566724Y173526D01*
X566725Y173523D01*
X566722Y173522D01*
X566522Y173022D01*
X566523Y173021D01*
X566522Y173020D01*
X566524Y173017D01*
X566524Y173016D01*
X566520Y173014D01*
X566420Y172514D01*
X566423Y172507D01*
X566419Y172504D01*
X566419Y171004D01*
X566423Y170998D01*
X566420Y170994D01*
X566620Y169994D01*
X566625Y169990D01*
X566622Y169986D01*
X566822Y169486D01*
X566830Y169481D01*
X566829Y169474D01*
X567729Y168274D01*
X567734Y168273D01*
X567733Y168269D01*
X568133Y167869D01*
X568138Y167868D01*
X568138Y167865D01*
X568938Y167265D01*
X568945Y167265D01*
X568946Y167260D01*
X569346Y167060D01*
X569349Y167061D01*
X569350Y167058D01*
X570350Y166658D01*
X570363Y166662D01*
X570368Y166655D01*
X570863Y166655D01*
X571358Y166556D01*
X571365Y166559D01*
X571368Y166555D01*
X620268Y166555D01*
X620274Y166559D01*
G37*
G36*
X620731Y202405D02*
X620731Y202405D01*
X620731Y202406D01*
X620732Y202406D01*
X620832Y202806D01*
X620828Y202814D01*
X620833Y202818D01*
X620833Y212518D01*
X620797Y212565D01*
X620796Y212565D01*
X620796Y212566D01*
X620396Y212666D01*
X620388Y212662D01*
X620384Y212667D01*
X573184Y212667D01*
X573178Y212663D01*
X573174Y212666D01*
X571674Y212366D01*
X571668Y212359D01*
X571662Y212362D01*
X571262Y212162D01*
X571261Y212159D01*
X571259Y212160D01*
X570759Y211860D01*
X570757Y211857D01*
X570754Y211857D01*
X569954Y211257D01*
X569952Y211248D01*
X569945Y211248D01*
X569647Y210850D01*
X569249Y210453D01*
X569248Y210441D01*
X569240Y210440D01*
X569041Y210041D01*
X568742Y209543D01*
X568743Y209533D01*
X568736Y209530D01*
X568637Y209133D01*
X568438Y208636D01*
X568442Y208623D01*
X568435Y208618D01*
X568435Y208123D01*
X568336Y207628D01*
X568339Y207621D01*
X568335Y207618D01*
X568335Y207118D01*
X568339Y207112D01*
X568336Y207108D01*
X568536Y206108D01*
X568541Y206104D01*
X568538Y206100D01*
X568938Y205100D01*
X568946Y205095D01*
X568945Y205088D01*
X569845Y203888D01*
X569854Y203886D01*
X569854Y203879D01*
X571054Y202979D01*
X571064Y202979D01*
X571066Y202972D01*
X572066Y202572D01*
X572072Y202574D01*
X572074Y202570D01*
X573074Y202370D01*
X573081Y202373D01*
X573084Y202369D01*
X620684Y202369D01*
X620731Y202405D01*
G37*
G36*
X110920Y12846D02*
X110920Y12846D01*
X111028Y12856D01*
X111041Y12862D01*
X111055Y12864D01*
X111152Y12912D01*
X111251Y12957D01*
X111264Y12968D01*
X111273Y12972D01*
X111288Y12988D01*
X111365Y13050D01*
X113950Y15635D01*
X114013Y15724D01*
X114079Y15809D01*
X114084Y15822D01*
X114092Y15834D01*
X114123Y15937D01*
X114159Y16040D01*
X114159Y16054D01*
X114163Y16067D01*
X114159Y16175D01*
X114160Y16284D01*
X114155Y16297D01*
X114155Y16311D01*
X114117Y16413D01*
X114082Y16515D01*
X114073Y16530D01*
X114069Y16539D01*
X114055Y16556D01*
X114001Y16638D01*
X111237Y20028D01*
X111794Y21110D01*
X111800Y21130D01*
X111842Y21225D01*
X112213Y22384D01*
X116564Y22827D01*
X116668Y22855D01*
X116774Y22880D01*
X116786Y22887D01*
X116799Y22890D01*
X116889Y22951D01*
X116982Y23008D01*
X116990Y23019D01*
X117002Y23027D01*
X117068Y23113D01*
X117137Y23197D01*
X117141Y23210D01*
X117150Y23221D01*
X117184Y23324D01*
X117223Y23425D01*
X117224Y23443D01*
X117228Y23452D01*
X117228Y23474D01*
X117237Y23572D01*
X117237Y27228D01*
X117220Y27335D01*
X117206Y27443D01*
X117200Y27455D01*
X117198Y27469D01*
X117146Y27565D01*
X117099Y27662D01*
X117089Y27672D01*
X117083Y27684D01*
X117003Y27758D01*
X116927Y27835D01*
X116915Y27841D01*
X116905Y27851D01*
X116806Y27896D01*
X116709Y27944D01*
X116691Y27948D01*
X116682Y27952D01*
X116661Y27954D01*
X116564Y27973D01*
X112213Y28416D01*
X111842Y29575D01*
X111833Y29592D01*
X111831Y29600D01*
X111827Y29607D01*
X111794Y29690D01*
X111237Y30772D01*
X114001Y34162D01*
X114055Y34256D01*
X114112Y34348D01*
X114115Y34361D01*
X114122Y34373D01*
X114143Y34480D01*
X114168Y34585D01*
X114166Y34599D01*
X114169Y34613D01*
X114154Y34720D01*
X114144Y34828D01*
X114138Y34841D01*
X114136Y34855D01*
X114088Y34952D01*
X114043Y35051D01*
X114032Y35064D01*
X114028Y35073D01*
X114012Y35088D01*
X113950Y35165D01*
X111365Y37750D01*
X111276Y37813D01*
X111191Y37879D01*
X111178Y37884D01*
X111166Y37892D01*
X111063Y37923D01*
X110960Y37959D01*
X110946Y37959D01*
X110933Y37963D01*
X110825Y37959D01*
X110716Y37960D01*
X110703Y37955D01*
X110689Y37955D01*
X110587Y37917D01*
X110485Y37882D01*
X110470Y37873D01*
X110461Y37869D01*
X110444Y37855D01*
X110362Y37801D01*
X106972Y35037D01*
X105890Y35594D01*
X105870Y35600D01*
X105775Y35642D01*
X104616Y36013D01*
X104173Y40364D01*
X104145Y40468D01*
X104120Y40574D01*
X104113Y40586D01*
X104110Y40599D01*
X104049Y40689D01*
X103992Y40782D01*
X103981Y40790D01*
X103973Y40802D01*
X103887Y40868D01*
X103803Y40937D01*
X103790Y40941D01*
X103779Y40950D01*
X103676Y40984D01*
X103575Y41023D01*
X103557Y41024D01*
X103548Y41028D01*
X103526Y41028D01*
X103428Y41037D01*
X99772Y41037D01*
X99665Y41020D01*
X99557Y41006D01*
X99545Y41000D01*
X99531Y40998D01*
X99435Y40946D01*
X99338Y40899D01*
X99328Y40889D01*
X99316Y40883D01*
X99242Y40803D01*
X99165Y40727D01*
X99159Y40715D01*
X99149Y40705D01*
X99104Y40606D01*
X99056Y40509D01*
X99052Y40491D01*
X99048Y40482D01*
X99046Y40461D01*
X99027Y40364D01*
X98584Y36013D01*
X97425Y35642D01*
X97407Y35632D01*
X97310Y35594D01*
X96228Y35037D01*
X92838Y37801D01*
X92744Y37855D01*
X92652Y37912D01*
X92639Y37915D01*
X92627Y37922D01*
X92520Y37943D01*
X92415Y37968D01*
X92401Y37966D01*
X92387Y37969D01*
X92280Y37954D01*
X92172Y37944D01*
X92159Y37938D01*
X92146Y37936D01*
X92048Y37888D01*
X91949Y37843D01*
X91936Y37832D01*
X91927Y37828D01*
X91912Y37812D01*
X91835Y37750D01*
X89250Y35165D01*
X89187Y35076D01*
X89121Y34991D01*
X89116Y34978D01*
X89108Y34966D01*
X89077Y34863D01*
X89041Y34760D01*
X89041Y34746D01*
X89037Y34733D01*
X89041Y34625D01*
X89040Y34516D01*
X89045Y34503D01*
X89045Y34489D01*
X89083Y34387D01*
X89118Y34285D01*
X89127Y34270D01*
X89131Y34261D01*
X89145Y34244D01*
X89199Y34162D01*
X91963Y30772D01*
X91406Y29690D01*
X91400Y29670D01*
X91358Y29575D01*
X90987Y28416D01*
X86636Y27973D01*
X86532Y27945D01*
X86426Y27920D01*
X86414Y27913D01*
X86401Y27910D01*
X86311Y27849D01*
X86218Y27792D01*
X86210Y27781D01*
X86198Y27773D01*
X86132Y27687D01*
X86064Y27603D01*
X86059Y27590D01*
X86050Y27579D01*
X86016Y27476D01*
X85977Y27375D01*
X85976Y27357D01*
X85972Y27348D01*
X85973Y27326D01*
X85963Y27228D01*
X85963Y23572D01*
X85980Y23465D01*
X85994Y23357D01*
X86000Y23345D01*
X86002Y23331D01*
X86054Y23235D01*
X86101Y23138D01*
X86111Y23128D01*
X86117Y23116D01*
X86197Y23042D01*
X86273Y22965D01*
X86285Y22959D01*
X86296Y22949D01*
X86394Y22904D01*
X86491Y22856D01*
X86509Y22852D01*
X86518Y22848D01*
X86539Y22846D01*
X86636Y22827D01*
X90987Y22384D01*
X91358Y21225D01*
X91368Y21207D01*
X91406Y21110D01*
X91963Y20028D01*
X89199Y16638D01*
X89145Y16544D01*
X89088Y16452D01*
X89085Y16439D01*
X89078Y16427D01*
X89057Y16320D01*
X89032Y16215D01*
X89034Y16201D01*
X89031Y16187D01*
X89046Y16080D01*
X89056Y15972D01*
X89062Y15959D01*
X89064Y15946D01*
X89112Y15848D01*
X89157Y15749D01*
X89168Y15736D01*
X89172Y15727D01*
X89188Y15712D01*
X89250Y15635D01*
X91835Y13050D01*
X91924Y12987D01*
X92009Y12921D01*
X92022Y12916D01*
X92034Y12908D01*
X92137Y12877D01*
X92240Y12841D01*
X92254Y12841D01*
X92267Y12837D01*
X92375Y12841D01*
X92484Y12840D01*
X92497Y12845D01*
X92511Y12845D01*
X92613Y12883D01*
X92715Y12918D01*
X92730Y12927D01*
X92739Y12931D01*
X92756Y12945D01*
X92838Y12999D01*
X96228Y15763D01*
X97310Y15206D01*
X97363Y15189D01*
X97412Y15163D01*
X97478Y15152D01*
X97542Y15131D01*
X97598Y15132D01*
X97652Y15123D01*
X97719Y15134D01*
X97786Y15135D01*
X97838Y15153D01*
X97893Y15162D01*
X97953Y15194D01*
X98016Y15217D01*
X98059Y15251D01*
X98109Y15277D01*
X98155Y15326D01*
X98207Y15368D01*
X98238Y15415D01*
X98276Y15455D01*
X98332Y15560D01*
X98340Y15573D01*
X98341Y15578D01*
X98345Y15585D01*
X100498Y20782D01*
X100518Y20865D01*
X100523Y20878D01*
X100525Y20894D01*
X100550Y20979D01*
X100549Y21000D01*
X100554Y21020D01*
X100546Y21102D01*
X100548Y21121D01*
X100543Y21141D01*
X100539Y21222D01*
X100532Y21242D01*
X100530Y21263D01*
X100499Y21332D01*
X100492Y21359D01*
X100477Y21383D01*
X100451Y21450D01*
X100438Y21466D01*
X100429Y21485D01*
X100384Y21534D01*
X100364Y21566D01*
X100333Y21591D01*
X100295Y21637D01*
X100272Y21653D01*
X100262Y21663D01*
X100241Y21675D01*
X100176Y21720D01*
X100175Y21721D01*
X100174Y21722D01*
X99275Y22228D01*
X98588Y22872D01*
X98073Y23660D01*
X97761Y24548D01*
X97669Y25485D01*
X97802Y26417D01*
X98153Y27291D01*
X98702Y28056D01*
X99416Y28669D01*
X100256Y29094D01*
X101173Y29308D01*
X102114Y29298D01*
X103026Y29064D01*
X103856Y28621D01*
X104557Y27992D01*
X105089Y27215D01*
X105420Y26334D01*
X105533Y25399D01*
X105425Y24482D01*
X105105Y23614D01*
X104591Y22845D01*
X103912Y22218D01*
X103028Y21723D01*
X102986Y21690D01*
X102944Y21667D01*
X102913Y21634D01*
X102865Y21599D01*
X102853Y21583D01*
X102837Y21570D01*
X102802Y21515D01*
X102777Y21489D01*
X102763Y21458D01*
X102722Y21401D01*
X102716Y21382D01*
X102706Y21365D01*
X102687Y21290D01*
X102677Y21267D01*
X102674Y21243D01*
X102651Y21168D01*
X102652Y21148D01*
X102647Y21128D01*
X102654Y21043D01*
X102653Y21024D01*
X102656Y21007D01*
X102659Y20924D01*
X102667Y20899D01*
X102668Y20885D01*
X102678Y20863D01*
X102702Y20782D01*
X103011Y20037D01*
X103942Y17789D01*
X104252Y17040D01*
X104855Y15585D01*
X104884Y15538D01*
X104905Y15486D01*
X104948Y15435D01*
X104984Y15378D01*
X105027Y15343D01*
X105063Y15300D01*
X105120Y15266D01*
X105172Y15223D01*
X105224Y15204D01*
X105272Y15175D01*
X105338Y15161D01*
X105401Y15137D01*
X105456Y15135D01*
X105510Y15124D01*
X105577Y15131D01*
X105644Y15129D01*
X105698Y15145D01*
X105753Y15152D01*
X105864Y15196D01*
X105878Y15200D01*
X105882Y15203D01*
X105890Y15206D01*
X106972Y15763D01*
X110362Y12999D01*
X110456Y12945D01*
X110548Y12888D01*
X110561Y12885D01*
X110573Y12878D01*
X110680Y12857D01*
X110785Y12832D01*
X110799Y12834D01*
X110813Y12831D01*
X110920Y12846D01*
G37*
G36*
X218605Y292794D02*
X218605Y292794D01*
X218608Y292791D01*
X219208Y292891D01*
X219211Y292895D01*
X219214Y292893D01*
X219914Y293093D01*
X219915Y293094D01*
X219916Y293093D01*
X220516Y293293D01*
X220517Y293296D01*
X220519Y293295D01*
X221219Y293595D01*
X221221Y293597D01*
X221222Y293596D01*
X221822Y293896D01*
X221825Y293903D01*
X221831Y293902D01*
X222831Y294702D01*
X222832Y294706D01*
X222835Y294705D01*
X223335Y295205D01*
X223336Y295212D01*
X223341Y295213D01*
X223741Y295813D01*
X223741Y295817D01*
X223744Y295818D01*
X224644Y297618D01*
X224642Y297629D01*
X224649Y297633D01*
X224749Y298332D01*
X224849Y298932D01*
X224848Y298933D01*
X224849Y298933D01*
X224949Y299633D01*
X224944Y299642D01*
X224949Y299647D01*
X224849Y300347D01*
X224848Y300348D01*
X224849Y300348D01*
X224749Y300948D01*
X224649Y301647D01*
X224641Y301655D01*
X224644Y301662D01*
X223744Y303462D01*
X223740Y303464D01*
X223741Y303467D01*
X223341Y304067D01*
X223334Y304070D01*
X223335Y304075D01*
X222835Y304575D01*
X222831Y304575D01*
X222831Y304578D01*
X221831Y305378D01*
X221823Y305379D01*
X221822Y305384D01*
X220622Y305984D01*
X220615Y305983D01*
X220614Y305987D01*
X219214Y306387D01*
X219210Y306386D01*
X219208Y306389D01*
X218608Y306489D01*
X218603Y306486D01*
X218600Y306489D01*
X193700Y306489D01*
X193696Y306486D01*
X193693Y306489D01*
X192993Y306389D01*
X192992Y306388D01*
X192992Y306389D01*
X192392Y306289D01*
X192386Y306282D01*
X192381Y306285D01*
X191682Y305986D01*
X191084Y305787D01*
X191079Y305779D01*
X191073Y305781D01*
X190474Y305382D01*
X189975Y305082D01*
X189971Y305074D01*
X189965Y305075D01*
X188965Y304075D01*
X188965Y304071D01*
X188962Y304071D01*
X188562Y303571D01*
X188561Y303567D01*
X188559Y303567D01*
X188159Y302967D01*
X188159Y302963D01*
X188156Y302962D01*
X187856Y302362D01*
X187856Y302359D01*
X187855Y302359D01*
X187857Y302357D01*
X187853Y302356D01*
X187653Y301756D01*
X187654Y301754D01*
X187653Y301754D01*
X187629Y301669D01*
X187586Y301521D01*
X187572Y301472D01*
X187530Y301324D01*
X187488Y301177D01*
X187474Y301127D01*
X187453Y301054D01*
X187454Y301050D01*
X187451Y301048D01*
X187351Y300448D01*
X187352Y300447D01*
X187351Y300447D01*
X187251Y299747D01*
X187256Y299738D01*
X187251Y299733D01*
X187451Y298333D01*
X187452Y298332D01*
X187451Y298332D01*
X187551Y297732D01*
X187556Y297728D01*
X187553Y297724D01*
X187753Y297124D01*
X187756Y297123D01*
X187755Y297121D01*
X188055Y296421D01*
X188063Y296416D01*
X188062Y296409D01*
X188460Y295911D01*
X188859Y295313D01*
X188862Y295312D01*
X188862Y295309D01*
X189262Y294809D01*
X189269Y294807D01*
X189269Y294802D01*
X189769Y294402D01*
X189773Y294401D01*
X189773Y294399D01*
X190371Y294000D01*
X190869Y293602D01*
X190879Y293601D01*
X190881Y293595D01*
X191581Y293295D01*
X191584Y293296D01*
X191584Y293293D01*
X192184Y293093D01*
X192186Y293094D01*
X192186Y293093D01*
X192886Y292893D01*
X192896Y292896D01*
X192900Y292891D01*
X193497Y292891D01*
X194193Y292791D01*
X194198Y292794D01*
X194200Y292791D01*
X218600Y292791D01*
X218605Y292794D01*
G37*
%LPC*%
G36*
X206808Y294989D02*
X206808Y294989D01*
X206239Y295179D01*
X206050Y295745D01*
X206148Y296524D01*
X206433Y296999D01*
X207008Y297191D01*
X209400Y297191D01*
X209414Y297202D01*
X209432Y297203D01*
X209431Y297215D01*
X209447Y297227D01*
X209429Y297251D01*
X209427Y297281D01*
X209127Y297481D01*
X209126Y297481D01*
X209125Y297482D01*
X208626Y297782D01*
X208030Y298179D01*
X207435Y298675D01*
X207042Y299167D01*
X206746Y299759D01*
X206548Y300351D01*
X206450Y301040D01*
X206548Y301729D01*
X206746Y302321D01*
X207043Y302915D01*
X207437Y303506D01*
X207929Y303900D01*
X208522Y304295D01*
X209108Y304491D01*
X210493Y304491D01*
X211185Y304293D01*
X211776Y304096D01*
X212263Y303706D01*
X212659Y303113D01*
X213055Y302518D01*
X213252Y301928D01*
X213351Y301336D01*
X213351Y300552D01*
X213166Y300181D01*
X212493Y299989D01*
X211620Y299989D01*
X211246Y300363D01*
X211149Y301047D01*
X211148Y301048D01*
X211149Y301048D01*
X211049Y301648D01*
X211033Y301663D01*
X211035Y301675D01*
X210535Y302175D01*
X210513Y302178D01*
X210507Y302189D01*
X209807Y302289D01*
X209793Y302281D01*
X209784Y302287D01*
X209184Y302087D01*
X209173Y302070D01*
X209162Y302071D01*
X208762Y301571D01*
X208761Y301548D01*
X208751Y301540D01*
X208751Y300940D01*
X208760Y300927D01*
X208756Y300918D01*
X209056Y300318D01*
X209063Y300315D01*
X209062Y300309D01*
X209462Y299809D01*
X209469Y299807D01*
X209468Y299802D01*
X210068Y299302D01*
X210074Y299302D01*
X210075Y299298D01*
X210575Y298998D01*
X210575Y298997D01*
X211774Y298298D01*
X212366Y297903D01*
X212760Y297411D01*
X213155Y296818D01*
X213349Y296236D01*
X213253Y295658D01*
X212871Y295086D01*
X212197Y294989D01*
X206808Y294989D01*
G37*
%LPD*%
%LPC*%
G36*
X198503Y294989D02*
X198503Y294989D01*
X197814Y295088D01*
X197122Y295384D01*
X196628Y295680D01*
X196142Y296069D01*
X195953Y296638D01*
X196242Y297312D01*
X196724Y297795D01*
X197190Y297888D01*
X197773Y297499D01*
X197780Y297500D01*
X197782Y297494D01*
X198282Y297294D01*
X198289Y297296D01*
X198292Y297291D01*
X198892Y297191D01*
X198897Y297194D01*
X198900Y297191D01*
X199600Y297191D01*
X199609Y297198D01*
X199616Y297193D01*
X200216Y297393D01*
X200221Y297401D01*
X200227Y297399D01*
X200827Y297799D01*
X200830Y297806D01*
X200835Y297805D01*
X201335Y298305D01*
X201336Y298317D01*
X201344Y298318D01*
X201644Y298918D01*
X201642Y298929D01*
X201649Y298932D01*
X201749Y299532D01*
X201746Y299537D01*
X201749Y299540D01*
X201749Y300340D01*
X201742Y300349D01*
X201747Y300356D01*
X201547Y300956D01*
X201539Y300961D01*
X201541Y300967D01*
X201141Y301567D01*
X201131Y301571D01*
X201131Y301578D01*
X200631Y301978D01*
X200621Y301979D01*
X200619Y301985D01*
X199919Y302285D01*
X199911Y302283D01*
X199908Y302289D01*
X199308Y302389D01*
X199303Y302386D01*
X199300Y302389D01*
X198600Y302389D01*
X198591Y302382D01*
X198584Y302387D01*
X197984Y302187D01*
X197980Y302181D01*
X197976Y302183D01*
X197282Y301786D01*
X196909Y301693D01*
X196336Y302076D01*
X195949Y302655D01*
X195949Y303223D01*
X196334Y303703D01*
X196922Y304095D01*
X197515Y304293D01*
X198210Y304492D01*
X198903Y304591D01*
X199497Y304591D01*
X200189Y304492D01*
X200782Y304294D01*
X201479Y303995D01*
X202071Y303699D01*
X202962Y302809D01*
X203357Y302215D01*
X203654Y301622D01*
X203852Y300929D01*
X203951Y300336D01*
X203951Y299643D01*
X203851Y298947D01*
X203752Y298255D01*
X203456Y297662D01*
X203158Y297067D01*
X202763Y296573D01*
X202269Y296078D01*
X201675Y295683D01*
X201081Y295386D01*
X200485Y295187D01*
X199793Y294989D01*
X198503Y294989D01*
G37*
%LPD*%
%LPC*%
G36*
X604283Y168153D02*
X604283Y168153D01*
X604008Y168337D01*
X603817Y168813D01*
X603817Y174404D01*
X603781Y174451D01*
X603781Y174452D01*
X603761Y174457D01*
X603812Y174482D01*
X603808Y174489D01*
X603816Y174492D01*
X603912Y174879D01*
X604192Y175158D01*
X604772Y175255D01*
X608363Y175255D01*
X608857Y175156D01*
X609226Y175064D01*
X609319Y174599D01*
X609319Y173924D01*
X609044Y173649D01*
X608563Y173553D01*
X605568Y173553D01*
X605521Y173517D01*
X605523Y173514D01*
X605521Y173512D01*
X605524Y173508D01*
X605519Y173504D01*
X605519Y172604D01*
X605555Y172557D01*
X605562Y172562D01*
X605568Y172555D01*
X607163Y172555D01*
X607657Y172456D01*
X608034Y172362D01*
X608219Y171992D01*
X608219Y171319D01*
X608034Y171042D01*
X607656Y170853D01*
X605568Y170853D01*
X605521Y170817D01*
X605526Y170810D01*
X605519Y170804D01*
X605519Y169904D01*
X605555Y169857D01*
X605556Y169857D01*
X605556Y169856D01*
X605956Y169756D01*
X605961Y169758D01*
X605963Y169756D01*
X605967Y169756D01*
X605968Y169755D01*
X609042Y169755D01*
X609221Y169486D01*
X609318Y168904D01*
X609224Y168337D01*
X608856Y168153D01*
X604283Y168153D01*
G37*
%LPD*%
%LPC*%
G36*
X604304Y203967D02*
X604304Y203967D01*
X604029Y204242D01*
X603933Y204723D01*
X603933Y210788D01*
X604299Y210971D01*
X604888Y211069D01*
X608380Y211069D01*
X608972Y210970D01*
X609245Y210879D01*
X609433Y210314D01*
X609338Y209742D01*
X609060Y209463D01*
X608579Y209367D01*
X605584Y209367D01*
X605537Y209331D01*
X605539Y209328D01*
X605537Y209326D01*
X605540Y209322D01*
X605535Y209318D01*
X605535Y208818D01*
X605540Y208811D01*
X605536Y208806D01*
X605636Y208406D01*
X605683Y208369D01*
X605683Y208370D01*
X605684Y208369D01*
X607180Y208369D01*
X607774Y208270D01*
X608148Y208176D01*
X608335Y207709D01*
X608335Y207134D01*
X608055Y206762D01*
X607678Y206667D01*
X605584Y206667D01*
X605537Y206631D01*
X605542Y206624D01*
X605535Y206618D01*
X605535Y205618D01*
X605571Y205571D01*
X605578Y205576D01*
X605584Y205569D01*
X609064Y205569D01*
X609349Y205283D01*
X609374Y205280D01*
X609378Y205275D01*
X609387Y205275D01*
X609393Y205270D01*
X609375Y205266D01*
X609335Y205223D01*
X609342Y205217D01*
X609335Y205210D01*
X609433Y204623D01*
X609245Y204154D01*
X608872Y203967D01*
X604304Y203967D01*
G37*
%LPD*%
%LPC*%
G36*
X611496Y203967D02*
X611496Y203967D01*
X611126Y204152D01*
X611032Y204530D01*
X610989Y204564D01*
X610987Y204567D01*
X610963Y204569D01*
X610984Y204569D01*
X611031Y204605D01*
X611026Y204612D01*
X611033Y204618D01*
X611033Y205468D01*
X612673Y205766D01*
X612957Y205577D01*
X612976Y205578D01*
X612982Y205570D01*
X612983Y205570D01*
X612984Y205569D01*
X613484Y205569D01*
X613486Y205570D01*
X613490Y205570D01*
X613492Y205571D01*
X613494Y205570D01*
X614494Y205770D01*
X614504Y205781D01*
X614514Y205779D01*
X614914Y206079D01*
X614916Y206088D01*
X614923Y206088D01*
X615223Y206488D01*
X615223Y206498D01*
X615230Y206500D01*
X615430Y207000D01*
X615428Y207006D01*
X615432Y207008D01*
X615532Y207508D01*
X615526Y207521D01*
X615532Y207528D01*
X615432Y208028D01*
X615425Y208034D01*
X615428Y208040D01*
X615228Y208440D01*
X615222Y208443D01*
X615223Y208448D01*
X614923Y208848D01*
X614918Y208849D01*
X614919Y208853D01*
X614519Y209253D01*
X614507Y209254D01*
X614506Y209262D01*
X614306Y209362D01*
X614296Y209360D01*
X614294Y209362D01*
X614288Y209362D01*
X614284Y209367D01*
X612784Y209367D01*
X612737Y209331D01*
X612737Y209330D01*
X612736Y209330D01*
X612636Y208930D01*
X612640Y208922D01*
X612635Y208918D01*
X612635Y205959D01*
X611033Y205668D01*
X611033Y210213D01*
X611130Y210699D01*
X611313Y210973D01*
X611887Y211069D01*
X613882Y210969D01*
X613883Y210970D01*
X613884Y210969D01*
X614375Y210969D01*
X614866Y210772D01*
X615360Y210575D01*
X615754Y210279D01*
X616149Y209983D01*
X616443Y209590D01*
X616741Y209095D01*
X616937Y208702D01*
X617135Y207713D01*
X617135Y207223D01*
X617036Y206728D01*
X616937Y206232D01*
X616741Y205742D01*
X616447Y205350D01*
X616052Y204955D01*
X615654Y204657D01*
X615258Y204360D01*
X614868Y204165D01*
X613879Y203967D01*
X611496Y203967D01*
G37*
%LPD*%
%LPC*%
G36*
X611383Y168153D02*
X611383Y168153D01*
X611111Y168334D01*
X611017Y168710D01*
X611017Y169763D01*
X612645Y170050D01*
X612827Y169777D01*
X612860Y169765D01*
X612868Y169755D01*
X613368Y169755D01*
X613370Y169756D01*
X613375Y169756D01*
X613376Y169755D01*
X613976Y169855D01*
X613978Y169858D01*
X613980Y169856D01*
X614380Y169956D01*
X614389Y169967D01*
X614398Y169965D01*
X614798Y170265D01*
X614799Y170270D01*
X614803Y170269D01*
X615203Y170669D01*
X615204Y170681D01*
X615212Y170682D01*
X615412Y171082D01*
X615409Y171098D01*
X615417Y171104D01*
X615417Y172204D01*
X615408Y172217D01*
X615412Y172226D01*
X615212Y172626D01*
X615202Y172631D01*
X615203Y172639D01*
X614805Y173036D01*
X614507Y173434D01*
X614482Y173441D01*
X614475Y173453D01*
X613775Y173553D01*
X613770Y173550D01*
X613768Y173553D01*
X612768Y173553D01*
X612721Y173517D01*
X612721Y173516D01*
X612720Y173516D01*
X612620Y173116D01*
X612624Y173108D01*
X612619Y173104D01*
X612619Y170145D01*
X611017Y169863D01*
X611017Y174884D01*
X611292Y175158D01*
X611871Y175255D01*
X613866Y175155D01*
X613867Y175156D01*
X613868Y175155D01*
X614359Y175155D01*
X614848Y174959D01*
X615242Y174762D01*
X615638Y174465D01*
X616036Y174167D01*
X616426Y173776D01*
X616622Y173286D01*
X616625Y173284D01*
X616624Y173282D01*
X616823Y172884D01*
X617019Y172395D01*
X617019Y170913D01*
X616822Y170422D01*
X616623Y169924D01*
X616427Y169533D01*
X616036Y169141D01*
X615638Y168843D01*
X615244Y168547D01*
X614753Y168351D01*
X614357Y168252D01*
X613863Y168153D01*
X611383Y168153D01*
G37*
%LPD*%
%LPC*%
G36*
X589677Y167953D02*
X589677Y167953D01*
X589188Y168149D01*
X588794Y168346D01*
X588403Y168639D01*
X588112Y169027D01*
X587919Y169606D01*
X588012Y169975D01*
X588394Y170262D01*
X588775Y170452D01*
X589240Y170359D01*
X589529Y169974D01*
X589534Y169973D01*
X589533Y169969D01*
X589833Y169669D01*
X589854Y169666D01*
X589860Y169655D01*
X590460Y169555D01*
X590467Y169559D01*
X590476Y169559D01*
X590480Y169556D01*
X590880Y169656D01*
X590899Y169681D01*
X590902Y169683D01*
X590914Y169686D01*
X591114Y170186D01*
X591105Y170219D01*
X591109Y170231D01*
X590909Y170531D01*
X590880Y170542D01*
X590872Y170553D01*
X589800Y170651D01*
X589615Y171019D01*
X589519Y171599D01*
X589704Y172062D01*
X590079Y172156D01*
X590578Y172256D01*
X590582Y172261D01*
X590586Y172258D01*
X591086Y172458D01*
X591099Y172480D01*
X591112Y172482D01*
X591312Y172882D01*
X591310Y172892D01*
X591314Y172895D01*
X591308Y172902D01*
X591307Y172911D01*
X591314Y172922D01*
X591114Y173422D01*
X591083Y173441D01*
X591078Y173452D01*
X590078Y173652D01*
X590066Y173647D01*
X590055Y173647D01*
X590050Y173650D01*
X589550Y173450D01*
X589539Y173431D01*
X589526Y173430D01*
X589038Y172648D01*
X588563Y172553D01*
X587984Y172553D01*
X587617Y172829D01*
X587617Y173199D01*
X587715Y173686D01*
X588009Y174176D01*
X588303Y174569D01*
X588694Y174862D01*
X589084Y175057D01*
X589576Y175155D01*
X590167Y175254D01*
X591158Y175056D01*
X591647Y174958D01*
X592038Y174665D01*
X592433Y174369D01*
X592722Y173983D01*
X592820Y173494D01*
X592919Y172999D01*
X592919Y172513D01*
X592726Y172032D01*
X592333Y171639D01*
X592332Y171632D01*
X592327Y171631D01*
X592127Y171331D01*
X592131Y171272D01*
X592138Y171272D01*
X592138Y171265D01*
X592529Y170972D01*
X592721Y170588D01*
X592818Y170104D01*
X592721Y169618D01*
X592525Y169128D01*
X592231Y168736D01*
X591541Y168047D01*
X591260Y167953D01*
X589677Y167953D01*
G37*
%LPD*%
%LPC*%
G36*
X574528Y203967D02*
X574528Y203967D01*
X575607Y205662D01*
X575972Y205570D01*
X575977Y205572D01*
X575979Y205570D01*
X575983Y205570D01*
X575984Y205569D01*
X576984Y205569D01*
X576986Y205570D01*
X576999Y205580D01*
X577009Y205576D01*
X577509Y205876D01*
X577517Y205894D01*
X577528Y205896D01*
X577728Y206296D01*
X577725Y206312D01*
X577733Y206318D01*
X577733Y206818D01*
X577720Y206836D01*
X577723Y206848D01*
X577423Y207248D01*
X577403Y207253D01*
X577400Y207265D01*
X577100Y207365D01*
X577089Y207361D01*
X577084Y207367D01*
X575584Y207367D01*
X575537Y207331D01*
X575542Y207324D01*
X575535Y207318D01*
X575535Y205832D01*
X574386Y203972D01*
X574028Y204151D01*
X573933Y204623D01*
X573933Y210213D01*
X574030Y210699D01*
X574213Y210973D01*
X574780Y211067D01*
X575352Y210877D01*
X575535Y210603D01*
X575535Y209118D01*
X575571Y209071D01*
X575578Y209076D01*
X575584Y209069D01*
X577172Y209069D01*
X577562Y208874D01*
X577565Y208875D01*
X577566Y208872D01*
X578062Y208674D01*
X578554Y208379D01*
X578847Y208086D01*
X579141Y207694D01*
X579335Y207209D01*
X579335Y206222D01*
X579237Y205633D01*
X579042Y205244D01*
X578747Y204850D01*
X578356Y204460D01*
X577866Y204264D01*
X577864Y204261D01*
X577862Y204262D01*
X577468Y204065D01*
X576979Y203967D01*
X574528Y203967D01*
G37*
%LPD*%
%LPC*%
G36*
X574273Y167953D02*
X574273Y167953D01*
X573782Y168051D01*
X573288Y168249D01*
X572894Y168446D01*
X572505Y168738D01*
X572215Y169222D01*
X572118Y169703D01*
X572211Y170072D01*
X572686Y170357D01*
X573161Y170452D01*
X573531Y170267D01*
X573724Y169882D01*
X573741Y169873D01*
X573743Y169862D01*
X574243Y169562D01*
X574258Y169563D01*
X574261Y169559D01*
X574265Y169559D01*
X574268Y169555D01*
X574768Y169555D01*
X574774Y169559D01*
X574777Y169559D01*
X574783Y169564D01*
X574790Y169560D01*
X575190Y169760D01*
X575200Y169780D01*
X575216Y169792D01*
X575215Y169793D01*
X575216Y169794D01*
X575316Y170294D01*
X575296Y170337D01*
X575295Y170345D01*
X574995Y170545D01*
X574979Y170544D01*
X574975Y170544D01*
X574968Y170553D01*
X574280Y170553D01*
X573905Y170741D01*
X573719Y171112D01*
X573815Y171786D01*
X574002Y172066D01*
X574380Y172255D01*
X574968Y172255D01*
X574985Y172268D01*
X574986Y172268D01*
X574998Y172265D01*
X575398Y172565D01*
X575404Y172587D01*
X575416Y172592D01*
X575516Y172992D01*
X575504Y173020D01*
X575507Y173034D01*
X575207Y173434D01*
X575189Y173439D01*
X575186Y173450D01*
X574686Y173650D01*
X574675Y173647D01*
X574665Y173647D01*
X574658Y173652D01*
X574158Y173552D01*
X574154Y173547D01*
X574150Y173550D01*
X573650Y173350D01*
X573637Y173328D01*
X573633Y173325D01*
X573622Y173322D01*
X573426Y172832D01*
X573148Y172553D01*
X572572Y172553D01*
X571997Y172649D01*
X571817Y172919D01*
X571817Y173296D01*
X572012Y173881D01*
X572305Y174272D01*
X572600Y174567D01*
X572992Y174861D01*
X573482Y175057D01*
X573978Y175156D01*
X574469Y175254D01*
X575058Y175156D01*
X575453Y175057D01*
X575944Y174861D01*
X576338Y174565D01*
X576727Y174273D01*
X576922Y173786D01*
X576925Y173784D01*
X576924Y173782D01*
X577119Y173392D01*
X577119Y172809D01*
X577021Y172320D01*
X576827Y171933D01*
X576433Y171539D01*
X576430Y171512D01*
X576419Y171504D01*
X576419Y171204D01*
X576435Y171183D01*
X576433Y171169D01*
X576727Y170875D01*
X576921Y170489D01*
X577018Y169906D01*
X576920Y169516D01*
X576944Y169461D01*
X576949Y169464D01*
X576951Y169458D01*
X576976Y169449D01*
X576934Y169434D01*
X576929Y169434D01*
X576331Y168636D01*
X575940Y168246D01*
X575258Y167953D01*
X574273Y167953D01*
G37*
%LPD*%
%LPC*%
G36*
X589889Y203767D02*
X589889Y203767D01*
X589402Y203865D01*
X588915Y204157D01*
X588621Y204450D01*
X588326Y204844D01*
X588131Y205234D01*
X588033Y205723D01*
X588033Y206312D01*
X588130Y206699D01*
X588421Y207184D01*
X588810Y207476D01*
X589204Y207673D01*
X589702Y207872D01*
X590198Y208071D01*
X590694Y208170D01*
X590698Y208175D01*
X590702Y208172D01*
X591202Y208372D01*
X591219Y208401D01*
X591232Y208406D01*
X591332Y208806D01*
X591322Y208828D01*
X591328Y208840D01*
X591128Y209240D01*
X591108Y209250D01*
X591106Y209262D01*
X590706Y209462D01*
X590697Y209460D01*
X590697Y209461D01*
X590689Y209461D01*
X590684Y209467D01*
X590184Y209467D01*
X590175Y209461D01*
X590173Y209461D01*
X590168Y209457D01*
X590159Y209460D01*
X589659Y209160D01*
X589655Y209152D01*
X589649Y209153D01*
X589255Y208759D01*
X588877Y208570D01*
X588411Y208663D01*
X588028Y209142D01*
X587936Y209416D01*
X588128Y209895D01*
X588320Y210184D01*
X588714Y210479D01*
X589108Y210775D01*
X589593Y210969D01*
X590084Y210969D01*
X590089Y210972D01*
X590092Y210969D01*
X590683Y211068D01*
X591168Y210971D01*
X591562Y210774D01*
X591565Y210775D01*
X591566Y210772D01*
X592060Y210575D01*
X592449Y210283D01*
X592741Y209894D01*
X592935Y209409D01*
X592935Y208423D01*
X592837Y207932D01*
X592643Y207449D01*
X592258Y207160D01*
X591864Y206963D01*
X591370Y206765D01*
X590374Y206566D01*
X590370Y206561D01*
X590366Y206564D01*
X589866Y206364D01*
X589851Y206340D01*
X589838Y206336D01*
X589638Y205836D01*
X589640Y205831D01*
X589637Y205830D01*
X589642Y205824D01*
X589646Y205808D01*
X589640Y205796D01*
X589840Y205396D01*
X589868Y205382D01*
X589874Y205370D01*
X590374Y205270D01*
X590384Y205275D01*
X590388Y205275D01*
X590394Y205270D01*
X590894Y205370D01*
X590904Y205381D01*
X590914Y205379D01*
X591305Y205672D01*
X591777Y205766D01*
X592149Y205580D01*
X592438Y205099D01*
X592531Y204729D01*
X592247Y204350D01*
X591957Y204061D01*
X591370Y203865D01*
X590978Y203767D01*
X589889Y203767D01*
G37*
%LPD*%
%LPC*%
G36*
X584405Y168242D02*
X584405Y168242D01*
X582313Y172824D01*
X582303Y172830D01*
X582301Y172840D01*
X582288Y172838D01*
X582260Y172853D01*
X582249Y172831D01*
X582224Y172826D01*
X582124Y172626D01*
X582124Y172624D01*
X582123Y172624D01*
X580325Y168628D01*
X580132Y168338D01*
X579761Y168060D01*
X579290Y168248D01*
X578806Y168539D01*
X578622Y168906D01*
X578813Y169384D01*
X581509Y174775D01*
X581892Y175159D01*
X582363Y175253D01*
X582837Y175063D01*
X583126Y174678D01*
X585623Y169684D01*
X585819Y169195D01*
X585819Y168816D01*
X585630Y168438D01*
X585345Y168248D01*
X584868Y168057D01*
X584405Y168242D01*
G37*
%LPD*%
%LPC*%
G36*
X215816Y294989D02*
X215816Y294989D01*
X215442Y295270D01*
X215247Y295856D01*
X215216Y295877D01*
X215211Y295888D01*
X215193Y295892D01*
X215196Y295894D01*
X215200Y295894D01*
X215209Y295901D01*
X215245Y295919D01*
X215242Y295925D01*
X215247Y295929D01*
X215243Y295935D01*
X215249Y295940D01*
X215249Y303337D01*
X215345Y304010D01*
X215816Y304292D01*
X216596Y304390D01*
X217263Y304199D01*
X217451Y303731D01*
X217451Y295649D01*
X217263Y295180D01*
X216692Y294989D01*
X215816Y294989D01*
G37*
%LPD*%
%LPC*%
G36*
X597877Y168153D02*
X597877Y168153D01*
X597404Y168343D01*
X597217Y168716D01*
X597217Y174204D01*
X597181Y174251D01*
X597170Y174243D01*
X597160Y174252D01*
X597177Y174256D01*
X597209Y174291D01*
X597216Y174294D01*
X597314Y174785D01*
X597501Y175064D01*
X597977Y175255D01*
X601563Y175255D01*
X602035Y175160D01*
X602219Y174792D01*
X602219Y174224D01*
X601944Y173949D01*
X601463Y173853D01*
X599468Y173853D01*
X599450Y173839D01*
X599437Y173842D01*
X598937Y173442D01*
X598932Y173423D01*
X598921Y173414D01*
X598925Y173408D01*
X598919Y173404D01*
X598919Y168810D01*
X598824Y168433D01*
X598452Y168153D01*
X597877Y168153D01*
G37*
%LPD*%
%LPC*%
G36*
X597796Y203967D02*
X597796Y203967D01*
X597426Y204152D01*
X597333Y204524D01*
X597333Y210703D01*
X597513Y210973D01*
X598088Y211069D01*
X601675Y211069D01*
X602142Y210882D01*
X602235Y210512D01*
X602235Y210038D01*
X601960Y209763D01*
X601479Y209667D01*
X599384Y209667D01*
X599363Y209651D01*
X599349Y209653D01*
X598949Y209253D01*
X598947Y209236D01*
X598937Y209228D01*
X598941Y209222D01*
X598935Y209218D01*
X598935Y204623D01*
X598840Y204151D01*
X598472Y203967D01*
X597796Y203967D01*
G37*
%LPD*%
%LPC*%
G36*
X581888Y203967D02*
X581888Y203967D01*
X581302Y204065D01*
X581033Y204244D01*
X581033Y206868D01*
X582635Y207062D01*
X582635Y205618D01*
X582671Y205571D01*
X582678Y205576D01*
X582684Y205569D01*
X583684Y205569D01*
X583686Y205570D01*
X583690Y205570D01*
X583692Y205571D01*
X583694Y205570D01*
X584194Y205670D01*
X584204Y205681D01*
X584214Y205679D01*
X584614Y205979D01*
X584618Y205994D01*
X584628Y205996D01*
X584828Y206396D01*
X584824Y206417D01*
X584833Y206426D01*
X584733Y207026D01*
X584714Y207044D01*
X584714Y207057D01*
X584352Y207329D01*
X585295Y208648D01*
X585649Y208383D01*
X585943Y207990D01*
X586238Y207499D01*
X586336Y207107D01*
X586435Y206613D01*
X586435Y206118D01*
X586471Y206071D01*
X586471Y206070D01*
X586491Y206065D01*
X586486Y206063D01*
X586482Y206063D01*
X586475Y206057D01*
X586440Y206040D01*
X586442Y206037D01*
X586438Y206036D01*
X586239Y205538D01*
X586043Y205147D01*
X585652Y204755D01*
X585254Y204457D01*
X584860Y204161D01*
X584375Y203967D01*
X581888Y203967D01*
G37*
%LPD*%
%LPC*%
G36*
X581033Y210313D02*
X581033Y210313D01*
X581128Y210788D01*
X581399Y210969D01*
X582078Y210969D01*
X582450Y210876D01*
X582635Y210506D01*
X582635Y209418D01*
X582642Y209409D01*
X582637Y209402D01*
X582737Y209102D01*
X582781Y209072D01*
X582784Y209069D01*
X583878Y209069D01*
X584272Y208970D01*
X584274Y208971D01*
X584274Y208970D01*
X584770Y208871D01*
X585207Y208696D01*
X584259Y207367D01*
X582984Y207367D01*
X582968Y207355D01*
X582957Y207359D01*
X582667Y207166D01*
X581033Y206968D01*
X581033Y210313D01*
G37*
%LPD*%
D10*
X193040Y271526D02*
X218440Y271526D01*
X193040Y291846D02*
X192907Y291844D01*
X192774Y291838D01*
X192642Y291829D01*
X192509Y291815D01*
X192377Y291798D01*
X192246Y291777D01*
X192115Y291752D01*
X191986Y291723D01*
X191857Y291690D01*
X191729Y291654D01*
X191602Y291614D01*
X191476Y291570D01*
X191352Y291523D01*
X191229Y291472D01*
X191108Y291418D01*
X190988Y291360D01*
X190870Y291298D01*
X190754Y291233D01*
X190640Y291165D01*
X190528Y291094D01*
X190418Y291019D01*
X190310Y290941D01*
X190204Y290860D01*
X190101Y290776D01*
X190001Y290689D01*
X189903Y290600D01*
X189807Y290507D01*
X189714Y290411D01*
X189625Y290313D01*
X189538Y290213D01*
X189454Y290110D01*
X189373Y290004D01*
X189295Y289896D01*
X189220Y289786D01*
X189149Y289674D01*
X189081Y289560D01*
X189016Y289444D01*
X188954Y289326D01*
X188896Y289206D01*
X188842Y289085D01*
X188791Y288962D01*
X188744Y288838D01*
X188700Y288712D01*
X188660Y288585D01*
X188624Y288457D01*
X188591Y288328D01*
X188562Y288199D01*
X188537Y288068D01*
X188516Y287937D01*
X188499Y287805D01*
X188485Y287672D01*
X188476Y287540D01*
X188470Y287407D01*
X188468Y287274D01*
X218440Y291846D02*
X218573Y291844D01*
X218706Y291838D01*
X218838Y291829D01*
X218971Y291815D01*
X219103Y291798D01*
X219234Y291777D01*
X219365Y291752D01*
X219494Y291723D01*
X219623Y291690D01*
X219751Y291654D01*
X219878Y291614D01*
X220004Y291570D01*
X220128Y291523D01*
X220251Y291472D01*
X220372Y291418D01*
X220492Y291360D01*
X220610Y291298D01*
X220726Y291233D01*
X220840Y291165D01*
X220952Y291094D01*
X221062Y291019D01*
X221170Y290941D01*
X221276Y290860D01*
X221379Y290776D01*
X221479Y290689D01*
X221577Y290600D01*
X221673Y290507D01*
X221766Y290411D01*
X221855Y290313D01*
X221942Y290213D01*
X222026Y290110D01*
X222107Y290004D01*
X222185Y289896D01*
X222260Y289786D01*
X222331Y289674D01*
X222399Y289560D01*
X222464Y289444D01*
X222526Y289326D01*
X222584Y289206D01*
X222638Y289085D01*
X222689Y288962D01*
X222736Y288838D01*
X222780Y288712D01*
X222820Y288585D01*
X222856Y288457D01*
X222889Y288328D01*
X222918Y288199D01*
X222943Y288068D01*
X222964Y287937D01*
X222981Y287805D01*
X222995Y287672D01*
X223004Y287540D01*
X223010Y287407D01*
X223012Y287274D01*
X223012Y276098D02*
X223010Y275965D01*
X223004Y275832D01*
X222995Y275700D01*
X222981Y275567D01*
X222964Y275435D01*
X222943Y275304D01*
X222918Y275173D01*
X222889Y275044D01*
X222856Y274915D01*
X222820Y274787D01*
X222780Y274660D01*
X222736Y274534D01*
X222689Y274410D01*
X222638Y274287D01*
X222584Y274166D01*
X222526Y274046D01*
X222464Y273928D01*
X222399Y273812D01*
X222331Y273698D01*
X222260Y273586D01*
X222185Y273476D01*
X222107Y273368D01*
X222026Y273262D01*
X221942Y273159D01*
X221855Y273059D01*
X221766Y272961D01*
X221673Y272865D01*
X221577Y272772D01*
X221479Y272683D01*
X221379Y272596D01*
X221276Y272512D01*
X221170Y272431D01*
X221062Y272353D01*
X220952Y272278D01*
X220840Y272207D01*
X220726Y272139D01*
X220610Y272074D01*
X220492Y272012D01*
X220372Y271954D01*
X220251Y271900D01*
X220128Y271849D01*
X220004Y271802D01*
X219878Y271758D01*
X219751Y271718D01*
X219623Y271682D01*
X219494Y271649D01*
X219365Y271620D01*
X219234Y271595D01*
X219103Y271574D01*
X218971Y271557D01*
X218838Y271543D01*
X218706Y271534D01*
X218573Y271528D01*
X218440Y271526D01*
X193040Y271526D02*
X192907Y271528D01*
X192774Y271534D01*
X192642Y271543D01*
X192509Y271557D01*
X192377Y271574D01*
X192246Y271595D01*
X192115Y271620D01*
X191986Y271649D01*
X191857Y271682D01*
X191729Y271718D01*
X191602Y271758D01*
X191476Y271802D01*
X191352Y271849D01*
X191229Y271900D01*
X191108Y271954D01*
X190988Y272012D01*
X190870Y272074D01*
X190754Y272139D01*
X190640Y272207D01*
X190528Y272278D01*
X190418Y272353D01*
X190310Y272431D01*
X190204Y272512D01*
X190101Y272596D01*
X190001Y272683D01*
X189903Y272772D01*
X189807Y272865D01*
X189714Y272961D01*
X189625Y273059D01*
X189538Y273159D01*
X189454Y273262D01*
X189373Y273368D01*
X189295Y273476D01*
X189220Y273586D01*
X189149Y273698D01*
X189081Y273812D01*
X189016Y273928D01*
X188954Y274046D01*
X188896Y274166D01*
X188842Y274287D01*
X188791Y274410D01*
X188744Y274534D01*
X188700Y274660D01*
X188660Y274787D01*
X188624Y274915D01*
X188591Y275044D01*
X188562Y275173D01*
X188537Y275304D01*
X188516Y275435D01*
X188499Y275567D01*
X188485Y275700D01*
X188476Y275832D01*
X188470Y275965D01*
X188468Y276098D01*
X188468Y287274D01*
X223012Y287274D02*
X223012Y276098D01*
X218440Y291846D02*
X193040Y291846D01*
X641604Y214884D02*
X641604Y199644D01*
X625856Y195072D02*
X625723Y195074D01*
X625590Y195080D01*
X625458Y195089D01*
X625325Y195103D01*
X625193Y195120D01*
X625062Y195141D01*
X624931Y195166D01*
X624802Y195195D01*
X624673Y195228D01*
X624545Y195264D01*
X624418Y195304D01*
X624292Y195348D01*
X624168Y195395D01*
X624045Y195446D01*
X623924Y195500D01*
X623804Y195558D01*
X623686Y195620D01*
X623570Y195685D01*
X623456Y195753D01*
X623344Y195824D01*
X623234Y195899D01*
X623126Y195977D01*
X623020Y196058D01*
X622917Y196142D01*
X622817Y196229D01*
X622719Y196318D01*
X622623Y196411D01*
X622530Y196507D01*
X622441Y196605D01*
X622354Y196705D01*
X622270Y196808D01*
X622189Y196914D01*
X622111Y197022D01*
X622036Y197132D01*
X621965Y197244D01*
X621897Y197358D01*
X621832Y197474D01*
X621770Y197592D01*
X621712Y197712D01*
X621658Y197833D01*
X621607Y197956D01*
X621560Y198080D01*
X621516Y198206D01*
X621476Y198333D01*
X621440Y198461D01*
X621407Y198590D01*
X621378Y198719D01*
X621353Y198850D01*
X621332Y198981D01*
X621315Y199113D01*
X621301Y199246D01*
X621292Y199378D01*
X621286Y199511D01*
X621284Y199644D01*
X621284Y214884D02*
X621286Y215017D01*
X621292Y215150D01*
X621301Y215282D01*
X621315Y215415D01*
X621332Y215547D01*
X621353Y215678D01*
X621378Y215809D01*
X621407Y215938D01*
X621440Y216067D01*
X621476Y216195D01*
X621516Y216322D01*
X621560Y216448D01*
X621607Y216572D01*
X621658Y216695D01*
X621712Y216816D01*
X621770Y216936D01*
X621832Y217054D01*
X621897Y217170D01*
X621965Y217284D01*
X622036Y217396D01*
X622111Y217506D01*
X622189Y217614D01*
X622270Y217720D01*
X622354Y217823D01*
X622441Y217923D01*
X622530Y218021D01*
X622623Y218117D01*
X622719Y218210D01*
X622817Y218299D01*
X622917Y218386D01*
X623020Y218470D01*
X623126Y218551D01*
X623234Y218629D01*
X623344Y218704D01*
X623456Y218775D01*
X623570Y218843D01*
X623686Y218908D01*
X623804Y218970D01*
X623924Y219028D01*
X624045Y219082D01*
X624168Y219133D01*
X624292Y219180D01*
X624418Y219224D01*
X624545Y219264D01*
X624673Y219300D01*
X624802Y219333D01*
X624931Y219362D01*
X625062Y219387D01*
X625193Y219408D01*
X625325Y219425D01*
X625458Y219439D01*
X625590Y219448D01*
X625723Y219454D01*
X625856Y219456D01*
X637032Y219456D02*
X637165Y219454D01*
X637298Y219448D01*
X637430Y219439D01*
X637563Y219425D01*
X637695Y219408D01*
X637826Y219387D01*
X637957Y219362D01*
X638086Y219333D01*
X638215Y219300D01*
X638343Y219264D01*
X638470Y219224D01*
X638596Y219180D01*
X638720Y219133D01*
X638843Y219082D01*
X638964Y219028D01*
X639084Y218970D01*
X639202Y218908D01*
X639318Y218843D01*
X639432Y218775D01*
X639544Y218704D01*
X639654Y218629D01*
X639762Y218551D01*
X639868Y218470D01*
X639971Y218386D01*
X640071Y218299D01*
X640169Y218210D01*
X640265Y218117D01*
X640358Y218021D01*
X640447Y217923D01*
X640534Y217823D01*
X640618Y217720D01*
X640699Y217614D01*
X640777Y217506D01*
X640852Y217396D01*
X640923Y217284D01*
X640991Y217170D01*
X641056Y217054D01*
X641118Y216936D01*
X641176Y216816D01*
X641230Y216695D01*
X641281Y216572D01*
X641328Y216448D01*
X641372Y216322D01*
X641412Y216195D01*
X641448Y216067D01*
X641481Y215938D01*
X641510Y215809D01*
X641535Y215678D01*
X641556Y215547D01*
X641573Y215415D01*
X641587Y215282D01*
X641596Y215150D01*
X641602Y215017D01*
X641604Y214884D01*
X641604Y199644D02*
X641602Y199511D01*
X641596Y199378D01*
X641587Y199246D01*
X641573Y199113D01*
X641556Y198981D01*
X641535Y198850D01*
X641510Y198719D01*
X641481Y198590D01*
X641448Y198461D01*
X641412Y198333D01*
X641372Y198206D01*
X641328Y198080D01*
X641281Y197956D01*
X641230Y197833D01*
X641176Y197712D01*
X641118Y197592D01*
X641056Y197474D01*
X640991Y197358D01*
X640923Y197244D01*
X640852Y197132D01*
X640777Y197022D01*
X640699Y196914D01*
X640618Y196808D01*
X640534Y196705D01*
X640447Y196605D01*
X640358Y196507D01*
X640265Y196411D01*
X640169Y196318D01*
X640071Y196229D01*
X639971Y196142D01*
X639868Y196058D01*
X639762Y195977D01*
X639654Y195899D01*
X639544Y195824D01*
X639432Y195753D01*
X639318Y195685D01*
X639202Y195620D01*
X639084Y195558D01*
X638964Y195500D01*
X638843Y195446D01*
X638720Y195395D01*
X638596Y195348D01*
X638470Y195304D01*
X638343Y195264D01*
X638215Y195228D01*
X638086Y195195D01*
X637957Y195166D01*
X637826Y195141D01*
X637695Y195120D01*
X637563Y195103D01*
X637430Y195089D01*
X637298Y195080D01*
X637165Y195074D01*
X637032Y195072D01*
X625856Y195072D01*
X625856Y219456D02*
X637032Y219456D01*
X621284Y214884D02*
X621284Y199644D01*
X641604Y179070D02*
X641604Y163830D01*
X625856Y159258D02*
X625723Y159260D01*
X625590Y159266D01*
X625458Y159275D01*
X625325Y159289D01*
X625193Y159306D01*
X625062Y159327D01*
X624931Y159352D01*
X624802Y159381D01*
X624673Y159414D01*
X624545Y159450D01*
X624418Y159490D01*
X624292Y159534D01*
X624168Y159581D01*
X624045Y159632D01*
X623924Y159686D01*
X623804Y159744D01*
X623686Y159806D01*
X623570Y159871D01*
X623456Y159939D01*
X623344Y160010D01*
X623234Y160085D01*
X623126Y160163D01*
X623020Y160244D01*
X622917Y160328D01*
X622817Y160415D01*
X622719Y160504D01*
X622623Y160597D01*
X622530Y160693D01*
X622441Y160791D01*
X622354Y160891D01*
X622270Y160994D01*
X622189Y161100D01*
X622111Y161208D01*
X622036Y161318D01*
X621965Y161430D01*
X621897Y161544D01*
X621832Y161660D01*
X621770Y161778D01*
X621712Y161898D01*
X621658Y162019D01*
X621607Y162142D01*
X621560Y162266D01*
X621516Y162392D01*
X621476Y162519D01*
X621440Y162647D01*
X621407Y162776D01*
X621378Y162905D01*
X621353Y163036D01*
X621332Y163167D01*
X621315Y163299D01*
X621301Y163432D01*
X621292Y163564D01*
X621286Y163697D01*
X621284Y163830D01*
X621284Y179070D02*
X621286Y179203D01*
X621292Y179336D01*
X621301Y179468D01*
X621315Y179601D01*
X621332Y179733D01*
X621353Y179864D01*
X621378Y179995D01*
X621407Y180124D01*
X621440Y180253D01*
X621476Y180381D01*
X621516Y180508D01*
X621560Y180634D01*
X621607Y180758D01*
X621658Y180881D01*
X621712Y181002D01*
X621770Y181122D01*
X621832Y181240D01*
X621897Y181356D01*
X621965Y181470D01*
X622036Y181582D01*
X622111Y181692D01*
X622189Y181800D01*
X622270Y181906D01*
X622354Y182009D01*
X622441Y182109D01*
X622530Y182207D01*
X622623Y182303D01*
X622719Y182396D01*
X622817Y182485D01*
X622917Y182572D01*
X623020Y182656D01*
X623126Y182737D01*
X623234Y182815D01*
X623344Y182890D01*
X623456Y182961D01*
X623570Y183029D01*
X623686Y183094D01*
X623804Y183156D01*
X623924Y183214D01*
X624045Y183268D01*
X624168Y183319D01*
X624292Y183366D01*
X624418Y183410D01*
X624545Y183450D01*
X624673Y183486D01*
X624802Y183519D01*
X624931Y183548D01*
X625062Y183573D01*
X625193Y183594D01*
X625325Y183611D01*
X625458Y183625D01*
X625590Y183634D01*
X625723Y183640D01*
X625856Y183642D01*
X637032Y183642D02*
X637165Y183640D01*
X637298Y183634D01*
X637430Y183625D01*
X637563Y183611D01*
X637695Y183594D01*
X637826Y183573D01*
X637957Y183548D01*
X638086Y183519D01*
X638215Y183486D01*
X638343Y183450D01*
X638470Y183410D01*
X638596Y183366D01*
X638720Y183319D01*
X638843Y183268D01*
X638964Y183214D01*
X639084Y183156D01*
X639202Y183094D01*
X639318Y183029D01*
X639432Y182961D01*
X639544Y182890D01*
X639654Y182815D01*
X639762Y182737D01*
X639868Y182656D01*
X639971Y182572D01*
X640071Y182485D01*
X640169Y182396D01*
X640265Y182303D01*
X640358Y182207D01*
X640447Y182109D01*
X640534Y182009D01*
X640618Y181906D01*
X640699Y181800D01*
X640777Y181692D01*
X640852Y181582D01*
X640923Y181470D01*
X640991Y181356D01*
X641056Y181240D01*
X641118Y181122D01*
X641176Y181002D01*
X641230Y180881D01*
X641281Y180758D01*
X641328Y180634D01*
X641372Y180508D01*
X641412Y180381D01*
X641448Y180253D01*
X641481Y180124D01*
X641510Y179995D01*
X641535Y179864D01*
X641556Y179733D01*
X641573Y179601D01*
X641587Y179468D01*
X641596Y179336D01*
X641602Y179203D01*
X641604Y179070D01*
X641604Y163830D02*
X641602Y163697D01*
X641596Y163564D01*
X641587Y163432D01*
X641573Y163299D01*
X641556Y163167D01*
X641535Y163036D01*
X641510Y162905D01*
X641481Y162776D01*
X641448Y162647D01*
X641412Y162519D01*
X641372Y162392D01*
X641328Y162266D01*
X641281Y162142D01*
X641230Y162019D01*
X641176Y161898D01*
X641118Y161778D01*
X641056Y161660D01*
X640991Y161544D01*
X640923Y161430D01*
X640852Y161318D01*
X640777Y161208D01*
X640699Y161100D01*
X640618Y160994D01*
X640534Y160891D01*
X640447Y160791D01*
X640358Y160693D01*
X640265Y160597D01*
X640169Y160504D01*
X640071Y160415D01*
X639971Y160328D01*
X639868Y160244D01*
X639762Y160163D01*
X639654Y160085D01*
X639544Y160010D01*
X639432Y159939D01*
X639318Y159871D01*
X639202Y159806D01*
X639084Y159744D01*
X638964Y159686D01*
X638843Y159632D01*
X638720Y159581D01*
X638596Y159534D01*
X638470Y159490D01*
X638343Y159450D01*
X638215Y159414D01*
X638086Y159381D01*
X637957Y159352D01*
X637826Y159327D01*
X637695Y159306D01*
X637563Y159289D01*
X637430Y159275D01*
X637298Y159266D01*
X637165Y159260D01*
X637032Y159258D01*
X625856Y159258D01*
X625856Y183642D02*
X637032Y183642D01*
X621284Y179070D02*
X621284Y163830D01*
M02*
