G04 EAGLE Gerber RS-274X export*
G75*
%MOMM*%
%FSLAX34Y34*%
%LPD*%
%INSolderpaste Top*%
%IPPOS*%
%AMOC8*
5,1,8,0,0,1.08239X$1,22.5*%
G01*
%ADD10C,0.100000*%
%ADD11R,1.700000X4.200000*%
%ADD12C,0.300000*%
%ADD13C,0.100800*%
%ADD14C,0.099000*%
%ADD15R,1.200000X0.800000*%
%ADD16R,0.900000X0.600000*%
%ADD17C,0.102500*%
%ADD18C,0.102000*%
%ADD19R,2.400000X1.100000*%
%ADD20R,7.000000X1.250000*%

G36*
X207648Y38371D02*
X207648Y38371D01*
X207675Y38367D01*
X207716Y38385D01*
X207758Y38394D01*
X207794Y38420D01*
X207803Y38424D01*
X207807Y38429D01*
X207818Y38438D01*
X231818Y62438D01*
X231839Y62476D01*
X231868Y62509D01*
X231872Y62536D01*
X231885Y62560D01*
X231882Y62604D01*
X231889Y62647D01*
X231878Y62673D01*
X231876Y62700D01*
X231850Y62735D01*
X231832Y62775D01*
X231809Y62790D01*
X231793Y62812D01*
X231752Y62828D01*
X231716Y62852D01*
X231672Y62859D01*
X231663Y62862D01*
X231656Y62861D01*
X231642Y62863D01*
X207642Y62863D01*
X207626Y62858D01*
X207609Y62861D01*
X207559Y62839D01*
X207508Y62824D01*
X207497Y62811D01*
X207481Y62804D01*
X207451Y62759D01*
X207416Y62719D01*
X207413Y62702D01*
X207404Y62688D01*
X207393Y62614D01*
X207393Y38614D01*
X207405Y38572D01*
X207408Y38528D01*
X207424Y38506D01*
X207432Y38480D01*
X207465Y38451D01*
X207491Y38416D01*
X207517Y38406D01*
X207537Y38388D01*
X207581Y38381D01*
X207621Y38366D01*
X207648Y38371D01*
G37*
G36*
X602955Y139756D02*
X602955Y139756D01*
X602959Y139752D01*
X603903Y139971D01*
X603909Y139977D01*
X603914Y139975D01*
X604786Y140399D01*
X604789Y140406D01*
X604795Y140404D01*
X605551Y141011D01*
X605553Y141019D01*
X605559Y141019D01*
X606160Y141779D01*
X606160Y141788D01*
X606166Y141789D01*
X606584Y142664D01*
X606582Y142672D01*
X606587Y142674D01*
X606800Y143620D01*
X606797Y143626D01*
X606799Y143628D01*
X606798Y143629D01*
X606801Y143631D01*
X606797Y144600D01*
X606797Y144601D01*
X606778Y145669D01*
X606773Y145676D01*
X606777Y145680D01*
X606521Y146717D01*
X606514Y146722D01*
X606517Y146728D01*
X606036Y147682D01*
X606029Y147686D01*
X606030Y147691D01*
X605349Y148515D01*
X605341Y148516D01*
X605341Y148522D01*
X604494Y149173D01*
X604486Y149173D01*
X604485Y149179D01*
X603514Y149626D01*
X603506Y149624D01*
X603504Y149629D01*
X602458Y149848D01*
X602456Y149847D01*
X602450Y149847D01*
X602448Y149849D01*
X590448Y149849D01*
X590445Y149847D01*
X590442Y149847D01*
X590440Y149849D01*
X589345Y149669D01*
X589339Y149663D01*
X589334Y149666D01*
X588306Y149247D01*
X588302Y149240D01*
X588297Y149242D01*
X587388Y148605D01*
X587386Y148597D01*
X587380Y148597D01*
X586636Y147774D01*
X586635Y147766D01*
X586629Y147765D01*
X586087Y146797D01*
X586088Y146788D01*
X586082Y146786D01*
X585769Y145722D01*
X585772Y145714D01*
X585767Y145711D01*
X585699Y144603D01*
X585703Y144597D01*
X585699Y144593D01*
X585869Y143485D01*
X585875Y143479D01*
X585872Y143474D01*
X586284Y142432D01*
X586291Y142428D01*
X586289Y142423D01*
X586923Y141498D01*
X586931Y141496D01*
X586930Y141490D01*
X587754Y140730D01*
X587762Y140729D01*
X587762Y140723D01*
X588734Y140166D01*
X588742Y140167D01*
X588744Y140161D01*
X589816Y139834D01*
X589824Y139837D01*
X589827Y139832D01*
X590944Y139751D01*
X590947Y139752D01*
X590948Y139751D01*
X602948Y139751D01*
X602955Y139756D01*
G37*
G36*
X602453Y53354D02*
X602453Y53354D01*
X602456Y53351D01*
X603452Y53509D01*
X603458Y53515D01*
X603463Y53512D01*
X604399Y53887D01*
X604403Y53894D01*
X604409Y53892D01*
X605238Y54466D01*
X605241Y54474D01*
X605246Y54473D01*
X605927Y55217D01*
X605928Y55226D01*
X605934Y55226D01*
X606432Y56103D01*
X606431Y56112D01*
X606436Y56114D01*
X606549Y56489D01*
X606727Y57079D01*
X606727Y57080D01*
X606726Y57082D01*
X606724Y57087D01*
X606729Y57090D01*
X606797Y58097D01*
X606796Y58099D01*
X606797Y58100D01*
X606788Y59181D01*
X606783Y59188D01*
X606787Y59192D01*
X606538Y60244D01*
X606531Y60249D01*
X606534Y60254D01*
X606057Y61224D01*
X606049Y61227D01*
X606051Y61233D01*
X605370Y62072D01*
X605362Y62074D01*
X605362Y62080D01*
X604512Y62746D01*
X604503Y62747D01*
X604502Y62752D01*
X603525Y63213D01*
X603517Y63211D01*
X603514Y63217D01*
X602459Y63448D01*
X602456Y63447D01*
X602450Y63447D01*
X602448Y63449D01*
X590448Y63449D01*
X590445Y63447D01*
X590441Y63447D01*
X590440Y63449D01*
X589334Y63256D01*
X589329Y63250D01*
X589324Y63253D01*
X588289Y62820D01*
X588285Y62813D01*
X588280Y62815D01*
X587367Y62162D01*
X587365Y62154D01*
X587359Y62155D01*
X586615Y61316D01*
X586614Y61307D01*
X586609Y61307D01*
X586070Y60323D01*
X586071Y60315D01*
X586066Y60313D01*
X586050Y60259D01*
X585869Y59619D01*
X585759Y59234D01*
X585762Y59227D01*
X585759Y59225D01*
X585759Y59224D01*
X585757Y59223D01*
X585699Y58103D01*
X585702Y58098D01*
X585699Y58095D01*
X585817Y57049D01*
X585823Y57043D01*
X585819Y57038D01*
X586167Y56044D01*
X586174Y56040D01*
X586172Y56035D01*
X586732Y55143D01*
X586739Y55141D01*
X586739Y55135D01*
X587483Y54391D01*
X587491Y54389D01*
X587491Y54384D01*
X588383Y53824D01*
X588391Y53824D01*
X588392Y53819D01*
X589386Y53471D01*
X589394Y53474D01*
X589397Y53469D01*
X590443Y53351D01*
X590446Y53353D01*
X590448Y53351D01*
X602448Y53351D01*
X602453Y53354D01*
G37*
G36*
X641754Y139755D02*
X641754Y139755D01*
X641757Y139752D01*
X642838Y139964D01*
X642843Y139970D01*
X642848Y139967D01*
X643854Y140414D01*
X643858Y140421D01*
X643864Y140419D01*
X644745Y141079D01*
X644748Y141087D01*
X644753Y141087D01*
X645466Y141926D01*
X645466Y141934D01*
X645472Y141935D01*
X645980Y142912D01*
X645979Y142920D01*
X645984Y142922D01*
X646262Y143987D01*
X646259Y143995D01*
X646263Y143998D01*
X646297Y145099D01*
X646294Y145104D01*
X646297Y145107D01*
X646142Y146183D01*
X646136Y146188D01*
X646139Y146193D01*
X645749Y147207D01*
X645742Y147211D01*
X645744Y147217D01*
X645137Y148119D01*
X645129Y148121D01*
X645130Y148127D01*
X644338Y148871D01*
X644330Y148872D01*
X644330Y148878D01*
X643392Y149427D01*
X643384Y149426D01*
X643382Y149432D01*
X642346Y149759D01*
X642338Y149756D01*
X642335Y149761D01*
X641252Y149849D01*
X641249Y149847D01*
X641248Y149849D01*
X635248Y149849D01*
X635245Y149847D01*
X635243Y149847D01*
X635242Y149849D01*
X634109Y149699D01*
X634103Y149693D01*
X634098Y149696D01*
X633028Y149298D01*
X633024Y149291D01*
X633018Y149293D01*
X632063Y148666D01*
X632060Y148658D01*
X632055Y148659D01*
X631263Y147836D01*
X631262Y147828D01*
X631256Y147827D01*
X630667Y146848D01*
X630668Y146840D01*
X630663Y146838D01*
X630307Y145753D01*
X630310Y145745D01*
X630305Y145742D01*
X630199Y144605D01*
X630204Y144596D01*
X630200Y144591D01*
X630407Y143454D01*
X630413Y143448D01*
X630410Y143443D01*
X630865Y142381D01*
X630872Y142377D01*
X630870Y142371D01*
X631550Y141436D01*
X631558Y141434D01*
X631557Y141428D01*
X632428Y140668D01*
X632436Y140668D01*
X632437Y140662D01*
X633456Y140115D01*
X633464Y140116D01*
X633466Y140111D01*
X634580Y139804D01*
X634588Y139807D01*
X634591Y139802D01*
X635746Y139751D01*
X635747Y139752D01*
X635748Y139751D01*
X641748Y139751D01*
X641754Y139755D01*
G37*
G36*
X641252Y53354D02*
X641252Y53354D01*
X641254Y53351D01*
X642387Y53501D01*
X642393Y53507D01*
X642398Y53504D01*
X643468Y53902D01*
X643472Y53909D01*
X643478Y53907D01*
X644433Y54534D01*
X644436Y54542D01*
X644441Y54541D01*
X645233Y55364D01*
X645234Y55372D01*
X645240Y55373D01*
X645829Y56352D01*
X645828Y56360D01*
X645833Y56362D01*
X646189Y57447D01*
X646187Y57455D01*
X646191Y57458D01*
X646297Y58595D01*
X646293Y58602D01*
X646297Y58607D01*
X646152Y59694D01*
X646146Y59700D01*
X646149Y59705D01*
X645766Y60733D01*
X645759Y60738D01*
X645761Y60743D01*
X645158Y61660D01*
X645150Y61663D01*
X645151Y61669D01*
X644359Y62429D01*
X644351Y62430D01*
X644350Y62436D01*
X643409Y63000D01*
X643401Y62999D01*
X643399Y63005D01*
X642356Y63346D01*
X642348Y63344D01*
X642345Y63348D01*
X641253Y63449D01*
X641250Y63447D01*
X641248Y63449D01*
X635248Y63449D01*
X635245Y63447D01*
X635244Y63449D01*
X634151Y63348D01*
X634145Y63343D01*
X634140Y63346D01*
X633097Y63005D01*
X633092Y62998D01*
X633087Y63000D01*
X632146Y62436D01*
X632143Y62428D01*
X632137Y62429D01*
X631345Y61669D01*
X631344Y61661D01*
X631338Y61660D01*
X630736Y60743D01*
X630736Y60735D01*
X630731Y60733D01*
X630347Y59705D01*
X630349Y59697D01*
X630344Y59694D01*
X630199Y58607D01*
X630203Y58599D01*
X630199Y58595D01*
X630305Y57458D01*
X630310Y57452D01*
X630307Y57447D01*
X630663Y56362D01*
X630670Y56357D01*
X630667Y56352D01*
X631256Y55373D01*
X631264Y55370D01*
X631263Y55364D01*
X632055Y54541D01*
X632063Y54540D01*
X632063Y54534D01*
X633018Y53907D01*
X633026Y53908D01*
X633028Y53902D01*
X634098Y53504D01*
X634106Y53506D01*
X634109Y53501D01*
X635242Y53351D01*
X635246Y53354D01*
X635248Y53351D01*
X641248Y53351D01*
X641252Y53354D01*
G37*
D10*
X221306Y106384D02*
X221306Y116384D01*
X230306Y116384D01*
X230306Y106384D01*
X221306Y106384D01*
X221306Y107334D02*
X230306Y107334D01*
X230306Y108284D02*
X221306Y108284D01*
X221306Y109234D02*
X230306Y109234D01*
X230306Y110184D02*
X221306Y110184D01*
X221306Y111134D02*
X230306Y111134D01*
X230306Y112084D02*
X221306Y112084D01*
X221306Y113034D02*
X230306Y113034D01*
X230306Y113984D02*
X221306Y113984D01*
X221306Y114934D02*
X230306Y114934D01*
X230306Y115884D02*
X221306Y115884D01*
X221306Y99384D02*
X221306Y89384D01*
X221306Y99384D02*
X230306Y99384D01*
X230306Y89384D01*
X221306Y89384D01*
X221306Y90334D02*
X230306Y90334D01*
X230306Y91284D02*
X221306Y91284D01*
X221306Y92234D02*
X230306Y92234D01*
X230306Y93184D02*
X221306Y93184D01*
X221306Y94134D02*
X230306Y94134D01*
X230306Y95084D02*
X221306Y95084D01*
X221306Y96034D02*
X230306Y96034D01*
X230306Y96984D02*
X221306Y96984D01*
X221306Y97934D02*
X230306Y97934D01*
X230306Y98884D02*
X221306Y98884D01*
D11*
X252942Y41814D03*
D10*
X201858Y268948D02*
X201858Y278948D01*
X201858Y268948D02*
X192858Y268948D01*
X192858Y278948D01*
X201858Y278948D01*
X201858Y269898D02*
X192858Y269898D01*
X192858Y270848D02*
X201858Y270848D01*
X201858Y271798D02*
X192858Y271798D01*
X192858Y272748D02*
X201858Y272748D01*
X201858Y273698D02*
X192858Y273698D01*
X192858Y274648D02*
X201858Y274648D01*
X201858Y275598D02*
X192858Y275598D01*
X192858Y276548D02*
X201858Y276548D01*
X201858Y277498D02*
X192858Y277498D01*
X192858Y278448D02*
X201858Y278448D01*
X201858Y285948D02*
X201858Y295948D01*
X201858Y285948D02*
X192858Y285948D01*
X192858Y295948D01*
X201858Y295948D01*
X201858Y286898D02*
X192858Y286898D01*
X192858Y287848D02*
X201858Y287848D01*
X201858Y288798D02*
X192858Y288798D01*
X192858Y289748D02*
X201858Y289748D01*
X201858Y290698D02*
X192858Y290698D01*
X192858Y291648D02*
X201858Y291648D01*
X201858Y292598D02*
X192858Y292598D01*
X192858Y293548D02*
X201858Y293548D01*
X201858Y294498D02*
X192858Y294498D01*
X192858Y295448D02*
X201858Y295448D01*
X217860Y278948D02*
X217860Y268948D01*
X208860Y268948D01*
X208860Y278948D01*
X217860Y278948D01*
X217860Y269898D02*
X208860Y269898D01*
X208860Y270848D02*
X217860Y270848D01*
X217860Y271798D02*
X208860Y271798D01*
X208860Y272748D02*
X217860Y272748D01*
X217860Y273698D02*
X208860Y273698D01*
X208860Y274648D02*
X217860Y274648D01*
X217860Y275598D02*
X208860Y275598D01*
X208860Y276548D02*
X217860Y276548D01*
X217860Y277498D02*
X208860Y277498D01*
X208860Y278448D02*
X217860Y278448D01*
X217860Y285948D02*
X217860Y295948D01*
X217860Y285948D02*
X208860Y285948D01*
X208860Y295948D01*
X217860Y295948D01*
X217860Y286898D02*
X208860Y286898D01*
X208860Y287848D02*
X217860Y287848D01*
X217860Y288798D02*
X208860Y288798D01*
X208860Y289748D02*
X217860Y289748D01*
X217860Y290698D02*
X208860Y290698D01*
X208860Y291648D02*
X217860Y291648D01*
X217860Y292598D02*
X208860Y292598D01*
X208860Y293548D02*
X217860Y293548D01*
X217860Y294498D02*
X208860Y294498D01*
X208860Y295448D02*
X217860Y295448D01*
D12*
X633786Y212280D02*
X640786Y212280D01*
X633786Y212280D02*
X633786Y219280D01*
X640786Y219280D01*
X640786Y212280D01*
X640786Y215130D02*
X633786Y215130D01*
X633786Y217980D02*
X640786Y217980D01*
X640786Y194740D02*
X633786Y194740D01*
X633786Y201740D01*
X640786Y201740D01*
X640786Y194740D01*
X640786Y197590D02*
X633786Y197590D01*
X633786Y200440D02*
X640786Y200440D01*
D13*
X261456Y93776D02*
X261456Y88484D01*
X254164Y88484D01*
X254164Y93776D01*
X261456Y93776D01*
X261456Y89442D02*
X254164Y89442D01*
X254164Y90400D02*
X261456Y90400D01*
X261456Y91358D02*
X254164Y91358D01*
X254164Y92316D02*
X261456Y92316D01*
X261456Y93274D02*
X254164Y93274D01*
X261456Y111484D02*
X261456Y116776D01*
X261456Y111484D02*
X254164Y111484D01*
X254164Y116776D01*
X261456Y116776D01*
X261456Y112442D02*
X254164Y112442D01*
X254164Y113400D02*
X261456Y113400D01*
X261456Y114358D02*
X254164Y114358D01*
X254164Y115316D02*
X261456Y115316D01*
X261456Y116274D02*
X254164Y116274D01*
D10*
X237054Y116130D02*
X237054Y106130D01*
X237054Y116130D02*
X246054Y116130D01*
X246054Y106130D01*
X237054Y106130D01*
X237054Y107080D02*
X246054Y107080D01*
X246054Y108030D02*
X237054Y108030D01*
X237054Y108980D02*
X246054Y108980D01*
X246054Y109930D02*
X237054Y109930D01*
X237054Y110880D02*
X246054Y110880D01*
X246054Y111830D02*
X237054Y111830D01*
X237054Y112780D02*
X246054Y112780D01*
X246054Y113730D02*
X237054Y113730D01*
X237054Y114680D02*
X246054Y114680D01*
X246054Y115630D02*
X237054Y115630D01*
X237054Y99130D02*
X237054Y89130D01*
X237054Y99130D02*
X246054Y99130D01*
X246054Y89130D01*
X237054Y89130D01*
X237054Y90080D02*
X246054Y90080D01*
X246054Y91030D02*
X237054Y91030D01*
X237054Y91980D02*
X246054Y91980D01*
X246054Y92930D02*
X237054Y92930D01*
X237054Y93880D02*
X246054Y93880D01*
X246054Y94830D02*
X237054Y94830D01*
X237054Y95780D02*
X246054Y95780D01*
X246054Y96730D02*
X237054Y96730D01*
X237054Y97680D02*
X246054Y97680D01*
X246054Y98630D02*
X237054Y98630D01*
X621720Y194780D02*
X621720Y204780D01*
X621720Y194780D02*
X612720Y194780D01*
X612720Y204780D01*
X621720Y204780D01*
X621720Y195730D02*
X612720Y195730D01*
X612720Y196680D02*
X621720Y196680D01*
X621720Y197630D02*
X612720Y197630D01*
X612720Y198580D02*
X621720Y198580D01*
X621720Y199530D02*
X612720Y199530D01*
X612720Y200480D02*
X621720Y200480D01*
X621720Y201430D02*
X612720Y201430D01*
X612720Y202380D02*
X621720Y202380D01*
X621720Y203330D02*
X612720Y203330D01*
X612720Y204280D02*
X621720Y204280D01*
X621720Y211780D02*
X621720Y221780D01*
X621720Y211780D02*
X612720Y211780D01*
X612720Y221780D01*
X621720Y221780D01*
X621720Y212730D02*
X612720Y212730D01*
X612720Y213680D02*
X621720Y213680D01*
X621720Y214630D02*
X612720Y214630D01*
X612720Y215580D02*
X621720Y215580D01*
X621720Y216530D02*
X612720Y216530D01*
X612720Y217480D02*
X621720Y217480D01*
X621720Y218430D02*
X612720Y218430D01*
X612720Y219380D02*
X621720Y219380D01*
X621720Y220330D02*
X612720Y220330D01*
X612720Y221280D02*
X621720Y221280D01*
X141788Y346274D02*
X131788Y346274D01*
X131788Y355274D01*
X141788Y355274D01*
X141788Y346274D01*
X141788Y347224D02*
X131788Y347224D01*
X131788Y348174D02*
X141788Y348174D01*
X141788Y349124D02*
X131788Y349124D01*
X131788Y350074D02*
X141788Y350074D01*
X141788Y351024D02*
X131788Y351024D01*
X131788Y351974D02*
X141788Y351974D01*
X141788Y352924D02*
X131788Y352924D01*
X131788Y353874D02*
X141788Y353874D01*
X141788Y354824D02*
X131788Y354824D01*
X148788Y346274D02*
X158788Y346274D01*
X148788Y346274D02*
X148788Y355274D01*
X158788Y355274D01*
X158788Y346274D01*
X158788Y347224D02*
X148788Y347224D01*
X148788Y348174D02*
X158788Y348174D01*
X158788Y349124D02*
X148788Y349124D01*
X148788Y350074D02*
X158788Y350074D01*
X158788Y351024D02*
X148788Y351024D01*
X148788Y351974D02*
X158788Y351974D01*
X158788Y352924D02*
X148788Y352924D01*
X148788Y353874D02*
X158788Y353874D01*
X158788Y354824D02*
X148788Y354824D01*
D12*
X633786Y177990D02*
X640786Y177990D01*
X633786Y177990D02*
X633786Y184990D01*
X640786Y184990D01*
X640786Y177990D01*
X640786Y180840D02*
X633786Y180840D01*
X633786Y183690D02*
X640786Y183690D01*
X640786Y160450D02*
X633786Y160450D01*
X633786Y167450D01*
X640786Y167450D01*
X640786Y160450D01*
X640786Y163300D02*
X633786Y163300D01*
X633786Y166150D02*
X640786Y166150D01*
D10*
X621466Y167950D02*
X621466Y157950D01*
X612466Y157950D01*
X612466Y167950D01*
X621466Y167950D01*
X621466Y158900D02*
X612466Y158900D01*
X612466Y159850D02*
X621466Y159850D01*
X621466Y160800D02*
X612466Y160800D01*
X612466Y161750D02*
X621466Y161750D01*
X621466Y162700D02*
X612466Y162700D01*
X612466Y163650D02*
X621466Y163650D01*
X621466Y164600D02*
X612466Y164600D01*
X612466Y165550D02*
X621466Y165550D01*
X621466Y166500D02*
X612466Y166500D01*
X612466Y167450D02*
X621466Y167450D01*
X621466Y174950D02*
X621466Y184950D01*
X621466Y174950D02*
X612466Y174950D01*
X612466Y184950D01*
X621466Y184950D01*
X621466Y175900D02*
X612466Y175900D01*
X612466Y176850D02*
X621466Y176850D01*
X621466Y177800D02*
X612466Y177800D01*
X612466Y178750D02*
X621466Y178750D01*
X621466Y179700D02*
X612466Y179700D01*
X612466Y180650D02*
X621466Y180650D01*
X621466Y181600D02*
X612466Y181600D01*
X612466Y182550D02*
X621466Y182550D01*
X621466Y183500D02*
X612466Y183500D01*
X612466Y184450D02*
X621466Y184450D01*
D14*
X104176Y332873D02*
X104176Y337383D01*
X115186Y337383D01*
X115186Y332873D01*
X104176Y332873D01*
X104176Y333813D02*
X115186Y333813D01*
X115186Y334753D02*
X104176Y334753D01*
X104176Y335693D02*
X115186Y335693D01*
X115186Y336633D02*
X104176Y336633D01*
X104176Y327883D02*
X104176Y323373D01*
X104176Y327883D02*
X115186Y327883D01*
X115186Y323373D01*
X104176Y323373D01*
X104176Y324313D02*
X115186Y324313D01*
X115186Y325253D02*
X104176Y325253D01*
X104176Y326193D02*
X115186Y326193D01*
X115186Y327133D02*
X104176Y327133D01*
X104176Y318383D02*
X104176Y313873D01*
X104176Y318383D02*
X115186Y318383D01*
X115186Y313873D01*
X104176Y313873D01*
X104176Y314813D02*
X115186Y314813D01*
X115186Y315753D02*
X104176Y315753D01*
X104176Y316693D02*
X115186Y316693D01*
X115186Y317633D02*
X104176Y317633D01*
X130178Y318383D02*
X130178Y313873D01*
X130178Y318383D02*
X141188Y318383D01*
X141188Y313873D01*
X130178Y313873D01*
X130178Y314813D02*
X141188Y314813D01*
X141188Y315753D02*
X130178Y315753D01*
X130178Y316693D02*
X141188Y316693D01*
X141188Y317633D02*
X130178Y317633D01*
X130178Y332873D02*
X130178Y337383D01*
X141188Y337383D01*
X141188Y332873D01*
X130178Y332873D01*
X130178Y333813D02*
X141188Y333813D01*
X141188Y334753D02*
X130178Y334753D01*
X130178Y335693D02*
X141188Y335693D01*
X141188Y336633D02*
X130178Y336633D01*
D10*
X123228Y354766D02*
X113228Y354766D01*
X123228Y354766D02*
X123228Y345766D01*
X113228Y345766D01*
X113228Y354766D01*
X113228Y346716D02*
X123228Y346716D01*
X123228Y347666D02*
X113228Y347666D01*
X113228Y348616D02*
X123228Y348616D01*
X123228Y349566D02*
X113228Y349566D01*
X113228Y350516D02*
X123228Y350516D01*
X123228Y351466D02*
X113228Y351466D01*
X113228Y352416D02*
X123228Y352416D01*
X123228Y353366D02*
X113228Y353366D01*
X113228Y354316D02*
X123228Y354316D01*
X106228Y354766D02*
X96228Y354766D01*
X106228Y354766D02*
X106228Y345766D01*
X96228Y345766D01*
X96228Y354766D01*
X96228Y346716D02*
X106228Y346716D01*
X106228Y347666D02*
X96228Y347666D01*
X96228Y348616D02*
X106228Y348616D01*
X106228Y349566D02*
X96228Y349566D01*
X96228Y350516D02*
X106228Y350516D01*
X106228Y351466D02*
X96228Y351466D01*
X96228Y352416D02*
X106228Y352416D01*
X106228Y353366D02*
X96228Y353366D01*
X96228Y354316D02*
X106228Y354316D01*
X522168Y118546D02*
X532168Y118546D01*
X532168Y109546D01*
X522168Y109546D01*
X522168Y118546D01*
X522168Y110496D02*
X532168Y110496D01*
X532168Y111446D02*
X522168Y111446D01*
X522168Y112396D02*
X532168Y112396D01*
X532168Y113346D02*
X522168Y113346D01*
X522168Y114296D02*
X532168Y114296D01*
X532168Y115246D02*
X522168Y115246D01*
X522168Y116196D02*
X532168Y116196D01*
X532168Y117146D02*
X522168Y117146D01*
X522168Y118096D02*
X532168Y118096D01*
X515168Y118546D02*
X505168Y118546D01*
X515168Y118546D02*
X515168Y109546D01*
X505168Y109546D01*
X505168Y118546D01*
X505168Y110496D02*
X515168Y110496D01*
X515168Y111446D02*
X505168Y111446D01*
X505168Y112396D02*
X515168Y112396D01*
X515168Y113346D02*
X505168Y113346D01*
X505168Y114296D02*
X515168Y114296D01*
X515168Y115246D02*
X505168Y115246D01*
X505168Y116196D02*
X515168Y116196D01*
X515168Y117146D02*
X505168Y117146D01*
X505168Y118096D02*
X515168Y118096D01*
X522676Y102036D02*
X532676Y102036D01*
X532676Y93036D01*
X522676Y93036D01*
X522676Y102036D01*
X522676Y93986D02*
X532676Y93986D01*
X532676Y94936D02*
X522676Y94936D01*
X522676Y95886D02*
X532676Y95886D01*
X532676Y96836D02*
X522676Y96836D01*
X522676Y97786D02*
X532676Y97786D01*
X532676Y98736D02*
X522676Y98736D01*
X522676Y99686D02*
X532676Y99686D01*
X532676Y100636D02*
X522676Y100636D01*
X522676Y101586D02*
X532676Y101586D01*
X515676Y102036D02*
X505676Y102036D01*
X515676Y102036D02*
X515676Y93036D01*
X505676Y93036D01*
X505676Y102036D01*
X505676Y93986D02*
X515676Y93986D01*
X515676Y94936D02*
X505676Y94936D01*
X505676Y95886D02*
X515676Y95886D01*
X515676Y96836D02*
X505676Y96836D01*
X505676Y97786D02*
X515676Y97786D01*
X515676Y98736D02*
X505676Y98736D01*
X505676Y99686D02*
X515676Y99686D01*
X515676Y100636D02*
X505676Y100636D01*
X505676Y101586D02*
X515676Y101586D01*
X432138Y199450D02*
X432138Y209450D01*
X441138Y209450D01*
X441138Y199450D01*
X432138Y199450D01*
X432138Y200400D02*
X441138Y200400D01*
X441138Y201350D02*
X432138Y201350D01*
X432138Y202300D02*
X441138Y202300D01*
X441138Y203250D02*
X432138Y203250D01*
X432138Y204200D02*
X441138Y204200D01*
X441138Y205150D02*
X432138Y205150D01*
X432138Y206100D02*
X441138Y206100D01*
X441138Y207050D02*
X432138Y207050D01*
X432138Y208000D02*
X441138Y208000D01*
X441138Y208950D02*
X432138Y208950D01*
X432138Y192450D02*
X432138Y182450D01*
X432138Y192450D02*
X441138Y192450D01*
X441138Y182450D01*
X432138Y182450D01*
X432138Y183400D02*
X441138Y183400D01*
X441138Y184350D02*
X432138Y184350D01*
X432138Y185300D02*
X441138Y185300D01*
X441138Y186250D02*
X432138Y186250D01*
X432138Y187200D02*
X441138Y187200D01*
X441138Y188150D02*
X432138Y188150D01*
X432138Y189100D02*
X441138Y189100D01*
X441138Y190050D02*
X432138Y190050D01*
X432138Y191000D02*
X441138Y191000D01*
X441138Y191950D02*
X432138Y191950D01*
D15*
X422600Y120500D03*
D16*
X412100Y120500D03*
D15*
X422600Y131500D03*
D16*
X412100Y131500D03*
D15*
X422600Y142500D03*
D16*
X412100Y142500D03*
D15*
X422600Y153500D03*
D16*
X412100Y153500D03*
D15*
X422600Y164500D03*
D16*
X412100Y164500D03*
D15*
X422600Y175500D03*
D16*
X412100Y175500D03*
D15*
X422600Y186500D03*
D16*
X412100Y186500D03*
D15*
X422600Y216500D03*
D16*
X412100Y216500D03*
D15*
X422600Y227500D03*
D16*
X412100Y227500D03*
D15*
X422600Y238500D03*
D16*
X412100Y238500D03*
D15*
X422600Y249500D03*
D16*
X412100Y249500D03*
D15*
X422600Y260500D03*
D16*
X412100Y260500D03*
D15*
X288600Y186500D03*
D16*
X299100Y186500D03*
D15*
X288600Y175500D03*
D16*
X299100Y175500D03*
D15*
X288600Y164500D03*
D16*
X299100Y164500D03*
D15*
X288600Y153500D03*
D16*
X299100Y153500D03*
D15*
X288600Y142500D03*
D16*
X299100Y142500D03*
D15*
X288600Y131500D03*
D16*
X299100Y131500D03*
D15*
X288600Y120500D03*
D16*
X299100Y120500D03*
D15*
X288600Y260500D03*
D16*
X299100Y260500D03*
D15*
X288600Y249500D03*
D16*
X299100Y249500D03*
D15*
X288600Y238500D03*
D16*
X299100Y238500D03*
D15*
X288600Y227500D03*
D16*
X299100Y227500D03*
D15*
X288600Y216500D03*
D16*
X299100Y216500D03*
D17*
X553962Y102164D02*
X559038Y102164D01*
X559038Y100688D01*
X553962Y100688D01*
X553962Y102164D01*
X553962Y101662D02*
X559038Y101662D01*
X559038Y107164D02*
X554462Y107164D01*
X559038Y107164D02*
X559038Y105688D01*
X554462Y105688D01*
X554462Y107164D01*
X554462Y106662D02*
X559038Y106662D01*
X559038Y112164D02*
X554462Y112164D01*
X559038Y112164D02*
X559038Y110688D01*
X554462Y110688D01*
X554462Y112164D01*
X554462Y111662D02*
X559038Y111662D01*
X550438Y110688D02*
X545862Y110688D01*
X545862Y112164D01*
X550438Y112164D01*
X550438Y110688D01*
X550438Y111662D02*
X545862Y111662D01*
X545862Y105688D02*
X550438Y105688D01*
X545862Y105688D02*
X545862Y107164D01*
X550438Y107164D01*
X550438Y105688D01*
X550438Y106662D02*
X545862Y106662D01*
X545862Y100688D02*
X550438Y100688D01*
X545862Y100688D02*
X545862Y102164D01*
X550438Y102164D01*
X550438Y100688D01*
X550438Y101662D02*
X545862Y101662D01*
D18*
X595138Y108110D02*
X595138Y110090D01*
X595138Y108110D02*
X586158Y108110D01*
X586158Y110090D01*
X595138Y110090D01*
X595138Y109079D02*
X586158Y109079D01*
X586158Y110048D02*
X595138Y110048D01*
X595138Y105090D02*
X595138Y103110D01*
X586158Y103110D01*
X586158Y105090D01*
X595138Y105090D01*
X595138Y104079D02*
X586158Y104079D01*
X586158Y105048D02*
X595138Y105048D01*
X595138Y131360D02*
X595138Y136340D01*
X595138Y131360D02*
X586158Y131360D01*
X586158Y136340D01*
X595138Y136340D01*
X595138Y132329D02*
X586158Y132329D01*
X586158Y133298D02*
X595138Y133298D01*
X595138Y134267D02*
X586158Y134267D01*
X586158Y135236D02*
X595138Y135236D01*
X595138Y136205D02*
X586158Y136205D01*
X595138Y128590D02*
X595138Y123610D01*
X586158Y123610D01*
X586158Y128590D01*
X595138Y128590D01*
X595138Y124579D02*
X586158Y124579D01*
X586158Y125548D02*
X595138Y125548D01*
X595138Y126517D02*
X586158Y126517D01*
X586158Y127486D02*
X595138Y127486D01*
X595138Y128455D02*
X586158Y128455D01*
X595138Y120090D02*
X595138Y118110D01*
X586158Y118110D01*
X586158Y120090D01*
X595138Y120090D01*
X595138Y119079D02*
X586158Y119079D01*
X586158Y120048D02*
X595138Y120048D01*
X595138Y115090D02*
X595138Y113110D01*
X586158Y113110D01*
X586158Y115090D01*
X595138Y115090D01*
X595138Y114079D02*
X586158Y114079D01*
X586158Y115048D02*
X595138Y115048D01*
X586158Y95090D02*
X586158Y93110D01*
X586158Y95090D02*
X595138Y95090D01*
X595138Y93110D01*
X586158Y93110D01*
X586158Y94079D02*
X595138Y94079D01*
X595138Y95048D02*
X586158Y95048D01*
X586158Y98110D02*
X586158Y100090D01*
X595138Y100090D01*
X595138Y98110D01*
X586158Y98110D01*
X586158Y99079D02*
X595138Y99079D01*
X595138Y100048D02*
X586158Y100048D01*
X586158Y71840D02*
X586158Y66860D01*
X586158Y71840D02*
X595138Y71840D01*
X595138Y66860D01*
X586158Y66860D01*
X586158Y67829D02*
X595138Y67829D01*
X595138Y68798D02*
X586158Y68798D01*
X586158Y69767D02*
X595138Y69767D01*
X595138Y70736D02*
X586158Y70736D01*
X586158Y71705D02*
X595138Y71705D01*
X586158Y74610D02*
X586158Y79590D01*
X595138Y79590D01*
X595138Y74610D01*
X586158Y74610D01*
X586158Y75579D02*
X595138Y75579D01*
X595138Y76548D02*
X586158Y76548D01*
X586158Y77517D02*
X595138Y77517D01*
X595138Y78486D02*
X586158Y78486D01*
X586158Y79455D02*
X595138Y79455D01*
X586158Y83110D02*
X586158Y85090D01*
X595138Y85090D01*
X595138Y83110D01*
X586158Y83110D01*
X586158Y84079D02*
X595138Y84079D01*
X595138Y85048D02*
X586158Y85048D01*
X586158Y88110D02*
X586158Y90090D01*
X595138Y90090D01*
X595138Y88110D01*
X586158Y88110D01*
X586158Y89079D02*
X595138Y89079D01*
X595138Y90048D02*
X586158Y90048D01*
D19*
X564984Y279400D03*
D20*
X611884Y322450D03*
X611884Y236350D03*
D18*
X479784Y276124D02*
X479784Y283604D01*
X487764Y283604D01*
X487764Y276124D01*
X479784Y276124D01*
X479784Y277093D02*
X487764Y277093D01*
X487764Y278062D02*
X479784Y278062D01*
X479784Y279031D02*
X487764Y279031D01*
X487764Y280000D02*
X479784Y280000D01*
X479784Y280969D02*
X487764Y280969D01*
X487764Y281938D02*
X479784Y281938D01*
X479784Y282907D02*
X487764Y282907D01*
X479784Y272004D02*
X479784Y264524D01*
X479784Y272004D02*
X487764Y272004D01*
X487764Y264524D01*
X479784Y264524D01*
X479784Y265493D02*
X487764Y265493D01*
X487764Y266462D02*
X479784Y266462D01*
X479784Y267431D02*
X487764Y267431D01*
X487764Y268400D02*
X479784Y268400D01*
X479784Y269369D02*
X487764Y269369D01*
X487764Y270338D02*
X479784Y270338D01*
X479784Y271307D02*
X487764Y271307D01*
X485476Y224810D02*
X492956Y224810D01*
X485476Y224810D02*
X485476Y232790D01*
X492956Y232790D01*
X492956Y224810D01*
X492956Y225779D02*
X485476Y225779D01*
X485476Y226748D02*
X492956Y226748D01*
X492956Y227717D02*
X485476Y227717D01*
X485476Y228686D02*
X492956Y228686D01*
X492956Y229655D02*
X485476Y229655D01*
X485476Y230624D02*
X492956Y230624D01*
X492956Y231593D02*
X485476Y231593D01*
X485476Y232562D02*
X492956Y232562D01*
X497076Y224810D02*
X504556Y224810D01*
X497076Y224810D02*
X497076Y232790D01*
X504556Y232790D01*
X504556Y224810D01*
X504556Y225779D02*
X497076Y225779D01*
X497076Y226748D02*
X504556Y226748D01*
X504556Y227717D02*
X497076Y227717D01*
X497076Y228686D02*
X504556Y228686D01*
X504556Y229655D02*
X497076Y229655D01*
X497076Y230624D02*
X504556Y230624D01*
X504556Y231593D02*
X497076Y231593D01*
X497076Y232562D02*
X504556Y232562D01*
X473880Y232690D02*
X466400Y232690D01*
X473880Y232690D02*
X473880Y224710D01*
X466400Y224710D01*
X466400Y232690D01*
X466400Y225679D02*
X473880Y225679D01*
X473880Y226648D02*
X466400Y226648D01*
X466400Y227617D02*
X473880Y227617D01*
X473880Y228586D02*
X466400Y228586D01*
X466400Y229555D02*
X473880Y229555D01*
X473880Y230524D02*
X466400Y230524D01*
X466400Y231493D02*
X473880Y231493D01*
X473880Y232462D02*
X466400Y232462D01*
X462280Y232690D02*
X454800Y232690D01*
X462280Y232690D02*
X462280Y224710D01*
X454800Y224710D01*
X454800Y232690D01*
X454800Y225679D02*
X462280Y225679D01*
X462280Y226648D02*
X454800Y226648D01*
X454800Y227617D02*
X462280Y227617D01*
X462280Y228586D02*
X454800Y228586D01*
X454800Y229555D02*
X462280Y229555D01*
X462280Y230524D02*
X454800Y230524D01*
X454800Y231493D02*
X462280Y231493D01*
X462280Y232462D02*
X454800Y232462D01*
D10*
X91114Y311112D02*
X91114Y321112D01*
X91114Y311112D02*
X82114Y311112D01*
X82114Y321112D01*
X91114Y321112D01*
X91114Y312062D02*
X82114Y312062D01*
X82114Y313012D02*
X91114Y313012D01*
X91114Y313962D02*
X82114Y313962D01*
X82114Y314912D02*
X91114Y314912D01*
X91114Y315862D02*
X82114Y315862D01*
X82114Y316812D02*
X91114Y316812D01*
X91114Y317762D02*
X82114Y317762D01*
X82114Y318712D02*
X91114Y318712D01*
X91114Y319662D02*
X82114Y319662D01*
X82114Y320612D02*
X91114Y320612D01*
X91114Y328112D02*
X91114Y338112D01*
X91114Y328112D02*
X82114Y328112D01*
X82114Y338112D01*
X91114Y338112D01*
X91114Y329062D02*
X82114Y329062D01*
X82114Y330012D02*
X91114Y330012D01*
X91114Y330962D02*
X82114Y330962D01*
X82114Y331912D02*
X91114Y331912D01*
X91114Y332862D02*
X82114Y332862D01*
X82114Y333812D02*
X91114Y333812D01*
X91114Y334762D02*
X82114Y334762D01*
X82114Y335712D02*
X91114Y335712D01*
X91114Y336662D02*
X82114Y336662D01*
X82114Y337612D02*
X91114Y337612D01*
D14*
X270075Y164987D02*
X270075Y157977D01*
X265565Y157977D01*
X265565Y164987D01*
X270075Y164987D01*
X270075Y158917D02*
X265565Y158917D01*
X265565Y159857D02*
X270075Y159857D01*
X270075Y160797D02*
X265565Y160797D01*
X265565Y161737D02*
X270075Y161737D01*
X270075Y162677D02*
X265565Y162677D01*
X265565Y163617D02*
X270075Y163617D01*
X270075Y164557D02*
X265565Y164557D01*
D10*
X270070Y167482D02*
X270070Y171482D01*
X270070Y167482D02*
X265570Y167482D01*
X265570Y171482D01*
X270070Y171482D01*
X270070Y168432D02*
X265570Y168432D01*
X265570Y169382D02*
X270070Y169382D01*
X270070Y170332D02*
X265570Y170332D01*
X265570Y171282D02*
X270070Y171282D01*
X270070Y175482D02*
X270070Y179482D01*
X270070Y175482D02*
X265570Y175482D01*
X265570Y179482D01*
X270070Y179482D01*
X270070Y176432D02*
X265570Y176432D01*
X265570Y177382D02*
X270070Y177382D01*
X270070Y178332D02*
X265570Y178332D01*
X265570Y179282D02*
X270070Y179282D01*
D14*
X270075Y181977D02*
X270075Y188987D01*
X270075Y181977D02*
X265565Y181977D01*
X265565Y188987D01*
X270075Y188987D01*
X270075Y182917D02*
X265565Y182917D01*
X265565Y183857D02*
X270075Y183857D01*
X270075Y184797D02*
X265565Y184797D01*
X265565Y185737D02*
X270075Y185737D01*
X270075Y186677D02*
X265565Y186677D01*
X265565Y187617D02*
X270075Y187617D01*
X270075Y188557D02*
X265565Y188557D01*
X257075Y188987D02*
X257075Y181977D01*
X252565Y181977D01*
X252565Y188987D01*
X257075Y188987D01*
X257075Y182917D02*
X252565Y182917D01*
X252565Y183857D02*
X257075Y183857D01*
X257075Y184797D02*
X252565Y184797D01*
X252565Y185737D02*
X257075Y185737D01*
X257075Y186677D02*
X252565Y186677D01*
X252565Y187617D02*
X257075Y187617D01*
X257075Y188557D02*
X252565Y188557D01*
D10*
X257070Y179482D02*
X257070Y175482D01*
X252570Y175482D01*
X252570Y179482D01*
X257070Y179482D01*
X257070Y176432D02*
X252570Y176432D01*
X252570Y177382D02*
X257070Y177382D01*
X257070Y178332D02*
X252570Y178332D01*
X252570Y179282D02*
X257070Y179282D01*
X257070Y171482D02*
X257070Y167482D01*
X252570Y167482D01*
X252570Y171482D01*
X257070Y171482D01*
X257070Y168432D02*
X252570Y168432D01*
X252570Y169382D02*
X257070Y169382D01*
X257070Y170332D02*
X252570Y170332D01*
X252570Y171282D02*
X257070Y171282D01*
D14*
X257075Y164987D02*
X257075Y157977D01*
X252565Y157977D01*
X252565Y164987D01*
X257075Y164987D01*
X257075Y158917D02*
X252565Y158917D01*
X252565Y159857D02*
X257075Y159857D01*
X257075Y160797D02*
X252565Y160797D01*
X252565Y161737D02*
X257075Y161737D01*
X257075Y162677D02*
X252565Y162677D01*
X252565Y163617D02*
X257075Y163617D01*
X257075Y164557D02*
X252565Y164557D01*
D10*
X292940Y338690D02*
X292940Y348690D01*
X292940Y338690D02*
X283940Y338690D01*
X283940Y348690D01*
X292940Y348690D01*
X292940Y339640D02*
X283940Y339640D01*
X283940Y340590D02*
X292940Y340590D01*
X292940Y341540D02*
X283940Y341540D01*
X283940Y342490D02*
X292940Y342490D01*
X292940Y343440D02*
X283940Y343440D01*
X283940Y344390D02*
X292940Y344390D01*
X292940Y345340D02*
X283940Y345340D01*
X283940Y346290D02*
X292940Y346290D01*
X292940Y347240D02*
X283940Y347240D01*
X283940Y348190D02*
X292940Y348190D01*
X292940Y355690D02*
X292940Y365690D01*
X292940Y355690D02*
X283940Y355690D01*
X283940Y365690D01*
X292940Y365690D01*
X292940Y356640D02*
X283940Y356640D01*
X283940Y357590D02*
X292940Y357590D01*
X292940Y358540D02*
X283940Y358540D01*
X283940Y359490D02*
X292940Y359490D01*
X292940Y360440D02*
X283940Y360440D01*
X283940Y361390D02*
X292940Y361390D01*
X292940Y362340D02*
X283940Y362340D01*
X283940Y363290D02*
X292940Y363290D01*
X292940Y364240D02*
X283940Y364240D01*
X283940Y365190D02*
X292940Y365190D01*
D18*
X274878Y133982D02*
X274878Y129002D01*
X274878Y133982D02*
X279858Y133982D01*
X279858Y129002D01*
X274878Y129002D01*
X274878Y129971D02*
X279858Y129971D01*
X279858Y130940D02*
X274878Y130940D01*
X274878Y131909D02*
X279858Y131909D01*
X279858Y132878D02*
X274878Y132878D01*
X274878Y133847D02*
X279858Y133847D01*
X274878Y123982D02*
X274878Y119002D01*
X274878Y123982D02*
X279858Y123982D01*
X279858Y119002D01*
X274878Y119002D01*
X274878Y119971D02*
X279858Y119971D01*
X279858Y120940D02*
X274878Y120940D01*
X274878Y121909D02*
X279858Y121909D01*
X279858Y122878D02*
X274878Y122878D01*
X274878Y123847D02*
X279858Y123847D01*
X104940Y284530D02*
X104940Y289510D01*
X115920Y289510D01*
X115920Y284530D01*
X104940Y284530D01*
X104940Y285499D02*
X115920Y285499D01*
X115920Y286468D02*
X104940Y286468D01*
X104940Y287437D02*
X115920Y287437D01*
X115920Y288406D02*
X104940Y288406D01*
X104940Y289375D02*
X115920Y289375D01*
X104940Y276810D02*
X104940Y271830D01*
X104940Y276810D02*
X115920Y276810D01*
X115920Y271830D01*
X104940Y271830D01*
X104940Y272799D02*
X115920Y272799D01*
X115920Y273768D02*
X104940Y273768D01*
X104940Y274737D02*
X115920Y274737D01*
X115920Y275706D02*
X104940Y275706D01*
X104940Y276675D02*
X115920Y276675D01*
X104940Y264110D02*
X104940Y259130D01*
X104940Y264110D02*
X115920Y264110D01*
X115920Y259130D01*
X104940Y259130D01*
X104940Y260099D02*
X115920Y260099D01*
X115920Y261068D02*
X104940Y261068D01*
X104940Y262037D02*
X115920Y262037D01*
X115920Y263006D02*
X104940Y263006D01*
X104940Y263975D02*
X115920Y263975D01*
X104940Y251410D02*
X104940Y246430D01*
X104940Y251410D02*
X115920Y251410D01*
X115920Y246430D01*
X104940Y246430D01*
X104940Y247399D02*
X115920Y247399D01*
X115920Y248368D02*
X104940Y248368D01*
X104940Y249337D02*
X115920Y249337D01*
X115920Y250306D02*
X104940Y250306D01*
X104940Y251275D02*
X115920Y251275D01*
X160940Y251410D02*
X160940Y246430D01*
X160940Y251410D02*
X171920Y251410D01*
X171920Y246430D01*
X160940Y246430D01*
X160940Y247399D02*
X171920Y247399D01*
X171920Y248368D02*
X160940Y248368D01*
X160940Y249337D02*
X171920Y249337D01*
X171920Y250306D02*
X160940Y250306D01*
X160940Y251275D02*
X171920Y251275D01*
X160940Y259130D02*
X160940Y264110D01*
X171920Y264110D01*
X171920Y259130D01*
X160940Y259130D01*
X160940Y260099D02*
X171920Y260099D01*
X171920Y261068D02*
X160940Y261068D01*
X160940Y262037D02*
X171920Y262037D01*
X171920Y263006D02*
X160940Y263006D01*
X160940Y263975D02*
X171920Y263975D01*
X160940Y271830D02*
X160940Y276810D01*
X171920Y276810D01*
X171920Y271830D01*
X160940Y271830D01*
X160940Y272799D02*
X171920Y272799D01*
X171920Y273768D02*
X160940Y273768D01*
X160940Y274737D02*
X171920Y274737D01*
X171920Y275706D02*
X160940Y275706D01*
X160940Y276675D02*
X171920Y276675D01*
X160940Y284530D02*
X160940Y289510D01*
X171920Y289510D01*
X171920Y284530D01*
X160940Y284530D01*
X160940Y285499D02*
X171920Y285499D01*
X171920Y286468D02*
X160940Y286468D01*
X160940Y287437D02*
X171920Y287437D01*
X171920Y288406D02*
X160940Y288406D01*
X160940Y289375D02*
X171920Y289375D01*
X524272Y271228D02*
X524272Y263748D01*
X516292Y263748D01*
X516292Y271228D01*
X524272Y271228D01*
X524272Y264717D02*
X516292Y264717D01*
X516292Y265686D02*
X524272Y265686D01*
X524272Y266655D02*
X516292Y266655D01*
X516292Y267624D02*
X524272Y267624D01*
X524272Y268593D02*
X516292Y268593D01*
X516292Y269562D02*
X524272Y269562D01*
X524272Y270531D02*
X516292Y270531D01*
X524272Y275348D02*
X524272Y282828D01*
X524272Y275348D02*
X516292Y275348D01*
X516292Y282828D01*
X524272Y282828D01*
X524272Y276317D02*
X516292Y276317D01*
X516292Y277286D02*
X524272Y277286D01*
X524272Y278255D02*
X516292Y278255D01*
X516292Y279224D02*
X524272Y279224D01*
X524272Y280193D02*
X516292Y280193D01*
X516292Y281162D02*
X524272Y281162D01*
X524272Y282131D02*
X516292Y282131D01*
D10*
X549220Y158280D02*
X549220Y148280D01*
X549220Y158280D02*
X558220Y158280D01*
X558220Y148280D01*
X549220Y148280D01*
X549220Y149230D02*
X558220Y149230D01*
X558220Y150180D02*
X549220Y150180D01*
X549220Y151130D02*
X558220Y151130D01*
X558220Y152080D02*
X549220Y152080D01*
X549220Y153030D02*
X558220Y153030D01*
X558220Y153980D02*
X549220Y153980D01*
X549220Y154930D02*
X558220Y154930D01*
X558220Y155880D02*
X549220Y155880D01*
X549220Y156830D02*
X558220Y156830D01*
X558220Y157780D02*
X549220Y157780D01*
X549220Y141280D02*
X549220Y131280D01*
X549220Y141280D02*
X558220Y141280D01*
X558220Y131280D01*
X549220Y131280D01*
X549220Y132230D02*
X558220Y132230D01*
X558220Y133180D02*
X549220Y133180D01*
X549220Y134130D02*
X558220Y134130D01*
X558220Y135080D02*
X549220Y135080D01*
X549220Y136030D02*
X558220Y136030D01*
X558220Y136980D02*
X549220Y136980D01*
X549220Y137930D02*
X558220Y137930D01*
X558220Y138880D02*
X549220Y138880D01*
X549220Y139830D02*
X558220Y139830D01*
X558220Y140780D02*
X549220Y140780D01*
X559490Y61270D02*
X559490Y51270D01*
X550490Y51270D01*
X550490Y61270D01*
X559490Y61270D01*
X559490Y52220D02*
X550490Y52220D01*
X550490Y53170D02*
X559490Y53170D01*
X559490Y54120D02*
X550490Y54120D01*
X550490Y55070D02*
X559490Y55070D01*
X559490Y56020D02*
X550490Y56020D01*
X550490Y56970D02*
X559490Y56970D01*
X559490Y57920D02*
X550490Y57920D01*
X550490Y58870D02*
X559490Y58870D01*
X559490Y59820D02*
X550490Y59820D01*
X550490Y60770D02*
X559490Y60770D01*
X559490Y68270D02*
X559490Y78270D01*
X559490Y68270D02*
X550490Y68270D01*
X550490Y78270D01*
X559490Y78270D01*
X559490Y69220D02*
X550490Y69220D01*
X550490Y70170D02*
X559490Y70170D01*
X559490Y71120D02*
X550490Y71120D01*
X550490Y72070D02*
X559490Y72070D01*
X559490Y73020D02*
X550490Y73020D01*
X550490Y73970D02*
X559490Y73970D01*
X559490Y74920D02*
X550490Y74920D01*
X550490Y75870D02*
X559490Y75870D01*
X559490Y76820D02*
X550490Y76820D01*
X550490Y77770D02*
X559490Y77770D01*
D18*
X171920Y139750D02*
X171920Y144730D01*
X171920Y139750D02*
X160940Y139750D01*
X160940Y144730D01*
X171920Y144730D01*
X171920Y140719D02*
X160940Y140719D01*
X160940Y141688D02*
X171920Y141688D01*
X171920Y142657D02*
X160940Y142657D01*
X160940Y143626D02*
X171920Y143626D01*
X171920Y144595D02*
X160940Y144595D01*
X171920Y152450D02*
X171920Y157430D01*
X171920Y152450D02*
X160940Y152450D01*
X160940Y157430D01*
X171920Y157430D01*
X171920Y153419D02*
X160940Y153419D01*
X160940Y154388D02*
X171920Y154388D01*
X171920Y155357D02*
X160940Y155357D01*
X160940Y156326D02*
X171920Y156326D01*
X171920Y157295D02*
X160940Y157295D01*
X171920Y165150D02*
X171920Y170130D01*
X171920Y165150D02*
X160940Y165150D01*
X160940Y170130D01*
X171920Y170130D01*
X171920Y166119D02*
X160940Y166119D01*
X160940Y167088D02*
X171920Y167088D01*
X171920Y168057D02*
X160940Y168057D01*
X160940Y169026D02*
X171920Y169026D01*
X171920Y169995D02*
X160940Y169995D01*
X171920Y177850D02*
X171920Y182830D01*
X171920Y177850D02*
X160940Y177850D01*
X160940Y182830D01*
X171920Y182830D01*
X171920Y178819D02*
X160940Y178819D01*
X160940Y179788D02*
X171920Y179788D01*
X171920Y180757D02*
X160940Y180757D01*
X160940Y181726D02*
X171920Y181726D01*
X171920Y182695D02*
X160940Y182695D01*
X171920Y190550D02*
X171920Y195530D01*
X171920Y190550D02*
X160940Y190550D01*
X160940Y195530D01*
X171920Y195530D01*
X171920Y191519D02*
X160940Y191519D01*
X160940Y192488D02*
X171920Y192488D01*
X171920Y193457D02*
X160940Y193457D01*
X160940Y194426D02*
X171920Y194426D01*
X171920Y195395D02*
X160940Y195395D01*
X171920Y203250D02*
X171920Y208230D01*
X171920Y203250D02*
X160940Y203250D01*
X160940Y208230D01*
X171920Y208230D01*
X171920Y204219D02*
X160940Y204219D01*
X160940Y205188D02*
X171920Y205188D01*
X171920Y206157D02*
X160940Y206157D01*
X160940Y207126D02*
X171920Y207126D01*
X171920Y208095D02*
X160940Y208095D01*
X171920Y215950D02*
X171920Y220930D01*
X171920Y215950D02*
X160940Y215950D01*
X160940Y220930D01*
X171920Y220930D01*
X171920Y216919D02*
X160940Y216919D01*
X160940Y217888D02*
X171920Y217888D01*
X171920Y218857D02*
X160940Y218857D01*
X160940Y219826D02*
X171920Y219826D01*
X171920Y220795D02*
X160940Y220795D01*
X115920Y220930D02*
X115920Y215950D01*
X104940Y215950D01*
X104940Y220930D01*
X115920Y220930D01*
X115920Y216919D02*
X104940Y216919D01*
X104940Y217888D02*
X115920Y217888D01*
X115920Y218857D02*
X104940Y218857D01*
X104940Y219826D02*
X115920Y219826D01*
X115920Y220795D02*
X104940Y220795D01*
X115920Y208230D02*
X115920Y203250D01*
X104940Y203250D01*
X104940Y208230D01*
X115920Y208230D01*
X115920Y204219D02*
X104940Y204219D01*
X104940Y205188D02*
X115920Y205188D01*
X115920Y206157D02*
X104940Y206157D01*
X104940Y207126D02*
X115920Y207126D01*
X115920Y208095D02*
X104940Y208095D01*
X115920Y195530D02*
X115920Y190550D01*
X104940Y190550D01*
X104940Y195530D01*
X115920Y195530D01*
X115920Y191519D02*
X104940Y191519D01*
X104940Y192488D02*
X115920Y192488D01*
X115920Y193457D02*
X104940Y193457D01*
X104940Y194426D02*
X115920Y194426D01*
X115920Y195395D02*
X104940Y195395D01*
X115920Y182830D02*
X115920Y177850D01*
X104940Y177850D01*
X104940Y182830D01*
X115920Y182830D01*
X115920Y178819D02*
X104940Y178819D01*
X104940Y179788D02*
X115920Y179788D01*
X115920Y180757D02*
X104940Y180757D01*
X104940Y181726D02*
X115920Y181726D01*
X115920Y182695D02*
X104940Y182695D01*
X115920Y170130D02*
X115920Y165150D01*
X104940Y165150D01*
X104940Y170130D01*
X115920Y170130D01*
X115920Y166119D02*
X104940Y166119D01*
X104940Y167088D02*
X115920Y167088D01*
X115920Y168057D02*
X104940Y168057D01*
X104940Y169026D02*
X115920Y169026D01*
X115920Y169995D02*
X104940Y169995D01*
X115920Y157430D02*
X115920Y152450D01*
X104940Y152450D01*
X104940Y157430D01*
X115920Y157430D01*
X115920Y153419D02*
X104940Y153419D01*
X104940Y154388D02*
X115920Y154388D01*
X115920Y155357D02*
X104940Y155357D01*
X104940Y156326D02*
X115920Y156326D01*
X115920Y157295D02*
X104940Y157295D01*
X115920Y144730D02*
X115920Y139750D01*
X104940Y139750D01*
X104940Y144730D01*
X115920Y144730D01*
X115920Y140719D02*
X104940Y140719D01*
X104940Y141688D02*
X115920Y141688D01*
X115920Y142657D02*
X104940Y142657D01*
X104940Y143626D02*
X115920Y143626D01*
X115920Y144595D02*
X104940Y144595D01*
X171920Y38050D02*
X171920Y33070D01*
X160940Y33070D01*
X160940Y38050D01*
X171920Y38050D01*
X171920Y34039D02*
X160940Y34039D01*
X160940Y35008D02*
X171920Y35008D01*
X171920Y35977D02*
X160940Y35977D01*
X160940Y36946D02*
X171920Y36946D01*
X171920Y37915D02*
X160940Y37915D01*
X171920Y45770D02*
X171920Y50750D01*
X171920Y45770D02*
X160940Y45770D01*
X160940Y50750D01*
X171920Y50750D01*
X171920Y46739D02*
X160940Y46739D01*
X160940Y47708D02*
X171920Y47708D01*
X171920Y48677D02*
X160940Y48677D01*
X160940Y49646D02*
X171920Y49646D01*
X171920Y50615D02*
X160940Y50615D01*
X171920Y58470D02*
X171920Y63450D01*
X171920Y58470D02*
X160940Y58470D01*
X160940Y63450D01*
X171920Y63450D01*
X171920Y59439D02*
X160940Y59439D01*
X160940Y60408D02*
X171920Y60408D01*
X171920Y61377D02*
X160940Y61377D01*
X160940Y62346D02*
X171920Y62346D01*
X171920Y63315D02*
X160940Y63315D01*
X171920Y71170D02*
X171920Y76150D01*
X171920Y71170D02*
X160940Y71170D01*
X160940Y76150D01*
X171920Y76150D01*
X171920Y72139D02*
X160940Y72139D01*
X160940Y73108D02*
X171920Y73108D01*
X171920Y74077D02*
X160940Y74077D01*
X160940Y75046D02*
X171920Y75046D01*
X171920Y76015D02*
X160940Y76015D01*
X171920Y83870D02*
X171920Y88850D01*
X171920Y83870D02*
X160940Y83870D01*
X160940Y88850D01*
X171920Y88850D01*
X171920Y84839D02*
X160940Y84839D01*
X160940Y85808D02*
X171920Y85808D01*
X171920Y86777D02*
X160940Y86777D01*
X160940Y87746D02*
X171920Y87746D01*
X171920Y88715D02*
X160940Y88715D01*
X171920Y96570D02*
X171920Y101550D01*
X171920Y96570D02*
X160940Y96570D01*
X160940Y101550D01*
X171920Y101550D01*
X171920Y97539D02*
X160940Y97539D01*
X160940Y98508D02*
X171920Y98508D01*
X171920Y99477D02*
X160940Y99477D01*
X160940Y100446D02*
X171920Y100446D01*
X171920Y101415D02*
X160940Y101415D01*
X171920Y109270D02*
X171920Y114250D01*
X171920Y109270D02*
X160940Y109270D01*
X160940Y114250D01*
X171920Y114250D01*
X171920Y110239D02*
X160940Y110239D01*
X160940Y111208D02*
X171920Y111208D01*
X171920Y112177D02*
X160940Y112177D01*
X160940Y113146D02*
X171920Y113146D01*
X171920Y114115D02*
X160940Y114115D01*
X115920Y114250D02*
X115920Y109270D01*
X104940Y109270D01*
X104940Y114250D01*
X115920Y114250D01*
X115920Y110239D02*
X104940Y110239D01*
X104940Y111208D02*
X115920Y111208D01*
X115920Y112177D02*
X104940Y112177D01*
X104940Y113146D02*
X115920Y113146D01*
X115920Y114115D02*
X104940Y114115D01*
X115920Y101550D02*
X115920Y96570D01*
X104940Y96570D01*
X104940Y101550D01*
X115920Y101550D01*
X115920Y97539D02*
X104940Y97539D01*
X104940Y98508D02*
X115920Y98508D01*
X115920Y99477D02*
X104940Y99477D01*
X104940Y100446D02*
X115920Y100446D01*
X115920Y101415D02*
X104940Y101415D01*
X115920Y88850D02*
X115920Y83870D01*
X104940Y83870D01*
X104940Y88850D01*
X115920Y88850D01*
X115920Y84839D02*
X104940Y84839D01*
X104940Y85808D02*
X115920Y85808D01*
X115920Y86777D02*
X104940Y86777D01*
X104940Y87746D02*
X115920Y87746D01*
X115920Y88715D02*
X104940Y88715D01*
X115920Y76150D02*
X115920Y71170D01*
X104940Y71170D01*
X104940Y76150D01*
X115920Y76150D01*
X115920Y72139D02*
X104940Y72139D01*
X104940Y73108D02*
X115920Y73108D01*
X115920Y74077D02*
X104940Y74077D01*
X104940Y75046D02*
X115920Y75046D01*
X115920Y76015D02*
X104940Y76015D01*
X115920Y63450D02*
X115920Y58470D01*
X104940Y58470D01*
X104940Y63450D01*
X115920Y63450D01*
X115920Y59439D02*
X104940Y59439D01*
X104940Y60408D02*
X115920Y60408D01*
X115920Y61377D02*
X104940Y61377D01*
X104940Y62346D02*
X115920Y62346D01*
X115920Y63315D02*
X104940Y63315D01*
X115920Y50750D02*
X115920Y45770D01*
X104940Y45770D01*
X104940Y50750D01*
X115920Y50750D01*
X115920Y46739D02*
X104940Y46739D01*
X104940Y47708D02*
X115920Y47708D01*
X115920Y48677D02*
X104940Y48677D01*
X104940Y49646D02*
X115920Y49646D01*
X115920Y50615D02*
X104940Y50615D01*
X115920Y38050D02*
X115920Y33070D01*
X104940Y33070D01*
X104940Y38050D01*
X115920Y38050D01*
X115920Y34039D02*
X104940Y34039D01*
X104940Y35008D02*
X115920Y35008D01*
X115920Y35977D02*
X104940Y35977D01*
X104940Y36946D02*
X115920Y36946D01*
X115920Y37915D02*
X104940Y37915D01*
D13*
X361704Y70696D02*
X364896Y70696D01*
X364896Y64704D01*
X361704Y64704D01*
X361704Y70696D01*
X361704Y65662D02*
X364896Y65662D01*
X364896Y66620D02*
X361704Y66620D01*
X361704Y67578D02*
X364896Y67578D01*
X364896Y68536D02*
X361704Y68536D01*
X361704Y69494D02*
X364896Y69494D01*
X364896Y70452D02*
X361704Y70452D01*
X351896Y70696D02*
X348704Y70696D01*
X351896Y70696D02*
X351896Y64704D01*
X348704Y64704D01*
X348704Y70696D01*
X348704Y65662D02*
X351896Y65662D01*
X351896Y66620D02*
X348704Y66620D01*
X348704Y67578D02*
X351896Y67578D01*
X351896Y68536D02*
X348704Y68536D01*
X348704Y69494D02*
X351896Y69494D01*
X351896Y70452D02*
X348704Y70452D01*
X361704Y89696D02*
X364896Y89696D01*
X364896Y83704D01*
X361704Y83704D01*
X361704Y89696D01*
X361704Y84662D02*
X364896Y84662D01*
X364896Y85620D02*
X361704Y85620D01*
X361704Y86578D02*
X364896Y86578D01*
X364896Y87536D02*
X361704Y87536D01*
X361704Y88494D02*
X364896Y88494D01*
X364896Y89452D02*
X361704Y89452D01*
X351896Y89696D02*
X348704Y89696D01*
X351896Y89696D02*
X351896Y83704D01*
X348704Y83704D01*
X348704Y89696D01*
X348704Y84662D02*
X351896Y84662D01*
X351896Y85620D02*
X348704Y85620D01*
X348704Y86578D02*
X351896Y86578D01*
X351896Y87536D02*
X348704Y87536D01*
X348704Y88494D02*
X351896Y88494D01*
X351896Y89452D02*
X348704Y89452D01*
X355204Y89696D02*
X358396Y89696D01*
X358396Y83704D01*
X355204Y83704D01*
X355204Y89696D01*
X355204Y84662D02*
X358396Y84662D01*
X358396Y85620D02*
X355204Y85620D01*
X355204Y86578D02*
X358396Y86578D01*
X358396Y87536D02*
X355204Y87536D01*
X355204Y88494D02*
X358396Y88494D01*
X358396Y89452D02*
X355204Y89452D01*
D10*
X272300Y338500D02*
X272300Y348500D01*
X272300Y338500D02*
X263300Y338500D01*
X263300Y348500D01*
X272300Y348500D01*
X272300Y339450D02*
X263300Y339450D01*
X263300Y340400D02*
X272300Y340400D01*
X272300Y341350D02*
X263300Y341350D01*
X263300Y342300D02*
X272300Y342300D01*
X272300Y343250D02*
X263300Y343250D01*
X263300Y344200D02*
X272300Y344200D01*
X272300Y345150D02*
X263300Y345150D01*
X263300Y346100D02*
X272300Y346100D01*
X272300Y347050D02*
X263300Y347050D01*
X263300Y348000D02*
X272300Y348000D01*
X272300Y355500D02*
X272300Y365500D01*
X272300Y355500D02*
X263300Y355500D01*
X263300Y365500D01*
X272300Y365500D01*
X272300Y356450D02*
X263300Y356450D01*
X263300Y357400D02*
X272300Y357400D01*
X272300Y358350D02*
X263300Y358350D01*
X263300Y359300D02*
X272300Y359300D01*
X272300Y360250D02*
X263300Y360250D01*
X263300Y361200D02*
X272300Y361200D01*
X272300Y362150D02*
X263300Y362150D01*
X263300Y363100D02*
X272300Y363100D01*
X272300Y364050D02*
X263300Y364050D01*
X263300Y365000D02*
X272300Y365000D01*
X93400Y148900D02*
X93400Y138900D01*
X84400Y138900D01*
X84400Y148900D01*
X93400Y148900D01*
X93400Y139850D02*
X84400Y139850D01*
X84400Y140800D02*
X93400Y140800D01*
X93400Y141750D02*
X84400Y141750D01*
X84400Y142700D02*
X93400Y142700D01*
X93400Y143650D02*
X84400Y143650D01*
X84400Y144600D02*
X93400Y144600D01*
X93400Y145550D02*
X84400Y145550D01*
X84400Y146500D02*
X93400Y146500D01*
X93400Y147450D02*
X84400Y147450D01*
X84400Y148400D02*
X93400Y148400D01*
X93400Y155900D02*
X93400Y165900D01*
X93400Y155900D02*
X84400Y155900D01*
X84400Y165900D01*
X93400Y165900D01*
X93400Y156850D02*
X84400Y156850D01*
X84400Y157800D02*
X93400Y157800D01*
X93400Y158750D02*
X84400Y158750D01*
X84400Y159700D02*
X93400Y159700D01*
X93400Y160650D02*
X84400Y160650D01*
X84400Y161600D02*
X93400Y161600D01*
X93400Y162550D02*
X84400Y162550D01*
X84400Y163500D02*
X93400Y163500D01*
X93400Y164450D02*
X84400Y164450D01*
X84400Y165400D02*
X93400Y165400D01*
X95940Y43490D02*
X95940Y33490D01*
X86940Y33490D01*
X86940Y43490D01*
X95940Y43490D01*
X95940Y34440D02*
X86940Y34440D01*
X86940Y35390D02*
X95940Y35390D01*
X95940Y36340D02*
X86940Y36340D01*
X86940Y37290D02*
X95940Y37290D01*
X95940Y38240D02*
X86940Y38240D01*
X86940Y39190D02*
X95940Y39190D01*
X95940Y40140D02*
X86940Y40140D01*
X86940Y41090D02*
X95940Y41090D01*
X95940Y42040D02*
X86940Y42040D01*
X86940Y42990D02*
X95940Y42990D01*
X95940Y50490D02*
X95940Y60490D01*
X95940Y50490D02*
X86940Y50490D01*
X86940Y60490D01*
X95940Y60490D01*
X95940Y51440D02*
X86940Y51440D01*
X86940Y52390D02*
X95940Y52390D01*
X95940Y53340D02*
X86940Y53340D01*
X86940Y54290D02*
X95940Y54290D01*
X95940Y55240D02*
X86940Y55240D01*
X86940Y56190D02*
X95940Y56190D01*
X95940Y57140D02*
X86940Y57140D01*
X86940Y58090D02*
X95940Y58090D01*
X95940Y59040D02*
X86940Y59040D01*
X86940Y59990D02*
X95940Y59990D01*
M02*
