G04 EAGLE Gerber RS-274X export*
G75*
%MOMM*%
%FSLAX34Y34*%
%LPD*%
%INSoldermask Bottom*%
%IPPOS*%
%AMOC8*
5,1,8,0,0,1.08239X$1,22.5*%
G01*
%ADD10C,0.228344*%
%ADD11C,0.777000*%
%ADD12C,0.227778*%
%ADD13C,1.143000*%
%ADD14C,1.127000*%
%ADD15C,0.228959*%
%ADD16C,0.736600*%
%ADD17C,2.006600*%
%ADD18C,0.228600*%
%ADD19C,1.270000*%
%ADD20C,1.627000*%

G36*
X775575Y412531D02*
X775575Y412531D01*
X775585Y412535D01*
X775611Y412536D01*
X779445Y413370D01*
X779453Y413375D01*
X779479Y413380D01*
X783155Y414752D01*
X783163Y414757D01*
X783187Y414766D01*
X786631Y416647D01*
X786638Y416654D01*
X786661Y416666D01*
X789802Y419017D01*
X789808Y419025D01*
X789829Y419041D01*
X792603Y421815D01*
X792608Y421824D01*
X792627Y421842D01*
X794978Y424983D01*
X794981Y424992D01*
X794997Y425013D01*
X796878Y428457D01*
X796880Y428466D01*
X796892Y428489D01*
X798264Y432165D01*
X798264Y432175D01*
X798274Y432199D01*
X799108Y436033D01*
X799107Y436043D01*
X799113Y436069D01*
X799393Y439982D01*
X799391Y439992D01*
X799393Y440018D01*
X799113Y443931D01*
X799111Y443936D01*
X799112Y443939D01*
X799109Y443945D01*
X799108Y443967D01*
X798274Y447801D01*
X798269Y447809D01*
X798264Y447835D01*
X796892Y451511D01*
X796887Y451519D01*
X796878Y451543D01*
X794997Y454987D01*
X794990Y454994D01*
X794978Y455017D01*
X792627Y458158D01*
X792619Y458164D01*
X792603Y458185D01*
X789829Y460959D01*
X789820Y460964D01*
X789802Y460983D01*
X786661Y463334D01*
X786652Y463337D01*
X786631Y463353D01*
X783187Y465234D01*
X783178Y465236D01*
X783155Y465248D01*
X779479Y466620D01*
X779469Y466620D01*
X779445Y466630D01*
X775611Y467464D01*
X775601Y467463D01*
X775575Y467469D01*
X771662Y467749D01*
X771636Y467743D01*
X771611Y467747D01*
X771569Y467729D01*
X771525Y467719D01*
X771507Y467701D01*
X771483Y467690D01*
X771458Y467652D01*
X771426Y467621D01*
X771420Y467595D01*
X771406Y467574D01*
X771395Y467500D01*
X771395Y457500D01*
X771397Y457493D01*
X771395Y457486D01*
X771416Y457427D01*
X771434Y457366D01*
X771439Y457361D01*
X771442Y457354D01*
X771492Y457316D01*
X771539Y457274D01*
X771546Y457273D01*
X771552Y457268D01*
X771624Y457252D01*
X774342Y457038D01*
X776975Y456406D01*
X779475Y455370D01*
X781783Y453956D01*
X783842Y452198D01*
X785600Y450139D01*
X787014Y447831D01*
X788050Y445331D01*
X788682Y442698D01*
X788894Y440000D01*
X788682Y437302D01*
X788050Y434669D01*
X787014Y432169D01*
X785600Y429861D01*
X783842Y427802D01*
X781783Y426044D01*
X779475Y424630D01*
X776975Y423594D01*
X774342Y422962D01*
X771624Y422748D01*
X771618Y422746D01*
X771611Y422747D01*
X771553Y422721D01*
X771494Y422699D01*
X771489Y422693D01*
X771483Y422690D01*
X771448Y422637D01*
X771410Y422587D01*
X771410Y422580D01*
X771406Y422574D01*
X771395Y422500D01*
X771395Y412500D01*
X771402Y412475D01*
X771400Y412449D01*
X771421Y412409D01*
X771434Y412366D01*
X771454Y412349D01*
X771466Y412326D01*
X771505Y412304D01*
X771539Y412274D01*
X771565Y412270D01*
X771588Y412257D01*
X771662Y412251D01*
X775575Y412531D01*
G37*
G36*
X4431Y412531D02*
X4431Y412531D01*
X4441Y412535D01*
X4467Y412536D01*
X8301Y413370D01*
X8309Y413375D01*
X8335Y413380D01*
X12011Y414752D01*
X12019Y414757D01*
X12043Y414766D01*
X15487Y416647D01*
X15494Y416654D01*
X15517Y416666D01*
X18658Y419017D01*
X18664Y419025D01*
X18685Y419041D01*
X21459Y421815D01*
X21464Y421824D01*
X21483Y421842D01*
X23834Y424983D01*
X23837Y424992D01*
X23853Y425013D01*
X25734Y428457D01*
X25736Y428466D01*
X25748Y428489D01*
X27120Y432165D01*
X27120Y432175D01*
X27130Y432199D01*
X27964Y436033D01*
X27963Y436043D01*
X27969Y436069D01*
X28249Y439982D01*
X28247Y439992D01*
X28249Y440018D01*
X27969Y443931D01*
X27967Y443936D01*
X27968Y443939D01*
X27965Y443945D01*
X27964Y443967D01*
X27130Y447801D01*
X27125Y447809D01*
X27120Y447835D01*
X25748Y451511D01*
X25743Y451519D01*
X25734Y451543D01*
X23853Y454987D01*
X23846Y454994D01*
X23834Y455017D01*
X21483Y458158D01*
X21475Y458164D01*
X21459Y458185D01*
X18685Y460959D01*
X18676Y460964D01*
X18658Y460983D01*
X15517Y463334D01*
X15508Y463337D01*
X15487Y463353D01*
X12043Y465234D01*
X12034Y465236D01*
X12011Y465248D01*
X8335Y466620D01*
X8325Y466620D01*
X8301Y466630D01*
X4467Y467464D01*
X4457Y467463D01*
X4431Y467469D01*
X518Y467749D01*
X492Y467743D01*
X467Y467747D01*
X425Y467729D01*
X381Y467719D01*
X363Y467701D01*
X339Y467690D01*
X314Y467652D01*
X282Y467621D01*
X276Y467595D01*
X262Y467574D01*
X251Y467500D01*
X251Y457500D01*
X253Y457493D01*
X251Y457486D01*
X272Y457427D01*
X290Y457366D01*
X295Y457361D01*
X298Y457354D01*
X348Y457316D01*
X395Y457274D01*
X402Y457273D01*
X408Y457268D01*
X480Y457252D01*
X3198Y457038D01*
X5831Y456406D01*
X8331Y455370D01*
X10639Y453956D01*
X12698Y452198D01*
X14456Y450139D01*
X15870Y447831D01*
X16906Y445331D01*
X17538Y442698D01*
X17750Y440000D01*
X17538Y437302D01*
X16906Y434669D01*
X15870Y432169D01*
X14456Y429861D01*
X12698Y427802D01*
X10639Y426044D01*
X8331Y424630D01*
X5831Y423594D01*
X3198Y422962D01*
X480Y422748D01*
X474Y422746D01*
X467Y422747D01*
X409Y422721D01*
X350Y422699D01*
X345Y422693D01*
X339Y422690D01*
X304Y422637D01*
X266Y422587D01*
X266Y422580D01*
X262Y422574D01*
X251Y422500D01*
X251Y412500D01*
X258Y412475D01*
X256Y412449D01*
X277Y412409D01*
X290Y412366D01*
X310Y412349D01*
X322Y412326D01*
X361Y412304D01*
X395Y412274D01*
X421Y412270D01*
X444Y412257D01*
X518Y412251D01*
X4431Y412531D01*
G37*
G36*
X390003Y412531D02*
X390003Y412531D01*
X390013Y412535D01*
X390039Y412536D01*
X393873Y413370D01*
X393881Y413375D01*
X393907Y413380D01*
X397583Y414752D01*
X397591Y414757D01*
X397615Y414766D01*
X401059Y416647D01*
X401066Y416654D01*
X401089Y416666D01*
X404230Y419017D01*
X404236Y419025D01*
X404257Y419041D01*
X407031Y421815D01*
X407036Y421824D01*
X407055Y421842D01*
X409406Y424983D01*
X409409Y424992D01*
X409425Y425013D01*
X411306Y428457D01*
X411308Y428466D01*
X411320Y428489D01*
X412692Y432165D01*
X412692Y432175D01*
X412702Y432199D01*
X413536Y436033D01*
X413535Y436043D01*
X413541Y436069D01*
X413821Y439982D01*
X413819Y439992D01*
X413821Y440018D01*
X413541Y443931D01*
X413539Y443936D01*
X413540Y443939D01*
X413537Y443945D01*
X413536Y443967D01*
X412702Y447801D01*
X412697Y447809D01*
X412692Y447835D01*
X411320Y451511D01*
X411315Y451519D01*
X411306Y451543D01*
X409425Y454987D01*
X409418Y454994D01*
X409406Y455017D01*
X407055Y458158D01*
X407047Y458164D01*
X407031Y458185D01*
X404257Y460959D01*
X404248Y460964D01*
X404230Y460983D01*
X401089Y463334D01*
X401080Y463337D01*
X401059Y463353D01*
X397615Y465234D01*
X397606Y465236D01*
X397583Y465248D01*
X393907Y466620D01*
X393897Y466620D01*
X393873Y466630D01*
X390039Y467464D01*
X390029Y467463D01*
X390003Y467469D01*
X386090Y467749D01*
X386064Y467743D01*
X386039Y467747D01*
X385997Y467729D01*
X385953Y467719D01*
X385935Y467701D01*
X385911Y467690D01*
X385886Y467652D01*
X385854Y467621D01*
X385848Y467595D01*
X385834Y467574D01*
X385823Y467500D01*
X385823Y457500D01*
X385825Y457493D01*
X385823Y457486D01*
X385844Y457427D01*
X385862Y457366D01*
X385867Y457361D01*
X385870Y457354D01*
X385920Y457316D01*
X385967Y457274D01*
X385974Y457273D01*
X385980Y457268D01*
X386052Y457252D01*
X388770Y457038D01*
X391403Y456406D01*
X393903Y455370D01*
X396211Y453956D01*
X398270Y452198D01*
X400028Y450139D01*
X401442Y447831D01*
X402478Y445331D01*
X403110Y442698D01*
X403322Y440000D01*
X403110Y437302D01*
X402478Y434669D01*
X401442Y432169D01*
X400028Y429861D01*
X398270Y427802D01*
X396211Y426044D01*
X393903Y424630D01*
X391403Y423594D01*
X388770Y422962D01*
X386052Y422748D01*
X386046Y422746D01*
X386039Y422747D01*
X385981Y422721D01*
X385922Y422699D01*
X385917Y422693D01*
X385911Y422690D01*
X385876Y422637D01*
X385838Y422587D01*
X385838Y422580D01*
X385834Y422574D01*
X385823Y422500D01*
X385823Y412500D01*
X385830Y412475D01*
X385828Y412449D01*
X385849Y412409D01*
X385862Y412366D01*
X385882Y412349D01*
X385894Y412326D01*
X385933Y412304D01*
X385967Y412274D01*
X385993Y412270D01*
X386016Y412257D01*
X386090Y412251D01*
X390003Y412531D01*
G37*
G36*
X389495Y894987D02*
X389495Y894987D01*
X389505Y894991D01*
X389531Y894992D01*
X393365Y895826D01*
X393373Y895831D01*
X393399Y895836D01*
X397075Y897208D01*
X397083Y897213D01*
X397107Y897222D01*
X400551Y899103D01*
X400558Y899110D01*
X400581Y899122D01*
X403722Y901473D01*
X403728Y901481D01*
X403749Y901497D01*
X406523Y904271D01*
X406528Y904280D01*
X406547Y904298D01*
X408898Y907439D01*
X408901Y907448D01*
X408917Y907469D01*
X410798Y910913D01*
X410800Y910922D01*
X410812Y910945D01*
X412184Y914621D01*
X412184Y914631D01*
X412194Y914655D01*
X413028Y918489D01*
X413027Y918499D01*
X413033Y918525D01*
X413313Y922438D01*
X413311Y922448D01*
X413313Y922474D01*
X413033Y926387D01*
X413031Y926392D01*
X413032Y926395D01*
X413029Y926401D01*
X413028Y926423D01*
X412194Y930257D01*
X412189Y930265D01*
X412184Y930291D01*
X410812Y933967D01*
X410807Y933975D01*
X410798Y933999D01*
X408917Y937443D01*
X408910Y937450D01*
X408898Y937473D01*
X406547Y940614D01*
X406539Y940620D01*
X406523Y940641D01*
X403749Y943415D01*
X403740Y943420D01*
X403722Y943439D01*
X400581Y945790D01*
X400572Y945793D01*
X400551Y945809D01*
X397107Y947690D01*
X397098Y947692D01*
X397075Y947704D01*
X393399Y949076D01*
X393389Y949076D01*
X393365Y949086D01*
X389531Y949920D01*
X389521Y949919D01*
X389495Y949925D01*
X385582Y950205D01*
X385556Y950199D01*
X385531Y950203D01*
X385489Y950185D01*
X385445Y950175D01*
X385427Y950157D01*
X385403Y950146D01*
X385378Y950108D01*
X385346Y950077D01*
X385340Y950051D01*
X385326Y950030D01*
X385315Y949956D01*
X385315Y939956D01*
X385317Y939949D01*
X385315Y939942D01*
X385336Y939883D01*
X385354Y939822D01*
X385359Y939817D01*
X385362Y939810D01*
X385412Y939772D01*
X385459Y939730D01*
X385466Y939729D01*
X385472Y939724D01*
X385544Y939708D01*
X388262Y939494D01*
X390895Y938862D01*
X393395Y937826D01*
X395703Y936412D01*
X397762Y934654D01*
X399520Y932595D01*
X400934Y930287D01*
X401970Y927787D01*
X402602Y925154D01*
X402814Y922456D01*
X402602Y919758D01*
X401970Y917125D01*
X400934Y914625D01*
X399520Y912317D01*
X397762Y910258D01*
X395703Y908500D01*
X393395Y907086D01*
X390895Y906050D01*
X388262Y905418D01*
X385544Y905204D01*
X385538Y905202D01*
X385531Y905203D01*
X385473Y905177D01*
X385414Y905155D01*
X385409Y905149D01*
X385403Y905146D01*
X385368Y905093D01*
X385330Y905043D01*
X385330Y905036D01*
X385326Y905030D01*
X385315Y904956D01*
X385315Y894956D01*
X385322Y894931D01*
X385320Y894905D01*
X385341Y894865D01*
X385354Y894822D01*
X385374Y894805D01*
X385386Y894782D01*
X385425Y894760D01*
X385459Y894730D01*
X385485Y894726D01*
X385508Y894713D01*
X385582Y894707D01*
X389495Y894987D01*
G37*
G36*
X775067Y894987D02*
X775067Y894987D01*
X775077Y894991D01*
X775103Y894992D01*
X778937Y895826D01*
X778945Y895831D01*
X778971Y895836D01*
X782647Y897208D01*
X782655Y897213D01*
X782679Y897222D01*
X786123Y899103D01*
X786130Y899110D01*
X786153Y899122D01*
X789294Y901473D01*
X789300Y901481D01*
X789321Y901497D01*
X792095Y904271D01*
X792100Y904280D01*
X792119Y904298D01*
X794470Y907439D01*
X794473Y907448D01*
X794489Y907469D01*
X796370Y910913D01*
X796372Y910922D01*
X796384Y910945D01*
X797756Y914621D01*
X797756Y914631D01*
X797766Y914655D01*
X798600Y918489D01*
X798599Y918499D01*
X798605Y918525D01*
X798885Y922438D01*
X798883Y922448D01*
X798885Y922474D01*
X798605Y926387D01*
X798603Y926392D01*
X798604Y926395D01*
X798601Y926401D01*
X798600Y926423D01*
X797766Y930257D01*
X797761Y930265D01*
X797756Y930291D01*
X796384Y933967D01*
X796379Y933975D01*
X796370Y933999D01*
X794489Y937443D01*
X794482Y937450D01*
X794470Y937473D01*
X792119Y940614D01*
X792111Y940620D01*
X792095Y940641D01*
X789321Y943415D01*
X789312Y943420D01*
X789294Y943439D01*
X786153Y945790D01*
X786144Y945793D01*
X786123Y945809D01*
X782679Y947690D01*
X782670Y947692D01*
X782647Y947704D01*
X778971Y949076D01*
X778961Y949076D01*
X778937Y949086D01*
X775103Y949920D01*
X775093Y949919D01*
X775067Y949925D01*
X771154Y950205D01*
X771128Y950199D01*
X771103Y950203D01*
X771061Y950185D01*
X771017Y950175D01*
X770999Y950157D01*
X770975Y950146D01*
X770950Y950108D01*
X770918Y950077D01*
X770912Y950051D01*
X770898Y950030D01*
X770887Y949956D01*
X770887Y939956D01*
X770889Y939949D01*
X770887Y939942D01*
X770908Y939883D01*
X770926Y939822D01*
X770931Y939817D01*
X770934Y939810D01*
X770984Y939772D01*
X771031Y939730D01*
X771038Y939729D01*
X771044Y939724D01*
X771116Y939708D01*
X773834Y939494D01*
X776467Y938862D01*
X778967Y937826D01*
X781275Y936412D01*
X783334Y934654D01*
X785092Y932595D01*
X786506Y930287D01*
X787542Y927787D01*
X788174Y925154D01*
X788386Y922456D01*
X788174Y919758D01*
X787542Y917125D01*
X786506Y914625D01*
X785092Y912317D01*
X783334Y910258D01*
X781275Y908500D01*
X778967Y907086D01*
X776467Y906050D01*
X773834Y905418D01*
X771116Y905204D01*
X771110Y905202D01*
X771103Y905203D01*
X771045Y905177D01*
X770986Y905155D01*
X770981Y905149D01*
X770975Y905146D01*
X770940Y905093D01*
X770902Y905043D01*
X770902Y905036D01*
X770898Y905030D01*
X770887Y904956D01*
X770887Y894956D01*
X770894Y894931D01*
X770892Y894905D01*
X770913Y894865D01*
X770926Y894822D01*
X770946Y894805D01*
X770958Y894782D01*
X770997Y894760D01*
X771031Y894730D01*
X771057Y894726D01*
X771080Y894713D01*
X771154Y894707D01*
X775067Y894987D01*
G37*
G36*
X3923Y894987D02*
X3923Y894987D01*
X3933Y894991D01*
X3959Y894992D01*
X7793Y895826D01*
X7801Y895831D01*
X7827Y895836D01*
X11503Y897208D01*
X11511Y897213D01*
X11535Y897222D01*
X14979Y899103D01*
X14986Y899110D01*
X15009Y899122D01*
X18150Y901473D01*
X18156Y901481D01*
X18177Y901497D01*
X20951Y904271D01*
X20956Y904280D01*
X20975Y904298D01*
X23326Y907439D01*
X23329Y907448D01*
X23345Y907469D01*
X25226Y910913D01*
X25228Y910922D01*
X25240Y910945D01*
X26612Y914621D01*
X26612Y914631D01*
X26622Y914655D01*
X27456Y918489D01*
X27455Y918499D01*
X27461Y918525D01*
X27741Y922438D01*
X27739Y922448D01*
X27741Y922474D01*
X27461Y926387D01*
X27459Y926392D01*
X27460Y926395D01*
X27457Y926401D01*
X27456Y926423D01*
X26622Y930257D01*
X26617Y930265D01*
X26612Y930291D01*
X25240Y933967D01*
X25235Y933975D01*
X25226Y933999D01*
X23345Y937443D01*
X23338Y937450D01*
X23326Y937473D01*
X20975Y940614D01*
X20967Y940620D01*
X20951Y940641D01*
X18177Y943415D01*
X18168Y943420D01*
X18150Y943439D01*
X15009Y945790D01*
X15000Y945793D01*
X14979Y945809D01*
X11535Y947690D01*
X11526Y947692D01*
X11503Y947704D01*
X7827Y949076D01*
X7817Y949076D01*
X7793Y949086D01*
X3959Y949920D01*
X3949Y949919D01*
X3923Y949925D01*
X10Y950205D01*
X-16Y950199D01*
X-41Y950203D01*
X-83Y950185D01*
X-127Y950175D01*
X-145Y950157D01*
X-169Y950146D01*
X-194Y950108D01*
X-226Y950077D01*
X-232Y950051D01*
X-246Y950030D01*
X-257Y949956D01*
X-257Y939956D01*
X-255Y939949D01*
X-257Y939942D01*
X-236Y939883D01*
X-218Y939822D01*
X-213Y939817D01*
X-210Y939810D01*
X-160Y939772D01*
X-113Y939730D01*
X-106Y939729D01*
X-100Y939724D01*
X-28Y939708D01*
X2690Y939494D01*
X5323Y938862D01*
X7823Y937826D01*
X10131Y936412D01*
X12190Y934654D01*
X13948Y932595D01*
X15362Y930287D01*
X16398Y927787D01*
X17030Y925154D01*
X17242Y922456D01*
X17030Y919758D01*
X16398Y917125D01*
X15362Y914625D01*
X13948Y912317D01*
X12190Y910258D01*
X10131Y908500D01*
X7823Y907086D01*
X5323Y906050D01*
X2690Y905418D01*
X-28Y905204D01*
X-34Y905202D01*
X-41Y905203D01*
X-99Y905177D01*
X-158Y905155D01*
X-163Y905149D01*
X-169Y905146D01*
X-204Y905093D01*
X-242Y905043D01*
X-242Y905036D01*
X-246Y905030D01*
X-257Y904956D01*
X-257Y894956D01*
X-250Y894931D01*
X-252Y894905D01*
X-231Y894865D01*
X-218Y894822D01*
X-198Y894805D01*
X-186Y894782D01*
X-147Y894760D01*
X-113Y894730D01*
X-87Y894726D01*
X-64Y894713D01*
X10Y894707D01*
X3923Y894987D01*
G37*
G36*
X380508Y412257D02*
X380508Y412257D01*
X380533Y412253D01*
X380575Y412271D01*
X380619Y412281D01*
X380637Y412299D01*
X380661Y412310D01*
X380686Y412348D01*
X380718Y412379D01*
X380724Y412405D01*
X380738Y412427D01*
X380749Y412500D01*
X380749Y422500D01*
X380747Y422507D01*
X380749Y422514D01*
X380728Y422573D01*
X380710Y422634D01*
X380705Y422639D01*
X380702Y422646D01*
X380652Y422685D01*
X380605Y422726D01*
X380598Y422727D01*
X380592Y422732D01*
X380520Y422748D01*
X377802Y422962D01*
X375169Y423594D01*
X372669Y424630D01*
X370361Y426044D01*
X368302Y427802D01*
X366544Y429861D01*
X365130Y432169D01*
X364094Y434669D01*
X363462Y437302D01*
X363250Y440000D01*
X363462Y442698D01*
X364094Y445331D01*
X365130Y447831D01*
X366544Y450139D01*
X368302Y452198D01*
X370361Y453956D01*
X372669Y455370D01*
X375169Y456406D01*
X377802Y457038D01*
X380520Y457252D01*
X380526Y457254D01*
X380533Y457253D01*
X380591Y457279D01*
X380650Y457301D01*
X380655Y457307D01*
X380661Y457310D01*
X380696Y457363D01*
X380734Y457413D01*
X380734Y457421D01*
X380738Y457427D01*
X380749Y457500D01*
X380749Y467500D01*
X380742Y467525D01*
X380744Y467551D01*
X380723Y467591D01*
X380710Y467634D01*
X380690Y467651D01*
X380678Y467674D01*
X380639Y467696D01*
X380605Y467726D01*
X380579Y467730D01*
X380556Y467743D01*
X380482Y467749D01*
X376569Y467469D01*
X376559Y467465D01*
X376533Y467464D01*
X372699Y466630D01*
X372691Y466625D01*
X372665Y466620D01*
X368989Y465248D01*
X368981Y465243D01*
X368957Y465234D01*
X365513Y463353D01*
X365506Y463346D01*
X365483Y463334D01*
X362342Y460983D01*
X362336Y460975D01*
X362315Y460959D01*
X359541Y458185D01*
X359536Y458176D01*
X359517Y458158D01*
X357166Y455017D01*
X357163Y455008D01*
X357147Y454987D01*
X355266Y451543D01*
X355264Y451534D01*
X355252Y451511D01*
X353880Y447835D01*
X353880Y447825D01*
X353870Y447801D01*
X353036Y443967D01*
X353037Y443957D01*
X353031Y443931D01*
X352751Y440018D01*
X352753Y440008D01*
X352751Y439982D01*
X353031Y436069D01*
X353035Y436059D01*
X353036Y436033D01*
X353870Y432199D01*
X353875Y432191D01*
X353880Y432165D01*
X355252Y428489D01*
X355257Y428481D01*
X355266Y428457D01*
X357147Y425013D01*
X357154Y425006D01*
X357166Y424983D01*
X359517Y421842D01*
X359525Y421836D01*
X359541Y421815D01*
X362315Y419041D01*
X362324Y419036D01*
X362342Y419017D01*
X365483Y416666D01*
X365492Y416663D01*
X365513Y416647D01*
X368957Y414766D01*
X368966Y414764D01*
X368989Y414752D01*
X372665Y413380D01*
X372675Y413380D01*
X372699Y413370D01*
X376533Y412536D01*
X376543Y412537D01*
X376569Y412531D01*
X380482Y412251D01*
X380508Y412257D01*
G37*
G36*
X766080Y412257D02*
X766080Y412257D01*
X766105Y412253D01*
X766147Y412271D01*
X766191Y412281D01*
X766209Y412299D01*
X766233Y412310D01*
X766258Y412348D01*
X766290Y412379D01*
X766296Y412405D01*
X766310Y412427D01*
X766321Y412500D01*
X766321Y422500D01*
X766319Y422507D01*
X766321Y422514D01*
X766300Y422573D01*
X766282Y422634D01*
X766277Y422639D01*
X766274Y422646D01*
X766224Y422685D01*
X766177Y422726D01*
X766170Y422727D01*
X766164Y422732D01*
X766092Y422748D01*
X763374Y422962D01*
X760741Y423594D01*
X758241Y424630D01*
X755933Y426044D01*
X753874Y427802D01*
X752116Y429861D01*
X750702Y432169D01*
X749666Y434669D01*
X749034Y437302D01*
X748822Y440000D01*
X749034Y442698D01*
X749666Y445331D01*
X750702Y447831D01*
X752116Y450139D01*
X753874Y452198D01*
X755933Y453956D01*
X758241Y455370D01*
X760741Y456406D01*
X763374Y457038D01*
X766092Y457252D01*
X766098Y457254D01*
X766105Y457253D01*
X766163Y457279D01*
X766222Y457301D01*
X766227Y457307D01*
X766233Y457310D01*
X766268Y457363D01*
X766306Y457413D01*
X766306Y457421D01*
X766310Y457427D01*
X766321Y457500D01*
X766321Y467500D01*
X766314Y467525D01*
X766316Y467551D01*
X766295Y467591D01*
X766282Y467634D01*
X766262Y467651D01*
X766250Y467674D01*
X766211Y467696D01*
X766177Y467726D01*
X766151Y467730D01*
X766128Y467743D01*
X766054Y467749D01*
X762141Y467469D01*
X762131Y467465D01*
X762105Y467464D01*
X758271Y466630D01*
X758263Y466625D01*
X758237Y466620D01*
X754561Y465248D01*
X754553Y465243D01*
X754529Y465234D01*
X751085Y463353D01*
X751078Y463346D01*
X751055Y463334D01*
X747914Y460983D01*
X747908Y460975D01*
X747887Y460959D01*
X745113Y458185D01*
X745108Y458176D01*
X745089Y458158D01*
X742738Y455017D01*
X742735Y455008D01*
X742719Y454987D01*
X740838Y451543D01*
X740836Y451534D01*
X740824Y451511D01*
X739452Y447835D01*
X739452Y447825D01*
X739442Y447801D01*
X738608Y443967D01*
X738609Y443957D01*
X738603Y443931D01*
X738323Y440018D01*
X738325Y440008D01*
X738323Y439982D01*
X738603Y436069D01*
X738607Y436059D01*
X738608Y436033D01*
X739442Y432199D01*
X739447Y432191D01*
X739452Y432165D01*
X740824Y428489D01*
X740829Y428481D01*
X740838Y428457D01*
X742719Y425013D01*
X742726Y425006D01*
X742738Y424983D01*
X745089Y421842D01*
X745097Y421836D01*
X745113Y421815D01*
X747887Y419041D01*
X747896Y419036D01*
X747914Y419017D01*
X751055Y416666D01*
X751064Y416663D01*
X751085Y416647D01*
X754529Y414766D01*
X754538Y414764D01*
X754561Y414752D01*
X758237Y413380D01*
X758247Y413380D01*
X758271Y413370D01*
X762105Y412536D01*
X762115Y412537D01*
X762141Y412531D01*
X766054Y412251D01*
X766080Y412257D01*
G37*
G36*
X1151652Y412257D02*
X1151652Y412257D01*
X1151677Y412253D01*
X1151719Y412271D01*
X1151763Y412281D01*
X1151781Y412299D01*
X1151805Y412310D01*
X1151830Y412348D01*
X1151862Y412379D01*
X1151868Y412405D01*
X1151882Y412427D01*
X1151893Y412500D01*
X1151893Y422500D01*
X1151891Y422507D01*
X1151893Y422514D01*
X1151872Y422573D01*
X1151854Y422634D01*
X1151849Y422639D01*
X1151846Y422646D01*
X1151796Y422685D01*
X1151749Y422726D01*
X1151742Y422727D01*
X1151736Y422732D01*
X1151664Y422748D01*
X1148946Y422962D01*
X1146313Y423594D01*
X1143813Y424630D01*
X1141505Y426044D01*
X1139446Y427802D01*
X1137688Y429861D01*
X1136274Y432169D01*
X1135238Y434669D01*
X1134606Y437302D01*
X1134394Y440000D01*
X1134606Y442698D01*
X1135238Y445331D01*
X1136274Y447831D01*
X1137688Y450139D01*
X1139446Y452198D01*
X1141505Y453956D01*
X1143813Y455370D01*
X1146313Y456406D01*
X1148946Y457038D01*
X1151664Y457252D01*
X1151670Y457254D01*
X1151677Y457253D01*
X1151735Y457279D01*
X1151794Y457301D01*
X1151799Y457307D01*
X1151805Y457310D01*
X1151840Y457363D01*
X1151878Y457413D01*
X1151878Y457421D01*
X1151882Y457427D01*
X1151893Y457500D01*
X1151893Y467500D01*
X1151886Y467525D01*
X1151888Y467551D01*
X1151867Y467591D01*
X1151854Y467634D01*
X1151834Y467651D01*
X1151822Y467674D01*
X1151783Y467696D01*
X1151749Y467726D01*
X1151723Y467730D01*
X1151700Y467743D01*
X1151626Y467749D01*
X1147713Y467469D01*
X1147703Y467465D01*
X1147677Y467464D01*
X1143843Y466630D01*
X1143835Y466625D01*
X1143809Y466620D01*
X1140133Y465248D01*
X1140125Y465243D01*
X1140101Y465234D01*
X1136657Y463353D01*
X1136650Y463346D01*
X1136627Y463334D01*
X1133486Y460983D01*
X1133480Y460975D01*
X1133459Y460959D01*
X1130685Y458185D01*
X1130680Y458176D01*
X1130661Y458158D01*
X1128310Y455017D01*
X1128307Y455008D01*
X1128291Y454987D01*
X1126410Y451543D01*
X1126408Y451534D01*
X1126396Y451511D01*
X1125024Y447835D01*
X1125024Y447825D01*
X1125014Y447801D01*
X1124180Y443967D01*
X1124181Y443957D01*
X1124175Y443931D01*
X1123895Y440018D01*
X1123897Y440008D01*
X1123895Y439982D01*
X1124175Y436069D01*
X1124179Y436059D01*
X1124180Y436033D01*
X1125014Y432199D01*
X1125019Y432191D01*
X1125024Y432165D01*
X1126396Y428489D01*
X1126401Y428481D01*
X1126410Y428457D01*
X1128291Y425013D01*
X1128298Y425006D01*
X1128310Y424983D01*
X1130661Y421842D01*
X1130669Y421836D01*
X1130685Y421815D01*
X1133459Y419041D01*
X1133468Y419036D01*
X1133486Y419017D01*
X1136627Y416666D01*
X1136636Y416663D01*
X1136657Y416647D01*
X1140101Y414766D01*
X1140110Y414764D01*
X1140133Y414752D01*
X1143809Y413380D01*
X1143819Y413380D01*
X1143843Y413370D01*
X1147677Y412536D01*
X1147687Y412537D01*
X1147713Y412531D01*
X1151626Y412251D01*
X1151652Y412257D01*
G37*
G36*
X380000Y894713D02*
X380000Y894713D01*
X380025Y894709D01*
X380067Y894727D01*
X380111Y894737D01*
X380129Y894755D01*
X380153Y894766D01*
X380178Y894804D01*
X380210Y894835D01*
X380216Y894861D01*
X380230Y894883D01*
X380241Y894956D01*
X380241Y904956D01*
X380239Y904963D01*
X380241Y904970D01*
X380220Y905029D01*
X380202Y905090D01*
X380197Y905095D01*
X380194Y905102D01*
X380144Y905141D01*
X380097Y905182D01*
X380090Y905183D01*
X380084Y905188D01*
X380012Y905204D01*
X377294Y905418D01*
X374661Y906050D01*
X372161Y907086D01*
X369853Y908500D01*
X367794Y910258D01*
X366036Y912317D01*
X364622Y914625D01*
X363586Y917125D01*
X362954Y919758D01*
X362742Y922456D01*
X362954Y925154D01*
X363586Y927787D01*
X364622Y930287D01*
X366036Y932595D01*
X367794Y934654D01*
X369853Y936412D01*
X372161Y937826D01*
X374661Y938862D01*
X377294Y939494D01*
X380012Y939708D01*
X380018Y939710D01*
X380025Y939709D01*
X380083Y939735D01*
X380142Y939757D01*
X380147Y939763D01*
X380153Y939766D01*
X380188Y939819D01*
X380226Y939869D01*
X380226Y939877D01*
X380230Y939883D01*
X380241Y939956D01*
X380241Y949956D01*
X380234Y949981D01*
X380236Y950007D01*
X380215Y950047D01*
X380202Y950090D01*
X380182Y950107D01*
X380170Y950130D01*
X380131Y950152D01*
X380097Y950182D01*
X380071Y950186D01*
X380048Y950199D01*
X379974Y950205D01*
X376061Y949925D01*
X376051Y949921D01*
X376025Y949920D01*
X372191Y949086D01*
X372183Y949081D01*
X372157Y949076D01*
X368481Y947704D01*
X368473Y947699D01*
X368449Y947690D01*
X365005Y945809D01*
X364998Y945802D01*
X364975Y945790D01*
X361834Y943439D01*
X361828Y943431D01*
X361807Y943415D01*
X359033Y940641D01*
X359028Y940632D01*
X359009Y940614D01*
X356658Y937473D01*
X356655Y937464D01*
X356639Y937443D01*
X354758Y933999D01*
X354756Y933990D01*
X354744Y933967D01*
X353372Y930291D01*
X353372Y930281D01*
X353362Y930257D01*
X352528Y926423D01*
X352529Y926413D01*
X352523Y926387D01*
X352243Y922474D01*
X352245Y922464D01*
X352243Y922438D01*
X352523Y918525D01*
X352527Y918515D01*
X352528Y918489D01*
X353362Y914655D01*
X353367Y914647D01*
X353372Y914621D01*
X354744Y910945D01*
X354749Y910937D01*
X354758Y910913D01*
X356639Y907469D01*
X356646Y907462D01*
X356658Y907439D01*
X359009Y904298D01*
X359017Y904292D01*
X359033Y904271D01*
X361807Y901497D01*
X361816Y901492D01*
X361834Y901473D01*
X364975Y899122D01*
X364984Y899119D01*
X365005Y899103D01*
X368449Y897222D01*
X368458Y897220D01*
X368481Y897208D01*
X372157Y895836D01*
X372167Y895836D01*
X372191Y895826D01*
X376025Y894992D01*
X376035Y894993D01*
X376061Y894987D01*
X379974Y894707D01*
X380000Y894713D01*
G37*
G36*
X1151144Y894713D02*
X1151144Y894713D01*
X1151169Y894709D01*
X1151211Y894727D01*
X1151255Y894737D01*
X1151273Y894755D01*
X1151297Y894766D01*
X1151322Y894804D01*
X1151354Y894835D01*
X1151360Y894861D01*
X1151374Y894883D01*
X1151385Y894956D01*
X1151385Y904956D01*
X1151383Y904963D01*
X1151385Y904970D01*
X1151364Y905029D01*
X1151346Y905090D01*
X1151341Y905095D01*
X1151338Y905102D01*
X1151288Y905141D01*
X1151241Y905182D01*
X1151234Y905183D01*
X1151228Y905188D01*
X1151156Y905204D01*
X1148438Y905418D01*
X1145805Y906050D01*
X1143305Y907086D01*
X1140997Y908500D01*
X1138938Y910258D01*
X1137180Y912317D01*
X1135766Y914625D01*
X1134730Y917125D01*
X1134098Y919758D01*
X1133886Y922456D01*
X1134098Y925154D01*
X1134730Y927787D01*
X1135766Y930287D01*
X1137180Y932595D01*
X1138938Y934654D01*
X1140997Y936412D01*
X1143305Y937826D01*
X1145805Y938862D01*
X1148438Y939494D01*
X1151156Y939708D01*
X1151162Y939710D01*
X1151169Y939709D01*
X1151227Y939735D01*
X1151286Y939757D01*
X1151291Y939763D01*
X1151297Y939766D01*
X1151332Y939819D01*
X1151370Y939869D01*
X1151370Y939877D01*
X1151374Y939883D01*
X1151385Y939956D01*
X1151385Y949956D01*
X1151378Y949981D01*
X1151380Y950007D01*
X1151359Y950047D01*
X1151346Y950090D01*
X1151326Y950107D01*
X1151314Y950130D01*
X1151275Y950152D01*
X1151241Y950182D01*
X1151215Y950186D01*
X1151192Y950199D01*
X1151118Y950205D01*
X1147205Y949925D01*
X1147195Y949921D01*
X1147169Y949920D01*
X1143335Y949086D01*
X1143327Y949081D01*
X1143301Y949076D01*
X1139625Y947704D01*
X1139617Y947699D01*
X1139593Y947690D01*
X1136149Y945809D01*
X1136142Y945802D01*
X1136119Y945790D01*
X1132978Y943439D01*
X1132972Y943431D01*
X1132951Y943415D01*
X1130177Y940641D01*
X1130172Y940632D01*
X1130153Y940614D01*
X1127802Y937473D01*
X1127799Y937464D01*
X1127783Y937443D01*
X1125902Y933999D01*
X1125900Y933990D01*
X1125888Y933967D01*
X1124516Y930291D01*
X1124516Y930281D01*
X1124506Y930257D01*
X1123672Y926423D01*
X1123673Y926413D01*
X1123667Y926387D01*
X1123387Y922474D01*
X1123389Y922464D01*
X1123387Y922438D01*
X1123667Y918525D01*
X1123671Y918515D01*
X1123672Y918489D01*
X1124506Y914655D01*
X1124511Y914647D01*
X1124516Y914621D01*
X1125888Y910945D01*
X1125893Y910937D01*
X1125902Y910913D01*
X1127783Y907469D01*
X1127790Y907462D01*
X1127802Y907439D01*
X1130153Y904298D01*
X1130161Y904292D01*
X1130177Y904271D01*
X1132951Y901497D01*
X1132960Y901492D01*
X1132978Y901473D01*
X1136119Y899122D01*
X1136128Y899119D01*
X1136149Y899103D01*
X1139593Y897222D01*
X1139602Y897220D01*
X1139625Y897208D01*
X1143301Y895836D01*
X1143311Y895836D01*
X1143335Y895826D01*
X1147169Y894992D01*
X1147179Y894993D01*
X1147205Y894987D01*
X1151118Y894707D01*
X1151144Y894713D01*
G37*
G36*
X765572Y894713D02*
X765572Y894713D01*
X765597Y894709D01*
X765639Y894727D01*
X765683Y894737D01*
X765701Y894755D01*
X765725Y894766D01*
X765750Y894804D01*
X765782Y894835D01*
X765788Y894861D01*
X765802Y894883D01*
X765813Y894956D01*
X765813Y904956D01*
X765811Y904963D01*
X765813Y904970D01*
X765792Y905029D01*
X765774Y905090D01*
X765769Y905095D01*
X765766Y905102D01*
X765716Y905141D01*
X765669Y905182D01*
X765662Y905183D01*
X765656Y905188D01*
X765584Y905204D01*
X762866Y905418D01*
X760233Y906050D01*
X757733Y907086D01*
X755425Y908500D01*
X753366Y910258D01*
X751608Y912317D01*
X750194Y914625D01*
X749158Y917125D01*
X748526Y919758D01*
X748314Y922456D01*
X748526Y925154D01*
X749158Y927787D01*
X750194Y930287D01*
X751608Y932595D01*
X753366Y934654D01*
X755425Y936412D01*
X757733Y937826D01*
X760233Y938862D01*
X762866Y939494D01*
X765584Y939708D01*
X765590Y939710D01*
X765597Y939709D01*
X765655Y939735D01*
X765714Y939757D01*
X765719Y939763D01*
X765725Y939766D01*
X765760Y939819D01*
X765798Y939869D01*
X765798Y939877D01*
X765802Y939883D01*
X765813Y939956D01*
X765813Y949956D01*
X765806Y949981D01*
X765808Y950007D01*
X765787Y950047D01*
X765774Y950090D01*
X765754Y950107D01*
X765742Y950130D01*
X765703Y950152D01*
X765669Y950182D01*
X765643Y950186D01*
X765620Y950199D01*
X765546Y950205D01*
X761633Y949925D01*
X761623Y949921D01*
X761597Y949920D01*
X757763Y949086D01*
X757755Y949081D01*
X757729Y949076D01*
X754053Y947704D01*
X754045Y947699D01*
X754021Y947690D01*
X750577Y945809D01*
X750570Y945802D01*
X750547Y945790D01*
X747406Y943439D01*
X747400Y943431D01*
X747379Y943415D01*
X744605Y940641D01*
X744600Y940632D01*
X744581Y940614D01*
X742230Y937473D01*
X742227Y937464D01*
X742211Y937443D01*
X740330Y933999D01*
X740328Y933990D01*
X740316Y933967D01*
X738944Y930291D01*
X738944Y930281D01*
X738934Y930257D01*
X738100Y926423D01*
X738101Y926413D01*
X738095Y926387D01*
X737815Y922474D01*
X737817Y922464D01*
X737815Y922438D01*
X738095Y918525D01*
X738099Y918515D01*
X738100Y918489D01*
X738934Y914655D01*
X738939Y914647D01*
X738944Y914621D01*
X740316Y910945D01*
X740321Y910937D01*
X740330Y910913D01*
X742211Y907469D01*
X742218Y907462D01*
X742230Y907439D01*
X744581Y904298D01*
X744589Y904292D01*
X744605Y904271D01*
X747379Y901497D01*
X747388Y901492D01*
X747406Y901473D01*
X750547Y899122D01*
X750556Y899119D01*
X750577Y899103D01*
X754021Y897222D01*
X754030Y897220D01*
X754053Y897208D01*
X757729Y895836D01*
X757739Y895836D01*
X757763Y895826D01*
X761597Y894992D01*
X761607Y894993D01*
X761633Y894987D01*
X765546Y894707D01*
X765572Y894713D01*
G37*
G36*
X1063817Y1126248D02*
X1063817Y1126248D01*
X1063883Y1126250D01*
X1063926Y1126268D01*
X1063973Y1126276D01*
X1064030Y1126310D01*
X1064090Y1126335D01*
X1064125Y1126366D01*
X1064166Y1126391D01*
X1064208Y1126442D01*
X1064256Y1126486D01*
X1064278Y1126528D01*
X1064307Y1126565D01*
X1064328Y1126627D01*
X1064359Y1126686D01*
X1064367Y1126740D01*
X1064379Y1126777D01*
X1064378Y1126817D01*
X1064386Y1126871D01*
X1064386Y1130681D01*
X1064375Y1130746D01*
X1064373Y1130812D01*
X1064355Y1130855D01*
X1064347Y1130902D01*
X1064313Y1130959D01*
X1064288Y1131019D01*
X1064257Y1131054D01*
X1064232Y1131095D01*
X1064181Y1131137D01*
X1064137Y1131185D01*
X1064095Y1131207D01*
X1064058Y1131236D01*
X1063996Y1131257D01*
X1063937Y1131288D01*
X1063883Y1131296D01*
X1063846Y1131308D01*
X1063806Y1131307D01*
X1063752Y1131315D01*
X1061212Y1131315D01*
X1061147Y1131304D01*
X1061081Y1131302D01*
X1061038Y1131284D01*
X1060991Y1131276D01*
X1060934Y1131242D01*
X1060874Y1131217D01*
X1060839Y1131186D01*
X1060798Y1131161D01*
X1060757Y1131110D01*
X1060708Y1131066D01*
X1060686Y1131024D01*
X1060657Y1130987D01*
X1060636Y1130925D01*
X1060605Y1130866D01*
X1060597Y1130812D01*
X1060585Y1130775D01*
X1060585Y1130771D01*
X1060585Y1130770D01*
X1060586Y1130735D01*
X1060578Y1130681D01*
X1060578Y1126871D01*
X1060589Y1126806D01*
X1060591Y1126740D01*
X1060609Y1126697D01*
X1060617Y1126650D01*
X1060651Y1126593D01*
X1060676Y1126533D01*
X1060707Y1126498D01*
X1060732Y1126457D01*
X1060783Y1126416D01*
X1060827Y1126367D01*
X1060869Y1126345D01*
X1060906Y1126316D01*
X1060968Y1126295D01*
X1061027Y1126264D01*
X1061081Y1126256D01*
X1061118Y1126244D01*
X1061158Y1126245D01*
X1061212Y1126237D01*
X1063752Y1126237D01*
X1063817Y1126248D01*
G37*
G36*
X292673Y1126248D02*
X292673Y1126248D01*
X292739Y1126250D01*
X292782Y1126268D01*
X292829Y1126276D01*
X292886Y1126310D01*
X292946Y1126335D01*
X292981Y1126366D01*
X293022Y1126391D01*
X293064Y1126442D01*
X293112Y1126486D01*
X293134Y1126528D01*
X293163Y1126565D01*
X293184Y1126627D01*
X293215Y1126686D01*
X293223Y1126740D01*
X293235Y1126777D01*
X293234Y1126817D01*
X293242Y1126871D01*
X293242Y1130681D01*
X293231Y1130746D01*
X293229Y1130812D01*
X293211Y1130855D01*
X293203Y1130902D01*
X293169Y1130959D01*
X293144Y1131019D01*
X293113Y1131054D01*
X293088Y1131095D01*
X293037Y1131137D01*
X292993Y1131185D01*
X292951Y1131207D01*
X292914Y1131236D01*
X292852Y1131257D01*
X292793Y1131288D01*
X292739Y1131296D01*
X292702Y1131308D01*
X292662Y1131307D01*
X292608Y1131315D01*
X290068Y1131315D01*
X290003Y1131304D01*
X289937Y1131302D01*
X289894Y1131284D01*
X289847Y1131276D01*
X289790Y1131242D01*
X289730Y1131217D01*
X289695Y1131186D01*
X289654Y1131161D01*
X289613Y1131110D01*
X289564Y1131066D01*
X289542Y1131024D01*
X289513Y1130987D01*
X289492Y1130925D01*
X289461Y1130866D01*
X289453Y1130812D01*
X289441Y1130775D01*
X289441Y1130771D01*
X289441Y1130770D01*
X289442Y1130735D01*
X289434Y1130681D01*
X289434Y1126871D01*
X289445Y1126806D01*
X289447Y1126740D01*
X289465Y1126697D01*
X289473Y1126650D01*
X289507Y1126593D01*
X289532Y1126533D01*
X289563Y1126498D01*
X289588Y1126457D01*
X289639Y1126416D01*
X289683Y1126367D01*
X289725Y1126345D01*
X289762Y1126316D01*
X289824Y1126295D01*
X289883Y1126264D01*
X289937Y1126256D01*
X289974Y1126244D01*
X290014Y1126245D01*
X290068Y1126237D01*
X292608Y1126237D01*
X292673Y1126248D01*
G37*
G36*
X678245Y1126248D02*
X678245Y1126248D01*
X678311Y1126250D01*
X678354Y1126268D01*
X678401Y1126276D01*
X678458Y1126310D01*
X678518Y1126335D01*
X678553Y1126366D01*
X678594Y1126391D01*
X678636Y1126442D01*
X678684Y1126486D01*
X678706Y1126528D01*
X678735Y1126565D01*
X678756Y1126627D01*
X678787Y1126686D01*
X678795Y1126740D01*
X678807Y1126777D01*
X678806Y1126817D01*
X678814Y1126871D01*
X678814Y1130681D01*
X678803Y1130746D01*
X678801Y1130812D01*
X678783Y1130855D01*
X678775Y1130902D01*
X678741Y1130959D01*
X678716Y1131019D01*
X678685Y1131054D01*
X678660Y1131095D01*
X678609Y1131137D01*
X678565Y1131185D01*
X678523Y1131207D01*
X678486Y1131236D01*
X678424Y1131257D01*
X678365Y1131288D01*
X678311Y1131296D01*
X678274Y1131308D01*
X678234Y1131307D01*
X678180Y1131315D01*
X675640Y1131315D01*
X675575Y1131304D01*
X675509Y1131302D01*
X675466Y1131284D01*
X675419Y1131276D01*
X675362Y1131242D01*
X675302Y1131217D01*
X675267Y1131186D01*
X675226Y1131161D01*
X675185Y1131110D01*
X675136Y1131066D01*
X675114Y1131024D01*
X675085Y1130987D01*
X675064Y1130925D01*
X675033Y1130866D01*
X675025Y1130812D01*
X675013Y1130775D01*
X675013Y1130771D01*
X675013Y1130770D01*
X675014Y1130735D01*
X675006Y1130681D01*
X675006Y1126871D01*
X675017Y1126806D01*
X675019Y1126740D01*
X675037Y1126697D01*
X675045Y1126650D01*
X675079Y1126593D01*
X675104Y1126533D01*
X675135Y1126498D01*
X675160Y1126457D01*
X675211Y1126416D01*
X675255Y1126367D01*
X675297Y1126345D01*
X675334Y1126316D01*
X675396Y1126295D01*
X675455Y1126264D01*
X675509Y1126256D01*
X675546Y1126244D01*
X675586Y1126245D01*
X675640Y1126237D01*
X678180Y1126237D01*
X678245Y1126248D01*
G37*
G36*
X1063817Y1116088D02*
X1063817Y1116088D01*
X1063883Y1116090D01*
X1063926Y1116108D01*
X1063973Y1116116D01*
X1064030Y1116150D01*
X1064090Y1116175D01*
X1064125Y1116206D01*
X1064166Y1116231D01*
X1064208Y1116282D01*
X1064256Y1116326D01*
X1064278Y1116368D01*
X1064307Y1116405D01*
X1064328Y1116467D01*
X1064359Y1116526D01*
X1064367Y1116580D01*
X1064379Y1116617D01*
X1064378Y1116657D01*
X1064386Y1116711D01*
X1064386Y1120521D01*
X1064375Y1120586D01*
X1064373Y1120652D01*
X1064355Y1120695D01*
X1064347Y1120742D01*
X1064313Y1120799D01*
X1064288Y1120859D01*
X1064257Y1120894D01*
X1064232Y1120935D01*
X1064181Y1120977D01*
X1064137Y1121025D01*
X1064095Y1121047D01*
X1064058Y1121076D01*
X1063996Y1121097D01*
X1063937Y1121128D01*
X1063883Y1121136D01*
X1063846Y1121148D01*
X1063806Y1121147D01*
X1063752Y1121155D01*
X1061212Y1121155D01*
X1061147Y1121144D01*
X1061081Y1121142D01*
X1061038Y1121124D01*
X1060991Y1121116D01*
X1060934Y1121082D01*
X1060874Y1121057D01*
X1060839Y1121026D01*
X1060798Y1121001D01*
X1060757Y1120950D01*
X1060708Y1120906D01*
X1060686Y1120864D01*
X1060657Y1120827D01*
X1060636Y1120765D01*
X1060605Y1120706D01*
X1060597Y1120652D01*
X1060585Y1120615D01*
X1060585Y1120611D01*
X1060585Y1120610D01*
X1060586Y1120575D01*
X1060578Y1120521D01*
X1060578Y1116711D01*
X1060589Y1116646D01*
X1060591Y1116580D01*
X1060609Y1116537D01*
X1060617Y1116490D01*
X1060651Y1116433D01*
X1060676Y1116373D01*
X1060707Y1116338D01*
X1060732Y1116297D01*
X1060783Y1116256D01*
X1060827Y1116207D01*
X1060869Y1116185D01*
X1060906Y1116156D01*
X1060968Y1116135D01*
X1061027Y1116104D01*
X1061081Y1116096D01*
X1061118Y1116084D01*
X1061158Y1116085D01*
X1061212Y1116077D01*
X1063752Y1116077D01*
X1063817Y1116088D01*
G37*
G36*
X292673Y1116088D02*
X292673Y1116088D01*
X292739Y1116090D01*
X292782Y1116108D01*
X292829Y1116116D01*
X292886Y1116150D01*
X292946Y1116175D01*
X292981Y1116206D01*
X293022Y1116231D01*
X293064Y1116282D01*
X293112Y1116326D01*
X293134Y1116368D01*
X293163Y1116405D01*
X293184Y1116467D01*
X293215Y1116526D01*
X293223Y1116580D01*
X293235Y1116617D01*
X293234Y1116657D01*
X293242Y1116711D01*
X293242Y1120521D01*
X293231Y1120586D01*
X293229Y1120652D01*
X293211Y1120695D01*
X293203Y1120742D01*
X293169Y1120799D01*
X293144Y1120859D01*
X293113Y1120894D01*
X293088Y1120935D01*
X293037Y1120977D01*
X292993Y1121025D01*
X292951Y1121047D01*
X292914Y1121076D01*
X292852Y1121097D01*
X292793Y1121128D01*
X292739Y1121136D01*
X292702Y1121148D01*
X292662Y1121147D01*
X292608Y1121155D01*
X290068Y1121155D01*
X290003Y1121144D01*
X289937Y1121142D01*
X289894Y1121124D01*
X289847Y1121116D01*
X289790Y1121082D01*
X289730Y1121057D01*
X289695Y1121026D01*
X289654Y1121001D01*
X289613Y1120950D01*
X289564Y1120906D01*
X289542Y1120864D01*
X289513Y1120827D01*
X289492Y1120765D01*
X289461Y1120706D01*
X289453Y1120652D01*
X289441Y1120615D01*
X289441Y1120611D01*
X289441Y1120610D01*
X289442Y1120575D01*
X289434Y1120521D01*
X289434Y1116711D01*
X289445Y1116646D01*
X289447Y1116580D01*
X289465Y1116537D01*
X289473Y1116490D01*
X289507Y1116433D01*
X289532Y1116373D01*
X289563Y1116338D01*
X289588Y1116297D01*
X289639Y1116256D01*
X289683Y1116207D01*
X289725Y1116185D01*
X289762Y1116156D01*
X289824Y1116135D01*
X289883Y1116104D01*
X289937Y1116096D01*
X289974Y1116084D01*
X290014Y1116085D01*
X290068Y1116077D01*
X292608Y1116077D01*
X292673Y1116088D01*
G37*
G36*
X678245Y1116088D02*
X678245Y1116088D01*
X678311Y1116090D01*
X678354Y1116108D01*
X678401Y1116116D01*
X678458Y1116150D01*
X678518Y1116175D01*
X678553Y1116206D01*
X678594Y1116231D01*
X678636Y1116282D01*
X678684Y1116326D01*
X678706Y1116368D01*
X678735Y1116405D01*
X678756Y1116467D01*
X678787Y1116526D01*
X678795Y1116580D01*
X678807Y1116617D01*
X678806Y1116657D01*
X678814Y1116711D01*
X678814Y1120521D01*
X678803Y1120586D01*
X678801Y1120652D01*
X678783Y1120695D01*
X678775Y1120742D01*
X678741Y1120799D01*
X678716Y1120859D01*
X678685Y1120894D01*
X678660Y1120935D01*
X678609Y1120977D01*
X678565Y1121025D01*
X678523Y1121047D01*
X678486Y1121076D01*
X678424Y1121097D01*
X678365Y1121128D01*
X678311Y1121136D01*
X678274Y1121148D01*
X678234Y1121147D01*
X678180Y1121155D01*
X675640Y1121155D01*
X675575Y1121144D01*
X675509Y1121142D01*
X675466Y1121124D01*
X675419Y1121116D01*
X675362Y1121082D01*
X675302Y1121057D01*
X675267Y1121026D01*
X675226Y1121001D01*
X675185Y1120950D01*
X675136Y1120906D01*
X675114Y1120864D01*
X675085Y1120827D01*
X675064Y1120765D01*
X675033Y1120706D01*
X675025Y1120652D01*
X675013Y1120615D01*
X675013Y1120611D01*
X675013Y1120610D01*
X675014Y1120575D01*
X675006Y1120521D01*
X675006Y1116711D01*
X675017Y1116646D01*
X675019Y1116580D01*
X675037Y1116537D01*
X675045Y1116490D01*
X675079Y1116433D01*
X675104Y1116373D01*
X675135Y1116338D01*
X675160Y1116297D01*
X675211Y1116256D01*
X675255Y1116207D01*
X675297Y1116185D01*
X675334Y1116156D01*
X675396Y1116135D01*
X675455Y1116104D01*
X675509Y1116096D01*
X675546Y1116084D01*
X675586Y1116085D01*
X675640Y1116077D01*
X678180Y1116077D01*
X678245Y1116088D01*
G37*
G36*
X476061Y231152D02*
X476061Y231152D01*
X476127Y231154D01*
X476170Y231172D01*
X476217Y231180D01*
X476274Y231214D01*
X476334Y231239D01*
X476369Y231270D01*
X476410Y231295D01*
X476452Y231346D01*
X476500Y231390D01*
X476522Y231432D01*
X476551Y231469D01*
X476572Y231531D01*
X476603Y231590D01*
X476611Y231644D01*
X476623Y231681D01*
X476622Y231721D01*
X476630Y231775D01*
X476630Y235585D01*
X476619Y235650D01*
X476617Y235716D01*
X476599Y235759D01*
X476591Y235806D01*
X476557Y235863D01*
X476532Y235923D01*
X476501Y235958D01*
X476476Y235999D01*
X476425Y236041D01*
X476381Y236089D01*
X476339Y236111D01*
X476302Y236140D01*
X476240Y236161D01*
X476181Y236192D01*
X476127Y236200D01*
X476090Y236212D01*
X476050Y236211D01*
X475996Y236219D01*
X473456Y236219D01*
X473391Y236208D01*
X473325Y236206D01*
X473282Y236188D01*
X473235Y236180D01*
X473178Y236146D01*
X473118Y236121D01*
X473083Y236090D01*
X473042Y236065D01*
X473001Y236014D01*
X472952Y235970D01*
X472930Y235928D01*
X472901Y235891D01*
X472880Y235829D01*
X472849Y235770D01*
X472841Y235716D01*
X472829Y235679D01*
X472829Y235675D01*
X472829Y235674D01*
X472830Y235639D01*
X472822Y235585D01*
X472822Y231775D01*
X472833Y231710D01*
X472835Y231644D01*
X472853Y231601D01*
X472861Y231554D01*
X472895Y231497D01*
X472920Y231437D01*
X472951Y231402D01*
X472976Y231361D01*
X473027Y231320D01*
X473071Y231271D01*
X473113Y231249D01*
X473150Y231220D01*
X473212Y231199D01*
X473271Y231168D01*
X473325Y231160D01*
X473362Y231148D01*
X473402Y231149D01*
X473456Y231141D01*
X475996Y231141D01*
X476061Y231152D01*
G37*
G36*
X861633Y241312D02*
X861633Y241312D01*
X861699Y241314D01*
X861742Y241332D01*
X861789Y241340D01*
X861846Y241374D01*
X861906Y241399D01*
X861941Y241430D01*
X861982Y241455D01*
X862024Y241506D01*
X862072Y241550D01*
X862094Y241592D01*
X862123Y241629D01*
X862144Y241691D01*
X862175Y241750D01*
X862183Y241804D01*
X862195Y241841D01*
X862194Y241881D01*
X862202Y241935D01*
X862202Y245745D01*
X862191Y245810D01*
X862189Y245876D01*
X862171Y245919D01*
X862163Y245966D01*
X862129Y246023D01*
X862104Y246083D01*
X862073Y246118D01*
X862048Y246159D01*
X861997Y246201D01*
X861953Y246249D01*
X861911Y246271D01*
X861874Y246300D01*
X861812Y246321D01*
X861753Y246352D01*
X861699Y246360D01*
X861662Y246372D01*
X861622Y246371D01*
X861568Y246379D01*
X859028Y246379D01*
X858963Y246368D01*
X858897Y246366D01*
X858854Y246348D01*
X858807Y246340D01*
X858750Y246306D01*
X858690Y246281D01*
X858655Y246250D01*
X858614Y246225D01*
X858573Y246174D01*
X858524Y246130D01*
X858502Y246088D01*
X858473Y246051D01*
X858452Y245989D01*
X858421Y245930D01*
X858413Y245876D01*
X858401Y245839D01*
X858401Y245835D01*
X858401Y245834D01*
X858402Y245799D01*
X858394Y245745D01*
X858394Y241935D01*
X858405Y241870D01*
X858407Y241804D01*
X858425Y241761D01*
X858433Y241714D01*
X858467Y241657D01*
X858492Y241597D01*
X858523Y241562D01*
X858548Y241521D01*
X858599Y241480D01*
X858643Y241431D01*
X858685Y241409D01*
X858722Y241380D01*
X858784Y241359D01*
X858843Y241328D01*
X858897Y241320D01*
X858934Y241308D01*
X858974Y241309D01*
X859028Y241301D01*
X861568Y241301D01*
X861633Y241312D01*
G37*
G36*
X476061Y241312D02*
X476061Y241312D01*
X476127Y241314D01*
X476170Y241332D01*
X476217Y241340D01*
X476274Y241374D01*
X476334Y241399D01*
X476369Y241430D01*
X476410Y241455D01*
X476452Y241506D01*
X476500Y241550D01*
X476522Y241592D01*
X476551Y241629D01*
X476572Y241691D01*
X476603Y241750D01*
X476611Y241804D01*
X476623Y241841D01*
X476622Y241881D01*
X476630Y241935D01*
X476630Y245745D01*
X476619Y245810D01*
X476617Y245876D01*
X476599Y245919D01*
X476591Y245966D01*
X476557Y246023D01*
X476532Y246083D01*
X476501Y246118D01*
X476476Y246159D01*
X476425Y246201D01*
X476381Y246249D01*
X476339Y246271D01*
X476302Y246300D01*
X476240Y246321D01*
X476181Y246352D01*
X476127Y246360D01*
X476090Y246372D01*
X476050Y246371D01*
X475996Y246379D01*
X473456Y246379D01*
X473391Y246368D01*
X473325Y246366D01*
X473282Y246348D01*
X473235Y246340D01*
X473178Y246306D01*
X473118Y246281D01*
X473083Y246250D01*
X473042Y246225D01*
X473001Y246174D01*
X472952Y246130D01*
X472930Y246088D01*
X472901Y246051D01*
X472880Y245989D01*
X472849Y245930D01*
X472841Y245876D01*
X472829Y245839D01*
X472829Y245835D01*
X472829Y245834D01*
X472830Y245799D01*
X472822Y245745D01*
X472822Y241935D01*
X472833Y241870D01*
X472835Y241804D01*
X472853Y241761D01*
X472861Y241714D01*
X472895Y241657D01*
X472920Y241597D01*
X472951Y241562D01*
X472976Y241521D01*
X473027Y241480D01*
X473071Y241431D01*
X473113Y241409D01*
X473150Y241380D01*
X473212Y241359D01*
X473271Y241328D01*
X473325Y241320D01*
X473362Y241308D01*
X473402Y241309D01*
X473456Y241301D01*
X475996Y241301D01*
X476061Y241312D01*
G37*
G36*
X90489Y241312D02*
X90489Y241312D01*
X90555Y241314D01*
X90598Y241332D01*
X90645Y241340D01*
X90702Y241374D01*
X90762Y241399D01*
X90797Y241430D01*
X90838Y241455D01*
X90880Y241506D01*
X90928Y241550D01*
X90950Y241592D01*
X90979Y241629D01*
X91000Y241691D01*
X91031Y241750D01*
X91039Y241804D01*
X91051Y241841D01*
X91050Y241881D01*
X91058Y241935D01*
X91058Y245745D01*
X91047Y245810D01*
X91045Y245876D01*
X91027Y245919D01*
X91019Y245966D01*
X90985Y246023D01*
X90960Y246083D01*
X90929Y246118D01*
X90904Y246159D01*
X90853Y246201D01*
X90809Y246249D01*
X90767Y246271D01*
X90730Y246300D01*
X90668Y246321D01*
X90609Y246352D01*
X90555Y246360D01*
X90518Y246372D01*
X90478Y246371D01*
X90424Y246379D01*
X87884Y246379D01*
X87819Y246368D01*
X87753Y246366D01*
X87710Y246348D01*
X87663Y246340D01*
X87606Y246306D01*
X87546Y246281D01*
X87511Y246250D01*
X87470Y246225D01*
X87429Y246174D01*
X87380Y246130D01*
X87358Y246088D01*
X87329Y246051D01*
X87308Y245989D01*
X87277Y245930D01*
X87269Y245876D01*
X87257Y245839D01*
X87257Y245835D01*
X87257Y245834D01*
X87258Y245799D01*
X87250Y245745D01*
X87250Y241935D01*
X87261Y241870D01*
X87263Y241804D01*
X87281Y241761D01*
X87289Y241714D01*
X87323Y241657D01*
X87348Y241597D01*
X87379Y241562D01*
X87404Y241521D01*
X87455Y241480D01*
X87499Y241431D01*
X87541Y241409D01*
X87578Y241380D01*
X87640Y241359D01*
X87699Y241328D01*
X87753Y241320D01*
X87790Y241308D01*
X87830Y241309D01*
X87884Y241301D01*
X90424Y241301D01*
X90489Y241312D01*
G37*
G36*
X90489Y231152D02*
X90489Y231152D01*
X90555Y231154D01*
X90598Y231172D01*
X90645Y231180D01*
X90702Y231214D01*
X90762Y231239D01*
X90797Y231270D01*
X90838Y231295D01*
X90880Y231346D01*
X90928Y231390D01*
X90950Y231432D01*
X90979Y231469D01*
X91000Y231531D01*
X91031Y231590D01*
X91039Y231644D01*
X91051Y231681D01*
X91050Y231721D01*
X91058Y231775D01*
X91058Y235585D01*
X91047Y235650D01*
X91045Y235716D01*
X91027Y235759D01*
X91019Y235806D01*
X90985Y235863D01*
X90960Y235923D01*
X90929Y235958D01*
X90904Y235999D01*
X90853Y236041D01*
X90809Y236089D01*
X90767Y236111D01*
X90730Y236140D01*
X90668Y236161D01*
X90609Y236192D01*
X90555Y236200D01*
X90518Y236212D01*
X90478Y236211D01*
X90424Y236219D01*
X87884Y236219D01*
X87819Y236208D01*
X87753Y236206D01*
X87710Y236188D01*
X87663Y236180D01*
X87606Y236146D01*
X87546Y236121D01*
X87511Y236090D01*
X87470Y236065D01*
X87429Y236014D01*
X87380Y235970D01*
X87358Y235928D01*
X87329Y235891D01*
X87308Y235829D01*
X87277Y235770D01*
X87269Y235716D01*
X87257Y235679D01*
X87257Y235675D01*
X87257Y235674D01*
X87258Y235639D01*
X87250Y235585D01*
X87250Y231775D01*
X87261Y231710D01*
X87263Y231644D01*
X87281Y231601D01*
X87289Y231554D01*
X87323Y231497D01*
X87348Y231437D01*
X87379Y231402D01*
X87404Y231361D01*
X87455Y231320D01*
X87499Y231271D01*
X87541Y231249D01*
X87578Y231220D01*
X87640Y231199D01*
X87699Y231168D01*
X87753Y231160D01*
X87790Y231148D01*
X87830Y231149D01*
X87884Y231141D01*
X90424Y231141D01*
X90489Y231152D01*
G37*
G36*
X861633Y231152D02*
X861633Y231152D01*
X861699Y231154D01*
X861742Y231172D01*
X861789Y231180D01*
X861846Y231214D01*
X861906Y231239D01*
X861941Y231270D01*
X861982Y231295D01*
X862024Y231346D01*
X862072Y231390D01*
X862094Y231432D01*
X862123Y231469D01*
X862144Y231531D01*
X862175Y231590D01*
X862183Y231644D01*
X862195Y231681D01*
X862194Y231721D01*
X862202Y231775D01*
X862202Y235585D01*
X862191Y235650D01*
X862189Y235716D01*
X862171Y235759D01*
X862163Y235806D01*
X862129Y235863D01*
X862104Y235923D01*
X862073Y235958D01*
X862048Y235999D01*
X861997Y236041D01*
X861953Y236089D01*
X861911Y236111D01*
X861874Y236140D01*
X861812Y236161D01*
X861753Y236192D01*
X861699Y236200D01*
X861662Y236212D01*
X861622Y236211D01*
X861568Y236219D01*
X859028Y236219D01*
X858963Y236208D01*
X858897Y236206D01*
X858854Y236188D01*
X858807Y236180D01*
X858750Y236146D01*
X858690Y236121D01*
X858655Y236090D01*
X858614Y236065D01*
X858573Y236014D01*
X858524Y235970D01*
X858502Y235928D01*
X858473Y235891D01*
X858452Y235829D01*
X858421Y235770D01*
X858413Y235716D01*
X858401Y235679D01*
X858401Y235675D01*
X858401Y235674D01*
X858402Y235639D01*
X858394Y235585D01*
X858394Y231775D01*
X858405Y231710D01*
X858407Y231644D01*
X858425Y231601D01*
X858433Y231554D01*
X858467Y231497D01*
X858492Y231437D01*
X858523Y231402D01*
X858548Y231361D01*
X858599Y231320D01*
X858643Y231271D01*
X858685Y231249D01*
X858722Y231220D01*
X858784Y231199D01*
X858843Y231168D01*
X858897Y231160D01*
X858934Y231148D01*
X858974Y231149D01*
X859028Y231141D01*
X861568Y231141D01*
X861633Y231152D01*
G37*
G36*
X208726Y729119D02*
X208726Y729119D01*
X208792Y729121D01*
X208835Y729139D01*
X208882Y729147D01*
X208939Y729181D01*
X208999Y729206D01*
X209034Y729237D01*
X209075Y729262D01*
X209117Y729313D01*
X209165Y729357D01*
X209187Y729399D01*
X209216Y729436D01*
X209237Y729498D01*
X209268Y729557D01*
X209276Y729611D01*
X209288Y729648D01*
X209287Y729688D01*
X209295Y729742D01*
X209295Y732282D01*
X209284Y732347D01*
X209282Y732413D01*
X209264Y732456D01*
X209256Y732503D01*
X209222Y732560D01*
X209197Y732620D01*
X209166Y732655D01*
X209141Y732696D01*
X209090Y732738D01*
X209046Y732786D01*
X209004Y732808D01*
X208967Y732837D01*
X208905Y732858D01*
X208846Y732889D01*
X208792Y732897D01*
X208755Y732909D01*
X208715Y732908D01*
X208661Y732916D01*
X204851Y732916D01*
X204786Y732905D01*
X204720Y732903D01*
X204677Y732885D01*
X204630Y732877D01*
X204573Y732843D01*
X204513Y732818D01*
X204478Y732787D01*
X204437Y732762D01*
X204396Y732711D01*
X204347Y732667D01*
X204325Y732625D01*
X204296Y732588D01*
X204275Y732526D01*
X204244Y732467D01*
X204236Y732413D01*
X204224Y732376D01*
X204224Y732373D01*
X204225Y732336D01*
X204217Y732282D01*
X204217Y729742D01*
X204228Y729677D01*
X204230Y729611D01*
X204248Y729568D01*
X204256Y729521D01*
X204290Y729464D01*
X204315Y729404D01*
X204346Y729369D01*
X204371Y729328D01*
X204422Y729287D01*
X204466Y729238D01*
X204508Y729216D01*
X204545Y729187D01*
X204607Y729166D01*
X204666Y729135D01*
X204720Y729127D01*
X204757Y729115D01*
X204797Y729116D01*
X204851Y729108D01*
X208661Y729108D01*
X208726Y729119D01*
G37*
G36*
X944056Y729119D02*
X944056Y729119D01*
X944122Y729121D01*
X944165Y729139D01*
X944212Y729147D01*
X944269Y729181D01*
X944329Y729206D01*
X944364Y729237D01*
X944405Y729262D01*
X944447Y729313D01*
X944495Y729357D01*
X944517Y729399D01*
X944546Y729436D01*
X944567Y729498D01*
X944598Y729557D01*
X944606Y729611D01*
X944618Y729648D01*
X944617Y729688D01*
X944625Y729742D01*
X944625Y732282D01*
X944614Y732347D01*
X944612Y732413D01*
X944594Y732456D01*
X944586Y732503D01*
X944552Y732560D01*
X944527Y732620D01*
X944496Y732655D01*
X944471Y732696D01*
X944420Y732738D01*
X944376Y732786D01*
X944334Y732808D01*
X944297Y732837D01*
X944235Y732858D01*
X944176Y732889D01*
X944122Y732897D01*
X944085Y732909D01*
X944045Y732908D01*
X943991Y732916D01*
X940181Y732916D01*
X940116Y732905D01*
X940050Y732903D01*
X940007Y732885D01*
X939960Y732877D01*
X939903Y732843D01*
X939843Y732818D01*
X939808Y732787D01*
X939767Y732762D01*
X939726Y732711D01*
X939677Y732667D01*
X939655Y732625D01*
X939626Y732588D01*
X939605Y732526D01*
X939574Y732467D01*
X939566Y732413D01*
X939554Y732376D01*
X939554Y732373D01*
X939555Y732336D01*
X939547Y732282D01*
X939547Y729742D01*
X939558Y729677D01*
X939560Y729611D01*
X939578Y729568D01*
X939586Y729521D01*
X939620Y729464D01*
X939645Y729404D01*
X939676Y729369D01*
X939701Y729328D01*
X939752Y729287D01*
X939796Y729238D01*
X939838Y729216D01*
X939875Y729187D01*
X939937Y729166D01*
X939996Y729135D01*
X940050Y729127D01*
X940087Y729115D01*
X940127Y729116D01*
X940181Y729108D01*
X943991Y729108D01*
X944056Y729119D01*
G37*
G36*
X558484Y729119D02*
X558484Y729119D01*
X558550Y729121D01*
X558593Y729139D01*
X558640Y729147D01*
X558697Y729181D01*
X558757Y729206D01*
X558792Y729237D01*
X558833Y729262D01*
X558875Y729313D01*
X558923Y729357D01*
X558945Y729399D01*
X558974Y729436D01*
X558995Y729498D01*
X559026Y729557D01*
X559034Y729611D01*
X559046Y729648D01*
X559045Y729688D01*
X559053Y729742D01*
X559053Y732282D01*
X559042Y732347D01*
X559040Y732413D01*
X559022Y732456D01*
X559014Y732503D01*
X558980Y732560D01*
X558955Y732620D01*
X558924Y732655D01*
X558899Y732696D01*
X558848Y732738D01*
X558804Y732786D01*
X558762Y732808D01*
X558725Y732837D01*
X558663Y732858D01*
X558604Y732889D01*
X558550Y732897D01*
X558513Y732909D01*
X558473Y732908D01*
X558419Y732916D01*
X554609Y732916D01*
X554544Y732905D01*
X554478Y732903D01*
X554435Y732885D01*
X554388Y732877D01*
X554331Y732843D01*
X554271Y732818D01*
X554236Y732787D01*
X554195Y732762D01*
X554154Y732711D01*
X554105Y732667D01*
X554083Y732625D01*
X554054Y732588D01*
X554033Y732526D01*
X554002Y732467D01*
X553994Y732413D01*
X553982Y732376D01*
X553982Y732373D01*
X553983Y732336D01*
X553975Y732282D01*
X553975Y729742D01*
X553986Y729677D01*
X553988Y729611D01*
X554006Y729568D01*
X554014Y729521D01*
X554048Y729464D01*
X554073Y729404D01*
X554104Y729369D01*
X554129Y729328D01*
X554180Y729287D01*
X554224Y729238D01*
X554266Y729216D01*
X554303Y729187D01*
X554365Y729166D01*
X554424Y729135D01*
X554478Y729127D01*
X554515Y729115D01*
X554555Y729116D01*
X554609Y729108D01*
X558419Y729108D01*
X558484Y729119D01*
G37*
G36*
X172912Y729119D02*
X172912Y729119D01*
X172978Y729121D01*
X173021Y729139D01*
X173068Y729147D01*
X173125Y729181D01*
X173185Y729206D01*
X173220Y729237D01*
X173261Y729262D01*
X173303Y729313D01*
X173351Y729357D01*
X173373Y729399D01*
X173402Y729436D01*
X173423Y729498D01*
X173454Y729557D01*
X173462Y729611D01*
X173474Y729648D01*
X173473Y729688D01*
X173481Y729742D01*
X173481Y732282D01*
X173470Y732347D01*
X173468Y732413D01*
X173450Y732456D01*
X173442Y732503D01*
X173408Y732560D01*
X173383Y732620D01*
X173352Y732655D01*
X173327Y732696D01*
X173276Y732738D01*
X173232Y732786D01*
X173190Y732808D01*
X173153Y732837D01*
X173091Y732858D01*
X173032Y732889D01*
X172978Y732897D01*
X172941Y732909D01*
X172901Y732908D01*
X172847Y732916D01*
X169037Y732916D01*
X168972Y732905D01*
X168906Y732903D01*
X168863Y732885D01*
X168816Y732877D01*
X168759Y732843D01*
X168699Y732818D01*
X168664Y732787D01*
X168623Y732762D01*
X168582Y732711D01*
X168533Y732667D01*
X168511Y732625D01*
X168482Y732588D01*
X168461Y732526D01*
X168430Y732467D01*
X168422Y732413D01*
X168410Y732376D01*
X168410Y732373D01*
X168411Y732336D01*
X168403Y732282D01*
X168403Y729742D01*
X168414Y729677D01*
X168416Y729611D01*
X168434Y729568D01*
X168442Y729521D01*
X168476Y729464D01*
X168501Y729404D01*
X168532Y729369D01*
X168557Y729328D01*
X168608Y729287D01*
X168652Y729238D01*
X168694Y729216D01*
X168731Y729187D01*
X168793Y729166D01*
X168852Y729135D01*
X168906Y729127D01*
X168943Y729115D01*
X168983Y729116D01*
X169037Y729108D01*
X172847Y729108D01*
X172912Y729119D01*
G37*
G36*
X979870Y729119D02*
X979870Y729119D01*
X979936Y729121D01*
X979979Y729139D01*
X980026Y729147D01*
X980083Y729181D01*
X980143Y729206D01*
X980178Y729237D01*
X980219Y729262D01*
X980261Y729313D01*
X980309Y729357D01*
X980331Y729399D01*
X980360Y729436D01*
X980381Y729498D01*
X980412Y729557D01*
X980420Y729611D01*
X980432Y729648D01*
X980431Y729688D01*
X980439Y729742D01*
X980439Y732282D01*
X980428Y732347D01*
X980426Y732413D01*
X980408Y732456D01*
X980400Y732503D01*
X980366Y732560D01*
X980341Y732620D01*
X980310Y732655D01*
X980285Y732696D01*
X980234Y732738D01*
X980190Y732786D01*
X980148Y732808D01*
X980111Y732837D01*
X980049Y732858D01*
X979990Y732889D01*
X979936Y732897D01*
X979899Y732909D01*
X979859Y732908D01*
X979805Y732916D01*
X975995Y732916D01*
X975930Y732905D01*
X975864Y732903D01*
X975821Y732885D01*
X975774Y732877D01*
X975717Y732843D01*
X975657Y732818D01*
X975622Y732787D01*
X975581Y732762D01*
X975540Y732711D01*
X975491Y732667D01*
X975469Y732625D01*
X975440Y732588D01*
X975419Y732526D01*
X975388Y732467D01*
X975380Y732413D01*
X975368Y732376D01*
X975368Y732373D01*
X975369Y732336D01*
X975361Y732282D01*
X975361Y729742D01*
X975372Y729677D01*
X975374Y729611D01*
X975392Y729568D01*
X975400Y729521D01*
X975434Y729464D01*
X975459Y729404D01*
X975490Y729369D01*
X975515Y729328D01*
X975566Y729287D01*
X975610Y729238D01*
X975652Y729216D01*
X975689Y729187D01*
X975751Y729166D01*
X975810Y729135D01*
X975864Y729127D01*
X975901Y729115D01*
X975941Y729116D01*
X975995Y729108D01*
X979805Y729108D01*
X979870Y729119D01*
G37*
G36*
X594298Y729119D02*
X594298Y729119D01*
X594364Y729121D01*
X594407Y729139D01*
X594454Y729147D01*
X594511Y729181D01*
X594571Y729206D01*
X594606Y729237D01*
X594647Y729262D01*
X594689Y729313D01*
X594737Y729357D01*
X594759Y729399D01*
X594788Y729436D01*
X594809Y729498D01*
X594840Y729557D01*
X594848Y729611D01*
X594860Y729648D01*
X594859Y729688D01*
X594867Y729742D01*
X594867Y732282D01*
X594856Y732347D01*
X594854Y732413D01*
X594836Y732456D01*
X594828Y732503D01*
X594794Y732560D01*
X594769Y732620D01*
X594738Y732655D01*
X594713Y732696D01*
X594662Y732738D01*
X594618Y732786D01*
X594576Y732808D01*
X594539Y732837D01*
X594477Y732858D01*
X594418Y732889D01*
X594364Y732897D01*
X594327Y732909D01*
X594287Y732908D01*
X594233Y732916D01*
X590423Y732916D01*
X590358Y732905D01*
X590292Y732903D01*
X590249Y732885D01*
X590202Y732877D01*
X590145Y732843D01*
X590085Y732818D01*
X590050Y732787D01*
X590009Y732762D01*
X589968Y732711D01*
X589919Y732667D01*
X589897Y732625D01*
X589868Y732588D01*
X589847Y732526D01*
X589816Y732467D01*
X589808Y732413D01*
X589796Y732376D01*
X589796Y732373D01*
X589797Y732336D01*
X589789Y732282D01*
X589789Y729742D01*
X589800Y729677D01*
X589802Y729611D01*
X589820Y729568D01*
X589828Y729521D01*
X589862Y729464D01*
X589887Y729404D01*
X589918Y729369D01*
X589943Y729328D01*
X589994Y729287D01*
X590038Y729238D01*
X590080Y729216D01*
X590117Y729187D01*
X590179Y729166D01*
X590238Y729135D01*
X590292Y729127D01*
X590329Y729115D01*
X590369Y729116D01*
X590423Y729108D01*
X594233Y729108D01*
X594298Y729119D01*
G37*
G36*
X211520Y629551D02*
X211520Y629551D01*
X211586Y629553D01*
X211629Y629571D01*
X211676Y629579D01*
X211733Y629613D01*
X211793Y629638D01*
X211828Y629669D01*
X211869Y629694D01*
X211911Y629745D01*
X211959Y629789D01*
X211981Y629831D01*
X212010Y629868D01*
X212031Y629930D01*
X212062Y629989D01*
X212070Y630043D01*
X212082Y630080D01*
X212081Y630120D01*
X212089Y630174D01*
X212089Y632714D01*
X212078Y632779D01*
X212076Y632845D01*
X212058Y632888D01*
X212050Y632935D01*
X212016Y632992D01*
X211991Y633052D01*
X211960Y633087D01*
X211935Y633128D01*
X211884Y633170D01*
X211840Y633218D01*
X211798Y633240D01*
X211761Y633269D01*
X211699Y633290D01*
X211640Y633321D01*
X211586Y633329D01*
X211549Y633341D01*
X211509Y633340D01*
X211455Y633348D01*
X207645Y633348D01*
X207580Y633337D01*
X207514Y633335D01*
X207471Y633317D01*
X207424Y633309D01*
X207367Y633275D01*
X207307Y633250D01*
X207272Y633219D01*
X207231Y633194D01*
X207190Y633143D01*
X207141Y633099D01*
X207119Y633057D01*
X207090Y633020D01*
X207069Y632958D01*
X207038Y632899D01*
X207030Y632845D01*
X207018Y632808D01*
X207018Y632805D01*
X207019Y632768D01*
X207011Y632714D01*
X207011Y630174D01*
X207022Y630109D01*
X207024Y630043D01*
X207042Y630000D01*
X207050Y629953D01*
X207084Y629896D01*
X207109Y629836D01*
X207140Y629801D01*
X207165Y629760D01*
X207216Y629719D01*
X207260Y629670D01*
X207302Y629648D01*
X207339Y629619D01*
X207401Y629598D01*
X207460Y629567D01*
X207514Y629559D01*
X207551Y629547D01*
X207591Y629548D01*
X207645Y629540D01*
X211455Y629540D01*
X211520Y629551D01*
G37*
G36*
X982664Y629551D02*
X982664Y629551D01*
X982730Y629553D01*
X982773Y629571D01*
X982820Y629579D01*
X982877Y629613D01*
X982937Y629638D01*
X982972Y629669D01*
X983013Y629694D01*
X983055Y629745D01*
X983103Y629789D01*
X983125Y629831D01*
X983154Y629868D01*
X983175Y629930D01*
X983206Y629989D01*
X983214Y630043D01*
X983226Y630080D01*
X983225Y630120D01*
X983233Y630174D01*
X983233Y632714D01*
X983222Y632779D01*
X983220Y632845D01*
X983202Y632888D01*
X983194Y632935D01*
X983160Y632992D01*
X983135Y633052D01*
X983104Y633087D01*
X983079Y633128D01*
X983028Y633170D01*
X982984Y633218D01*
X982942Y633240D01*
X982905Y633269D01*
X982843Y633290D01*
X982784Y633321D01*
X982730Y633329D01*
X982693Y633341D01*
X982653Y633340D01*
X982599Y633348D01*
X978789Y633348D01*
X978724Y633337D01*
X978658Y633335D01*
X978615Y633317D01*
X978568Y633309D01*
X978511Y633275D01*
X978451Y633250D01*
X978416Y633219D01*
X978375Y633194D01*
X978334Y633143D01*
X978285Y633099D01*
X978263Y633057D01*
X978234Y633020D01*
X978213Y632958D01*
X978182Y632899D01*
X978174Y632845D01*
X978162Y632808D01*
X978162Y632805D01*
X978163Y632768D01*
X978155Y632714D01*
X978155Y630174D01*
X978166Y630109D01*
X978168Y630043D01*
X978186Y630000D01*
X978194Y629953D01*
X978228Y629896D01*
X978253Y629836D01*
X978284Y629801D01*
X978309Y629760D01*
X978360Y629719D01*
X978404Y629670D01*
X978446Y629648D01*
X978483Y629619D01*
X978545Y629598D01*
X978604Y629567D01*
X978658Y629559D01*
X978695Y629547D01*
X978735Y629548D01*
X978789Y629540D01*
X982599Y629540D01*
X982664Y629551D01*
G37*
G36*
X175706Y629551D02*
X175706Y629551D01*
X175772Y629553D01*
X175815Y629571D01*
X175862Y629579D01*
X175919Y629613D01*
X175979Y629638D01*
X176014Y629669D01*
X176055Y629694D01*
X176097Y629745D01*
X176145Y629789D01*
X176167Y629831D01*
X176196Y629868D01*
X176217Y629930D01*
X176248Y629989D01*
X176256Y630043D01*
X176268Y630080D01*
X176267Y630120D01*
X176275Y630174D01*
X176275Y632714D01*
X176264Y632779D01*
X176262Y632845D01*
X176244Y632888D01*
X176236Y632935D01*
X176202Y632992D01*
X176177Y633052D01*
X176146Y633087D01*
X176121Y633128D01*
X176070Y633170D01*
X176026Y633218D01*
X175984Y633240D01*
X175947Y633269D01*
X175885Y633290D01*
X175826Y633321D01*
X175772Y633329D01*
X175735Y633341D01*
X175695Y633340D01*
X175641Y633348D01*
X171831Y633348D01*
X171766Y633337D01*
X171700Y633335D01*
X171657Y633317D01*
X171610Y633309D01*
X171553Y633275D01*
X171493Y633250D01*
X171458Y633219D01*
X171417Y633194D01*
X171376Y633143D01*
X171327Y633099D01*
X171305Y633057D01*
X171276Y633020D01*
X171255Y632958D01*
X171224Y632899D01*
X171216Y632845D01*
X171204Y632808D01*
X171204Y632805D01*
X171205Y632768D01*
X171197Y632714D01*
X171197Y630174D01*
X171208Y630109D01*
X171210Y630043D01*
X171228Y630000D01*
X171236Y629953D01*
X171270Y629896D01*
X171295Y629836D01*
X171326Y629801D01*
X171351Y629760D01*
X171402Y629719D01*
X171446Y629670D01*
X171488Y629648D01*
X171525Y629619D01*
X171587Y629598D01*
X171646Y629567D01*
X171700Y629559D01*
X171737Y629547D01*
X171777Y629548D01*
X171831Y629540D01*
X175641Y629540D01*
X175706Y629551D01*
G37*
G36*
X561278Y629551D02*
X561278Y629551D01*
X561344Y629553D01*
X561387Y629571D01*
X561434Y629579D01*
X561491Y629613D01*
X561551Y629638D01*
X561586Y629669D01*
X561627Y629694D01*
X561669Y629745D01*
X561717Y629789D01*
X561739Y629831D01*
X561768Y629868D01*
X561789Y629930D01*
X561820Y629989D01*
X561828Y630043D01*
X561840Y630080D01*
X561839Y630120D01*
X561847Y630174D01*
X561847Y632714D01*
X561836Y632779D01*
X561834Y632845D01*
X561816Y632888D01*
X561808Y632935D01*
X561774Y632992D01*
X561749Y633052D01*
X561718Y633087D01*
X561693Y633128D01*
X561642Y633170D01*
X561598Y633218D01*
X561556Y633240D01*
X561519Y633269D01*
X561457Y633290D01*
X561398Y633321D01*
X561344Y633329D01*
X561307Y633341D01*
X561267Y633340D01*
X561213Y633348D01*
X557403Y633348D01*
X557338Y633337D01*
X557272Y633335D01*
X557229Y633317D01*
X557182Y633309D01*
X557125Y633275D01*
X557065Y633250D01*
X557030Y633219D01*
X556989Y633194D01*
X556948Y633143D01*
X556899Y633099D01*
X556877Y633057D01*
X556848Y633020D01*
X556827Y632958D01*
X556796Y632899D01*
X556788Y632845D01*
X556776Y632808D01*
X556776Y632805D01*
X556777Y632768D01*
X556769Y632714D01*
X556769Y630174D01*
X556780Y630109D01*
X556782Y630043D01*
X556800Y630000D01*
X556808Y629953D01*
X556842Y629896D01*
X556867Y629836D01*
X556898Y629801D01*
X556923Y629760D01*
X556974Y629719D01*
X557018Y629670D01*
X557060Y629648D01*
X557097Y629619D01*
X557159Y629598D01*
X557218Y629567D01*
X557272Y629559D01*
X557309Y629547D01*
X557349Y629548D01*
X557403Y629540D01*
X561213Y629540D01*
X561278Y629551D01*
G37*
G36*
X946850Y629551D02*
X946850Y629551D01*
X946916Y629553D01*
X946959Y629571D01*
X947006Y629579D01*
X947063Y629613D01*
X947123Y629638D01*
X947158Y629669D01*
X947199Y629694D01*
X947241Y629745D01*
X947289Y629789D01*
X947311Y629831D01*
X947340Y629868D01*
X947361Y629930D01*
X947392Y629989D01*
X947400Y630043D01*
X947412Y630080D01*
X947411Y630120D01*
X947419Y630174D01*
X947419Y632714D01*
X947408Y632779D01*
X947406Y632845D01*
X947388Y632888D01*
X947380Y632935D01*
X947346Y632992D01*
X947321Y633052D01*
X947290Y633087D01*
X947265Y633128D01*
X947214Y633170D01*
X947170Y633218D01*
X947128Y633240D01*
X947091Y633269D01*
X947029Y633290D01*
X946970Y633321D01*
X946916Y633329D01*
X946879Y633341D01*
X946839Y633340D01*
X946785Y633348D01*
X942975Y633348D01*
X942910Y633337D01*
X942844Y633335D01*
X942801Y633317D01*
X942754Y633309D01*
X942697Y633275D01*
X942637Y633250D01*
X942602Y633219D01*
X942561Y633194D01*
X942520Y633143D01*
X942471Y633099D01*
X942449Y633057D01*
X942420Y633020D01*
X942399Y632958D01*
X942368Y632899D01*
X942360Y632845D01*
X942348Y632808D01*
X942348Y632805D01*
X942349Y632768D01*
X942341Y632714D01*
X942341Y630174D01*
X942352Y630109D01*
X942354Y630043D01*
X942372Y630000D01*
X942380Y629953D01*
X942414Y629896D01*
X942439Y629836D01*
X942470Y629801D01*
X942495Y629760D01*
X942546Y629719D01*
X942590Y629670D01*
X942632Y629648D01*
X942669Y629619D01*
X942731Y629598D01*
X942790Y629567D01*
X942844Y629559D01*
X942881Y629547D01*
X942921Y629548D01*
X942975Y629540D01*
X946785Y629540D01*
X946850Y629551D01*
G37*
G36*
X597092Y629551D02*
X597092Y629551D01*
X597158Y629553D01*
X597201Y629571D01*
X597248Y629579D01*
X597305Y629613D01*
X597365Y629638D01*
X597400Y629669D01*
X597441Y629694D01*
X597483Y629745D01*
X597531Y629789D01*
X597553Y629831D01*
X597582Y629868D01*
X597603Y629930D01*
X597634Y629989D01*
X597642Y630043D01*
X597654Y630080D01*
X597653Y630120D01*
X597661Y630174D01*
X597661Y632714D01*
X597650Y632779D01*
X597648Y632845D01*
X597630Y632888D01*
X597622Y632935D01*
X597588Y632992D01*
X597563Y633052D01*
X597532Y633087D01*
X597507Y633128D01*
X597456Y633170D01*
X597412Y633218D01*
X597370Y633240D01*
X597333Y633269D01*
X597271Y633290D01*
X597212Y633321D01*
X597158Y633329D01*
X597121Y633341D01*
X597081Y633340D01*
X597027Y633348D01*
X593217Y633348D01*
X593152Y633337D01*
X593086Y633335D01*
X593043Y633317D01*
X592996Y633309D01*
X592939Y633275D01*
X592879Y633250D01*
X592844Y633219D01*
X592803Y633194D01*
X592762Y633143D01*
X592713Y633099D01*
X592691Y633057D01*
X592662Y633020D01*
X592641Y632958D01*
X592610Y632899D01*
X592602Y632845D01*
X592590Y632808D01*
X592590Y632805D01*
X592591Y632768D01*
X592583Y632714D01*
X592583Y630174D01*
X592594Y630109D01*
X592596Y630043D01*
X592614Y630000D01*
X592622Y629953D01*
X592656Y629896D01*
X592681Y629836D01*
X592712Y629801D01*
X592737Y629760D01*
X592788Y629719D01*
X592832Y629670D01*
X592874Y629648D01*
X592911Y629619D01*
X592973Y629598D01*
X593032Y629567D01*
X593086Y629559D01*
X593123Y629547D01*
X593163Y629548D01*
X593217Y629540D01*
X597027Y629540D01*
X597092Y629551D01*
G37*
D10*
X83310Y246378D02*
X83310Y251970D01*
X94998Y251970D01*
X94998Y246378D01*
X83310Y246378D01*
X83310Y248547D02*
X94998Y248547D01*
X94998Y250716D02*
X83310Y250716D01*
X83310Y241556D02*
X83310Y235964D01*
X83310Y241556D02*
X94998Y241556D01*
X94998Y235964D01*
X83310Y235964D01*
X83310Y238133D02*
X94998Y238133D01*
X94998Y240302D02*
X83310Y240302D01*
X83310Y231142D02*
X83310Y225550D01*
X83310Y231142D02*
X94998Y231142D01*
X94998Y225550D01*
X83310Y225550D01*
X83310Y227719D02*
X94998Y227719D01*
X94998Y229888D02*
X83310Y229888D01*
X165733Y625600D02*
X171325Y625600D01*
X165733Y625600D02*
X165733Y637288D01*
X171325Y637288D01*
X171325Y625600D01*
X171325Y627769D02*
X165733Y627769D01*
X165733Y629938D02*
X171325Y629938D01*
X171325Y632107D02*
X165733Y632107D01*
X165733Y634276D02*
X171325Y634276D01*
X171325Y636445D02*
X165733Y636445D01*
X176147Y625600D02*
X181739Y625600D01*
X176147Y625600D02*
X176147Y637288D01*
X181739Y637288D01*
X181739Y625600D01*
X181739Y627769D02*
X176147Y627769D01*
X176147Y629938D02*
X181739Y629938D01*
X181739Y632107D02*
X176147Y632107D01*
X176147Y634276D02*
X181739Y634276D01*
X181739Y636445D02*
X176147Y636445D01*
X201547Y625600D02*
X207139Y625600D01*
X201547Y625600D02*
X201547Y637288D01*
X207139Y637288D01*
X207139Y625600D01*
X207139Y627769D02*
X201547Y627769D01*
X201547Y629938D02*
X207139Y629938D01*
X207139Y632107D02*
X201547Y632107D01*
X201547Y634276D02*
X207139Y634276D01*
X207139Y636445D02*
X201547Y636445D01*
X211961Y625600D02*
X217553Y625600D01*
X211961Y625600D02*
X211961Y637288D01*
X217553Y637288D01*
X217553Y625600D01*
X217553Y627769D02*
X211961Y627769D01*
X211961Y629938D02*
X217553Y629938D01*
X217553Y632107D02*
X211961Y632107D01*
X211961Y634276D02*
X217553Y634276D01*
X217553Y636445D02*
X211961Y636445D01*
D11*
X308300Y601698D03*
X250500Y601698D03*
D12*
X83196Y608338D02*
X69204Y608338D01*
X69204Y647330D01*
X83196Y647330D01*
X83196Y608338D01*
X83196Y610502D02*
X69204Y610502D01*
X69204Y612666D02*
X83196Y612666D01*
X83196Y614830D02*
X69204Y614830D01*
X69204Y616994D02*
X83196Y616994D01*
X83196Y619158D02*
X69204Y619158D01*
X69204Y621322D02*
X83196Y621322D01*
X83196Y623486D02*
X69204Y623486D01*
X69204Y625650D02*
X83196Y625650D01*
X83196Y627814D02*
X69204Y627814D01*
X69204Y629978D02*
X83196Y629978D01*
X83196Y632142D02*
X69204Y632142D01*
X69204Y634306D02*
X83196Y634306D01*
X83196Y636470D02*
X69204Y636470D01*
X69204Y638634D02*
X83196Y638634D01*
X83196Y640798D02*
X69204Y640798D01*
X69204Y642962D02*
X83196Y642962D01*
X83196Y645126D02*
X69204Y645126D01*
X69204Y647290D02*
X83196Y647290D01*
X120004Y608338D02*
X133996Y608338D01*
X120004Y608338D02*
X120004Y647330D01*
X133996Y647330D01*
X133996Y608338D01*
X133996Y610502D02*
X120004Y610502D01*
X120004Y612666D02*
X133996Y612666D01*
X133996Y614830D02*
X120004Y614830D01*
X120004Y616994D02*
X133996Y616994D01*
X133996Y619158D02*
X120004Y619158D01*
X120004Y621322D02*
X133996Y621322D01*
X133996Y623486D02*
X120004Y623486D01*
X120004Y625650D02*
X133996Y625650D01*
X133996Y627814D02*
X120004Y627814D01*
X120004Y629978D02*
X133996Y629978D01*
X133996Y632142D02*
X120004Y632142D01*
X120004Y634306D02*
X133996Y634306D01*
X133996Y636470D02*
X120004Y636470D01*
X120004Y638634D02*
X133996Y638634D01*
X133996Y640798D02*
X120004Y640798D01*
X120004Y642962D02*
X133996Y642962D01*
X133996Y645126D02*
X120004Y645126D01*
X120004Y647290D02*
X133996Y647290D01*
D13*
X349504Y228092D03*
D14*
X18020Y66040D03*
X361960Y600680D03*
D15*
X281740Y6010D02*
X279260Y6010D01*
X279260Y24490D01*
X281740Y24490D01*
X281740Y6010D01*
X281740Y8185D02*
X279260Y8185D01*
X279260Y10360D02*
X281740Y10360D01*
X281740Y12535D02*
X279260Y12535D01*
X279260Y14710D02*
X281740Y14710D01*
X281740Y16885D02*
X279260Y16885D01*
X279260Y19060D02*
X281740Y19060D01*
X281740Y21235D02*
X279260Y21235D01*
X279260Y23410D02*
X281740Y23410D01*
X276740Y6010D02*
X274260Y6010D01*
X274260Y24490D01*
X276740Y24490D01*
X276740Y6010D01*
X276740Y8185D02*
X274260Y8185D01*
X274260Y10360D02*
X276740Y10360D01*
X276740Y12535D02*
X274260Y12535D01*
X274260Y14710D02*
X276740Y14710D01*
X276740Y16885D02*
X274260Y16885D01*
X274260Y19060D02*
X276740Y19060D01*
X276740Y21235D02*
X274260Y21235D01*
X274260Y23410D02*
X276740Y23410D01*
X271740Y6010D02*
X269260Y6010D01*
X269260Y24490D01*
X271740Y24490D01*
X271740Y6010D01*
X271740Y8185D02*
X269260Y8185D01*
X269260Y10360D02*
X271740Y10360D01*
X271740Y12535D02*
X269260Y12535D01*
X269260Y14710D02*
X271740Y14710D01*
X271740Y16885D02*
X269260Y16885D01*
X269260Y19060D02*
X271740Y19060D01*
X271740Y21235D02*
X269260Y21235D01*
X269260Y23410D02*
X271740Y23410D01*
X266740Y6010D02*
X264260Y6010D01*
X264260Y24490D01*
X266740Y24490D01*
X266740Y6010D01*
X266740Y8185D02*
X264260Y8185D01*
X264260Y10360D02*
X266740Y10360D01*
X266740Y12535D02*
X264260Y12535D01*
X264260Y14710D02*
X266740Y14710D01*
X266740Y16885D02*
X264260Y16885D01*
X264260Y19060D02*
X266740Y19060D01*
X266740Y21235D02*
X264260Y21235D01*
X264260Y23410D02*
X266740Y23410D01*
X261740Y6010D02*
X259260Y6010D01*
X259260Y24490D01*
X261740Y24490D01*
X261740Y6010D01*
X261740Y8185D02*
X259260Y8185D01*
X259260Y10360D02*
X261740Y10360D01*
X261740Y12535D02*
X259260Y12535D01*
X259260Y14710D02*
X261740Y14710D01*
X261740Y16885D02*
X259260Y16885D01*
X259260Y19060D02*
X261740Y19060D01*
X261740Y21235D02*
X259260Y21235D01*
X259260Y23410D02*
X261740Y23410D01*
X256740Y6010D02*
X254260Y6010D01*
X254260Y24490D01*
X256740Y24490D01*
X256740Y6010D01*
X256740Y8185D02*
X254260Y8185D01*
X254260Y10360D02*
X256740Y10360D01*
X256740Y12535D02*
X254260Y12535D01*
X254260Y14710D02*
X256740Y14710D01*
X256740Y16885D02*
X254260Y16885D01*
X254260Y19060D02*
X256740Y19060D01*
X256740Y21235D02*
X254260Y21235D01*
X254260Y23410D02*
X256740Y23410D01*
X251740Y6010D02*
X249260Y6010D01*
X249260Y24490D01*
X251740Y24490D01*
X251740Y6010D01*
X251740Y8185D02*
X249260Y8185D01*
X249260Y10360D02*
X251740Y10360D01*
X251740Y12535D02*
X249260Y12535D01*
X249260Y14710D02*
X251740Y14710D01*
X251740Y16885D02*
X249260Y16885D01*
X249260Y19060D02*
X251740Y19060D01*
X251740Y21235D02*
X249260Y21235D01*
X249260Y23410D02*
X251740Y23410D01*
X246740Y6010D02*
X244260Y6010D01*
X244260Y24490D01*
X246740Y24490D01*
X246740Y6010D01*
X246740Y8185D02*
X244260Y8185D01*
X244260Y10360D02*
X246740Y10360D01*
X246740Y12535D02*
X244260Y12535D01*
X244260Y14710D02*
X246740Y14710D01*
X246740Y16885D02*
X244260Y16885D01*
X244260Y19060D02*
X246740Y19060D01*
X246740Y21235D02*
X244260Y21235D01*
X244260Y23410D02*
X246740Y23410D01*
X241740Y6010D02*
X239260Y6010D01*
X239260Y24490D01*
X241740Y24490D01*
X241740Y6010D01*
X241740Y8185D02*
X239260Y8185D01*
X239260Y10360D02*
X241740Y10360D01*
X241740Y12535D02*
X239260Y12535D01*
X239260Y14710D02*
X241740Y14710D01*
X241740Y16885D02*
X239260Y16885D01*
X239260Y19060D02*
X241740Y19060D01*
X241740Y21235D02*
X239260Y21235D01*
X239260Y23410D02*
X241740Y23410D01*
X236740Y6010D02*
X234260Y6010D01*
X234260Y24490D01*
X236740Y24490D01*
X236740Y6010D01*
X236740Y8185D02*
X234260Y8185D01*
X234260Y10360D02*
X236740Y10360D01*
X236740Y12535D02*
X234260Y12535D01*
X234260Y14710D02*
X236740Y14710D01*
X236740Y16885D02*
X234260Y16885D01*
X234260Y19060D02*
X236740Y19060D01*
X236740Y21235D02*
X234260Y21235D01*
X234260Y23410D02*
X236740Y23410D01*
X231740Y6010D02*
X229260Y6010D01*
X229260Y24490D01*
X231740Y24490D01*
X231740Y6010D01*
X231740Y8185D02*
X229260Y8185D01*
X229260Y10360D02*
X231740Y10360D01*
X231740Y12535D02*
X229260Y12535D01*
X229260Y14710D02*
X231740Y14710D01*
X231740Y16885D02*
X229260Y16885D01*
X229260Y19060D02*
X231740Y19060D01*
X231740Y21235D02*
X229260Y21235D01*
X229260Y23410D02*
X231740Y23410D01*
X206740Y6010D02*
X204260Y6010D01*
X204260Y24490D01*
X206740Y24490D01*
X206740Y6010D01*
X206740Y8185D02*
X204260Y8185D01*
X204260Y10360D02*
X206740Y10360D01*
X206740Y12535D02*
X204260Y12535D01*
X204260Y14710D02*
X206740Y14710D01*
X206740Y16885D02*
X204260Y16885D01*
X204260Y19060D02*
X206740Y19060D01*
X206740Y21235D02*
X204260Y21235D01*
X204260Y23410D02*
X206740Y23410D01*
X201740Y6010D02*
X199260Y6010D01*
X199260Y24490D01*
X201740Y24490D01*
X201740Y6010D01*
X201740Y8185D02*
X199260Y8185D01*
X199260Y10360D02*
X201740Y10360D01*
X201740Y12535D02*
X199260Y12535D01*
X199260Y14710D02*
X201740Y14710D01*
X201740Y16885D02*
X199260Y16885D01*
X199260Y19060D02*
X201740Y19060D01*
X201740Y21235D02*
X199260Y21235D01*
X199260Y23410D02*
X201740Y23410D01*
X196740Y6010D02*
X194260Y6010D01*
X194260Y24490D01*
X196740Y24490D01*
X196740Y6010D01*
X196740Y8185D02*
X194260Y8185D01*
X194260Y10360D02*
X196740Y10360D01*
X196740Y12535D02*
X194260Y12535D01*
X194260Y14710D02*
X196740Y14710D01*
X196740Y16885D02*
X194260Y16885D01*
X194260Y19060D02*
X196740Y19060D01*
X196740Y21235D02*
X194260Y21235D01*
X194260Y23410D02*
X196740Y23410D01*
X191740Y6010D02*
X189260Y6010D01*
X189260Y24490D01*
X191740Y24490D01*
X191740Y6010D01*
X191740Y8185D02*
X189260Y8185D01*
X189260Y10360D02*
X191740Y10360D01*
X191740Y12535D02*
X189260Y12535D01*
X189260Y14710D02*
X191740Y14710D01*
X191740Y16885D02*
X189260Y16885D01*
X189260Y19060D02*
X191740Y19060D01*
X191740Y21235D02*
X189260Y21235D01*
X189260Y23410D02*
X191740Y23410D01*
X186740Y6010D02*
X184260Y6010D01*
X184260Y24490D01*
X186740Y24490D01*
X186740Y6010D01*
X186740Y8185D02*
X184260Y8185D01*
X184260Y10360D02*
X186740Y10360D01*
X186740Y12535D02*
X184260Y12535D01*
X184260Y14710D02*
X186740Y14710D01*
X186740Y16885D02*
X184260Y16885D01*
X184260Y19060D02*
X186740Y19060D01*
X186740Y21235D02*
X184260Y21235D01*
X184260Y23410D02*
X186740Y23410D01*
X181740Y6010D02*
X179260Y6010D01*
X179260Y24490D01*
X181740Y24490D01*
X181740Y6010D01*
X181740Y8185D02*
X179260Y8185D01*
X179260Y10360D02*
X181740Y10360D01*
X181740Y12535D02*
X179260Y12535D01*
X179260Y14710D02*
X181740Y14710D01*
X181740Y16885D02*
X179260Y16885D01*
X179260Y19060D02*
X181740Y19060D01*
X181740Y21235D02*
X179260Y21235D01*
X179260Y23410D02*
X181740Y23410D01*
X176740Y6010D02*
X174260Y6010D01*
X174260Y24490D01*
X176740Y24490D01*
X176740Y6010D01*
X176740Y8185D02*
X174260Y8185D01*
X174260Y10360D02*
X176740Y10360D01*
X176740Y12535D02*
X174260Y12535D01*
X174260Y14710D02*
X176740Y14710D01*
X176740Y16885D02*
X174260Y16885D01*
X174260Y19060D02*
X176740Y19060D01*
X176740Y21235D02*
X174260Y21235D01*
X174260Y23410D02*
X176740Y23410D01*
X171740Y6010D02*
X169260Y6010D01*
X169260Y24490D01*
X171740Y24490D01*
X171740Y6010D01*
X171740Y8185D02*
X169260Y8185D01*
X169260Y10360D02*
X171740Y10360D01*
X171740Y12535D02*
X169260Y12535D01*
X169260Y14710D02*
X171740Y14710D01*
X171740Y16885D02*
X169260Y16885D01*
X169260Y19060D02*
X171740Y19060D01*
X171740Y21235D02*
X169260Y21235D01*
X169260Y23410D02*
X171740Y23410D01*
X166740Y6010D02*
X164260Y6010D01*
X164260Y24490D01*
X166740Y24490D01*
X166740Y6010D01*
X166740Y8185D02*
X164260Y8185D01*
X164260Y10360D02*
X166740Y10360D01*
X166740Y12535D02*
X164260Y12535D01*
X164260Y14710D02*
X166740Y14710D01*
X166740Y16885D02*
X164260Y16885D01*
X164260Y19060D02*
X166740Y19060D01*
X166740Y21235D02*
X164260Y21235D01*
X164260Y23410D02*
X166740Y23410D01*
X161740Y6010D02*
X159260Y6010D01*
X159260Y24490D01*
X161740Y24490D01*
X161740Y6010D01*
X161740Y8185D02*
X159260Y8185D01*
X159260Y10360D02*
X161740Y10360D01*
X161740Y12535D02*
X159260Y12535D01*
X159260Y14710D02*
X161740Y14710D01*
X161740Y16885D02*
X159260Y16885D01*
X159260Y19060D02*
X161740Y19060D01*
X161740Y21235D02*
X159260Y21235D01*
X159260Y23410D02*
X161740Y23410D01*
X156740Y6010D02*
X154260Y6010D01*
X154260Y24490D01*
X156740Y24490D01*
X156740Y6010D01*
X156740Y8185D02*
X154260Y8185D01*
X154260Y10360D02*
X156740Y10360D01*
X156740Y12535D02*
X154260Y12535D01*
X154260Y14710D02*
X156740Y14710D01*
X156740Y16885D02*
X154260Y16885D01*
X154260Y19060D02*
X156740Y19060D01*
X156740Y21235D02*
X154260Y21235D01*
X154260Y23410D02*
X156740Y23410D01*
X151740Y6010D02*
X149260Y6010D01*
X149260Y24490D01*
X151740Y24490D01*
X151740Y6010D01*
X151740Y8185D02*
X149260Y8185D01*
X149260Y10360D02*
X151740Y10360D01*
X151740Y12535D02*
X149260Y12535D01*
X149260Y14710D02*
X151740Y14710D01*
X151740Y16885D02*
X149260Y16885D01*
X149260Y19060D02*
X151740Y19060D01*
X151740Y21235D02*
X149260Y21235D01*
X149260Y23410D02*
X151740Y23410D01*
X146740Y6010D02*
X144260Y6010D01*
X144260Y24490D01*
X146740Y24490D01*
X146740Y6010D01*
X146740Y8185D02*
X144260Y8185D01*
X144260Y10360D02*
X146740Y10360D01*
X146740Y12535D02*
X144260Y12535D01*
X144260Y14710D02*
X146740Y14710D01*
X146740Y16885D02*
X144260Y16885D01*
X144260Y19060D02*
X146740Y19060D01*
X146740Y21235D02*
X144260Y21235D01*
X144260Y23410D02*
X146740Y23410D01*
X141740Y6010D02*
X139260Y6010D01*
X139260Y24490D01*
X141740Y24490D01*
X141740Y6010D01*
X141740Y8185D02*
X139260Y8185D01*
X139260Y10360D02*
X141740Y10360D01*
X141740Y12535D02*
X139260Y12535D01*
X139260Y14710D02*
X141740Y14710D01*
X141740Y16885D02*
X139260Y16885D01*
X139260Y19060D02*
X141740Y19060D01*
X141740Y21235D02*
X139260Y21235D01*
X139260Y23410D02*
X141740Y23410D01*
X136740Y6010D02*
X134260Y6010D01*
X134260Y24490D01*
X136740Y24490D01*
X136740Y6010D01*
X136740Y8185D02*
X134260Y8185D01*
X134260Y10360D02*
X136740Y10360D01*
X136740Y12535D02*
X134260Y12535D01*
X134260Y14710D02*
X136740Y14710D01*
X136740Y16885D02*
X134260Y16885D01*
X134260Y19060D02*
X136740Y19060D01*
X136740Y21235D02*
X134260Y21235D01*
X134260Y23410D02*
X136740Y23410D01*
X131740Y6010D02*
X129260Y6010D01*
X129260Y24490D01*
X131740Y24490D01*
X131740Y6010D01*
X131740Y8185D02*
X129260Y8185D01*
X129260Y10360D02*
X131740Y10360D01*
X131740Y12535D02*
X129260Y12535D01*
X129260Y14710D02*
X131740Y14710D01*
X131740Y16885D02*
X129260Y16885D01*
X129260Y19060D02*
X131740Y19060D01*
X131740Y21235D02*
X129260Y21235D01*
X129260Y23410D02*
X131740Y23410D01*
X126740Y6010D02*
X124260Y6010D01*
X124260Y24490D01*
X126740Y24490D01*
X126740Y6010D01*
X126740Y8185D02*
X124260Y8185D01*
X124260Y10360D02*
X126740Y10360D01*
X126740Y12535D02*
X124260Y12535D01*
X124260Y14710D02*
X126740Y14710D01*
X126740Y16885D02*
X124260Y16885D01*
X124260Y19060D02*
X126740Y19060D01*
X126740Y21235D02*
X124260Y21235D01*
X124260Y23410D02*
X126740Y23410D01*
X121740Y6010D02*
X119260Y6010D01*
X119260Y24490D01*
X121740Y24490D01*
X121740Y6010D01*
X121740Y8185D02*
X119260Y8185D01*
X119260Y10360D02*
X121740Y10360D01*
X121740Y12535D02*
X119260Y12535D01*
X119260Y14710D02*
X121740Y14710D01*
X121740Y16885D02*
X119260Y16885D01*
X119260Y19060D02*
X121740Y19060D01*
X121740Y21235D02*
X119260Y21235D01*
X119260Y23410D02*
X121740Y23410D01*
X116740Y6010D02*
X114260Y6010D01*
X114260Y24490D01*
X116740Y24490D01*
X116740Y6010D01*
X116740Y8185D02*
X114260Y8185D01*
X114260Y10360D02*
X116740Y10360D01*
X116740Y12535D02*
X114260Y12535D01*
X114260Y14710D02*
X116740Y14710D01*
X116740Y16885D02*
X114260Y16885D01*
X114260Y19060D02*
X116740Y19060D01*
X116740Y21235D02*
X114260Y21235D01*
X114260Y23410D02*
X116740Y23410D01*
X111740Y6010D02*
X109260Y6010D01*
X109260Y24490D01*
X111740Y24490D01*
X111740Y6010D01*
X111740Y8185D02*
X109260Y8185D01*
X109260Y10360D02*
X111740Y10360D01*
X111740Y12535D02*
X109260Y12535D01*
X109260Y14710D02*
X111740Y14710D01*
X111740Y16885D02*
X109260Y16885D01*
X109260Y19060D02*
X111740Y19060D01*
X111740Y21235D02*
X109260Y21235D01*
X109260Y23410D02*
X111740Y23410D01*
X106740Y6010D02*
X104260Y6010D01*
X104260Y24490D01*
X106740Y24490D01*
X106740Y6010D01*
X106740Y8185D02*
X104260Y8185D01*
X104260Y10360D02*
X106740Y10360D01*
X106740Y12535D02*
X104260Y12535D01*
X104260Y14710D02*
X106740Y14710D01*
X106740Y16885D02*
X104260Y16885D01*
X104260Y19060D02*
X106740Y19060D01*
X106740Y21235D02*
X104260Y21235D01*
X104260Y23410D02*
X106740Y23410D01*
X101740Y6010D02*
X99260Y6010D01*
X99260Y24490D01*
X101740Y24490D01*
X101740Y6010D01*
X101740Y8185D02*
X99260Y8185D01*
X99260Y10360D02*
X101740Y10360D01*
X101740Y12535D02*
X99260Y12535D01*
X99260Y14710D02*
X101740Y14710D01*
X101740Y16885D02*
X99260Y16885D01*
X99260Y19060D02*
X101740Y19060D01*
X101740Y21235D02*
X99260Y21235D01*
X99260Y23410D02*
X101740Y23410D01*
D16*
X370500Y461000D03*
X370500Y419000D03*
X357500Y440000D03*
X10500Y419000D03*
X10500Y461000D03*
X23500Y440000D03*
D17*
X29130Y376320D03*
X29130Y350920D03*
X29210Y274320D03*
X26670Y248920D03*
X29210Y223520D03*
D18*
X96012Y197993D02*
X96012Y192659D01*
X84328Y192659D01*
X84328Y197993D01*
X96012Y197993D01*
X96012Y194831D02*
X84328Y194831D01*
X84328Y197003D02*
X96012Y197003D01*
X96012Y200787D02*
X96012Y206121D01*
X96012Y200787D02*
X84328Y200787D01*
X84328Y206121D01*
X96012Y206121D01*
X96012Y202959D02*
X84328Y202959D01*
X84328Y205131D02*
X96012Y205131D01*
D10*
X468882Y246378D02*
X468882Y251970D01*
X480570Y251970D01*
X480570Y246378D01*
X468882Y246378D01*
X468882Y248547D02*
X480570Y248547D01*
X480570Y250716D02*
X468882Y250716D01*
X468882Y241556D02*
X468882Y235964D01*
X468882Y241556D02*
X480570Y241556D01*
X480570Y235964D01*
X468882Y235964D01*
X468882Y238133D02*
X480570Y238133D01*
X480570Y240302D02*
X468882Y240302D01*
X468882Y231142D02*
X468882Y225550D01*
X468882Y231142D02*
X480570Y231142D01*
X480570Y225550D01*
X468882Y225550D01*
X468882Y227719D02*
X480570Y227719D01*
X480570Y229888D02*
X468882Y229888D01*
X551305Y625600D02*
X556897Y625600D01*
X551305Y625600D02*
X551305Y637288D01*
X556897Y637288D01*
X556897Y625600D01*
X556897Y627769D02*
X551305Y627769D01*
X551305Y629938D02*
X556897Y629938D01*
X556897Y632107D02*
X551305Y632107D01*
X551305Y634276D02*
X556897Y634276D01*
X556897Y636445D02*
X551305Y636445D01*
X561719Y625600D02*
X567311Y625600D01*
X561719Y625600D02*
X561719Y637288D01*
X567311Y637288D01*
X567311Y625600D01*
X567311Y627769D02*
X561719Y627769D01*
X561719Y629938D02*
X567311Y629938D01*
X567311Y632107D02*
X561719Y632107D01*
X561719Y634276D02*
X567311Y634276D01*
X567311Y636445D02*
X561719Y636445D01*
X587119Y625600D02*
X592711Y625600D01*
X587119Y625600D02*
X587119Y637288D01*
X592711Y637288D01*
X592711Y625600D01*
X592711Y627769D02*
X587119Y627769D01*
X587119Y629938D02*
X592711Y629938D01*
X592711Y632107D02*
X587119Y632107D01*
X587119Y634276D02*
X592711Y634276D01*
X592711Y636445D02*
X587119Y636445D01*
X597533Y625600D02*
X603125Y625600D01*
X597533Y625600D02*
X597533Y637288D01*
X603125Y637288D01*
X603125Y625600D01*
X603125Y627769D02*
X597533Y627769D01*
X597533Y629938D02*
X603125Y629938D01*
X603125Y632107D02*
X597533Y632107D01*
X597533Y634276D02*
X603125Y634276D01*
X603125Y636445D02*
X597533Y636445D01*
D11*
X693872Y601698D03*
X636072Y601698D03*
D12*
X468768Y608338D02*
X454776Y608338D01*
X454776Y647330D01*
X468768Y647330D01*
X468768Y608338D01*
X468768Y610502D02*
X454776Y610502D01*
X454776Y612666D02*
X468768Y612666D01*
X468768Y614830D02*
X454776Y614830D01*
X454776Y616994D02*
X468768Y616994D01*
X468768Y619158D02*
X454776Y619158D01*
X454776Y621322D02*
X468768Y621322D01*
X468768Y623486D02*
X454776Y623486D01*
X454776Y625650D02*
X468768Y625650D01*
X468768Y627814D02*
X454776Y627814D01*
X454776Y629978D02*
X468768Y629978D01*
X468768Y632142D02*
X454776Y632142D01*
X454776Y634306D02*
X468768Y634306D01*
X468768Y636470D02*
X454776Y636470D01*
X454776Y638634D02*
X468768Y638634D01*
X468768Y640798D02*
X454776Y640798D01*
X454776Y642962D02*
X468768Y642962D01*
X468768Y645126D02*
X454776Y645126D01*
X454776Y647290D02*
X468768Y647290D01*
X505576Y608338D02*
X519568Y608338D01*
X505576Y608338D02*
X505576Y647330D01*
X519568Y647330D01*
X519568Y608338D01*
X519568Y610502D02*
X505576Y610502D01*
X505576Y612666D02*
X519568Y612666D01*
X519568Y614830D02*
X505576Y614830D01*
X505576Y616994D02*
X519568Y616994D01*
X519568Y619158D02*
X505576Y619158D01*
X505576Y621322D02*
X519568Y621322D01*
X519568Y623486D02*
X505576Y623486D01*
X505576Y625650D02*
X519568Y625650D01*
X519568Y627814D02*
X505576Y627814D01*
X505576Y629978D02*
X519568Y629978D01*
X519568Y632142D02*
X505576Y632142D01*
X505576Y634306D02*
X519568Y634306D01*
X519568Y636470D02*
X505576Y636470D01*
X505576Y638634D02*
X519568Y638634D01*
X519568Y640798D02*
X505576Y640798D01*
X505576Y642962D02*
X519568Y642962D01*
X519568Y645126D02*
X505576Y645126D01*
X505576Y647290D02*
X519568Y647290D01*
D13*
X735076Y228092D03*
D14*
X403592Y66040D03*
X747532Y600680D03*
D15*
X667312Y6010D02*
X664832Y6010D01*
X664832Y24490D01*
X667312Y24490D01*
X667312Y6010D01*
X667312Y8185D02*
X664832Y8185D01*
X664832Y10360D02*
X667312Y10360D01*
X667312Y12535D02*
X664832Y12535D01*
X664832Y14710D02*
X667312Y14710D01*
X667312Y16885D02*
X664832Y16885D01*
X664832Y19060D02*
X667312Y19060D01*
X667312Y21235D02*
X664832Y21235D01*
X664832Y23410D02*
X667312Y23410D01*
X662312Y6010D02*
X659832Y6010D01*
X659832Y24490D01*
X662312Y24490D01*
X662312Y6010D01*
X662312Y8185D02*
X659832Y8185D01*
X659832Y10360D02*
X662312Y10360D01*
X662312Y12535D02*
X659832Y12535D01*
X659832Y14710D02*
X662312Y14710D01*
X662312Y16885D02*
X659832Y16885D01*
X659832Y19060D02*
X662312Y19060D01*
X662312Y21235D02*
X659832Y21235D01*
X659832Y23410D02*
X662312Y23410D01*
X657312Y6010D02*
X654832Y6010D01*
X654832Y24490D01*
X657312Y24490D01*
X657312Y6010D01*
X657312Y8185D02*
X654832Y8185D01*
X654832Y10360D02*
X657312Y10360D01*
X657312Y12535D02*
X654832Y12535D01*
X654832Y14710D02*
X657312Y14710D01*
X657312Y16885D02*
X654832Y16885D01*
X654832Y19060D02*
X657312Y19060D01*
X657312Y21235D02*
X654832Y21235D01*
X654832Y23410D02*
X657312Y23410D01*
X652312Y6010D02*
X649832Y6010D01*
X649832Y24490D01*
X652312Y24490D01*
X652312Y6010D01*
X652312Y8185D02*
X649832Y8185D01*
X649832Y10360D02*
X652312Y10360D01*
X652312Y12535D02*
X649832Y12535D01*
X649832Y14710D02*
X652312Y14710D01*
X652312Y16885D02*
X649832Y16885D01*
X649832Y19060D02*
X652312Y19060D01*
X652312Y21235D02*
X649832Y21235D01*
X649832Y23410D02*
X652312Y23410D01*
X647312Y6010D02*
X644832Y6010D01*
X644832Y24490D01*
X647312Y24490D01*
X647312Y6010D01*
X647312Y8185D02*
X644832Y8185D01*
X644832Y10360D02*
X647312Y10360D01*
X647312Y12535D02*
X644832Y12535D01*
X644832Y14710D02*
X647312Y14710D01*
X647312Y16885D02*
X644832Y16885D01*
X644832Y19060D02*
X647312Y19060D01*
X647312Y21235D02*
X644832Y21235D01*
X644832Y23410D02*
X647312Y23410D01*
X642312Y6010D02*
X639832Y6010D01*
X639832Y24490D01*
X642312Y24490D01*
X642312Y6010D01*
X642312Y8185D02*
X639832Y8185D01*
X639832Y10360D02*
X642312Y10360D01*
X642312Y12535D02*
X639832Y12535D01*
X639832Y14710D02*
X642312Y14710D01*
X642312Y16885D02*
X639832Y16885D01*
X639832Y19060D02*
X642312Y19060D01*
X642312Y21235D02*
X639832Y21235D01*
X639832Y23410D02*
X642312Y23410D01*
X637312Y6010D02*
X634832Y6010D01*
X634832Y24490D01*
X637312Y24490D01*
X637312Y6010D01*
X637312Y8185D02*
X634832Y8185D01*
X634832Y10360D02*
X637312Y10360D01*
X637312Y12535D02*
X634832Y12535D01*
X634832Y14710D02*
X637312Y14710D01*
X637312Y16885D02*
X634832Y16885D01*
X634832Y19060D02*
X637312Y19060D01*
X637312Y21235D02*
X634832Y21235D01*
X634832Y23410D02*
X637312Y23410D01*
X632312Y6010D02*
X629832Y6010D01*
X629832Y24490D01*
X632312Y24490D01*
X632312Y6010D01*
X632312Y8185D02*
X629832Y8185D01*
X629832Y10360D02*
X632312Y10360D01*
X632312Y12535D02*
X629832Y12535D01*
X629832Y14710D02*
X632312Y14710D01*
X632312Y16885D02*
X629832Y16885D01*
X629832Y19060D02*
X632312Y19060D01*
X632312Y21235D02*
X629832Y21235D01*
X629832Y23410D02*
X632312Y23410D01*
X627312Y6010D02*
X624832Y6010D01*
X624832Y24490D01*
X627312Y24490D01*
X627312Y6010D01*
X627312Y8185D02*
X624832Y8185D01*
X624832Y10360D02*
X627312Y10360D01*
X627312Y12535D02*
X624832Y12535D01*
X624832Y14710D02*
X627312Y14710D01*
X627312Y16885D02*
X624832Y16885D01*
X624832Y19060D02*
X627312Y19060D01*
X627312Y21235D02*
X624832Y21235D01*
X624832Y23410D02*
X627312Y23410D01*
X622312Y6010D02*
X619832Y6010D01*
X619832Y24490D01*
X622312Y24490D01*
X622312Y6010D01*
X622312Y8185D02*
X619832Y8185D01*
X619832Y10360D02*
X622312Y10360D01*
X622312Y12535D02*
X619832Y12535D01*
X619832Y14710D02*
X622312Y14710D01*
X622312Y16885D02*
X619832Y16885D01*
X619832Y19060D02*
X622312Y19060D01*
X622312Y21235D02*
X619832Y21235D01*
X619832Y23410D02*
X622312Y23410D01*
X617312Y6010D02*
X614832Y6010D01*
X614832Y24490D01*
X617312Y24490D01*
X617312Y6010D01*
X617312Y8185D02*
X614832Y8185D01*
X614832Y10360D02*
X617312Y10360D01*
X617312Y12535D02*
X614832Y12535D01*
X614832Y14710D02*
X617312Y14710D01*
X617312Y16885D02*
X614832Y16885D01*
X614832Y19060D02*
X617312Y19060D01*
X617312Y21235D02*
X614832Y21235D01*
X614832Y23410D02*
X617312Y23410D01*
X592312Y6010D02*
X589832Y6010D01*
X589832Y24490D01*
X592312Y24490D01*
X592312Y6010D01*
X592312Y8185D02*
X589832Y8185D01*
X589832Y10360D02*
X592312Y10360D01*
X592312Y12535D02*
X589832Y12535D01*
X589832Y14710D02*
X592312Y14710D01*
X592312Y16885D02*
X589832Y16885D01*
X589832Y19060D02*
X592312Y19060D01*
X592312Y21235D02*
X589832Y21235D01*
X589832Y23410D02*
X592312Y23410D01*
X587312Y6010D02*
X584832Y6010D01*
X584832Y24490D01*
X587312Y24490D01*
X587312Y6010D01*
X587312Y8185D02*
X584832Y8185D01*
X584832Y10360D02*
X587312Y10360D01*
X587312Y12535D02*
X584832Y12535D01*
X584832Y14710D02*
X587312Y14710D01*
X587312Y16885D02*
X584832Y16885D01*
X584832Y19060D02*
X587312Y19060D01*
X587312Y21235D02*
X584832Y21235D01*
X584832Y23410D02*
X587312Y23410D01*
X582312Y6010D02*
X579832Y6010D01*
X579832Y24490D01*
X582312Y24490D01*
X582312Y6010D01*
X582312Y8185D02*
X579832Y8185D01*
X579832Y10360D02*
X582312Y10360D01*
X582312Y12535D02*
X579832Y12535D01*
X579832Y14710D02*
X582312Y14710D01*
X582312Y16885D02*
X579832Y16885D01*
X579832Y19060D02*
X582312Y19060D01*
X582312Y21235D02*
X579832Y21235D01*
X579832Y23410D02*
X582312Y23410D01*
X577312Y6010D02*
X574832Y6010D01*
X574832Y24490D01*
X577312Y24490D01*
X577312Y6010D01*
X577312Y8185D02*
X574832Y8185D01*
X574832Y10360D02*
X577312Y10360D01*
X577312Y12535D02*
X574832Y12535D01*
X574832Y14710D02*
X577312Y14710D01*
X577312Y16885D02*
X574832Y16885D01*
X574832Y19060D02*
X577312Y19060D01*
X577312Y21235D02*
X574832Y21235D01*
X574832Y23410D02*
X577312Y23410D01*
X572312Y6010D02*
X569832Y6010D01*
X569832Y24490D01*
X572312Y24490D01*
X572312Y6010D01*
X572312Y8185D02*
X569832Y8185D01*
X569832Y10360D02*
X572312Y10360D01*
X572312Y12535D02*
X569832Y12535D01*
X569832Y14710D02*
X572312Y14710D01*
X572312Y16885D02*
X569832Y16885D01*
X569832Y19060D02*
X572312Y19060D01*
X572312Y21235D02*
X569832Y21235D01*
X569832Y23410D02*
X572312Y23410D01*
X567312Y6010D02*
X564832Y6010D01*
X564832Y24490D01*
X567312Y24490D01*
X567312Y6010D01*
X567312Y8185D02*
X564832Y8185D01*
X564832Y10360D02*
X567312Y10360D01*
X567312Y12535D02*
X564832Y12535D01*
X564832Y14710D02*
X567312Y14710D01*
X567312Y16885D02*
X564832Y16885D01*
X564832Y19060D02*
X567312Y19060D01*
X567312Y21235D02*
X564832Y21235D01*
X564832Y23410D02*
X567312Y23410D01*
X562312Y6010D02*
X559832Y6010D01*
X559832Y24490D01*
X562312Y24490D01*
X562312Y6010D01*
X562312Y8185D02*
X559832Y8185D01*
X559832Y10360D02*
X562312Y10360D01*
X562312Y12535D02*
X559832Y12535D01*
X559832Y14710D02*
X562312Y14710D01*
X562312Y16885D02*
X559832Y16885D01*
X559832Y19060D02*
X562312Y19060D01*
X562312Y21235D02*
X559832Y21235D01*
X559832Y23410D02*
X562312Y23410D01*
X557312Y6010D02*
X554832Y6010D01*
X554832Y24490D01*
X557312Y24490D01*
X557312Y6010D01*
X557312Y8185D02*
X554832Y8185D01*
X554832Y10360D02*
X557312Y10360D01*
X557312Y12535D02*
X554832Y12535D01*
X554832Y14710D02*
X557312Y14710D01*
X557312Y16885D02*
X554832Y16885D01*
X554832Y19060D02*
X557312Y19060D01*
X557312Y21235D02*
X554832Y21235D01*
X554832Y23410D02*
X557312Y23410D01*
X552312Y6010D02*
X549832Y6010D01*
X549832Y24490D01*
X552312Y24490D01*
X552312Y6010D01*
X552312Y8185D02*
X549832Y8185D01*
X549832Y10360D02*
X552312Y10360D01*
X552312Y12535D02*
X549832Y12535D01*
X549832Y14710D02*
X552312Y14710D01*
X552312Y16885D02*
X549832Y16885D01*
X549832Y19060D02*
X552312Y19060D01*
X552312Y21235D02*
X549832Y21235D01*
X549832Y23410D02*
X552312Y23410D01*
X547312Y6010D02*
X544832Y6010D01*
X544832Y24490D01*
X547312Y24490D01*
X547312Y6010D01*
X547312Y8185D02*
X544832Y8185D01*
X544832Y10360D02*
X547312Y10360D01*
X547312Y12535D02*
X544832Y12535D01*
X544832Y14710D02*
X547312Y14710D01*
X547312Y16885D02*
X544832Y16885D01*
X544832Y19060D02*
X547312Y19060D01*
X547312Y21235D02*
X544832Y21235D01*
X544832Y23410D02*
X547312Y23410D01*
X542312Y6010D02*
X539832Y6010D01*
X539832Y24490D01*
X542312Y24490D01*
X542312Y6010D01*
X542312Y8185D02*
X539832Y8185D01*
X539832Y10360D02*
X542312Y10360D01*
X542312Y12535D02*
X539832Y12535D01*
X539832Y14710D02*
X542312Y14710D01*
X542312Y16885D02*
X539832Y16885D01*
X539832Y19060D02*
X542312Y19060D01*
X542312Y21235D02*
X539832Y21235D01*
X539832Y23410D02*
X542312Y23410D01*
X537312Y6010D02*
X534832Y6010D01*
X534832Y24490D01*
X537312Y24490D01*
X537312Y6010D01*
X537312Y8185D02*
X534832Y8185D01*
X534832Y10360D02*
X537312Y10360D01*
X537312Y12535D02*
X534832Y12535D01*
X534832Y14710D02*
X537312Y14710D01*
X537312Y16885D02*
X534832Y16885D01*
X534832Y19060D02*
X537312Y19060D01*
X537312Y21235D02*
X534832Y21235D01*
X534832Y23410D02*
X537312Y23410D01*
X532312Y6010D02*
X529832Y6010D01*
X529832Y24490D01*
X532312Y24490D01*
X532312Y6010D01*
X532312Y8185D02*
X529832Y8185D01*
X529832Y10360D02*
X532312Y10360D01*
X532312Y12535D02*
X529832Y12535D01*
X529832Y14710D02*
X532312Y14710D01*
X532312Y16885D02*
X529832Y16885D01*
X529832Y19060D02*
X532312Y19060D01*
X532312Y21235D02*
X529832Y21235D01*
X529832Y23410D02*
X532312Y23410D01*
X527312Y6010D02*
X524832Y6010D01*
X524832Y24490D01*
X527312Y24490D01*
X527312Y6010D01*
X527312Y8185D02*
X524832Y8185D01*
X524832Y10360D02*
X527312Y10360D01*
X527312Y12535D02*
X524832Y12535D01*
X524832Y14710D02*
X527312Y14710D01*
X527312Y16885D02*
X524832Y16885D01*
X524832Y19060D02*
X527312Y19060D01*
X527312Y21235D02*
X524832Y21235D01*
X524832Y23410D02*
X527312Y23410D01*
X522312Y6010D02*
X519832Y6010D01*
X519832Y24490D01*
X522312Y24490D01*
X522312Y6010D01*
X522312Y8185D02*
X519832Y8185D01*
X519832Y10360D02*
X522312Y10360D01*
X522312Y12535D02*
X519832Y12535D01*
X519832Y14710D02*
X522312Y14710D01*
X522312Y16885D02*
X519832Y16885D01*
X519832Y19060D02*
X522312Y19060D01*
X522312Y21235D02*
X519832Y21235D01*
X519832Y23410D02*
X522312Y23410D01*
X517312Y6010D02*
X514832Y6010D01*
X514832Y24490D01*
X517312Y24490D01*
X517312Y6010D01*
X517312Y8185D02*
X514832Y8185D01*
X514832Y10360D02*
X517312Y10360D01*
X517312Y12535D02*
X514832Y12535D01*
X514832Y14710D02*
X517312Y14710D01*
X517312Y16885D02*
X514832Y16885D01*
X514832Y19060D02*
X517312Y19060D01*
X517312Y21235D02*
X514832Y21235D01*
X514832Y23410D02*
X517312Y23410D01*
X512312Y6010D02*
X509832Y6010D01*
X509832Y24490D01*
X512312Y24490D01*
X512312Y6010D01*
X512312Y8185D02*
X509832Y8185D01*
X509832Y10360D02*
X512312Y10360D01*
X512312Y12535D02*
X509832Y12535D01*
X509832Y14710D02*
X512312Y14710D01*
X512312Y16885D02*
X509832Y16885D01*
X509832Y19060D02*
X512312Y19060D01*
X512312Y21235D02*
X509832Y21235D01*
X509832Y23410D02*
X512312Y23410D01*
X507312Y6010D02*
X504832Y6010D01*
X504832Y24490D01*
X507312Y24490D01*
X507312Y6010D01*
X507312Y8185D02*
X504832Y8185D01*
X504832Y10360D02*
X507312Y10360D01*
X507312Y12535D02*
X504832Y12535D01*
X504832Y14710D02*
X507312Y14710D01*
X507312Y16885D02*
X504832Y16885D01*
X504832Y19060D02*
X507312Y19060D01*
X507312Y21235D02*
X504832Y21235D01*
X504832Y23410D02*
X507312Y23410D01*
X502312Y6010D02*
X499832Y6010D01*
X499832Y24490D01*
X502312Y24490D01*
X502312Y6010D01*
X502312Y8185D02*
X499832Y8185D01*
X499832Y10360D02*
X502312Y10360D01*
X502312Y12535D02*
X499832Y12535D01*
X499832Y14710D02*
X502312Y14710D01*
X502312Y16885D02*
X499832Y16885D01*
X499832Y19060D02*
X502312Y19060D01*
X502312Y21235D02*
X499832Y21235D01*
X499832Y23410D02*
X502312Y23410D01*
X497312Y6010D02*
X494832Y6010D01*
X494832Y24490D01*
X497312Y24490D01*
X497312Y6010D01*
X497312Y8185D02*
X494832Y8185D01*
X494832Y10360D02*
X497312Y10360D01*
X497312Y12535D02*
X494832Y12535D01*
X494832Y14710D02*
X497312Y14710D01*
X497312Y16885D02*
X494832Y16885D01*
X494832Y19060D02*
X497312Y19060D01*
X497312Y21235D02*
X494832Y21235D01*
X494832Y23410D02*
X497312Y23410D01*
X492312Y6010D02*
X489832Y6010D01*
X489832Y24490D01*
X492312Y24490D01*
X492312Y6010D01*
X492312Y8185D02*
X489832Y8185D01*
X489832Y10360D02*
X492312Y10360D01*
X492312Y12535D02*
X489832Y12535D01*
X489832Y14710D02*
X492312Y14710D01*
X492312Y16885D02*
X489832Y16885D01*
X489832Y19060D02*
X492312Y19060D01*
X492312Y21235D02*
X489832Y21235D01*
X489832Y23410D02*
X492312Y23410D01*
X487312Y6010D02*
X484832Y6010D01*
X484832Y24490D01*
X487312Y24490D01*
X487312Y6010D01*
X487312Y8185D02*
X484832Y8185D01*
X484832Y10360D02*
X487312Y10360D01*
X487312Y12535D02*
X484832Y12535D01*
X484832Y14710D02*
X487312Y14710D01*
X487312Y16885D02*
X484832Y16885D01*
X484832Y19060D02*
X487312Y19060D01*
X487312Y21235D02*
X484832Y21235D01*
X484832Y23410D02*
X487312Y23410D01*
D16*
X756072Y461000D03*
X756072Y419000D03*
X743072Y440000D03*
X396072Y419000D03*
X396072Y461000D03*
X409072Y440000D03*
D17*
X414702Y376320D03*
X414702Y350920D03*
X414782Y274320D03*
X412242Y248920D03*
X414782Y223520D03*
D18*
X481584Y197993D02*
X481584Y192659D01*
X469900Y192659D01*
X469900Y197993D01*
X481584Y197993D01*
X481584Y194831D02*
X469900Y194831D01*
X469900Y197003D02*
X481584Y197003D01*
X481584Y200787D02*
X481584Y206121D01*
X481584Y200787D02*
X469900Y200787D01*
X469900Y206121D01*
X481584Y206121D01*
X481584Y202959D02*
X469900Y202959D01*
X469900Y205131D02*
X481584Y205131D01*
D10*
X854454Y246378D02*
X854454Y251970D01*
X866142Y251970D01*
X866142Y246378D01*
X854454Y246378D01*
X854454Y248547D02*
X866142Y248547D01*
X866142Y250716D02*
X854454Y250716D01*
X854454Y241556D02*
X854454Y235964D01*
X854454Y241556D02*
X866142Y241556D01*
X866142Y235964D01*
X854454Y235964D01*
X854454Y238133D02*
X866142Y238133D01*
X866142Y240302D02*
X854454Y240302D01*
X854454Y231142D02*
X854454Y225550D01*
X854454Y231142D02*
X866142Y231142D01*
X866142Y225550D01*
X854454Y225550D01*
X854454Y227719D02*
X866142Y227719D01*
X866142Y229888D02*
X854454Y229888D01*
X936877Y625600D02*
X942469Y625600D01*
X936877Y625600D02*
X936877Y637288D01*
X942469Y637288D01*
X942469Y625600D01*
X942469Y627769D02*
X936877Y627769D01*
X936877Y629938D02*
X942469Y629938D01*
X942469Y632107D02*
X936877Y632107D01*
X936877Y634276D02*
X942469Y634276D01*
X942469Y636445D02*
X936877Y636445D01*
X947291Y625600D02*
X952883Y625600D01*
X947291Y625600D02*
X947291Y637288D01*
X952883Y637288D01*
X952883Y625600D01*
X952883Y627769D02*
X947291Y627769D01*
X947291Y629938D02*
X952883Y629938D01*
X952883Y632107D02*
X947291Y632107D01*
X947291Y634276D02*
X952883Y634276D01*
X952883Y636445D02*
X947291Y636445D01*
X972691Y625600D02*
X978283Y625600D01*
X972691Y625600D02*
X972691Y637288D01*
X978283Y637288D01*
X978283Y625600D01*
X978283Y627769D02*
X972691Y627769D01*
X972691Y629938D02*
X978283Y629938D01*
X978283Y632107D02*
X972691Y632107D01*
X972691Y634276D02*
X978283Y634276D01*
X978283Y636445D02*
X972691Y636445D01*
X983105Y625600D02*
X988697Y625600D01*
X983105Y625600D02*
X983105Y637288D01*
X988697Y637288D01*
X988697Y625600D01*
X988697Y627769D02*
X983105Y627769D01*
X983105Y629938D02*
X988697Y629938D01*
X988697Y632107D02*
X983105Y632107D01*
X983105Y634276D02*
X988697Y634276D01*
X988697Y636445D02*
X983105Y636445D01*
D11*
X1079444Y601698D03*
X1021644Y601698D03*
D12*
X854340Y608338D02*
X840348Y608338D01*
X840348Y647330D01*
X854340Y647330D01*
X854340Y608338D01*
X854340Y610502D02*
X840348Y610502D01*
X840348Y612666D02*
X854340Y612666D01*
X854340Y614830D02*
X840348Y614830D01*
X840348Y616994D02*
X854340Y616994D01*
X854340Y619158D02*
X840348Y619158D01*
X840348Y621322D02*
X854340Y621322D01*
X854340Y623486D02*
X840348Y623486D01*
X840348Y625650D02*
X854340Y625650D01*
X854340Y627814D02*
X840348Y627814D01*
X840348Y629978D02*
X854340Y629978D01*
X854340Y632142D02*
X840348Y632142D01*
X840348Y634306D02*
X854340Y634306D01*
X854340Y636470D02*
X840348Y636470D01*
X840348Y638634D02*
X854340Y638634D01*
X854340Y640798D02*
X840348Y640798D01*
X840348Y642962D02*
X854340Y642962D01*
X854340Y645126D02*
X840348Y645126D01*
X840348Y647290D02*
X854340Y647290D01*
X891148Y608338D02*
X905140Y608338D01*
X891148Y608338D02*
X891148Y647330D01*
X905140Y647330D01*
X905140Y608338D01*
X905140Y610502D02*
X891148Y610502D01*
X891148Y612666D02*
X905140Y612666D01*
X905140Y614830D02*
X891148Y614830D01*
X891148Y616994D02*
X905140Y616994D01*
X905140Y619158D02*
X891148Y619158D01*
X891148Y621322D02*
X905140Y621322D01*
X905140Y623486D02*
X891148Y623486D01*
X891148Y625650D02*
X905140Y625650D01*
X905140Y627814D02*
X891148Y627814D01*
X891148Y629978D02*
X905140Y629978D01*
X905140Y632142D02*
X891148Y632142D01*
X891148Y634306D02*
X905140Y634306D01*
X905140Y636470D02*
X891148Y636470D01*
X891148Y638634D02*
X905140Y638634D01*
X905140Y640798D02*
X891148Y640798D01*
X891148Y642962D02*
X905140Y642962D01*
X905140Y645126D02*
X891148Y645126D01*
X891148Y647290D02*
X905140Y647290D01*
D13*
X1120648Y228092D03*
D14*
X789164Y66040D03*
X1133104Y600680D03*
D15*
X1052884Y6010D02*
X1050404Y6010D01*
X1050404Y24490D01*
X1052884Y24490D01*
X1052884Y6010D01*
X1052884Y8185D02*
X1050404Y8185D01*
X1050404Y10360D02*
X1052884Y10360D01*
X1052884Y12535D02*
X1050404Y12535D01*
X1050404Y14710D02*
X1052884Y14710D01*
X1052884Y16885D02*
X1050404Y16885D01*
X1050404Y19060D02*
X1052884Y19060D01*
X1052884Y21235D02*
X1050404Y21235D01*
X1050404Y23410D02*
X1052884Y23410D01*
X1047884Y6010D02*
X1045404Y6010D01*
X1045404Y24490D01*
X1047884Y24490D01*
X1047884Y6010D01*
X1047884Y8185D02*
X1045404Y8185D01*
X1045404Y10360D02*
X1047884Y10360D01*
X1047884Y12535D02*
X1045404Y12535D01*
X1045404Y14710D02*
X1047884Y14710D01*
X1047884Y16885D02*
X1045404Y16885D01*
X1045404Y19060D02*
X1047884Y19060D01*
X1047884Y21235D02*
X1045404Y21235D01*
X1045404Y23410D02*
X1047884Y23410D01*
X1042884Y6010D02*
X1040404Y6010D01*
X1040404Y24490D01*
X1042884Y24490D01*
X1042884Y6010D01*
X1042884Y8185D02*
X1040404Y8185D01*
X1040404Y10360D02*
X1042884Y10360D01*
X1042884Y12535D02*
X1040404Y12535D01*
X1040404Y14710D02*
X1042884Y14710D01*
X1042884Y16885D02*
X1040404Y16885D01*
X1040404Y19060D02*
X1042884Y19060D01*
X1042884Y21235D02*
X1040404Y21235D01*
X1040404Y23410D02*
X1042884Y23410D01*
X1037884Y6010D02*
X1035404Y6010D01*
X1035404Y24490D01*
X1037884Y24490D01*
X1037884Y6010D01*
X1037884Y8185D02*
X1035404Y8185D01*
X1035404Y10360D02*
X1037884Y10360D01*
X1037884Y12535D02*
X1035404Y12535D01*
X1035404Y14710D02*
X1037884Y14710D01*
X1037884Y16885D02*
X1035404Y16885D01*
X1035404Y19060D02*
X1037884Y19060D01*
X1037884Y21235D02*
X1035404Y21235D01*
X1035404Y23410D02*
X1037884Y23410D01*
X1032884Y6010D02*
X1030404Y6010D01*
X1030404Y24490D01*
X1032884Y24490D01*
X1032884Y6010D01*
X1032884Y8185D02*
X1030404Y8185D01*
X1030404Y10360D02*
X1032884Y10360D01*
X1032884Y12535D02*
X1030404Y12535D01*
X1030404Y14710D02*
X1032884Y14710D01*
X1032884Y16885D02*
X1030404Y16885D01*
X1030404Y19060D02*
X1032884Y19060D01*
X1032884Y21235D02*
X1030404Y21235D01*
X1030404Y23410D02*
X1032884Y23410D01*
X1027884Y6010D02*
X1025404Y6010D01*
X1025404Y24490D01*
X1027884Y24490D01*
X1027884Y6010D01*
X1027884Y8185D02*
X1025404Y8185D01*
X1025404Y10360D02*
X1027884Y10360D01*
X1027884Y12535D02*
X1025404Y12535D01*
X1025404Y14710D02*
X1027884Y14710D01*
X1027884Y16885D02*
X1025404Y16885D01*
X1025404Y19060D02*
X1027884Y19060D01*
X1027884Y21235D02*
X1025404Y21235D01*
X1025404Y23410D02*
X1027884Y23410D01*
X1022884Y6010D02*
X1020404Y6010D01*
X1020404Y24490D01*
X1022884Y24490D01*
X1022884Y6010D01*
X1022884Y8185D02*
X1020404Y8185D01*
X1020404Y10360D02*
X1022884Y10360D01*
X1022884Y12535D02*
X1020404Y12535D01*
X1020404Y14710D02*
X1022884Y14710D01*
X1022884Y16885D02*
X1020404Y16885D01*
X1020404Y19060D02*
X1022884Y19060D01*
X1022884Y21235D02*
X1020404Y21235D01*
X1020404Y23410D02*
X1022884Y23410D01*
X1017884Y6010D02*
X1015404Y6010D01*
X1015404Y24490D01*
X1017884Y24490D01*
X1017884Y6010D01*
X1017884Y8185D02*
X1015404Y8185D01*
X1015404Y10360D02*
X1017884Y10360D01*
X1017884Y12535D02*
X1015404Y12535D01*
X1015404Y14710D02*
X1017884Y14710D01*
X1017884Y16885D02*
X1015404Y16885D01*
X1015404Y19060D02*
X1017884Y19060D01*
X1017884Y21235D02*
X1015404Y21235D01*
X1015404Y23410D02*
X1017884Y23410D01*
X1012884Y6010D02*
X1010404Y6010D01*
X1010404Y24490D01*
X1012884Y24490D01*
X1012884Y6010D01*
X1012884Y8185D02*
X1010404Y8185D01*
X1010404Y10360D02*
X1012884Y10360D01*
X1012884Y12535D02*
X1010404Y12535D01*
X1010404Y14710D02*
X1012884Y14710D01*
X1012884Y16885D02*
X1010404Y16885D01*
X1010404Y19060D02*
X1012884Y19060D01*
X1012884Y21235D02*
X1010404Y21235D01*
X1010404Y23410D02*
X1012884Y23410D01*
X1007884Y6010D02*
X1005404Y6010D01*
X1005404Y24490D01*
X1007884Y24490D01*
X1007884Y6010D01*
X1007884Y8185D02*
X1005404Y8185D01*
X1005404Y10360D02*
X1007884Y10360D01*
X1007884Y12535D02*
X1005404Y12535D01*
X1005404Y14710D02*
X1007884Y14710D01*
X1007884Y16885D02*
X1005404Y16885D01*
X1005404Y19060D02*
X1007884Y19060D01*
X1007884Y21235D02*
X1005404Y21235D01*
X1005404Y23410D02*
X1007884Y23410D01*
X1002884Y6010D02*
X1000404Y6010D01*
X1000404Y24490D01*
X1002884Y24490D01*
X1002884Y6010D01*
X1002884Y8185D02*
X1000404Y8185D01*
X1000404Y10360D02*
X1002884Y10360D01*
X1002884Y12535D02*
X1000404Y12535D01*
X1000404Y14710D02*
X1002884Y14710D01*
X1002884Y16885D02*
X1000404Y16885D01*
X1000404Y19060D02*
X1002884Y19060D01*
X1002884Y21235D02*
X1000404Y21235D01*
X1000404Y23410D02*
X1002884Y23410D01*
X977884Y6010D02*
X975404Y6010D01*
X975404Y24490D01*
X977884Y24490D01*
X977884Y6010D01*
X977884Y8185D02*
X975404Y8185D01*
X975404Y10360D02*
X977884Y10360D01*
X977884Y12535D02*
X975404Y12535D01*
X975404Y14710D02*
X977884Y14710D01*
X977884Y16885D02*
X975404Y16885D01*
X975404Y19060D02*
X977884Y19060D01*
X977884Y21235D02*
X975404Y21235D01*
X975404Y23410D02*
X977884Y23410D01*
X972884Y6010D02*
X970404Y6010D01*
X970404Y24490D01*
X972884Y24490D01*
X972884Y6010D01*
X972884Y8185D02*
X970404Y8185D01*
X970404Y10360D02*
X972884Y10360D01*
X972884Y12535D02*
X970404Y12535D01*
X970404Y14710D02*
X972884Y14710D01*
X972884Y16885D02*
X970404Y16885D01*
X970404Y19060D02*
X972884Y19060D01*
X972884Y21235D02*
X970404Y21235D01*
X970404Y23410D02*
X972884Y23410D01*
X967884Y6010D02*
X965404Y6010D01*
X965404Y24490D01*
X967884Y24490D01*
X967884Y6010D01*
X967884Y8185D02*
X965404Y8185D01*
X965404Y10360D02*
X967884Y10360D01*
X967884Y12535D02*
X965404Y12535D01*
X965404Y14710D02*
X967884Y14710D01*
X967884Y16885D02*
X965404Y16885D01*
X965404Y19060D02*
X967884Y19060D01*
X967884Y21235D02*
X965404Y21235D01*
X965404Y23410D02*
X967884Y23410D01*
X962884Y6010D02*
X960404Y6010D01*
X960404Y24490D01*
X962884Y24490D01*
X962884Y6010D01*
X962884Y8185D02*
X960404Y8185D01*
X960404Y10360D02*
X962884Y10360D01*
X962884Y12535D02*
X960404Y12535D01*
X960404Y14710D02*
X962884Y14710D01*
X962884Y16885D02*
X960404Y16885D01*
X960404Y19060D02*
X962884Y19060D01*
X962884Y21235D02*
X960404Y21235D01*
X960404Y23410D02*
X962884Y23410D01*
X957884Y6010D02*
X955404Y6010D01*
X955404Y24490D01*
X957884Y24490D01*
X957884Y6010D01*
X957884Y8185D02*
X955404Y8185D01*
X955404Y10360D02*
X957884Y10360D01*
X957884Y12535D02*
X955404Y12535D01*
X955404Y14710D02*
X957884Y14710D01*
X957884Y16885D02*
X955404Y16885D01*
X955404Y19060D02*
X957884Y19060D01*
X957884Y21235D02*
X955404Y21235D01*
X955404Y23410D02*
X957884Y23410D01*
X952884Y6010D02*
X950404Y6010D01*
X950404Y24490D01*
X952884Y24490D01*
X952884Y6010D01*
X952884Y8185D02*
X950404Y8185D01*
X950404Y10360D02*
X952884Y10360D01*
X952884Y12535D02*
X950404Y12535D01*
X950404Y14710D02*
X952884Y14710D01*
X952884Y16885D02*
X950404Y16885D01*
X950404Y19060D02*
X952884Y19060D01*
X952884Y21235D02*
X950404Y21235D01*
X950404Y23410D02*
X952884Y23410D01*
X947884Y6010D02*
X945404Y6010D01*
X945404Y24490D01*
X947884Y24490D01*
X947884Y6010D01*
X947884Y8185D02*
X945404Y8185D01*
X945404Y10360D02*
X947884Y10360D01*
X947884Y12535D02*
X945404Y12535D01*
X945404Y14710D02*
X947884Y14710D01*
X947884Y16885D02*
X945404Y16885D01*
X945404Y19060D02*
X947884Y19060D01*
X947884Y21235D02*
X945404Y21235D01*
X945404Y23410D02*
X947884Y23410D01*
X942884Y6010D02*
X940404Y6010D01*
X940404Y24490D01*
X942884Y24490D01*
X942884Y6010D01*
X942884Y8185D02*
X940404Y8185D01*
X940404Y10360D02*
X942884Y10360D01*
X942884Y12535D02*
X940404Y12535D01*
X940404Y14710D02*
X942884Y14710D01*
X942884Y16885D02*
X940404Y16885D01*
X940404Y19060D02*
X942884Y19060D01*
X942884Y21235D02*
X940404Y21235D01*
X940404Y23410D02*
X942884Y23410D01*
X937884Y6010D02*
X935404Y6010D01*
X935404Y24490D01*
X937884Y24490D01*
X937884Y6010D01*
X937884Y8185D02*
X935404Y8185D01*
X935404Y10360D02*
X937884Y10360D01*
X937884Y12535D02*
X935404Y12535D01*
X935404Y14710D02*
X937884Y14710D01*
X937884Y16885D02*
X935404Y16885D01*
X935404Y19060D02*
X937884Y19060D01*
X937884Y21235D02*
X935404Y21235D01*
X935404Y23410D02*
X937884Y23410D01*
X932884Y6010D02*
X930404Y6010D01*
X930404Y24490D01*
X932884Y24490D01*
X932884Y6010D01*
X932884Y8185D02*
X930404Y8185D01*
X930404Y10360D02*
X932884Y10360D01*
X932884Y12535D02*
X930404Y12535D01*
X930404Y14710D02*
X932884Y14710D01*
X932884Y16885D02*
X930404Y16885D01*
X930404Y19060D02*
X932884Y19060D01*
X932884Y21235D02*
X930404Y21235D01*
X930404Y23410D02*
X932884Y23410D01*
X927884Y6010D02*
X925404Y6010D01*
X925404Y24490D01*
X927884Y24490D01*
X927884Y6010D01*
X927884Y8185D02*
X925404Y8185D01*
X925404Y10360D02*
X927884Y10360D01*
X927884Y12535D02*
X925404Y12535D01*
X925404Y14710D02*
X927884Y14710D01*
X927884Y16885D02*
X925404Y16885D01*
X925404Y19060D02*
X927884Y19060D01*
X927884Y21235D02*
X925404Y21235D01*
X925404Y23410D02*
X927884Y23410D01*
X922884Y6010D02*
X920404Y6010D01*
X920404Y24490D01*
X922884Y24490D01*
X922884Y6010D01*
X922884Y8185D02*
X920404Y8185D01*
X920404Y10360D02*
X922884Y10360D01*
X922884Y12535D02*
X920404Y12535D01*
X920404Y14710D02*
X922884Y14710D01*
X922884Y16885D02*
X920404Y16885D01*
X920404Y19060D02*
X922884Y19060D01*
X922884Y21235D02*
X920404Y21235D01*
X920404Y23410D02*
X922884Y23410D01*
X917884Y6010D02*
X915404Y6010D01*
X915404Y24490D01*
X917884Y24490D01*
X917884Y6010D01*
X917884Y8185D02*
X915404Y8185D01*
X915404Y10360D02*
X917884Y10360D01*
X917884Y12535D02*
X915404Y12535D01*
X915404Y14710D02*
X917884Y14710D01*
X917884Y16885D02*
X915404Y16885D01*
X915404Y19060D02*
X917884Y19060D01*
X917884Y21235D02*
X915404Y21235D01*
X915404Y23410D02*
X917884Y23410D01*
X912884Y6010D02*
X910404Y6010D01*
X910404Y24490D01*
X912884Y24490D01*
X912884Y6010D01*
X912884Y8185D02*
X910404Y8185D01*
X910404Y10360D02*
X912884Y10360D01*
X912884Y12535D02*
X910404Y12535D01*
X910404Y14710D02*
X912884Y14710D01*
X912884Y16885D02*
X910404Y16885D01*
X910404Y19060D02*
X912884Y19060D01*
X912884Y21235D02*
X910404Y21235D01*
X910404Y23410D02*
X912884Y23410D01*
X907884Y6010D02*
X905404Y6010D01*
X905404Y24490D01*
X907884Y24490D01*
X907884Y6010D01*
X907884Y8185D02*
X905404Y8185D01*
X905404Y10360D02*
X907884Y10360D01*
X907884Y12535D02*
X905404Y12535D01*
X905404Y14710D02*
X907884Y14710D01*
X907884Y16885D02*
X905404Y16885D01*
X905404Y19060D02*
X907884Y19060D01*
X907884Y21235D02*
X905404Y21235D01*
X905404Y23410D02*
X907884Y23410D01*
X902884Y6010D02*
X900404Y6010D01*
X900404Y24490D01*
X902884Y24490D01*
X902884Y6010D01*
X902884Y8185D02*
X900404Y8185D01*
X900404Y10360D02*
X902884Y10360D01*
X902884Y12535D02*
X900404Y12535D01*
X900404Y14710D02*
X902884Y14710D01*
X902884Y16885D02*
X900404Y16885D01*
X900404Y19060D02*
X902884Y19060D01*
X902884Y21235D02*
X900404Y21235D01*
X900404Y23410D02*
X902884Y23410D01*
X897884Y6010D02*
X895404Y6010D01*
X895404Y24490D01*
X897884Y24490D01*
X897884Y6010D01*
X897884Y8185D02*
X895404Y8185D01*
X895404Y10360D02*
X897884Y10360D01*
X897884Y12535D02*
X895404Y12535D01*
X895404Y14710D02*
X897884Y14710D01*
X897884Y16885D02*
X895404Y16885D01*
X895404Y19060D02*
X897884Y19060D01*
X897884Y21235D02*
X895404Y21235D01*
X895404Y23410D02*
X897884Y23410D01*
X892884Y6010D02*
X890404Y6010D01*
X890404Y24490D01*
X892884Y24490D01*
X892884Y6010D01*
X892884Y8185D02*
X890404Y8185D01*
X890404Y10360D02*
X892884Y10360D01*
X892884Y12535D02*
X890404Y12535D01*
X890404Y14710D02*
X892884Y14710D01*
X892884Y16885D02*
X890404Y16885D01*
X890404Y19060D02*
X892884Y19060D01*
X892884Y21235D02*
X890404Y21235D01*
X890404Y23410D02*
X892884Y23410D01*
X887884Y6010D02*
X885404Y6010D01*
X885404Y24490D01*
X887884Y24490D01*
X887884Y6010D01*
X887884Y8185D02*
X885404Y8185D01*
X885404Y10360D02*
X887884Y10360D01*
X887884Y12535D02*
X885404Y12535D01*
X885404Y14710D02*
X887884Y14710D01*
X887884Y16885D02*
X885404Y16885D01*
X885404Y19060D02*
X887884Y19060D01*
X887884Y21235D02*
X885404Y21235D01*
X885404Y23410D02*
X887884Y23410D01*
X882884Y6010D02*
X880404Y6010D01*
X880404Y24490D01*
X882884Y24490D01*
X882884Y6010D01*
X882884Y8185D02*
X880404Y8185D01*
X880404Y10360D02*
X882884Y10360D01*
X882884Y12535D02*
X880404Y12535D01*
X880404Y14710D02*
X882884Y14710D01*
X882884Y16885D02*
X880404Y16885D01*
X880404Y19060D02*
X882884Y19060D01*
X882884Y21235D02*
X880404Y21235D01*
X880404Y23410D02*
X882884Y23410D01*
X877884Y6010D02*
X875404Y6010D01*
X875404Y24490D01*
X877884Y24490D01*
X877884Y6010D01*
X877884Y8185D02*
X875404Y8185D01*
X875404Y10360D02*
X877884Y10360D01*
X877884Y12535D02*
X875404Y12535D01*
X875404Y14710D02*
X877884Y14710D01*
X877884Y16885D02*
X875404Y16885D01*
X875404Y19060D02*
X877884Y19060D01*
X877884Y21235D02*
X875404Y21235D01*
X875404Y23410D02*
X877884Y23410D01*
X872884Y6010D02*
X870404Y6010D01*
X870404Y24490D01*
X872884Y24490D01*
X872884Y6010D01*
X872884Y8185D02*
X870404Y8185D01*
X870404Y10360D02*
X872884Y10360D01*
X872884Y12535D02*
X870404Y12535D01*
X870404Y14710D02*
X872884Y14710D01*
X872884Y16885D02*
X870404Y16885D01*
X870404Y19060D02*
X872884Y19060D01*
X872884Y21235D02*
X870404Y21235D01*
X870404Y23410D02*
X872884Y23410D01*
D16*
X1141644Y461000D03*
X1141644Y419000D03*
X1128644Y440000D03*
X781644Y419000D03*
X781644Y461000D03*
X794644Y440000D03*
D17*
X800274Y376320D03*
X800274Y350920D03*
X800354Y274320D03*
X797814Y248920D03*
X800354Y223520D03*
D18*
X867156Y197993D02*
X867156Y192659D01*
X855472Y192659D01*
X855472Y197993D01*
X867156Y197993D01*
X867156Y194831D02*
X855472Y194831D01*
X855472Y197003D02*
X867156Y197003D01*
X867156Y200787D02*
X867156Y206121D01*
X867156Y200787D02*
X855472Y200787D01*
X855472Y206121D01*
X867156Y206121D01*
X867156Y202959D02*
X855472Y202959D01*
X855472Y205131D02*
X867156Y205131D01*
D10*
X297182Y1110486D02*
X297182Y1116078D01*
X297182Y1110486D02*
X285494Y1110486D01*
X285494Y1116078D01*
X297182Y1116078D01*
X297182Y1112655D02*
X285494Y1112655D01*
X285494Y1114824D02*
X297182Y1114824D01*
X297182Y1120900D02*
X297182Y1126492D01*
X297182Y1120900D02*
X285494Y1120900D01*
X285494Y1126492D01*
X297182Y1126492D01*
X297182Y1123069D02*
X285494Y1123069D01*
X285494Y1125238D02*
X297182Y1125238D01*
X297182Y1131314D02*
X297182Y1136906D01*
X297182Y1131314D02*
X285494Y1131314D01*
X285494Y1136906D01*
X297182Y1136906D01*
X297182Y1133483D02*
X285494Y1133483D01*
X285494Y1135652D02*
X297182Y1135652D01*
X214759Y736856D02*
X209167Y736856D01*
X214759Y736856D02*
X214759Y725168D01*
X209167Y725168D01*
X209167Y736856D01*
X209167Y727337D02*
X214759Y727337D01*
X214759Y729506D02*
X209167Y729506D01*
X209167Y731675D02*
X214759Y731675D01*
X214759Y733844D02*
X209167Y733844D01*
X209167Y736013D02*
X214759Y736013D01*
X204345Y736856D02*
X198753Y736856D01*
X204345Y736856D02*
X204345Y725168D01*
X198753Y725168D01*
X198753Y736856D01*
X198753Y727337D02*
X204345Y727337D01*
X204345Y729506D02*
X198753Y729506D01*
X198753Y731675D02*
X204345Y731675D01*
X204345Y733844D02*
X198753Y733844D01*
X198753Y736013D02*
X204345Y736013D01*
X178945Y736856D02*
X173353Y736856D01*
X178945Y736856D02*
X178945Y725168D01*
X173353Y725168D01*
X173353Y736856D01*
X173353Y727337D02*
X178945Y727337D01*
X178945Y729506D02*
X173353Y729506D01*
X173353Y731675D02*
X178945Y731675D01*
X178945Y733844D02*
X173353Y733844D01*
X173353Y736013D02*
X178945Y736013D01*
X168531Y736856D02*
X162939Y736856D01*
X168531Y736856D02*
X168531Y725168D01*
X162939Y725168D01*
X162939Y736856D01*
X162939Y727337D02*
X168531Y727337D01*
X168531Y729506D02*
X162939Y729506D01*
X162939Y731675D02*
X168531Y731675D01*
X168531Y733844D02*
X162939Y733844D01*
X162939Y736013D02*
X168531Y736013D01*
D11*
X72192Y760758D03*
X129992Y760758D03*
D12*
X297296Y754118D02*
X311288Y754118D01*
X311288Y715126D01*
X297296Y715126D01*
X297296Y754118D01*
X297296Y717290D02*
X311288Y717290D01*
X311288Y719454D02*
X297296Y719454D01*
X297296Y721618D02*
X311288Y721618D01*
X311288Y723782D02*
X297296Y723782D01*
X297296Y725946D02*
X311288Y725946D01*
X311288Y728110D02*
X297296Y728110D01*
X297296Y730274D02*
X311288Y730274D01*
X311288Y732438D02*
X297296Y732438D01*
X297296Y734602D02*
X311288Y734602D01*
X311288Y736766D02*
X297296Y736766D01*
X297296Y738930D02*
X311288Y738930D01*
X311288Y741094D02*
X297296Y741094D01*
X297296Y743258D02*
X311288Y743258D01*
X311288Y745422D02*
X297296Y745422D01*
X297296Y747586D02*
X311288Y747586D01*
X311288Y749750D02*
X297296Y749750D01*
X297296Y751914D02*
X311288Y751914D01*
X311288Y754078D02*
X297296Y754078D01*
X260488Y754118D02*
X246496Y754118D01*
X260488Y754118D02*
X260488Y715126D01*
X246496Y715126D01*
X246496Y754118D01*
X246496Y717290D02*
X260488Y717290D01*
X260488Y719454D02*
X246496Y719454D01*
X246496Y721618D02*
X260488Y721618D01*
X260488Y723782D02*
X246496Y723782D01*
X246496Y725946D02*
X260488Y725946D01*
X260488Y728110D02*
X246496Y728110D01*
X246496Y730274D02*
X260488Y730274D01*
X260488Y732438D02*
X246496Y732438D01*
X246496Y734602D02*
X260488Y734602D01*
X260488Y736766D02*
X246496Y736766D01*
X246496Y738930D02*
X260488Y738930D01*
X260488Y741094D02*
X246496Y741094D01*
X246496Y743258D02*
X260488Y743258D01*
X260488Y745422D02*
X246496Y745422D01*
X246496Y747586D02*
X260488Y747586D01*
X260488Y749750D02*
X246496Y749750D01*
X246496Y751914D02*
X260488Y751914D01*
X260488Y754078D02*
X246496Y754078D01*
D13*
X30988Y1134364D03*
D14*
X362472Y1296416D03*
X18532Y761776D03*
D15*
X98752Y1356446D02*
X101232Y1356446D01*
X101232Y1337966D01*
X98752Y1337966D01*
X98752Y1356446D01*
X98752Y1340141D02*
X101232Y1340141D01*
X101232Y1342316D02*
X98752Y1342316D01*
X98752Y1344491D02*
X101232Y1344491D01*
X101232Y1346666D02*
X98752Y1346666D01*
X98752Y1348841D02*
X101232Y1348841D01*
X101232Y1351016D02*
X98752Y1351016D01*
X98752Y1353191D02*
X101232Y1353191D01*
X101232Y1355366D02*
X98752Y1355366D01*
X103752Y1356446D02*
X106232Y1356446D01*
X106232Y1337966D01*
X103752Y1337966D01*
X103752Y1356446D01*
X103752Y1340141D02*
X106232Y1340141D01*
X106232Y1342316D02*
X103752Y1342316D01*
X103752Y1344491D02*
X106232Y1344491D01*
X106232Y1346666D02*
X103752Y1346666D01*
X103752Y1348841D02*
X106232Y1348841D01*
X106232Y1351016D02*
X103752Y1351016D01*
X103752Y1353191D02*
X106232Y1353191D01*
X106232Y1355366D02*
X103752Y1355366D01*
X108752Y1356446D02*
X111232Y1356446D01*
X111232Y1337966D01*
X108752Y1337966D01*
X108752Y1356446D01*
X108752Y1340141D02*
X111232Y1340141D01*
X111232Y1342316D02*
X108752Y1342316D01*
X108752Y1344491D02*
X111232Y1344491D01*
X111232Y1346666D02*
X108752Y1346666D01*
X108752Y1348841D02*
X111232Y1348841D01*
X111232Y1351016D02*
X108752Y1351016D01*
X108752Y1353191D02*
X111232Y1353191D01*
X111232Y1355366D02*
X108752Y1355366D01*
X113752Y1356446D02*
X116232Y1356446D01*
X116232Y1337966D01*
X113752Y1337966D01*
X113752Y1356446D01*
X113752Y1340141D02*
X116232Y1340141D01*
X116232Y1342316D02*
X113752Y1342316D01*
X113752Y1344491D02*
X116232Y1344491D01*
X116232Y1346666D02*
X113752Y1346666D01*
X113752Y1348841D02*
X116232Y1348841D01*
X116232Y1351016D02*
X113752Y1351016D01*
X113752Y1353191D02*
X116232Y1353191D01*
X116232Y1355366D02*
X113752Y1355366D01*
X118752Y1356446D02*
X121232Y1356446D01*
X121232Y1337966D01*
X118752Y1337966D01*
X118752Y1356446D01*
X118752Y1340141D02*
X121232Y1340141D01*
X121232Y1342316D02*
X118752Y1342316D01*
X118752Y1344491D02*
X121232Y1344491D01*
X121232Y1346666D02*
X118752Y1346666D01*
X118752Y1348841D02*
X121232Y1348841D01*
X121232Y1351016D02*
X118752Y1351016D01*
X118752Y1353191D02*
X121232Y1353191D01*
X121232Y1355366D02*
X118752Y1355366D01*
X123752Y1356446D02*
X126232Y1356446D01*
X126232Y1337966D01*
X123752Y1337966D01*
X123752Y1356446D01*
X123752Y1340141D02*
X126232Y1340141D01*
X126232Y1342316D02*
X123752Y1342316D01*
X123752Y1344491D02*
X126232Y1344491D01*
X126232Y1346666D02*
X123752Y1346666D01*
X123752Y1348841D02*
X126232Y1348841D01*
X126232Y1351016D02*
X123752Y1351016D01*
X123752Y1353191D02*
X126232Y1353191D01*
X126232Y1355366D02*
X123752Y1355366D01*
X128752Y1356446D02*
X131232Y1356446D01*
X131232Y1337966D01*
X128752Y1337966D01*
X128752Y1356446D01*
X128752Y1340141D02*
X131232Y1340141D01*
X131232Y1342316D02*
X128752Y1342316D01*
X128752Y1344491D02*
X131232Y1344491D01*
X131232Y1346666D02*
X128752Y1346666D01*
X128752Y1348841D02*
X131232Y1348841D01*
X131232Y1351016D02*
X128752Y1351016D01*
X128752Y1353191D02*
X131232Y1353191D01*
X131232Y1355366D02*
X128752Y1355366D01*
X133752Y1356446D02*
X136232Y1356446D01*
X136232Y1337966D01*
X133752Y1337966D01*
X133752Y1356446D01*
X133752Y1340141D02*
X136232Y1340141D01*
X136232Y1342316D02*
X133752Y1342316D01*
X133752Y1344491D02*
X136232Y1344491D01*
X136232Y1346666D02*
X133752Y1346666D01*
X133752Y1348841D02*
X136232Y1348841D01*
X136232Y1351016D02*
X133752Y1351016D01*
X133752Y1353191D02*
X136232Y1353191D01*
X136232Y1355366D02*
X133752Y1355366D01*
X138752Y1356446D02*
X141232Y1356446D01*
X141232Y1337966D01*
X138752Y1337966D01*
X138752Y1356446D01*
X138752Y1340141D02*
X141232Y1340141D01*
X141232Y1342316D02*
X138752Y1342316D01*
X138752Y1344491D02*
X141232Y1344491D01*
X141232Y1346666D02*
X138752Y1346666D01*
X138752Y1348841D02*
X141232Y1348841D01*
X141232Y1351016D02*
X138752Y1351016D01*
X138752Y1353191D02*
X141232Y1353191D01*
X141232Y1355366D02*
X138752Y1355366D01*
X143752Y1356446D02*
X146232Y1356446D01*
X146232Y1337966D01*
X143752Y1337966D01*
X143752Y1356446D01*
X143752Y1340141D02*
X146232Y1340141D01*
X146232Y1342316D02*
X143752Y1342316D01*
X143752Y1344491D02*
X146232Y1344491D01*
X146232Y1346666D02*
X143752Y1346666D01*
X143752Y1348841D02*
X146232Y1348841D01*
X146232Y1351016D02*
X143752Y1351016D01*
X143752Y1353191D02*
X146232Y1353191D01*
X146232Y1355366D02*
X143752Y1355366D01*
X148752Y1356446D02*
X151232Y1356446D01*
X151232Y1337966D01*
X148752Y1337966D01*
X148752Y1356446D01*
X148752Y1340141D02*
X151232Y1340141D01*
X151232Y1342316D02*
X148752Y1342316D01*
X148752Y1344491D02*
X151232Y1344491D01*
X151232Y1346666D02*
X148752Y1346666D01*
X148752Y1348841D02*
X151232Y1348841D01*
X151232Y1351016D02*
X148752Y1351016D01*
X148752Y1353191D02*
X151232Y1353191D01*
X151232Y1355366D02*
X148752Y1355366D01*
X173752Y1356446D02*
X176232Y1356446D01*
X176232Y1337966D01*
X173752Y1337966D01*
X173752Y1356446D01*
X173752Y1340141D02*
X176232Y1340141D01*
X176232Y1342316D02*
X173752Y1342316D01*
X173752Y1344491D02*
X176232Y1344491D01*
X176232Y1346666D02*
X173752Y1346666D01*
X173752Y1348841D02*
X176232Y1348841D01*
X176232Y1351016D02*
X173752Y1351016D01*
X173752Y1353191D02*
X176232Y1353191D01*
X176232Y1355366D02*
X173752Y1355366D01*
X178752Y1356446D02*
X181232Y1356446D01*
X181232Y1337966D01*
X178752Y1337966D01*
X178752Y1356446D01*
X178752Y1340141D02*
X181232Y1340141D01*
X181232Y1342316D02*
X178752Y1342316D01*
X178752Y1344491D02*
X181232Y1344491D01*
X181232Y1346666D02*
X178752Y1346666D01*
X178752Y1348841D02*
X181232Y1348841D01*
X181232Y1351016D02*
X178752Y1351016D01*
X178752Y1353191D02*
X181232Y1353191D01*
X181232Y1355366D02*
X178752Y1355366D01*
X183752Y1356446D02*
X186232Y1356446D01*
X186232Y1337966D01*
X183752Y1337966D01*
X183752Y1356446D01*
X183752Y1340141D02*
X186232Y1340141D01*
X186232Y1342316D02*
X183752Y1342316D01*
X183752Y1344491D02*
X186232Y1344491D01*
X186232Y1346666D02*
X183752Y1346666D01*
X183752Y1348841D02*
X186232Y1348841D01*
X186232Y1351016D02*
X183752Y1351016D01*
X183752Y1353191D02*
X186232Y1353191D01*
X186232Y1355366D02*
X183752Y1355366D01*
X188752Y1356446D02*
X191232Y1356446D01*
X191232Y1337966D01*
X188752Y1337966D01*
X188752Y1356446D01*
X188752Y1340141D02*
X191232Y1340141D01*
X191232Y1342316D02*
X188752Y1342316D01*
X188752Y1344491D02*
X191232Y1344491D01*
X191232Y1346666D02*
X188752Y1346666D01*
X188752Y1348841D02*
X191232Y1348841D01*
X191232Y1351016D02*
X188752Y1351016D01*
X188752Y1353191D02*
X191232Y1353191D01*
X191232Y1355366D02*
X188752Y1355366D01*
X193752Y1356446D02*
X196232Y1356446D01*
X196232Y1337966D01*
X193752Y1337966D01*
X193752Y1356446D01*
X193752Y1340141D02*
X196232Y1340141D01*
X196232Y1342316D02*
X193752Y1342316D01*
X193752Y1344491D02*
X196232Y1344491D01*
X196232Y1346666D02*
X193752Y1346666D01*
X193752Y1348841D02*
X196232Y1348841D01*
X196232Y1351016D02*
X193752Y1351016D01*
X193752Y1353191D02*
X196232Y1353191D01*
X196232Y1355366D02*
X193752Y1355366D01*
X198752Y1356446D02*
X201232Y1356446D01*
X201232Y1337966D01*
X198752Y1337966D01*
X198752Y1356446D01*
X198752Y1340141D02*
X201232Y1340141D01*
X201232Y1342316D02*
X198752Y1342316D01*
X198752Y1344491D02*
X201232Y1344491D01*
X201232Y1346666D02*
X198752Y1346666D01*
X198752Y1348841D02*
X201232Y1348841D01*
X201232Y1351016D02*
X198752Y1351016D01*
X198752Y1353191D02*
X201232Y1353191D01*
X201232Y1355366D02*
X198752Y1355366D01*
X203752Y1356446D02*
X206232Y1356446D01*
X206232Y1337966D01*
X203752Y1337966D01*
X203752Y1356446D01*
X203752Y1340141D02*
X206232Y1340141D01*
X206232Y1342316D02*
X203752Y1342316D01*
X203752Y1344491D02*
X206232Y1344491D01*
X206232Y1346666D02*
X203752Y1346666D01*
X203752Y1348841D02*
X206232Y1348841D01*
X206232Y1351016D02*
X203752Y1351016D01*
X203752Y1353191D02*
X206232Y1353191D01*
X206232Y1355366D02*
X203752Y1355366D01*
X208752Y1356446D02*
X211232Y1356446D01*
X211232Y1337966D01*
X208752Y1337966D01*
X208752Y1356446D01*
X208752Y1340141D02*
X211232Y1340141D01*
X211232Y1342316D02*
X208752Y1342316D01*
X208752Y1344491D02*
X211232Y1344491D01*
X211232Y1346666D02*
X208752Y1346666D01*
X208752Y1348841D02*
X211232Y1348841D01*
X211232Y1351016D02*
X208752Y1351016D01*
X208752Y1353191D02*
X211232Y1353191D01*
X211232Y1355366D02*
X208752Y1355366D01*
X213752Y1356446D02*
X216232Y1356446D01*
X216232Y1337966D01*
X213752Y1337966D01*
X213752Y1356446D01*
X213752Y1340141D02*
X216232Y1340141D01*
X216232Y1342316D02*
X213752Y1342316D01*
X213752Y1344491D02*
X216232Y1344491D01*
X216232Y1346666D02*
X213752Y1346666D01*
X213752Y1348841D02*
X216232Y1348841D01*
X216232Y1351016D02*
X213752Y1351016D01*
X213752Y1353191D02*
X216232Y1353191D01*
X216232Y1355366D02*
X213752Y1355366D01*
X218752Y1356446D02*
X221232Y1356446D01*
X221232Y1337966D01*
X218752Y1337966D01*
X218752Y1356446D01*
X218752Y1340141D02*
X221232Y1340141D01*
X221232Y1342316D02*
X218752Y1342316D01*
X218752Y1344491D02*
X221232Y1344491D01*
X221232Y1346666D02*
X218752Y1346666D01*
X218752Y1348841D02*
X221232Y1348841D01*
X221232Y1351016D02*
X218752Y1351016D01*
X218752Y1353191D02*
X221232Y1353191D01*
X221232Y1355366D02*
X218752Y1355366D01*
X223752Y1356446D02*
X226232Y1356446D01*
X226232Y1337966D01*
X223752Y1337966D01*
X223752Y1356446D01*
X223752Y1340141D02*
X226232Y1340141D01*
X226232Y1342316D02*
X223752Y1342316D01*
X223752Y1344491D02*
X226232Y1344491D01*
X226232Y1346666D02*
X223752Y1346666D01*
X223752Y1348841D02*
X226232Y1348841D01*
X226232Y1351016D02*
X223752Y1351016D01*
X223752Y1353191D02*
X226232Y1353191D01*
X226232Y1355366D02*
X223752Y1355366D01*
X228752Y1356446D02*
X231232Y1356446D01*
X231232Y1337966D01*
X228752Y1337966D01*
X228752Y1356446D01*
X228752Y1340141D02*
X231232Y1340141D01*
X231232Y1342316D02*
X228752Y1342316D01*
X228752Y1344491D02*
X231232Y1344491D01*
X231232Y1346666D02*
X228752Y1346666D01*
X228752Y1348841D02*
X231232Y1348841D01*
X231232Y1351016D02*
X228752Y1351016D01*
X228752Y1353191D02*
X231232Y1353191D01*
X231232Y1355366D02*
X228752Y1355366D01*
X233752Y1356446D02*
X236232Y1356446D01*
X236232Y1337966D01*
X233752Y1337966D01*
X233752Y1356446D01*
X233752Y1340141D02*
X236232Y1340141D01*
X236232Y1342316D02*
X233752Y1342316D01*
X233752Y1344491D02*
X236232Y1344491D01*
X236232Y1346666D02*
X233752Y1346666D01*
X233752Y1348841D02*
X236232Y1348841D01*
X236232Y1351016D02*
X233752Y1351016D01*
X233752Y1353191D02*
X236232Y1353191D01*
X236232Y1355366D02*
X233752Y1355366D01*
X238752Y1356446D02*
X241232Y1356446D01*
X241232Y1337966D01*
X238752Y1337966D01*
X238752Y1356446D01*
X238752Y1340141D02*
X241232Y1340141D01*
X241232Y1342316D02*
X238752Y1342316D01*
X238752Y1344491D02*
X241232Y1344491D01*
X241232Y1346666D02*
X238752Y1346666D01*
X238752Y1348841D02*
X241232Y1348841D01*
X241232Y1351016D02*
X238752Y1351016D01*
X238752Y1353191D02*
X241232Y1353191D01*
X241232Y1355366D02*
X238752Y1355366D01*
X243752Y1356446D02*
X246232Y1356446D01*
X246232Y1337966D01*
X243752Y1337966D01*
X243752Y1356446D01*
X243752Y1340141D02*
X246232Y1340141D01*
X246232Y1342316D02*
X243752Y1342316D01*
X243752Y1344491D02*
X246232Y1344491D01*
X246232Y1346666D02*
X243752Y1346666D01*
X243752Y1348841D02*
X246232Y1348841D01*
X246232Y1351016D02*
X243752Y1351016D01*
X243752Y1353191D02*
X246232Y1353191D01*
X246232Y1355366D02*
X243752Y1355366D01*
X248752Y1356446D02*
X251232Y1356446D01*
X251232Y1337966D01*
X248752Y1337966D01*
X248752Y1356446D01*
X248752Y1340141D02*
X251232Y1340141D01*
X251232Y1342316D02*
X248752Y1342316D01*
X248752Y1344491D02*
X251232Y1344491D01*
X251232Y1346666D02*
X248752Y1346666D01*
X248752Y1348841D02*
X251232Y1348841D01*
X251232Y1351016D02*
X248752Y1351016D01*
X248752Y1353191D02*
X251232Y1353191D01*
X251232Y1355366D02*
X248752Y1355366D01*
X253752Y1356446D02*
X256232Y1356446D01*
X256232Y1337966D01*
X253752Y1337966D01*
X253752Y1356446D01*
X253752Y1340141D02*
X256232Y1340141D01*
X256232Y1342316D02*
X253752Y1342316D01*
X253752Y1344491D02*
X256232Y1344491D01*
X256232Y1346666D02*
X253752Y1346666D01*
X253752Y1348841D02*
X256232Y1348841D01*
X256232Y1351016D02*
X253752Y1351016D01*
X253752Y1353191D02*
X256232Y1353191D01*
X256232Y1355366D02*
X253752Y1355366D01*
X258752Y1356446D02*
X261232Y1356446D01*
X261232Y1337966D01*
X258752Y1337966D01*
X258752Y1356446D01*
X258752Y1340141D02*
X261232Y1340141D01*
X261232Y1342316D02*
X258752Y1342316D01*
X258752Y1344491D02*
X261232Y1344491D01*
X261232Y1346666D02*
X258752Y1346666D01*
X258752Y1348841D02*
X261232Y1348841D01*
X261232Y1351016D02*
X258752Y1351016D01*
X258752Y1353191D02*
X261232Y1353191D01*
X261232Y1355366D02*
X258752Y1355366D01*
X263752Y1356446D02*
X266232Y1356446D01*
X266232Y1337966D01*
X263752Y1337966D01*
X263752Y1356446D01*
X263752Y1340141D02*
X266232Y1340141D01*
X266232Y1342316D02*
X263752Y1342316D01*
X263752Y1344491D02*
X266232Y1344491D01*
X266232Y1346666D02*
X263752Y1346666D01*
X263752Y1348841D02*
X266232Y1348841D01*
X266232Y1351016D02*
X263752Y1351016D01*
X263752Y1353191D02*
X266232Y1353191D01*
X266232Y1355366D02*
X263752Y1355366D01*
X268752Y1356446D02*
X271232Y1356446D01*
X271232Y1337966D01*
X268752Y1337966D01*
X268752Y1356446D01*
X268752Y1340141D02*
X271232Y1340141D01*
X271232Y1342316D02*
X268752Y1342316D01*
X268752Y1344491D02*
X271232Y1344491D01*
X271232Y1346666D02*
X268752Y1346666D01*
X268752Y1348841D02*
X271232Y1348841D01*
X271232Y1351016D02*
X268752Y1351016D01*
X268752Y1353191D02*
X271232Y1353191D01*
X271232Y1355366D02*
X268752Y1355366D01*
X273752Y1356446D02*
X276232Y1356446D01*
X276232Y1337966D01*
X273752Y1337966D01*
X273752Y1356446D01*
X273752Y1340141D02*
X276232Y1340141D01*
X276232Y1342316D02*
X273752Y1342316D01*
X273752Y1344491D02*
X276232Y1344491D01*
X276232Y1346666D02*
X273752Y1346666D01*
X273752Y1348841D02*
X276232Y1348841D01*
X276232Y1351016D02*
X273752Y1351016D01*
X273752Y1353191D02*
X276232Y1353191D01*
X276232Y1355366D02*
X273752Y1355366D01*
X278752Y1356446D02*
X281232Y1356446D01*
X281232Y1337966D01*
X278752Y1337966D01*
X278752Y1356446D01*
X278752Y1340141D02*
X281232Y1340141D01*
X281232Y1342316D02*
X278752Y1342316D01*
X278752Y1344491D02*
X281232Y1344491D01*
X281232Y1346666D02*
X278752Y1346666D01*
X278752Y1348841D02*
X281232Y1348841D01*
X281232Y1351016D02*
X278752Y1351016D01*
X278752Y1353191D02*
X281232Y1353191D01*
X281232Y1355366D02*
X278752Y1355366D01*
D16*
X9992Y901456D03*
X9992Y943456D03*
X22992Y922456D03*
X369992Y943456D03*
X369992Y901456D03*
X356992Y922456D03*
D17*
X351362Y986136D03*
X351362Y1011536D03*
X351282Y1088136D03*
X353822Y1113536D03*
X351282Y1138936D03*
D18*
X284480Y1164463D02*
X284480Y1169797D01*
X296164Y1169797D01*
X296164Y1164463D01*
X284480Y1164463D01*
X284480Y1166635D02*
X296164Y1166635D01*
X296164Y1168807D02*
X284480Y1168807D01*
X284480Y1161669D02*
X284480Y1156335D01*
X284480Y1161669D02*
X296164Y1161669D01*
X296164Y1156335D01*
X284480Y1156335D01*
X284480Y1158507D02*
X296164Y1158507D01*
X296164Y1160679D02*
X284480Y1160679D01*
D10*
X682754Y1116078D02*
X682754Y1110486D01*
X671066Y1110486D01*
X671066Y1116078D01*
X682754Y1116078D01*
X682754Y1112655D02*
X671066Y1112655D01*
X671066Y1114824D02*
X682754Y1114824D01*
X682754Y1120900D02*
X682754Y1126492D01*
X682754Y1120900D02*
X671066Y1120900D01*
X671066Y1126492D01*
X682754Y1126492D01*
X682754Y1123069D02*
X671066Y1123069D01*
X671066Y1125238D02*
X682754Y1125238D01*
X682754Y1131314D02*
X682754Y1136906D01*
X682754Y1131314D02*
X671066Y1131314D01*
X671066Y1136906D01*
X682754Y1136906D01*
X682754Y1133483D02*
X671066Y1133483D01*
X671066Y1135652D02*
X682754Y1135652D01*
X600331Y736856D02*
X594739Y736856D01*
X600331Y736856D02*
X600331Y725168D01*
X594739Y725168D01*
X594739Y736856D01*
X594739Y727337D02*
X600331Y727337D01*
X600331Y729506D02*
X594739Y729506D01*
X594739Y731675D02*
X600331Y731675D01*
X600331Y733844D02*
X594739Y733844D01*
X594739Y736013D02*
X600331Y736013D01*
X589917Y736856D02*
X584325Y736856D01*
X589917Y736856D02*
X589917Y725168D01*
X584325Y725168D01*
X584325Y736856D01*
X584325Y727337D02*
X589917Y727337D01*
X589917Y729506D02*
X584325Y729506D01*
X584325Y731675D02*
X589917Y731675D01*
X589917Y733844D02*
X584325Y733844D01*
X584325Y736013D02*
X589917Y736013D01*
X564517Y736856D02*
X558925Y736856D01*
X564517Y736856D02*
X564517Y725168D01*
X558925Y725168D01*
X558925Y736856D01*
X558925Y727337D02*
X564517Y727337D01*
X564517Y729506D02*
X558925Y729506D01*
X558925Y731675D02*
X564517Y731675D01*
X564517Y733844D02*
X558925Y733844D01*
X558925Y736013D02*
X564517Y736013D01*
X554103Y736856D02*
X548511Y736856D01*
X554103Y736856D02*
X554103Y725168D01*
X548511Y725168D01*
X548511Y736856D01*
X548511Y727337D02*
X554103Y727337D01*
X554103Y729506D02*
X548511Y729506D01*
X548511Y731675D02*
X554103Y731675D01*
X554103Y733844D02*
X548511Y733844D01*
X548511Y736013D02*
X554103Y736013D01*
D11*
X457764Y760758D03*
X515564Y760758D03*
D12*
X682868Y754118D02*
X696860Y754118D01*
X696860Y715126D01*
X682868Y715126D01*
X682868Y754118D01*
X682868Y717290D02*
X696860Y717290D01*
X696860Y719454D02*
X682868Y719454D01*
X682868Y721618D02*
X696860Y721618D01*
X696860Y723782D02*
X682868Y723782D01*
X682868Y725946D02*
X696860Y725946D01*
X696860Y728110D02*
X682868Y728110D01*
X682868Y730274D02*
X696860Y730274D01*
X696860Y732438D02*
X682868Y732438D01*
X682868Y734602D02*
X696860Y734602D01*
X696860Y736766D02*
X682868Y736766D01*
X682868Y738930D02*
X696860Y738930D01*
X696860Y741094D02*
X682868Y741094D01*
X682868Y743258D02*
X696860Y743258D01*
X696860Y745422D02*
X682868Y745422D01*
X682868Y747586D02*
X696860Y747586D01*
X696860Y749750D02*
X682868Y749750D01*
X682868Y751914D02*
X696860Y751914D01*
X696860Y754078D02*
X682868Y754078D01*
X646060Y754118D02*
X632068Y754118D01*
X646060Y754118D02*
X646060Y715126D01*
X632068Y715126D01*
X632068Y754118D01*
X632068Y717290D02*
X646060Y717290D01*
X646060Y719454D02*
X632068Y719454D01*
X632068Y721618D02*
X646060Y721618D01*
X646060Y723782D02*
X632068Y723782D01*
X632068Y725946D02*
X646060Y725946D01*
X646060Y728110D02*
X632068Y728110D01*
X632068Y730274D02*
X646060Y730274D01*
X646060Y732438D02*
X632068Y732438D01*
X632068Y734602D02*
X646060Y734602D01*
X646060Y736766D02*
X632068Y736766D01*
X632068Y738930D02*
X646060Y738930D01*
X646060Y741094D02*
X632068Y741094D01*
X632068Y743258D02*
X646060Y743258D01*
X646060Y745422D02*
X632068Y745422D01*
X632068Y747586D02*
X646060Y747586D01*
X646060Y749750D02*
X632068Y749750D01*
X632068Y751914D02*
X646060Y751914D01*
X646060Y754078D02*
X632068Y754078D01*
D13*
X416560Y1134364D03*
D14*
X748044Y1296416D03*
X404104Y761776D03*
D15*
X484324Y1356446D02*
X486804Y1356446D01*
X486804Y1337966D01*
X484324Y1337966D01*
X484324Y1356446D01*
X484324Y1340141D02*
X486804Y1340141D01*
X486804Y1342316D02*
X484324Y1342316D01*
X484324Y1344491D02*
X486804Y1344491D01*
X486804Y1346666D02*
X484324Y1346666D01*
X484324Y1348841D02*
X486804Y1348841D01*
X486804Y1351016D02*
X484324Y1351016D01*
X484324Y1353191D02*
X486804Y1353191D01*
X486804Y1355366D02*
X484324Y1355366D01*
X489324Y1356446D02*
X491804Y1356446D01*
X491804Y1337966D01*
X489324Y1337966D01*
X489324Y1356446D01*
X489324Y1340141D02*
X491804Y1340141D01*
X491804Y1342316D02*
X489324Y1342316D01*
X489324Y1344491D02*
X491804Y1344491D01*
X491804Y1346666D02*
X489324Y1346666D01*
X489324Y1348841D02*
X491804Y1348841D01*
X491804Y1351016D02*
X489324Y1351016D01*
X489324Y1353191D02*
X491804Y1353191D01*
X491804Y1355366D02*
X489324Y1355366D01*
X494324Y1356446D02*
X496804Y1356446D01*
X496804Y1337966D01*
X494324Y1337966D01*
X494324Y1356446D01*
X494324Y1340141D02*
X496804Y1340141D01*
X496804Y1342316D02*
X494324Y1342316D01*
X494324Y1344491D02*
X496804Y1344491D01*
X496804Y1346666D02*
X494324Y1346666D01*
X494324Y1348841D02*
X496804Y1348841D01*
X496804Y1351016D02*
X494324Y1351016D01*
X494324Y1353191D02*
X496804Y1353191D01*
X496804Y1355366D02*
X494324Y1355366D01*
X499324Y1356446D02*
X501804Y1356446D01*
X501804Y1337966D01*
X499324Y1337966D01*
X499324Y1356446D01*
X499324Y1340141D02*
X501804Y1340141D01*
X501804Y1342316D02*
X499324Y1342316D01*
X499324Y1344491D02*
X501804Y1344491D01*
X501804Y1346666D02*
X499324Y1346666D01*
X499324Y1348841D02*
X501804Y1348841D01*
X501804Y1351016D02*
X499324Y1351016D01*
X499324Y1353191D02*
X501804Y1353191D01*
X501804Y1355366D02*
X499324Y1355366D01*
X504324Y1356446D02*
X506804Y1356446D01*
X506804Y1337966D01*
X504324Y1337966D01*
X504324Y1356446D01*
X504324Y1340141D02*
X506804Y1340141D01*
X506804Y1342316D02*
X504324Y1342316D01*
X504324Y1344491D02*
X506804Y1344491D01*
X506804Y1346666D02*
X504324Y1346666D01*
X504324Y1348841D02*
X506804Y1348841D01*
X506804Y1351016D02*
X504324Y1351016D01*
X504324Y1353191D02*
X506804Y1353191D01*
X506804Y1355366D02*
X504324Y1355366D01*
X509324Y1356446D02*
X511804Y1356446D01*
X511804Y1337966D01*
X509324Y1337966D01*
X509324Y1356446D01*
X509324Y1340141D02*
X511804Y1340141D01*
X511804Y1342316D02*
X509324Y1342316D01*
X509324Y1344491D02*
X511804Y1344491D01*
X511804Y1346666D02*
X509324Y1346666D01*
X509324Y1348841D02*
X511804Y1348841D01*
X511804Y1351016D02*
X509324Y1351016D01*
X509324Y1353191D02*
X511804Y1353191D01*
X511804Y1355366D02*
X509324Y1355366D01*
X514324Y1356446D02*
X516804Y1356446D01*
X516804Y1337966D01*
X514324Y1337966D01*
X514324Y1356446D01*
X514324Y1340141D02*
X516804Y1340141D01*
X516804Y1342316D02*
X514324Y1342316D01*
X514324Y1344491D02*
X516804Y1344491D01*
X516804Y1346666D02*
X514324Y1346666D01*
X514324Y1348841D02*
X516804Y1348841D01*
X516804Y1351016D02*
X514324Y1351016D01*
X514324Y1353191D02*
X516804Y1353191D01*
X516804Y1355366D02*
X514324Y1355366D01*
X519324Y1356446D02*
X521804Y1356446D01*
X521804Y1337966D01*
X519324Y1337966D01*
X519324Y1356446D01*
X519324Y1340141D02*
X521804Y1340141D01*
X521804Y1342316D02*
X519324Y1342316D01*
X519324Y1344491D02*
X521804Y1344491D01*
X521804Y1346666D02*
X519324Y1346666D01*
X519324Y1348841D02*
X521804Y1348841D01*
X521804Y1351016D02*
X519324Y1351016D01*
X519324Y1353191D02*
X521804Y1353191D01*
X521804Y1355366D02*
X519324Y1355366D01*
X524324Y1356446D02*
X526804Y1356446D01*
X526804Y1337966D01*
X524324Y1337966D01*
X524324Y1356446D01*
X524324Y1340141D02*
X526804Y1340141D01*
X526804Y1342316D02*
X524324Y1342316D01*
X524324Y1344491D02*
X526804Y1344491D01*
X526804Y1346666D02*
X524324Y1346666D01*
X524324Y1348841D02*
X526804Y1348841D01*
X526804Y1351016D02*
X524324Y1351016D01*
X524324Y1353191D02*
X526804Y1353191D01*
X526804Y1355366D02*
X524324Y1355366D01*
X529324Y1356446D02*
X531804Y1356446D01*
X531804Y1337966D01*
X529324Y1337966D01*
X529324Y1356446D01*
X529324Y1340141D02*
X531804Y1340141D01*
X531804Y1342316D02*
X529324Y1342316D01*
X529324Y1344491D02*
X531804Y1344491D01*
X531804Y1346666D02*
X529324Y1346666D01*
X529324Y1348841D02*
X531804Y1348841D01*
X531804Y1351016D02*
X529324Y1351016D01*
X529324Y1353191D02*
X531804Y1353191D01*
X531804Y1355366D02*
X529324Y1355366D01*
X534324Y1356446D02*
X536804Y1356446D01*
X536804Y1337966D01*
X534324Y1337966D01*
X534324Y1356446D01*
X534324Y1340141D02*
X536804Y1340141D01*
X536804Y1342316D02*
X534324Y1342316D01*
X534324Y1344491D02*
X536804Y1344491D01*
X536804Y1346666D02*
X534324Y1346666D01*
X534324Y1348841D02*
X536804Y1348841D01*
X536804Y1351016D02*
X534324Y1351016D01*
X534324Y1353191D02*
X536804Y1353191D01*
X536804Y1355366D02*
X534324Y1355366D01*
X559324Y1356446D02*
X561804Y1356446D01*
X561804Y1337966D01*
X559324Y1337966D01*
X559324Y1356446D01*
X559324Y1340141D02*
X561804Y1340141D01*
X561804Y1342316D02*
X559324Y1342316D01*
X559324Y1344491D02*
X561804Y1344491D01*
X561804Y1346666D02*
X559324Y1346666D01*
X559324Y1348841D02*
X561804Y1348841D01*
X561804Y1351016D02*
X559324Y1351016D01*
X559324Y1353191D02*
X561804Y1353191D01*
X561804Y1355366D02*
X559324Y1355366D01*
X564324Y1356446D02*
X566804Y1356446D01*
X566804Y1337966D01*
X564324Y1337966D01*
X564324Y1356446D01*
X564324Y1340141D02*
X566804Y1340141D01*
X566804Y1342316D02*
X564324Y1342316D01*
X564324Y1344491D02*
X566804Y1344491D01*
X566804Y1346666D02*
X564324Y1346666D01*
X564324Y1348841D02*
X566804Y1348841D01*
X566804Y1351016D02*
X564324Y1351016D01*
X564324Y1353191D02*
X566804Y1353191D01*
X566804Y1355366D02*
X564324Y1355366D01*
X569324Y1356446D02*
X571804Y1356446D01*
X571804Y1337966D01*
X569324Y1337966D01*
X569324Y1356446D01*
X569324Y1340141D02*
X571804Y1340141D01*
X571804Y1342316D02*
X569324Y1342316D01*
X569324Y1344491D02*
X571804Y1344491D01*
X571804Y1346666D02*
X569324Y1346666D01*
X569324Y1348841D02*
X571804Y1348841D01*
X571804Y1351016D02*
X569324Y1351016D01*
X569324Y1353191D02*
X571804Y1353191D01*
X571804Y1355366D02*
X569324Y1355366D01*
X574324Y1356446D02*
X576804Y1356446D01*
X576804Y1337966D01*
X574324Y1337966D01*
X574324Y1356446D01*
X574324Y1340141D02*
X576804Y1340141D01*
X576804Y1342316D02*
X574324Y1342316D01*
X574324Y1344491D02*
X576804Y1344491D01*
X576804Y1346666D02*
X574324Y1346666D01*
X574324Y1348841D02*
X576804Y1348841D01*
X576804Y1351016D02*
X574324Y1351016D01*
X574324Y1353191D02*
X576804Y1353191D01*
X576804Y1355366D02*
X574324Y1355366D01*
X579324Y1356446D02*
X581804Y1356446D01*
X581804Y1337966D01*
X579324Y1337966D01*
X579324Y1356446D01*
X579324Y1340141D02*
X581804Y1340141D01*
X581804Y1342316D02*
X579324Y1342316D01*
X579324Y1344491D02*
X581804Y1344491D01*
X581804Y1346666D02*
X579324Y1346666D01*
X579324Y1348841D02*
X581804Y1348841D01*
X581804Y1351016D02*
X579324Y1351016D01*
X579324Y1353191D02*
X581804Y1353191D01*
X581804Y1355366D02*
X579324Y1355366D01*
X584324Y1356446D02*
X586804Y1356446D01*
X586804Y1337966D01*
X584324Y1337966D01*
X584324Y1356446D01*
X584324Y1340141D02*
X586804Y1340141D01*
X586804Y1342316D02*
X584324Y1342316D01*
X584324Y1344491D02*
X586804Y1344491D01*
X586804Y1346666D02*
X584324Y1346666D01*
X584324Y1348841D02*
X586804Y1348841D01*
X586804Y1351016D02*
X584324Y1351016D01*
X584324Y1353191D02*
X586804Y1353191D01*
X586804Y1355366D02*
X584324Y1355366D01*
X589324Y1356446D02*
X591804Y1356446D01*
X591804Y1337966D01*
X589324Y1337966D01*
X589324Y1356446D01*
X589324Y1340141D02*
X591804Y1340141D01*
X591804Y1342316D02*
X589324Y1342316D01*
X589324Y1344491D02*
X591804Y1344491D01*
X591804Y1346666D02*
X589324Y1346666D01*
X589324Y1348841D02*
X591804Y1348841D01*
X591804Y1351016D02*
X589324Y1351016D01*
X589324Y1353191D02*
X591804Y1353191D01*
X591804Y1355366D02*
X589324Y1355366D01*
X594324Y1356446D02*
X596804Y1356446D01*
X596804Y1337966D01*
X594324Y1337966D01*
X594324Y1356446D01*
X594324Y1340141D02*
X596804Y1340141D01*
X596804Y1342316D02*
X594324Y1342316D01*
X594324Y1344491D02*
X596804Y1344491D01*
X596804Y1346666D02*
X594324Y1346666D01*
X594324Y1348841D02*
X596804Y1348841D01*
X596804Y1351016D02*
X594324Y1351016D01*
X594324Y1353191D02*
X596804Y1353191D01*
X596804Y1355366D02*
X594324Y1355366D01*
X599324Y1356446D02*
X601804Y1356446D01*
X601804Y1337966D01*
X599324Y1337966D01*
X599324Y1356446D01*
X599324Y1340141D02*
X601804Y1340141D01*
X601804Y1342316D02*
X599324Y1342316D01*
X599324Y1344491D02*
X601804Y1344491D01*
X601804Y1346666D02*
X599324Y1346666D01*
X599324Y1348841D02*
X601804Y1348841D01*
X601804Y1351016D02*
X599324Y1351016D01*
X599324Y1353191D02*
X601804Y1353191D01*
X601804Y1355366D02*
X599324Y1355366D01*
X604324Y1356446D02*
X606804Y1356446D01*
X606804Y1337966D01*
X604324Y1337966D01*
X604324Y1356446D01*
X604324Y1340141D02*
X606804Y1340141D01*
X606804Y1342316D02*
X604324Y1342316D01*
X604324Y1344491D02*
X606804Y1344491D01*
X606804Y1346666D02*
X604324Y1346666D01*
X604324Y1348841D02*
X606804Y1348841D01*
X606804Y1351016D02*
X604324Y1351016D01*
X604324Y1353191D02*
X606804Y1353191D01*
X606804Y1355366D02*
X604324Y1355366D01*
X609324Y1356446D02*
X611804Y1356446D01*
X611804Y1337966D01*
X609324Y1337966D01*
X609324Y1356446D01*
X609324Y1340141D02*
X611804Y1340141D01*
X611804Y1342316D02*
X609324Y1342316D01*
X609324Y1344491D02*
X611804Y1344491D01*
X611804Y1346666D02*
X609324Y1346666D01*
X609324Y1348841D02*
X611804Y1348841D01*
X611804Y1351016D02*
X609324Y1351016D01*
X609324Y1353191D02*
X611804Y1353191D01*
X611804Y1355366D02*
X609324Y1355366D01*
X614324Y1356446D02*
X616804Y1356446D01*
X616804Y1337966D01*
X614324Y1337966D01*
X614324Y1356446D01*
X614324Y1340141D02*
X616804Y1340141D01*
X616804Y1342316D02*
X614324Y1342316D01*
X614324Y1344491D02*
X616804Y1344491D01*
X616804Y1346666D02*
X614324Y1346666D01*
X614324Y1348841D02*
X616804Y1348841D01*
X616804Y1351016D02*
X614324Y1351016D01*
X614324Y1353191D02*
X616804Y1353191D01*
X616804Y1355366D02*
X614324Y1355366D01*
X619324Y1356446D02*
X621804Y1356446D01*
X621804Y1337966D01*
X619324Y1337966D01*
X619324Y1356446D01*
X619324Y1340141D02*
X621804Y1340141D01*
X621804Y1342316D02*
X619324Y1342316D01*
X619324Y1344491D02*
X621804Y1344491D01*
X621804Y1346666D02*
X619324Y1346666D01*
X619324Y1348841D02*
X621804Y1348841D01*
X621804Y1351016D02*
X619324Y1351016D01*
X619324Y1353191D02*
X621804Y1353191D01*
X621804Y1355366D02*
X619324Y1355366D01*
X624324Y1356446D02*
X626804Y1356446D01*
X626804Y1337966D01*
X624324Y1337966D01*
X624324Y1356446D01*
X624324Y1340141D02*
X626804Y1340141D01*
X626804Y1342316D02*
X624324Y1342316D01*
X624324Y1344491D02*
X626804Y1344491D01*
X626804Y1346666D02*
X624324Y1346666D01*
X624324Y1348841D02*
X626804Y1348841D01*
X626804Y1351016D02*
X624324Y1351016D01*
X624324Y1353191D02*
X626804Y1353191D01*
X626804Y1355366D02*
X624324Y1355366D01*
X629324Y1356446D02*
X631804Y1356446D01*
X631804Y1337966D01*
X629324Y1337966D01*
X629324Y1356446D01*
X629324Y1340141D02*
X631804Y1340141D01*
X631804Y1342316D02*
X629324Y1342316D01*
X629324Y1344491D02*
X631804Y1344491D01*
X631804Y1346666D02*
X629324Y1346666D01*
X629324Y1348841D02*
X631804Y1348841D01*
X631804Y1351016D02*
X629324Y1351016D01*
X629324Y1353191D02*
X631804Y1353191D01*
X631804Y1355366D02*
X629324Y1355366D01*
X634324Y1356446D02*
X636804Y1356446D01*
X636804Y1337966D01*
X634324Y1337966D01*
X634324Y1356446D01*
X634324Y1340141D02*
X636804Y1340141D01*
X636804Y1342316D02*
X634324Y1342316D01*
X634324Y1344491D02*
X636804Y1344491D01*
X636804Y1346666D02*
X634324Y1346666D01*
X634324Y1348841D02*
X636804Y1348841D01*
X636804Y1351016D02*
X634324Y1351016D01*
X634324Y1353191D02*
X636804Y1353191D01*
X636804Y1355366D02*
X634324Y1355366D01*
X639324Y1356446D02*
X641804Y1356446D01*
X641804Y1337966D01*
X639324Y1337966D01*
X639324Y1356446D01*
X639324Y1340141D02*
X641804Y1340141D01*
X641804Y1342316D02*
X639324Y1342316D01*
X639324Y1344491D02*
X641804Y1344491D01*
X641804Y1346666D02*
X639324Y1346666D01*
X639324Y1348841D02*
X641804Y1348841D01*
X641804Y1351016D02*
X639324Y1351016D01*
X639324Y1353191D02*
X641804Y1353191D01*
X641804Y1355366D02*
X639324Y1355366D01*
X644324Y1356446D02*
X646804Y1356446D01*
X646804Y1337966D01*
X644324Y1337966D01*
X644324Y1356446D01*
X644324Y1340141D02*
X646804Y1340141D01*
X646804Y1342316D02*
X644324Y1342316D01*
X644324Y1344491D02*
X646804Y1344491D01*
X646804Y1346666D02*
X644324Y1346666D01*
X644324Y1348841D02*
X646804Y1348841D01*
X646804Y1351016D02*
X644324Y1351016D01*
X644324Y1353191D02*
X646804Y1353191D01*
X646804Y1355366D02*
X644324Y1355366D01*
X649324Y1356446D02*
X651804Y1356446D01*
X651804Y1337966D01*
X649324Y1337966D01*
X649324Y1356446D01*
X649324Y1340141D02*
X651804Y1340141D01*
X651804Y1342316D02*
X649324Y1342316D01*
X649324Y1344491D02*
X651804Y1344491D01*
X651804Y1346666D02*
X649324Y1346666D01*
X649324Y1348841D02*
X651804Y1348841D01*
X651804Y1351016D02*
X649324Y1351016D01*
X649324Y1353191D02*
X651804Y1353191D01*
X651804Y1355366D02*
X649324Y1355366D01*
X654324Y1356446D02*
X656804Y1356446D01*
X656804Y1337966D01*
X654324Y1337966D01*
X654324Y1356446D01*
X654324Y1340141D02*
X656804Y1340141D01*
X656804Y1342316D02*
X654324Y1342316D01*
X654324Y1344491D02*
X656804Y1344491D01*
X656804Y1346666D02*
X654324Y1346666D01*
X654324Y1348841D02*
X656804Y1348841D01*
X656804Y1351016D02*
X654324Y1351016D01*
X654324Y1353191D02*
X656804Y1353191D01*
X656804Y1355366D02*
X654324Y1355366D01*
X659324Y1356446D02*
X661804Y1356446D01*
X661804Y1337966D01*
X659324Y1337966D01*
X659324Y1356446D01*
X659324Y1340141D02*
X661804Y1340141D01*
X661804Y1342316D02*
X659324Y1342316D01*
X659324Y1344491D02*
X661804Y1344491D01*
X661804Y1346666D02*
X659324Y1346666D01*
X659324Y1348841D02*
X661804Y1348841D01*
X661804Y1351016D02*
X659324Y1351016D01*
X659324Y1353191D02*
X661804Y1353191D01*
X661804Y1355366D02*
X659324Y1355366D01*
X664324Y1356446D02*
X666804Y1356446D01*
X666804Y1337966D01*
X664324Y1337966D01*
X664324Y1356446D01*
X664324Y1340141D02*
X666804Y1340141D01*
X666804Y1342316D02*
X664324Y1342316D01*
X664324Y1344491D02*
X666804Y1344491D01*
X666804Y1346666D02*
X664324Y1346666D01*
X664324Y1348841D02*
X666804Y1348841D01*
X666804Y1351016D02*
X664324Y1351016D01*
X664324Y1353191D02*
X666804Y1353191D01*
X666804Y1355366D02*
X664324Y1355366D01*
D16*
X395564Y901456D03*
X395564Y943456D03*
X408564Y922456D03*
X755564Y943456D03*
X755564Y901456D03*
X742564Y922456D03*
D17*
X736934Y986136D03*
X736934Y1011536D03*
X736854Y1088136D03*
X739394Y1113536D03*
X736854Y1138936D03*
D18*
X670052Y1164463D02*
X670052Y1169797D01*
X681736Y1169797D01*
X681736Y1164463D01*
X670052Y1164463D01*
X670052Y1166635D02*
X681736Y1166635D01*
X681736Y1168807D02*
X670052Y1168807D01*
X670052Y1161669D02*
X670052Y1156335D01*
X670052Y1161669D02*
X681736Y1161669D01*
X681736Y1156335D01*
X670052Y1156335D01*
X670052Y1158507D02*
X681736Y1158507D01*
X681736Y1160679D02*
X670052Y1160679D01*
D10*
X1068326Y1116078D02*
X1068326Y1110486D01*
X1056638Y1110486D01*
X1056638Y1116078D01*
X1068326Y1116078D01*
X1068326Y1112655D02*
X1056638Y1112655D01*
X1056638Y1114824D02*
X1068326Y1114824D01*
X1068326Y1120900D02*
X1068326Y1126492D01*
X1068326Y1120900D02*
X1056638Y1120900D01*
X1056638Y1126492D01*
X1068326Y1126492D01*
X1068326Y1123069D02*
X1056638Y1123069D01*
X1056638Y1125238D02*
X1068326Y1125238D01*
X1068326Y1131314D02*
X1068326Y1136906D01*
X1068326Y1131314D02*
X1056638Y1131314D01*
X1056638Y1136906D01*
X1068326Y1136906D01*
X1068326Y1133483D02*
X1056638Y1133483D01*
X1056638Y1135652D02*
X1068326Y1135652D01*
X985903Y736856D02*
X980311Y736856D01*
X985903Y736856D02*
X985903Y725168D01*
X980311Y725168D01*
X980311Y736856D01*
X980311Y727337D02*
X985903Y727337D01*
X985903Y729506D02*
X980311Y729506D01*
X980311Y731675D02*
X985903Y731675D01*
X985903Y733844D02*
X980311Y733844D01*
X980311Y736013D02*
X985903Y736013D01*
X975489Y736856D02*
X969897Y736856D01*
X975489Y736856D02*
X975489Y725168D01*
X969897Y725168D01*
X969897Y736856D01*
X969897Y727337D02*
X975489Y727337D01*
X975489Y729506D02*
X969897Y729506D01*
X969897Y731675D02*
X975489Y731675D01*
X975489Y733844D02*
X969897Y733844D01*
X969897Y736013D02*
X975489Y736013D01*
X950089Y736856D02*
X944497Y736856D01*
X950089Y736856D02*
X950089Y725168D01*
X944497Y725168D01*
X944497Y736856D01*
X944497Y727337D02*
X950089Y727337D01*
X950089Y729506D02*
X944497Y729506D01*
X944497Y731675D02*
X950089Y731675D01*
X950089Y733844D02*
X944497Y733844D01*
X944497Y736013D02*
X950089Y736013D01*
X939675Y736856D02*
X934083Y736856D01*
X939675Y736856D02*
X939675Y725168D01*
X934083Y725168D01*
X934083Y736856D01*
X934083Y727337D02*
X939675Y727337D01*
X939675Y729506D02*
X934083Y729506D01*
X934083Y731675D02*
X939675Y731675D01*
X939675Y733844D02*
X934083Y733844D01*
X934083Y736013D02*
X939675Y736013D01*
D11*
X843336Y760758D03*
X901136Y760758D03*
D12*
X1068440Y754118D02*
X1082432Y754118D01*
X1082432Y715126D01*
X1068440Y715126D01*
X1068440Y754118D01*
X1068440Y717290D02*
X1082432Y717290D01*
X1082432Y719454D02*
X1068440Y719454D01*
X1068440Y721618D02*
X1082432Y721618D01*
X1082432Y723782D02*
X1068440Y723782D01*
X1068440Y725946D02*
X1082432Y725946D01*
X1082432Y728110D02*
X1068440Y728110D01*
X1068440Y730274D02*
X1082432Y730274D01*
X1082432Y732438D02*
X1068440Y732438D01*
X1068440Y734602D02*
X1082432Y734602D01*
X1082432Y736766D02*
X1068440Y736766D01*
X1068440Y738930D02*
X1082432Y738930D01*
X1082432Y741094D02*
X1068440Y741094D01*
X1068440Y743258D02*
X1082432Y743258D01*
X1082432Y745422D02*
X1068440Y745422D01*
X1068440Y747586D02*
X1082432Y747586D01*
X1082432Y749750D02*
X1068440Y749750D01*
X1068440Y751914D02*
X1082432Y751914D01*
X1082432Y754078D02*
X1068440Y754078D01*
X1031632Y754118D02*
X1017640Y754118D01*
X1031632Y754118D02*
X1031632Y715126D01*
X1017640Y715126D01*
X1017640Y754118D01*
X1017640Y717290D02*
X1031632Y717290D01*
X1031632Y719454D02*
X1017640Y719454D01*
X1017640Y721618D02*
X1031632Y721618D01*
X1031632Y723782D02*
X1017640Y723782D01*
X1017640Y725946D02*
X1031632Y725946D01*
X1031632Y728110D02*
X1017640Y728110D01*
X1017640Y730274D02*
X1031632Y730274D01*
X1031632Y732438D02*
X1017640Y732438D01*
X1017640Y734602D02*
X1031632Y734602D01*
X1031632Y736766D02*
X1017640Y736766D01*
X1017640Y738930D02*
X1031632Y738930D01*
X1031632Y741094D02*
X1017640Y741094D01*
X1017640Y743258D02*
X1031632Y743258D01*
X1031632Y745422D02*
X1017640Y745422D01*
X1017640Y747586D02*
X1031632Y747586D01*
X1031632Y749750D02*
X1017640Y749750D01*
X1017640Y751914D02*
X1031632Y751914D01*
X1031632Y754078D02*
X1017640Y754078D01*
D13*
X802132Y1134364D03*
D14*
X1133616Y1296416D03*
X789676Y761776D03*
D15*
X869896Y1356446D02*
X872376Y1356446D01*
X872376Y1337966D01*
X869896Y1337966D01*
X869896Y1356446D01*
X869896Y1340141D02*
X872376Y1340141D01*
X872376Y1342316D02*
X869896Y1342316D01*
X869896Y1344491D02*
X872376Y1344491D01*
X872376Y1346666D02*
X869896Y1346666D01*
X869896Y1348841D02*
X872376Y1348841D01*
X872376Y1351016D02*
X869896Y1351016D01*
X869896Y1353191D02*
X872376Y1353191D01*
X872376Y1355366D02*
X869896Y1355366D01*
X874896Y1356446D02*
X877376Y1356446D01*
X877376Y1337966D01*
X874896Y1337966D01*
X874896Y1356446D01*
X874896Y1340141D02*
X877376Y1340141D01*
X877376Y1342316D02*
X874896Y1342316D01*
X874896Y1344491D02*
X877376Y1344491D01*
X877376Y1346666D02*
X874896Y1346666D01*
X874896Y1348841D02*
X877376Y1348841D01*
X877376Y1351016D02*
X874896Y1351016D01*
X874896Y1353191D02*
X877376Y1353191D01*
X877376Y1355366D02*
X874896Y1355366D01*
X879896Y1356446D02*
X882376Y1356446D01*
X882376Y1337966D01*
X879896Y1337966D01*
X879896Y1356446D01*
X879896Y1340141D02*
X882376Y1340141D01*
X882376Y1342316D02*
X879896Y1342316D01*
X879896Y1344491D02*
X882376Y1344491D01*
X882376Y1346666D02*
X879896Y1346666D01*
X879896Y1348841D02*
X882376Y1348841D01*
X882376Y1351016D02*
X879896Y1351016D01*
X879896Y1353191D02*
X882376Y1353191D01*
X882376Y1355366D02*
X879896Y1355366D01*
X884896Y1356446D02*
X887376Y1356446D01*
X887376Y1337966D01*
X884896Y1337966D01*
X884896Y1356446D01*
X884896Y1340141D02*
X887376Y1340141D01*
X887376Y1342316D02*
X884896Y1342316D01*
X884896Y1344491D02*
X887376Y1344491D01*
X887376Y1346666D02*
X884896Y1346666D01*
X884896Y1348841D02*
X887376Y1348841D01*
X887376Y1351016D02*
X884896Y1351016D01*
X884896Y1353191D02*
X887376Y1353191D01*
X887376Y1355366D02*
X884896Y1355366D01*
X889896Y1356446D02*
X892376Y1356446D01*
X892376Y1337966D01*
X889896Y1337966D01*
X889896Y1356446D01*
X889896Y1340141D02*
X892376Y1340141D01*
X892376Y1342316D02*
X889896Y1342316D01*
X889896Y1344491D02*
X892376Y1344491D01*
X892376Y1346666D02*
X889896Y1346666D01*
X889896Y1348841D02*
X892376Y1348841D01*
X892376Y1351016D02*
X889896Y1351016D01*
X889896Y1353191D02*
X892376Y1353191D01*
X892376Y1355366D02*
X889896Y1355366D01*
X894896Y1356446D02*
X897376Y1356446D01*
X897376Y1337966D01*
X894896Y1337966D01*
X894896Y1356446D01*
X894896Y1340141D02*
X897376Y1340141D01*
X897376Y1342316D02*
X894896Y1342316D01*
X894896Y1344491D02*
X897376Y1344491D01*
X897376Y1346666D02*
X894896Y1346666D01*
X894896Y1348841D02*
X897376Y1348841D01*
X897376Y1351016D02*
X894896Y1351016D01*
X894896Y1353191D02*
X897376Y1353191D01*
X897376Y1355366D02*
X894896Y1355366D01*
X899896Y1356446D02*
X902376Y1356446D01*
X902376Y1337966D01*
X899896Y1337966D01*
X899896Y1356446D01*
X899896Y1340141D02*
X902376Y1340141D01*
X902376Y1342316D02*
X899896Y1342316D01*
X899896Y1344491D02*
X902376Y1344491D01*
X902376Y1346666D02*
X899896Y1346666D01*
X899896Y1348841D02*
X902376Y1348841D01*
X902376Y1351016D02*
X899896Y1351016D01*
X899896Y1353191D02*
X902376Y1353191D01*
X902376Y1355366D02*
X899896Y1355366D01*
X904896Y1356446D02*
X907376Y1356446D01*
X907376Y1337966D01*
X904896Y1337966D01*
X904896Y1356446D01*
X904896Y1340141D02*
X907376Y1340141D01*
X907376Y1342316D02*
X904896Y1342316D01*
X904896Y1344491D02*
X907376Y1344491D01*
X907376Y1346666D02*
X904896Y1346666D01*
X904896Y1348841D02*
X907376Y1348841D01*
X907376Y1351016D02*
X904896Y1351016D01*
X904896Y1353191D02*
X907376Y1353191D01*
X907376Y1355366D02*
X904896Y1355366D01*
X909896Y1356446D02*
X912376Y1356446D01*
X912376Y1337966D01*
X909896Y1337966D01*
X909896Y1356446D01*
X909896Y1340141D02*
X912376Y1340141D01*
X912376Y1342316D02*
X909896Y1342316D01*
X909896Y1344491D02*
X912376Y1344491D01*
X912376Y1346666D02*
X909896Y1346666D01*
X909896Y1348841D02*
X912376Y1348841D01*
X912376Y1351016D02*
X909896Y1351016D01*
X909896Y1353191D02*
X912376Y1353191D01*
X912376Y1355366D02*
X909896Y1355366D01*
X914896Y1356446D02*
X917376Y1356446D01*
X917376Y1337966D01*
X914896Y1337966D01*
X914896Y1356446D01*
X914896Y1340141D02*
X917376Y1340141D01*
X917376Y1342316D02*
X914896Y1342316D01*
X914896Y1344491D02*
X917376Y1344491D01*
X917376Y1346666D02*
X914896Y1346666D01*
X914896Y1348841D02*
X917376Y1348841D01*
X917376Y1351016D02*
X914896Y1351016D01*
X914896Y1353191D02*
X917376Y1353191D01*
X917376Y1355366D02*
X914896Y1355366D01*
X919896Y1356446D02*
X922376Y1356446D01*
X922376Y1337966D01*
X919896Y1337966D01*
X919896Y1356446D01*
X919896Y1340141D02*
X922376Y1340141D01*
X922376Y1342316D02*
X919896Y1342316D01*
X919896Y1344491D02*
X922376Y1344491D01*
X922376Y1346666D02*
X919896Y1346666D01*
X919896Y1348841D02*
X922376Y1348841D01*
X922376Y1351016D02*
X919896Y1351016D01*
X919896Y1353191D02*
X922376Y1353191D01*
X922376Y1355366D02*
X919896Y1355366D01*
X944896Y1356446D02*
X947376Y1356446D01*
X947376Y1337966D01*
X944896Y1337966D01*
X944896Y1356446D01*
X944896Y1340141D02*
X947376Y1340141D01*
X947376Y1342316D02*
X944896Y1342316D01*
X944896Y1344491D02*
X947376Y1344491D01*
X947376Y1346666D02*
X944896Y1346666D01*
X944896Y1348841D02*
X947376Y1348841D01*
X947376Y1351016D02*
X944896Y1351016D01*
X944896Y1353191D02*
X947376Y1353191D01*
X947376Y1355366D02*
X944896Y1355366D01*
X949896Y1356446D02*
X952376Y1356446D01*
X952376Y1337966D01*
X949896Y1337966D01*
X949896Y1356446D01*
X949896Y1340141D02*
X952376Y1340141D01*
X952376Y1342316D02*
X949896Y1342316D01*
X949896Y1344491D02*
X952376Y1344491D01*
X952376Y1346666D02*
X949896Y1346666D01*
X949896Y1348841D02*
X952376Y1348841D01*
X952376Y1351016D02*
X949896Y1351016D01*
X949896Y1353191D02*
X952376Y1353191D01*
X952376Y1355366D02*
X949896Y1355366D01*
X954896Y1356446D02*
X957376Y1356446D01*
X957376Y1337966D01*
X954896Y1337966D01*
X954896Y1356446D01*
X954896Y1340141D02*
X957376Y1340141D01*
X957376Y1342316D02*
X954896Y1342316D01*
X954896Y1344491D02*
X957376Y1344491D01*
X957376Y1346666D02*
X954896Y1346666D01*
X954896Y1348841D02*
X957376Y1348841D01*
X957376Y1351016D02*
X954896Y1351016D01*
X954896Y1353191D02*
X957376Y1353191D01*
X957376Y1355366D02*
X954896Y1355366D01*
X959896Y1356446D02*
X962376Y1356446D01*
X962376Y1337966D01*
X959896Y1337966D01*
X959896Y1356446D01*
X959896Y1340141D02*
X962376Y1340141D01*
X962376Y1342316D02*
X959896Y1342316D01*
X959896Y1344491D02*
X962376Y1344491D01*
X962376Y1346666D02*
X959896Y1346666D01*
X959896Y1348841D02*
X962376Y1348841D01*
X962376Y1351016D02*
X959896Y1351016D01*
X959896Y1353191D02*
X962376Y1353191D01*
X962376Y1355366D02*
X959896Y1355366D01*
X964896Y1356446D02*
X967376Y1356446D01*
X967376Y1337966D01*
X964896Y1337966D01*
X964896Y1356446D01*
X964896Y1340141D02*
X967376Y1340141D01*
X967376Y1342316D02*
X964896Y1342316D01*
X964896Y1344491D02*
X967376Y1344491D01*
X967376Y1346666D02*
X964896Y1346666D01*
X964896Y1348841D02*
X967376Y1348841D01*
X967376Y1351016D02*
X964896Y1351016D01*
X964896Y1353191D02*
X967376Y1353191D01*
X967376Y1355366D02*
X964896Y1355366D01*
X969896Y1356446D02*
X972376Y1356446D01*
X972376Y1337966D01*
X969896Y1337966D01*
X969896Y1356446D01*
X969896Y1340141D02*
X972376Y1340141D01*
X972376Y1342316D02*
X969896Y1342316D01*
X969896Y1344491D02*
X972376Y1344491D01*
X972376Y1346666D02*
X969896Y1346666D01*
X969896Y1348841D02*
X972376Y1348841D01*
X972376Y1351016D02*
X969896Y1351016D01*
X969896Y1353191D02*
X972376Y1353191D01*
X972376Y1355366D02*
X969896Y1355366D01*
X974896Y1356446D02*
X977376Y1356446D01*
X977376Y1337966D01*
X974896Y1337966D01*
X974896Y1356446D01*
X974896Y1340141D02*
X977376Y1340141D01*
X977376Y1342316D02*
X974896Y1342316D01*
X974896Y1344491D02*
X977376Y1344491D01*
X977376Y1346666D02*
X974896Y1346666D01*
X974896Y1348841D02*
X977376Y1348841D01*
X977376Y1351016D02*
X974896Y1351016D01*
X974896Y1353191D02*
X977376Y1353191D01*
X977376Y1355366D02*
X974896Y1355366D01*
X979896Y1356446D02*
X982376Y1356446D01*
X982376Y1337966D01*
X979896Y1337966D01*
X979896Y1356446D01*
X979896Y1340141D02*
X982376Y1340141D01*
X982376Y1342316D02*
X979896Y1342316D01*
X979896Y1344491D02*
X982376Y1344491D01*
X982376Y1346666D02*
X979896Y1346666D01*
X979896Y1348841D02*
X982376Y1348841D01*
X982376Y1351016D02*
X979896Y1351016D01*
X979896Y1353191D02*
X982376Y1353191D01*
X982376Y1355366D02*
X979896Y1355366D01*
X984896Y1356446D02*
X987376Y1356446D01*
X987376Y1337966D01*
X984896Y1337966D01*
X984896Y1356446D01*
X984896Y1340141D02*
X987376Y1340141D01*
X987376Y1342316D02*
X984896Y1342316D01*
X984896Y1344491D02*
X987376Y1344491D01*
X987376Y1346666D02*
X984896Y1346666D01*
X984896Y1348841D02*
X987376Y1348841D01*
X987376Y1351016D02*
X984896Y1351016D01*
X984896Y1353191D02*
X987376Y1353191D01*
X987376Y1355366D02*
X984896Y1355366D01*
X989896Y1356446D02*
X992376Y1356446D01*
X992376Y1337966D01*
X989896Y1337966D01*
X989896Y1356446D01*
X989896Y1340141D02*
X992376Y1340141D01*
X992376Y1342316D02*
X989896Y1342316D01*
X989896Y1344491D02*
X992376Y1344491D01*
X992376Y1346666D02*
X989896Y1346666D01*
X989896Y1348841D02*
X992376Y1348841D01*
X992376Y1351016D02*
X989896Y1351016D01*
X989896Y1353191D02*
X992376Y1353191D01*
X992376Y1355366D02*
X989896Y1355366D01*
X994896Y1356446D02*
X997376Y1356446D01*
X997376Y1337966D01*
X994896Y1337966D01*
X994896Y1356446D01*
X994896Y1340141D02*
X997376Y1340141D01*
X997376Y1342316D02*
X994896Y1342316D01*
X994896Y1344491D02*
X997376Y1344491D01*
X997376Y1346666D02*
X994896Y1346666D01*
X994896Y1348841D02*
X997376Y1348841D01*
X997376Y1351016D02*
X994896Y1351016D01*
X994896Y1353191D02*
X997376Y1353191D01*
X997376Y1355366D02*
X994896Y1355366D01*
X999896Y1356446D02*
X1002376Y1356446D01*
X1002376Y1337966D01*
X999896Y1337966D01*
X999896Y1356446D01*
X999896Y1340141D02*
X1002376Y1340141D01*
X1002376Y1342316D02*
X999896Y1342316D01*
X999896Y1344491D02*
X1002376Y1344491D01*
X1002376Y1346666D02*
X999896Y1346666D01*
X999896Y1348841D02*
X1002376Y1348841D01*
X1002376Y1351016D02*
X999896Y1351016D01*
X999896Y1353191D02*
X1002376Y1353191D01*
X1002376Y1355366D02*
X999896Y1355366D01*
X1004896Y1356446D02*
X1007376Y1356446D01*
X1007376Y1337966D01*
X1004896Y1337966D01*
X1004896Y1356446D01*
X1004896Y1340141D02*
X1007376Y1340141D01*
X1007376Y1342316D02*
X1004896Y1342316D01*
X1004896Y1344491D02*
X1007376Y1344491D01*
X1007376Y1346666D02*
X1004896Y1346666D01*
X1004896Y1348841D02*
X1007376Y1348841D01*
X1007376Y1351016D02*
X1004896Y1351016D01*
X1004896Y1353191D02*
X1007376Y1353191D01*
X1007376Y1355366D02*
X1004896Y1355366D01*
X1009896Y1356446D02*
X1012376Y1356446D01*
X1012376Y1337966D01*
X1009896Y1337966D01*
X1009896Y1356446D01*
X1009896Y1340141D02*
X1012376Y1340141D01*
X1012376Y1342316D02*
X1009896Y1342316D01*
X1009896Y1344491D02*
X1012376Y1344491D01*
X1012376Y1346666D02*
X1009896Y1346666D01*
X1009896Y1348841D02*
X1012376Y1348841D01*
X1012376Y1351016D02*
X1009896Y1351016D01*
X1009896Y1353191D02*
X1012376Y1353191D01*
X1012376Y1355366D02*
X1009896Y1355366D01*
X1014896Y1356446D02*
X1017376Y1356446D01*
X1017376Y1337966D01*
X1014896Y1337966D01*
X1014896Y1356446D01*
X1014896Y1340141D02*
X1017376Y1340141D01*
X1017376Y1342316D02*
X1014896Y1342316D01*
X1014896Y1344491D02*
X1017376Y1344491D01*
X1017376Y1346666D02*
X1014896Y1346666D01*
X1014896Y1348841D02*
X1017376Y1348841D01*
X1017376Y1351016D02*
X1014896Y1351016D01*
X1014896Y1353191D02*
X1017376Y1353191D01*
X1017376Y1355366D02*
X1014896Y1355366D01*
X1019896Y1356446D02*
X1022376Y1356446D01*
X1022376Y1337966D01*
X1019896Y1337966D01*
X1019896Y1356446D01*
X1019896Y1340141D02*
X1022376Y1340141D01*
X1022376Y1342316D02*
X1019896Y1342316D01*
X1019896Y1344491D02*
X1022376Y1344491D01*
X1022376Y1346666D02*
X1019896Y1346666D01*
X1019896Y1348841D02*
X1022376Y1348841D01*
X1022376Y1351016D02*
X1019896Y1351016D01*
X1019896Y1353191D02*
X1022376Y1353191D01*
X1022376Y1355366D02*
X1019896Y1355366D01*
X1024896Y1356446D02*
X1027376Y1356446D01*
X1027376Y1337966D01*
X1024896Y1337966D01*
X1024896Y1356446D01*
X1024896Y1340141D02*
X1027376Y1340141D01*
X1027376Y1342316D02*
X1024896Y1342316D01*
X1024896Y1344491D02*
X1027376Y1344491D01*
X1027376Y1346666D02*
X1024896Y1346666D01*
X1024896Y1348841D02*
X1027376Y1348841D01*
X1027376Y1351016D02*
X1024896Y1351016D01*
X1024896Y1353191D02*
X1027376Y1353191D01*
X1027376Y1355366D02*
X1024896Y1355366D01*
X1029896Y1356446D02*
X1032376Y1356446D01*
X1032376Y1337966D01*
X1029896Y1337966D01*
X1029896Y1356446D01*
X1029896Y1340141D02*
X1032376Y1340141D01*
X1032376Y1342316D02*
X1029896Y1342316D01*
X1029896Y1344491D02*
X1032376Y1344491D01*
X1032376Y1346666D02*
X1029896Y1346666D01*
X1029896Y1348841D02*
X1032376Y1348841D01*
X1032376Y1351016D02*
X1029896Y1351016D01*
X1029896Y1353191D02*
X1032376Y1353191D01*
X1032376Y1355366D02*
X1029896Y1355366D01*
X1034896Y1356446D02*
X1037376Y1356446D01*
X1037376Y1337966D01*
X1034896Y1337966D01*
X1034896Y1356446D01*
X1034896Y1340141D02*
X1037376Y1340141D01*
X1037376Y1342316D02*
X1034896Y1342316D01*
X1034896Y1344491D02*
X1037376Y1344491D01*
X1037376Y1346666D02*
X1034896Y1346666D01*
X1034896Y1348841D02*
X1037376Y1348841D01*
X1037376Y1351016D02*
X1034896Y1351016D01*
X1034896Y1353191D02*
X1037376Y1353191D01*
X1037376Y1355366D02*
X1034896Y1355366D01*
X1039896Y1356446D02*
X1042376Y1356446D01*
X1042376Y1337966D01*
X1039896Y1337966D01*
X1039896Y1356446D01*
X1039896Y1340141D02*
X1042376Y1340141D01*
X1042376Y1342316D02*
X1039896Y1342316D01*
X1039896Y1344491D02*
X1042376Y1344491D01*
X1042376Y1346666D02*
X1039896Y1346666D01*
X1039896Y1348841D02*
X1042376Y1348841D01*
X1042376Y1351016D02*
X1039896Y1351016D01*
X1039896Y1353191D02*
X1042376Y1353191D01*
X1042376Y1355366D02*
X1039896Y1355366D01*
X1044896Y1356446D02*
X1047376Y1356446D01*
X1047376Y1337966D01*
X1044896Y1337966D01*
X1044896Y1356446D01*
X1044896Y1340141D02*
X1047376Y1340141D01*
X1047376Y1342316D02*
X1044896Y1342316D01*
X1044896Y1344491D02*
X1047376Y1344491D01*
X1047376Y1346666D02*
X1044896Y1346666D01*
X1044896Y1348841D02*
X1047376Y1348841D01*
X1047376Y1351016D02*
X1044896Y1351016D01*
X1044896Y1353191D02*
X1047376Y1353191D01*
X1047376Y1355366D02*
X1044896Y1355366D01*
X1049896Y1356446D02*
X1052376Y1356446D01*
X1052376Y1337966D01*
X1049896Y1337966D01*
X1049896Y1356446D01*
X1049896Y1340141D02*
X1052376Y1340141D01*
X1052376Y1342316D02*
X1049896Y1342316D01*
X1049896Y1344491D02*
X1052376Y1344491D01*
X1052376Y1346666D02*
X1049896Y1346666D01*
X1049896Y1348841D02*
X1052376Y1348841D01*
X1052376Y1351016D02*
X1049896Y1351016D01*
X1049896Y1353191D02*
X1052376Y1353191D01*
X1052376Y1355366D02*
X1049896Y1355366D01*
D16*
X781136Y901456D03*
X781136Y943456D03*
X794136Y922456D03*
X1141136Y943456D03*
X1141136Y901456D03*
X1128136Y922456D03*
D17*
X1122506Y986136D03*
X1122506Y1011536D03*
X1122426Y1088136D03*
X1124966Y1113536D03*
X1122426Y1138936D03*
D18*
X1055624Y1164463D02*
X1055624Y1169797D01*
X1067308Y1169797D01*
X1067308Y1164463D01*
X1055624Y1164463D01*
X1055624Y1166635D02*
X1067308Y1166635D01*
X1067308Y1168807D02*
X1055624Y1168807D01*
X1055624Y1161669D02*
X1055624Y1156335D01*
X1055624Y1161669D02*
X1067308Y1161669D01*
X1067308Y1156335D01*
X1055624Y1156335D01*
X1055624Y1158507D02*
X1067308Y1158507D01*
X1067308Y1160679D02*
X1055624Y1160679D01*
D14*
X-26238Y1298956D03*
X1177874Y1298956D03*
D19*
X-35293Y63500D02*
X-35290Y63722D01*
X-35282Y63944D01*
X-35268Y64166D01*
X-35249Y64388D01*
X-35225Y64608D01*
X-35195Y64829D01*
X-35160Y65048D01*
X-35119Y65267D01*
X-35073Y65484D01*
X-35022Y65700D01*
X-34965Y65915D01*
X-34903Y66129D01*
X-34836Y66340D01*
X-34764Y66551D01*
X-34686Y66759D01*
X-34604Y66965D01*
X-34516Y67169D01*
X-34424Y67372D01*
X-34326Y67571D01*
X-34224Y67768D01*
X-34117Y67963D01*
X-34005Y68155D01*
X-33888Y68344D01*
X-33767Y68531D01*
X-33641Y68714D01*
X-33511Y68894D01*
X-33376Y69071D01*
X-33238Y69244D01*
X-33095Y69414D01*
X-32947Y69581D01*
X-32796Y69744D01*
X-32641Y69903D01*
X-32482Y70058D01*
X-32319Y70209D01*
X-32152Y70357D01*
X-31982Y70500D01*
X-31809Y70638D01*
X-31632Y70773D01*
X-31452Y70903D01*
X-31269Y71029D01*
X-31082Y71150D01*
X-30893Y71267D01*
X-30701Y71379D01*
X-30506Y71486D01*
X-30309Y71588D01*
X-30110Y71686D01*
X-29907Y71778D01*
X-29703Y71866D01*
X-29497Y71948D01*
X-29289Y72026D01*
X-29078Y72098D01*
X-28867Y72165D01*
X-28653Y72227D01*
X-28438Y72284D01*
X-28222Y72335D01*
X-28005Y72381D01*
X-27786Y72422D01*
X-27567Y72457D01*
X-27346Y72487D01*
X-27126Y72511D01*
X-26904Y72530D01*
X-26682Y72544D01*
X-26460Y72552D01*
X-26238Y72555D01*
X-26016Y72552D01*
X-25794Y72544D01*
X-25572Y72530D01*
X-25350Y72511D01*
X-25130Y72487D01*
X-24909Y72457D01*
X-24690Y72422D01*
X-24471Y72381D01*
X-24254Y72335D01*
X-24038Y72284D01*
X-23823Y72227D01*
X-23609Y72165D01*
X-23398Y72098D01*
X-23187Y72026D01*
X-22979Y71948D01*
X-22773Y71866D01*
X-22569Y71778D01*
X-22366Y71686D01*
X-22167Y71588D01*
X-21970Y71486D01*
X-21775Y71379D01*
X-21583Y71267D01*
X-21394Y71150D01*
X-21207Y71029D01*
X-21024Y70903D01*
X-20844Y70773D01*
X-20667Y70638D01*
X-20494Y70500D01*
X-20324Y70357D01*
X-20157Y70209D01*
X-19994Y70058D01*
X-19835Y69903D01*
X-19680Y69744D01*
X-19529Y69581D01*
X-19381Y69414D01*
X-19238Y69244D01*
X-19100Y69071D01*
X-18965Y68894D01*
X-18835Y68714D01*
X-18709Y68531D01*
X-18588Y68344D01*
X-18471Y68155D01*
X-18359Y67963D01*
X-18252Y67768D01*
X-18150Y67571D01*
X-18052Y67372D01*
X-17960Y67169D01*
X-17872Y66965D01*
X-17790Y66759D01*
X-17712Y66551D01*
X-17640Y66340D01*
X-17573Y66129D01*
X-17511Y65915D01*
X-17454Y65700D01*
X-17403Y65484D01*
X-17357Y65267D01*
X-17316Y65048D01*
X-17281Y64829D01*
X-17251Y64608D01*
X-17227Y64388D01*
X-17208Y64166D01*
X-17194Y63944D01*
X-17186Y63722D01*
X-17183Y63500D01*
X-17186Y63278D01*
X-17194Y63056D01*
X-17208Y62834D01*
X-17227Y62612D01*
X-17251Y62392D01*
X-17281Y62171D01*
X-17316Y61952D01*
X-17357Y61733D01*
X-17403Y61516D01*
X-17454Y61300D01*
X-17511Y61085D01*
X-17573Y60871D01*
X-17640Y60660D01*
X-17712Y60449D01*
X-17790Y60241D01*
X-17872Y60035D01*
X-17960Y59831D01*
X-18052Y59628D01*
X-18150Y59429D01*
X-18252Y59232D01*
X-18359Y59037D01*
X-18471Y58845D01*
X-18588Y58656D01*
X-18709Y58469D01*
X-18835Y58286D01*
X-18965Y58106D01*
X-19100Y57929D01*
X-19238Y57756D01*
X-19381Y57586D01*
X-19529Y57419D01*
X-19680Y57256D01*
X-19835Y57097D01*
X-19994Y56942D01*
X-20157Y56791D01*
X-20324Y56643D01*
X-20494Y56500D01*
X-20667Y56362D01*
X-20844Y56227D01*
X-21024Y56097D01*
X-21207Y55971D01*
X-21394Y55850D01*
X-21583Y55733D01*
X-21775Y55621D01*
X-21970Y55514D01*
X-22167Y55412D01*
X-22366Y55314D01*
X-22569Y55222D01*
X-22773Y55134D01*
X-22979Y55052D01*
X-23187Y54974D01*
X-23398Y54902D01*
X-23609Y54835D01*
X-23823Y54773D01*
X-24038Y54716D01*
X-24254Y54665D01*
X-24471Y54619D01*
X-24690Y54578D01*
X-24909Y54543D01*
X-25130Y54513D01*
X-25350Y54489D01*
X-25572Y54470D01*
X-25794Y54456D01*
X-26016Y54448D01*
X-26238Y54445D01*
X-26460Y54448D01*
X-26682Y54456D01*
X-26904Y54470D01*
X-27126Y54489D01*
X-27346Y54513D01*
X-27567Y54543D01*
X-27786Y54578D01*
X-28005Y54619D01*
X-28222Y54665D01*
X-28438Y54716D01*
X-28653Y54773D01*
X-28867Y54835D01*
X-29078Y54902D01*
X-29289Y54974D01*
X-29497Y55052D01*
X-29703Y55134D01*
X-29907Y55222D01*
X-30110Y55314D01*
X-30309Y55412D01*
X-30506Y55514D01*
X-30701Y55621D01*
X-30893Y55733D01*
X-31082Y55850D01*
X-31269Y55971D01*
X-31452Y56097D01*
X-31632Y56227D01*
X-31809Y56362D01*
X-31982Y56500D01*
X-32152Y56643D01*
X-32319Y56791D01*
X-32482Y56942D01*
X-32641Y57097D01*
X-32796Y57256D01*
X-32947Y57419D01*
X-33095Y57586D01*
X-33238Y57756D01*
X-33376Y57929D01*
X-33511Y58106D01*
X-33641Y58286D01*
X-33767Y58469D01*
X-33888Y58656D01*
X-34005Y58845D01*
X-34117Y59037D01*
X-34224Y59232D01*
X-34326Y59429D01*
X-34424Y59628D01*
X-34516Y59831D01*
X-34604Y60035D01*
X-34686Y60241D01*
X-34764Y60449D01*
X-34836Y60660D01*
X-34903Y60871D01*
X-34965Y61085D01*
X-35022Y61300D01*
X-35073Y61516D01*
X-35119Y61733D01*
X-35160Y61952D01*
X-35195Y62171D01*
X-35225Y62392D01*
X-35249Y62612D01*
X-35268Y62834D01*
X-35282Y63056D01*
X-35290Y63278D01*
X-35293Y63500D01*
D20*
X-26238Y63500D03*
M02*
