G04 EAGLE Gerber RS-274X export*
G75*
%MOMM*%
%FSLAX34Y34*%
%LPD*%
%INSoldermask Bottom*%
%IPPOS*%
%AMOC8*
5,1,8,0,0,1.08239X$1,22.5*%
G01*
%ADD10C,0.228344*%
%ADD11C,0.777000*%
%ADD12C,1.143000*%
%ADD13C,1.127000*%
%ADD14C,0.228959*%
%ADD15C,0.736600*%
%ADD16C,2.006600*%
%ADD17C,0.228600*%
%ADD18C,1.270000*%
%ADD19C,1.627000*%

G36*
X377483Y412253D02*
X377483Y412253D01*
X377485Y412253D01*
X377487Y412254D01*
X381367Y412531D01*
X381377Y412535D01*
X381403Y412536D01*
X385237Y413370D01*
X385245Y413375D01*
X385271Y413380D01*
X388947Y414752D01*
X388955Y414757D01*
X388979Y414766D01*
X392423Y416647D01*
X392430Y416654D01*
X392453Y416666D01*
X395594Y419017D01*
X395600Y419025D01*
X395621Y419041D01*
X398395Y421815D01*
X398400Y421824D01*
X398419Y421842D01*
X400770Y424983D01*
X400773Y424992D01*
X400789Y425013D01*
X402670Y428457D01*
X402672Y428466D01*
X402684Y428489D01*
X404056Y432165D01*
X404056Y432175D01*
X404066Y432199D01*
X404900Y436033D01*
X404899Y436043D01*
X404905Y436069D01*
X405185Y439982D01*
X405183Y439992D01*
X405185Y440018D01*
X404905Y443931D01*
X404903Y443936D01*
X404904Y443939D01*
X404901Y443945D01*
X404900Y443967D01*
X404066Y447801D01*
X404061Y447809D01*
X404056Y447835D01*
X402684Y451511D01*
X402679Y451519D01*
X402670Y451543D01*
X400789Y454987D01*
X400782Y454994D01*
X400770Y455017D01*
X398419Y458158D01*
X398411Y458164D01*
X398395Y458185D01*
X395621Y460959D01*
X395612Y460964D01*
X395594Y460983D01*
X392453Y463334D01*
X392444Y463337D01*
X392423Y463353D01*
X388979Y465234D01*
X388970Y465236D01*
X388947Y465248D01*
X385271Y466620D01*
X385261Y466620D01*
X385237Y466630D01*
X381403Y467464D01*
X381393Y467463D01*
X381367Y467469D01*
X377454Y467749D01*
X377449Y467748D01*
X377434Y467749D01*
X377405Y467747D01*
X377403Y467747D01*
X377401Y467746D01*
X373521Y467469D01*
X373511Y467465D01*
X373485Y467464D01*
X369651Y466630D01*
X369643Y466625D01*
X369617Y466620D01*
X365941Y465248D01*
X365933Y465243D01*
X365909Y465234D01*
X362465Y463353D01*
X362458Y463346D01*
X362435Y463334D01*
X359294Y460983D01*
X359288Y460975D01*
X359267Y460959D01*
X356493Y458185D01*
X356488Y458176D01*
X356469Y458158D01*
X354118Y455017D01*
X354115Y455008D01*
X354099Y454987D01*
X352218Y451543D01*
X352216Y451534D01*
X352204Y451511D01*
X350832Y447835D01*
X350832Y447825D01*
X350822Y447801D01*
X349988Y443967D01*
X349989Y443957D01*
X349983Y443931D01*
X349703Y440018D01*
X349705Y440008D01*
X349703Y439982D01*
X349983Y436069D01*
X349987Y436059D01*
X349988Y436033D01*
X350822Y432199D01*
X350827Y432191D01*
X350832Y432165D01*
X352204Y428489D01*
X352209Y428481D01*
X352218Y428457D01*
X354099Y425013D01*
X354106Y425006D01*
X354118Y424983D01*
X356469Y421842D01*
X356477Y421836D01*
X356493Y421815D01*
X359267Y419041D01*
X359276Y419036D01*
X359294Y419017D01*
X362435Y416666D01*
X362444Y416663D01*
X362465Y416647D01*
X365909Y414766D01*
X365918Y414764D01*
X365941Y414752D01*
X369617Y413380D01*
X369627Y413380D01*
X369651Y413370D01*
X373485Y412536D01*
X373495Y412537D01*
X373521Y412531D01*
X377434Y412251D01*
X377439Y412253D01*
X377454Y412251D01*
X377483Y412253D01*
G37*
G36*
X757467Y412253D02*
X757467Y412253D01*
X757469Y412253D01*
X757471Y412254D01*
X761351Y412531D01*
X761361Y412535D01*
X761387Y412536D01*
X765221Y413370D01*
X765229Y413375D01*
X765255Y413380D01*
X768931Y414752D01*
X768939Y414757D01*
X768963Y414766D01*
X772407Y416647D01*
X772414Y416654D01*
X772437Y416666D01*
X775578Y419017D01*
X775584Y419025D01*
X775605Y419041D01*
X778379Y421815D01*
X778384Y421824D01*
X778403Y421842D01*
X780754Y424983D01*
X780757Y424992D01*
X780773Y425013D01*
X782654Y428457D01*
X782656Y428466D01*
X782668Y428489D01*
X784040Y432165D01*
X784040Y432175D01*
X784050Y432199D01*
X784884Y436033D01*
X784883Y436043D01*
X784889Y436069D01*
X785169Y439982D01*
X785167Y439992D01*
X785169Y440018D01*
X784889Y443931D01*
X784887Y443936D01*
X784888Y443939D01*
X784885Y443945D01*
X784884Y443967D01*
X784050Y447801D01*
X784045Y447809D01*
X784040Y447835D01*
X782668Y451511D01*
X782663Y451519D01*
X782654Y451543D01*
X780773Y454987D01*
X780766Y454994D01*
X780754Y455017D01*
X778403Y458158D01*
X778395Y458164D01*
X778379Y458185D01*
X775605Y460959D01*
X775596Y460964D01*
X775578Y460983D01*
X772437Y463334D01*
X772428Y463337D01*
X772407Y463353D01*
X768963Y465234D01*
X768954Y465236D01*
X768931Y465248D01*
X765255Y466620D01*
X765245Y466620D01*
X765221Y466630D01*
X761387Y467464D01*
X761377Y467463D01*
X761351Y467469D01*
X757438Y467749D01*
X757433Y467748D01*
X757418Y467749D01*
X757389Y467747D01*
X757387Y467747D01*
X757385Y467746D01*
X753505Y467469D01*
X753495Y467465D01*
X753469Y467464D01*
X749635Y466630D01*
X749627Y466625D01*
X749601Y466620D01*
X745925Y465248D01*
X745917Y465243D01*
X745893Y465234D01*
X742449Y463353D01*
X742442Y463346D01*
X742419Y463334D01*
X739278Y460983D01*
X739272Y460975D01*
X739251Y460959D01*
X736477Y458185D01*
X736472Y458176D01*
X736453Y458158D01*
X734102Y455017D01*
X734099Y455008D01*
X734083Y454987D01*
X732202Y451543D01*
X732200Y451534D01*
X732188Y451511D01*
X730816Y447835D01*
X730816Y447825D01*
X730806Y447801D01*
X729972Y443967D01*
X729973Y443957D01*
X729967Y443931D01*
X729687Y440018D01*
X729689Y440008D01*
X729687Y439982D01*
X729967Y436069D01*
X729971Y436059D01*
X729972Y436033D01*
X730806Y432199D01*
X730811Y432191D01*
X730816Y432165D01*
X732188Y428489D01*
X732193Y428481D01*
X732202Y428457D01*
X734083Y425013D01*
X734090Y425006D01*
X734102Y424983D01*
X736453Y421842D01*
X736461Y421836D01*
X736477Y421815D01*
X739251Y419041D01*
X739260Y419036D01*
X739278Y419017D01*
X742419Y416666D01*
X742428Y416663D01*
X742449Y416647D01*
X745893Y414766D01*
X745902Y414764D01*
X745925Y414752D01*
X749601Y413380D01*
X749611Y413380D01*
X749635Y413370D01*
X753469Y412536D01*
X753479Y412537D01*
X753505Y412531D01*
X757418Y412251D01*
X757423Y412253D01*
X757438Y412251D01*
X757467Y412253D01*
G37*
G36*
X757467Y894709D02*
X757467Y894709D01*
X757469Y894709D01*
X757471Y894710D01*
X761351Y894987D01*
X761361Y894991D01*
X761387Y894992D01*
X765221Y895826D01*
X765229Y895831D01*
X765255Y895836D01*
X768931Y897208D01*
X768939Y897213D01*
X768963Y897222D01*
X772407Y899103D01*
X772414Y899110D01*
X772437Y899122D01*
X775578Y901473D01*
X775584Y901481D01*
X775605Y901497D01*
X778379Y904271D01*
X778384Y904280D01*
X778403Y904298D01*
X780754Y907439D01*
X780757Y907448D01*
X780773Y907469D01*
X782654Y910913D01*
X782656Y910922D01*
X782668Y910945D01*
X784040Y914621D01*
X784040Y914631D01*
X784050Y914655D01*
X784884Y918489D01*
X784883Y918499D01*
X784889Y918525D01*
X785169Y922438D01*
X785167Y922448D01*
X785169Y922474D01*
X784889Y926387D01*
X784887Y926392D01*
X784888Y926395D01*
X784885Y926401D01*
X784884Y926423D01*
X784050Y930257D01*
X784045Y930265D01*
X784040Y930291D01*
X782668Y933967D01*
X782663Y933975D01*
X782654Y933999D01*
X780773Y937443D01*
X780766Y937450D01*
X780754Y937473D01*
X778403Y940614D01*
X778395Y940620D01*
X778379Y940641D01*
X775605Y943415D01*
X775596Y943420D01*
X775578Y943439D01*
X772437Y945790D01*
X772428Y945793D01*
X772407Y945809D01*
X768963Y947690D01*
X768954Y947692D01*
X768931Y947704D01*
X765255Y949076D01*
X765245Y949076D01*
X765221Y949086D01*
X761387Y949920D01*
X761377Y949919D01*
X761351Y949925D01*
X757438Y950205D01*
X757433Y950204D01*
X757418Y950205D01*
X757389Y950203D01*
X757387Y950203D01*
X757385Y950202D01*
X753505Y949925D01*
X753495Y949921D01*
X753469Y949920D01*
X749635Y949086D01*
X749627Y949081D01*
X749601Y949076D01*
X745925Y947704D01*
X745917Y947699D01*
X745893Y947690D01*
X742449Y945809D01*
X742442Y945802D01*
X742419Y945790D01*
X739278Y943439D01*
X739272Y943431D01*
X739251Y943415D01*
X736477Y940641D01*
X736472Y940632D01*
X736453Y940614D01*
X734102Y937473D01*
X734099Y937464D01*
X734083Y937443D01*
X732202Y933999D01*
X732200Y933990D01*
X732188Y933967D01*
X730816Y930291D01*
X730816Y930281D01*
X730806Y930257D01*
X729972Y926423D01*
X729973Y926413D01*
X729967Y926387D01*
X729687Y922474D01*
X729689Y922464D01*
X729687Y922438D01*
X729967Y918525D01*
X729971Y918515D01*
X729972Y918489D01*
X730806Y914655D01*
X730811Y914647D01*
X730816Y914621D01*
X732188Y910945D01*
X732193Y910937D01*
X732202Y910913D01*
X734083Y907469D01*
X734090Y907462D01*
X734102Y907439D01*
X736453Y904298D01*
X736461Y904292D01*
X736477Y904271D01*
X739251Y901497D01*
X739260Y901492D01*
X739278Y901473D01*
X742419Y899122D01*
X742428Y899119D01*
X742449Y899103D01*
X745893Y897222D01*
X745902Y897220D01*
X745925Y897208D01*
X749601Y895836D01*
X749611Y895836D01*
X749635Y895826D01*
X753469Y894992D01*
X753479Y894993D01*
X753505Y894987D01*
X757418Y894707D01*
X757423Y894709D01*
X757438Y894707D01*
X757467Y894709D01*
G37*
G36*
X377483Y894709D02*
X377483Y894709D01*
X377485Y894709D01*
X377487Y894710D01*
X381367Y894987D01*
X381377Y894991D01*
X381403Y894992D01*
X385237Y895826D01*
X385245Y895831D01*
X385271Y895836D01*
X388947Y897208D01*
X388955Y897213D01*
X388979Y897222D01*
X392423Y899103D01*
X392430Y899110D01*
X392453Y899122D01*
X395594Y901473D01*
X395600Y901481D01*
X395621Y901497D01*
X398395Y904271D01*
X398400Y904280D01*
X398419Y904298D01*
X400770Y907439D01*
X400773Y907448D01*
X400789Y907469D01*
X402670Y910913D01*
X402672Y910922D01*
X402684Y910945D01*
X404056Y914621D01*
X404056Y914631D01*
X404066Y914655D01*
X404900Y918489D01*
X404899Y918499D01*
X404905Y918525D01*
X405185Y922438D01*
X405183Y922448D01*
X405185Y922474D01*
X404905Y926387D01*
X404903Y926392D01*
X404904Y926395D01*
X404901Y926401D01*
X404900Y926423D01*
X404066Y930257D01*
X404061Y930265D01*
X404056Y930291D01*
X402684Y933967D01*
X402679Y933975D01*
X402670Y933999D01*
X400789Y937443D01*
X400782Y937450D01*
X400770Y937473D01*
X398419Y940614D01*
X398411Y940620D01*
X398395Y940641D01*
X395621Y943415D01*
X395612Y943420D01*
X395594Y943439D01*
X392453Y945790D01*
X392444Y945793D01*
X392423Y945809D01*
X388979Y947690D01*
X388970Y947692D01*
X388947Y947704D01*
X385271Y949076D01*
X385261Y949076D01*
X385237Y949086D01*
X381403Y949920D01*
X381393Y949919D01*
X381367Y949925D01*
X377454Y950205D01*
X377449Y950204D01*
X377434Y950205D01*
X377405Y950203D01*
X377403Y950203D01*
X377401Y950202D01*
X373521Y949925D01*
X373511Y949921D01*
X373485Y949920D01*
X369651Y949086D01*
X369643Y949081D01*
X369617Y949076D01*
X365941Y947704D01*
X365933Y947699D01*
X365909Y947690D01*
X362465Y945809D01*
X362458Y945802D01*
X362435Y945790D01*
X359294Y943439D01*
X359288Y943431D01*
X359267Y943415D01*
X356493Y940641D01*
X356488Y940632D01*
X356469Y940614D01*
X354118Y937473D01*
X354115Y937464D01*
X354099Y937443D01*
X352218Y933999D01*
X352216Y933990D01*
X352204Y933967D01*
X350832Y930291D01*
X350832Y930281D01*
X350822Y930257D01*
X349988Y926423D01*
X349989Y926413D01*
X349983Y926387D01*
X349703Y922474D01*
X349705Y922464D01*
X349703Y922438D01*
X349983Y918525D01*
X349987Y918515D01*
X349988Y918489D01*
X350822Y914655D01*
X350827Y914647D01*
X350832Y914621D01*
X352204Y910945D01*
X352209Y910937D01*
X352218Y910913D01*
X354099Y907469D01*
X354106Y907462D01*
X354118Y907439D01*
X356469Y904298D01*
X356477Y904292D01*
X356493Y904271D01*
X359267Y901497D01*
X359276Y901492D01*
X359294Y901473D01*
X362435Y899122D01*
X362444Y899119D01*
X362465Y899103D01*
X365909Y897222D01*
X365918Y897220D01*
X365941Y897208D01*
X369617Y895836D01*
X369627Y895836D01*
X369651Y895826D01*
X373485Y894992D01*
X373495Y894993D01*
X373521Y894987D01*
X377434Y894707D01*
X377439Y894709D01*
X377454Y894707D01*
X377483Y894709D01*
G37*
%LPC*%
G36*
X374754Y422962D02*
X374754Y422962D01*
X372121Y423594D01*
X369621Y424630D01*
X367313Y426044D01*
X365254Y427802D01*
X363496Y429861D01*
X362082Y432169D01*
X361046Y434669D01*
X360414Y437302D01*
X360202Y440000D01*
X360414Y442698D01*
X361046Y445331D01*
X362082Y447831D01*
X363496Y450139D01*
X365254Y452198D01*
X367313Y453956D01*
X369621Y455370D01*
X372121Y456406D01*
X374754Y457038D01*
X377444Y457249D01*
X380134Y457038D01*
X382767Y456406D01*
X385267Y455370D01*
X387575Y453956D01*
X389634Y452198D01*
X391392Y450139D01*
X392806Y447831D01*
X393842Y445331D01*
X394474Y442698D01*
X394686Y440000D01*
X394474Y437302D01*
X393842Y434669D01*
X392806Y432169D01*
X391392Y429861D01*
X389634Y427802D01*
X387575Y426044D01*
X385267Y424630D01*
X382767Y423594D01*
X380134Y422962D01*
X377444Y422751D01*
X374754Y422962D01*
G37*
%LPD*%
%LPC*%
G36*
X754738Y422962D02*
X754738Y422962D01*
X752105Y423594D01*
X749605Y424630D01*
X747297Y426044D01*
X745238Y427802D01*
X743480Y429861D01*
X742066Y432169D01*
X741030Y434669D01*
X740398Y437302D01*
X740186Y440000D01*
X740398Y442698D01*
X741030Y445331D01*
X742066Y447831D01*
X743480Y450139D01*
X745238Y452198D01*
X747297Y453956D01*
X749605Y455370D01*
X752105Y456406D01*
X754738Y457038D01*
X757428Y457249D01*
X760118Y457038D01*
X762751Y456406D01*
X765251Y455370D01*
X767559Y453956D01*
X769618Y452198D01*
X771376Y450139D01*
X772790Y447831D01*
X773826Y445331D01*
X774458Y442698D01*
X774670Y440000D01*
X774458Y437302D01*
X773826Y434669D01*
X772790Y432169D01*
X771376Y429861D01*
X769618Y427802D01*
X767559Y426044D01*
X765251Y424630D01*
X762751Y423594D01*
X760118Y422962D01*
X757428Y422751D01*
X754738Y422962D01*
G37*
%LPD*%
%LPC*%
G36*
X374754Y905418D02*
X374754Y905418D01*
X372121Y906050D01*
X369621Y907086D01*
X367313Y908500D01*
X365254Y910258D01*
X363496Y912317D01*
X362082Y914625D01*
X361046Y917125D01*
X360414Y919758D01*
X360202Y922456D01*
X360414Y925154D01*
X361046Y927787D01*
X362082Y930287D01*
X363496Y932595D01*
X365254Y934654D01*
X367313Y936412D01*
X369621Y937826D01*
X372121Y938862D01*
X374754Y939494D01*
X377444Y939705D01*
X380134Y939494D01*
X382767Y938862D01*
X385267Y937826D01*
X387575Y936412D01*
X389634Y934654D01*
X391392Y932595D01*
X392806Y930287D01*
X393842Y927787D01*
X394474Y925154D01*
X394686Y922456D01*
X394474Y919758D01*
X393842Y917125D01*
X392806Y914625D01*
X391392Y912317D01*
X389634Y910258D01*
X387575Y908500D01*
X385267Y907086D01*
X382767Y906050D01*
X380134Y905418D01*
X377444Y905207D01*
X374754Y905418D01*
G37*
%LPD*%
%LPC*%
G36*
X754738Y905418D02*
X754738Y905418D01*
X752105Y906050D01*
X749605Y907086D01*
X747297Y908500D01*
X745238Y910258D01*
X743480Y912317D01*
X742066Y914625D01*
X741030Y917125D01*
X740398Y919758D01*
X740186Y922456D01*
X740398Y925154D01*
X741030Y927787D01*
X742066Y930287D01*
X743480Y932595D01*
X745238Y934654D01*
X747297Y936412D01*
X749605Y937826D01*
X752105Y938862D01*
X754738Y939494D01*
X757428Y939705D01*
X760118Y939494D01*
X762751Y938862D01*
X765251Y937826D01*
X767559Y936412D01*
X769618Y934654D01*
X771376Y932595D01*
X772790Y930287D01*
X773826Y927787D01*
X774458Y925154D01*
X774670Y922456D01*
X774458Y919758D01*
X773826Y917125D01*
X772790Y914625D01*
X771376Y912317D01*
X769618Y910258D01*
X767559Y908500D01*
X765251Y907086D01*
X762751Y906050D01*
X760118Y905418D01*
X757428Y905207D01*
X754738Y905418D01*
G37*
%LPD*%
G36*
X1383Y412531D02*
X1383Y412531D01*
X1393Y412535D01*
X1419Y412536D01*
X5253Y413370D01*
X5261Y413375D01*
X5287Y413380D01*
X8963Y414752D01*
X8971Y414757D01*
X8995Y414766D01*
X12439Y416647D01*
X12446Y416654D01*
X12469Y416666D01*
X15610Y419017D01*
X15616Y419025D01*
X15637Y419041D01*
X18411Y421815D01*
X18416Y421824D01*
X18435Y421842D01*
X20786Y424983D01*
X20789Y424992D01*
X20805Y425013D01*
X22686Y428457D01*
X22688Y428466D01*
X22700Y428489D01*
X24072Y432165D01*
X24072Y432175D01*
X24082Y432199D01*
X24916Y436033D01*
X24915Y436043D01*
X24921Y436069D01*
X25201Y439982D01*
X25199Y439992D01*
X25201Y440018D01*
X24921Y443931D01*
X24919Y443936D01*
X24920Y443939D01*
X24917Y443945D01*
X24916Y443967D01*
X24082Y447801D01*
X24077Y447809D01*
X24072Y447835D01*
X22700Y451511D01*
X22695Y451519D01*
X22686Y451543D01*
X20805Y454987D01*
X20798Y454994D01*
X20786Y455017D01*
X18435Y458158D01*
X18427Y458164D01*
X18411Y458185D01*
X15637Y460959D01*
X15628Y460964D01*
X15610Y460983D01*
X12469Y463334D01*
X12460Y463337D01*
X12439Y463353D01*
X8995Y465234D01*
X8986Y465236D01*
X8963Y465248D01*
X5287Y466620D01*
X5277Y466620D01*
X5253Y466630D01*
X1419Y467464D01*
X1409Y467463D01*
X1383Y467469D01*
X-2530Y467749D01*
X-2556Y467743D01*
X-2581Y467747D01*
X-2623Y467729D01*
X-2667Y467719D01*
X-2685Y467701D01*
X-2709Y467690D01*
X-2734Y467652D01*
X-2766Y467621D01*
X-2772Y467595D01*
X-2786Y467574D01*
X-2797Y467500D01*
X-2797Y457500D01*
X-2795Y457493D01*
X-2797Y457486D01*
X-2776Y457427D01*
X-2758Y457366D01*
X-2753Y457361D01*
X-2750Y457354D01*
X-2700Y457316D01*
X-2653Y457274D01*
X-2646Y457273D01*
X-2640Y457268D01*
X-2568Y457252D01*
X150Y457038D01*
X2783Y456406D01*
X5283Y455370D01*
X7591Y453956D01*
X9650Y452198D01*
X11408Y450139D01*
X12822Y447831D01*
X13858Y445331D01*
X14490Y442698D01*
X14702Y440000D01*
X14490Y437302D01*
X13858Y434669D01*
X12822Y432169D01*
X11408Y429861D01*
X9650Y427802D01*
X7591Y426044D01*
X5283Y424630D01*
X2783Y423594D01*
X150Y422962D01*
X-2568Y422748D01*
X-2574Y422746D01*
X-2581Y422747D01*
X-2639Y422721D01*
X-2698Y422699D01*
X-2703Y422693D01*
X-2709Y422690D01*
X-2744Y422637D01*
X-2782Y422587D01*
X-2782Y422580D01*
X-2786Y422574D01*
X-2797Y422500D01*
X-2797Y412500D01*
X-2790Y412475D01*
X-2792Y412449D01*
X-2771Y412409D01*
X-2758Y412366D01*
X-2738Y412349D01*
X-2726Y412326D01*
X-2687Y412304D01*
X-2653Y412274D01*
X-2627Y412270D01*
X-2604Y412257D01*
X-2530Y412251D01*
X1383Y412531D01*
G37*
G36*
X1383Y894987D02*
X1383Y894987D01*
X1393Y894991D01*
X1419Y894992D01*
X5253Y895826D01*
X5261Y895831D01*
X5287Y895836D01*
X8963Y897208D01*
X8971Y897213D01*
X8995Y897222D01*
X12439Y899103D01*
X12446Y899110D01*
X12469Y899122D01*
X15610Y901473D01*
X15616Y901481D01*
X15637Y901497D01*
X18411Y904271D01*
X18416Y904280D01*
X18435Y904298D01*
X20786Y907439D01*
X20789Y907448D01*
X20805Y907469D01*
X22686Y910913D01*
X22688Y910922D01*
X22700Y910945D01*
X24072Y914621D01*
X24072Y914631D01*
X24082Y914655D01*
X24916Y918489D01*
X24915Y918499D01*
X24921Y918525D01*
X25201Y922438D01*
X25199Y922448D01*
X25201Y922474D01*
X24921Y926387D01*
X24919Y926392D01*
X24920Y926395D01*
X24917Y926401D01*
X24916Y926423D01*
X24082Y930257D01*
X24077Y930265D01*
X24072Y930291D01*
X22700Y933967D01*
X22695Y933975D01*
X22686Y933999D01*
X20805Y937443D01*
X20798Y937450D01*
X20786Y937473D01*
X18435Y940614D01*
X18427Y940620D01*
X18411Y940641D01*
X15637Y943415D01*
X15628Y943420D01*
X15610Y943439D01*
X12469Y945790D01*
X12460Y945793D01*
X12439Y945809D01*
X8995Y947690D01*
X8986Y947692D01*
X8963Y947704D01*
X5287Y949076D01*
X5277Y949076D01*
X5253Y949086D01*
X1419Y949920D01*
X1409Y949919D01*
X1383Y949925D01*
X-2530Y950205D01*
X-2556Y950199D01*
X-2581Y950203D01*
X-2623Y950185D01*
X-2667Y950175D01*
X-2685Y950157D01*
X-2709Y950146D01*
X-2734Y950108D01*
X-2766Y950077D01*
X-2772Y950051D01*
X-2786Y950030D01*
X-2797Y949956D01*
X-2797Y939956D01*
X-2795Y939949D01*
X-2797Y939942D01*
X-2776Y939883D01*
X-2758Y939822D01*
X-2753Y939817D01*
X-2750Y939810D01*
X-2700Y939772D01*
X-2653Y939730D01*
X-2646Y939729D01*
X-2640Y939724D01*
X-2568Y939708D01*
X150Y939494D01*
X2783Y938862D01*
X5283Y937826D01*
X7591Y936412D01*
X9650Y934654D01*
X11408Y932595D01*
X12822Y930287D01*
X13858Y927787D01*
X14490Y925154D01*
X14702Y922456D01*
X14490Y919758D01*
X13858Y917125D01*
X12822Y914625D01*
X11408Y912317D01*
X9650Y910258D01*
X7591Y908500D01*
X5283Y907086D01*
X2783Y906050D01*
X150Y905418D01*
X-2568Y905204D01*
X-2574Y905202D01*
X-2581Y905203D01*
X-2639Y905177D01*
X-2698Y905155D01*
X-2703Y905149D01*
X-2709Y905146D01*
X-2744Y905093D01*
X-2782Y905043D01*
X-2782Y905036D01*
X-2786Y905030D01*
X-2797Y904956D01*
X-2797Y894956D01*
X-2790Y894931D01*
X-2792Y894905D01*
X-2771Y894865D01*
X-2758Y894822D01*
X-2738Y894805D01*
X-2726Y894782D01*
X-2687Y894760D01*
X-2653Y894730D01*
X-2627Y894726D01*
X-2604Y894713D01*
X-2530Y894707D01*
X1383Y894987D01*
G37*
G36*
X1137428Y412257D02*
X1137428Y412257D01*
X1137453Y412253D01*
X1137495Y412271D01*
X1137539Y412281D01*
X1137557Y412299D01*
X1137581Y412310D01*
X1137606Y412348D01*
X1137638Y412379D01*
X1137644Y412405D01*
X1137658Y412427D01*
X1137669Y412500D01*
X1137669Y422500D01*
X1137667Y422507D01*
X1137669Y422514D01*
X1137648Y422573D01*
X1137630Y422634D01*
X1137625Y422639D01*
X1137622Y422646D01*
X1137572Y422685D01*
X1137525Y422726D01*
X1137518Y422727D01*
X1137512Y422732D01*
X1137440Y422748D01*
X1134722Y422962D01*
X1132089Y423594D01*
X1129589Y424630D01*
X1127281Y426044D01*
X1125222Y427802D01*
X1123464Y429861D01*
X1122050Y432169D01*
X1121014Y434669D01*
X1120382Y437302D01*
X1120170Y440000D01*
X1120382Y442698D01*
X1121014Y445331D01*
X1122050Y447831D01*
X1123464Y450139D01*
X1125222Y452198D01*
X1127281Y453956D01*
X1129589Y455370D01*
X1132089Y456406D01*
X1134722Y457038D01*
X1137440Y457252D01*
X1137446Y457254D01*
X1137453Y457253D01*
X1137511Y457279D01*
X1137570Y457301D01*
X1137575Y457307D01*
X1137581Y457310D01*
X1137616Y457363D01*
X1137654Y457413D01*
X1137654Y457421D01*
X1137658Y457427D01*
X1137669Y457500D01*
X1137669Y467500D01*
X1137662Y467525D01*
X1137664Y467551D01*
X1137643Y467591D01*
X1137630Y467634D01*
X1137610Y467651D01*
X1137598Y467674D01*
X1137559Y467696D01*
X1137525Y467726D01*
X1137499Y467730D01*
X1137476Y467743D01*
X1137402Y467749D01*
X1133489Y467469D01*
X1133479Y467465D01*
X1133453Y467464D01*
X1129619Y466630D01*
X1129611Y466625D01*
X1129585Y466620D01*
X1125909Y465248D01*
X1125901Y465243D01*
X1125877Y465234D01*
X1122433Y463353D01*
X1122426Y463346D01*
X1122403Y463334D01*
X1119262Y460983D01*
X1119256Y460975D01*
X1119235Y460959D01*
X1116461Y458185D01*
X1116456Y458176D01*
X1116437Y458158D01*
X1114086Y455017D01*
X1114083Y455008D01*
X1114067Y454987D01*
X1112186Y451543D01*
X1112184Y451534D01*
X1112172Y451511D01*
X1110800Y447835D01*
X1110800Y447825D01*
X1110790Y447801D01*
X1109956Y443967D01*
X1109957Y443957D01*
X1109951Y443931D01*
X1109671Y440018D01*
X1109673Y440008D01*
X1109671Y439982D01*
X1109951Y436069D01*
X1109955Y436059D01*
X1109956Y436033D01*
X1110790Y432199D01*
X1110795Y432191D01*
X1110800Y432165D01*
X1112172Y428489D01*
X1112177Y428481D01*
X1112186Y428457D01*
X1114067Y425013D01*
X1114074Y425006D01*
X1114086Y424983D01*
X1116437Y421842D01*
X1116445Y421836D01*
X1116461Y421815D01*
X1119235Y419041D01*
X1119244Y419036D01*
X1119262Y419017D01*
X1122403Y416666D01*
X1122412Y416663D01*
X1122433Y416647D01*
X1125877Y414766D01*
X1125886Y414764D01*
X1125909Y414752D01*
X1129585Y413380D01*
X1129595Y413380D01*
X1129619Y413370D01*
X1133453Y412536D01*
X1133463Y412537D01*
X1133489Y412531D01*
X1137402Y412251D01*
X1137428Y412257D01*
G37*
G36*
X1137428Y894713D02*
X1137428Y894713D01*
X1137453Y894709D01*
X1137495Y894727D01*
X1137539Y894737D01*
X1137557Y894755D01*
X1137581Y894766D01*
X1137606Y894804D01*
X1137638Y894835D01*
X1137644Y894861D01*
X1137658Y894883D01*
X1137669Y894956D01*
X1137669Y904956D01*
X1137667Y904963D01*
X1137669Y904970D01*
X1137648Y905029D01*
X1137630Y905090D01*
X1137625Y905095D01*
X1137622Y905102D01*
X1137572Y905141D01*
X1137525Y905182D01*
X1137518Y905183D01*
X1137512Y905188D01*
X1137440Y905204D01*
X1134722Y905418D01*
X1132089Y906050D01*
X1129589Y907086D01*
X1127281Y908500D01*
X1125222Y910258D01*
X1123464Y912317D01*
X1122050Y914625D01*
X1121014Y917125D01*
X1120382Y919758D01*
X1120170Y922456D01*
X1120382Y925154D01*
X1121014Y927787D01*
X1122050Y930287D01*
X1123464Y932595D01*
X1125222Y934654D01*
X1127281Y936412D01*
X1129589Y937826D01*
X1132089Y938862D01*
X1134722Y939494D01*
X1137440Y939708D01*
X1137446Y939710D01*
X1137453Y939709D01*
X1137511Y939735D01*
X1137570Y939757D01*
X1137575Y939763D01*
X1137581Y939766D01*
X1137616Y939819D01*
X1137654Y939869D01*
X1137654Y939877D01*
X1137658Y939883D01*
X1137669Y939956D01*
X1137669Y949956D01*
X1137662Y949981D01*
X1137664Y950007D01*
X1137643Y950047D01*
X1137630Y950090D01*
X1137610Y950107D01*
X1137598Y950130D01*
X1137559Y950152D01*
X1137525Y950182D01*
X1137499Y950186D01*
X1137476Y950199D01*
X1137402Y950205D01*
X1133489Y949925D01*
X1133479Y949921D01*
X1133453Y949920D01*
X1129619Y949086D01*
X1129611Y949081D01*
X1129585Y949076D01*
X1125909Y947704D01*
X1125901Y947699D01*
X1125877Y947690D01*
X1122433Y945809D01*
X1122426Y945802D01*
X1122403Y945790D01*
X1119262Y943439D01*
X1119256Y943431D01*
X1119235Y943415D01*
X1116461Y940641D01*
X1116456Y940632D01*
X1116437Y940614D01*
X1114086Y937473D01*
X1114083Y937464D01*
X1114067Y937443D01*
X1112186Y933999D01*
X1112184Y933990D01*
X1112172Y933967D01*
X1110800Y930291D01*
X1110800Y930281D01*
X1110790Y930257D01*
X1109956Y926423D01*
X1109957Y926413D01*
X1109951Y926387D01*
X1109671Y922474D01*
X1109673Y922464D01*
X1109671Y922438D01*
X1109951Y918525D01*
X1109955Y918515D01*
X1109956Y918489D01*
X1110790Y914655D01*
X1110795Y914647D01*
X1110800Y914621D01*
X1112172Y910945D01*
X1112177Y910937D01*
X1112186Y910913D01*
X1114067Y907469D01*
X1114074Y907462D01*
X1114086Y907439D01*
X1116437Y904298D01*
X1116445Y904292D01*
X1116461Y904271D01*
X1119235Y901497D01*
X1119244Y901492D01*
X1119262Y901473D01*
X1122403Y899122D01*
X1122412Y899119D01*
X1122433Y899103D01*
X1125877Y897222D01*
X1125886Y897220D01*
X1125909Y897208D01*
X1129585Y895836D01*
X1129595Y895836D01*
X1129619Y895826D01*
X1133453Y894992D01*
X1133463Y894993D01*
X1133489Y894987D01*
X1137402Y894707D01*
X1137428Y894713D01*
G37*
G36*
X1050101Y1126248D02*
X1050101Y1126248D01*
X1050167Y1126250D01*
X1050210Y1126268D01*
X1050257Y1126276D01*
X1050314Y1126310D01*
X1050374Y1126335D01*
X1050409Y1126366D01*
X1050450Y1126391D01*
X1050492Y1126442D01*
X1050540Y1126486D01*
X1050562Y1126528D01*
X1050591Y1126565D01*
X1050612Y1126627D01*
X1050643Y1126686D01*
X1050651Y1126740D01*
X1050663Y1126777D01*
X1050662Y1126817D01*
X1050670Y1126871D01*
X1050670Y1130681D01*
X1050659Y1130746D01*
X1050657Y1130812D01*
X1050639Y1130855D01*
X1050631Y1130902D01*
X1050597Y1130959D01*
X1050572Y1131019D01*
X1050541Y1131054D01*
X1050516Y1131095D01*
X1050465Y1131137D01*
X1050421Y1131185D01*
X1050379Y1131207D01*
X1050342Y1131236D01*
X1050280Y1131257D01*
X1050221Y1131288D01*
X1050167Y1131296D01*
X1050130Y1131308D01*
X1050090Y1131307D01*
X1050036Y1131315D01*
X1047496Y1131315D01*
X1047431Y1131304D01*
X1047365Y1131302D01*
X1047322Y1131284D01*
X1047275Y1131276D01*
X1047218Y1131242D01*
X1047158Y1131217D01*
X1047123Y1131186D01*
X1047082Y1131161D01*
X1047041Y1131110D01*
X1046992Y1131066D01*
X1046970Y1131024D01*
X1046941Y1130987D01*
X1046920Y1130925D01*
X1046889Y1130866D01*
X1046881Y1130812D01*
X1046869Y1130775D01*
X1046869Y1130771D01*
X1046869Y1130770D01*
X1046870Y1130735D01*
X1046862Y1130681D01*
X1046862Y1126871D01*
X1046873Y1126806D01*
X1046875Y1126740D01*
X1046893Y1126697D01*
X1046901Y1126650D01*
X1046935Y1126593D01*
X1046960Y1126533D01*
X1046991Y1126498D01*
X1047016Y1126457D01*
X1047067Y1126416D01*
X1047111Y1126367D01*
X1047153Y1126345D01*
X1047190Y1126316D01*
X1047252Y1126295D01*
X1047311Y1126264D01*
X1047365Y1126256D01*
X1047402Y1126244D01*
X1047442Y1126245D01*
X1047496Y1126237D01*
X1050036Y1126237D01*
X1050101Y1126248D01*
G37*
G36*
X290133Y1126248D02*
X290133Y1126248D01*
X290199Y1126250D01*
X290242Y1126268D01*
X290289Y1126276D01*
X290346Y1126310D01*
X290406Y1126335D01*
X290441Y1126366D01*
X290482Y1126391D01*
X290524Y1126442D01*
X290572Y1126486D01*
X290594Y1126528D01*
X290623Y1126565D01*
X290644Y1126627D01*
X290675Y1126686D01*
X290683Y1126740D01*
X290695Y1126777D01*
X290694Y1126817D01*
X290702Y1126871D01*
X290702Y1130681D01*
X290691Y1130746D01*
X290689Y1130812D01*
X290671Y1130855D01*
X290663Y1130902D01*
X290629Y1130959D01*
X290604Y1131019D01*
X290573Y1131054D01*
X290548Y1131095D01*
X290497Y1131137D01*
X290453Y1131185D01*
X290411Y1131207D01*
X290374Y1131236D01*
X290312Y1131257D01*
X290253Y1131288D01*
X290199Y1131296D01*
X290162Y1131308D01*
X290122Y1131307D01*
X290068Y1131315D01*
X287528Y1131315D01*
X287463Y1131304D01*
X287397Y1131302D01*
X287354Y1131284D01*
X287307Y1131276D01*
X287250Y1131242D01*
X287190Y1131217D01*
X287155Y1131186D01*
X287114Y1131161D01*
X287073Y1131110D01*
X287024Y1131066D01*
X287002Y1131024D01*
X286973Y1130987D01*
X286952Y1130925D01*
X286921Y1130866D01*
X286913Y1130812D01*
X286901Y1130775D01*
X286901Y1130771D01*
X286901Y1130770D01*
X286902Y1130735D01*
X286894Y1130681D01*
X286894Y1126871D01*
X286905Y1126806D01*
X286907Y1126740D01*
X286925Y1126697D01*
X286933Y1126650D01*
X286967Y1126593D01*
X286992Y1126533D01*
X287023Y1126498D01*
X287048Y1126457D01*
X287099Y1126416D01*
X287143Y1126367D01*
X287185Y1126345D01*
X287222Y1126316D01*
X287284Y1126295D01*
X287343Y1126264D01*
X287397Y1126256D01*
X287434Y1126244D01*
X287474Y1126245D01*
X287528Y1126237D01*
X290068Y1126237D01*
X290133Y1126248D01*
G37*
G36*
X670117Y1126248D02*
X670117Y1126248D01*
X670183Y1126250D01*
X670226Y1126268D01*
X670273Y1126276D01*
X670330Y1126310D01*
X670390Y1126335D01*
X670425Y1126366D01*
X670466Y1126391D01*
X670508Y1126442D01*
X670556Y1126486D01*
X670578Y1126528D01*
X670607Y1126565D01*
X670628Y1126627D01*
X670659Y1126686D01*
X670667Y1126740D01*
X670679Y1126777D01*
X670678Y1126817D01*
X670686Y1126871D01*
X670686Y1130681D01*
X670675Y1130746D01*
X670673Y1130812D01*
X670655Y1130855D01*
X670647Y1130902D01*
X670613Y1130959D01*
X670588Y1131019D01*
X670557Y1131054D01*
X670532Y1131095D01*
X670481Y1131137D01*
X670437Y1131185D01*
X670395Y1131207D01*
X670358Y1131236D01*
X670296Y1131257D01*
X670237Y1131288D01*
X670183Y1131296D01*
X670146Y1131308D01*
X670106Y1131307D01*
X670052Y1131315D01*
X667512Y1131315D01*
X667447Y1131304D01*
X667381Y1131302D01*
X667338Y1131284D01*
X667291Y1131276D01*
X667234Y1131242D01*
X667174Y1131217D01*
X667139Y1131186D01*
X667098Y1131161D01*
X667057Y1131110D01*
X667008Y1131066D01*
X666986Y1131024D01*
X666957Y1130987D01*
X666936Y1130925D01*
X666905Y1130866D01*
X666897Y1130812D01*
X666885Y1130775D01*
X666885Y1130771D01*
X666885Y1130770D01*
X666886Y1130735D01*
X666878Y1130681D01*
X666878Y1126871D01*
X666889Y1126806D01*
X666891Y1126740D01*
X666909Y1126697D01*
X666917Y1126650D01*
X666951Y1126593D01*
X666976Y1126533D01*
X667007Y1126498D01*
X667032Y1126457D01*
X667083Y1126416D01*
X667127Y1126367D01*
X667169Y1126345D01*
X667206Y1126316D01*
X667268Y1126295D01*
X667327Y1126264D01*
X667381Y1126256D01*
X667418Y1126244D01*
X667458Y1126245D01*
X667512Y1126237D01*
X670052Y1126237D01*
X670117Y1126248D01*
G37*
G36*
X1050101Y1116088D02*
X1050101Y1116088D01*
X1050167Y1116090D01*
X1050210Y1116108D01*
X1050257Y1116116D01*
X1050314Y1116150D01*
X1050374Y1116175D01*
X1050409Y1116206D01*
X1050450Y1116231D01*
X1050492Y1116282D01*
X1050540Y1116326D01*
X1050562Y1116368D01*
X1050591Y1116405D01*
X1050612Y1116467D01*
X1050643Y1116526D01*
X1050651Y1116580D01*
X1050663Y1116617D01*
X1050662Y1116657D01*
X1050670Y1116711D01*
X1050670Y1120521D01*
X1050659Y1120586D01*
X1050657Y1120652D01*
X1050639Y1120695D01*
X1050631Y1120742D01*
X1050597Y1120799D01*
X1050572Y1120859D01*
X1050541Y1120894D01*
X1050516Y1120935D01*
X1050465Y1120977D01*
X1050421Y1121025D01*
X1050379Y1121047D01*
X1050342Y1121076D01*
X1050280Y1121097D01*
X1050221Y1121128D01*
X1050167Y1121136D01*
X1050130Y1121148D01*
X1050090Y1121147D01*
X1050036Y1121155D01*
X1047496Y1121155D01*
X1047431Y1121144D01*
X1047365Y1121142D01*
X1047322Y1121124D01*
X1047275Y1121116D01*
X1047218Y1121082D01*
X1047158Y1121057D01*
X1047123Y1121026D01*
X1047082Y1121001D01*
X1047041Y1120950D01*
X1046992Y1120906D01*
X1046970Y1120864D01*
X1046941Y1120827D01*
X1046920Y1120765D01*
X1046889Y1120706D01*
X1046881Y1120652D01*
X1046869Y1120615D01*
X1046869Y1120611D01*
X1046869Y1120610D01*
X1046870Y1120575D01*
X1046862Y1120521D01*
X1046862Y1116711D01*
X1046873Y1116646D01*
X1046875Y1116580D01*
X1046893Y1116537D01*
X1046901Y1116490D01*
X1046935Y1116433D01*
X1046960Y1116373D01*
X1046991Y1116338D01*
X1047016Y1116297D01*
X1047067Y1116256D01*
X1047111Y1116207D01*
X1047153Y1116185D01*
X1047190Y1116156D01*
X1047252Y1116135D01*
X1047311Y1116104D01*
X1047365Y1116096D01*
X1047402Y1116084D01*
X1047442Y1116085D01*
X1047496Y1116077D01*
X1050036Y1116077D01*
X1050101Y1116088D01*
G37*
G36*
X290133Y1116088D02*
X290133Y1116088D01*
X290199Y1116090D01*
X290242Y1116108D01*
X290289Y1116116D01*
X290346Y1116150D01*
X290406Y1116175D01*
X290441Y1116206D01*
X290482Y1116231D01*
X290524Y1116282D01*
X290572Y1116326D01*
X290594Y1116368D01*
X290623Y1116405D01*
X290644Y1116467D01*
X290675Y1116526D01*
X290683Y1116580D01*
X290695Y1116617D01*
X290694Y1116657D01*
X290702Y1116711D01*
X290702Y1120521D01*
X290691Y1120586D01*
X290689Y1120652D01*
X290671Y1120695D01*
X290663Y1120742D01*
X290629Y1120799D01*
X290604Y1120859D01*
X290573Y1120894D01*
X290548Y1120935D01*
X290497Y1120977D01*
X290453Y1121025D01*
X290411Y1121047D01*
X290374Y1121076D01*
X290312Y1121097D01*
X290253Y1121128D01*
X290199Y1121136D01*
X290162Y1121148D01*
X290122Y1121147D01*
X290068Y1121155D01*
X287528Y1121155D01*
X287463Y1121144D01*
X287397Y1121142D01*
X287354Y1121124D01*
X287307Y1121116D01*
X287250Y1121082D01*
X287190Y1121057D01*
X287155Y1121026D01*
X287114Y1121001D01*
X287073Y1120950D01*
X287024Y1120906D01*
X287002Y1120864D01*
X286973Y1120827D01*
X286952Y1120765D01*
X286921Y1120706D01*
X286913Y1120652D01*
X286901Y1120615D01*
X286901Y1120611D01*
X286901Y1120610D01*
X286902Y1120575D01*
X286894Y1120521D01*
X286894Y1116711D01*
X286905Y1116646D01*
X286907Y1116580D01*
X286925Y1116537D01*
X286933Y1116490D01*
X286967Y1116433D01*
X286992Y1116373D01*
X287023Y1116338D01*
X287048Y1116297D01*
X287099Y1116256D01*
X287143Y1116207D01*
X287185Y1116185D01*
X287222Y1116156D01*
X287284Y1116135D01*
X287343Y1116104D01*
X287397Y1116096D01*
X287434Y1116084D01*
X287474Y1116085D01*
X287528Y1116077D01*
X290068Y1116077D01*
X290133Y1116088D01*
G37*
G36*
X670117Y1116088D02*
X670117Y1116088D01*
X670183Y1116090D01*
X670226Y1116108D01*
X670273Y1116116D01*
X670330Y1116150D01*
X670390Y1116175D01*
X670425Y1116206D01*
X670466Y1116231D01*
X670508Y1116282D01*
X670556Y1116326D01*
X670578Y1116368D01*
X670607Y1116405D01*
X670628Y1116467D01*
X670659Y1116526D01*
X670667Y1116580D01*
X670679Y1116617D01*
X670678Y1116657D01*
X670686Y1116711D01*
X670686Y1120521D01*
X670675Y1120586D01*
X670673Y1120652D01*
X670655Y1120695D01*
X670647Y1120742D01*
X670613Y1120799D01*
X670588Y1120859D01*
X670557Y1120894D01*
X670532Y1120935D01*
X670481Y1120977D01*
X670437Y1121025D01*
X670395Y1121047D01*
X670358Y1121076D01*
X670296Y1121097D01*
X670237Y1121128D01*
X670183Y1121136D01*
X670146Y1121148D01*
X670106Y1121147D01*
X670052Y1121155D01*
X667512Y1121155D01*
X667447Y1121144D01*
X667381Y1121142D01*
X667338Y1121124D01*
X667291Y1121116D01*
X667234Y1121082D01*
X667174Y1121057D01*
X667139Y1121026D01*
X667098Y1121001D01*
X667057Y1120950D01*
X667008Y1120906D01*
X666986Y1120864D01*
X666957Y1120827D01*
X666936Y1120765D01*
X666905Y1120706D01*
X666897Y1120652D01*
X666885Y1120615D01*
X666885Y1120611D01*
X666885Y1120610D01*
X666886Y1120575D01*
X666878Y1120521D01*
X666878Y1116711D01*
X666889Y1116646D01*
X666891Y1116580D01*
X666909Y1116537D01*
X666917Y1116490D01*
X666951Y1116433D01*
X666976Y1116373D01*
X667007Y1116338D01*
X667032Y1116297D01*
X667083Y1116256D01*
X667127Y1116207D01*
X667169Y1116185D01*
X667206Y1116156D01*
X667268Y1116135D01*
X667327Y1116104D01*
X667381Y1116096D01*
X667418Y1116084D01*
X667458Y1116085D01*
X667512Y1116077D01*
X670052Y1116077D01*
X670117Y1116088D01*
G37*
G36*
X467425Y231152D02*
X467425Y231152D01*
X467491Y231154D01*
X467534Y231172D01*
X467581Y231180D01*
X467638Y231214D01*
X467698Y231239D01*
X467733Y231270D01*
X467774Y231295D01*
X467816Y231346D01*
X467864Y231390D01*
X467886Y231432D01*
X467915Y231469D01*
X467936Y231531D01*
X467967Y231590D01*
X467975Y231644D01*
X467987Y231681D01*
X467986Y231721D01*
X467994Y231775D01*
X467994Y235585D01*
X467983Y235650D01*
X467981Y235716D01*
X467963Y235759D01*
X467955Y235806D01*
X467921Y235863D01*
X467896Y235923D01*
X467865Y235958D01*
X467840Y235999D01*
X467789Y236041D01*
X467745Y236089D01*
X467703Y236111D01*
X467666Y236140D01*
X467604Y236161D01*
X467545Y236192D01*
X467491Y236200D01*
X467454Y236212D01*
X467414Y236211D01*
X467360Y236219D01*
X464820Y236219D01*
X464755Y236208D01*
X464689Y236206D01*
X464646Y236188D01*
X464599Y236180D01*
X464542Y236146D01*
X464482Y236121D01*
X464447Y236090D01*
X464406Y236065D01*
X464365Y236014D01*
X464316Y235970D01*
X464294Y235928D01*
X464265Y235891D01*
X464244Y235829D01*
X464213Y235770D01*
X464205Y235716D01*
X464193Y235679D01*
X464193Y235675D01*
X464193Y235674D01*
X464194Y235639D01*
X464186Y235585D01*
X464186Y231775D01*
X464197Y231710D01*
X464199Y231644D01*
X464217Y231601D01*
X464225Y231554D01*
X464259Y231497D01*
X464284Y231437D01*
X464315Y231402D01*
X464340Y231361D01*
X464391Y231320D01*
X464435Y231271D01*
X464477Y231249D01*
X464514Y231220D01*
X464576Y231199D01*
X464635Y231168D01*
X464689Y231160D01*
X464726Y231148D01*
X464766Y231149D01*
X464820Y231141D01*
X467360Y231141D01*
X467425Y231152D01*
G37*
G36*
X847409Y241312D02*
X847409Y241312D01*
X847475Y241314D01*
X847518Y241332D01*
X847565Y241340D01*
X847622Y241374D01*
X847682Y241399D01*
X847717Y241430D01*
X847758Y241455D01*
X847800Y241506D01*
X847848Y241550D01*
X847870Y241592D01*
X847899Y241629D01*
X847920Y241691D01*
X847951Y241750D01*
X847959Y241804D01*
X847971Y241841D01*
X847970Y241881D01*
X847978Y241935D01*
X847978Y245745D01*
X847967Y245810D01*
X847965Y245876D01*
X847947Y245919D01*
X847939Y245966D01*
X847905Y246023D01*
X847880Y246083D01*
X847849Y246118D01*
X847824Y246159D01*
X847773Y246201D01*
X847729Y246249D01*
X847687Y246271D01*
X847650Y246300D01*
X847588Y246321D01*
X847529Y246352D01*
X847475Y246360D01*
X847438Y246372D01*
X847398Y246371D01*
X847344Y246379D01*
X844804Y246379D01*
X844739Y246368D01*
X844673Y246366D01*
X844630Y246348D01*
X844583Y246340D01*
X844526Y246306D01*
X844466Y246281D01*
X844431Y246250D01*
X844390Y246225D01*
X844349Y246174D01*
X844300Y246130D01*
X844278Y246088D01*
X844249Y246051D01*
X844228Y245989D01*
X844197Y245930D01*
X844189Y245876D01*
X844177Y245839D01*
X844177Y245835D01*
X844177Y245834D01*
X844178Y245799D01*
X844170Y245745D01*
X844170Y241935D01*
X844181Y241870D01*
X844183Y241804D01*
X844201Y241761D01*
X844209Y241714D01*
X844243Y241657D01*
X844268Y241597D01*
X844299Y241562D01*
X844324Y241521D01*
X844375Y241480D01*
X844419Y241431D01*
X844461Y241409D01*
X844498Y241380D01*
X844560Y241359D01*
X844619Y241328D01*
X844673Y241320D01*
X844710Y241308D01*
X844750Y241309D01*
X844804Y241301D01*
X847344Y241301D01*
X847409Y241312D01*
G37*
G36*
X467425Y241312D02*
X467425Y241312D01*
X467491Y241314D01*
X467534Y241332D01*
X467581Y241340D01*
X467638Y241374D01*
X467698Y241399D01*
X467733Y241430D01*
X467774Y241455D01*
X467816Y241506D01*
X467864Y241550D01*
X467886Y241592D01*
X467915Y241629D01*
X467936Y241691D01*
X467967Y241750D01*
X467975Y241804D01*
X467987Y241841D01*
X467986Y241881D01*
X467994Y241935D01*
X467994Y245745D01*
X467983Y245810D01*
X467981Y245876D01*
X467963Y245919D01*
X467955Y245966D01*
X467921Y246023D01*
X467896Y246083D01*
X467865Y246118D01*
X467840Y246159D01*
X467789Y246201D01*
X467745Y246249D01*
X467703Y246271D01*
X467666Y246300D01*
X467604Y246321D01*
X467545Y246352D01*
X467491Y246360D01*
X467454Y246372D01*
X467414Y246371D01*
X467360Y246379D01*
X464820Y246379D01*
X464755Y246368D01*
X464689Y246366D01*
X464646Y246348D01*
X464599Y246340D01*
X464542Y246306D01*
X464482Y246281D01*
X464447Y246250D01*
X464406Y246225D01*
X464365Y246174D01*
X464316Y246130D01*
X464294Y246088D01*
X464265Y246051D01*
X464244Y245989D01*
X464213Y245930D01*
X464205Y245876D01*
X464193Y245839D01*
X464193Y245835D01*
X464193Y245834D01*
X464194Y245799D01*
X464186Y245745D01*
X464186Y241935D01*
X464197Y241870D01*
X464199Y241804D01*
X464217Y241761D01*
X464225Y241714D01*
X464259Y241657D01*
X464284Y241597D01*
X464315Y241562D01*
X464340Y241521D01*
X464391Y241480D01*
X464435Y241431D01*
X464477Y241409D01*
X464514Y241380D01*
X464576Y241359D01*
X464635Y241328D01*
X464689Y241320D01*
X464726Y241308D01*
X464766Y241309D01*
X464820Y241301D01*
X467360Y241301D01*
X467425Y241312D01*
G37*
G36*
X87441Y241312D02*
X87441Y241312D01*
X87507Y241314D01*
X87550Y241332D01*
X87597Y241340D01*
X87654Y241374D01*
X87714Y241399D01*
X87749Y241430D01*
X87790Y241455D01*
X87832Y241506D01*
X87880Y241550D01*
X87902Y241592D01*
X87931Y241629D01*
X87952Y241691D01*
X87983Y241750D01*
X87991Y241804D01*
X88003Y241841D01*
X88002Y241881D01*
X88010Y241935D01*
X88010Y245745D01*
X87999Y245810D01*
X87997Y245876D01*
X87979Y245919D01*
X87971Y245966D01*
X87937Y246023D01*
X87912Y246083D01*
X87881Y246118D01*
X87856Y246159D01*
X87805Y246201D01*
X87761Y246249D01*
X87719Y246271D01*
X87682Y246300D01*
X87620Y246321D01*
X87561Y246352D01*
X87507Y246360D01*
X87470Y246372D01*
X87430Y246371D01*
X87376Y246379D01*
X84836Y246379D01*
X84771Y246368D01*
X84705Y246366D01*
X84662Y246348D01*
X84615Y246340D01*
X84558Y246306D01*
X84498Y246281D01*
X84463Y246250D01*
X84422Y246225D01*
X84381Y246174D01*
X84332Y246130D01*
X84310Y246088D01*
X84281Y246051D01*
X84260Y245989D01*
X84229Y245930D01*
X84221Y245876D01*
X84209Y245839D01*
X84209Y245835D01*
X84209Y245834D01*
X84210Y245799D01*
X84202Y245745D01*
X84202Y241935D01*
X84213Y241870D01*
X84215Y241804D01*
X84233Y241761D01*
X84241Y241714D01*
X84275Y241657D01*
X84300Y241597D01*
X84331Y241562D01*
X84356Y241521D01*
X84407Y241480D01*
X84451Y241431D01*
X84493Y241409D01*
X84530Y241380D01*
X84592Y241359D01*
X84651Y241328D01*
X84705Y241320D01*
X84742Y241308D01*
X84782Y241309D01*
X84836Y241301D01*
X87376Y241301D01*
X87441Y241312D01*
G37*
G36*
X87441Y231152D02*
X87441Y231152D01*
X87507Y231154D01*
X87550Y231172D01*
X87597Y231180D01*
X87654Y231214D01*
X87714Y231239D01*
X87749Y231270D01*
X87790Y231295D01*
X87832Y231346D01*
X87880Y231390D01*
X87902Y231432D01*
X87931Y231469D01*
X87952Y231531D01*
X87983Y231590D01*
X87991Y231644D01*
X88003Y231681D01*
X88002Y231721D01*
X88010Y231775D01*
X88010Y235585D01*
X87999Y235650D01*
X87997Y235716D01*
X87979Y235759D01*
X87971Y235806D01*
X87937Y235863D01*
X87912Y235923D01*
X87881Y235958D01*
X87856Y235999D01*
X87805Y236041D01*
X87761Y236089D01*
X87719Y236111D01*
X87682Y236140D01*
X87620Y236161D01*
X87561Y236192D01*
X87507Y236200D01*
X87470Y236212D01*
X87430Y236211D01*
X87376Y236219D01*
X84836Y236219D01*
X84771Y236208D01*
X84705Y236206D01*
X84662Y236188D01*
X84615Y236180D01*
X84558Y236146D01*
X84498Y236121D01*
X84463Y236090D01*
X84422Y236065D01*
X84381Y236014D01*
X84332Y235970D01*
X84310Y235928D01*
X84281Y235891D01*
X84260Y235829D01*
X84229Y235770D01*
X84221Y235716D01*
X84209Y235679D01*
X84209Y235675D01*
X84209Y235674D01*
X84210Y235639D01*
X84202Y235585D01*
X84202Y231775D01*
X84213Y231710D01*
X84215Y231644D01*
X84233Y231601D01*
X84241Y231554D01*
X84275Y231497D01*
X84300Y231437D01*
X84331Y231402D01*
X84356Y231361D01*
X84407Y231320D01*
X84451Y231271D01*
X84493Y231249D01*
X84530Y231220D01*
X84592Y231199D01*
X84651Y231168D01*
X84705Y231160D01*
X84742Y231148D01*
X84782Y231149D01*
X84836Y231141D01*
X87376Y231141D01*
X87441Y231152D01*
G37*
G36*
X847409Y231152D02*
X847409Y231152D01*
X847475Y231154D01*
X847518Y231172D01*
X847565Y231180D01*
X847622Y231214D01*
X847682Y231239D01*
X847717Y231270D01*
X847758Y231295D01*
X847800Y231346D01*
X847848Y231390D01*
X847870Y231432D01*
X847899Y231469D01*
X847920Y231531D01*
X847951Y231590D01*
X847959Y231644D01*
X847971Y231681D01*
X847970Y231721D01*
X847978Y231775D01*
X847978Y235585D01*
X847967Y235650D01*
X847965Y235716D01*
X847947Y235759D01*
X847939Y235806D01*
X847905Y235863D01*
X847880Y235923D01*
X847849Y235958D01*
X847824Y235999D01*
X847773Y236041D01*
X847729Y236089D01*
X847687Y236111D01*
X847650Y236140D01*
X847588Y236161D01*
X847529Y236192D01*
X847475Y236200D01*
X847438Y236212D01*
X847398Y236211D01*
X847344Y236219D01*
X844804Y236219D01*
X844739Y236208D01*
X844673Y236206D01*
X844630Y236188D01*
X844583Y236180D01*
X844526Y236146D01*
X844466Y236121D01*
X844431Y236090D01*
X844390Y236065D01*
X844349Y236014D01*
X844300Y235970D01*
X844278Y235928D01*
X844249Y235891D01*
X844228Y235829D01*
X844197Y235770D01*
X844189Y235716D01*
X844177Y235679D01*
X844177Y235675D01*
X844177Y235674D01*
X844178Y235639D01*
X844170Y235585D01*
X844170Y231775D01*
X844181Y231710D01*
X844183Y231644D01*
X844201Y231601D01*
X844209Y231554D01*
X844243Y231497D01*
X844268Y231437D01*
X844299Y231402D01*
X844324Y231361D01*
X844375Y231320D01*
X844419Y231271D01*
X844461Y231249D01*
X844498Y231220D01*
X844560Y231199D01*
X844619Y231168D01*
X844673Y231160D01*
X844710Y231148D01*
X844750Y231149D01*
X844804Y231141D01*
X847344Y231141D01*
X847409Y231152D01*
G37*
G36*
X206186Y729119D02*
X206186Y729119D01*
X206252Y729121D01*
X206295Y729139D01*
X206342Y729147D01*
X206399Y729181D01*
X206459Y729206D01*
X206494Y729237D01*
X206535Y729262D01*
X206577Y729313D01*
X206625Y729357D01*
X206647Y729399D01*
X206676Y729436D01*
X206697Y729498D01*
X206728Y729557D01*
X206736Y729611D01*
X206748Y729648D01*
X206747Y729688D01*
X206755Y729742D01*
X206755Y732282D01*
X206744Y732347D01*
X206742Y732413D01*
X206724Y732456D01*
X206716Y732503D01*
X206682Y732560D01*
X206657Y732620D01*
X206626Y732655D01*
X206601Y732696D01*
X206550Y732738D01*
X206506Y732786D01*
X206464Y732808D01*
X206427Y732837D01*
X206365Y732858D01*
X206306Y732889D01*
X206252Y732897D01*
X206215Y732909D01*
X206175Y732908D01*
X206121Y732916D01*
X202311Y732916D01*
X202246Y732905D01*
X202180Y732903D01*
X202137Y732885D01*
X202090Y732877D01*
X202033Y732843D01*
X201973Y732818D01*
X201938Y732787D01*
X201897Y732762D01*
X201856Y732711D01*
X201807Y732667D01*
X201785Y732625D01*
X201756Y732588D01*
X201735Y732526D01*
X201704Y732467D01*
X201696Y732413D01*
X201684Y732376D01*
X201684Y732373D01*
X201685Y732336D01*
X201677Y732282D01*
X201677Y729742D01*
X201688Y729677D01*
X201690Y729611D01*
X201708Y729568D01*
X201716Y729521D01*
X201750Y729464D01*
X201775Y729404D01*
X201806Y729369D01*
X201831Y729328D01*
X201882Y729287D01*
X201926Y729238D01*
X201968Y729216D01*
X202005Y729187D01*
X202067Y729166D01*
X202126Y729135D01*
X202180Y729127D01*
X202217Y729115D01*
X202257Y729116D01*
X202311Y729108D01*
X206121Y729108D01*
X206186Y729119D01*
G37*
G36*
X930340Y729119D02*
X930340Y729119D01*
X930406Y729121D01*
X930449Y729139D01*
X930496Y729147D01*
X930553Y729181D01*
X930613Y729206D01*
X930648Y729237D01*
X930689Y729262D01*
X930731Y729313D01*
X930779Y729357D01*
X930801Y729399D01*
X930830Y729436D01*
X930851Y729498D01*
X930882Y729557D01*
X930890Y729611D01*
X930902Y729648D01*
X930901Y729688D01*
X930909Y729742D01*
X930909Y732282D01*
X930898Y732347D01*
X930896Y732413D01*
X930878Y732456D01*
X930870Y732503D01*
X930836Y732560D01*
X930811Y732620D01*
X930780Y732655D01*
X930755Y732696D01*
X930704Y732738D01*
X930660Y732786D01*
X930618Y732808D01*
X930581Y732837D01*
X930519Y732858D01*
X930460Y732889D01*
X930406Y732897D01*
X930369Y732909D01*
X930329Y732908D01*
X930275Y732916D01*
X926465Y732916D01*
X926400Y732905D01*
X926334Y732903D01*
X926291Y732885D01*
X926244Y732877D01*
X926187Y732843D01*
X926127Y732818D01*
X926092Y732787D01*
X926051Y732762D01*
X926010Y732711D01*
X925961Y732667D01*
X925939Y732625D01*
X925910Y732588D01*
X925889Y732526D01*
X925858Y732467D01*
X925850Y732413D01*
X925838Y732376D01*
X925838Y732373D01*
X925839Y732336D01*
X925831Y732282D01*
X925831Y729742D01*
X925842Y729677D01*
X925844Y729611D01*
X925862Y729568D01*
X925870Y729521D01*
X925904Y729464D01*
X925929Y729404D01*
X925960Y729369D01*
X925985Y729328D01*
X926036Y729287D01*
X926080Y729238D01*
X926122Y729216D01*
X926159Y729187D01*
X926221Y729166D01*
X926280Y729135D01*
X926334Y729127D01*
X926371Y729115D01*
X926411Y729116D01*
X926465Y729108D01*
X930275Y729108D01*
X930340Y729119D01*
G37*
G36*
X170372Y729119D02*
X170372Y729119D01*
X170438Y729121D01*
X170481Y729139D01*
X170528Y729147D01*
X170585Y729181D01*
X170645Y729206D01*
X170680Y729237D01*
X170721Y729262D01*
X170763Y729313D01*
X170811Y729357D01*
X170833Y729399D01*
X170862Y729436D01*
X170883Y729498D01*
X170914Y729557D01*
X170922Y729611D01*
X170934Y729648D01*
X170933Y729688D01*
X170941Y729742D01*
X170941Y732282D01*
X170930Y732347D01*
X170928Y732413D01*
X170910Y732456D01*
X170902Y732503D01*
X170868Y732560D01*
X170843Y732620D01*
X170812Y732655D01*
X170787Y732696D01*
X170736Y732738D01*
X170692Y732786D01*
X170650Y732808D01*
X170613Y732837D01*
X170551Y732858D01*
X170492Y732889D01*
X170438Y732897D01*
X170401Y732909D01*
X170361Y732908D01*
X170307Y732916D01*
X166497Y732916D01*
X166432Y732905D01*
X166366Y732903D01*
X166323Y732885D01*
X166276Y732877D01*
X166219Y732843D01*
X166159Y732818D01*
X166124Y732787D01*
X166083Y732762D01*
X166042Y732711D01*
X165993Y732667D01*
X165971Y732625D01*
X165942Y732588D01*
X165921Y732526D01*
X165890Y732467D01*
X165882Y732413D01*
X165870Y732376D01*
X165870Y732373D01*
X165871Y732336D01*
X165863Y732282D01*
X165863Y729742D01*
X165874Y729677D01*
X165876Y729611D01*
X165894Y729568D01*
X165902Y729521D01*
X165936Y729464D01*
X165961Y729404D01*
X165992Y729369D01*
X166017Y729328D01*
X166068Y729287D01*
X166112Y729238D01*
X166154Y729216D01*
X166191Y729187D01*
X166253Y729166D01*
X166312Y729135D01*
X166366Y729127D01*
X166403Y729115D01*
X166443Y729116D01*
X166497Y729108D01*
X170307Y729108D01*
X170372Y729119D01*
G37*
G36*
X550356Y729119D02*
X550356Y729119D01*
X550422Y729121D01*
X550465Y729139D01*
X550512Y729147D01*
X550569Y729181D01*
X550629Y729206D01*
X550664Y729237D01*
X550705Y729262D01*
X550747Y729313D01*
X550795Y729357D01*
X550817Y729399D01*
X550846Y729436D01*
X550867Y729498D01*
X550898Y729557D01*
X550906Y729611D01*
X550918Y729648D01*
X550917Y729688D01*
X550925Y729742D01*
X550925Y732282D01*
X550914Y732347D01*
X550912Y732413D01*
X550894Y732456D01*
X550886Y732503D01*
X550852Y732560D01*
X550827Y732620D01*
X550796Y732655D01*
X550771Y732696D01*
X550720Y732738D01*
X550676Y732786D01*
X550634Y732808D01*
X550597Y732837D01*
X550535Y732858D01*
X550476Y732889D01*
X550422Y732897D01*
X550385Y732909D01*
X550345Y732908D01*
X550291Y732916D01*
X546481Y732916D01*
X546416Y732905D01*
X546350Y732903D01*
X546307Y732885D01*
X546260Y732877D01*
X546203Y732843D01*
X546143Y732818D01*
X546108Y732787D01*
X546067Y732762D01*
X546026Y732711D01*
X545977Y732667D01*
X545955Y732625D01*
X545926Y732588D01*
X545905Y732526D01*
X545874Y732467D01*
X545866Y732413D01*
X545854Y732376D01*
X545854Y732373D01*
X545855Y732336D01*
X545847Y732282D01*
X545847Y729742D01*
X545858Y729677D01*
X545860Y729611D01*
X545878Y729568D01*
X545886Y729521D01*
X545920Y729464D01*
X545945Y729404D01*
X545976Y729369D01*
X546001Y729328D01*
X546052Y729287D01*
X546096Y729238D01*
X546138Y729216D01*
X546175Y729187D01*
X546237Y729166D01*
X546296Y729135D01*
X546350Y729127D01*
X546387Y729115D01*
X546427Y729116D01*
X546481Y729108D01*
X550291Y729108D01*
X550356Y729119D01*
G37*
G36*
X586170Y729119D02*
X586170Y729119D01*
X586236Y729121D01*
X586279Y729139D01*
X586326Y729147D01*
X586383Y729181D01*
X586443Y729206D01*
X586478Y729237D01*
X586519Y729262D01*
X586561Y729313D01*
X586609Y729357D01*
X586631Y729399D01*
X586660Y729436D01*
X586681Y729498D01*
X586712Y729557D01*
X586720Y729611D01*
X586732Y729648D01*
X586731Y729688D01*
X586739Y729742D01*
X586739Y732282D01*
X586728Y732347D01*
X586726Y732413D01*
X586708Y732456D01*
X586700Y732503D01*
X586666Y732560D01*
X586641Y732620D01*
X586610Y732655D01*
X586585Y732696D01*
X586534Y732738D01*
X586490Y732786D01*
X586448Y732808D01*
X586411Y732837D01*
X586349Y732858D01*
X586290Y732889D01*
X586236Y732897D01*
X586199Y732909D01*
X586159Y732908D01*
X586105Y732916D01*
X582295Y732916D01*
X582230Y732905D01*
X582164Y732903D01*
X582121Y732885D01*
X582074Y732877D01*
X582017Y732843D01*
X581957Y732818D01*
X581922Y732787D01*
X581881Y732762D01*
X581840Y732711D01*
X581791Y732667D01*
X581769Y732625D01*
X581740Y732588D01*
X581719Y732526D01*
X581688Y732467D01*
X581680Y732413D01*
X581668Y732376D01*
X581668Y732373D01*
X581669Y732336D01*
X581661Y732282D01*
X581661Y729742D01*
X581672Y729677D01*
X581674Y729611D01*
X581692Y729568D01*
X581700Y729521D01*
X581734Y729464D01*
X581759Y729404D01*
X581790Y729369D01*
X581815Y729328D01*
X581866Y729287D01*
X581910Y729238D01*
X581952Y729216D01*
X581989Y729187D01*
X582051Y729166D01*
X582110Y729135D01*
X582164Y729127D01*
X582201Y729115D01*
X582241Y729116D01*
X582295Y729108D01*
X586105Y729108D01*
X586170Y729119D01*
G37*
G36*
X966154Y729119D02*
X966154Y729119D01*
X966220Y729121D01*
X966263Y729139D01*
X966310Y729147D01*
X966367Y729181D01*
X966427Y729206D01*
X966462Y729237D01*
X966503Y729262D01*
X966545Y729313D01*
X966593Y729357D01*
X966615Y729399D01*
X966644Y729436D01*
X966665Y729498D01*
X966696Y729557D01*
X966704Y729611D01*
X966716Y729648D01*
X966715Y729688D01*
X966723Y729742D01*
X966723Y732282D01*
X966712Y732347D01*
X966710Y732413D01*
X966692Y732456D01*
X966684Y732503D01*
X966650Y732560D01*
X966625Y732620D01*
X966594Y732655D01*
X966569Y732696D01*
X966518Y732738D01*
X966474Y732786D01*
X966432Y732808D01*
X966395Y732837D01*
X966333Y732858D01*
X966274Y732889D01*
X966220Y732897D01*
X966183Y732909D01*
X966143Y732908D01*
X966089Y732916D01*
X962279Y732916D01*
X962214Y732905D01*
X962148Y732903D01*
X962105Y732885D01*
X962058Y732877D01*
X962001Y732843D01*
X961941Y732818D01*
X961906Y732787D01*
X961865Y732762D01*
X961824Y732711D01*
X961775Y732667D01*
X961753Y732625D01*
X961724Y732588D01*
X961703Y732526D01*
X961672Y732467D01*
X961664Y732413D01*
X961652Y732376D01*
X961652Y732373D01*
X961653Y732336D01*
X961645Y732282D01*
X961645Y729742D01*
X961656Y729677D01*
X961658Y729611D01*
X961676Y729568D01*
X961684Y729521D01*
X961718Y729464D01*
X961743Y729404D01*
X961774Y729369D01*
X961799Y729328D01*
X961850Y729287D01*
X961894Y729238D01*
X961936Y729216D01*
X961973Y729187D01*
X962035Y729166D01*
X962094Y729135D01*
X962148Y729127D01*
X962185Y729115D01*
X962225Y729116D01*
X962279Y729108D01*
X966089Y729108D01*
X966154Y729119D01*
G37*
G36*
X208472Y629551D02*
X208472Y629551D01*
X208538Y629553D01*
X208581Y629571D01*
X208628Y629579D01*
X208685Y629613D01*
X208745Y629638D01*
X208780Y629669D01*
X208821Y629694D01*
X208863Y629745D01*
X208911Y629789D01*
X208933Y629831D01*
X208962Y629868D01*
X208983Y629930D01*
X209014Y629989D01*
X209022Y630043D01*
X209034Y630080D01*
X209033Y630120D01*
X209041Y630174D01*
X209041Y632714D01*
X209030Y632779D01*
X209028Y632845D01*
X209010Y632888D01*
X209002Y632935D01*
X208968Y632992D01*
X208943Y633052D01*
X208912Y633087D01*
X208887Y633128D01*
X208836Y633170D01*
X208792Y633218D01*
X208750Y633240D01*
X208713Y633269D01*
X208651Y633290D01*
X208592Y633321D01*
X208538Y633329D01*
X208501Y633341D01*
X208461Y633340D01*
X208407Y633348D01*
X204597Y633348D01*
X204532Y633337D01*
X204466Y633335D01*
X204423Y633317D01*
X204376Y633309D01*
X204319Y633275D01*
X204259Y633250D01*
X204224Y633219D01*
X204183Y633194D01*
X204142Y633143D01*
X204093Y633099D01*
X204071Y633057D01*
X204042Y633020D01*
X204021Y632958D01*
X203990Y632899D01*
X203982Y632845D01*
X203970Y632808D01*
X203970Y632805D01*
X203971Y632768D01*
X203963Y632714D01*
X203963Y630174D01*
X203974Y630109D01*
X203976Y630043D01*
X203994Y630000D01*
X204002Y629953D01*
X204036Y629896D01*
X204061Y629836D01*
X204092Y629801D01*
X204117Y629760D01*
X204168Y629719D01*
X204212Y629670D01*
X204254Y629648D01*
X204291Y629619D01*
X204353Y629598D01*
X204412Y629567D01*
X204466Y629559D01*
X204503Y629547D01*
X204543Y629548D01*
X204597Y629540D01*
X208407Y629540D01*
X208472Y629551D01*
G37*
G36*
X968440Y629551D02*
X968440Y629551D01*
X968506Y629553D01*
X968549Y629571D01*
X968596Y629579D01*
X968653Y629613D01*
X968713Y629638D01*
X968748Y629669D01*
X968789Y629694D01*
X968831Y629745D01*
X968879Y629789D01*
X968901Y629831D01*
X968930Y629868D01*
X968951Y629930D01*
X968982Y629989D01*
X968990Y630043D01*
X969002Y630080D01*
X969001Y630120D01*
X969009Y630174D01*
X969009Y632714D01*
X968998Y632779D01*
X968996Y632845D01*
X968978Y632888D01*
X968970Y632935D01*
X968936Y632992D01*
X968911Y633052D01*
X968880Y633087D01*
X968855Y633128D01*
X968804Y633170D01*
X968760Y633218D01*
X968718Y633240D01*
X968681Y633269D01*
X968619Y633290D01*
X968560Y633321D01*
X968506Y633329D01*
X968469Y633341D01*
X968429Y633340D01*
X968375Y633348D01*
X964565Y633348D01*
X964500Y633337D01*
X964434Y633335D01*
X964391Y633317D01*
X964344Y633309D01*
X964287Y633275D01*
X964227Y633250D01*
X964192Y633219D01*
X964151Y633194D01*
X964110Y633143D01*
X964061Y633099D01*
X964039Y633057D01*
X964010Y633020D01*
X963989Y632958D01*
X963958Y632899D01*
X963950Y632845D01*
X963938Y632808D01*
X963938Y632805D01*
X963939Y632768D01*
X963931Y632714D01*
X963931Y630174D01*
X963942Y630109D01*
X963944Y630043D01*
X963962Y630000D01*
X963970Y629953D01*
X964004Y629896D01*
X964029Y629836D01*
X964060Y629801D01*
X964085Y629760D01*
X964136Y629719D01*
X964180Y629670D01*
X964222Y629648D01*
X964259Y629619D01*
X964321Y629598D01*
X964380Y629567D01*
X964434Y629559D01*
X964471Y629547D01*
X964511Y629548D01*
X964565Y629540D01*
X968375Y629540D01*
X968440Y629551D01*
G37*
G36*
X172658Y629551D02*
X172658Y629551D01*
X172724Y629553D01*
X172767Y629571D01*
X172814Y629579D01*
X172871Y629613D01*
X172931Y629638D01*
X172966Y629669D01*
X173007Y629694D01*
X173049Y629745D01*
X173097Y629789D01*
X173119Y629831D01*
X173148Y629868D01*
X173169Y629930D01*
X173200Y629989D01*
X173208Y630043D01*
X173220Y630080D01*
X173219Y630120D01*
X173227Y630174D01*
X173227Y632714D01*
X173216Y632779D01*
X173214Y632845D01*
X173196Y632888D01*
X173188Y632935D01*
X173154Y632992D01*
X173129Y633052D01*
X173098Y633087D01*
X173073Y633128D01*
X173022Y633170D01*
X172978Y633218D01*
X172936Y633240D01*
X172899Y633269D01*
X172837Y633290D01*
X172778Y633321D01*
X172724Y633329D01*
X172687Y633341D01*
X172647Y633340D01*
X172593Y633348D01*
X168783Y633348D01*
X168718Y633337D01*
X168652Y633335D01*
X168609Y633317D01*
X168562Y633309D01*
X168505Y633275D01*
X168445Y633250D01*
X168410Y633219D01*
X168369Y633194D01*
X168328Y633143D01*
X168279Y633099D01*
X168257Y633057D01*
X168228Y633020D01*
X168207Y632958D01*
X168176Y632899D01*
X168168Y632845D01*
X168156Y632808D01*
X168156Y632805D01*
X168157Y632768D01*
X168149Y632714D01*
X168149Y630174D01*
X168160Y630109D01*
X168162Y630043D01*
X168180Y630000D01*
X168188Y629953D01*
X168222Y629896D01*
X168247Y629836D01*
X168278Y629801D01*
X168303Y629760D01*
X168354Y629719D01*
X168398Y629670D01*
X168440Y629648D01*
X168477Y629619D01*
X168539Y629598D01*
X168598Y629567D01*
X168652Y629559D01*
X168689Y629547D01*
X168729Y629548D01*
X168783Y629540D01*
X172593Y629540D01*
X172658Y629551D01*
G37*
G36*
X552642Y629551D02*
X552642Y629551D01*
X552708Y629553D01*
X552751Y629571D01*
X552798Y629579D01*
X552855Y629613D01*
X552915Y629638D01*
X552950Y629669D01*
X552991Y629694D01*
X553033Y629745D01*
X553081Y629789D01*
X553103Y629831D01*
X553132Y629868D01*
X553153Y629930D01*
X553184Y629989D01*
X553192Y630043D01*
X553204Y630080D01*
X553203Y630120D01*
X553211Y630174D01*
X553211Y632714D01*
X553200Y632779D01*
X553198Y632845D01*
X553180Y632888D01*
X553172Y632935D01*
X553138Y632992D01*
X553113Y633052D01*
X553082Y633087D01*
X553057Y633128D01*
X553006Y633170D01*
X552962Y633218D01*
X552920Y633240D01*
X552883Y633269D01*
X552821Y633290D01*
X552762Y633321D01*
X552708Y633329D01*
X552671Y633341D01*
X552631Y633340D01*
X552577Y633348D01*
X548767Y633348D01*
X548702Y633337D01*
X548636Y633335D01*
X548593Y633317D01*
X548546Y633309D01*
X548489Y633275D01*
X548429Y633250D01*
X548394Y633219D01*
X548353Y633194D01*
X548312Y633143D01*
X548263Y633099D01*
X548241Y633057D01*
X548212Y633020D01*
X548191Y632958D01*
X548160Y632899D01*
X548152Y632845D01*
X548140Y632808D01*
X548140Y632805D01*
X548141Y632768D01*
X548133Y632714D01*
X548133Y630174D01*
X548144Y630109D01*
X548146Y630043D01*
X548164Y630000D01*
X548172Y629953D01*
X548206Y629896D01*
X548231Y629836D01*
X548262Y629801D01*
X548287Y629760D01*
X548338Y629719D01*
X548382Y629670D01*
X548424Y629648D01*
X548461Y629619D01*
X548523Y629598D01*
X548582Y629567D01*
X548636Y629559D01*
X548673Y629547D01*
X548713Y629548D01*
X548767Y629540D01*
X552577Y629540D01*
X552642Y629551D01*
G37*
G36*
X932626Y629551D02*
X932626Y629551D01*
X932692Y629553D01*
X932735Y629571D01*
X932782Y629579D01*
X932839Y629613D01*
X932899Y629638D01*
X932934Y629669D01*
X932975Y629694D01*
X933017Y629745D01*
X933065Y629789D01*
X933087Y629831D01*
X933116Y629868D01*
X933137Y629930D01*
X933168Y629989D01*
X933176Y630043D01*
X933188Y630080D01*
X933187Y630120D01*
X933195Y630174D01*
X933195Y632714D01*
X933184Y632779D01*
X933182Y632845D01*
X933164Y632888D01*
X933156Y632935D01*
X933122Y632992D01*
X933097Y633052D01*
X933066Y633087D01*
X933041Y633128D01*
X932990Y633170D01*
X932946Y633218D01*
X932904Y633240D01*
X932867Y633269D01*
X932805Y633290D01*
X932746Y633321D01*
X932692Y633329D01*
X932655Y633341D01*
X932615Y633340D01*
X932561Y633348D01*
X928751Y633348D01*
X928686Y633337D01*
X928620Y633335D01*
X928577Y633317D01*
X928530Y633309D01*
X928473Y633275D01*
X928413Y633250D01*
X928378Y633219D01*
X928337Y633194D01*
X928296Y633143D01*
X928247Y633099D01*
X928225Y633057D01*
X928196Y633020D01*
X928175Y632958D01*
X928144Y632899D01*
X928136Y632845D01*
X928124Y632808D01*
X928124Y632805D01*
X928125Y632768D01*
X928117Y632714D01*
X928117Y630174D01*
X928128Y630109D01*
X928130Y630043D01*
X928148Y630000D01*
X928156Y629953D01*
X928190Y629896D01*
X928215Y629836D01*
X928246Y629801D01*
X928271Y629760D01*
X928322Y629719D01*
X928366Y629670D01*
X928408Y629648D01*
X928445Y629619D01*
X928507Y629598D01*
X928566Y629567D01*
X928620Y629559D01*
X928657Y629547D01*
X928697Y629548D01*
X928751Y629540D01*
X932561Y629540D01*
X932626Y629551D01*
G37*
G36*
X588456Y629551D02*
X588456Y629551D01*
X588522Y629553D01*
X588565Y629571D01*
X588612Y629579D01*
X588669Y629613D01*
X588729Y629638D01*
X588764Y629669D01*
X588805Y629694D01*
X588847Y629745D01*
X588895Y629789D01*
X588917Y629831D01*
X588946Y629868D01*
X588967Y629930D01*
X588998Y629989D01*
X589006Y630043D01*
X589018Y630080D01*
X589017Y630120D01*
X589025Y630174D01*
X589025Y632714D01*
X589014Y632779D01*
X589012Y632845D01*
X588994Y632888D01*
X588986Y632935D01*
X588952Y632992D01*
X588927Y633052D01*
X588896Y633087D01*
X588871Y633128D01*
X588820Y633170D01*
X588776Y633218D01*
X588734Y633240D01*
X588697Y633269D01*
X588635Y633290D01*
X588576Y633321D01*
X588522Y633329D01*
X588485Y633341D01*
X588445Y633340D01*
X588391Y633348D01*
X584581Y633348D01*
X584516Y633337D01*
X584450Y633335D01*
X584407Y633317D01*
X584360Y633309D01*
X584303Y633275D01*
X584243Y633250D01*
X584208Y633219D01*
X584167Y633194D01*
X584126Y633143D01*
X584077Y633099D01*
X584055Y633057D01*
X584026Y633020D01*
X584005Y632958D01*
X583974Y632899D01*
X583966Y632845D01*
X583954Y632808D01*
X583954Y632805D01*
X583955Y632768D01*
X583947Y632714D01*
X583947Y630174D01*
X583958Y630109D01*
X583960Y630043D01*
X583978Y630000D01*
X583986Y629953D01*
X584020Y629896D01*
X584045Y629836D01*
X584076Y629801D01*
X584101Y629760D01*
X584152Y629719D01*
X584196Y629670D01*
X584238Y629648D01*
X584275Y629619D01*
X584337Y629598D01*
X584396Y629567D01*
X584450Y629559D01*
X584487Y629547D01*
X584527Y629548D01*
X584581Y629540D01*
X588391Y629540D01*
X588456Y629551D01*
G37*
D10*
X80262Y246378D02*
X80262Y251970D01*
X91950Y251970D01*
X91950Y246378D01*
X80262Y246378D01*
X80262Y248547D02*
X91950Y248547D01*
X91950Y250716D02*
X80262Y250716D01*
X80262Y241556D02*
X80262Y235964D01*
X80262Y241556D02*
X91950Y241556D01*
X91950Y235964D01*
X80262Y235964D01*
X80262Y238133D02*
X91950Y238133D01*
X91950Y240302D02*
X80262Y240302D01*
X80262Y231142D02*
X80262Y225550D01*
X80262Y231142D02*
X91950Y231142D01*
X91950Y225550D01*
X80262Y225550D01*
X80262Y227719D02*
X91950Y227719D01*
X91950Y229888D02*
X80262Y229888D01*
X162685Y625600D02*
X168277Y625600D01*
X162685Y625600D02*
X162685Y637288D01*
X168277Y637288D01*
X168277Y625600D01*
X168277Y627769D02*
X162685Y627769D01*
X162685Y629938D02*
X168277Y629938D01*
X168277Y632107D02*
X162685Y632107D01*
X162685Y634276D02*
X168277Y634276D01*
X168277Y636445D02*
X162685Y636445D01*
X173099Y625600D02*
X178691Y625600D01*
X173099Y625600D02*
X173099Y637288D01*
X178691Y637288D01*
X178691Y625600D01*
X178691Y627769D02*
X173099Y627769D01*
X173099Y629938D02*
X178691Y629938D01*
X178691Y632107D02*
X173099Y632107D01*
X173099Y634276D02*
X178691Y634276D01*
X178691Y636445D02*
X173099Y636445D01*
X198499Y625600D02*
X204091Y625600D01*
X198499Y625600D02*
X198499Y637288D01*
X204091Y637288D01*
X204091Y625600D01*
X204091Y627769D02*
X198499Y627769D01*
X198499Y629938D02*
X204091Y629938D01*
X204091Y632107D02*
X198499Y632107D01*
X198499Y634276D02*
X204091Y634276D01*
X204091Y636445D02*
X198499Y636445D01*
X208913Y625600D02*
X214505Y625600D01*
X208913Y625600D02*
X208913Y637288D01*
X214505Y637288D01*
X214505Y625600D01*
X214505Y627769D02*
X208913Y627769D01*
X208913Y629938D02*
X214505Y629938D01*
X214505Y632107D02*
X208913Y632107D01*
X208913Y634276D02*
X214505Y634276D01*
X214505Y636445D02*
X208913Y636445D01*
D11*
X305252Y601698D03*
X247452Y601698D03*
D12*
X346456Y228092D03*
D13*
X14972Y66040D03*
X358912Y600680D03*
D14*
X278692Y6010D02*
X276212Y6010D01*
X276212Y24490D01*
X278692Y24490D01*
X278692Y6010D01*
X278692Y8185D02*
X276212Y8185D01*
X276212Y10360D02*
X278692Y10360D01*
X278692Y12535D02*
X276212Y12535D01*
X276212Y14710D02*
X278692Y14710D01*
X278692Y16885D02*
X276212Y16885D01*
X276212Y19060D02*
X278692Y19060D01*
X278692Y21235D02*
X276212Y21235D01*
X276212Y23410D02*
X278692Y23410D01*
X273692Y6010D02*
X271212Y6010D01*
X271212Y24490D01*
X273692Y24490D01*
X273692Y6010D01*
X273692Y8185D02*
X271212Y8185D01*
X271212Y10360D02*
X273692Y10360D01*
X273692Y12535D02*
X271212Y12535D01*
X271212Y14710D02*
X273692Y14710D01*
X273692Y16885D02*
X271212Y16885D01*
X271212Y19060D02*
X273692Y19060D01*
X273692Y21235D02*
X271212Y21235D01*
X271212Y23410D02*
X273692Y23410D01*
X268692Y6010D02*
X266212Y6010D01*
X266212Y24490D01*
X268692Y24490D01*
X268692Y6010D01*
X268692Y8185D02*
X266212Y8185D01*
X266212Y10360D02*
X268692Y10360D01*
X268692Y12535D02*
X266212Y12535D01*
X266212Y14710D02*
X268692Y14710D01*
X268692Y16885D02*
X266212Y16885D01*
X266212Y19060D02*
X268692Y19060D01*
X268692Y21235D02*
X266212Y21235D01*
X266212Y23410D02*
X268692Y23410D01*
X263692Y6010D02*
X261212Y6010D01*
X261212Y24490D01*
X263692Y24490D01*
X263692Y6010D01*
X263692Y8185D02*
X261212Y8185D01*
X261212Y10360D02*
X263692Y10360D01*
X263692Y12535D02*
X261212Y12535D01*
X261212Y14710D02*
X263692Y14710D01*
X263692Y16885D02*
X261212Y16885D01*
X261212Y19060D02*
X263692Y19060D01*
X263692Y21235D02*
X261212Y21235D01*
X261212Y23410D02*
X263692Y23410D01*
X258692Y6010D02*
X256212Y6010D01*
X256212Y24490D01*
X258692Y24490D01*
X258692Y6010D01*
X258692Y8185D02*
X256212Y8185D01*
X256212Y10360D02*
X258692Y10360D01*
X258692Y12535D02*
X256212Y12535D01*
X256212Y14710D02*
X258692Y14710D01*
X258692Y16885D02*
X256212Y16885D01*
X256212Y19060D02*
X258692Y19060D01*
X258692Y21235D02*
X256212Y21235D01*
X256212Y23410D02*
X258692Y23410D01*
X253692Y6010D02*
X251212Y6010D01*
X251212Y24490D01*
X253692Y24490D01*
X253692Y6010D01*
X253692Y8185D02*
X251212Y8185D01*
X251212Y10360D02*
X253692Y10360D01*
X253692Y12535D02*
X251212Y12535D01*
X251212Y14710D02*
X253692Y14710D01*
X253692Y16885D02*
X251212Y16885D01*
X251212Y19060D02*
X253692Y19060D01*
X253692Y21235D02*
X251212Y21235D01*
X251212Y23410D02*
X253692Y23410D01*
X248692Y6010D02*
X246212Y6010D01*
X246212Y24490D01*
X248692Y24490D01*
X248692Y6010D01*
X248692Y8185D02*
X246212Y8185D01*
X246212Y10360D02*
X248692Y10360D01*
X248692Y12535D02*
X246212Y12535D01*
X246212Y14710D02*
X248692Y14710D01*
X248692Y16885D02*
X246212Y16885D01*
X246212Y19060D02*
X248692Y19060D01*
X248692Y21235D02*
X246212Y21235D01*
X246212Y23410D02*
X248692Y23410D01*
X243692Y6010D02*
X241212Y6010D01*
X241212Y24490D01*
X243692Y24490D01*
X243692Y6010D01*
X243692Y8185D02*
X241212Y8185D01*
X241212Y10360D02*
X243692Y10360D01*
X243692Y12535D02*
X241212Y12535D01*
X241212Y14710D02*
X243692Y14710D01*
X243692Y16885D02*
X241212Y16885D01*
X241212Y19060D02*
X243692Y19060D01*
X243692Y21235D02*
X241212Y21235D01*
X241212Y23410D02*
X243692Y23410D01*
X238692Y6010D02*
X236212Y6010D01*
X236212Y24490D01*
X238692Y24490D01*
X238692Y6010D01*
X238692Y8185D02*
X236212Y8185D01*
X236212Y10360D02*
X238692Y10360D01*
X238692Y12535D02*
X236212Y12535D01*
X236212Y14710D02*
X238692Y14710D01*
X238692Y16885D02*
X236212Y16885D01*
X236212Y19060D02*
X238692Y19060D01*
X238692Y21235D02*
X236212Y21235D01*
X236212Y23410D02*
X238692Y23410D01*
X233692Y6010D02*
X231212Y6010D01*
X231212Y24490D01*
X233692Y24490D01*
X233692Y6010D01*
X233692Y8185D02*
X231212Y8185D01*
X231212Y10360D02*
X233692Y10360D01*
X233692Y12535D02*
X231212Y12535D01*
X231212Y14710D02*
X233692Y14710D01*
X233692Y16885D02*
X231212Y16885D01*
X231212Y19060D02*
X233692Y19060D01*
X233692Y21235D02*
X231212Y21235D01*
X231212Y23410D02*
X233692Y23410D01*
X228692Y6010D02*
X226212Y6010D01*
X226212Y24490D01*
X228692Y24490D01*
X228692Y6010D01*
X228692Y8185D02*
X226212Y8185D01*
X226212Y10360D02*
X228692Y10360D01*
X228692Y12535D02*
X226212Y12535D01*
X226212Y14710D02*
X228692Y14710D01*
X228692Y16885D02*
X226212Y16885D01*
X226212Y19060D02*
X228692Y19060D01*
X228692Y21235D02*
X226212Y21235D01*
X226212Y23410D02*
X228692Y23410D01*
X203692Y6010D02*
X201212Y6010D01*
X201212Y24490D01*
X203692Y24490D01*
X203692Y6010D01*
X203692Y8185D02*
X201212Y8185D01*
X201212Y10360D02*
X203692Y10360D01*
X203692Y12535D02*
X201212Y12535D01*
X201212Y14710D02*
X203692Y14710D01*
X203692Y16885D02*
X201212Y16885D01*
X201212Y19060D02*
X203692Y19060D01*
X203692Y21235D02*
X201212Y21235D01*
X201212Y23410D02*
X203692Y23410D01*
X198692Y6010D02*
X196212Y6010D01*
X196212Y24490D01*
X198692Y24490D01*
X198692Y6010D01*
X198692Y8185D02*
X196212Y8185D01*
X196212Y10360D02*
X198692Y10360D01*
X198692Y12535D02*
X196212Y12535D01*
X196212Y14710D02*
X198692Y14710D01*
X198692Y16885D02*
X196212Y16885D01*
X196212Y19060D02*
X198692Y19060D01*
X198692Y21235D02*
X196212Y21235D01*
X196212Y23410D02*
X198692Y23410D01*
X193692Y6010D02*
X191212Y6010D01*
X191212Y24490D01*
X193692Y24490D01*
X193692Y6010D01*
X193692Y8185D02*
X191212Y8185D01*
X191212Y10360D02*
X193692Y10360D01*
X193692Y12535D02*
X191212Y12535D01*
X191212Y14710D02*
X193692Y14710D01*
X193692Y16885D02*
X191212Y16885D01*
X191212Y19060D02*
X193692Y19060D01*
X193692Y21235D02*
X191212Y21235D01*
X191212Y23410D02*
X193692Y23410D01*
X188692Y6010D02*
X186212Y6010D01*
X186212Y24490D01*
X188692Y24490D01*
X188692Y6010D01*
X188692Y8185D02*
X186212Y8185D01*
X186212Y10360D02*
X188692Y10360D01*
X188692Y12535D02*
X186212Y12535D01*
X186212Y14710D02*
X188692Y14710D01*
X188692Y16885D02*
X186212Y16885D01*
X186212Y19060D02*
X188692Y19060D01*
X188692Y21235D02*
X186212Y21235D01*
X186212Y23410D02*
X188692Y23410D01*
X183692Y6010D02*
X181212Y6010D01*
X181212Y24490D01*
X183692Y24490D01*
X183692Y6010D01*
X183692Y8185D02*
X181212Y8185D01*
X181212Y10360D02*
X183692Y10360D01*
X183692Y12535D02*
X181212Y12535D01*
X181212Y14710D02*
X183692Y14710D01*
X183692Y16885D02*
X181212Y16885D01*
X181212Y19060D02*
X183692Y19060D01*
X183692Y21235D02*
X181212Y21235D01*
X181212Y23410D02*
X183692Y23410D01*
X178692Y6010D02*
X176212Y6010D01*
X176212Y24490D01*
X178692Y24490D01*
X178692Y6010D01*
X178692Y8185D02*
X176212Y8185D01*
X176212Y10360D02*
X178692Y10360D01*
X178692Y12535D02*
X176212Y12535D01*
X176212Y14710D02*
X178692Y14710D01*
X178692Y16885D02*
X176212Y16885D01*
X176212Y19060D02*
X178692Y19060D01*
X178692Y21235D02*
X176212Y21235D01*
X176212Y23410D02*
X178692Y23410D01*
X173692Y6010D02*
X171212Y6010D01*
X171212Y24490D01*
X173692Y24490D01*
X173692Y6010D01*
X173692Y8185D02*
X171212Y8185D01*
X171212Y10360D02*
X173692Y10360D01*
X173692Y12535D02*
X171212Y12535D01*
X171212Y14710D02*
X173692Y14710D01*
X173692Y16885D02*
X171212Y16885D01*
X171212Y19060D02*
X173692Y19060D01*
X173692Y21235D02*
X171212Y21235D01*
X171212Y23410D02*
X173692Y23410D01*
X168692Y6010D02*
X166212Y6010D01*
X166212Y24490D01*
X168692Y24490D01*
X168692Y6010D01*
X168692Y8185D02*
X166212Y8185D01*
X166212Y10360D02*
X168692Y10360D01*
X168692Y12535D02*
X166212Y12535D01*
X166212Y14710D02*
X168692Y14710D01*
X168692Y16885D02*
X166212Y16885D01*
X166212Y19060D02*
X168692Y19060D01*
X168692Y21235D02*
X166212Y21235D01*
X166212Y23410D02*
X168692Y23410D01*
X163692Y6010D02*
X161212Y6010D01*
X161212Y24490D01*
X163692Y24490D01*
X163692Y6010D01*
X163692Y8185D02*
X161212Y8185D01*
X161212Y10360D02*
X163692Y10360D01*
X163692Y12535D02*
X161212Y12535D01*
X161212Y14710D02*
X163692Y14710D01*
X163692Y16885D02*
X161212Y16885D01*
X161212Y19060D02*
X163692Y19060D01*
X163692Y21235D02*
X161212Y21235D01*
X161212Y23410D02*
X163692Y23410D01*
X158692Y6010D02*
X156212Y6010D01*
X156212Y24490D01*
X158692Y24490D01*
X158692Y6010D01*
X158692Y8185D02*
X156212Y8185D01*
X156212Y10360D02*
X158692Y10360D01*
X158692Y12535D02*
X156212Y12535D01*
X156212Y14710D02*
X158692Y14710D01*
X158692Y16885D02*
X156212Y16885D01*
X156212Y19060D02*
X158692Y19060D01*
X158692Y21235D02*
X156212Y21235D01*
X156212Y23410D02*
X158692Y23410D01*
X153692Y6010D02*
X151212Y6010D01*
X151212Y24490D01*
X153692Y24490D01*
X153692Y6010D01*
X153692Y8185D02*
X151212Y8185D01*
X151212Y10360D02*
X153692Y10360D01*
X153692Y12535D02*
X151212Y12535D01*
X151212Y14710D02*
X153692Y14710D01*
X153692Y16885D02*
X151212Y16885D01*
X151212Y19060D02*
X153692Y19060D01*
X153692Y21235D02*
X151212Y21235D01*
X151212Y23410D02*
X153692Y23410D01*
X148692Y6010D02*
X146212Y6010D01*
X146212Y24490D01*
X148692Y24490D01*
X148692Y6010D01*
X148692Y8185D02*
X146212Y8185D01*
X146212Y10360D02*
X148692Y10360D01*
X148692Y12535D02*
X146212Y12535D01*
X146212Y14710D02*
X148692Y14710D01*
X148692Y16885D02*
X146212Y16885D01*
X146212Y19060D02*
X148692Y19060D01*
X148692Y21235D02*
X146212Y21235D01*
X146212Y23410D02*
X148692Y23410D01*
X143692Y6010D02*
X141212Y6010D01*
X141212Y24490D01*
X143692Y24490D01*
X143692Y6010D01*
X143692Y8185D02*
X141212Y8185D01*
X141212Y10360D02*
X143692Y10360D01*
X143692Y12535D02*
X141212Y12535D01*
X141212Y14710D02*
X143692Y14710D01*
X143692Y16885D02*
X141212Y16885D01*
X141212Y19060D02*
X143692Y19060D01*
X143692Y21235D02*
X141212Y21235D01*
X141212Y23410D02*
X143692Y23410D01*
X138692Y6010D02*
X136212Y6010D01*
X136212Y24490D01*
X138692Y24490D01*
X138692Y6010D01*
X138692Y8185D02*
X136212Y8185D01*
X136212Y10360D02*
X138692Y10360D01*
X138692Y12535D02*
X136212Y12535D01*
X136212Y14710D02*
X138692Y14710D01*
X138692Y16885D02*
X136212Y16885D01*
X136212Y19060D02*
X138692Y19060D01*
X138692Y21235D02*
X136212Y21235D01*
X136212Y23410D02*
X138692Y23410D01*
X133692Y6010D02*
X131212Y6010D01*
X131212Y24490D01*
X133692Y24490D01*
X133692Y6010D01*
X133692Y8185D02*
X131212Y8185D01*
X131212Y10360D02*
X133692Y10360D01*
X133692Y12535D02*
X131212Y12535D01*
X131212Y14710D02*
X133692Y14710D01*
X133692Y16885D02*
X131212Y16885D01*
X131212Y19060D02*
X133692Y19060D01*
X133692Y21235D02*
X131212Y21235D01*
X131212Y23410D02*
X133692Y23410D01*
X128692Y6010D02*
X126212Y6010D01*
X126212Y24490D01*
X128692Y24490D01*
X128692Y6010D01*
X128692Y8185D02*
X126212Y8185D01*
X126212Y10360D02*
X128692Y10360D01*
X128692Y12535D02*
X126212Y12535D01*
X126212Y14710D02*
X128692Y14710D01*
X128692Y16885D02*
X126212Y16885D01*
X126212Y19060D02*
X128692Y19060D01*
X128692Y21235D02*
X126212Y21235D01*
X126212Y23410D02*
X128692Y23410D01*
X123692Y6010D02*
X121212Y6010D01*
X121212Y24490D01*
X123692Y24490D01*
X123692Y6010D01*
X123692Y8185D02*
X121212Y8185D01*
X121212Y10360D02*
X123692Y10360D01*
X123692Y12535D02*
X121212Y12535D01*
X121212Y14710D02*
X123692Y14710D01*
X123692Y16885D02*
X121212Y16885D01*
X121212Y19060D02*
X123692Y19060D01*
X123692Y21235D02*
X121212Y21235D01*
X121212Y23410D02*
X123692Y23410D01*
X118692Y6010D02*
X116212Y6010D01*
X116212Y24490D01*
X118692Y24490D01*
X118692Y6010D01*
X118692Y8185D02*
X116212Y8185D01*
X116212Y10360D02*
X118692Y10360D01*
X118692Y12535D02*
X116212Y12535D01*
X116212Y14710D02*
X118692Y14710D01*
X118692Y16885D02*
X116212Y16885D01*
X116212Y19060D02*
X118692Y19060D01*
X118692Y21235D02*
X116212Y21235D01*
X116212Y23410D02*
X118692Y23410D01*
X113692Y6010D02*
X111212Y6010D01*
X111212Y24490D01*
X113692Y24490D01*
X113692Y6010D01*
X113692Y8185D02*
X111212Y8185D01*
X111212Y10360D02*
X113692Y10360D01*
X113692Y12535D02*
X111212Y12535D01*
X111212Y14710D02*
X113692Y14710D01*
X113692Y16885D02*
X111212Y16885D01*
X111212Y19060D02*
X113692Y19060D01*
X113692Y21235D02*
X111212Y21235D01*
X111212Y23410D02*
X113692Y23410D01*
X108692Y6010D02*
X106212Y6010D01*
X106212Y24490D01*
X108692Y24490D01*
X108692Y6010D01*
X108692Y8185D02*
X106212Y8185D01*
X106212Y10360D02*
X108692Y10360D01*
X108692Y12535D02*
X106212Y12535D01*
X106212Y14710D02*
X108692Y14710D01*
X108692Y16885D02*
X106212Y16885D01*
X106212Y19060D02*
X108692Y19060D01*
X108692Y21235D02*
X106212Y21235D01*
X106212Y23410D02*
X108692Y23410D01*
X103692Y6010D02*
X101212Y6010D01*
X101212Y24490D01*
X103692Y24490D01*
X103692Y6010D01*
X103692Y8185D02*
X101212Y8185D01*
X101212Y10360D02*
X103692Y10360D01*
X103692Y12535D02*
X101212Y12535D01*
X101212Y14710D02*
X103692Y14710D01*
X103692Y16885D02*
X101212Y16885D01*
X101212Y19060D02*
X103692Y19060D01*
X103692Y21235D02*
X101212Y21235D01*
X101212Y23410D02*
X103692Y23410D01*
X98692Y6010D02*
X96212Y6010D01*
X96212Y24490D01*
X98692Y24490D01*
X98692Y6010D01*
X98692Y8185D02*
X96212Y8185D01*
X96212Y10360D02*
X98692Y10360D01*
X98692Y12535D02*
X96212Y12535D01*
X96212Y14710D02*
X98692Y14710D01*
X98692Y16885D02*
X96212Y16885D01*
X96212Y19060D02*
X98692Y19060D01*
X98692Y21235D02*
X96212Y21235D01*
X96212Y23410D02*
X98692Y23410D01*
D15*
X367452Y461000D03*
X367452Y419000D03*
X354452Y440000D03*
X7452Y419000D03*
X7452Y461000D03*
X20452Y440000D03*
D16*
X26082Y376320D03*
X26082Y350920D03*
X26162Y274320D03*
X23622Y248920D03*
X26162Y223520D03*
D17*
X92964Y197993D02*
X92964Y192659D01*
X81280Y192659D01*
X81280Y197993D01*
X92964Y197993D01*
X92964Y194831D02*
X81280Y194831D01*
X81280Y197003D02*
X92964Y197003D01*
X92964Y200787D02*
X92964Y206121D01*
X92964Y200787D02*
X81280Y200787D01*
X81280Y206121D01*
X92964Y206121D01*
X92964Y202959D02*
X81280Y202959D01*
X81280Y205131D02*
X92964Y205131D01*
D10*
X460246Y246378D02*
X460246Y251970D01*
X471934Y251970D01*
X471934Y246378D01*
X460246Y246378D01*
X460246Y248547D02*
X471934Y248547D01*
X471934Y250716D02*
X460246Y250716D01*
X460246Y241556D02*
X460246Y235964D01*
X460246Y241556D02*
X471934Y241556D01*
X471934Y235964D01*
X460246Y235964D01*
X460246Y238133D02*
X471934Y238133D01*
X471934Y240302D02*
X460246Y240302D01*
X460246Y231142D02*
X460246Y225550D01*
X460246Y231142D02*
X471934Y231142D01*
X471934Y225550D01*
X460246Y225550D01*
X460246Y227719D02*
X471934Y227719D01*
X471934Y229888D02*
X460246Y229888D01*
X542669Y625600D02*
X548261Y625600D01*
X542669Y625600D02*
X542669Y637288D01*
X548261Y637288D01*
X548261Y625600D01*
X548261Y627769D02*
X542669Y627769D01*
X542669Y629938D02*
X548261Y629938D01*
X548261Y632107D02*
X542669Y632107D01*
X542669Y634276D02*
X548261Y634276D01*
X548261Y636445D02*
X542669Y636445D01*
X553083Y625600D02*
X558675Y625600D01*
X553083Y625600D02*
X553083Y637288D01*
X558675Y637288D01*
X558675Y625600D01*
X558675Y627769D02*
X553083Y627769D01*
X553083Y629938D02*
X558675Y629938D01*
X558675Y632107D02*
X553083Y632107D01*
X553083Y634276D02*
X558675Y634276D01*
X558675Y636445D02*
X553083Y636445D01*
X578483Y625600D02*
X584075Y625600D01*
X578483Y625600D02*
X578483Y637288D01*
X584075Y637288D01*
X584075Y625600D01*
X584075Y627769D02*
X578483Y627769D01*
X578483Y629938D02*
X584075Y629938D01*
X584075Y632107D02*
X578483Y632107D01*
X578483Y634276D02*
X584075Y634276D01*
X584075Y636445D02*
X578483Y636445D01*
X588897Y625600D02*
X594489Y625600D01*
X588897Y625600D02*
X588897Y637288D01*
X594489Y637288D01*
X594489Y625600D01*
X594489Y627769D02*
X588897Y627769D01*
X588897Y629938D02*
X594489Y629938D01*
X594489Y632107D02*
X588897Y632107D01*
X588897Y634276D02*
X594489Y634276D01*
X594489Y636445D02*
X588897Y636445D01*
D11*
X685236Y601698D03*
X627436Y601698D03*
D12*
X726440Y228092D03*
D13*
X394956Y66040D03*
X738896Y600680D03*
D14*
X658676Y6010D02*
X656196Y6010D01*
X656196Y24490D01*
X658676Y24490D01*
X658676Y6010D01*
X658676Y8185D02*
X656196Y8185D01*
X656196Y10360D02*
X658676Y10360D01*
X658676Y12535D02*
X656196Y12535D01*
X656196Y14710D02*
X658676Y14710D01*
X658676Y16885D02*
X656196Y16885D01*
X656196Y19060D02*
X658676Y19060D01*
X658676Y21235D02*
X656196Y21235D01*
X656196Y23410D02*
X658676Y23410D01*
X653676Y6010D02*
X651196Y6010D01*
X651196Y24490D01*
X653676Y24490D01*
X653676Y6010D01*
X653676Y8185D02*
X651196Y8185D01*
X651196Y10360D02*
X653676Y10360D01*
X653676Y12535D02*
X651196Y12535D01*
X651196Y14710D02*
X653676Y14710D01*
X653676Y16885D02*
X651196Y16885D01*
X651196Y19060D02*
X653676Y19060D01*
X653676Y21235D02*
X651196Y21235D01*
X651196Y23410D02*
X653676Y23410D01*
X648676Y6010D02*
X646196Y6010D01*
X646196Y24490D01*
X648676Y24490D01*
X648676Y6010D01*
X648676Y8185D02*
X646196Y8185D01*
X646196Y10360D02*
X648676Y10360D01*
X648676Y12535D02*
X646196Y12535D01*
X646196Y14710D02*
X648676Y14710D01*
X648676Y16885D02*
X646196Y16885D01*
X646196Y19060D02*
X648676Y19060D01*
X648676Y21235D02*
X646196Y21235D01*
X646196Y23410D02*
X648676Y23410D01*
X643676Y6010D02*
X641196Y6010D01*
X641196Y24490D01*
X643676Y24490D01*
X643676Y6010D01*
X643676Y8185D02*
X641196Y8185D01*
X641196Y10360D02*
X643676Y10360D01*
X643676Y12535D02*
X641196Y12535D01*
X641196Y14710D02*
X643676Y14710D01*
X643676Y16885D02*
X641196Y16885D01*
X641196Y19060D02*
X643676Y19060D01*
X643676Y21235D02*
X641196Y21235D01*
X641196Y23410D02*
X643676Y23410D01*
X638676Y6010D02*
X636196Y6010D01*
X636196Y24490D01*
X638676Y24490D01*
X638676Y6010D01*
X638676Y8185D02*
X636196Y8185D01*
X636196Y10360D02*
X638676Y10360D01*
X638676Y12535D02*
X636196Y12535D01*
X636196Y14710D02*
X638676Y14710D01*
X638676Y16885D02*
X636196Y16885D01*
X636196Y19060D02*
X638676Y19060D01*
X638676Y21235D02*
X636196Y21235D01*
X636196Y23410D02*
X638676Y23410D01*
X633676Y6010D02*
X631196Y6010D01*
X631196Y24490D01*
X633676Y24490D01*
X633676Y6010D01*
X633676Y8185D02*
X631196Y8185D01*
X631196Y10360D02*
X633676Y10360D01*
X633676Y12535D02*
X631196Y12535D01*
X631196Y14710D02*
X633676Y14710D01*
X633676Y16885D02*
X631196Y16885D01*
X631196Y19060D02*
X633676Y19060D01*
X633676Y21235D02*
X631196Y21235D01*
X631196Y23410D02*
X633676Y23410D01*
X628676Y6010D02*
X626196Y6010D01*
X626196Y24490D01*
X628676Y24490D01*
X628676Y6010D01*
X628676Y8185D02*
X626196Y8185D01*
X626196Y10360D02*
X628676Y10360D01*
X628676Y12535D02*
X626196Y12535D01*
X626196Y14710D02*
X628676Y14710D01*
X628676Y16885D02*
X626196Y16885D01*
X626196Y19060D02*
X628676Y19060D01*
X628676Y21235D02*
X626196Y21235D01*
X626196Y23410D02*
X628676Y23410D01*
X623676Y6010D02*
X621196Y6010D01*
X621196Y24490D01*
X623676Y24490D01*
X623676Y6010D01*
X623676Y8185D02*
X621196Y8185D01*
X621196Y10360D02*
X623676Y10360D01*
X623676Y12535D02*
X621196Y12535D01*
X621196Y14710D02*
X623676Y14710D01*
X623676Y16885D02*
X621196Y16885D01*
X621196Y19060D02*
X623676Y19060D01*
X623676Y21235D02*
X621196Y21235D01*
X621196Y23410D02*
X623676Y23410D01*
X618676Y6010D02*
X616196Y6010D01*
X616196Y24490D01*
X618676Y24490D01*
X618676Y6010D01*
X618676Y8185D02*
X616196Y8185D01*
X616196Y10360D02*
X618676Y10360D01*
X618676Y12535D02*
X616196Y12535D01*
X616196Y14710D02*
X618676Y14710D01*
X618676Y16885D02*
X616196Y16885D01*
X616196Y19060D02*
X618676Y19060D01*
X618676Y21235D02*
X616196Y21235D01*
X616196Y23410D02*
X618676Y23410D01*
X613676Y6010D02*
X611196Y6010D01*
X611196Y24490D01*
X613676Y24490D01*
X613676Y6010D01*
X613676Y8185D02*
X611196Y8185D01*
X611196Y10360D02*
X613676Y10360D01*
X613676Y12535D02*
X611196Y12535D01*
X611196Y14710D02*
X613676Y14710D01*
X613676Y16885D02*
X611196Y16885D01*
X611196Y19060D02*
X613676Y19060D01*
X613676Y21235D02*
X611196Y21235D01*
X611196Y23410D02*
X613676Y23410D01*
X608676Y6010D02*
X606196Y6010D01*
X606196Y24490D01*
X608676Y24490D01*
X608676Y6010D01*
X608676Y8185D02*
X606196Y8185D01*
X606196Y10360D02*
X608676Y10360D01*
X608676Y12535D02*
X606196Y12535D01*
X606196Y14710D02*
X608676Y14710D01*
X608676Y16885D02*
X606196Y16885D01*
X606196Y19060D02*
X608676Y19060D01*
X608676Y21235D02*
X606196Y21235D01*
X606196Y23410D02*
X608676Y23410D01*
X583676Y6010D02*
X581196Y6010D01*
X581196Y24490D01*
X583676Y24490D01*
X583676Y6010D01*
X583676Y8185D02*
X581196Y8185D01*
X581196Y10360D02*
X583676Y10360D01*
X583676Y12535D02*
X581196Y12535D01*
X581196Y14710D02*
X583676Y14710D01*
X583676Y16885D02*
X581196Y16885D01*
X581196Y19060D02*
X583676Y19060D01*
X583676Y21235D02*
X581196Y21235D01*
X581196Y23410D02*
X583676Y23410D01*
X578676Y6010D02*
X576196Y6010D01*
X576196Y24490D01*
X578676Y24490D01*
X578676Y6010D01*
X578676Y8185D02*
X576196Y8185D01*
X576196Y10360D02*
X578676Y10360D01*
X578676Y12535D02*
X576196Y12535D01*
X576196Y14710D02*
X578676Y14710D01*
X578676Y16885D02*
X576196Y16885D01*
X576196Y19060D02*
X578676Y19060D01*
X578676Y21235D02*
X576196Y21235D01*
X576196Y23410D02*
X578676Y23410D01*
X573676Y6010D02*
X571196Y6010D01*
X571196Y24490D01*
X573676Y24490D01*
X573676Y6010D01*
X573676Y8185D02*
X571196Y8185D01*
X571196Y10360D02*
X573676Y10360D01*
X573676Y12535D02*
X571196Y12535D01*
X571196Y14710D02*
X573676Y14710D01*
X573676Y16885D02*
X571196Y16885D01*
X571196Y19060D02*
X573676Y19060D01*
X573676Y21235D02*
X571196Y21235D01*
X571196Y23410D02*
X573676Y23410D01*
X568676Y6010D02*
X566196Y6010D01*
X566196Y24490D01*
X568676Y24490D01*
X568676Y6010D01*
X568676Y8185D02*
X566196Y8185D01*
X566196Y10360D02*
X568676Y10360D01*
X568676Y12535D02*
X566196Y12535D01*
X566196Y14710D02*
X568676Y14710D01*
X568676Y16885D02*
X566196Y16885D01*
X566196Y19060D02*
X568676Y19060D01*
X568676Y21235D02*
X566196Y21235D01*
X566196Y23410D02*
X568676Y23410D01*
X563676Y6010D02*
X561196Y6010D01*
X561196Y24490D01*
X563676Y24490D01*
X563676Y6010D01*
X563676Y8185D02*
X561196Y8185D01*
X561196Y10360D02*
X563676Y10360D01*
X563676Y12535D02*
X561196Y12535D01*
X561196Y14710D02*
X563676Y14710D01*
X563676Y16885D02*
X561196Y16885D01*
X561196Y19060D02*
X563676Y19060D01*
X563676Y21235D02*
X561196Y21235D01*
X561196Y23410D02*
X563676Y23410D01*
X558676Y6010D02*
X556196Y6010D01*
X556196Y24490D01*
X558676Y24490D01*
X558676Y6010D01*
X558676Y8185D02*
X556196Y8185D01*
X556196Y10360D02*
X558676Y10360D01*
X558676Y12535D02*
X556196Y12535D01*
X556196Y14710D02*
X558676Y14710D01*
X558676Y16885D02*
X556196Y16885D01*
X556196Y19060D02*
X558676Y19060D01*
X558676Y21235D02*
X556196Y21235D01*
X556196Y23410D02*
X558676Y23410D01*
X553676Y6010D02*
X551196Y6010D01*
X551196Y24490D01*
X553676Y24490D01*
X553676Y6010D01*
X553676Y8185D02*
X551196Y8185D01*
X551196Y10360D02*
X553676Y10360D01*
X553676Y12535D02*
X551196Y12535D01*
X551196Y14710D02*
X553676Y14710D01*
X553676Y16885D02*
X551196Y16885D01*
X551196Y19060D02*
X553676Y19060D01*
X553676Y21235D02*
X551196Y21235D01*
X551196Y23410D02*
X553676Y23410D01*
X548676Y6010D02*
X546196Y6010D01*
X546196Y24490D01*
X548676Y24490D01*
X548676Y6010D01*
X548676Y8185D02*
X546196Y8185D01*
X546196Y10360D02*
X548676Y10360D01*
X548676Y12535D02*
X546196Y12535D01*
X546196Y14710D02*
X548676Y14710D01*
X548676Y16885D02*
X546196Y16885D01*
X546196Y19060D02*
X548676Y19060D01*
X548676Y21235D02*
X546196Y21235D01*
X546196Y23410D02*
X548676Y23410D01*
X543676Y6010D02*
X541196Y6010D01*
X541196Y24490D01*
X543676Y24490D01*
X543676Y6010D01*
X543676Y8185D02*
X541196Y8185D01*
X541196Y10360D02*
X543676Y10360D01*
X543676Y12535D02*
X541196Y12535D01*
X541196Y14710D02*
X543676Y14710D01*
X543676Y16885D02*
X541196Y16885D01*
X541196Y19060D02*
X543676Y19060D01*
X543676Y21235D02*
X541196Y21235D01*
X541196Y23410D02*
X543676Y23410D01*
X538676Y6010D02*
X536196Y6010D01*
X536196Y24490D01*
X538676Y24490D01*
X538676Y6010D01*
X538676Y8185D02*
X536196Y8185D01*
X536196Y10360D02*
X538676Y10360D01*
X538676Y12535D02*
X536196Y12535D01*
X536196Y14710D02*
X538676Y14710D01*
X538676Y16885D02*
X536196Y16885D01*
X536196Y19060D02*
X538676Y19060D01*
X538676Y21235D02*
X536196Y21235D01*
X536196Y23410D02*
X538676Y23410D01*
X533676Y6010D02*
X531196Y6010D01*
X531196Y24490D01*
X533676Y24490D01*
X533676Y6010D01*
X533676Y8185D02*
X531196Y8185D01*
X531196Y10360D02*
X533676Y10360D01*
X533676Y12535D02*
X531196Y12535D01*
X531196Y14710D02*
X533676Y14710D01*
X533676Y16885D02*
X531196Y16885D01*
X531196Y19060D02*
X533676Y19060D01*
X533676Y21235D02*
X531196Y21235D01*
X531196Y23410D02*
X533676Y23410D01*
X528676Y6010D02*
X526196Y6010D01*
X526196Y24490D01*
X528676Y24490D01*
X528676Y6010D01*
X528676Y8185D02*
X526196Y8185D01*
X526196Y10360D02*
X528676Y10360D01*
X528676Y12535D02*
X526196Y12535D01*
X526196Y14710D02*
X528676Y14710D01*
X528676Y16885D02*
X526196Y16885D01*
X526196Y19060D02*
X528676Y19060D01*
X528676Y21235D02*
X526196Y21235D01*
X526196Y23410D02*
X528676Y23410D01*
X523676Y6010D02*
X521196Y6010D01*
X521196Y24490D01*
X523676Y24490D01*
X523676Y6010D01*
X523676Y8185D02*
X521196Y8185D01*
X521196Y10360D02*
X523676Y10360D01*
X523676Y12535D02*
X521196Y12535D01*
X521196Y14710D02*
X523676Y14710D01*
X523676Y16885D02*
X521196Y16885D01*
X521196Y19060D02*
X523676Y19060D01*
X523676Y21235D02*
X521196Y21235D01*
X521196Y23410D02*
X523676Y23410D01*
X518676Y6010D02*
X516196Y6010D01*
X516196Y24490D01*
X518676Y24490D01*
X518676Y6010D01*
X518676Y8185D02*
X516196Y8185D01*
X516196Y10360D02*
X518676Y10360D01*
X518676Y12535D02*
X516196Y12535D01*
X516196Y14710D02*
X518676Y14710D01*
X518676Y16885D02*
X516196Y16885D01*
X516196Y19060D02*
X518676Y19060D01*
X518676Y21235D02*
X516196Y21235D01*
X516196Y23410D02*
X518676Y23410D01*
X513676Y6010D02*
X511196Y6010D01*
X511196Y24490D01*
X513676Y24490D01*
X513676Y6010D01*
X513676Y8185D02*
X511196Y8185D01*
X511196Y10360D02*
X513676Y10360D01*
X513676Y12535D02*
X511196Y12535D01*
X511196Y14710D02*
X513676Y14710D01*
X513676Y16885D02*
X511196Y16885D01*
X511196Y19060D02*
X513676Y19060D01*
X513676Y21235D02*
X511196Y21235D01*
X511196Y23410D02*
X513676Y23410D01*
X508676Y6010D02*
X506196Y6010D01*
X506196Y24490D01*
X508676Y24490D01*
X508676Y6010D01*
X508676Y8185D02*
X506196Y8185D01*
X506196Y10360D02*
X508676Y10360D01*
X508676Y12535D02*
X506196Y12535D01*
X506196Y14710D02*
X508676Y14710D01*
X508676Y16885D02*
X506196Y16885D01*
X506196Y19060D02*
X508676Y19060D01*
X508676Y21235D02*
X506196Y21235D01*
X506196Y23410D02*
X508676Y23410D01*
X503676Y6010D02*
X501196Y6010D01*
X501196Y24490D01*
X503676Y24490D01*
X503676Y6010D01*
X503676Y8185D02*
X501196Y8185D01*
X501196Y10360D02*
X503676Y10360D01*
X503676Y12535D02*
X501196Y12535D01*
X501196Y14710D02*
X503676Y14710D01*
X503676Y16885D02*
X501196Y16885D01*
X501196Y19060D02*
X503676Y19060D01*
X503676Y21235D02*
X501196Y21235D01*
X501196Y23410D02*
X503676Y23410D01*
X498676Y6010D02*
X496196Y6010D01*
X496196Y24490D01*
X498676Y24490D01*
X498676Y6010D01*
X498676Y8185D02*
X496196Y8185D01*
X496196Y10360D02*
X498676Y10360D01*
X498676Y12535D02*
X496196Y12535D01*
X496196Y14710D02*
X498676Y14710D01*
X498676Y16885D02*
X496196Y16885D01*
X496196Y19060D02*
X498676Y19060D01*
X498676Y21235D02*
X496196Y21235D01*
X496196Y23410D02*
X498676Y23410D01*
X493676Y6010D02*
X491196Y6010D01*
X491196Y24490D01*
X493676Y24490D01*
X493676Y6010D01*
X493676Y8185D02*
X491196Y8185D01*
X491196Y10360D02*
X493676Y10360D01*
X493676Y12535D02*
X491196Y12535D01*
X491196Y14710D02*
X493676Y14710D01*
X493676Y16885D02*
X491196Y16885D01*
X491196Y19060D02*
X493676Y19060D01*
X493676Y21235D02*
X491196Y21235D01*
X491196Y23410D02*
X493676Y23410D01*
X488676Y6010D02*
X486196Y6010D01*
X486196Y24490D01*
X488676Y24490D01*
X488676Y6010D01*
X488676Y8185D02*
X486196Y8185D01*
X486196Y10360D02*
X488676Y10360D01*
X488676Y12535D02*
X486196Y12535D01*
X486196Y14710D02*
X488676Y14710D01*
X488676Y16885D02*
X486196Y16885D01*
X486196Y19060D02*
X488676Y19060D01*
X488676Y21235D02*
X486196Y21235D01*
X486196Y23410D02*
X488676Y23410D01*
X483676Y6010D02*
X481196Y6010D01*
X481196Y24490D01*
X483676Y24490D01*
X483676Y6010D01*
X483676Y8185D02*
X481196Y8185D01*
X481196Y10360D02*
X483676Y10360D01*
X483676Y12535D02*
X481196Y12535D01*
X481196Y14710D02*
X483676Y14710D01*
X483676Y16885D02*
X481196Y16885D01*
X481196Y19060D02*
X483676Y19060D01*
X483676Y21235D02*
X481196Y21235D01*
X481196Y23410D02*
X483676Y23410D01*
X478676Y6010D02*
X476196Y6010D01*
X476196Y24490D01*
X478676Y24490D01*
X478676Y6010D01*
X478676Y8185D02*
X476196Y8185D01*
X476196Y10360D02*
X478676Y10360D01*
X478676Y12535D02*
X476196Y12535D01*
X476196Y14710D02*
X478676Y14710D01*
X478676Y16885D02*
X476196Y16885D01*
X476196Y19060D02*
X478676Y19060D01*
X478676Y21235D02*
X476196Y21235D01*
X476196Y23410D02*
X478676Y23410D01*
D15*
X747436Y461000D03*
X747436Y419000D03*
X734436Y440000D03*
X387436Y419000D03*
X387436Y461000D03*
X400436Y440000D03*
D16*
X406066Y376320D03*
X406066Y350920D03*
X406146Y274320D03*
X403606Y248920D03*
X406146Y223520D03*
D17*
X472948Y197993D02*
X472948Y192659D01*
X461264Y192659D01*
X461264Y197993D01*
X472948Y197993D01*
X472948Y194831D02*
X461264Y194831D01*
X461264Y197003D02*
X472948Y197003D01*
X472948Y200787D02*
X472948Y206121D01*
X472948Y200787D02*
X461264Y200787D01*
X461264Y206121D01*
X472948Y206121D01*
X472948Y202959D02*
X461264Y202959D01*
X461264Y205131D02*
X472948Y205131D01*
D10*
X840230Y246378D02*
X840230Y251970D01*
X851918Y251970D01*
X851918Y246378D01*
X840230Y246378D01*
X840230Y248547D02*
X851918Y248547D01*
X851918Y250716D02*
X840230Y250716D01*
X840230Y241556D02*
X840230Y235964D01*
X840230Y241556D02*
X851918Y241556D01*
X851918Y235964D01*
X840230Y235964D01*
X840230Y238133D02*
X851918Y238133D01*
X851918Y240302D02*
X840230Y240302D01*
X840230Y231142D02*
X840230Y225550D01*
X840230Y231142D02*
X851918Y231142D01*
X851918Y225550D01*
X840230Y225550D01*
X840230Y227719D02*
X851918Y227719D01*
X851918Y229888D02*
X840230Y229888D01*
X922653Y625600D02*
X928245Y625600D01*
X922653Y625600D02*
X922653Y637288D01*
X928245Y637288D01*
X928245Y625600D01*
X928245Y627769D02*
X922653Y627769D01*
X922653Y629938D02*
X928245Y629938D01*
X928245Y632107D02*
X922653Y632107D01*
X922653Y634276D02*
X928245Y634276D01*
X928245Y636445D02*
X922653Y636445D01*
X933067Y625600D02*
X938659Y625600D01*
X933067Y625600D02*
X933067Y637288D01*
X938659Y637288D01*
X938659Y625600D01*
X938659Y627769D02*
X933067Y627769D01*
X933067Y629938D02*
X938659Y629938D01*
X938659Y632107D02*
X933067Y632107D01*
X933067Y634276D02*
X938659Y634276D01*
X938659Y636445D02*
X933067Y636445D01*
X958467Y625600D02*
X964059Y625600D01*
X958467Y625600D02*
X958467Y637288D01*
X964059Y637288D01*
X964059Y625600D01*
X964059Y627769D02*
X958467Y627769D01*
X958467Y629938D02*
X964059Y629938D01*
X964059Y632107D02*
X958467Y632107D01*
X958467Y634276D02*
X964059Y634276D01*
X964059Y636445D02*
X958467Y636445D01*
X968881Y625600D02*
X974473Y625600D01*
X968881Y625600D02*
X968881Y637288D01*
X974473Y637288D01*
X974473Y625600D01*
X974473Y627769D02*
X968881Y627769D01*
X968881Y629938D02*
X974473Y629938D01*
X974473Y632107D02*
X968881Y632107D01*
X968881Y634276D02*
X974473Y634276D01*
X974473Y636445D02*
X968881Y636445D01*
D11*
X1065220Y601698D03*
X1007420Y601698D03*
D12*
X1106424Y228092D03*
D13*
X774940Y66040D03*
X1118880Y600680D03*
D14*
X1038660Y6010D02*
X1036180Y6010D01*
X1036180Y24490D01*
X1038660Y24490D01*
X1038660Y6010D01*
X1038660Y8185D02*
X1036180Y8185D01*
X1036180Y10360D02*
X1038660Y10360D01*
X1038660Y12535D02*
X1036180Y12535D01*
X1036180Y14710D02*
X1038660Y14710D01*
X1038660Y16885D02*
X1036180Y16885D01*
X1036180Y19060D02*
X1038660Y19060D01*
X1038660Y21235D02*
X1036180Y21235D01*
X1036180Y23410D02*
X1038660Y23410D01*
X1033660Y6010D02*
X1031180Y6010D01*
X1031180Y24490D01*
X1033660Y24490D01*
X1033660Y6010D01*
X1033660Y8185D02*
X1031180Y8185D01*
X1031180Y10360D02*
X1033660Y10360D01*
X1033660Y12535D02*
X1031180Y12535D01*
X1031180Y14710D02*
X1033660Y14710D01*
X1033660Y16885D02*
X1031180Y16885D01*
X1031180Y19060D02*
X1033660Y19060D01*
X1033660Y21235D02*
X1031180Y21235D01*
X1031180Y23410D02*
X1033660Y23410D01*
X1028660Y6010D02*
X1026180Y6010D01*
X1026180Y24490D01*
X1028660Y24490D01*
X1028660Y6010D01*
X1028660Y8185D02*
X1026180Y8185D01*
X1026180Y10360D02*
X1028660Y10360D01*
X1028660Y12535D02*
X1026180Y12535D01*
X1026180Y14710D02*
X1028660Y14710D01*
X1028660Y16885D02*
X1026180Y16885D01*
X1026180Y19060D02*
X1028660Y19060D01*
X1028660Y21235D02*
X1026180Y21235D01*
X1026180Y23410D02*
X1028660Y23410D01*
X1023660Y6010D02*
X1021180Y6010D01*
X1021180Y24490D01*
X1023660Y24490D01*
X1023660Y6010D01*
X1023660Y8185D02*
X1021180Y8185D01*
X1021180Y10360D02*
X1023660Y10360D01*
X1023660Y12535D02*
X1021180Y12535D01*
X1021180Y14710D02*
X1023660Y14710D01*
X1023660Y16885D02*
X1021180Y16885D01*
X1021180Y19060D02*
X1023660Y19060D01*
X1023660Y21235D02*
X1021180Y21235D01*
X1021180Y23410D02*
X1023660Y23410D01*
X1018660Y6010D02*
X1016180Y6010D01*
X1016180Y24490D01*
X1018660Y24490D01*
X1018660Y6010D01*
X1018660Y8185D02*
X1016180Y8185D01*
X1016180Y10360D02*
X1018660Y10360D01*
X1018660Y12535D02*
X1016180Y12535D01*
X1016180Y14710D02*
X1018660Y14710D01*
X1018660Y16885D02*
X1016180Y16885D01*
X1016180Y19060D02*
X1018660Y19060D01*
X1018660Y21235D02*
X1016180Y21235D01*
X1016180Y23410D02*
X1018660Y23410D01*
X1013660Y6010D02*
X1011180Y6010D01*
X1011180Y24490D01*
X1013660Y24490D01*
X1013660Y6010D01*
X1013660Y8185D02*
X1011180Y8185D01*
X1011180Y10360D02*
X1013660Y10360D01*
X1013660Y12535D02*
X1011180Y12535D01*
X1011180Y14710D02*
X1013660Y14710D01*
X1013660Y16885D02*
X1011180Y16885D01*
X1011180Y19060D02*
X1013660Y19060D01*
X1013660Y21235D02*
X1011180Y21235D01*
X1011180Y23410D02*
X1013660Y23410D01*
X1008660Y6010D02*
X1006180Y6010D01*
X1006180Y24490D01*
X1008660Y24490D01*
X1008660Y6010D01*
X1008660Y8185D02*
X1006180Y8185D01*
X1006180Y10360D02*
X1008660Y10360D01*
X1008660Y12535D02*
X1006180Y12535D01*
X1006180Y14710D02*
X1008660Y14710D01*
X1008660Y16885D02*
X1006180Y16885D01*
X1006180Y19060D02*
X1008660Y19060D01*
X1008660Y21235D02*
X1006180Y21235D01*
X1006180Y23410D02*
X1008660Y23410D01*
X1003660Y6010D02*
X1001180Y6010D01*
X1001180Y24490D01*
X1003660Y24490D01*
X1003660Y6010D01*
X1003660Y8185D02*
X1001180Y8185D01*
X1001180Y10360D02*
X1003660Y10360D01*
X1003660Y12535D02*
X1001180Y12535D01*
X1001180Y14710D02*
X1003660Y14710D01*
X1003660Y16885D02*
X1001180Y16885D01*
X1001180Y19060D02*
X1003660Y19060D01*
X1003660Y21235D02*
X1001180Y21235D01*
X1001180Y23410D02*
X1003660Y23410D01*
X998660Y6010D02*
X996180Y6010D01*
X996180Y24490D01*
X998660Y24490D01*
X998660Y6010D01*
X998660Y8185D02*
X996180Y8185D01*
X996180Y10360D02*
X998660Y10360D01*
X998660Y12535D02*
X996180Y12535D01*
X996180Y14710D02*
X998660Y14710D01*
X998660Y16885D02*
X996180Y16885D01*
X996180Y19060D02*
X998660Y19060D01*
X998660Y21235D02*
X996180Y21235D01*
X996180Y23410D02*
X998660Y23410D01*
X993660Y6010D02*
X991180Y6010D01*
X991180Y24490D01*
X993660Y24490D01*
X993660Y6010D01*
X993660Y8185D02*
X991180Y8185D01*
X991180Y10360D02*
X993660Y10360D01*
X993660Y12535D02*
X991180Y12535D01*
X991180Y14710D02*
X993660Y14710D01*
X993660Y16885D02*
X991180Y16885D01*
X991180Y19060D02*
X993660Y19060D01*
X993660Y21235D02*
X991180Y21235D01*
X991180Y23410D02*
X993660Y23410D01*
X988660Y6010D02*
X986180Y6010D01*
X986180Y24490D01*
X988660Y24490D01*
X988660Y6010D01*
X988660Y8185D02*
X986180Y8185D01*
X986180Y10360D02*
X988660Y10360D01*
X988660Y12535D02*
X986180Y12535D01*
X986180Y14710D02*
X988660Y14710D01*
X988660Y16885D02*
X986180Y16885D01*
X986180Y19060D02*
X988660Y19060D01*
X988660Y21235D02*
X986180Y21235D01*
X986180Y23410D02*
X988660Y23410D01*
X963660Y6010D02*
X961180Y6010D01*
X961180Y24490D01*
X963660Y24490D01*
X963660Y6010D01*
X963660Y8185D02*
X961180Y8185D01*
X961180Y10360D02*
X963660Y10360D01*
X963660Y12535D02*
X961180Y12535D01*
X961180Y14710D02*
X963660Y14710D01*
X963660Y16885D02*
X961180Y16885D01*
X961180Y19060D02*
X963660Y19060D01*
X963660Y21235D02*
X961180Y21235D01*
X961180Y23410D02*
X963660Y23410D01*
X958660Y6010D02*
X956180Y6010D01*
X956180Y24490D01*
X958660Y24490D01*
X958660Y6010D01*
X958660Y8185D02*
X956180Y8185D01*
X956180Y10360D02*
X958660Y10360D01*
X958660Y12535D02*
X956180Y12535D01*
X956180Y14710D02*
X958660Y14710D01*
X958660Y16885D02*
X956180Y16885D01*
X956180Y19060D02*
X958660Y19060D01*
X958660Y21235D02*
X956180Y21235D01*
X956180Y23410D02*
X958660Y23410D01*
X953660Y6010D02*
X951180Y6010D01*
X951180Y24490D01*
X953660Y24490D01*
X953660Y6010D01*
X953660Y8185D02*
X951180Y8185D01*
X951180Y10360D02*
X953660Y10360D01*
X953660Y12535D02*
X951180Y12535D01*
X951180Y14710D02*
X953660Y14710D01*
X953660Y16885D02*
X951180Y16885D01*
X951180Y19060D02*
X953660Y19060D01*
X953660Y21235D02*
X951180Y21235D01*
X951180Y23410D02*
X953660Y23410D01*
X948660Y6010D02*
X946180Y6010D01*
X946180Y24490D01*
X948660Y24490D01*
X948660Y6010D01*
X948660Y8185D02*
X946180Y8185D01*
X946180Y10360D02*
X948660Y10360D01*
X948660Y12535D02*
X946180Y12535D01*
X946180Y14710D02*
X948660Y14710D01*
X948660Y16885D02*
X946180Y16885D01*
X946180Y19060D02*
X948660Y19060D01*
X948660Y21235D02*
X946180Y21235D01*
X946180Y23410D02*
X948660Y23410D01*
X943660Y6010D02*
X941180Y6010D01*
X941180Y24490D01*
X943660Y24490D01*
X943660Y6010D01*
X943660Y8185D02*
X941180Y8185D01*
X941180Y10360D02*
X943660Y10360D01*
X943660Y12535D02*
X941180Y12535D01*
X941180Y14710D02*
X943660Y14710D01*
X943660Y16885D02*
X941180Y16885D01*
X941180Y19060D02*
X943660Y19060D01*
X943660Y21235D02*
X941180Y21235D01*
X941180Y23410D02*
X943660Y23410D01*
X938660Y6010D02*
X936180Y6010D01*
X936180Y24490D01*
X938660Y24490D01*
X938660Y6010D01*
X938660Y8185D02*
X936180Y8185D01*
X936180Y10360D02*
X938660Y10360D01*
X938660Y12535D02*
X936180Y12535D01*
X936180Y14710D02*
X938660Y14710D01*
X938660Y16885D02*
X936180Y16885D01*
X936180Y19060D02*
X938660Y19060D01*
X938660Y21235D02*
X936180Y21235D01*
X936180Y23410D02*
X938660Y23410D01*
X933660Y6010D02*
X931180Y6010D01*
X931180Y24490D01*
X933660Y24490D01*
X933660Y6010D01*
X933660Y8185D02*
X931180Y8185D01*
X931180Y10360D02*
X933660Y10360D01*
X933660Y12535D02*
X931180Y12535D01*
X931180Y14710D02*
X933660Y14710D01*
X933660Y16885D02*
X931180Y16885D01*
X931180Y19060D02*
X933660Y19060D01*
X933660Y21235D02*
X931180Y21235D01*
X931180Y23410D02*
X933660Y23410D01*
X928660Y6010D02*
X926180Y6010D01*
X926180Y24490D01*
X928660Y24490D01*
X928660Y6010D01*
X928660Y8185D02*
X926180Y8185D01*
X926180Y10360D02*
X928660Y10360D01*
X928660Y12535D02*
X926180Y12535D01*
X926180Y14710D02*
X928660Y14710D01*
X928660Y16885D02*
X926180Y16885D01*
X926180Y19060D02*
X928660Y19060D01*
X928660Y21235D02*
X926180Y21235D01*
X926180Y23410D02*
X928660Y23410D01*
X923660Y6010D02*
X921180Y6010D01*
X921180Y24490D01*
X923660Y24490D01*
X923660Y6010D01*
X923660Y8185D02*
X921180Y8185D01*
X921180Y10360D02*
X923660Y10360D01*
X923660Y12535D02*
X921180Y12535D01*
X921180Y14710D02*
X923660Y14710D01*
X923660Y16885D02*
X921180Y16885D01*
X921180Y19060D02*
X923660Y19060D01*
X923660Y21235D02*
X921180Y21235D01*
X921180Y23410D02*
X923660Y23410D01*
X918660Y6010D02*
X916180Y6010D01*
X916180Y24490D01*
X918660Y24490D01*
X918660Y6010D01*
X918660Y8185D02*
X916180Y8185D01*
X916180Y10360D02*
X918660Y10360D01*
X918660Y12535D02*
X916180Y12535D01*
X916180Y14710D02*
X918660Y14710D01*
X918660Y16885D02*
X916180Y16885D01*
X916180Y19060D02*
X918660Y19060D01*
X918660Y21235D02*
X916180Y21235D01*
X916180Y23410D02*
X918660Y23410D01*
X913660Y6010D02*
X911180Y6010D01*
X911180Y24490D01*
X913660Y24490D01*
X913660Y6010D01*
X913660Y8185D02*
X911180Y8185D01*
X911180Y10360D02*
X913660Y10360D01*
X913660Y12535D02*
X911180Y12535D01*
X911180Y14710D02*
X913660Y14710D01*
X913660Y16885D02*
X911180Y16885D01*
X911180Y19060D02*
X913660Y19060D01*
X913660Y21235D02*
X911180Y21235D01*
X911180Y23410D02*
X913660Y23410D01*
X908660Y6010D02*
X906180Y6010D01*
X906180Y24490D01*
X908660Y24490D01*
X908660Y6010D01*
X908660Y8185D02*
X906180Y8185D01*
X906180Y10360D02*
X908660Y10360D01*
X908660Y12535D02*
X906180Y12535D01*
X906180Y14710D02*
X908660Y14710D01*
X908660Y16885D02*
X906180Y16885D01*
X906180Y19060D02*
X908660Y19060D01*
X908660Y21235D02*
X906180Y21235D01*
X906180Y23410D02*
X908660Y23410D01*
X903660Y6010D02*
X901180Y6010D01*
X901180Y24490D01*
X903660Y24490D01*
X903660Y6010D01*
X903660Y8185D02*
X901180Y8185D01*
X901180Y10360D02*
X903660Y10360D01*
X903660Y12535D02*
X901180Y12535D01*
X901180Y14710D02*
X903660Y14710D01*
X903660Y16885D02*
X901180Y16885D01*
X901180Y19060D02*
X903660Y19060D01*
X903660Y21235D02*
X901180Y21235D01*
X901180Y23410D02*
X903660Y23410D01*
X898660Y6010D02*
X896180Y6010D01*
X896180Y24490D01*
X898660Y24490D01*
X898660Y6010D01*
X898660Y8185D02*
X896180Y8185D01*
X896180Y10360D02*
X898660Y10360D01*
X898660Y12535D02*
X896180Y12535D01*
X896180Y14710D02*
X898660Y14710D01*
X898660Y16885D02*
X896180Y16885D01*
X896180Y19060D02*
X898660Y19060D01*
X898660Y21235D02*
X896180Y21235D01*
X896180Y23410D02*
X898660Y23410D01*
X893660Y6010D02*
X891180Y6010D01*
X891180Y24490D01*
X893660Y24490D01*
X893660Y6010D01*
X893660Y8185D02*
X891180Y8185D01*
X891180Y10360D02*
X893660Y10360D01*
X893660Y12535D02*
X891180Y12535D01*
X891180Y14710D02*
X893660Y14710D01*
X893660Y16885D02*
X891180Y16885D01*
X891180Y19060D02*
X893660Y19060D01*
X893660Y21235D02*
X891180Y21235D01*
X891180Y23410D02*
X893660Y23410D01*
X888660Y6010D02*
X886180Y6010D01*
X886180Y24490D01*
X888660Y24490D01*
X888660Y6010D01*
X888660Y8185D02*
X886180Y8185D01*
X886180Y10360D02*
X888660Y10360D01*
X888660Y12535D02*
X886180Y12535D01*
X886180Y14710D02*
X888660Y14710D01*
X888660Y16885D02*
X886180Y16885D01*
X886180Y19060D02*
X888660Y19060D01*
X888660Y21235D02*
X886180Y21235D01*
X886180Y23410D02*
X888660Y23410D01*
X883660Y6010D02*
X881180Y6010D01*
X881180Y24490D01*
X883660Y24490D01*
X883660Y6010D01*
X883660Y8185D02*
X881180Y8185D01*
X881180Y10360D02*
X883660Y10360D01*
X883660Y12535D02*
X881180Y12535D01*
X881180Y14710D02*
X883660Y14710D01*
X883660Y16885D02*
X881180Y16885D01*
X881180Y19060D02*
X883660Y19060D01*
X883660Y21235D02*
X881180Y21235D01*
X881180Y23410D02*
X883660Y23410D01*
X878660Y6010D02*
X876180Y6010D01*
X876180Y24490D01*
X878660Y24490D01*
X878660Y6010D01*
X878660Y8185D02*
X876180Y8185D01*
X876180Y10360D02*
X878660Y10360D01*
X878660Y12535D02*
X876180Y12535D01*
X876180Y14710D02*
X878660Y14710D01*
X878660Y16885D02*
X876180Y16885D01*
X876180Y19060D02*
X878660Y19060D01*
X878660Y21235D02*
X876180Y21235D01*
X876180Y23410D02*
X878660Y23410D01*
X873660Y6010D02*
X871180Y6010D01*
X871180Y24490D01*
X873660Y24490D01*
X873660Y6010D01*
X873660Y8185D02*
X871180Y8185D01*
X871180Y10360D02*
X873660Y10360D01*
X873660Y12535D02*
X871180Y12535D01*
X871180Y14710D02*
X873660Y14710D01*
X873660Y16885D02*
X871180Y16885D01*
X871180Y19060D02*
X873660Y19060D01*
X873660Y21235D02*
X871180Y21235D01*
X871180Y23410D02*
X873660Y23410D01*
X868660Y6010D02*
X866180Y6010D01*
X866180Y24490D01*
X868660Y24490D01*
X868660Y6010D01*
X868660Y8185D02*
X866180Y8185D01*
X866180Y10360D02*
X868660Y10360D01*
X868660Y12535D02*
X866180Y12535D01*
X866180Y14710D02*
X868660Y14710D01*
X868660Y16885D02*
X866180Y16885D01*
X866180Y19060D02*
X868660Y19060D01*
X868660Y21235D02*
X866180Y21235D01*
X866180Y23410D02*
X868660Y23410D01*
X863660Y6010D02*
X861180Y6010D01*
X861180Y24490D01*
X863660Y24490D01*
X863660Y6010D01*
X863660Y8185D02*
X861180Y8185D01*
X861180Y10360D02*
X863660Y10360D01*
X863660Y12535D02*
X861180Y12535D01*
X861180Y14710D02*
X863660Y14710D01*
X863660Y16885D02*
X861180Y16885D01*
X861180Y19060D02*
X863660Y19060D01*
X863660Y21235D02*
X861180Y21235D01*
X861180Y23410D02*
X863660Y23410D01*
X858660Y6010D02*
X856180Y6010D01*
X856180Y24490D01*
X858660Y24490D01*
X858660Y6010D01*
X858660Y8185D02*
X856180Y8185D01*
X856180Y10360D02*
X858660Y10360D01*
X858660Y12535D02*
X856180Y12535D01*
X856180Y14710D02*
X858660Y14710D01*
X858660Y16885D02*
X856180Y16885D01*
X856180Y19060D02*
X858660Y19060D01*
X858660Y21235D02*
X856180Y21235D01*
X856180Y23410D02*
X858660Y23410D01*
D15*
X1127420Y461000D03*
X1127420Y419000D03*
X1114420Y440000D03*
X767420Y419000D03*
X767420Y461000D03*
X780420Y440000D03*
D16*
X786050Y376320D03*
X786050Y350920D03*
X786130Y274320D03*
X783590Y248920D03*
X786130Y223520D03*
D17*
X852932Y197993D02*
X852932Y192659D01*
X841248Y192659D01*
X841248Y197993D01*
X852932Y197993D01*
X852932Y194831D02*
X841248Y194831D01*
X841248Y197003D02*
X852932Y197003D01*
X852932Y200787D02*
X852932Y206121D01*
X852932Y200787D02*
X841248Y200787D01*
X841248Y206121D01*
X852932Y206121D01*
X852932Y202959D02*
X841248Y202959D01*
X841248Y205131D02*
X852932Y205131D01*
D10*
X294642Y1110486D02*
X294642Y1116078D01*
X294642Y1110486D02*
X282954Y1110486D01*
X282954Y1116078D01*
X294642Y1116078D01*
X294642Y1112655D02*
X282954Y1112655D01*
X282954Y1114824D02*
X294642Y1114824D01*
X294642Y1120900D02*
X294642Y1126492D01*
X294642Y1120900D02*
X282954Y1120900D01*
X282954Y1126492D01*
X294642Y1126492D01*
X294642Y1123069D02*
X282954Y1123069D01*
X282954Y1125238D02*
X294642Y1125238D01*
X294642Y1131314D02*
X294642Y1136906D01*
X294642Y1131314D02*
X282954Y1131314D01*
X282954Y1136906D01*
X294642Y1136906D01*
X294642Y1133483D02*
X282954Y1133483D01*
X282954Y1135652D02*
X294642Y1135652D01*
X212219Y736856D02*
X206627Y736856D01*
X212219Y736856D02*
X212219Y725168D01*
X206627Y725168D01*
X206627Y736856D01*
X206627Y727337D02*
X212219Y727337D01*
X212219Y729506D02*
X206627Y729506D01*
X206627Y731675D02*
X212219Y731675D01*
X212219Y733844D02*
X206627Y733844D01*
X206627Y736013D02*
X212219Y736013D01*
X201805Y736856D02*
X196213Y736856D01*
X201805Y736856D02*
X201805Y725168D01*
X196213Y725168D01*
X196213Y736856D01*
X196213Y727337D02*
X201805Y727337D01*
X201805Y729506D02*
X196213Y729506D01*
X196213Y731675D02*
X201805Y731675D01*
X201805Y733844D02*
X196213Y733844D01*
X196213Y736013D02*
X201805Y736013D01*
X176405Y736856D02*
X170813Y736856D01*
X176405Y736856D02*
X176405Y725168D01*
X170813Y725168D01*
X170813Y736856D01*
X170813Y727337D02*
X176405Y727337D01*
X176405Y729506D02*
X170813Y729506D01*
X170813Y731675D02*
X176405Y731675D01*
X176405Y733844D02*
X170813Y733844D01*
X170813Y736013D02*
X176405Y736013D01*
X165991Y736856D02*
X160399Y736856D01*
X165991Y736856D02*
X165991Y725168D01*
X160399Y725168D01*
X160399Y736856D01*
X160399Y727337D02*
X165991Y727337D01*
X165991Y729506D02*
X160399Y729506D01*
X160399Y731675D02*
X165991Y731675D01*
X165991Y733844D02*
X160399Y733844D01*
X160399Y736013D02*
X165991Y736013D01*
D11*
X69652Y760758D03*
X127452Y760758D03*
D12*
X28448Y1134364D03*
D13*
X359932Y1296416D03*
X15992Y761776D03*
D14*
X96212Y1356446D02*
X98692Y1356446D01*
X98692Y1337966D01*
X96212Y1337966D01*
X96212Y1356446D01*
X96212Y1340141D02*
X98692Y1340141D01*
X98692Y1342316D02*
X96212Y1342316D01*
X96212Y1344491D02*
X98692Y1344491D01*
X98692Y1346666D02*
X96212Y1346666D01*
X96212Y1348841D02*
X98692Y1348841D01*
X98692Y1351016D02*
X96212Y1351016D01*
X96212Y1353191D02*
X98692Y1353191D01*
X98692Y1355366D02*
X96212Y1355366D01*
X101212Y1356446D02*
X103692Y1356446D01*
X103692Y1337966D01*
X101212Y1337966D01*
X101212Y1356446D01*
X101212Y1340141D02*
X103692Y1340141D01*
X103692Y1342316D02*
X101212Y1342316D01*
X101212Y1344491D02*
X103692Y1344491D01*
X103692Y1346666D02*
X101212Y1346666D01*
X101212Y1348841D02*
X103692Y1348841D01*
X103692Y1351016D02*
X101212Y1351016D01*
X101212Y1353191D02*
X103692Y1353191D01*
X103692Y1355366D02*
X101212Y1355366D01*
X106212Y1356446D02*
X108692Y1356446D01*
X108692Y1337966D01*
X106212Y1337966D01*
X106212Y1356446D01*
X106212Y1340141D02*
X108692Y1340141D01*
X108692Y1342316D02*
X106212Y1342316D01*
X106212Y1344491D02*
X108692Y1344491D01*
X108692Y1346666D02*
X106212Y1346666D01*
X106212Y1348841D02*
X108692Y1348841D01*
X108692Y1351016D02*
X106212Y1351016D01*
X106212Y1353191D02*
X108692Y1353191D01*
X108692Y1355366D02*
X106212Y1355366D01*
X111212Y1356446D02*
X113692Y1356446D01*
X113692Y1337966D01*
X111212Y1337966D01*
X111212Y1356446D01*
X111212Y1340141D02*
X113692Y1340141D01*
X113692Y1342316D02*
X111212Y1342316D01*
X111212Y1344491D02*
X113692Y1344491D01*
X113692Y1346666D02*
X111212Y1346666D01*
X111212Y1348841D02*
X113692Y1348841D01*
X113692Y1351016D02*
X111212Y1351016D01*
X111212Y1353191D02*
X113692Y1353191D01*
X113692Y1355366D02*
X111212Y1355366D01*
X116212Y1356446D02*
X118692Y1356446D01*
X118692Y1337966D01*
X116212Y1337966D01*
X116212Y1356446D01*
X116212Y1340141D02*
X118692Y1340141D01*
X118692Y1342316D02*
X116212Y1342316D01*
X116212Y1344491D02*
X118692Y1344491D01*
X118692Y1346666D02*
X116212Y1346666D01*
X116212Y1348841D02*
X118692Y1348841D01*
X118692Y1351016D02*
X116212Y1351016D01*
X116212Y1353191D02*
X118692Y1353191D01*
X118692Y1355366D02*
X116212Y1355366D01*
X121212Y1356446D02*
X123692Y1356446D01*
X123692Y1337966D01*
X121212Y1337966D01*
X121212Y1356446D01*
X121212Y1340141D02*
X123692Y1340141D01*
X123692Y1342316D02*
X121212Y1342316D01*
X121212Y1344491D02*
X123692Y1344491D01*
X123692Y1346666D02*
X121212Y1346666D01*
X121212Y1348841D02*
X123692Y1348841D01*
X123692Y1351016D02*
X121212Y1351016D01*
X121212Y1353191D02*
X123692Y1353191D01*
X123692Y1355366D02*
X121212Y1355366D01*
X126212Y1356446D02*
X128692Y1356446D01*
X128692Y1337966D01*
X126212Y1337966D01*
X126212Y1356446D01*
X126212Y1340141D02*
X128692Y1340141D01*
X128692Y1342316D02*
X126212Y1342316D01*
X126212Y1344491D02*
X128692Y1344491D01*
X128692Y1346666D02*
X126212Y1346666D01*
X126212Y1348841D02*
X128692Y1348841D01*
X128692Y1351016D02*
X126212Y1351016D01*
X126212Y1353191D02*
X128692Y1353191D01*
X128692Y1355366D02*
X126212Y1355366D01*
X131212Y1356446D02*
X133692Y1356446D01*
X133692Y1337966D01*
X131212Y1337966D01*
X131212Y1356446D01*
X131212Y1340141D02*
X133692Y1340141D01*
X133692Y1342316D02*
X131212Y1342316D01*
X131212Y1344491D02*
X133692Y1344491D01*
X133692Y1346666D02*
X131212Y1346666D01*
X131212Y1348841D02*
X133692Y1348841D01*
X133692Y1351016D02*
X131212Y1351016D01*
X131212Y1353191D02*
X133692Y1353191D01*
X133692Y1355366D02*
X131212Y1355366D01*
X136212Y1356446D02*
X138692Y1356446D01*
X138692Y1337966D01*
X136212Y1337966D01*
X136212Y1356446D01*
X136212Y1340141D02*
X138692Y1340141D01*
X138692Y1342316D02*
X136212Y1342316D01*
X136212Y1344491D02*
X138692Y1344491D01*
X138692Y1346666D02*
X136212Y1346666D01*
X136212Y1348841D02*
X138692Y1348841D01*
X138692Y1351016D02*
X136212Y1351016D01*
X136212Y1353191D02*
X138692Y1353191D01*
X138692Y1355366D02*
X136212Y1355366D01*
X141212Y1356446D02*
X143692Y1356446D01*
X143692Y1337966D01*
X141212Y1337966D01*
X141212Y1356446D01*
X141212Y1340141D02*
X143692Y1340141D01*
X143692Y1342316D02*
X141212Y1342316D01*
X141212Y1344491D02*
X143692Y1344491D01*
X143692Y1346666D02*
X141212Y1346666D01*
X141212Y1348841D02*
X143692Y1348841D01*
X143692Y1351016D02*
X141212Y1351016D01*
X141212Y1353191D02*
X143692Y1353191D01*
X143692Y1355366D02*
X141212Y1355366D01*
X146212Y1356446D02*
X148692Y1356446D01*
X148692Y1337966D01*
X146212Y1337966D01*
X146212Y1356446D01*
X146212Y1340141D02*
X148692Y1340141D01*
X148692Y1342316D02*
X146212Y1342316D01*
X146212Y1344491D02*
X148692Y1344491D01*
X148692Y1346666D02*
X146212Y1346666D01*
X146212Y1348841D02*
X148692Y1348841D01*
X148692Y1351016D02*
X146212Y1351016D01*
X146212Y1353191D02*
X148692Y1353191D01*
X148692Y1355366D02*
X146212Y1355366D01*
X171212Y1356446D02*
X173692Y1356446D01*
X173692Y1337966D01*
X171212Y1337966D01*
X171212Y1356446D01*
X171212Y1340141D02*
X173692Y1340141D01*
X173692Y1342316D02*
X171212Y1342316D01*
X171212Y1344491D02*
X173692Y1344491D01*
X173692Y1346666D02*
X171212Y1346666D01*
X171212Y1348841D02*
X173692Y1348841D01*
X173692Y1351016D02*
X171212Y1351016D01*
X171212Y1353191D02*
X173692Y1353191D01*
X173692Y1355366D02*
X171212Y1355366D01*
X176212Y1356446D02*
X178692Y1356446D01*
X178692Y1337966D01*
X176212Y1337966D01*
X176212Y1356446D01*
X176212Y1340141D02*
X178692Y1340141D01*
X178692Y1342316D02*
X176212Y1342316D01*
X176212Y1344491D02*
X178692Y1344491D01*
X178692Y1346666D02*
X176212Y1346666D01*
X176212Y1348841D02*
X178692Y1348841D01*
X178692Y1351016D02*
X176212Y1351016D01*
X176212Y1353191D02*
X178692Y1353191D01*
X178692Y1355366D02*
X176212Y1355366D01*
X181212Y1356446D02*
X183692Y1356446D01*
X183692Y1337966D01*
X181212Y1337966D01*
X181212Y1356446D01*
X181212Y1340141D02*
X183692Y1340141D01*
X183692Y1342316D02*
X181212Y1342316D01*
X181212Y1344491D02*
X183692Y1344491D01*
X183692Y1346666D02*
X181212Y1346666D01*
X181212Y1348841D02*
X183692Y1348841D01*
X183692Y1351016D02*
X181212Y1351016D01*
X181212Y1353191D02*
X183692Y1353191D01*
X183692Y1355366D02*
X181212Y1355366D01*
X186212Y1356446D02*
X188692Y1356446D01*
X188692Y1337966D01*
X186212Y1337966D01*
X186212Y1356446D01*
X186212Y1340141D02*
X188692Y1340141D01*
X188692Y1342316D02*
X186212Y1342316D01*
X186212Y1344491D02*
X188692Y1344491D01*
X188692Y1346666D02*
X186212Y1346666D01*
X186212Y1348841D02*
X188692Y1348841D01*
X188692Y1351016D02*
X186212Y1351016D01*
X186212Y1353191D02*
X188692Y1353191D01*
X188692Y1355366D02*
X186212Y1355366D01*
X191212Y1356446D02*
X193692Y1356446D01*
X193692Y1337966D01*
X191212Y1337966D01*
X191212Y1356446D01*
X191212Y1340141D02*
X193692Y1340141D01*
X193692Y1342316D02*
X191212Y1342316D01*
X191212Y1344491D02*
X193692Y1344491D01*
X193692Y1346666D02*
X191212Y1346666D01*
X191212Y1348841D02*
X193692Y1348841D01*
X193692Y1351016D02*
X191212Y1351016D01*
X191212Y1353191D02*
X193692Y1353191D01*
X193692Y1355366D02*
X191212Y1355366D01*
X196212Y1356446D02*
X198692Y1356446D01*
X198692Y1337966D01*
X196212Y1337966D01*
X196212Y1356446D01*
X196212Y1340141D02*
X198692Y1340141D01*
X198692Y1342316D02*
X196212Y1342316D01*
X196212Y1344491D02*
X198692Y1344491D01*
X198692Y1346666D02*
X196212Y1346666D01*
X196212Y1348841D02*
X198692Y1348841D01*
X198692Y1351016D02*
X196212Y1351016D01*
X196212Y1353191D02*
X198692Y1353191D01*
X198692Y1355366D02*
X196212Y1355366D01*
X201212Y1356446D02*
X203692Y1356446D01*
X203692Y1337966D01*
X201212Y1337966D01*
X201212Y1356446D01*
X201212Y1340141D02*
X203692Y1340141D01*
X203692Y1342316D02*
X201212Y1342316D01*
X201212Y1344491D02*
X203692Y1344491D01*
X203692Y1346666D02*
X201212Y1346666D01*
X201212Y1348841D02*
X203692Y1348841D01*
X203692Y1351016D02*
X201212Y1351016D01*
X201212Y1353191D02*
X203692Y1353191D01*
X203692Y1355366D02*
X201212Y1355366D01*
X206212Y1356446D02*
X208692Y1356446D01*
X208692Y1337966D01*
X206212Y1337966D01*
X206212Y1356446D01*
X206212Y1340141D02*
X208692Y1340141D01*
X208692Y1342316D02*
X206212Y1342316D01*
X206212Y1344491D02*
X208692Y1344491D01*
X208692Y1346666D02*
X206212Y1346666D01*
X206212Y1348841D02*
X208692Y1348841D01*
X208692Y1351016D02*
X206212Y1351016D01*
X206212Y1353191D02*
X208692Y1353191D01*
X208692Y1355366D02*
X206212Y1355366D01*
X211212Y1356446D02*
X213692Y1356446D01*
X213692Y1337966D01*
X211212Y1337966D01*
X211212Y1356446D01*
X211212Y1340141D02*
X213692Y1340141D01*
X213692Y1342316D02*
X211212Y1342316D01*
X211212Y1344491D02*
X213692Y1344491D01*
X213692Y1346666D02*
X211212Y1346666D01*
X211212Y1348841D02*
X213692Y1348841D01*
X213692Y1351016D02*
X211212Y1351016D01*
X211212Y1353191D02*
X213692Y1353191D01*
X213692Y1355366D02*
X211212Y1355366D01*
X216212Y1356446D02*
X218692Y1356446D01*
X218692Y1337966D01*
X216212Y1337966D01*
X216212Y1356446D01*
X216212Y1340141D02*
X218692Y1340141D01*
X218692Y1342316D02*
X216212Y1342316D01*
X216212Y1344491D02*
X218692Y1344491D01*
X218692Y1346666D02*
X216212Y1346666D01*
X216212Y1348841D02*
X218692Y1348841D01*
X218692Y1351016D02*
X216212Y1351016D01*
X216212Y1353191D02*
X218692Y1353191D01*
X218692Y1355366D02*
X216212Y1355366D01*
X221212Y1356446D02*
X223692Y1356446D01*
X223692Y1337966D01*
X221212Y1337966D01*
X221212Y1356446D01*
X221212Y1340141D02*
X223692Y1340141D01*
X223692Y1342316D02*
X221212Y1342316D01*
X221212Y1344491D02*
X223692Y1344491D01*
X223692Y1346666D02*
X221212Y1346666D01*
X221212Y1348841D02*
X223692Y1348841D01*
X223692Y1351016D02*
X221212Y1351016D01*
X221212Y1353191D02*
X223692Y1353191D01*
X223692Y1355366D02*
X221212Y1355366D01*
X226212Y1356446D02*
X228692Y1356446D01*
X228692Y1337966D01*
X226212Y1337966D01*
X226212Y1356446D01*
X226212Y1340141D02*
X228692Y1340141D01*
X228692Y1342316D02*
X226212Y1342316D01*
X226212Y1344491D02*
X228692Y1344491D01*
X228692Y1346666D02*
X226212Y1346666D01*
X226212Y1348841D02*
X228692Y1348841D01*
X228692Y1351016D02*
X226212Y1351016D01*
X226212Y1353191D02*
X228692Y1353191D01*
X228692Y1355366D02*
X226212Y1355366D01*
X231212Y1356446D02*
X233692Y1356446D01*
X233692Y1337966D01*
X231212Y1337966D01*
X231212Y1356446D01*
X231212Y1340141D02*
X233692Y1340141D01*
X233692Y1342316D02*
X231212Y1342316D01*
X231212Y1344491D02*
X233692Y1344491D01*
X233692Y1346666D02*
X231212Y1346666D01*
X231212Y1348841D02*
X233692Y1348841D01*
X233692Y1351016D02*
X231212Y1351016D01*
X231212Y1353191D02*
X233692Y1353191D01*
X233692Y1355366D02*
X231212Y1355366D01*
X236212Y1356446D02*
X238692Y1356446D01*
X238692Y1337966D01*
X236212Y1337966D01*
X236212Y1356446D01*
X236212Y1340141D02*
X238692Y1340141D01*
X238692Y1342316D02*
X236212Y1342316D01*
X236212Y1344491D02*
X238692Y1344491D01*
X238692Y1346666D02*
X236212Y1346666D01*
X236212Y1348841D02*
X238692Y1348841D01*
X238692Y1351016D02*
X236212Y1351016D01*
X236212Y1353191D02*
X238692Y1353191D01*
X238692Y1355366D02*
X236212Y1355366D01*
X241212Y1356446D02*
X243692Y1356446D01*
X243692Y1337966D01*
X241212Y1337966D01*
X241212Y1356446D01*
X241212Y1340141D02*
X243692Y1340141D01*
X243692Y1342316D02*
X241212Y1342316D01*
X241212Y1344491D02*
X243692Y1344491D01*
X243692Y1346666D02*
X241212Y1346666D01*
X241212Y1348841D02*
X243692Y1348841D01*
X243692Y1351016D02*
X241212Y1351016D01*
X241212Y1353191D02*
X243692Y1353191D01*
X243692Y1355366D02*
X241212Y1355366D01*
X246212Y1356446D02*
X248692Y1356446D01*
X248692Y1337966D01*
X246212Y1337966D01*
X246212Y1356446D01*
X246212Y1340141D02*
X248692Y1340141D01*
X248692Y1342316D02*
X246212Y1342316D01*
X246212Y1344491D02*
X248692Y1344491D01*
X248692Y1346666D02*
X246212Y1346666D01*
X246212Y1348841D02*
X248692Y1348841D01*
X248692Y1351016D02*
X246212Y1351016D01*
X246212Y1353191D02*
X248692Y1353191D01*
X248692Y1355366D02*
X246212Y1355366D01*
X251212Y1356446D02*
X253692Y1356446D01*
X253692Y1337966D01*
X251212Y1337966D01*
X251212Y1356446D01*
X251212Y1340141D02*
X253692Y1340141D01*
X253692Y1342316D02*
X251212Y1342316D01*
X251212Y1344491D02*
X253692Y1344491D01*
X253692Y1346666D02*
X251212Y1346666D01*
X251212Y1348841D02*
X253692Y1348841D01*
X253692Y1351016D02*
X251212Y1351016D01*
X251212Y1353191D02*
X253692Y1353191D01*
X253692Y1355366D02*
X251212Y1355366D01*
X256212Y1356446D02*
X258692Y1356446D01*
X258692Y1337966D01*
X256212Y1337966D01*
X256212Y1356446D01*
X256212Y1340141D02*
X258692Y1340141D01*
X258692Y1342316D02*
X256212Y1342316D01*
X256212Y1344491D02*
X258692Y1344491D01*
X258692Y1346666D02*
X256212Y1346666D01*
X256212Y1348841D02*
X258692Y1348841D01*
X258692Y1351016D02*
X256212Y1351016D01*
X256212Y1353191D02*
X258692Y1353191D01*
X258692Y1355366D02*
X256212Y1355366D01*
X261212Y1356446D02*
X263692Y1356446D01*
X263692Y1337966D01*
X261212Y1337966D01*
X261212Y1356446D01*
X261212Y1340141D02*
X263692Y1340141D01*
X263692Y1342316D02*
X261212Y1342316D01*
X261212Y1344491D02*
X263692Y1344491D01*
X263692Y1346666D02*
X261212Y1346666D01*
X261212Y1348841D02*
X263692Y1348841D01*
X263692Y1351016D02*
X261212Y1351016D01*
X261212Y1353191D02*
X263692Y1353191D01*
X263692Y1355366D02*
X261212Y1355366D01*
X266212Y1356446D02*
X268692Y1356446D01*
X268692Y1337966D01*
X266212Y1337966D01*
X266212Y1356446D01*
X266212Y1340141D02*
X268692Y1340141D01*
X268692Y1342316D02*
X266212Y1342316D01*
X266212Y1344491D02*
X268692Y1344491D01*
X268692Y1346666D02*
X266212Y1346666D01*
X266212Y1348841D02*
X268692Y1348841D01*
X268692Y1351016D02*
X266212Y1351016D01*
X266212Y1353191D02*
X268692Y1353191D01*
X268692Y1355366D02*
X266212Y1355366D01*
X271212Y1356446D02*
X273692Y1356446D01*
X273692Y1337966D01*
X271212Y1337966D01*
X271212Y1356446D01*
X271212Y1340141D02*
X273692Y1340141D01*
X273692Y1342316D02*
X271212Y1342316D01*
X271212Y1344491D02*
X273692Y1344491D01*
X273692Y1346666D02*
X271212Y1346666D01*
X271212Y1348841D02*
X273692Y1348841D01*
X273692Y1351016D02*
X271212Y1351016D01*
X271212Y1353191D02*
X273692Y1353191D01*
X273692Y1355366D02*
X271212Y1355366D01*
X276212Y1356446D02*
X278692Y1356446D01*
X278692Y1337966D01*
X276212Y1337966D01*
X276212Y1356446D01*
X276212Y1340141D02*
X278692Y1340141D01*
X278692Y1342316D02*
X276212Y1342316D01*
X276212Y1344491D02*
X278692Y1344491D01*
X278692Y1346666D02*
X276212Y1346666D01*
X276212Y1348841D02*
X278692Y1348841D01*
X278692Y1351016D02*
X276212Y1351016D01*
X276212Y1353191D02*
X278692Y1353191D01*
X278692Y1355366D02*
X276212Y1355366D01*
D15*
X7452Y901456D03*
X7452Y943456D03*
X20452Y922456D03*
X367452Y943456D03*
X367452Y901456D03*
X354452Y922456D03*
D16*
X348822Y986136D03*
X348822Y1011536D03*
X348742Y1088136D03*
X351282Y1113536D03*
X348742Y1138936D03*
D17*
X281940Y1164463D02*
X281940Y1169797D01*
X293624Y1169797D01*
X293624Y1164463D01*
X281940Y1164463D01*
X281940Y1166635D02*
X293624Y1166635D01*
X293624Y1168807D02*
X281940Y1168807D01*
X281940Y1161669D02*
X281940Y1156335D01*
X281940Y1161669D02*
X293624Y1161669D01*
X293624Y1156335D01*
X281940Y1156335D01*
X281940Y1158507D02*
X293624Y1158507D01*
X293624Y1160679D02*
X281940Y1160679D01*
D10*
X674626Y1116078D02*
X674626Y1110486D01*
X662938Y1110486D01*
X662938Y1116078D01*
X674626Y1116078D01*
X674626Y1112655D02*
X662938Y1112655D01*
X662938Y1114824D02*
X674626Y1114824D01*
X674626Y1120900D02*
X674626Y1126492D01*
X674626Y1120900D02*
X662938Y1120900D01*
X662938Y1126492D01*
X674626Y1126492D01*
X674626Y1123069D02*
X662938Y1123069D01*
X662938Y1125238D02*
X674626Y1125238D01*
X674626Y1131314D02*
X674626Y1136906D01*
X674626Y1131314D02*
X662938Y1131314D01*
X662938Y1136906D01*
X674626Y1136906D01*
X674626Y1133483D02*
X662938Y1133483D01*
X662938Y1135652D02*
X674626Y1135652D01*
X592203Y736856D02*
X586611Y736856D01*
X592203Y736856D02*
X592203Y725168D01*
X586611Y725168D01*
X586611Y736856D01*
X586611Y727337D02*
X592203Y727337D01*
X592203Y729506D02*
X586611Y729506D01*
X586611Y731675D02*
X592203Y731675D01*
X592203Y733844D02*
X586611Y733844D01*
X586611Y736013D02*
X592203Y736013D01*
X581789Y736856D02*
X576197Y736856D01*
X581789Y736856D02*
X581789Y725168D01*
X576197Y725168D01*
X576197Y736856D01*
X576197Y727337D02*
X581789Y727337D01*
X581789Y729506D02*
X576197Y729506D01*
X576197Y731675D02*
X581789Y731675D01*
X581789Y733844D02*
X576197Y733844D01*
X576197Y736013D02*
X581789Y736013D01*
X556389Y736856D02*
X550797Y736856D01*
X556389Y736856D02*
X556389Y725168D01*
X550797Y725168D01*
X550797Y736856D01*
X550797Y727337D02*
X556389Y727337D01*
X556389Y729506D02*
X550797Y729506D01*
X550797Y731675D02*
X556389Y731675D01*
X556389Y733844D02*
X550797Y733844D01*
X550797Y736013D02*
X556389Y736013D01*
X545975Y736856D02*
X540383Y736856D01*
X545975Y736856D02*
X545975Y725168D01*
X540383Y725168D01*
X540383Y736856D01*
X540383Y727337D02*
X545975Y727337D01*
X545975Y729506D02*
X540383Y729506D01*
X540383Y731675D02*
X545975Y731675D01*
X545975Y733844D02*
X540383Y733844D01*
X540383Y736013D02*
X545975Y736013D01*
D11*
X449636Y760758D03*
X507436Y760758D03*
D12*
X408432Y1134364D03*
D13*
X739916Y1296416D03*
X395976Y761776D03*
D14*
X476196Y1356446D02*
X478676Y1356446D01*
X478676Y1337966D01*
X476196Y1337966D01*
X476196Y1356446D01*
X476196Y1340141D02*
X478676Y1340141D01*
X478676Y1342316D02*
X476196Y1342316D01*
X476196Y1344491D02*
X478676Y1344491D01*
X478676Y1346666D02*
X476196Y1346666D01*
X476196Y1348841D02*
X478676Y1348841D01*
X478676Y1351016D02*
X476196Y1351016D01*
X476196Y1353191D02*
X478676Y1353191D01*
X478676Y1355366D02*
X476196Y1355366D01*
X481196Y1356446D02*
X483676Y1356446D01*
X483676Y1337966D01*
X481196Y1337966D01*
X481196Y1356446D01*
X481196Y1340141D02*
X483676Y1340141D01*
X483676Y1342316D02*
X481196Y1342316D01*
X481196Y1344491D02*
X483676Y1344491D01*
X483676Y1346666D02*
X481196Y1346666D01*
X481196Y1348841D02*
X483676Y1348841D01*
X483676Y1351016D02*
X481196Y1351016D01*
X481196Y1353191D02*
X483676Y1353191D01*
X483676Y1355366D02*
X481196Y1355366D01*
X486196Y1356446D02*
X488676Y1356446D01*
X488676Y1337966D01*
X486196Y1337966D01*
X486196Y1356446D01*
X486196Y1340141D02*
X488676Y1340141D01*
X488676Y1342316D02*
X486196Y1342316D01*
X486196Y1344491D02*
X488676Y1344491D01*
X488676Y1346666D02*
X486196Y1346666D01*
X486196Y1348841D02*
X488676Y1348841D01*
X488676Y1351016D02*
X486196Y1351016D01*
X486196Y1353191D02*
X488676Y1353191D01*
X488676Y1355366D02*
X486196Y1355366D01*
X491196Y1356446D02*
X493676Y1356446D01*
X493676Y1337966D01*
X491196Y1337966D01*
X491196Y1356446D01*
X491196Y1340141D02*
X493676Y1340141D01*
X493676Y1342316D02*
X491196Y1342316D01*
X491196Y1344491D02*
X493676Y1344491D01*
X493676Y1346666D02*
X491196Y1346666D01*
X491196Y1348841D02*
X493676Y1348841D01*
X493676Y1351016D02*
X491196Y1351016D01*
X491196Y1353191D02*
X493676Y1353191D01*
X493676Y1355366D02*
X491196Y1355366D01*
X496196Y1356446D02*
X498676Y1356446D01*
X498676Y1337966D01*
X496196Y1337966D01*
X496196Y1356446D01*
X496196Y1340141D02*
X498676Y1340141D01*
X498676Y1342316D02*
X496196Y1342316D01*
X496196Y1344491D02*
X498676Y1344491D01*
X498676Y1346666D02*
X496196Y1346666D01*
X496196Y1348841D02*
X498676Y1348841D01*
X498676Y1351016D02*
X496196Y1351016D01*
X496196Y1353191D02*
X498676Y1353191D01*
X498676Y1355366D02*
X496196Y1355366D01*
X501196Y1356446D02*
X503676Y1356446D01*
X503676Y1337966D01*
X501196Y1337966D01*
X501196Y1356446D01*
X501196Y1340141D02*
X503676Y1340141D01*
X503676Y1342316D02*
X501196Y1342316D01*
X501196Y1344491D02*
X503676Y1344491D01*
X503676Y1346666D02*
X501196Y1346666D01*
X501196Y1348841D02*
X503676Y1348841D01*
X503676Y1351016D02*
X501196Y1351016D01*
X501196Y1353191D02*
X503676Y1353191D01*
X503676Y1355366D02*
X501196Y1355366D01*
X506196Y1356446D02*
X508676Y1356446D01*
X508676Y1337966D01*
X506196Y1337966D01*
X506196Y1356446D01*
X506196Y1340141D02*
X508676Y1340141D01*
X508676Y1342316D02*
X506196Y1342316D01*
X506196Y1344491D02*
X508676Y1344491D01*
X508676Y1346666D02*
X506196Y1346666D01*
X506196Y1348841D02*
X508676Y1348841D01*
X508676Y1351016D02*
X506196Y1351016D01*
X506196Y1353191D02*
X508676Y1353191D01*
X508676Y1355366D02*
X506196Y1355366D01*
X511196Y1356446D02*
X513676Y1356446D01*
X513676Y1337966D01*
X511196Y1337966D01*
X511196Y1356446D01*
X511196Y1340141D02*
X513676Y1340141D01*
X513676Y1342316D02*
X511196Y1342316D01*
X511196Y1344491D02*
X513676Y1344491D01*
X513676Y1346666D02*
X511196Y1346666D01*
X511196Y1348841D02*
X513676Y1348841D01*
X513676Y1351016D02*
X511196Y1351016D01*
X511196Y1353191D02*
X513676Y1353191D01*
X513676Y1355366D02*
X511196Y1355366D01*
X516196Y1356446D02*
X518676Y1356446D01*
X518676Y1337966D01*
X516196Y1337966D01*
X516196Y1356446D01*
X516196Y1340141D02*
X518676Y1340141D01*
X518676Y1342316D02*
X516196Y1342316D01*
X516196Y1344491D02*
X518676Y1344491D01*
X518676Y1346666D02*
X516196Y1346666D01*
X516196Y1348841D02*
X518676Y1348841D01*
X518676Y1351016D02*
X516196Y1351016D01*
X516196Y1353191D02*
X518676Y1353191D01*
X518676Y1355366D02*
X516196Y1355366D01*
X521196Y1356446D02*
X523676Y1356446D01*
X523676Y1337966D01*
X521196Y1337966D01*
X521196Y1356446D01*
X521196Y1340141D02*
X523676Y1340141D01*
X523676Y1342316D02*
X521196Y1342316D01*
X521196Y1344491D02*
X523676Y1344491D01*
X523676Y1346666D02*
X521196Y1346666D01*
X521196Y1348841D02*
X523676Y1348841D01*
X523676Y1351016D02*
X521196Y1351016D01*
X521196Y1353191D02*
X523676Y1353191D01*
X523676Y1355366D02*
X521196Y1355366D01*
X526196Y1356446D02*
X528676Y1356446D01*
X528676Y1337966D01*
X526196Y1337966D01*
X526196Y1356446D01*
X526196Y1340141D02*
X528676Y1340141D01*
X528676Y1342316D02*
X526196Y1342316D01*
X526196Y1344491D02*
X528676Y1344491D01*
X528676Y1346666D02*
X526196Y1346666D01*
X526196Y1348841D02*
X528676Y1348841D01*
X528676Y1351016D02*
X526196Y1351016D01*
X526196Y1353191D02*
X528676Y1353191D01*
X528676Y1355366D02*
X526196Y1355366D01*
X551196Y1356446D02*
X553676Y1356446D01*
X553676Y1337966D01*
X551196Y1337966D01*
X551196Y1356446D01*
X551196Y1340141D02*
X553676Y1340141D01*
X553676Y1342316D02*
X551196Y1342316D01*
X551196Y1344491D02*
X553676Y1344491D01*
X553676Y1346666D02*
X551196Y1346666D01*
X551196Y1348841D02*
X553676Y1348841D01*
X553676Y1351016D02*
X551196Y1351016D01*
X551196Y1353191D02*
X553676Y1353191D01*
X553676Y1355366D02*
X551196Y1355366D01*
X556196Y1356446D02*
X558676Y1356446D01*
X558676Y1337966D01*
X556196Y1337966D01*
X556196Y1356446D01*
X556196Y1340141D02*
X558676Y1340141D01*
X558676Y1342316D02*
X556196Y1342316D01*
X556196Y1344491D02*
X558676Y1344491D01*
X558676Y1346666D02*
X556196Y1346666D01*
X556196Y1348841D02*
X558676Y1348841D01*
X558676Y1351016D02*
X556196Y1351016D01*
X556196Y1353191D02*
X558676Y1353191D01*
X558676Y1355366D02*
X556196Y1355366D01*
X561196Y1356446D02*
X563676Y1356446D01*
X563676Y1337966D01*
X561196Y1337966D01*
X561196Y1356446D01*
X561196Y1340141D02*
X563676Y1340141D01*
X563676Y1342316D02*
X561196Y1342316D01*
X561196Y1344491D02*
X563676Y1344491D01*
X563676Y1346666D02*
X561196Y1346666D01*
X561196Y1348841D02*
X563676Y1348841D01*
X563676Y1351016D02*
X561196Y1351016D01*
X561196Y1353191D02*
X563676Y1353191D01*
X563676Y1355366D02*
X561196Y1355366D01*
X566196Y1356446D02*
X568676Y1356446D01*
X568676Y1337966D01*
X566196Y1337966D01*
X566196Y1356446D01*
X566196Y1340141D02*
X568676Y1340141D01*
X568676Y1342316D02*
X566196Y1342316D01*
X566196Y1344491D02*
X568676Y1344491D01*
X568676Y1346666D02*
X566196Y1346666D01*
X566196Y1348841D02*
X568676Y1348841D01*
X568676Y1351016D02*
X566196Y1351016D01*
X566196Y1353191D02*
X568676Y1353191D01*
X568676Y1355366D02*
X566196Y1355366D01*
X571196Y1356446D02*
X573676Y1356446D01*
X573676Y1337966D01*
X571196Y1337966D01*
X571196Y1356446D01*
X571196Y1340141D02*
X573676Y1340141D01*
X573676Y1342316D02*
X571196Y1342316D01*
X571196Y1344491D02*
X573676Y1344491D01*
X573676Y1346666D02*
X571196Y1346666D01*
X571196Y1348841D02*
X573676Y1348841D01*
X573676Y1351016D02*
X571196Y1351016D01*
X571196Y1353191D02*
X573676Y1353191D01*
X573676Y1355366D02*
X571196Y1355366D01*
X576196Y1356446D02*
X578676Y1356446D01*
X578676Y1337966D01*
X576196Y1337966D01*
X576196Y1356446D01*
X576196Y1340141D02*
X578676Y1340141D01*
X578676Y1342316D02*
X576196Y1342316D01*
X576196Y1344491D02*
X578676Y1344491D01*
X578676Y1346666D02*
X576196Y1346666D01*
X576196Y1348841D02*
X578676Y1348841D01*
X578676Y1351016D02*
X576196Y1351016D01*
X576196Y1353191D02*
X578676Y1353191D01*
X578676Y1355366D02*
X576196Y1355366D01*
X581196Y1356446D02*
X583676Y1356446D01*
X583676Y1337966D01*
X581196Y1337966D01*
X581196Y1356446D01*
X581196Y1340141D02*
X583676Y1340141D01*
X583676Y1342316D02*
X581196Y1342316D01*
X581196Y1344491D02*
X583676Y1344491D01*
X583676Y1346666D02*
X581196Y1346666D01*
X581196Y1348841D02*
X583676Y1348841D01*
X583676Y1351016D02*
X581196Y1351016D01*
X581196Y1353191D02*
X583676Y1353191D01*
X583676Y1355366D02*
X581196Y1355366D01*
X586196Y1356446D02*
X588676Y1356446D01*
X588676Y1337966D01*
X586196Y1337966D01*
X586196Y1356446D01*
X586196Y1340141D02*
X588676Y1340141D01*
X588676Y1342316D02*
X586196Y1342316D01*
X586196Y1344491D02*
X588676Y1344491D01*
X588676Y1346666D02*
X586196Y1346666D01*
X586196Y1348841D02*
X588676Y1348841D01*
X588676Y1351016D02*
X586196Y1351016D01*
X586196Y1353191D02*
X588676Y1353191D01*
X588676Y1355366D02*
X586196Y1355366D01*
X591196Y1356446D02*
X593676Y1356446D01*
X593676Y1337966D01*
X591196Y1337966D01*
X591196Y1356446D01*
X591196Y1340141D02*
X593676Y1340141D01*
X593676Y1342316D02*
X591196Y1342316D01*
X591196Y1344491D02*
X593676Y1344491D01*
X593676Y1346666D02*
X591196Y1346666D01*
X591196Y1348841D02*
X593676Y1348841D01*
X593676Y1351016D02*
X591196Y1351016D01*
X591196Y1353191D02*
X593676Y1353191D01*
X593676Y1355366D02*
X591196Y1355366D01*
X596196Y1356446D02*
X598676Y1356446D01*
X598676Y1337966D01*
X596196Y1337966D01*
X596196Y1356446D01*
X596196Y1340141D02*
X598676Y1340141D01*
X598676Y1342316D02*
X596196Y1342316D01*
X596196Y1344491D02*
X598676Y1344491D01*
X598676Y1346666D02*
X596196Y1346666D01*
X596196Y1348841D02*
X598676Y1348841D01*
X598676Y1351016D02*
X596196Y1351016D01*
X596196Y1353191D02*
X598676Y1353191D01*
X598676Y1355366D02*
X596196Y1355366D01*
X601196Y1356446D02*
X603676Y1356446D01*
X603676Y1337966D01*
X601196Y1337966D01*
X601196Y1356446D01*
X601196Y1340141D02*
X603676Y1340141D01*
X603676Y1342316D02*
X601196Y1342316D01*
X601196Y1344491D02*
X603676Y1344491D01*
X603676Y1346666D02*
X601196Y1346666D01*
X601196Y1348841D02*
X603676Y1348841D01*
X603676Y1351016D02*
X601196Y1351016D01*
X601196Y1353191D02*
X603676Y1353191D01*
X603676Y1355366D02*
X601196Y1355366D01*
X606196Y1356446D02*
X608676Y1356446D01*
X608676Y1337966D01*
X606196Y1337966D01*
X606196Y1356446D01*
X606196Y1340141D02*
X608676Y1340141D01*
X608676Y1342316D02*
X606196Y1342316D01*
X606196Y1344491D02*
X608676Y1344491D01*
X608676Y1346666D02*
X606196Y1346666D01*
X606196Y1348841D02*
X608676Y1348841D01*
X608676Y1351016D02*
X606196Y1351016D01*
X606196Y1353191D02*
X608676Y1353191D01*
X608676Y1355366D02*
X606196Y1355366D01*
X611196Y1356446D02*
X613676Y1356446D01*
X613676Y1337966D01*
X611196Y1337966D01*
X611196Y1356446D01*
X611196Y1340141D02*
X613676Y1340141D01*
X613676Y1342316D02*
X611196Y1342316D01*
X611196Y1344491D02*
X613676Y1344491D01*
X613676Y1346666D02*
X611196Y1346666D01*
X611196Y1348841D02*
X613676Y1348841D01*
X613676Y1351016D02*
X611196Y1351016D01*
X611196Y1353191D02*
X613676Y1353191D01*
X613676Y1355366D02*
X611196Y1355366D01*
X616196Y1356446D02*
X618676Y1356446D01*
X618676Y1337966D01*
X616196Y1337966D01*
X616196Y1356446D01*
X616196Y1340141D02*
X618676Y1340141D01*
X618676Y1342316D02*
X616196Y1342316D01*
X616196Y1344491D02*
X618676Y1344491D01*
X618676Y1346666D02*
X616196Y1346666D01*
X616196Y1348841D02*
X618676Y1348841D01*
X618676Y1351016D02*
X616196Y1351016D01*
X616196Y1353191D02*
X618676Y1353191D01*
X618676Y1355366D02*
X616196Y1355366D01*
X621196Y1356446D02*
X623676Y1356446D01*
X623676Y1337966D01*
X621196Y1337966D01*
X621196Y1356446D01*
X621196Y1340141D02*
X623676Y1340141D01*
X623676Y1342316D02*
X621196Y1342316D01*
X621196Y1344491D02*
X623676Y1344491D01*
X623676Y1346666D02*
X621196Y1346666D01*
X621196Y1348841D02*
X623676Y1348841D01*
X623676Y1351016D02*
X621196Y1351016D01*
X621196Y1353191D02*
X623676Y1353191D01*
X623676Y1355366D02*
X621196Y1355366D01*
X626196Y1356446D02*
X628676Y1356446D01*
X628676Y1337966D01*
X626196Y1337966D01*
X626196Y1356446D01*
X626196Y1340141D02*
X628676Y1340141D01*
X628676Y1342316D02*
X626196Y1342316D01*
X626196Y1344491D02*
X628676Y1344491D01*
X628676Y1346666D02*
X626196Y1346666D01*
X626196Y1348841D02*
X628676Y1348841D01*
X628676Y1351016D02*
X626196Y1351016D01*
X626196Y1353191D02*
X628676Y1353191D01*
X628676Y1355366D02*
X626196Y1355366D01*
X631196Y1356446D02*
X633676Y1356446D01*
X633676Y1337966D01*
X631196Y1337966D01*
X631196Y1356446D01*
X631196Y1340141D02*
X633676Y1340141D01*
X633676Y1342316D02*
X631196Y1342316D01*
X631196Y1344491D02*
X633676Y1344491D01*
X633676Y1346666D02*
X631196Y1346666D01*
X631196Y1348841D02*
X633676Y1348841D01*
X633676Y1351016D02*
X631196Y1351016D01*
X631196Y1353191D02*
X633676Y1353191D01*
X633676Y1355366D02*
X631196Y1355366D01*
X636196Y1356446D02*
X638676Y1356446D01*
X638676Y1337966D01*
X636196Y1337966D01*
X636196Y1356446D01*
X636196Y1340141D02*
X638676Y1340141D01*
X638676Y1342316D02*
X636196Y1342316D01*
X636196Y1344491D02*
X638676Y1344491D01*
X638676Y1346666D02*
X636196Y1346666D01*
X636196Y1348841D02*
X638676Y1348841D01*
X638676Y1351016D02*
X636196Y1351016D01*
X636196Y1353191D02*
X638676Y1353191D01*
X638676Y1355366D02*
X636196Y1355366D01*
X641196Y1356446D02*
X643676Y1356446D01*
X643676Y1337966D01*
X641196Y1337966D01*
X641196Y1356446D01*
X641196Y1340141D02*
X643676Y1340141D01*
X643676Y1342316D02*
X641196Y1342316D01*
X641196Y1344491D02*
X643676Y1344491D01*
X643676Y1346666D02*
X641196Y1346666D01*
X641196Y1348841D02*
X643676Y1348841D01*
X643676Y1351016D02*
X641196Y1351016D01*
X641196Y1353191D02*
X643676Y1353191D01*
X643676Y1355366D02*
X641196Y1355366D01*
X646196Y1356446D02*
X648676Y1356446D01*
X648676Y1337966D01*
X646196Y1337966D01*
X646196Y1356446D01*
X646196Y1340141D02*
X648676Y1340141D01*
X648676Y1342316D02*
X646196Y1342316D01*
X646196Y1344491D02*
X648676Y1344491D01*
X648676Y1346666D02*
X646196Y1346666D01*
X646196Y1348841D02*
X648676Y1348841D01*
X648676Y1351016D02*
X646196Y1351016D01*
X646196Y1353191D02*
X648676Y1353191D01*
X648676Y1355366D02*
X646196Y1355366D01*
X651196Y1356446D02*
X653676Y1356446D01*
X653676Y1337966D01*
X651196Y1337966D01*
X651196Y1356446D01*
X651196Y1340141D02*
X653676Y1340141D01*
X653676Y1342316D02*
X651196Y1342316D01*
X651196Y1344491D02*
X653676Y1344491D01*
X653676Y1346666D02*
X651196Y1346666D01*
X651196Y1348841D02*
X653676Y1348841D01*
X653676Y1351016D02*
X651196Y1351016D01*
X651196Y1353191D02*
X653676Y1353191D01*
X653676Y1355366D02*
X651196Y1355366D01*
X656196Y1356446D02*
X658676Y1356446D01*
X658676Y1337966D01*
X656196Y1337966D01*
X656196Y1356446D01*
X656196Y1340141D02*
X658676Y1340141D01*
X658676Y1342316D02*
X656196Y1342316D01*
X656196Y1344491D02*
X658676Y1344491D01*
X658676Y1346666D02*
X656196Y1346666D01*
X656196Y1348841D02*
X658676Y1348841D01*
X658676Y1351016D02*
X656196Y1351016D01*
X656196Y1353191D02*
X658676Y1353191D01*
X658676Y1355366D02*
X656196Y1355366D01*
D15*
X387436Y901456D03*
X387436Y943456D03*
X400436Y922456D03*
X747436Y943456D03*
X747436Y901456D03*
X734436Y922456D03*
D16*
X728806Y986136D03*
X728806Y1011536D03*
X728726Y1088136D03*
X731266Y1113536D03*
X728726Y1138936D03*
D17*
X661924Y1164463D02*
X661924Y1169797D01*
X673608Y1169797D01*
X673608Y1164463D01*
X661924Y1164463D01*
X661924Y1166635D02*
X673608Y1166635D01*
X673608Y1168807D02*
X661924Y1168807D01*
X661924Y1161669D02*
X661924Y1156335D01*
X661924Y1161669D02*
X673608Y1161669D01*
X673608Y1156335D01*
X661924Y1156335D01*
X661924Y1158507D02*
X673608Y1158507D01*
X673608Y1160679D02*
X661924Y1160679D01*
D10*
X1054610Y1116078D02*
X1054610Y1110486D01*
X1042922Y1110486D01*
X1042922Y1116078D01*
X1054610Y1116078D01*
X1054610Y1112655D02*
X1042922Y1112655D01*
X1042922Y1114824D02*
X1054610Y1114824D01*
X1054610Y1120900D02*
X1054610Y1126492D01*
X1054610Y1120900D02*
X1042922Y1120900D01*
X1042922Y1126492D01*
X1054610Y1126492D01*
X1054610Y1123069D02*
X1042922Y1123069D01*
X1042922Y1125238D02*
X1054610Y1125238D01*
X1054610Y1131314D02*
X1054610Y1136906D01*
X1054610Y1131314D02*
X1042922Y1131314D01*
X1042922Y1136906D01*
X1054610Y1136906D01*
X1054610Y1133483D02*
X1042922Y1133483D01*
X1042922Y1135652D02*
X1054610Y1135652D01*
X972187Y736856D02*
X966595Y736856D01*
X972187Y736856D02*
X972187Y725168D01*
X966595Y725168D01*
X966595Y736856D01*
X966595Y727337D02*
X972187Y727337D01*
X972187Y729506D02*
X966595Y729506D01*
X966595Y731675D02*
X972187Y731675D01*
X972187Y733844D02*
X966595Y733844D01*
X966595Y736013D02*
X972187Y736013D01*
X961773Y736856D02*
X956181Y736856D01*
X961773Y736856D02*
X961773Y725168D01*
X956181Y725168D01*
X956181Y736856D01*
X956181Y727337D02*
X961773Y727337D01*
X961773Y729506D02*
X956181Y729506D01*
X956181Y731675D02*
X961773Y731675D01*
X961773Y733844D02*
X956181Y733844D01*
X956181Y736013D02*
X961773Y736013D01*
X936373Y736856D02*
X930781Y736856D01*
X936373Y736856D02*
X936373Y725168D01*
X930781Y725168D01*
X930781Y736856D01*
X930781Y727337D02*
X936373Y727337D01*
X936373Y729506D02*
X930781Y729506D01*
X930781Y731675D02*
X936373Y731675D01*
X936373Y733844D02*
X930781Y733844D01*
X930781Y736013D02*
X936373Y736013D01*
X925959Y736856D02*
X920367Y736856D01*
X925959Y736856D02*
X925959Y725168D01*
X920367Y725168D01*
X920367Y736856D01*
X920367Y727337D02*
X925959Y727337D01*
X925959Y729506D02*
X920367Y729506D01*
X920367Y731675D02*
X925959Y731675D01*
X925959Y733844D02*
X920367Y733844D01*
X920367Y736013D02*
X925959Y736013D01*
D11*
X829620Y760758D03*
X887420Y760758D03*
D12*
X788416Y1134364D03*
D13*
X1119900Y1296416D03*
X775960Y761776D03*
D14*
X856180Y1356446D02*
X858660Y1356446D01*
X858660Y1337966D01*
X856180Y1337966D01*
X856180Y1356446D01*
X856180Y1340141D02*
X858660Y1340141D01*
X858660Y1342316D02*
X856180Y1342316D01*
X856180Y1344491D02*
X858660Y1344491D01*
X858660Y1346666D02*
X856180Y1346666D01*
X856180Y1348841D02*
X858660Y1348841D01*
X858660Y1351016D02*
X856180Y1351016D01*
X856180Y1353191D02*
X858660Y1353191D01*
X858660Y1355366D02*
X856180Y1355366D01*
X861180Y1356446D02*
X863660Y1356446D01*
X863660Y1337966D01*
X861180Y1337966D01*
X861180Y1356446D01*
X861180Y1340141D02*
X863660Y1340141D01*
X863660Y1342316D02*
X861180Y1342316D01*
X861180Y1344491D02*
X863660Y1344491D01*
X863660Y1346666D02*
X861180Y1346666D01*
X861180Y1348841D02*
X863660Y1348841D01*
X863660Y1351016D02*
X861180Y1351016D01*
X861180Y1353191D02*
X863660Y1353191D01*
X863660Y1355366D02*
X861180Y1355366D01*
X866180Y1356446D02*
X868660Y1356446D01*
X868660Y1337966D01*
X866180Y1337966D01*
X866180Y1356446D01*
X866180Y1340141D02*
X868660Y1340141D01*
X868660Y1342316D02*
X866180Y1342316D01*
X866180Y1344491D02*
X868660Y1344491D01*
X868660Y1346666D02*
X866180Y1346666D01*
X866180Y1348841D02*
X868660Y1348841D01*
X868660Y1351016D02*
X866180Y1351016D01*
X866180Y1353191D02*
X868660Y1353191D01*
X868660Y1355366D02*
X866180Y1355366D01*
X871180Y1356446D02*
X873660Y1356446D01*
X873660Y1337966D01*
X871180Y1337966D01*
X871180Y1356446D01*
X871180Y1340141D02*
X873660Y1340141D01*
X873660Y1342316D02*
X871180Y1342316D01*
X871180Y1344491D02*
X873660Y1344491D01*
X873660Y1346666D02*
X871180Y1346666D01*
X871180Y1348841D02*
X873660Y1348841D01*
X873660Y1351016D02*
X871180Y1351016D01*
X871180Y1353191D02*
X873660Y1353191D01*
X873660Y1355366D02*
X871180Y1355366D01*
X876180Y1356446D02*
X878660Y1356446D01*
X878660Y1337966D01*
X876180Y1337966D01*
X876180Y1356446D01*
X876180Y1340141D02*
X878660Y1340141D01*
X878660Y1342316D02*
X876180Y1342316D01*
X876180Y1344491D02*
X878660Y1344491D01*
X878660Y1346666D02*
X876180Y1346666D01*
X876180Y1348841D02*
X878660Y1348841D01*
X878660Y1351016D02*
X876180Y1351016D01*
X876180Y1353191D02*
X878660Y1353191D01*
X878660Y1355366D02*
X876180Y1355366D01*
X881180Y1356446D02*
X883660Y1356446D01*
X883660Y1337966D01*
X881180Y1337966D01*
X881180Y1356446D01*
X881180Y1340141D02*
X883660Y1340141D01*
X883660Y1342316D02*
X881180Y1342316D01*
X881180Y1344491D02*
X883660Y1344491D01*
X883660Y1346666D02*
X881180Y1346666D01*
X881180Y1348841D02*
X883660Y1348841D01*
X883660Y1351016D02*
X881180Y1351016D01*
X881180Y1353191D02*
X883660Y1353191D01*
X883660Y1355366D02*
X881180Y1355366D01*
X886180Y1356446D02*
X888660Y1356446D01*
X888660Y1337966D01*
X886180Y1337966D01*
X886180Y1356446D01*
X886180Y1340141D02*
X888660Y1340141D01*
X888660Y1342316D02*
X886180Y1342316D01*
X886180Y1344491D02*
X888660Y1344491D01*
X888660Y1346666D02*
X886180Y1346666D01*
X886180Y1348841D02*
X888660Y1348841D01*
X888660Y1351016D02*
X886180Y1351016D01*
X886180Y1353191D02*
X888660Y1353191D01*
X888660Y1355366D02*
X886180Y1355366D01*
X891180Y1356446D02*
X893660Y1356446D01*
X893660Y1337966D01*
X891180Y1337966D01*
X891180Y1356446D01*
X891180Y1340141D02*
X893660Y1340141D01*
X893660Y1342316D02*
X891180Y1342316D01*
X891180Y1344491D02*
X893660Y1344491D01*
X893660Y1346666D02*
X891180Y1346666D01*
X891180Y1348841D02*
X893660Y1348841D01*
X893660Y1351016D02*
X891180Y1351016D01*
X891180Y1353191D02*
X893660Y1353191D01*
X893660Y1355366D02*
X891180Y1355366D01*
X896180Y1356446D02*
X898660Y1356446D01*
X898660Y1337966D01*
X896180Y1337966D01*
X896180Y1356446D01*
X896180Y1340141D02*
X898660Y1340141D01*
X898660Y1342316D02*
X896180Y1342316D01*
X896180Y1344491D02*
X898660Y1344491D01*
X898660Y1346666D02*
X896180Y1346666D01*
X896180Y1348841D02*
X898660Y1348841D01*
X898660Y1351016D02*
X896180Y1351016D01*
X896180Y1353191D02*
X898660Y1353191D01*
X898660Y1355366D02*
X896180Y1355366D01*
X901180Y1356446D02*
X903660Y1356446D01*
X903660Y1337966D01*
X901180Y1337966D01*
X901180Y1356446D01*
X901180Y1340141D02*
X903660Y1340141D01*
X903660Y1342316D02*
X901180Y1342316D01*
X901180Y1344491D02*
X903660Y1344491D01*
X903660Y1346666D02*
X901180Y1346666D01*
X901180Y1348841D02*
X903660Y1348841D01*
X903660Y1351016D02*
X901180Y1351016D01*
X901180Y1353191D02*
X903660Y1353191D01*
X903660Y1355366D02*
X901180Y1355366D01*
X906180Y1356446D02*
X908660Y1356446D01*
X908660Y1337966D01*
X906180Y1337966D01*
X906180Y1356446D01*
X906180Y1340141D02*
X908660Y1340141D01*
X908660Y1342316D02*
X906180Y1342316D01*
X906180Y1344491D02*
X908660Y1344491D01*
X908660Y1346666D02*
X906180Y1346666D01*
X906180Y1348841D02*
X908660Y1348841D01*
X908660Y1351016D02*
X906180Y1351016D01*
X906180Y1353191D02*
X908660Y1353191D01*
X908660Y1355366D02*
X906180Y1355366D01*
X931180Y1356446D02*
X933660Y1356446D01*
X933660Y1337966D01*
X931180Y1337966D01*
X931180Y1356446D01*
X931180Y1340141D02*
X933660Y1340141D01*
X933660Y1342316D02*
X931180Y1342316D01*
X931180Y1344491D02*
X933660Y1344491D01*
X933660Y1346666D02*
X931180Y1346666D01*
X931180Y1348841D02*
X933660Y1348841D01*
X933660Y1351016D02*
X931180Y1351016D01*
X931180Y1353191D02*
X933660Y1353191D01*
X933660Y1355366D02*
X931180Y1355366D01*
X936180Y1356446D02*
X938660Y1356446D01*
X938660Y1337966D01*
X936180Y1337966D01*
X936180Y1356446D01*
X936180Y1340141D02*
X938660Y1340141D01*
X938660Y1342316D02*
X936180Y1342316D01*
X936180Y1344491D02*
X938660Y1344491D01*
X938660Y1346666D02*
X936180Y1346666D01*
X936180Y1348841D02*
X938660Y1348841D01*
X938660Y1351016D02*
X936180Y1351016D01*
X936180Y1353191D02*
X938660Y1353191D01*
X938660Y1355366D02*
X936180Y1355366D01*
X941180Y1356446D02*
X943660Y1356446D01*
X943660Y1337966D01*
X941180Y1337966D01*
X941180Y1356446D01*
X941180Y1340141D02*
X943660Y1340141D01*
X943660Y1342316D02*
X941180Y1342316D01*
X941180Y1344491D02*
X943660Y1344491D01*
X943660Y1346666D02*
X941180Y1346666D01*
X941180Y1348841D02*
X943660Y1348841D01*
X943660Y1351016D02*
X941180Y1351016D01*
X941180Y1353191D02*
X943660Y1353191D01*
X943660Y1355366D02*
X941180Y1355366D01*
X946180Y1356446D02*
X948660Y1356446D01*
X948660Y1337966D01*
X946180Y1337966D01*
X946180Y1356446D01*
X946180Y1340141D02*
X948660Y1340141D01*
X948660Y1342316D02*
X946180Y1342316D01*
X946180Y1344491D02*
X948660Y1344491D01*
X948660Y1346666D02*
X946180Y1346666D01*
X946180Y1348841D02*
X948660Y1348841D01*
X948660Y1351016D02*
X946180Y1351016D01*
X946180Y1353191D02*
X948660Y1353191D01*
X948660Y1355366D02*
X946180Y1355366D01*
X951180Y1356446D02*
X953660Y1356446D01*
X953660Y1337966D01*
X951180Y1337966D01*
X951180Y1356446D01*
X951180Y1340141D02*
X953660Y1340141D01*
X953660Y1342316D02*
X951180Y1342316D01*
X951180Y1344491D02*
X953660Y1344491D01*
X953660Y1346666D02*
X951180Y1346666D01*
X951180Y1348841D02*
X953660Y1348841D01*
X953660Y1351016D02*
X951180Y1351016D01*
X951180Y1353191D02*
X953660Y1353191D01*
X953660Y1355366D02*
X951180Y1355366D01*
X956180Y1356446D02*
X958660Y1356446D01*
X958660Y1337966D01*
X956180Y1337966D01*
X956180Y1356446D01*
X956180Y1340141D02*
X958660Y1340141D01*
X958660Y1342316D02*
X956180Y1342316D01*
X956180Y1344491D02*
X958660Y1344491D01*
X958660Y1346666D02*
X956180Y1346666D01*
X956180Y1348841D02*
X958660Y1348841D01*
X958660Y1351016D02*
X956180Y1351016D01*
X956180Y1353191D02*
X958660Y1353191D01*
X958660Y1355366D02*
X956180Y1355366D01*
X961180Y1356446D02*
X963660Y1356446D01*
X963660Y1337966D01*
X961180Y1337966D01*
X961180Y1356446D01*
X961180Y1340141D02*
X963660Y1340141D01*
X963660Y1342316D02*
X961180Y1342316D01*
X961180Y1344491D02*
X963660Y1344491D01*
X963660Y1346666D02*
X961180Y1346666D01*
X961180Y1348841D02*
X963660Y1348841D01*
X963660Y1351016D02*
X961180Y1351016D01*
X961180Y1353191D02*
X963660Y1353191D01*
X963660Y1355366D02*
X961180Y1355366D01*
X966180Y1356446D02*
X968660Y1356446D01*
X968660Y1337966D01*
X966180Y1337966D01*
X966180Y1356446D01*
X966180Y1340141D02*
X968660Y1340141D01*
X968660Y1342316D02*
X966180Y1342316D01*
X966180Y1344491D02*
X968660Y1344491D01*
X968660Y1346666D02*
X966180Y1346666D01*
X966180Y1348841D02*
X968660Y1348841D01*
X968660Y1351016D02*
X966180Y1351016D01*
X966180Y1353191D02*
X968660Y1353191D01*
X968660Y1355366D02*
X966180Y1355366D01*
X971180Y1356446D02*
X973660Y1356446D01*
X973660Y1337966D01*
X971180Y1337966D01*
X971180Y1356446D01*
X971180Y1340141D02*
X973660Y1340141D01*
X973660Y1342316D02*
X971180Y1342316D01*
X971180Y1344491D02*
X973660Y1344491D01*
X973660Y1346666D02*
X971180Y1346666D01*
X971180Y1348841D02*
X973660Y1348841D01*
X973660Y1351016D02*
X971180Y1351016D01*
X971180Y1353191D02*
X973660Y1353191D01*
X973660Y1355366D02*
X971180Y1355366D01*
X976180Y1356446D02*
X978660Y1356446D01*
X978660Y1337966D01*
X976180Y1337966D01*
X976180Y1356446D01*
X976180Y1340141D02*
X978660Y1340141D01*
X978660Y1342316D02*
X976180Y1342316D01*
X976180Y1344491D02*
X978660Y1344491D01*
X978660Y1346666D02*
X976180Y1346666D01*
X976180Y1348841D02*
X978660Y1348841D01*
X978660Y1351016D02*
X976180Y1351016D01*
X976180Y1353191D02*
X978660Y1353191D01*
X978660Y1355366D02*
X976180Y1355366D01*
X981180Y1356446D02*
X983660Y1356446D01*
X983660Y1337966D01*
X981180Y1337966D01*
X981180Y1356446D01*
X981180Y1340141D02*
X983660Y1340141D01*
X983660Y1342316D02*
X981180Y1342316D01*
X981180Y1344491D02*
X983660Y1344491D01*
X983660Y1346666D02*
X981180Y1346666D01*
X981180Y1348841D02*
X983660Y1348841D01*
X983660Y1351016D02*
X981180Y1351016D01*
X981180Y1353191D02*
X983660Y1353191D01*
X983660Y1355366D02*
X981180Y1355366D01*
X986180Y1356446D02*
X988660Y1356446D01*
X988660Y1337966D01*
X986180Y1337966D01*
X986180Y1356446D01*
X986180Y1340141D02*
X988660Y1340141D01*
X988660Y1342316D02*
X986180Y1342316D01*
X986180Y1344491D02*
X988660Y1344491D01*
X988660Y1346666D02*
X986180Y1346666D01*
X986180Y1348841D02*
X988660Y1348841D01*
X988660Y1351016D02*
X986180Y1351016D01*
X986180Y1353191D02*
X988660Y1353191D01*
X988660Y1355366D02*
X986180Y1355366D01*
X991180Y1356446D02*
X993660Y1356446D01*
X993660Y1337966D01*
X991180Y1337966D01*
X991180Y1356446D01*
X991180Y1340141D02*
X993660Y1340141D01*
X993660Y1342316D02*
X991180Y1342316D01*
X991180Y1344491D02*
X993660Y1344491D01*
X993660Y1346666D02*
X991180Y1346666D01*
X991180Y1348841D02*
X993660Y1348841D01*
X993660Y1351016D02*
X991180Y1351016D01*
X991180Y1353191D02*
X993660Y1353191D01*
X993660Y1355366D02*
X991180Y1355366D01*
X996180Y1356446D02*
X998660Y1356446D01*
X998660Y1337966D01*
X996180Y1337966D01*
X996180Y1356446D01*
X996180Y1340141D02*
X998660Y1340141D01*
X998660Y1342316D02*
X996180Y1342316D01*
X996180Y1344491D02*
X998660Y1344491D01*
X998660Y1346666D02*
X996180Y1346666D01*
X996180Y1348841D02*
X998660Y1348841D01*
X998660Y1351016D02*
X996180Y1351016D01*
X996180Y1353191D02*
X998660Y1353191D01*
X998660Y1355366D02*
X996180Y1355366D01*
X1001180Y1356446D02*
X1003660Y1356446D01*
X1003660Y1337966D01*
X1001180Y1337966D01*
X1001180Y1356446D01*
X1001180Y1340141D02*
X1003660Y1340141D01*
X1003660Y1342316D02*
X1001180Y1342316D01*
X1001180Y1344491D02*
X1003660Y1344491D01*
X1003660Y1346666D02*
X1001180Y1346666D01*
X1001180Y1348841D02*
X1003660Y1348841D01*
X1003660Y1351016D02*
X1001180Y1351016D01*
X1001180Y1353191D02*
X1003660Y1353191D01*
X1003660Y1355366D02*
X1001180Y1355366D01*
X1006180Y1356446D02*
X1008660Y1356446D01*
X1008660Y1337966D01*
X1006180Y1337966D01*
X1006180Y1356446D01*
X1006180Y1340141D02*
X1008660Y1340141D01*
X1008660Y1342316D02*
X1006180Y1342316D01*
X1006180Y1344491D02*
X1008660Y1344491D01*
X1008660Y1346666D02*
X1006180Y1346666D01*
X1006180Y1348841D02*
X1008660Y1348841D01*
X1008660Y1351016D02*
X1006180Y1351016D01*
X1006180Y1353191D02*
X1008660Y1353191D01*
X1008660Y1355366D02*
X1006180Y1355366D01*
X1011180Y1356446D02*
X1013660Y1356446D01*
X1013660Y1337966D01*
X1011180Y1337966D01*
X1011180Y1356446D01*
X1011180Y1340141D02*
X1013660Y1340141D01*
X1013660Y1342316D02*
X1011180Y1342316D01*
X1011180Y1344491D02*
X1013660Y1344491D01*
X1013660Y1346666D02*
X1011180Y1346666D01*
X1011180Y1348841D02*
X1013660Y1348841D01*
X1013660Y1351016D02*
X1011180Y1351016D01*
X1011180Y1353191D02*
X1013660Y1353191D01*
X1013660Y1355366D02*
X1011180Y1355366D01*
X1016180Y1356446D02*
X1018660Y1356446D01*
X1018660Y1337966D01*
X1016180Y1337966D01*
X1016180Y1356446D01*
X1016180Y1340141D02*
X1018660Y1340141D01*
X1018660Y1342316D02*
X1016180Y1342316D01*
X1016180Y1344491D02*
X1018660Y1344491D01*
X1018660Y1346666D02*
X1016180Y1346666D01*
X1016180Y1348841D02*
X1018660Y1348841D01*
X1018660Y1351016D02*
X1016180Y1351016D01*
X1016180Y1353191D02*
X1018660Y1353191D01*
X1018660Y1355366D02*
X1016180Y1355366D01*
X1021180Y1356446D02*
X1023660Y1356446D01*
X1023660Y1337966D01*
X1021180Y1337966D01*
X1021180Y1356446D01*
X1021180Y1340141D02*
X1023660Y1340141D01*
X1023660Y1342316D02*
X1021180Y1342316D01*
X1021180Y1344491D02*
X1023660Y1344491D01*
X1023660Y1346666D02*
X1021180Y1346666D01*
X1021180Y1348841D02*
X1023660Y1348841D01*
X1023660Y1351016D02*
X1021180Y1351016D01*
X1021180Y1353191D02*
X1023660Y1353191D01*
X1023660Y1355366D02*
X1021180Y1355366D01*
X1026180Y1356446D02*
X1028660Y1356446D01*
X1028660Y1337966D01*
X1026180Y1337966D01*
X1026180Y1356446D01*
X1026180Y1340141D02*
X1028660Y1340141D01*
X1028660Y1342316D02*
X1026180Y1342316D01*
X1026180Y1344491D02*
X1028660Y1344491D01*
X1028660Y1346666D02*
X1026180Y1346666D01*
X1026180Y1348841D02*
X1028660Y1348841D01*
X1028660Y1351016D02*
X1026180Y1351016D01*
X1026180Y1353191D02*
X1028660Y1353191D01*
X1028660Y1355366D02*
X1026180Y1355366D01*
X1031180Y1356446D02*
X1033660Y1356446D01*
X1033660Y1337966D01*
X1031180Y1337966D01*
X1031180Y1356446D01*
X1031180Y1340141D02*
X1033660Y1340141D01*
X1033660Y1342316D02*
X1031180Y1342316D01*
X1031180Y1344491D02*
X1033660Y1344491D01*
X1033660Y1346666D02*
X1031180Y1346666D01*
X1031180Y1348841D02*
X1033660Y1348841D01*
X1033660Y1351016D02*
X1031180Y1351016D01*
X1031180Y1353191D02*
X1033660Y1353191D01*
X1033660Y1355366D02*
X1031180Y1355366D01*
X1036180Y1356446D02*
X1038660Y1356446D01*
X1038660Y1337966D01*
X1036180Y1337966D01*
X1036180Y1356446D01*
X1036180Y1340141D02*
X1038660Y1340141D01*
X1038660Y1342316D02*
X1036180Y1342316D01*
X1036180Y1344491D02*
X1038660Y1344491D01*
X1038660Y1346666D02*
X1036180Y1346666D01*
X1036180Y1348841D02*
X1038660Y1348841D01*
X1038660Y1351016D02*
X1036180Y1351016D01*
X1036180Y1353191D02*
X1038660Y1353191D01*
X1038660Y1355366D02*
X1036180Y1355366D01*
D15*
X767420Y901456D03*
X767420Y943456D03*
X780420Y922456D03*
X1127420Y943456D03*
X1127420Y901456D03*
X1114420Y922456D03*
D16*
X1108790Y986136D03*
X1108790Y1011536D03*
X1108710Y1088136D03*
X1111250Y1113536D03*
X1108710Y1138936D03*
D17*
X1041908Y1164463D02*
X1041908Y1169797D01*
X1053592Y1169797D01*
X1053592Y1164463D01*
X1041908Y1164463D01*
X1041908Y1166635D02*
X1053592Y1166635D01*
X1053592Y1168807D02*
X1041908Y1168807D01*
X1041908Y1161669D02*
X1041908Y1156335D01*
X1041908Y1161669D02*
X1053592Y1161669D01*
X1053592Y1156335D01*
X1041908Y1156335D01*
X1041908Y1158507D02*
X1053592Y1158507D01*
X1053592Y1160679D02*
X1041908Y1160679D01*
D13*
X-26238Y1298956D03*
X1161110Y1298956D03*
D18*
X-35293Y63500D02*
X-35290Y63722D01*
X-35282Y63944D01*
X-35268Y64166D01*
X-35249Y64388D01*
X-35225Y64608D01*
X-35195Y64829D01*
X-35160Y65048D01*
X-35119Y65267D01*
X-35073Y65484D01*
X-35022Y65700D01*
X-34965Y65915D01*
X-34903Y66129D01*
X-34836Y66340D01*
X-34764Y66551D01*
X-34686Y66759D01*
X-34604Y66965D01*
X-34516Y67169D01*
X-34424Y67372D01*
X-34326Y67571D01*
X-34224Y67768D01*
X-34117Y67963D01*
X-34005Y68155D01*
X-33888Y68344D01*
X-33767Y68531D01*
X-33641Y68714D01*
X-33511Y68894D01*
X-33376Y69071D01*
X-33238Y69244D01*
X-33095Y69414D01*
X-32947Y69581D01*
X-32796Y69744D01*
X-32641Y69903D01*
X-32482Y70058D01*
X-32319Y70209D01*
X-32152Y70357D01*
X-31982Y70500D01*
X-31809Y70638D01*
X-31632Y70773D01*
X-31452Y70903D01*
X-31269Y71029D01*
X-31082Y71150D01*
X-30893Y71267D01*
X-30701Y71379D01*
X-30506Y71486D01*
X-30309Y71588D01*
X-30110Y71686D01*
X-29907Y71778D01*
X-29703Y71866D01*
X-29497Y71948D01*
X-29289Y72026D01*
X-29078Y72098D01*
X-28867Y72165D01*
X-28653Y72227D01*
X-28438Y72284D01*
X-28222Y72335D01*
X-28005Y72381D01*
X-27786Y72422D01*
X-27567Y72457D01*
X-27346Y72487D01*
X-27126Y72511D01*
X-26904Y72530D01*
X-26682Y72544D01*
X-26460Y72552D01*
X-26238Y72555D01*
X-26016Y72552D01*
X-25794Y72544D01*
X-25572Y72530D01*
X-25350Y72511D01*
X-25130Y72487D01*
X-24909Y72457D01*
X-24690Y72422D01*
X-24471Y72381D01*
X-24254Y72335D01*
X-24038Y72284D01*
X-23823Y72227D01*
X-23609Y72165D01*
X-23398Y72098D01*
X-23187Y72026D01*
X-22979Y71948D01*
X-22773Y71866D01*
X-22569Y71778D01*
X-22366Y71686D01*
X-22167Y71588D01*
X-21970Y71486D01*
X-21775Y71379D01*
X-21583Y71267D01*
X-21394Y71150D01*
X-21207Y71029D01*
X-21024Y70903D01*
X-20844Y70773D01*
X-20667Y70638D01*
X-20494Y70500D01*
X-20324Y70357D01*
X-20157Y70209D01*
X-19994Y70058D01*
X-19835Y69903D01*
X-19680Y69744D01*
X-19529Y69581D01*
X-19381Y69414D01*
X-19238Y69244D01*
X-19100Y69071D01*
X-18965Y68894D01*
X-18835Y68714D01*
X-18709Y68531D01*
X-18588Y68344D01*
X-18471Y68155D01*
X-18359Y67963D01*
X-18252Y67768D01*
X-18150Y67571D01*
X-18052Y67372D01*
X-17960Y67169D01*
X-17872Y66965D01*
X-17790Y66759D01*
X-17712Y66551D01*
X-17640Y66340D01*
X-17573Y66129D01*
X-17511Y65915D01*
X-17454Y65700D01*
X-17403Y65484D01*
X-17357Y65267D01*
X-17316Y65048D01*
X-17281Y64829D01*
X-17251Y64608D01*
X-17227Y64388D01*
X-17208Y64166D01*
X-17194Y63944D01*
X-17186Y63722D01*
X-17183Y63500D01*
X-17186Y63278D01*
X-17194Y63056D01*
X-17208Y62834D01*
X-17227Y62612D01*
X-17251Y62392D01*
X-17281Y62171D01*
X-17316Y61952D01*
X-17357Y61733D01*
X-17403Y61516D01*
X-17454Y61300D01*
X-17511Y61085D01*
X-17573Y60871D01*
X-17640Y60660D01*
X-17712Y60449D01*
X-17790Y60241D01*
X-17872Y60035D01*
X-17960Y59831D01*
X-18052Y59628D01*
X-18150Y59429D01*
X-18252Y59232D01*
X-18359Y59037D01*
X-18471Y58845D01*
X-18588Y58656D01*
X-18709Y58469D01*
X-18835Y58286D01*
X-18965Y58106D01*
X-19100Y57929D01*
X-19238Y57756D01*
X-19381Y57586D01*
X-19529Y57419D01*
X-19680Y57256D01*
X-19835Y57097D01*
X-19994Y56942D01*
X-20157Y56791D01*
X-20324Y56643D01*
X-20494Y56500D01*
X-20667Y56362D01*
X-20844Y56227D01*
X-21024Y56097D01*
X-21207Y55971D01*
X-21394Y55850D01*
X-21583Y55733D01*
X-21775Y55621D01*
X-21970Y55514D01*
X-22167Y55412D01*
X-22366Y55314D01*
X-22569Y55222D01*
X-22773Y55134D01*
X-22979Y55052D01*
X-23187Y54974D01*
X-23398Y54902D01*
X-23609Y54835D01*
X-23823Y54773D01*
X-24038Y54716D01*
X-24254Y54665D01*
X-24471Y54619D01*
X-24690Y54578D01*
X-24909Y54543D01*
X-25130Y54513D01*
X-25350Y54489D01*
X-25572Y54470D01*
X-25794Y54456D01*
X-26016Y54448D01*
X-26238Y54445D01*
X-26460Y54448D01*
X-26682Y54456D01*
X-26904Y54470D01*
X-27126Y54489D01*
X-27346Y54513D01*
X-27567Y54543D01*
X-27786Y54578D01*
X-28005Y54619D01*
X-28222Y54665D01*
X-28438Y54716D01*
X-28653Y54773D01*
X-28867Y54835D01*
X-29078Y54902D01*
X-29289Y54974D01*
X-29497Y55052D01*
X-29703Y55134D01*
X-29907Y55222D01*
X-30110Y55314D01*
X-30309Y55412D01*
X-30506Y55514D01*
X-30701Y55621D01*
X-30893Y55733D01*
X-31082Y55850D01*
X-31269Y55971D01*
X-31452Y56097D01*
X-31632Y56227D01*
X-31809Y56362D01*
X-31982Y56500D01*
X-32152Y56643D01*
X-32319Y56791D01*
X-32482Y56942D01*
X-32641Y57097D01*
X-32796Y57256D01*
X-32947Y57419D01*
X-33095Y57586D01*
X-33238Y57756D01*
X-33376Y57929D01*
X-33511Y58106D01*
X-33641Y58286D01*
X-33767Y58469D01*
X-33888Y58656D01*
X-34005Y58845D01*
X-34117Y59037D01*
X-34224Y59232D01*
X-34326Y59429D01*
X-34424Y59628D01*
X-34516Y59831D01*
X-34604Y60035D01*
X-34686Y60241D01*
X-34764Y60449D01*
X-34836Y60660D01*
X-34903Y60871D01*
X-34965Y61085D01*
X-35022Y61300D01*
X-35073Y61516D01*
X-35119Y61733D01*
X-35160Y61952D01*
X-35195Y62171D01*
X-35225Y62392D01*
X-35249Y62612D01*
X-35268Y62834D01*
X-35282Y63056D01*
X-35290Y63278D01*
X-35293Y63500D01*
D19*
X-26238Y63500D03*
M02*
