M48
;GenerationSoftware,Autodesk,EAGLE,9.6.2*%
;CreationDate,2022-01-07T21:12:39Z*%
FMAT,2
ICI,OFF
METRIC,TZ,000.000
T4C0.305
T3C0.400
T2C0.650
T1C1.016
%
G90
M71
T1
X112243Y113894
X35136Y98614
X80035Y22352
X79781Y24892
X80035Y27432
X41470Y37632
X41470Y35092
X41478Y27432
X112497Y111354
X41224Y24892
X41478Y22352
X80027Y35092
X80027Y37632
X35128Y113894
X35382Y111354
X35128Y108814
X35136Y101154
X2913Y37632
X2913Y35092
X2921Y27432
X2667Y24892
X2921Y22352
X73685Y113894
X73693Y98614
X73693Y101154
X73685Y108814
X73939Y111354
X112251Y98614
X112251Y101154
X112243Y108814
T2
X51556Y76076
X84334Y76076
X90114Y76076
X12999Y76076
X30830Y60170
X25050Y60170
X69387Y60170
X63607Y60170
X107944Y60170
X102164Y60170
X7219Y76076
X45776Y76076
T3
X14427Y76606
X5791Y76606
X70815Y63820
X32258Y59640
X23622Y59640
X23622Y63820
X32258Y63820
X109372Y59640
X52984Y72426
X52984Y76606
X44348Y76606
X100736Y63820
X109372Y63820
X70815Y59640
X62179Y59640
X100736Y59640
X82906Y72426
X91542Y72426
X91542Y76606
X82906Y76606
X62179Y63820
X5791Y72426
X14427Y72426
X44348Y72426
T4
X17248Y37398
X17208Y34468
X17108Y31318
X30401Y4779
X22136Y5917
X27180Y17852
X32519Y27162
X35549Y26942
X7417Y25705
X12116Y13995
X13233Y20168
X21234Y19736
X19482Y22225
X20853Y22403
X18948Y7798
X25832Y5588
X27407Y14097
X5004Y23495
X25146Y14326
X24714Y18567
X31344Y21895
X33909Y42545
X33909Y45085
X33909Y47625
X33909Y50165
X33909Y52705
X36449Y52705
X33909Y55245
X33909Y57785
X33909Y60325
X33909Y62865
X36449Y62865
X36449Y57785
X36449Y55245
X36449Y50165
X36449Y47625
X36449Y37338
X36449Y40005
X36449Y34417
X31369Y45085
X28829Y45085
X31369Y47625
X31369Y50165
X28829Y47625
X26289Y47625
X31369Y52705
X31369Y42545
X23749Y47244
X21209Y47625
X21209Y50165
X21209Y52705
X21209Y55245
X21209Y57785
X23749Y50165
X23749Y52705
X23749Y57785
X18669Y55245
X18669Y52705
X18669Y50165
X16256Y50165
X16129Y52705
X16129Y55245
X16129Y57785
X18669Y57785
X16189Y46365
X18669Y46355
X13589Y50165
X13589Y52705
X13589Y55245
X8890Y54864
X8890Y53086
X9271Y44704
X11684Y46482
X14351Y43307
X13970Y44958
X8890Y57023
X13589Y57277
X11303Y59563
X11303Y57023
X11303Y54864
X11303Y53086
X8890Y50800
X11303Y50800
X11303Y49530
X8890Y49530
X8890Y47625
X8890Y46355
X31369Y40005
X31369Y37465
X31369Y34290
X36449Y31877
X33909Y31877
X31369Y31877
X31369Y29337
X33909Y29337
X36449Y29337
X5969Y52705
X5969Y50165
X5969Y47625
X5969Y45085
X5969Y42545
X5969Y40005
X5969Y37465
X5969Y34925
X5969Y32385
X3429Y40005
X3429Y42545
X3429Y45085
X3429Y47625
X3429Y50165
X3429Y52705
X3429Y55245
X889Y47625
X889Y50165
X889Y52705
X889Y55245
X889Y57785
X889Y60325
X889Y62865
X3429Y62865
X3429Y57785
X3429Y60325
X5969Y55245
X8509Y29845
X8509Y32385
X8509Y34925
X8509Y37465
X8509Y40005
X8509Y42545
X8509Y27305
X11049Y27305
X13589Y27305
X16129Y27305
X31369Y57785
X19456Y14783
X8560Y13614
X10084Y15773
X17437Y3250
X26543Y8738
X23749Y7468
X13614Y21819
X10719Y18186
X5969Y62916
X13589Y59563
X32723Y13378
X28042Y21641
X19329Y62763
X24510Y14969
X20227Y15000
X14885Y20985
X13750Y20920
X21040Y3890
X29250Y5160
X17743Y59920
X19700Y45500
X23600Y45500
X7493Y24892
X7493Y22860
X16764Y60706
X18890Y27810
X17410Y27770
X20447Y60706
X33600Y23000
X27500Y53721
X25857Y54305
X21126Y23099
X19511Y23130
X20120Y10010
X30595Y10027
X20670Y23775
X18928Y23805
X16425Y9989
X26830Y9500
X10160Y4318
X9525Y9779
X11938Y9779
X10668Y9779
X26162Y56896
X24638Y56896
X30190Y22044
X30100Y19060
X25070Y17800
X18890Y17710
X16100Y15000
X10211Y15000
X23759Y5009
X25353Y6740
X22060Y18980
X13208Y19138
X19324Y9339
X18618Y8599
X28380Y5090
X21580Y4490
X24638Y6985
X23147Y5377
X21180Y18410
X11938Y18503
X28190Y14180
X30760Y22861
X28190Y15500
X29502Y17858
X10160Y20320
X8636Y12700
X58344Y44704
X72212Y12700
X62433Y12700
X47965Y15530
X44285Y23914
X69064Y36315
X67417Y27246
X44316Y15893
X60033Y60376
X65964Y56566
X49733Y31242
X63703Y31242
X52045Y40056
X49733Y40132
X52019Y31242
X49733Y34417
X49733Y37338
X52019Y37338
X51892Y34417
X54051Y31242
X54051Y34417
X54051Y37338
X54305Y40132
X56210Y42418
X57099Y40132
X59385Y40132
X61871Y40132
X63493Y40112
X63703Y37338
X63703Y34417
X61671Y31242
X59385Y31242
X57919Y31362
X57899Y34377
X59385Y37338
X61671Y37338
X61544Y34417
X59385Y34417
X44552Y57836
X49606Y42926
X52193Y46236
X68199Y55702
X68275Y51537
X66497Y31242
X66497Y34417
X66497Y37363
X66497Y40030
X65938Y27889
X68174Y53391
X41148Y16612
X41123Y8788
X44145Y12319
X47346Y4775
X39929Y40107
X72466Y37338
X72466Y34417
X39929Y37186
X44526Y60249
X47473Y59588
X53061Y61112
X53086Y63475
X63373Y57734
X39929Y34392
X72466Y40005
X59323Y8727
X69756Y9314
X55805Y37398
X55765Y34468
X55665Y31318
X68958Y4779
X60693Y5917
X65737Y17852
X71076Y27162
X74106Y26942
X45974Y25705
X50673Y13995
X51791Y20168
X59792Y19736
X58039Y22225
X59411Y22403
X57506Y7798
X64389Y5588
X65964Y14097
X43561Y23495
X63703Y14326
X63271Y18567
X69901Y21895
X72466Y42545
X72466Y45085
X72466Y47625
X72466Y50165
X72466Y52705
X75006Y52705
X72466Y55245
X72466Y57785
X72466Y60325
X72466Y62865
X75006Y62865
X75006Y57785
X75006Y55245
X75006Y50165
X75006Y47625
X75006Y37338
X75006Y40005
X75006Y34417
X69926Y45085
X67386Y45085
X69926Y47625
X69926Y50165
X67386Y47625
X64846Y47625
X69926Y52705
X69926Y42545
X62306Y47244
X59766Y47625
X59766Y50165
X59766Y52705
X59766Y55245
X59766Y57785
X62306Y50165
X62306Y52705
X62306Y57785
X57226Y55245
X57226Y52705
X57226Y50165
X54813Y50165
X54686Y52705
X54686Y55245
X54686Y57785
X57226Y57785
X54746Y46365
X57226Y46355
X52146Y50165
X52146Y52705
X52146Y55245
X47447Y54864
X47447Y53086
X47828Y44704
X50241Y46482
X52908Y43307
X52527Y44958
X47447Y57023
X52146Y57277
X49860Y59563
X49860Y57023
X49860Y54864
X49860Y53086
X47447Y50800
X49860Y50800
X49860Y49530
X47447Y49530
X47447Y47625
X47447Y46355
X69926Y40005
X69926Y37465
X69926Y34290
X75006Y31877
X72466Y31877
X69926Y31877
X69926Y29337
X72466Y29337
X75006Y29337
X44526Y52705
X44526Y50165
X44526Y47625
X44526Y45085
X44526Y42545
X44526Y40005
X44526Y37465
X44526Y34925
X44526Y32385
X41986Y40005
X41986Y42545
X41986Y45085
X41986Y47625
X41986Y50165
X41986Y52705
X41986Y55245
X39446Y47625
X39446Y50165
X39446Y52705
X39446Y55245
X39446Y57785
X39446Y60325
X39446Y62865
X41986Y62865
X41986Y57785
X41986Y60325
X44526Y55245
X47066Y29845
X47066Y32385
X47066Y34925
X47066Y37465
X47066Y40005
X47066Y42545
X47066Y27305
X49606Y27305
X52146Y27305
X54686Y27305
X69926Y57785
X58014Y14783
X47117Y13614
X48641Y15773
X55994Y3250
X65100Y8738
X62306Y7468
X52172Y21819
X49276Y18186
X44526Y62916
X52146Y59563
X71280Y13378
X66599Y21641
X57887Y62763
X63067Y14969
X58784Y15000
X53442Y20985
X52307Y20920
X59597Y3890
X67807Y5160
X56300Y59920
X58257Y45500
X62157Y45500
X46050Y24892
X46050Y22860
X55321Y60706
X57447Y27810
X55967Y27770
X59004Y60706
X72157Y23000
X66057Y53721
X64414Y54305
X59683Y23099
X58068Y23130
X58677Y10010
X69153Y10027
X59227Y23775
X57485Y23805
X54983Y9989
X65387Y9500
X48717Y4318
X48082Y9779
X50495Y9779
X49225Y9779
X64719Y56896
X63195Y56896
X68747Y22044
X68657Y19060
X63627Y17800
X57447Y17710
X54657Y15000
X48768Y15000
X62316Y5009
X63910Y6740
X60617Y18980
X51765Y19138
X57881Y9339
X57175Y8599
X66937Y5090
X60137Y4490
X63195Y6985
X61704Y5377
X59737Y18410
X50495Y18503
X66747Y14180
X69317Y22861
X66747Y15500
X68059Y17858
X48717Y20320
X47193Y12700
X96901Y44704
X110769Y12700
X100990Y12700
X86522Y15530
X82842Y23914
X107621Y36315
X105974Y27246
X82873Y15893
X98590Y60376
X104521Y56566
X88290Y31242
X102260Y31242
X90602Y40056
X88290Y40132
X90576Y31242
X88290Y34417
X88290Y37338
X90576Y37338
X90449Y34417
X92608Y31242
X92608Y34417
X92608Y37338
X92862Y40132
X94767Y42418
X95656Y40132
X97942Y40132
X100428Y40132
X102050Y40112
X102260Y37338
X102260Y34417
X100228Y31242
X97942Y31242
X96476Y31362
X96456Y34377
X97942Y37338
X100228Y37338
X100101Y34417
X97942Y34417
X83109Y57836
X88163Y42926
X90750Y46236
X106756Y55702
X106832Y51537
X105054Y31242
X105054Y34417
X105054Y37363
X105054Y40030
X104496Y27889
X106731Y53391
X79705Y16612
X79680Y8788
X82702Y12319
X85903Y4775
X78486Y40107
X111023Y37338
X111023Y34417
X78486Y37186
X83083Y60249
X86030Y59588
X91618Y61112
X91643Y63475
X101930Y57734
X78486Y34392
X111023Y40005
X97880Y8727
X108313Y9314
X94362Y37398
X94322Y34468
X94222Y31318
X107515Y4779
X99250Y5917
X104294Y17852
X109633Y27162
X112663Y26942
X84531Y25705
X89230Y13995
X90348Y20168
X98349Y19736
X96596Y22225
X97968Y22403
X96063Y7798
X102946Y5588
X104521Y14097
X82118Y23495
X102260Y14326
X101829Y18567
X108458Y21895
X111023Y42545
X111023Y45085
X111023Y47625
X111023Y50165
X111023Y52705
X113563Y52705
X111023Y55245
X111023Y57785
X111023Y60325
X111023Y62865
X113563Y62865
X113563Y57785
X113563Y55245
X113563Y50165
X113563Y47625
X113563Y37338
X113563Y40005
X113563Y34417
X108483Y45085
X105943Y45085
X108483Y47625
X108483Y50165
X105943Y47625
X103403Y47625
X108483Y52705
X108483Y42545
X100863Y47244
X98323Y47625
X98323Y50165
X98323Y52705
X98323Y55245
X98323Y57785
X100863Y50165
X100863Y52705
X100863Y57785
X95783Y55245
X95783Y52705
X95783Y50165
X93370Y50165
X93243Y52705
X93243Y55245
X93243Y57785
X95783Y57785
X93303Y46365
X95783Y46355
X90703Y50165
X90703Y52705
X90703Y55245
X86004Y54864
X86004Y53086
X86385Y44704
X88798Y46482
X91465Y43307
X91084Y44958
X86004Y57023
X90703Y57277
X88417Y59563
X88417Y57023
X88417Y54864
X88417Y53086
X86004Y50800
X88417Y50800
X88417Y49530
X86004Y49530
X86004Y47625
X86004Y46355
X108483Y40005
X108483Y37465
X108483Y34290
X113563Y31877
X111023Y31877
X108483Y31877
X108483Y29337
X111023Y29337
X113563Y29337
X83083Y52705
X83083Y50165
X83083Y47625
X83083Y45085
X83083Y42545
X83083Y40005
X83083Y37465
X83083Y34925
X83083Y32385
X80543Y40005
X80543Y42545
X80543Y45085
X80543Y47625
X80543Y50165
X80543Y52705
X80543Y55245
X78003Y47625
X78003Y50165
X78003Y52705
X78003Y55245
X78003Y57785
X78003Y60325
X78003Y62865
X80543Y62865
X80543Y57785
X80543Y60325
X83083Y55245
X85623Y29845
X85623Y32385
X85623Y34925
X85623Y37465
X85623Y40005
X85623Y42545
X85623Y27305
X88163Y27305
X90703Y27305
X93243Y27305
X108483Y57785
X96571Y14783
X85674Y13614
X87198Y15773
X94551Y3250
X103657Y8738
X100863Y7468
X90729Y21819
X87833Y18186
X83083Y62916
X90703Y59563
X109837Y13378
X105156Y21641
X96444Y62763
X101625Y14969
X97341Y15000
X91999Y20985
X90864Y20920
X98154Y3890
X106364Y5160
X94857Y59920
X96814Y45500
X100714Y45500
X84607Y24892
X84607Y22860
X93878Y60706
X96004Y27810
X94524Y27770
X97561Y60706
X110714Y23000
X104615Y53721
X102972Y54305
X98240Y23099
X96625Y23130
X97234Y10010
X107710Y10027
X97784Y23775
X96042Y23805
X93540Y9989
X103944Y9500
X87274Y4318
X86639Y9779
X89052Y9779
X87782Y9779
X103276Y56896
X101752Y56896
X107304Y22044
X107214Y19060
X102184Y17800
X96004Y17710
X93214Y15000
X87325Y15000
X100873Y5009
X102467Y6740
X99174Y18980
X90322Y19138
X96438Y9339
X95732Y8599
X105494Y5090
X98694Y4490
X101752Y6985
X100261Y5377
X98294Y18410
X89052Y18503
X105304Y14180
X107874Y22861
X105304Y15500
X106616Y17858
X87274Y20320
X85750Y12700
X18263Y91542
X4394Y123546
X14173Y123546
X28641Y120716
X32321Y112331
X7542Y99931
X9189Y109000
X32291Y120352
X16574Y75870
X10643Y79680
X26873Y105004
X12903Y105004
X24562Y96190
X26873Y96114
X24587Y105004
X26873Y101829
X26873Y98908
X24587Y98908
X24714Y101829
X22555Y105004
X22555Y101829
X22555Y98908
X22301Y96114
X20396Y93828
X19507Y96114
X17221Y96114
X14735Y96114
X13113Y96134
X12903Y98908
X12903Y101829
X14935Y105004
X17221Y105004
X18687Y104884
X18707Y101869
X17221Y98908
X14935Y98908
X15062Y101829
X17221Y101829
X32055Y78410
X27000Y93320
X24413Y90010
X8407Y80543
X8331Y84709
X10109Y105004
X10109Y101829
X10109Y98882
X10109Y96215
X10668Y108356
X8433Y82855
X35458Y119634
X35484Y127457
X32461Y123927
X29261Y131470
X36678Y96139
X4140Y98908
X4140Y101829
X36678Y99060
X32080Y75997
X29134Y76657
X23546Y75133
X23520Y72771
X13233Y78511
X36678Y101854
X4140Y96241
X17284Y127519
X6851Y126932
X20801Y98848
X20841Y101778
X20941Y104928
X7649Y131467
X15914Y130329
X10869Y118394
X5530Y109084
X2500Y109304
X30632Y110541
X25933Y122250
X24816Y116078
X16815Y116510
X18567Y114021
X17196Y113843
X19101Y128448
X12217Y130658
X10643Y122149
X33045Y112751
X12903Y121920
X13335Y117678
X6706Y114351
X4140Y93701
X4140Y91161
X4140Y88621
X4140Y86081
X4140Y83541
X1600Y83541
X4140Y81001
X4140Y78461
X4140Y75921
X4140Y73381
X1600Y73381
X1600Y78461
X1600Y81001
X1600Y86081
X1600Y88621
X1600Y98908
X1600Y96241
X1600Y101829
X6680Y91161
X9220Y91161
X6680Y88621
X6680Y86081
X9220Y88621
X11760Y88621
X6680Y83541
X6680Y93701
X14300Y89002
X16840Y88621
X16840Y86081
X16840Y83541
X16840Y81001
X16840Y78461
X14300Y86081
X14300Y83541
X14300Y78461
X19380Y81001
X19380Y83541
X19380Y86081
X21793Y86081
X21920Y83541
X21920Y81001
X21920Y78461
X19380Y78461
X21860Y89881
X19380Y89891
X24460Y86081
X24460Y83541
X24460Y81001
X29159Y81382
X29159Y83160
X28778Y91542
X26365Y89764
X23698Y92939
X24079Y91288
X29159Y79223
X24460Y78969
X26746Y76683
X26746Y79223
X26746Y81382
X26746Y83160
X29159Y85446
X26746Y85446
X26746Y86716
X29159Y86716
X29159Y88621
X29159Y89891
X6680Y96241
X6680Y98781
X6680Y101956
X1600Y104369
X4140Y104369
X6680Y104369
X6680Y106909
X4140Y106909
X1600Y106909
X32080Y83541
X32080Y86081
X32080Y88621
X32080Y91161
X32080Y93701
X32080Y96241
X32080Y98781
X32080Y101321
X32080Y103861
X34620Y96241
X34620Y93701
X34620Y91161
X34620Y88621
X34620Y86081
X34620Y83541
X34620Y81001
X37160Y88621
X37160Y86081
X37160Y83541
X37160Y81001
X37160Y78461
X37160Y75921
X37160Y73381
X34620Y73381
X34620Y78461
X34620Y75921
X32080Y81001
X29540Y106401
X29540Y103861
X29540Y101321
X29540Y98781
X29540Y96241
X29540Y93701
X29540Y108941
X27000Y108941
X24460Y108941
X21920Y108941
X6680Y78461
X18593Y121463
X29489Y122631
X27965Y120472
X20613Y132996
X11506Y127508
X14300Y128778
X24435Y114427
X27330Y118059
X32080Y73330
X24460Y76683
X5327Y122868
X10008Y114605
X18720Y73482
X13539Y121276
X17822Y121246
X23164Y115261
X24299Y115326
X17009Y132356
X8799Y131086
X20306Y76326
X18349Y90746
X14449Y90746
X30556Y111354
X30556Y113386
X21285Y75540
X19159Y108436
X20639Y108476
X17602Y75540
X4449Y113246
X10549Y82525
X12192Y81940
X16923Y113147
X18538Y113116
X17929Y126236
X7454Y126219
X17379Y112470
X19121Y112441
X21624Y126256
X11219Y126746
X27889Y131928
X28524Y126467
X26111Y126467
X27381Y126467
X11887Y79350
X13411Y79350
X7859Y114202
X7949Y117186
X12979Y118446
X19159Y118536
X21949Y121246
X27838Y121246
X14290Y131237
X12696Y129506
X15989Y117266
X24841Y117108
X18725Y126907
X19431Y127647
X9669Y131156
X16469Y131756
X13411Y129261
X14902Y130869
X16869Y117836
X26111Y117743
X9859Y122066
X7289Y113385
X9859Y120746
X8547Y118388
X27889Y115926
X29413Y123546
X56820Y91542
X42951Y123546
X52730Y123546
X67198Y120716
X70879Y112331
X46099Y99931
X47746Y109000
X70848Y120352
X55131Y75870
X49200Y79680
X65430Y105004
X51460Y105004
X63119Y96190
X65430Y96114
X63144Y105004
X65430Y101829
X65430Y98908
X63144Y98908
X63271Y101829
X61112Y105004
X61112Y101829
X61112Y98908
X60858Y96114
X58953Y93828
X58064Y96114
X55778Y96114
X53292Y96114
X51670Y96134
X51460Y98908
X51460Y101829
X53492Y105004
X55778Y105004
X57244Y104884
X57264Y101869
X55778Y98908
X53492Y98908
X53619Y101829
X55778Y101829
X70612Y78410
X65557Y93320
X62970Y90010
X46965Y80543
X46888Y84709
X48666Y105004
X48666Y101829
X48666Y98882
X48666Y96215
X49225Y108356
X46990Y82855
X74016Y119634
X74041Y127457
X71018Y123927
X67818Y131470
X75235Y96139
X42697Y98908
X42697Y101829
X75235Y99060
X70637Y75997
X67691Y76657
X62103Y75133
X62078Y72771
X51791Y78511
X75235Y101854
X42697Y96241
X55841Y127519
X45408Y126932
X59358Y98848
X59398Y101778
X59498Y104928
X46206Y131467
X54471Y130329
X49426Y118394
X44087Y109084
X41057Y109304
X69190Y110541
X64491Y122250
X63373Y116078
X55372Y116510
X57125Y114021
X55753Y113843
X57658Y128448
X50775Y130658
X49200Y122149
X71603Y112751
X51460Y121920
X51892Y117678
X45263Y114351
X42697Y93701
X42697Y91161
X42697Y88621
X42697Y86081
X42697Y83541
X40157Y83541
X42697Y81001
X42697Y78461
X42697Y75921
X42697Y73381
X40157Y73381
X40157Y78461
X40157Y81001
X40157Y86081
X40157Y88621
X40157Y98908
X40157Y96241
X40157Y101829
X45237Y91161
X47777Y91161
X45237Y88621
X45237Y86081
X47777Y88621
X50317Y88621
X45237Y83541
X45237Y93701
X52857Y89002
X55397Y88621
X55397Y86081
X55397Y83541
X55397Y81001
X55397Y78461
X52857Y86081
X52857Y83541
X52857Y78461
X57937Y81001
X57937Y83541
X57937Y86081
X60350Y86081
X60477Y83541
X60477Y81001
X60477Y78461
X57937Y78461
X60417Y89881
X57937Y89891
X63017Y86081
X63017Y83541
X63017Y81001
X67716Y81382
X67716Y83160
X67335Y91542
X64922Y89764
X62255Y92939
X62636Y91288
X67716Y79223
X63017Y78969
X65303Y76683
X65303Y79223
X65303Y81382
X65303Y83160
X67716Y85446
X65303Y85446
X65303Y86716
X67716Y86716
X67716Y88621
X67716Y89891
X45237Y96241
X45237Y98781
X45237Y101956
X40157Y104369
X42697Y104369
X45237Y104369
X45237Y106909
X42697Y106909
X40157Y106909
X70637Y83541
X70637Y86081
X70637Y88621
X70637Y91161
X70637Y93701
X70637Y96241
X70637Y98781
X70637Y101321
X70637Y103861
X73177Y96241
X73177Y93701
X73177Y91161
X73177Y88621
X73177Y86081
X73177Y83541
X73177Y81001
X75717Y88621
X75717Y86081
X75717Y83541
X75717Y81001
X75717Y78461
X75717Y75921
X75717Y73381
X73177Y73381
X73177Y78461
X73177Y75921
X70637Y81001
X68097Y106401
X68097Y103861
X68097Y101321
X68097Y98781
X68097Y96241
X68097Y93701
X68097Y108941
X65557Y108941
X63017Y108941
X60477Y108941
X45237Y78461
X57150Y121463
X68047Y122631
X66523Y120472
X59170Y132996
X50063Y127508
X52857Y128778
X62992Y114427
X65888Y118059
X70637Y73330
X63017Y76683
X43884Y122868
X19787Y44704
X57277Y73482
X52096Y121276
X56379Y121246
X61721Y115261
X62856Y115326
X55566Y132356
X47356Y131086
X58863Y76326
X56906Y90746
X53006Y90746
X69113Y111354
X69113Y113386
X59842Y75540
X57716Y108436
X59196Y108476
X56159Y75540
X43006Y113246
X49106Y82525
X50749Y81940
X55480Y113147
X57095Y113116
X56486Y126236
X46011Y126219
X55936Y112470
X57678Y112441
X60181Y126256
X49776Y126746
X66446Y131928
X67081Y126467
X64668Y126467
X65938Y126467
X50444Y79350
X51968Y79350
X46416Y114202
X46506Y117186
X51536Y118446
X57716Y118536
X60506Y121246
X66395Y121246
X52847Y131237
X51253Y129506
X54546Y117266
X63398Y117108
X57282Y126907
X57988Y127647
X48226Y131156
X55026Y131756
X51968Y129261
X53459Y130869
X55426Y117836
X64668Y117743
X48416Y122066
X45846Y113385
X48416Y120746
X47104Y118388
X66446Y115926
X67970Y123546
X95377Y91542
X81509Y123546
X91288Y123546
X105756Y120716
X109436Y112331
X84657Y99931
X86304Y109000
X109405Y120352
X93688Y75870
X87757Y79680
X103988Y105004
X90018Y105004
X101676Y96190
X103988Y96114
X101702Y105004
X103988Y101829
X103988Y98908
X101702Y98908
X101829Y101829
X99670Y105004
X99670Y101829
X99670Y98908
X99416Y96114
X97511Y93828
X96622Y96114
X94336Y96114
X91850Y96114
X90228Y96134
X90018Y98908
X90018Y101829
X92050Y105004
X94336Y105004
X95802Y104884
X95822Y101869
X94336Y98908
X92050Y98908
X92177Y101829
X94336Y101829
X109169Y78410
X104115Y93320
X101528Y90010
X85522Y80543
X85446Y84709
X87224Y105004
X87224Y101829
X87224Y98882
X87224Y96215
X87782Y108356
X85547Y82855
X112573Y119634
X112598Y127457
X109576Y123927
X106375Y131470
X113792Y96139
X81255Y98908
X81255Y101829
X113792Y99060
X109195Y75997
X106248Y76657
X100660Y75133
X100635Y72771
X90348Y78511
X113792Y101854
X81255Y96241
X94398Y127519
X83965Y126932
X97916Y98848
X97956Y101778
X98056Y104928
X84763Y131467
X93028Y130329
X87984Y118394
X82645Y109084
X79615Y109304
X107747Y110541
X103048Y122250
X101930Y116078
X93929Y116510
X95682Y114021
X94310Y113843
X96215Y128448
X89332Y130658
X87757Y122149
X110160Y112751
X90018Y121920
X90449Y117678
X83820Y114351
X81255Y93701
X81255Y91161
X81255Y88621
X81255Y86081
X81255Y83541
X78715Y83541
X81255Y81001
X81255Y78461
X81255Y75921
X81255Y73381
X78715Y73381
X78715Y78461
X78715Y81001
X78715Y86081
X78715Y88621
X78715Y98908
X78715Y96241
X78715Y101829
X83795Y91161
X86335Y91161
X83795Y88621
X83795Y86081
X86335Y88621
X88875Y88621
X83795Y83541
X83795Y93701
X91415Y89002
X93955Y88621
X93955Y86081
X93955Y83541
X93955Y81001
X93955Y78461
X91415Y86081
X91415Y83541
X91415Y78461
X96495Y81001
X96495Y83541
X96495Y86081
X98908Y86081
X99035Y83541
X99035Y81001
X99035Y78461
X96495Y78461
X98975Y89881
X96495Y89891
X101575Y86081
X101575Y83541
X101575Y81001
X106274Y81382
X106274Y83160
X105893Y91542
X103480Y89764
X100813Y92939
X101194Y91288
X106274Y79223
X101575Y78969
X103861Y76683
X103861Y79223
X103861Y81382
X103861Y83160
X106274Y85446
X103861Y85446
X103861Y86716
X106274Y86716
X106274Y88621
X106274Y89891
X83795Y96241
X83795Y98781
X83795Y101956
X48565Y114605
X81255Y104369
X83795Y104369
X83795Y106909
X81255Y106909
X78715Y106909
X109195Y83541
X109195Y86081
X109195Y88621
X109195Y91161
X109195Y93701
X109195Y96241
X109195Y98781
X109195Y101321
X109195Y103861
X111735Y96241
X111735Y93701
X111735Y91161
X111735Y88621
X111735Y86081
X111735Y83541
X111735Y81001
X114275Y88621
X114275Y86081
X114275Y83541
X114275Y81001
X114275Y78461
X114275Y75921
X114275Y73381
X111735Y73381
X111735Y78461
X111735Y75921
X109195Y81001
X106655Y106401
X106655Y103861
X106655Y101321
X106655Y98781
X106655Y96241
X106655Y93701
X106655Y108941
X104115Y108941
X101575Y108941
X99035Y108941
X83795Y78461
X95707Y121463
X106604Y122631
X105080Y120472
X97727Y132996
X88621Y127508
X91415Y128778
X101549Y114427
X104445Y118059
X109195Y73330
X101575Y76683
X82441Y122868
X87122Y114605
X95834Y73482
X90653Y121276
X94937Y121246
X100279Y115261
X101414Y115326
X94124Y132356
X85914Y131086
X97421Y76326
X95464Y90746
X91564Y90746
X107671Y111354
X107671Y113386
X98400Y75540
X96274Y108436
X97754Y108476
X94717Y75540
X81564Y113246
X87663Y82525
X89306Y81940
X94038Y113147
X95653Y113116
X95044Y126236
X84568Y126219
X94494Y112470
X96236Y112441
X98738Y126256
X88334Y126746
X105004Y131928
X105639Y126467
X103226Y126467
X104496Y126467
X89002Y79350
X90526Y79350
X84974Y114202
X85064Y117186
X90094Y118446
X96274Y118536
X99064Y121246
X104953Y121246
X91405Y131237
X89811Y129506
X93104Y117266
X101956Y117108
X95840Y126907
X96546Y127647
X86784Y131156
X93584Y131756
X90526Y129261
X92017Y130869
X93984Y117836
X103226Y117743
X86974Y122066
X84404Y113385
X86974Y120746
X85662Y118388
X105004Y115926
X106528Y123546
X33655Y12700
X23876Y12700
X9408Y15530
X5728Y23914
X30507Y36315
X28860Y27246
X5759Y15893
X21476Y60376
X27407Y56566
X11176Y31242
X25146Y31242
X13487Y40056
X11176Y40132
X13462Y31242
X11176Y34417
X11176Y37338
X37050Y46100
X37050Y41900
X35750Y44000
X1050Y41900
X1050Y46100
X2350Y44000
X13462Y37338
X13335Y34417
X15494Y31242
X15494Y34417
X15494Y37338
X15748Y40132
X17653Y42418
X18542Y40132
X20828Y40132
X75607Y46100
X75607Y41900
X74307Y44000
X39607Y41900
X39607Y46100
X40907Y44000
X23314Y40132
X24936Y40112
X25146Y37338
X25146Y34417
X23114Y31242
X20828Y31242
X19362Y31362
X19342Y34377
X20828Y37338
X114164Y46100
X114164Y41900
X112864Y44000
X78164Y41900
X78164Y46100
X79464Y44000
X23114Y37338
X22987Y34417
X20828Y34417
X5994Y57836
X11049Y42926
X13636Y46236
X29642Y55702
X29718Y51537
X27940Y31242
X999Y90146
X999Y94346
X2299Y92246
X36999Y94346
X36999Y90146
X35699Y92246
X27940Y34417
X27940Y37363
X27940Y40030
X27381Y27889
X29616Y53391
X2591Y16612
X2565Y8788
X5588Y12319
X8788Y4775
X39556Y90146
X39556Y94346
X40856Y92246
X75556Y94346
X75556Y90146
X74256Y92246
X1372Y40107
X33909Y37338
X33909Y34417
X1372Y37186
X5969Y60249
X8915Y59588
X14503Y61112
X14529Y63475
X24816Y57734
X78114Y90146
X78114Y94346
X79414Y92246
X114114Y94346
X114114Y90146
X112814Y92246
X1372Y34392
X33909Y40005
X20766Y8727
X31199Y9314
X78715Y104369
M30