M48
;GenerationSoftware,Autodesk,EAGLE,9.6.2*%
;CreationDate,2022-04-05T16:36:34Z*%
FMAT,2
ICI,OFF
METRIC,TZ,000.000
T4C0.305
T3C0.400
T2C0.650
T1C1.016
%
G90
M71
T1
X110871Y113894
X34882Y98614
X78613Y22352
X78359Y24892
X78613Y27432
X40607Y37632
X40607Y35092
X40615Y27432
X111125Y111354
X40361Y24892
X40615Y22352
X78605Y35092
X78605Y37632
X34874Y113894
X35128Y111354
X34874Y108814
X34882Y101154
X2608Y37632
X2608Y35092
X2616Y27432
X2362Y24892
X2616Y22352
X72873Y113894
X72881Y98614
X72881Y101154
X72873Y108814
X73127Y111354
X110879Y98614
X110879Y101154
X110871Y108814
T2
X50744Y76076
X82962Y76076
X88742Y76076
X12745Y76076
X30525Y60170
X24745Y60170
X68524Y60170
X62744Y60170
X106522Y60170
X100742Y60170
X6965Y76076
X44964Y76076
T3
X14173Y76606
X5537Y76606
X69952Y63820
X31953Y59640
X23317Y59640
X23317Y63820
X31953Y63820
X107950Y59640
X52172Y72426
X52172Y76606
X43536Y76606
X99314Y63820
X107950Y63820
X69952Y59640
X61316Y59640
X99314Y59640
X81534Y72426
X90170Y72426
X90170Y76606
X81534Y76606
X61316Y63820
X5537Y72426
X14173Y72426
X43536Y72426
T4
X16803Y31318
X30096Y4779
X21831Y5917
X26875Y17852
X32214Y27162
X35244Y26942
X7112Y25705
X11811Y13995
X12929Y20168
X20930Y19736
X19177Y22225
X20549Y22403
X18644Y7798
X25527Y5588
X27102Y14097
X4699Y23495
X24841Y14326
X24409Y18567
X31039Y21895
X33604Y42545
X33604Y45085
X33604Y47625
X33604Y50165
X33604Y52705
X36144Y52705
X33604Y55245
X33604Y57785
X33604Y60325
X33604Y62865
X36144Y62865
X36144Y57785
X36144Y55245
X36144Y50165
X36144Y47625
X36144Y37338
X36144Y40005
X36144Y34417
X31064Y45085
X28524Y45085
X31064Y47625
X31064Y50165
X28524Y47625
X25984Y47625
X31064Y52705
X31064Y42545
X23444Y47244
X20904Y47625
X20904Y50165
X20904Y52705
X20904Y55245
X20904Y57785
X23444Y50165
X23444Y52705
X23444Y57785
X18364Y55245
X18364Y52705
X18364Y50165
X15951Y50165
X15824Y52705
X15824Y55245
X15824Y57785
X18364Y57785
X15884Y46365
X18364Y46355
X13284Y50165
X13284Y52705
X13284Y55245
X8585Y53594
X8966Y44704
X11379Y46482
X14046Y43307
X13665Y44958
X7442Y56642
X13284Y57785
X11125Y57785
X12268Y56515
X10998Y53594
X8585Y50800
X10998Y50800
X10998Y49530
X8585Y49530
X8585Y47625
X8585Y46355
X31064Y40005
X31064Y37465
X31064Y34290
X36144Y31877
X33604Y31877
X31064Y31877
X31064Y29337
X33604Y29337
X36144Y29337
X5664Y52705
X5664Y50165
X5664Y47625
X5664Y45085
X5664Y42545
X5664Y40005
X5664Y37465
X5664Y34925
X5664Y32385
X3124Y40005
X3124Y42545
X3124Y45085
X3124Y47625
X3124Y50165
X3124Y52705
X3124Y55245
X584Y47625
X584Y50165
X584Y52705
X584Y55245
X584Y57785
X584Y60325
X584Y62865
X3124Y62865
X3124Y57785
X3124Y60325
X5664Y55245
X8204Y29845
X8204Y32385
X8204Y34925
X8204Y37465
X8204Y40005
X8204Y42545
X8204Y27305
X10744Y27305
X13284Y27305
X15824Y27305
X31064Y57785
X19152Y14783
X8255Y13614
X9779Y15773
X17132Y3250
X26238Y8738
X23444Y7468
X13310Y21819
X10414Y18186
X5664Y62916
X13284Y59563
X32418Y13378
X27737Y21641
X19025Y62763
X8204Y62916
X10744Y62916
X13284Y62916
X7442Y54864
X12268Y54864
X24205Y14969
X19922Y15000
X14580Y20985
X13445Y20920
X20735Y3890
X28945Y5160
X17438Y59920
X19395Y45500
X23295Y45500
X7188Y24892
X7188Y22860
X16459Y60706
X18585Y27810
X17105Y27770
X20142Y60706
X33295Y23000
X27195Y53721
X25552Y54305
X20821Y23099
X19206Y23130
X19815Y10010
X30291Y10027
X20365Y23775
X18623Y23805
X16121Y9989
X26525Y9500
X9855Y4318
X9220Y9779
X11633Y9779
X10363Y9779
X25857Y56896
X24333Y56896
X29885Y22044
X29795Y19060
X24765Y17800
X18585Y17710
X15795Y15000
X9906Y15000
X23454Y5009
X25048Y6740
X21755Y18980
X12903Y19138
X19019Y9339
X18313Y8599
X28075Y5090
X21275Y4490
X24333Y6985
X22842Y5377
X20875Y18410
X11633Y18503
X27885Y14180
X30455Y22861
X27885Y15500
X29197Y17858
X9855Y20320
X8331Y12700
X57480Y44704
X71349Y12700
X61570Y12700
X47102Y15530
X43421Y23914
X68201Y36315
X66554Y27246
X43452Y15893
X59169Y60376
X65100Y56566
X48870Y31242
X62840Y31242
X51181Y40056
X48870Y40132
X51156Y31242
X48870Y34417
X48870Y37338
X51156Y37338
X51029Y34417
X53188Y31242
X53188Y34417
X53188Y37338
X53442Y40132
X55347Y42418
X56236Y40132
X58522Y40132
X61008Y40132
X62630Y40112
X62840Y37338
X62840Y34417
X60808Y31242
X58522Y31242
X57056Y31362
X57036Y34377
X58522Y37338
X60808Y37338
X60681Y34417
X58522Y34417
X43688Y57836
X48743Y42926
X51330Y46236
X67335Y55702
X67412Y51537
X65634Y31242
X65634Y34417
X65634Y37363
X65634Y40030
X65075Y27889
X67310Y53391
X40284Y16612
X40259Y8788
X43282Y12319
X46482Y4775
X39065Y40107
X71603Y37338
X71603Y34417
X39065Y37186
X43663Y60249
X46482Y57683
X62509Y57734
X39065Y34392
X71603Y40005
X58459Y8727
X68892Y9314
X54942Y37398
X54902Y34468
X54802Y31318
X68094Y4779
X59829Y5917
X64874Y17852
X70213Y27162
X73243Y26942
X45110Y25705
X49809Y13995
X50927Y20168
X58928Y19736
X57175Y22225
X58547Y22403
X56642Y7798
X63525Y5588
X65100Y14097
X42697Y23495
X62840Y14326
X62408Y18567
X69037Y21895
X71603Y42545
X71603Y45085
X71603Y47625
X71603Y50165
X71603Y52705
X74143Y52705
X71603Y55245
X71603Y57785
X71603Y60325
X71603Y62865
X74143Y62865
X74143Y57785
X74143Y55245
X74143Y50165
X74143Y47625
X74143Y37338
X74143Y40005
X74143Y34417
X69063Y45085
X66523Y45085
X69063Y47625
X69063Y50165
X66523Y47625
X63983Y47625
X69063Y52705
X69063Y42545
X61443Y47244
X58903Y47625
X58903Y50165
X58903Y52705
X58903Y55245
X58903Y57785
X61443Y50165
X61443Y52705
X61443Y57785
X56363Y55245
X56363Y52705
X56363Y50165
X53950Y50165
X53823Y52705
X53823Y55245
X53823Y57785
X56363Y57785
X53883Y46365
X56363Y46355
X51283Y50165
X51283Y52705
X51283Y55245
X46584Y53594
X46965Y44704
X49378Y46482
X52045Y43307
X51664Y44958
X45441Y56642
X51283Y57785
X49124Y57785
X50267Y56515
X48997Y53594
X46584Y50800
X48997Y50800
X48997Y49530
X46584Y49530
X46584Y47625
X46584Y46355
X69063Y40005
X69063Y37465
X69063Y34290
X74143Y31877
X71603Y31877
X69063Y31877
X69063Y29337
X71603Y29337
X74143Y29337
X43663Y52705
X43663Y50165
X43663Y47625
X43663Y45085
X43663Y42545
X43663Y40005
X43663Y37465
X43663Y34925
X43663Y32385
X41123Y40005
X41123Y42545
X41123Y45085
X41123Y47625
X41123Y50165
X41123Y52705
X41123Y55245
X38583Y47625
X38583Y50165
X38583Y52705
X38583Y55245
X38583Y57785
X38583Y60325
X38583Y62865
X41123Y62865
X41123Y57785
X41123Y60325
X43663Y55245
X46203Y29845
X46203Y32385
X46203Y34925
X46203Y37465
X46203Y40005
X46203Y42545
X46203Y27305
X48743Y27305
X51283Y27305
X53823Y27305
X69063Y57785
X57150Y14783
X46253Y13614
X47777Y15773
X55130Y3250
X64237Y8738
X61443Y7468
X51308Y21819
X48412Y18186
X43663Y62916
X51283Y59563
X70416Y13378
X65735Y21641
X57023Y62763
X46203Y62916
X48743Y62916
X51283Y62916
X45441Y54864
X50267Y54864
X62204Y14969
X57921Y15000
X52579Y20985
X51444Y20920
X58734Y3890
X66944Y5160
X55437Y59920
X57394Y45500
X61294Y45500
X45187Y24892
X45187Y22860
X54458Y60706
X56584Y27810
X55104Y27770
X58141Y60706
X71294Y23000
X65194Y53721
X63551Y54305
X58820Y23099
X57205Y23130
X57814Y10010
X68289Y10027
X58364Y23775
X56622Y23805
X54119Y9989
X64524Y9500
X47854Y4318
X47219Y9779
X49632Y9779
X48362Y9779
X63856Y56896
X62332Y56896
X67884Y22044
X67794Y19060
X62764Y17800
X56584Y17710
X53794Y15000
X47905Y15000
X61453Y5009
X63047Y6740
X59754Y18980
X50902Y19138
X57018Y9339
X56312Y8599
X66074Y5090
X59274Y4490
X62332Y6985
X60841Y5377
X58874Y18410
X49632Y18503
X65884Y14180
X68454Y22861
X65884Y15500
X67196Y17858
X47854Y20320
X46330Y12700
X95479Y44704
X109347Y12700
X99568Y12700
X85100Y15530
X81420Y23914
X106199Y36315
X104552Y27246
X81451Y15893
X97168Y60376
X103099Y56566
X86868Y31242
X100838Y31242
X89179Y40056
X86868Y40132
X89154Y31242
X86868Y34417
X86868Y37338
X89154Y37338
X89027Y34417
X91186Y31242
X91186Y34417
X91186Y37338
X91440Y40132
X93345Y42418
X94234Y40132
X96520Y40132
X99006Y40132
X100628Y40112
X100838Y37338
X100838Y34417
X98806Y31242
X96520Y31242
X95054Y31362
X95034Y34377
X96520Y37338
X98806Y37338
X98679Y34417
X96520Y34417
X81686Y57836
X86741Y42926
X89328Y46236
X105334Y55702
X105410Y51537
X103632Y31242
X103632Y34417
X103632Y37363
X103632Y40030
X103073Y27889
X105308Y53391
X78283Y16612
X78257Y8788
X81280Y12319
X84480Y4775
X77064Y40107
X109601Y37338
X109601Y34417
X77064Y37186
X81661Y60249
X84480Y57683
X100508Y57734
X77064Y34392
X109601Y40005
X96458Y8727
X106891Y9314
X92940Y37398
X92900Y34468
X92800Y31318
X106093Y4779
X97828Y5917
X102872Y17852
X108211Y27162
X111241Y26942
X83109Y25705
X87808Y13995
X88925Y20168
X96926Y19736
X95174Y22225
X96545Y22403
X94640Y7798
X101524Y5588
X103099Y14097
X80696Y23495
X100838Y14326
X100406Y18567
X107036Y21895
X109601Y42545
X109601Y45085
X109601Y47625
X109601Y50165
X109601Y52705
X112141Y52705
X109601Y55245
X109601Y57785
X109601Y60325
X109601Y62865
X112141Y62865
X112141Y57785
X112141Y55245
X112141Y50165
X112141Y47625
X112141Y37338
X112141Y40005
X112141Y34417
X107061Y45085
X104521Y45085
X107061Y47625
X107061Y50165
X104521Y47625
X101981Y47625
X107061Y52705
X107061Y42545
X99441Y47244
X96901Y47625
X96901Y50165
X96901Y52705
X96901Y55245
X96901Y57785
X99441Y50165
X99441Y52705
X99441Y57785
X94361Y55245
X94361Y52705
X94361Y50165
X91948Y50165
X91821Y52705
X91821Y55245
X91821Y57785
X94361Y57785
X91881Y46365
X94361Y46355
X89281Y50165
X89281Y52705
X89281Y55245
X84582Y53594
X84963Y44704
X87376Y46482
X90043Y43307
X89662Y44958
X83439Y56642
X89281Y57785
X87122Y57785
X88265Y56515
X86995Y53594
X84582Y50800
X86995Y50800
X86995Y49530
X84582Y49530
X84582Y47625
X84582Y46355
X107061Y40005
X107061Y37465
X107061Y34290
X112141Y31877
X109601Y31877
X107061Y31877
X107061Y29337
X109601Y29337
X112141Y29337
X81661Y52705
X81661Y50165
X81661Y47625
X81661Y45085
X81661Y42545
X81661Y40005
X81661Y37465
X81661Y34925
X81661Y32385
X79121Y40005
X79121Y42545
X79121Y45085
X79121Y47625
X79121Y50165
X79121Y52705
X79121Y55245
X76581Y47625
X76581Y50165
X76581Y52705
X76581Y55245
X76581Y57785
X76581Y60325
X76581Y62865
X79121Y62865
X79121Y57785
X79121Y60325
X81661Y55245
X84201Y29845
X84201Y32385
X84201Y34925
X84201Y37465
X84201Y40005
X84201Y42545
X84201Y27305
X86741Y27305
X89281Y27305
X91821Y27305
X107061Y57785
X95148Y14783
X84252Y13614
X85776Y15773
X93129Y3250
X102235Y8738
X99441Y7468
X89306Y21819
X86411Y18186
X81661Y62916
X89281Y59563
X108415Y13378
X103734Y21641
X95021Y62763
X84201Y62916
X86741Y62916
X89281Y62916
X83439Y54864
X88265Y54864
X100202Y14969
X95919Y15000
X90577Y20985
X89442Y20920
X96732Y3890
X104942Y5160
X93435Y59920
X95392Y45500
X99292Y45500
X83185Y24892
X83185Y22860
X92456Y60706
X94582Y27810
X93102Y27770
X96139Y60706
X109292Y23000
X103192Y53721
X101549Y54305
X96818Y23099
X95203Y23130
X95812Y10010
X106287Y10027
X96362Y23775
X94620Y23805
X92117Y9989
X102522Y9500
X85852Y4318
X85217Y9779
X87630Y9779
X86360Y9779
X101854Y56896
X100330Y56896
X105882Y22044
X105792Y19060
X100762Y17800
X94582Y17710
X91792Y15000
X85903Y15000
X99451Y5009
X101045Y6740
X97752Y18980
X88900Y19138
X95016Y9339
X94310Y8599
X104072Y5090
X97272Y4490
X100330Y6985
X98839Y5377
X96872Y18410
X87630Y18503
X103882Y14180
X106452Y22861
X103882Y15500
X105194Y17858
X85852Y20320
X84328Y12700
X18009Y91542
X4140Y123546
X13919Y123546
X28387Y120716
X32067Y112331
X7288Y99931
X8935Y109000
X32037Y120352
X16319Y75870
X10389Y79680
X26619Y105004
X12649Y105004
X24308Y96190
X26619Y96114
X24333Y105004
X26619Y101829
X26619Y98908
X24333Y98908
X24460Y101829
X22301Y105004
X22301Y101829
X22301Y98908
X22047Y96114
X20142Y93828
X19253Y96114
X16967Y96114
X14481Y96114
X12859Y96134
X12649Y98908
X12649Y101829
X14681Y105004
X16967Y105004
X18433Y104884
X18453Y101869
X16967Y98908
X14681Y98908
X14808Y101829
X16967Y101829
X31801Y78410
X26746Y93320
X24159Y90010
X8153Y80543
X8077Y84709
X9855Y105004
X9855Y101829
X9855Y98882
X9855Y96215
X10414Y108356
X8179Y82855
X35204Y119634
X35230Y127457
X32207Y123927
X29007Y131470
X36424Y96139
X3886Y98908
X3886Y101829
X36424Y99060
X31826Y75997
X29007Y78562
X12979Y78511
X36424Y101854
X3886Y96241
X17030Y127519
X6597Y126932
X20547Y98848
X20587Y101778
X20687Y104928
X7395Y131467
X15660Y130329
X10615Y118394
X5276Y109084
X2246Y109304
X30378Y110541
X25679Y122250
X24562Y116078
X16561Y116510
X18313Y114021
X16942Y113843
X18847Y128448
X11963Y130658
X10389Y122149
X32791Y112751
X12649Y121920
X13081Y117678
X6452Y114351
X3886Y93701
X3886Y91161
X3886Y88621
X3886Y86081
X3886Y83541
X1346Y83541
X3886Y81001
X3886Y78461
X3886Y75921
X3886Y73381
X1346Y73381
X1346Y78461
X1346Y81001
X1346Y86081
X1346Y88621
X1346Y98908
X1346Y96241
X1346Y101829
X6426Y91161
X8966Y91161
X6426Y88621
X6426Y86081
X8966Y88621
X11506Y88621
X6426Y83541
X6426Y93701
X14046Y89002
X16586Y88621
X16586Y86081
X16586Y83541
X16586Y81001
X16586Y78461
X14046Y86081
X14046Y83541
X14046Y78461
X19126Y81001
X19126Y83541
X19126Y86081
X21539Y86081
X21666Y83541
X21666Y81001
X21666Y78461
X19126Y78461
X21606Y89881
X19126Y89891
X24206Y86081
X24206Y83541
X24206Y81001
X28905Y82652
X28524Y91542
X26111Y89764
X23444Y92939
X23825Y91288
X30048Y79604
X24206Y78461
X26365Y78461
X25222Y79731
X26492Y82652
X28905Y85446
X26492Y85446
X26492Y86716
X28905Y86716
X28905Y88621
X28905Y89891
X6426Y96241
X6426Y98781
X6426Y101956
X1346Y104369
X3886Y104369
X6426Y104369
X6426Y106909
X3886Y106909
X1346Y106909
X31826Y83541
X31826Y86081
X31826Y88621
X31826Y91161
X31826Y93701
X31826Y96241
X31826Y98781
X31826Y101321
X31826Y103861
X34366Y96241
X34366Y93701
X34366Y91161
X34366Y88621
X34366Y86081
X34366Y83541
X34366Y81001
X36906Y88621
X36906Y86081
X36906Y83541
X36906Y81001
X36906Y78461
X36906Y75921
X36906Y73381
X34366Y73381
X34366Y78461
X34366Y75921
X31826Y81001
X29286Y106401
X29286Y103861
X29286Y101321
X29286Y98781
X29286Y96241
X29286Y93701
X29286Y108941
X26746Y108941
X24206Y108941
X21666Y108941
X6426Y78461
X18339Y121463
X29235Y122631
X27711Y120472
X20359Y132996
X11252Y127508
X14046Y128778
X24181Y114427
X27076Y118059
X31826Y73330
X24206Y76683
X5073Y122868
X9754Y114605
X18466Y73482
X29286Y73330
X26746Y73330
X24206Y73330
X30048Y81382
X25222Y81382
X13285Y121276
X17568Y121246
X22910Y115261
X24045Y115326
X16755Y132356
X8545Y131086
X20052Y76326
X18095Y90746
X14195Y90746
X30302Y111354
X30302Y113386
X21031Y75540
X18905Y108436
X20385Y108476
X17348Y75540
X4195Y113246
X10295Y82525
X11938Y81940
X16669Y113147
X18284Y113116
X17675Y126236
X7200Y126219
X17125Y112470
X18867Y112441
X21370Y126256
X10965Y126746
X27635Y131928
X28270Y126467
X25857Y126467
X27127Y126467
X11633Y79350
X13157Y79350
X7605Y114202
X7695Y117186
X12725Y118446
X18905Y118536
X21695Y121246
X27584Y121246
X14036Y131237
X12442Y129506
X15735Y117266
X24587Y117108
X18471Y126907
X19177Y127647
X9415Y131156
X16215Y131756
X13157Y129261
X14648Y130869
X16615Y117836
X25857Y117743
X9605Y122066
X7035Y113385
X9605Y120746
X8293Y118388
X27635Y115926
X29159Y123546
X56007Y91542
X42139Y123546
X51918Y123546
X66386Y120716
X70066Y112331
X45287Y99931
X46934Y109000
X70035Y120352
X54318Y75870
X48387Y79680
X64618Y105004
X50648Y105004
X62306Y96190
X64618Y96114
X62332Y105004
X64618Y101829
X64618Y98908
X62332Y98908
X62459Y101829
X60300Y105004
X60300Y101829
X60300Y98908
X60046Y96114
X58141Y93828
X57252Y96114
X54966Y96114
X52480Y96114
X50858Y96134
X50648Y98908
X50648Y101829
X52680Y105004
X54966Y105004
X56432Y104884
X56452Y101869
X54966Y98908
X52680Y98908
X52807Y101829
X54966Y101829
X69799Y78410
X64745Y93320
X62158Y90010
X46152Y80543
X46076Y84709
X47854Y105004
X47854Y101829
X47854Y98882
X47854Y96215
X48412Y108356
X46177Y82855
X73203Y119634
X73228Y127457
X70206Y123927
X67005Y131470
X74422Y96139
X41885Y98908
X41885Y101829
X74422Y99060
X69825Y75997
X67005Y78562
X50978Y78511
X74422Y101854
X41885Y96241
X55028Y127519
X44595Y126932
X58546Y98848
X58586Y101778
X58686Y104928
X45393Y131467
X53658Y130329
X48614Y118394
X43275Y109084
X40245Y109304
X68377Y110541
X63678Y122250
X62560Y116078
X54559Y116510
X56312Y114021
X54940Y113843
X56845Y128448
X49962Y130658
X48387Y122149
X70790Y112751
X50648Y121920
X51079Y117678
X44450Y114351
X41885Y93701
X41885Y91161
X41885Y88621
X41885Y86081
X41885Y83541
X39345Y83541
X41885Y81001
X41885Y78461
X41885Y75921
X41885Y73381
X39345Y73381
X39345Y78461
X39345Y81001
X39345Y86081
X39345Y88621
X39345Y98908
X39345Y96241
X39345Y101829
X44425Y91161
X46965Y91161
X44425Y88621
X44425Y86081
X46965Y88621
X49505Y88621
X44425Y83541
X44425Y93701
X52045Y89002
X54585Y88621
X54585Y86081
X54585Y83541
X54585Y81001
X54585Y78461
X52045Y86081
X52045Y83541
X52045Y78461
X57125Y81001
X57125Y83541
X57125Y86081
X59538Y86081
X59665Y83541
X59665Y81001
X59665Y78461
X57125Y78461
X59605Y89881
X57125Y89891
X62205Y86081
X62205Y83541
X62205Y81001
X66904Y82652
X66523Y91542
X64110Y89764
X61443Y92939
X61824Y91288
X68047Y79604
X62205Y78461
X64364Y78461
X63221Y79731
X64491Y82652
X66904Y85446
X64491Y85446
X64491Y86716
X66904Y86716
X66904Y88621
X66904Y89891
X44425Y96241
X44425Y98781
X44425Y101956
X39345Y104369
X41885Y104369
X44425Y104369
X44425Y106909
X41885Y106909
X39345Y106909
X69825Y83541
X69825Y86081
X69825Y88621
X69825Y91161
X69825Y93701
X69825Y96241
X69825Y98781
X69825Y101321
X69825Y103861
X72365Y96241
X72365Y93701
X72365Y91161
X72365Y88621
X72365Y86081
X72365Y83541
X72365Y81001
X74905Y88621
X74905Y86081
X74905Y83541
X74905Y81001
X74905Y78461
X74905Y75921
X74905Y73381
X72365Y73381
X72365Y78461
X72365Y75921
X69825Y81001
X67285Y106401
X67285Y103861
X67285Y101321
X67285Y98781
X67285Y96241
X67285Y93701
X67285Y108941
X64745Y108941
X62205Y108941
X59665Y108941
X44425Y78461
X56337Y121463
X67234Y122631
X65710Y120472
X58357Y132996
X49251Y127508
X52045Y128778
X62179Y114427
X65075Y118059
X69825Y73330
X62205Y76683
X43071Y122868
X47752Y114605
X56464Y73482
X67285Y73330
X64745Y73330
X19482Y44704
X68047Y81382
X63221Y81382
X51283Y121276
X55567Y121246
X60909Y115261
X62044Y115326
X54754Y132356
X46544Y131086
X58051Y76326
X56094Y90746
X52194Y90746
X68301Y111354
X68301Y113386
X59030Y75540
X56904Y108436
X58384Y108476
X55347Y75540
X42194Y113246
X48293Y82525
X49936Y81940
X54668Y113147
X56283Y113116
X55674Y126236
X45198Y126219
X55124Y112470
X56866Y112441
X59368Y126256
X48964Y126746
X65634Y131928
X66269Y126467
X63856Y126467
X65126Y126467
X49632Y79350
X51156Y79350
X45604Y114202
X45694Y117186
X50724Y118446
X56904Y118536
X59694Y121246
X65583Y121246
X52035Y131237
X50441Y129506
X53734Y117266
X62586Y117108
X56470Y126907
X57176Y127647
X47414Y131156
X54214Y131756
X51156Y129261
X52647Y130869
X54614Y117836
X63856Y117743
X47604Y122066
X45034Y113385
X47604Y120746
X46292Y118388
X65634Y115926
X67158Y123546
X94005Y91542
X80137Y123546
X89916Y123546
X104384Y120716
X108064Y112331
X83285Y99931
X84932Y109000
X108033Y120352
X92316Y75870
X86385Y79680
X102616Y105004
X88646Y105004
X100305Y96190
X102616Y96114
X100330Y105004
X102616Y101829
X102616Y98908
X100330Y98908
X100457Y101829
X98298Y105004
X98298Y101829
X98298Y98908
X98044Y96114
X96139Y93828
X95250Y96114
X92964Y96114
X90478Y96114
X88856Y96134
X88646Y98908
X88646Y101829
X90678Y105004
X92964Y105004
X94430Y104884
X94450Y101869
X92964Y98908
X90678Y98908
X90805Y101829
X92964Y101829
X107798Y78410
X102743Y93320
X100156Y90010
X84150Y80543
X84074Y84709
X85852Y105004
X85852Y101829
X85852Y98882
X85852Y96215
X86411Y108356
X84176Y82855
X111201Y119634
X111227Y127457
X108204Y123927
X105004Y131470
X112420Y96139
X79883Y98908
X79883Y101829
X112420Y99060
X107823Y75997
X105004Y78562
X88976Y78511
X112420Y101854
X79883Y96241
X93026Y127519
X82593Y126932
X96544Y98848
X96584Y101778
X96684Y104928
X83391Y131467
X91656Y130329
X86612Y118394
X81273Y109084
X78243Y109304
X106375Y110541
X101676Y122250
X100559Y116078
X92558Y116510
X94310Y114021
X92939Y113843
X94844Y128448
X87960Y130658
X86385Y122149
X108788Y112751
X88646Y121920
X89078Y117678
X82448Y114351
X79883Y93701
X79883Y91161
X79883Y88621
X79883Y86081
X79883Y83541
X77343Y83541
X79883Y81001
X79883Y78461
X79883Y75921
X79883Y73381
X77343Y73381
X77343Y78461
X77343Y81001
X77343Y86081
X77343Y88621
X77343Y98908
X77343Y96241
X77343Y101829
X82423Y91161
X84963Y91161
X82423Y88621
X82423Y86081
X84963Y88621
X87503Y88621
X82423Y83541
X82423Y93701
X90043Y89002
X92583Y88621
X92583Y86081
X92583Y83541
X92583Y81001
X92583Y78461
X90043Y86081
X90043Y83541
X90043Y78461
X95123Y81001
X95123Y83541
X95123Y86081
X97536Y86081
X97663Y83541
X97663Y81001
X97663Y78461
X95123Y78461
X97603Y89881
X95123Y89891
X100203Y86081
X100203Y83541
X100203Y81001
X104902Y82652
X104521Y91542
X102108Y89764
X99441Y92939
X99822Y91288
X106045Y79604
X100203Y78461
X102362Y78461
X101219Y79731
X102489Y82652
X104902Y85446
X102489Y85446
X102489Y86716
X104902Y86716
X104902Y88621
X104902Y89891
X82423Y96241
X82423Y98781
X82423Y101956
X77343Y104369
X79883Y104369
X82423Y104369
X82423Y106909
X62205Y73330
X77343Y106909
X107823Y83541
X107823Y86081
X107823Y88621
X107823Y91161
X107823Y93701
X107823Y96241
X107823Y98781
X107823Y101321
X107823Y103861
X110363Y96241
X110363Y93701
X110363Y91161
X110363Y88621
X110363Y86081
X110363Y83541
X110363Y81001
X112903Y88621
X112903Y86081
X112903Y83541
X112903Y81001
X112903Y78461
X112903Y75921
X112903Y73381
X110363Y73381
X110363Y78461
X110363Y75921
X107823Y81001
X105283Y106401
X105283Y103861
X105283Y101321
X105283Y98781
X105283Y96241
X105283Y93701
X105283Y108941
X102743Y108941
X100203Y108941
X97663Y108941
X82423Y78461
X94336Y121463
X105232Y122631
X103708Y120472
X96355Y132996
X87249Y127508
X90043Y128778
X100178Y114427
X103073Y118059
X107823Y73330
X100203Y76683
X81069Y122868
X85750Y114605
X94463Y73482
X105283Y73330
X102743Y73330
X100203Y73330
X106045Y81382
X101219Y81382
X89282Y121276
X93565Y121246
X98907Y115261
X100042Y115326
X92752Y132356
X84542Y131086
X96049Y76326
X94092Y90746
X90192Y90746
X106299Y111354
X106299Y113386
X97028Y75540
X94902Y108436
X96382Y108476
X93345Y75540
X80192Y113246
X86292Y82525
X87935Y81940
X92666Y113147
X94281Y113116
X93672Y126236
X83197Y126219
X93122Y112470
X94864Y112441
X97367Y126256
X86962Y126746
X103632Y131928
X104267Y126467
X101854Y126467
X103124Y126467
X87630Y79350
X89154Y79350
X83602Y114202
X83692Y117186
X88722Y118446
X94902Y118536
X97692Y121246
X103581Y121246
X90033Y131237
X88439Y129506
X91732Y117266
X100584Y117108
X94468Y126907
X95174Y127647
X85412Y131156
X92212Y131756
X89154Y129261
X90645Y130869
X92612Y117836
X101854Y117743
X85602Y122066
X83032Y113385
X85602Y120746
X84290Y118388
X103632Y115926
X105156Y123546
X33350Y12700
X23571Y12700
X9103Y15530
X5423Y23914
X30202Y36315
X28555Y27246
X5454Y15893
X21171Y60376
X27102Y56566
X10871Y31242
X24841Y31242
X13183Y40056
X10871Y40132
X13157Y31242
X10871Y34417
X10871Y37338
X36745Y46100
X36745Y41900
X35445Y44000
X745Y41900
X745Y46100
X2045Y44000
X13157Y37338
X13030Y34417
X15189Y31242
X15189Y34417
X15189Y37338
X15443Y40132
X17348Y42418
X18237Y40132
X20523Y40132
X74744Y46100
X74744Y41900
X73444Y44000
X38744Y41900
X38744Y46100
X40044Y44000
X23009Y40132
X24631Y40112
X24841Y37338
X24841Y34417
X22809Y31242
X20523Y31242
X19057Y31362
X19037Y34377
X20523Y37338
X112742Y46100
X112742Y41900
X111442Y44000
X76742Y41900
X76742Y46100
X78042Y44000
X22809Y37338
X22682Y34417
X20523Y34417
X5690Y57836
X10744Y42926
X13331Y46236
X29337Y55702
X29413Y51537
X27635Y31242
X745Y90146
X745Y94346
X2045Y92246
X36745Y94346
X36745Y90146
X35445Y92246
X27635Y34417
X27635Y37363
X27635Y40030
X27076Y27889
X29312Y53391
X2286Y16612
X2261Y8788
X5283Y12319
X8484Y4775
X38744Y90146
X38744Y94346
X40044Y92246
X74744Y94346
X74744Y90146
X73444Y92246
X1067Y40107
X33604Y37338
X33604Y34417
X1067Y37186
X5664Y60249
X8484Y57683
X24511Y57734
X1067Y34392
X33604Y40005
X76742Y90146
X76742Y94346
X78042Y92246
X112742Y94346
X112742Y90146
X111442Y92246
X20461Y8727
X30894Y9314
X16943Y37398
X16903Y34468
X79883Y106909
M30